# https://github.com/mikedh/trimesh
v -0.96000000 0.13000000 -1.52000000
v -0.96000000 0.13000000 1.88000000
v -0.96000000 1.41000000 -1.52000000
v -0.96000000 1.41000000 1.88000000
v 0.96000000 0.13000000 -1.52000000
v 0.96000000 0.13000000 1.88000000
v 0.96000000 1.41000000 -1.52000000
v 0.96000000 1.41000000 1.88000000
v -0.89000000 0.79381744 -1.76619665
v -0.89000000 1.01713814 -0.46522476
v -0.89000000 1.54286186 -1.89477524
v -0.89000000 1.76618256 -0.59380335
v 0.89000000 0.79381744 -1.76619665
v 0.89000000 1.01713814 -0.46522476
v 0.89000000 1.54286186 -1.89477524
v 0.89000000 1.76618256 -0.59380335
v -0.89197166 1.45227581 -1.16500000
v -0.89197166 1.45227581 1.68500000
v -0.88747212 1.63221956 -1.16500000
v -0.88747212 1.63221956 1.68500000
v 0.88747212 1.40778044 -1.16500000
v 0.88747212 1.40778044 1.68500000
v 0.89197166 1.58772419 -1.16500000
v 0.89197166 1.58772419 1.68500000
v -0.89000000 0.87524922 -1.72734930
v -0.89000000 0.89511616 -1.62934265
v -0.89000000 1.38488384 -1.83065735
v -0.89000000 1.40475078 -1.73265070
v 0.89000000 0.87524922 -1.72734930
v 0.89000000 0.89511616 -1.62934265
v 0.89000000 1.38488384 -1.83065735
v 0.89000000 1.40475078 -1.73265070
v -0.95000000 0.34000000 -1.86000000
v -0.95000000 0.34000000 -1.60000000
v -0.95000000 0.50000000 -1.86000000
v -0.95000000 0.50000000 -1.60000000
v 0.95000000 0.34000000 -1.86000000
v 0.95000000 0.34000000 -1.60000000
v 0.95000000 0.50000000 -1.86000000
v 0.95000000 0.50000000 -1.60000000
v -1.08000000 0.40000000 -0.95000000
v -1.08000000 0.40000000 -1.29000000
v -0.88000000 0.40000000 -1.29000000
v -0.88000000 0.40000000 -0.95000000
v -1.08000000 0.50506578 -1.27335922
v -0.88000000 0.50506578 -1.27335922
v -1.08000000 0.59984699 -1.22506578
v -0.88000000 0.59984699 -1.22506578
v -1.08000000 0.67506578 -1.14984699
v -0.88000000 0.67506578 -1.14984699
v -1.08000000 0.72335922 -1.05506578
v -0.88000000 0.72335922 -1.05506578
v -1.08000000 0.74000000 -0.95000000
v -0.88000000 0.74000000 -0.95000000
v -1.08000000 0.72335922 -0.84493422
v -0.88000000 0.72335922 -0.84493422
v -1.08000000 0.67506578 -0.75015301
v -0.88000000 0.67506578 -0.75015301
v -1.08000000 0.59984699 -0.67493422
v -0.88000000 0.59984699 -0.67493422
v -1.08000000 0.50506578 -0.62664078
v -0.88000000 0.50506578 -0.62664078
v -1.08000000 0.40000000 -0.61000000
v -0.88000000 0.40000000 -0.61000000
v -1.08000000 0.29493422 -0.62664078
v -0.88000000 0.29493422 -0.62664078
v -1.08000000 0.20015301 -0.67493422
v -0.88000000 0.20015301 -0.67493422
v -1.08000000 0.12493422 -0.75015301
v -0.88000000 0.12493422 -0.75015301
v -1.08000000 0.07664078 -0.84493422
v -0.88000000 0.07664078 -0.84493422
v -1.08000000 0.06000000 -0.95000000
v -0.88000000 0.06000000 -0.95000000
v -1.08000000 0.07664078 -1.05506578
v -0.88000000 0.07664078 -1.05506578
v -1.08000000 0.12493422 -1.14984699
v -0.88000000 0.12493422 -1.14984699
v -1.08000000 0.20015301 -1.22506578
v -0.88000000 0.20015301 -1.22506578
v -1.08000000 0.29493422 -1.27335922
v -0.88000000 0.29493422 -1.27335922
v -1.08800000 0.40000000 -0.95000000
v -1.08800000 0.40000000 -1.13700000
v -0.87200000 0.40000000 -1.13700000
v -0.87200000 0.40000000 -0.95000000
v -1.08800000 0.48113626 -1.11848118
v -0.87200000 0.48113626 -1.11848118
v -1.08800000 0.54620249 -1.06659259
v -0.87200000 0.54620249 -1.06659259
v -1.08800000 0.58231152 -0.99161141
v -0.87200000 0.58231152 -0.99161141
v -1.08800000 0.58231152 -0.90838859
v -0.87200000 0.58231152 -0.90838859
v -1.08800000 0.54620249 -0.83340741
v -0.87200000 0.54620249 -0.83340741
v -1.08800000 0.48113626 -0.78151882
v -0.87200000 0.48113626 -0.78151882
v -1.08800000 0.40000000 -0.76300000
v -0.87200000 0.40000000 -0.76300000
v -1.08800000 0.31886374 -0.78151882
v -0.87200000 0.31886374 -0.78151882
v -1.08800000 0.25379751 -0.83340741
v -0.87200000 0.25379751 -0.83340741
v -1.08800000 0.21768848 -0.90838859
v -0.87200000 0.21768848 -0.90838859
v -1.08800000 0.21768848 -0.99161141
v -0.87200000 0.21768848 -0.99161141
v -1.08800000 0.25379751 -1.06659259
v -0.87200000 0.25379751 -1.06659259
v -1.08800000 0.31886374 -1.11848118
v -0.87200000 0.31886374 -1.11848118
v 0.88000000 0.40000000 -0.95000000
v 0.88000000 0.40000000 -1.29000000
v 1.08000000 0.40000000 -1.29000000
v 1.08000000 0.40000000 -0.95000000
v 0.88000000 0.50506578 -1.27335922
v 1.08000000 0.50506578 -1.27335922
v 0.88000000 0.59984699 -1.22506578
v 1.08000000 0.59984699 -1.22506578
v 0.88000000 0.67506578 -1.14984699
v 1.08000000 0.67506578 -1.14984699
v 0.88000000 0.72335922 -1.05506578
v 1.08000000 0.72335922 -1.05506578
v 0.88000000 0.74000000 -0.95000000
v 1.08000000 0.74000000 -0.95000000
v 0.88000000 0.72335922 -0.84493422
v 1.08000000 0.72335922 -0.84493422
v 0.88000000 0.67506578 -0.75015301
v 1.08000000 0.67506578 -0.75015301
v 0.88000000 0.59984699 -0.67493422
v 1.08000000 0.59984699 -0.67493422
v 0.88000000 0.50506578 -0.62664078
v 1.08000000 0.50506578 -0.62664078
v 0.88000000 0.40000000 -0.61000000
v 1.08000000 0.40000000 -0.61000000
v 0.88000000 0.29493422 -0.62664078
v 1.08000000 0.29493422 -0.62664078
v 0.88000000 0.20015301 -0.67493422
v 1.08000000 0.20015301 -0.67493422
v 0.88000000 0.12493422 -0.75015301
v 1.08000000 0.12493422 -0.75015301
v 0.88000000 0.07664078 -0.84493422
v 1.08000000 0.07664078 -0.84493422
v 0.88000000 0.06000000 -0.95000000
v 1.08000000 0.06000000 -0.95000000
v 0.88000000 0.07664078 -1.05506578
v 1.08000000 0.07664078 -1.05506578
v 0.88000000 0.12493422 -1.14984699
v 1.08000000 0.12493422 -1.14984699
v 0.88000000 0.20015301 -1.22506578
v 1.08000000 0.20015301 -1.22506578
v 0.88000000 0.29493422 -1.27335922
v 1.08000000 0.29493422 -1.27335922
v 0.87200000 0.40000000 -0.95000000
v 0.87200000 0.40000000 -1.13700000
v 1.08800000 0.40000000 -1.13700000
v 1.08800000 0.40000000 -0.95000000
v 0.87200000 0.48113626 -1.11848118
v 1.08800000 0.48113626 -1.11848118
v 0.87200000 0.54620249 -1.06659259
v 1.08800000 0.54620249 -1.06659259
v 0.87200000 0.58231152 -0.99161141
v 1.08800000 0.58231152 -0.99161141
v 0.87200000 0.58231152 -0.90838859
v 1.08800000 0.58231152 -0.90838859
v 0.87200000 0.54620249 -0.83340741
v 1.08800000 0.54620249 -0.83340741
v 0.87200000 0.48113626 -0.78151882
v 1.08800000 0.48113626 -0.78151882
v 0.87200000 0.40000000 -0.76300000
v 1.08800000 0.40000000 -0.76300000
v 0.87200000 0.31886374 -0.78151882
v 1.08800000 0.31886374 -0.78151882
v 0.87200000 0.25379751 -0.83340741
v 1.08800000 0.25379751 -0.83340741
v 0.87200000 0.21768848 -0.90838859
v 1.08800000 0.21768848 -0.90838859
v 0.87200000 0.21768848 -0.99161141
v 1.08800000 0.21768848 -0.99161141
v 0.87200000 0.25379751 -1.06659259
v 1.08800000 0.25379751 -1.06659259
v 0.87200000 0.31886374 -1.11848118
v 1.08800000 0.31886374 -1.11848118
v -1.08000000 0.40000000 1.05000000
v -1.08000000 0.40000000 0.71000000
v -0.88000000 0.40000000 0.71000000
v -0.88000000 0.40000000 1.05000000
v -1.08000000 0.50506578 0.72664078
v -0.88000000 0.50506578 0.72664078
v -1.08000000 0.59984699 0.77493422
v -0.88000000 0.59984699 0.77493422
v -1.08000000 0.67506578 0.85015301
v -0.88000000 0.67506578 0.85015301
v -1.08000000 0.72335922 0.94493422
v -0.88000000 0.72335922 0.94493422
v -1.08000000 0.74000000 1.05000000
v -0.88000000 0.74000000 1.05000000
v -1.08000000 0.72335922 1.15506578
v -0.88000000 0.72335922 1.15506578
v -1.08000000 0.67506578 1.24984699
v -0.88000000 0.67506578 1.24984699
v -1.08000000 0.59984699 1.32506578
v -0.88000000 0.59984699 1.32506578
v -1.08000000 0.50506578 1.37335922
v -0.88000000 0.50506578 1.37335922
v -1.08000000 0.40000000 1.39000000
v -0.88000000 0.40000000 1.39000000
v -1.08000000 0.29493422 1.37335922
v -0.88000000 0.29493422 1.37335922
v -1.08000000 0.20015301 1.32506578
v -0.88000000 0.20015301 1.32506578
v -1.08000000 0.12493422 1.24984699
v -0.88000000 0.12493422 1.24984699
v -1.08000000 0.07664078 1.15506578
v -0.88000000 0.07664078 1.15506578
v -1.08000000 0.06000000 1.05000000
v -0.88000000 0.06000000 1.05000000
v -1.08000000 0.07664078 0.94493422
v -0.88000000 0.07664078 0.94493422
v -1.08000000 0.12493422 0.85015301
v -0.88000000 0.12493422 0.85015301
v -1.08000000 0.20015301 0.77493422
v -0.88000000 0.20015301 0.77493422
v -1.08000000 0.29493422 0.72664078
v -0.88000000 0.29493422 0.72664078
v -1.08800000 0.40000000 1.05000000
v -1.08800000 0.40000000 0.86300000
v -0.87200000 0.40000000 0.86300000
v -0.87200000 0.40000000 1.05000000
v -1.08800000 0.48113626 0.88151882
v -0.87200000 0.48113626 0.88151882
v -1.08800000 0.54620249 0.93340741
v -0.87200000 0.54620249 0.93340741
v -1.08800000 0.58231152 1.00838859
v -0.87200000 0.58231152 1.00838859
v -1.08800000 0.58231152 1.09161141
v -0.87200000 0.58231152 1.09161141
v -1.08800000 0.54620249 1.16659259
v -0.87200000 0.54620249 1.16659259
v -1.08800000 0.48113626 1.21848118
v -0.87200000 0.48113626 1.21848118
v -1.08800000 0.40000000 1.23700000
v -0.87200000 0.40000000 1.23700000
v -1.08800000 0.31886374 1.21848118
v -0.87200000 0.31886374 1.21848118
v -1.08800000 0.25379751 1.16659259
v -0.87200000 0.25379751 1.16659259
v -1.08800000 0.21768848 1.09161141
v -0.87200000 0.21768848 1.09161141
v -1.08800000 0.21768848 1.00838859
v -0.87200000 0.21768848 1.00838859
v -1.08800000 0.25379751 0.93340741
v -0.87200000 0.25379751 0.93340741
v -1.08800000 0.31886374 0.88151882
v -0.87200000 0.31886374 0.88151882
v 0.88000000 0.40000000 1.05000000
v 0.88000000 0.40000000 0.71000000
v 1.08000000 0.40000000 0.71000000
v 1.08000000 0.40000000 1.05000000
v 0.88000000 0.50506578 0.72664078
v 1.08000000 0.50506578 0.72664078
v 0.88000000 0.59984699 0.77493422
v 1.08000000 0.59984699 0.77493422
v 0.88000000 0.67506578 0.85015301
v 1.08000000 0.67506578 0.85015301
v 0.88000000 0.72335922 0.94493422
v 1.08000000 0.72335922 0.94493422
v 0.88000000 0.74000000 1.05000000
v 1.08000000 0.74000000 1.05000000
v 0.88000000 0.72335922 1.15506578
v 1.08000000 0.72335922 1.15506578
v 0.88000000 0.67506578 1.24984699
v 1.08000000 0.67506578 1.24984699
v 0.88000000 0.59984699 1.32506578
v 1.08000000 0.59984699 1.32506578
v 0.88000000 0.50506578 1.37335922
v 1.08000000 0.50506578 1.37335922
v 0.88000000 0.40000000 1.39000000
v 1.08000000 0.40000000 1.39000000
v 0.88000000 0.29493422 1.37335922
v 1.08000000 0.29493422 1.37335922
v 0.88000000 0.20015301 1.32506578
v 1.08000000 0.20015301 1.32506578
v 0.88000000 0.12493422 1.24984699
v 1.08000000 0.12493422 1.24984699
v 0.88000000 0.07664078 1.15506578
v 1.08000000 0.07664078 1.15506578
v 0.88000000 0.06000000 1.05000000
v 1.08000000 0.06000000 1.05000000
v 0.88000000 0.07664078 0.94493422
v 1.08000000 0.07664078 0.94493422
v 0.88000000 0.12493422 0.85015301
v 1.08000000 0.12493422 0.85015301
v 0.88000000 0.20015301 0.77493422
v 1.08000000 0.20015301 0.77493422
v 0.88000000 0.29493422 0.72664078
v 1.08000000 0.29493422 0.72664078
v 0.87200000 0.40000000 1.05000000
v 0.87200000 0.40000000 0.86300000
v 1.08800000 0.40000000 0.86300000
v 1.08800000 0.40000000 1.05000000
v 0.87200000 0.48113626 0.88151882
v 1.08800000 0.48113626 0.88151882
v 0.87200000 0.54620249 0.93340741
v 1.08800000 0.54620249 0.93340741
v 0.87200000 0.58231152 1.00838859
v 1.08800000 0.58231152 1.00838859
v 0.87200000 0.58231152 1.09161141
v 1.08800000 0.58231152 1.09161141
v 0.87200000 0.54620249 1.16659259
v 1.08800000 0.54620249 1.16659259
v 0.87200000 0.48113626 1.21848118
v 1.08800000 0.48113626 1.21848118
v 0.87200000 0.40000000 1.23700000
v 1.08800000 0.40000000 1.23700000
v 0.87200000 0.31886374 1.21848118
v 1.08800000 0.31886374 1.21848118
v 0.87200000 0.25379751 1.16659259
v 1.08800000 0.25379751 1.16659259
v 0.87200000 0.21768848 1.09161141
v 1.08800000 0.21768848 1.09161141
v 0.87200000 0.21768848 1.00838859
v 1.08800000 0.21768848 1.00838859
v 0.87200000 0.25379751 0.93340741
v 1.08800000 0.25379751 0.93340741
v 0.87200000 0.31886374 0.88151882
v 1.08800000 0.31886374 0.88151882
v -0.87148571 0.39000000 1.89787696
v -0.86589169 0.39000000 1.96765308
v -0.87148571 1.41000000 1.89787696
v -0.86589169 1.41000000 1.96765308
v -0.05410831 0.39000000 1.83234692
v -0.04851429 0.39000000 1.90212304
v -0.05410831 1.41000000 1.83234692
v -0.04851429 1.41000000 1.90212304
v 0.06081295 0.39000000 1.80012658
v 0.04966068 0.39000000 1.86923249
v 0.06081295 1.41000000 1.80012658
v 0.04966068 1.41000000 1.86923249
v 0.87033932 0.39000000 1.93076751
v 0.85918705 0.39000000 1.99987342
v 0.87033932 1.41000000 1.93076751
v 0.85918705 1.41000000 1.99987342
v -0.55000000 1.62500000 -0.45000000
v -0.55000000 1.62500000 -0.25000000
v -0.55000000 1.73500000 -0.45000000
v -0.55000000 1.73500000 -0.25000000
v 0.55000000 1.62500000 -0.45000000
v 0.55000000 1.62500000 -0.25000000
v 0.55000000 1.73500000 -0.45000000
v 0.55000000 1.73500000 -0.25000000
vn -0.57735027 -0.57735027 -0.57735027
vn -0.57735027 -0.57735027 0.57735027
vn -0.57735027 0.57735027 -0.57735027
vn -0.57735027 0.57735027 0.57735027
vn 0.57735027 -0.57735027 -0.57735027
vn 0.57735027 -0.57735027 0.57735027
vn 0.57735027 0.57735027 -0.57735027
vn 0.57735027 0.57735027 0.57735027
vn -0.57735027 -0.66670511 -0.47135016
vn -0.57735027 -0.47135016 0.66670511
vn -0.57735027 0.47135016 -0.66670511
vn -0.57735027 0.66670511 0.47135016
vn 0.57735027 -0.66670511 -0.47135016
vn 0.57735027 -0.47135016 0.66670511
vn 0.57735027 0.47135016 -0.66670511
vn 0.57735027 0.66670511 0.47135016
vn -0.59160211 -0.56273760 -0.57735027
vn -0.59160211 -0.56273760 0.57735027
vn -0.56273760 0.59160211 -0.57735027
vn -0.56273760 0.59160211 0.57735027
vn 0.56273760 -0.59160211 -0.57735027
vn 0.56273760 -0.59160211 0.57735027
vn 0.59160211 0.56273760 -0.57735027
vn 0.59160211 0.56273760 0.57735027
vn -0.57735027 -0.68054349 -0.45113991
vn -0.57735027 -0.45113991 0.68054349
vn -0.57735027 0.45113991 -0.68054349
vn -0.57735027 0.68054349 0.45113991
vn 0.57735027 -0.68054349 -0.45113991
vn 0.57735027 -0.45113991 0.68054349
vn 0.57735027 0.45113991 -0.68054349
vn 0.57735027 0.68054349 0.45113991
vn -0.57735027 -0.57735027 -0.57735027
vn -0.57735027 -0.57735027 0.57735027
vn -0.57735027 0.57735027 -0.57735027
vn -0.57735027 0.57735027 0.57735027
vn 0.57735027 -0.57735027 -0.57735027
vn 0.57735027 -0.57735027 0.57735027
vn 0.57735027 0.57735027 -0.57735027
vn 0.57735027 0.57735027 0.57735027
vn -1.00000000 0.00000000 0.00000000
vn -0.67353341 0.00000000 -0.73915678
vn 0.67353341 0.00000000 -0.73915678
vn 1.00000000 -0.00000000 0.00000000
vn -0.67353341 0.22841201 -0.70297987
vn 0.67353341 0.22841201 -0.70297987
vn -0.67353341 0.43446545 -0.59799039
vn 0.67353341 0.43446545 -0.59799039
vn -0.67353341 0.59799039 -0.43446545
vn 0.67353341 0.59799039 -0.43446545
vn -0.67353341 0.70297987 -0.22841201
vn 0.67353341 0.70297987 -0.22841201
vn -0.67353341 0.73915678 0.00000000
vn 0.67353341 0.73915678 0.00000000
vn -0.67353341 0.70297987 0.22841201
vn 0.67353341 0.70297987 0.22841201
vn -0.67353341 0.59799039 0.43446545
vn 0.67353341 0.59799039 0.43446545
vn -0.67353341 0.43446545 0.59799039
vn 0.67353341 0.43446545 0.59799039
vn -0.67353341 0.22841201 0.70297987
vn 0.67353341 0.22841201 0.70297987
vn -0.67353341 0.00000000 0.73915678
vn 0.67353341 0.00000000 0.73915678
vn -0.67353341 -0.22841201 0.70297987
vn 0.67353341 -0.22841201 0.70297987
vn -0.67353341 -0.43446545 0.59799039
vn 0.67353341 -0.43446545 0.59799039
vn -0.67353341 -0.59799039 0.43446545
vn 0.67353341 -0.59799039 0.43446545
vn -0.67353341 -0.70297987 0.22841201
vn 0.67353341 -0.70297987 0.22841201
vn -0.67353341 -0.73915678 0.00000000
vn 0.67353341 -0.73915678 -0.00000000
vn -0.67353341 -0.70297987 -0.22841201
vn 0.67353341 -0.70297987 -0.22841201
vn -0.67353341 -0.59799039 -0.43446545
vn 0.67353341 -0.59799039 -0.43446545
vn -0.67353341 -0.43446545 -0.59799039
vn 0.67353341 -0.43446545 -0.59799039
vn -0.67353341 -0.22841201 -0.70297987
vn 0.67353341 -0.22841201 -0.70297987
vn -1.00000000 0.00000000 0.00000000
vn -0.66028325 0.00000000 -0.75101666
vn 0.66028325 0.00000000 -0.75101666
vn 1.00000000 0.00000000 0.00000000
vn -0.66028325 0.32585392 -0.67664263
vn 0.66028325 0.32585392 -0.67664263
vn -0.66028325 0.58716847 -0.46825123
vn 0.66028325 0.58716847 -0.46825123
vn -0.66028325 0.73218711 -0.16711693
vn 0.66028325 0.73218711 -0.16711693
vn -0.66028325 0.73218711 0.16711693
vn 0.66028325 0.73218711 0.16711693
vn -0.66028325 0.58716847 0.46825123
vn 0.66028325 0.58716847 0.46825123
vn -0.66028325 0.32585392 0.67664263
vn 0.66028325 0.32585392 0.67664263
vn -0.66028325 -0.00000000 0.75101666
vn 0.66028325 -0.00000000 0.75101666
vn -0.66028325 -0.32585392 0.67664263
vn 0.66028325 -0.32585392 0.67664263
vn -0.66028325 -0.58716847 0.46825123
vn 0.66028325 -0.58716847 0.46825123
vn -0.66028325 -0.73218711 0.16711693
vn 0.66028325 -0.73218711 0.16711693
vn -0.66028325 -0.73218711 -0.16711693
vn 0.66028325 -0.73218711 -0.16711693
vn -0.66028325 -0.58716847 -0.46825123
vn 0.66028325 -0.58716847 -0.46825123
vn -0.66028325 -0.32585392 -0.67664263
vn 0.66028325 -0.32585392 -0.67664263
vn -1.00000000 0.00000000 -0.00000000
vn -0.67353341 0.00000000 -0.73915678
vn 0.67353341 0.00000000 -0.73915678
vn 1.00000000 0.00000000 0.00000000
vn -0.67353341 0.22841201 -0.70297987
vn 0.67353341 0.22841201 -0.70297987
vn -0.67353341 0.43446545 -0.59799039
vn 0.67353341 0.43446545 -0.59799039
vn -0.67353341 0.59799039 -0.43446545
vn 0.67353341 0.59799039 -0.43446545
vn -0.67353341 0.70297987 -0.22841201
vn 0.67353341 0.70297987 -0.22841201
vn -0.67353341 0.73915678 0.00000000
vn 0.67353341 0.73915678 0.00000000
vn -0.67353341 0.70297987 0.22841201
vn 0.67353341 0.70297987 0.22841201
vn -0.67353341 0.59799039 0.43446545
vn 0.67353341 0.59799039 0.43446545
vn -0.67353341 0.43446545 0.59799039
vn 0.67353341 0.43446545 0.59799039
vn -0.67353341 0.22841201 0.70297987
vn 0.67353341 0.22841201 0.70297987
vn -0.67353341 -0.00000000 0.73915678
vn 0.67353341 0.00000000 0.73915678
vn -0.67353341 -0.22841201 0.70297987
vn 0.67353341 -0.22841201 0.70297987
vn -0.67353341 -0.43446545 0.59799039
vn 0.67353341 -0.43446545 0.59799039
vn -0.67353341 -0.59799039 0.43446545
vn 0.67353341 -0.59799039 0.43446545
vn -0.67353341 -0.70297987 0.22841201
vn 0.67353341 -0.70297987 0.22841201
vn -0.67353341 -0.73915678 0.00000000
vn 0.67353341 -0.73915678 -0.00000000
vn -0.67353341 -0.70297987 -0.22841201
vn 0.67353341 -0.70297987 -0.22841201
vn -0.67353341 -0.59799039 -0.43446545
vn 0.67353341 -0.59799039 -0.43446545
vn -0.67353341 -0.43446545 -0.59799039
vn 0.67353341 -0.43446545 -0.59799039
vn -0.67353341 -0.22841201 -0.70297987
vn 0.67353341 -0.22841201 -0.70297987
vn -1.00000000 0.00000000 0.00000000
vn -0.66028325 0.00000000 -0.75101666
vn 0.66028325 0.00000000 -0.75101666
vn 1.00000000 0.00000000 0.00000000
vn -0.66028325 0.32585392 -0.67664263
vn 0.66028325 0.32585392 -0.67664263
vn -0.66028325 0.58716847 -0.46825123
vn 0.66028325 0.58716847 -0.46825123
vn -0.66028325 0.73218711 -0.16711693
vn 0.66028325 0.73218711 -0.16711693
vn -0.66028325 0.73218711 0.16711693
vn 0.66028325 0.73218711 0.16711693
vn -0.66028325 0.58716847 0.46825123
vn 0.66028325 0.58716847 0.46825123
vn -0.66028325 0.32585392 0.67664263
vn 0.66028325 0.32585392 0.67664263
vn -0.66028325 -0.00000000 0.75101666
vn 0.66028325 -0.00000000 0.75101666
vn -0.66028325 -0.32585392 0.67664263
vn 0.66028325 -0.32585392 0.67664263
vn -0.66028325 -0.58716847 0.46825123
vn 0.66028325 -0.58716847 0.46825123
vn -0.66028325 -0.73218711 0.16711693
vn 0.66028325 -0.73218711 0.16711693
vn -0.66028325 -0.73218711 -0.16711693
vn 0.66028325 -0.73218711 -0.16711693
vn -0.66028325 -0.58716847 -0.46825123
vn 0.66028325 -0.58716847 -0.46825123
vn -0.66028325 -0.32585392 -0.67664263
vn 0.66028325 -0.32585392 -0.67664263
vn -1.00000000 0.00000000 0.00000000
vn -0.67353341 0.00000000 -0.73915678
vn 0.67353341 0.00000000 -0.73915678
vn 1.00000000 -0.00000000 0.00000000
vn -0.67353341 0.22841201 -0.70297987
vn 0.67353341 0.22841201 -0.70297987
vn -0.67353341 0.43446545 -0.59799039
vn 0.67353341 0.43446545 -0.59799039
vn -0.67353341 0.59799039 -0.43446545
vn 0.67353341 0.59799039 -0.43446545
vn -0.67353341 0.70297987 -0.22841201
vn 0.67353341 0.70297987 -0.22841201
vn -0.67353341 0.73915678 -0.00000000
vn 0.67353341 0.73915678 -0.00000000
vn -0.67353341 0.70297987 0.22841201
vn 0.67353341 0.70297987 0.22841201
vn -0.67353341 0.59799039 0.43446545
vn 0.67353341 0.59799039 0.43446545
vn -0.67353341 0.43446545 0.59799039
vn 0.67353341 0.43446545 0.59799039
vn -0.67353341 0.22841201 0.70297987
vn 0.67353341 0.22841201 0.70297987
vn -0.67353341 0.00000000 0.73915678
vn 0.67353341 0.00000000 0.73915678
vn -0.67353341 -0.22841201 0.70297987
vn 0.67353341 -0.22841201 0.70297987
vn -0.67353341 -0.43446545 0.59799039
vn 0.67353341 -0.43446545 0.59799039
vn -0.67353341 -0.59799039 0.43446545
vn 0.67353341 -0.59799039 0.43446545
vn -0.67353341 -0.70297987 0.22841201
vn 0.67353341 -0.70297987 0.22841201
vn -0.67353341 -0.73915678 -0.00000000
vn 0.67353341 -0.73915678 -0.00000000
vn -0.67353341 -0.70297987 -0.22841201
vn 0.67353341 -0.70297987 -0.22841201
vn -0.67353341 -0.59799039 -0.43446545
vn 0.67353341 -0.59799039 -0.43446545
vn -0.67353341 -0.43446545 -0.59799039
vn 0.67353341 -0.43446545 -0.59799039
vn -0.67353341 -0.22841201 -0.70297987
vn 0.67353341 -0.22841201 -0.70297987
vn -1.00000000 0.00000000 0.00000000
vn -0.66028325 0.00000000 -0.75101666
vn 0.66028325 0.00000000 -0.75101666
vn 1.00000000 0.00000000 0.00000000
vn -0.66028325 0.32585392 -0.67664263
vn 0.66028325 0.32585392 -0.67664263
vn -0.66028325 0.58716847 -0.46825123
vn 0.66028325 0.58716847 -0.46825123
vn -0.66028325 0.73218711 -0.16711693
vn 0.66028325 0.73218711 -0.16711693
vn -0.66028325 0.73218711 0.16711693
vn 0.66028325 0.73218711 0.16711693
vn -0.66028325 0.58716847 0.46825123
vn 0.66028325 0.58716847 0.46825123
vn -0.66028325 0.32585392 0.67664263
vn 0.66028325 0.32585392 0.67664263
vn -0.66028325 -0.00000000 0.75101666
vn 0.66028325 -0.00000000 0.75101666
vn -0.66028325 -0.32585392 0.67664263
vn 0.66028325 -0.32585392 0.67664263
vn -0.66028325 -0.58716847 0.46825123
vn 0.66028325 -0.58716847 0.46825123
vn -0.66028325 -0.73218711 0.16711693
vn 0.66028325 -0.73218711 0.16711693
vn -0.66028325 -0.73218711 -0.16711693
vn 0.66028325 -0.73218711 -0.16711693
vn -0.66028325 -0.58716847 -0.46825123
vn 0.66028325 -0.58716847 -0.46825123
vn -0.66028325 -0.32585392 -0.67664263
vn 0.66028325 -0.32585392 -0.67664263
vn -1.00000000 0.00000000 -0.00000000
vn -0.67353341 0.00000000 -0.73915678
vn 0.67353341 0.00000000 -0.73915678
vn 1.00000000 0.00000000 0.00000000
vn -0.67353341 0.22841201 -0.70297987
vn 0.67353341 0.22841201 -0.70297987
vn -0.67353341 0.43446545 -0.59799039
vn 0.67353341 0.43446545 -0.59799039
vn -0.67353341 0.59799039 -0.43446545
vn 0.67353341 0.59799039 -0.43446545
vn -0.67353341 0.70297987 -0.22841201
vn 0.67353341 0.70297987 -0.22841201
vn -0.67353341 0.73915678 -0.00000000
vn 0.67353341 0.73915678 -0.00000000
vn -0.67353341 0.70297987 0.22841201
vn 0.67353341 0.70297987 0.22841201
vn -0.67353341 0.59799039 0.43446545
vn 0.67353341 0.59799039 0.43446545
vn -0.67353341 0.43446545 0.59799039
vn 0.67353341 0.43446545 0.59799039
vn -0.67353341 0.22841201 0.70297987
vn 0.67353341 0.22841201 0.70297987
vn -0.67353341 -0.00000000 0.73915678
vn 0.67353341 0.00000000 0.73915678
vn -0.67353341 -0.22841201 0.70297987
vn 0.67353341 -0.22841201 0.70297987
vn -0.67353341 -0.43446545 0.59799039
vn 0.67353341 -0.43446545 0.59799039
vn -0.67353341 -0.59799039 0.43446545
vn 0.67353341 -0.59799039 0.43446545
vn -0.67353341 -0.70297987 0.22841201
vn 0.67353341 -0.70297987 0.22841201
vn -0.67353341 -0.73915678 -0.00000000
vn 0.67353341 -0.73915678 -0.00000000
vn -0.67353341 -0.70297987 -0.22841201
vn 0.67353341 -0.70297987 -0.22841201
vn -0.67353341 -0.59799039 -0.43446545
vn 0.67353341 -0.59799039 -0.43446545
vn -0.67353341 -0.43446545 -0.59799039
vn 0.67353341 -0.43446545 -0.59799039
vn -0.67353341 -0.22841201 -0.70297987
vn 0.67353341 -0.22841201 -0.70297987
vn -1.00000000 0.00000000 0.00000000
vn -0.66028325 0.00000000 -0.75101666
vn 0.66028325 0.00000000 -0.75101666
vn 1.00000000 0.00000000 0.00000000
vn -0.66028325 0.32585392 -0.67664263
vn 0.66028325 0.32585392 -0.67664263
vn -0.66028325 0.58716847 -0.46825123
vn 0.66028325 0.58716847 -0.46825123
vn -0.66028325 0.73218711 -0.16711693
vn 0.66028325 0.73218711 -0.16711693
vn -0.66028325 0.73218711 0.16711693
vn 0.66028325 0.73218711 0.16711693
vn -0.66028325 0.58716847 0.46825123
vn 0.66028325 0.58716847 0.46825123
vn -0.66028325 0.32585392 0.67664263
vn 0.66028325 0.32585392 0.67664263
vn -0.66028325 -0.00000000 0.75101666
vn 0.66028325 -0.00000000 0.75101666
vn -0.66028325 -0.32585392 0.67664263
vn 0.66028325 -0.32585392 0.67664263
vn -0.66028325 -0.58716847 0.46825123
vn 0.66028325 -0.58716847 0.46825123
vn -0.66028325 -0.73218711 0.16711693
vn 0.66028325 -0.73218711 0.16711693
vn -0.66028325 -0.73218711 -0.16711693
vn 0.66028325 -0.73218711 -0.16711693
vn -0.66028325 -0.58716847 -0.46825123
vn 0.66028325 -0.58716847 -0.46825123
vn -0.66028325 -0.32585392 -0.67664263
vn 0.66028325 -0.32585392 -0.67664263
vn -0.62164250 -0.57735027 -0.52936496
vn -0.52936496 -0.57735027 0.62164250
vn -0.62164250 0.57735027 -0.52936496
vn -0.52936496 0.57735027 0.62164250
vn 0.52936496 -0.57735027 -0.62164250
vn 0.62164250 -0.57735027 0.52936496
vn 0.52936496 0.57735027 -0.62164250
vn 0.62164250 0.57735027 0.52936496
vn -0.47799353 -0.57735027 -0.66195835
vn -0.66195835 -0.57735027 0.47799353
vn -0.47799353 0.57735027 -0.66195835
vn -0.66195835 0.57735027 0.47799353
vn 0.66195835 -0.57735027 -0.47799353
vn 0.47799353 -0.57735027 0.66195835
vn 0.66195835 0.57735027 -0.47799353
vn 0.47799353 0.57735027 0.66195835
vn -0.57735027 -0.57735027 -0.57735027
vn -0.57735027 -0.57735027 0.57735027
vn -0.57735027 0.57735027 -0.57735027
vn -0.57735027 0.57735027 0.57735027
vn 0.57735027 -0.57735027 -0.57735027
vn 0.57735027 -0.57735027 0.57735027
vn 0.57735027 0.57735027 -0.57735027
vn 0.57735027 0.57735027 0.57735027
f 2//2 4//4 1//1
f 5//5 2//2 1//1
f 1//1 4//4 3//3
f 3//3 5//5 1//1
f 2//2 8//8 4//4
f 6//6 2//2 5//5
f 6//6 8//8 2//2
f 4//4 8//8 3//3
f 7//7 5//5 3//3
f 3//3 8//8 7//7
f 7//7 6//6 5//5
f 8//8 6//6 7//7
f 10//10 12//12 9//9
f 13//13 10//10 9//9
f 9//9 12//12 11//11
f 11//11 13//13 9//9
f 10//10 16//16 12//12
f 14//14 10//10 13//13
f 14//14 16//16 10//10
f 12//12 16//16 11//11
f 15//15 13//13 11//11
f 11//11 16//16 15//15
f 15//15 14//14 13//13
f 16//16 14//14 15//15
f 18//18 20//20 17//17
f 21//21 18//18 17//17
f 17//17 20//20 19//19
f 19//19 21//21 17//17
f 18//18 24//24 20//20
f 22//22 18//18 21//21
f 22//22 24//24 18//18
f 20//20 24//24 19//19
f 23//23 21//21 19//19
f 19//19 24//24 23//23
f 23//23 22//22 21//21
f 24//24 22//22 23//23
f 26//26 28//28 25//25
f 29//29 26//26 25//25
f 25//25 28//28 27//27
f 27//27 29//29 25//25
f 26//26 32//32 28//28
f 30//30 26//26 29//29
f 30//30 32//32 26//26
f 28//28 32//32 27//27
f 31//31 29//29 27//27
f 27//27 32//32 31//31
f 31//31 30//30 29//29
f 32//32 30//30 31//31
f 34//34 36//36 33//33
f 37//37 34//34 33//33
f 33//33 36//36 35//35
f 35//35 37//37 33//33
f 34//34 40//40 36//36
f 38//38 34//34 37//37
f 38//38 40//40 34//34
f 36//36 40//40 35//35
f 39//39 37//37 35//35
f 35//35 40//40 39//39
f 39//39 38//38 37//37
f 40//40 38//38 39//39
f 42//42 41//41 45//45
f 42//42 45//45 43//43
f 43//43 45//45 46//46
f 43//43 46//46 44//44
f 45//45 41//41 47//47
f 45//45 47//47 46//46
f 46//46 47//47 48//48
f 46//46 48//48 44//44
f 47//47 41//41 49//49
f 47//47 49//49 48//48
f 48//48 49//49 50//50
f 48//48 50//50 44//44
f 49//49 41//41 51//51
f 49//49 51//51 50//50
f 50//50 51//51 52//52
f 50//50 52//52 44//44
f 51//51 41//41 53//53
f 51//51 53//53 52//52
f 52//52 53//53 54//54
f 52//52 54//54 44//44
f 53//53 41//41 55//55
f 53//53 55//55 54//54
f 54//54 55//55 56//56
f 54//54 56//56 44//44
f 55//55 41//41 57//57
f 55//55 57//57 56//56
f 56//56 57//57 58//58
f 56//56 58//58 44//44
f 57//57 41//41 59//59
f 57//57 59//59 58//58
f 58//58 59//59 60//60
f 58//58 60//60 44//44
f 59//59 41//41 61//61
f 59//59 61//61 60//60
f 60//60 61//61 62//62
f 60//60 62//62 44//44
f 61//61 41//41 63//63
f 61//61 63//63 62//62
f 62//62 63//63 64//64
f 62//62 64//64 44//44
f 63//63 41//41 65//65
f 63//63 65//65 64//64
f 64//64 65//65 66//66
f 64//64 66//66 44//44
f 65//65 41//41 67//67
f 65//65 67//67 66//66
f 66//66 67//67 68//68
f 66//66 68//68 44//44
f 67//67 41//41 69//69
f 67//67 69//69 68//68
f 68//68 69//69 70//70
f 68//68 70//70 44//44
f 69//69 41//41 71//71
f 69//69 71//71 70//70
f 70//70 71//71 72//72
f 70//70 72//72 44//44
f 71//71 41//41 73//73
f 71//71 73//73 72//72
f 72//72 73//73 74//74
f 72//72 74//74 44//44
f 73//73 41//41 75//75
f 73//73 75//75 74//74
f 74//74 75//75 76//76
f 74//74 76//76 44//44
f 75//75 41//41 77//77
f 75//75 77//77 76//76
f 76//76 77//77 78//78
f 76//76 78//78 44//44
f 77//77 41//41 79//79
f 77//77 79//79 78//78
f 78//78 79//79 80//80
f 78//78 80//80 44//44
f 79//79 41//41 81//81
f 79//79 81//81 80//80
f 80//80 81//81 82//82
f 80//80 82//82 44//44
f 81//81 41//41 42//42
f 81//81 42//42 82//82
f 82//82 42//42 43//43
f 82//82 43//43 44//44
f 84//84 83//83 87//87
f 84//84 87//87 85//85
f 85//85 87//87 88//88
f 85//85 88//88 86//86
f 87//87 83//83 89//89
f 87//87 89//89 88//88
f 88//88 89//89 90//90
f 88//88 90//90 86//86
f 89//89 83//83 91//91
f 89//89 91//91 90//90
f 90//90 91//91 92//92
f 90//90 92//92 86//86
f 91//91 83//83 93//93
f 91//91 93//93 92//92
f 92//92 93//93 94//94
f 92//92 94//94 86//86
f 93//93 83//83 95//95
f 93//93 95//95 94//94
f 94//94 95//95 96//96
f 94//94 96//96 86//86
f 95//95 83//83 97//97
f 95//95 97//97 96//96
f 96//96 97//97 98//98
f 96//96 98//98 86//86
f 97//97 83//83 99//99
f 97//97 99//99 98//98
f 98//98 99//99 100//100
f 98//98 100//100 86//86
f 99//99 83//83 101//101
f 99//99 101//101 100//100
f 100//100 101//101 102//102
f 100//100 102//102 86//86
f 101//101 83//83 103//103
f 101//101 103//103 102//102
f 102//102 103//103 104//104
f 102//102 104//104 86//86
f 103//103 83//83 105//105
f 103//103 105//105 104//104
f 104//104 105//105 106//106
f 104//104 106//106 86//86
f 105//105 83//83 107//107
f 105//105 107//107 106//106
f 106//106 107//107 108//108
f 106//106 108//108 86//86
f 107//107 83//83 109//109
f 107//107 109//109 108//108
f 108//108 109//109 110//110
f 108//108 110//110 86//86
f 109//109 83//83 111//111
f 109//109 111//111 110//110
f 110//110 111//111 112//112
f 110//110 112//112 86//86
f 111//111 83//83 84//84
f 111//111 84//84 112//112
f 112//112 84//84 85//85
f 112//112 85//85 86//86
f 114//114 113//113 117//117
f 114//114 117//117 115//115
f 115//115 117//117 118//118
f 115//115 118//118 116//116
f 117//117 113//113 119//119
f 117//117 119//119 118//118
f 118//118 119//119 120//120
f 118//118 120//120 116//116
f 119//119 113//113 121//121
f 119//119 121//121 120//120
f 120//120 121//121 122//122
f 120//120 122//122 116//116
f 121//121 113//113 123//123
f 121//121 123//123 122//122
f 122//122 123//123 124//124
f 122//122 124//124 116//116
f 123//123 113//113 125//125
f 123//123 125//125 124//124
f 124//124 125//125 126//126
f 124//124 126//126 116//116
f 125//125 113//113 127//127
f 125//125 127//127 126//126
f 126//126 127//127 128//128
f 126//126 128//128 116//116
f 127//127 113//113 129//129
f 127//127 129//129 128//128
f 128//128 129//129 130//130
f 128//128 130//130 116//116
f 129//129 113//113 131//131
f 129//129 131//131 130//130
f 130//130 131//131 132//132
f 130//130 132//132 116//116
f 131//131 113//113 133//133
f 131//131 133//133 132//132
f 132//132 133//133 134//134
f 132//132 134//134 116//116
f 133//133 113//113 135//135
f 133//133 135//135 134//134
f 134//134 135//135 136//136
f 134//134 136//136 116//116
f 135//135 113//113 137//137
f 135//135 137//137 136//136
f 136//136 137//137 138//138
f 136//136 138//138 116//116
f 137//137 113//113 139//139
f 137//137 139//139 138//138
f 138//138 139//139 140//140
f 138//138 140//140 116//116
f 139//139 113//113 141//141
f 139//139 141//141 140//140
f 140//140 141//141 142//142
f 140//140 142//142 116//116
f 141//141 113//113 143//143
f 141//141 143//143 142//142
f 142//142 143//143 144//144
f 142//142 144//144 116//116
f 143//143 113//113 145//145
f 143//143 145//145 144//144
f 144//144 145//145 146//146
f 144//144 146//146 116//116
f 145//145 113//113 147//147
f 145//145 147//147 146//146
f 146//146 147//147 148//148
f 146//146 148//148 116//116
f 147//147 113//113 149//149
f 147//147 149//149 148//148
f 148//148 149//149 150//150
f 148//148 150//150 116//116
f 149//149 113//113 151//151
f 149//149 151//151 150//150
f 150//150 151//151 152//152
f 150//150 152//152 116//116
f 151//151 113//113 153//153
f 151//151 153//153 152//152
f 152//152 153//153 154//154
f 152//152 154//154 116//116
f 153//153 113//113 114//114
f 153//153 114//114 154//154
f 154//154 114//114 115//115
f 154//154 115//115 116//116
f 156//156 155//155 159//159
f 156//156 159//159 157//157
f 157//157 159//159 160//160
f 157//157 160//160 158//158
f 159//159 155//155 161//161
f 159//159 161//161 160//160
f 160//160 161//161 162//162
f 160//160 162//162 158//158
f 161//161 155//155 163//163
f 161//161 163//163 162//162
f 162//162 163//163 164//164
f 162//162 164//164 158//158
f 163//163 155//155 165//165
f 163//163 165//165 164//164
f 164//164 165//165 166//166
f 164//164 166//166 158//158
f 165//165 155//155 167//167
f 165//165 167//167 166//166
f 166//166 167//167 168//168
f 166//166 168//168 158//158
f 167//167 155//155 169//169
f 167//167 169//169 168//168
f 168//168 169//169 170//170
f 168//168 170//170 158//158
f 169//169 155//155 171//171
f 169//169 171//171 170//170
f 170//170 171//171 172//172
f 170//170 172//172 158//158
f 171//171 155//155 173//173
f 171//171 173//173 172//172
f 172//172 173//173 174//174
f 172//172 174//174 158//158
f 173//173 155//155 175//175
f 173//173 175//175 174//174
f 174//174 175//175 176//176
f 174//174 176//176 158//158
f 175//175 155//155 177//177
f 175//175 177//177 176//176
f 176//176 177//177 178//178
f 176//176 178//178 158//158
f 177//177 155//155 179//179
f 177//177 179//179 178//178
f 178//178 179//179 180//180
f 178//178 180//180 158//158
f 179//179 155//155 181//181
f 179//179 181//181 180//180
f 180//180 181//181 182//182
f 180//180 182//182 158//158
f 181//181 155//155 183//183
f 181//181 183//183 182//182
f 182//182 183//183 184//184
f 182//182 184//184 158//158
f 183//183 155//155 156//156
f 183//183 156//156 184//184
f 184//184 156//156 157//157
f 184//184 157//157 158//158
f 186//186 185//185 189//189
f 186//186 189//189 187//187
f 187//187 189//189 190//190
f 187//187 190//190 188//188
f 189//189 185//185 191//191
f 189//189 191//191 190//190
f 190//190 191//191 192//192
f 190//190 192//192 188//188
f 191//191 185//185 193//193
f 191//191 193//193 192//192
f 192//192 193//193 194//194
f 192//192 194//194 188//188
f 193//193 185//185 195//195
f 193//193 195//195 194//194
f 194//194 195//195 196//196
f 194//194 196//196 188//188
f 195//195 185//185 197//197
f 195//195 197//197 196//196
f 196//196 197//197 198//198
f 196//196 198//198 188//188
f 197//197 185//185 199//199
f 197//197 199//199 198//198
f 198//198 199//199 200//200
f 198//198 200//200 188//188
f 199//199 185//185 201//201
f 199//199 201//201 200//200
f 200//200 201//201 202//202
f 200//200 202//202 188//188
f 201//201 185//185 203//203
f 201//201 203//203 202//202
f 202//202 203//203 204//204
f 202//202 204//204 188//188
f 203//203 185//185 205//205
f 203//203 205//205 204//204
f 204//204 205//205 206//206
f 204//204 206//206 188//188
f 205//205 185//185 207//207
f 205//205 207//207 206//206
f 206//206 207//207 208//208
f 206//206 208//208 188//188
f 207//207 185//185 209//209
f 207//207 209//209 208//208
f 208//208 209//209 210//210
f 208//208 210//210 188//188
f 209//209 185//185 211//211
f 209//209 211//211 210//210
f 210//210 211//211 212//212
f 210//210 212//212 188//188
f 211//211 185//185 213//213
f 211//211 213//213 212//212
f 212//212 213//213 214//214
f 212//212 214//214 188//188
f 213//213 185//185 215//215
f 213//213 215//215 214//214
f 214//214 215//215 216//216
f 214//214 216//216 188//188
f 215//215 185//185 217//217
f 215//215 217//217 216//216
f 216//216 217//217 218//218
f 216//216 218//218 188//188
f 217//217 185//185 219//219
f 217//217 219//219 218//218
f 218//218 219//219 220//220
f 218//218 220//220 188//188
f 219//219 185//185 221//221
f 219//219 221//221 220//220
f 220//220 221//221 222//222
f 220//220 222//222 188//188
f 221//221 185//185 223//223
f 221//221 223//223 222//222
f 222//222 223//223 224//224
f 222//222 224//224 188//188
f 223//223 185//185 225//225
f 223//223 225//225 224//224
f 224//224 225//225 226//226
f 224//224 226//226 188//188
f 225//225 185//185 186//186
f 225//225 186//186 226//226
f 226//226 186//186 187//187
f 226//226 187//187 188//188
f 228//228 227//227 231//231
f 228//228 231//231 229//229
f 229//229 231//231 232//232
f 229//229 232//232 230//230
f 231//231 227//227 233//233
f 231//231 233//233 232//232
f 232//232 233//233 234//234
f 232//232 234//234 230//230
f 233//233 227//227 235//235
f 233//233 235//235 234//234
f 234//234 235//235 236//236
f 234//234 236//236 230//230
f 235//235 227//227 237//237
f 235//235 237//237 236//236
f 236//236 237//237 238//238
f 236//236 238//238 230//230
f 237//237 227//227 239//239
f 237//237 239//239 238//238
f 238//238 239//239 240//240
f 238//238 240//240 230//230
f 239//239 227//227 241//241
f 239//239 241//241 240//240
f 240//240 241//241 242//242
f 240//240 242//242 230//230
f 241//241 227//227 243//243
f 241//241 243//243 242//242
f 242//242 243//243 244//244
f 242//242 244//244 230//230
f 243//243 227//227 245//245
f 243//243 245//245 244//244
f 244//244 245//245 246//246
f 244//244 246//246 230//230
f 245//245 227//227 247//247
f 245//245 247//247 246//246
f 246//246 247//247 248//248
f 246//246 248//248 230//230
f 247//247 227//227 249//249
f 247//247 249//249 248//248
f 248//248 249//249 250//250
f 248//248 250//250 230//230
f 249//249 227//227 251//251
f 249//249 251//251 250//250
f 250//250 251//251 252//252
f 250//250 252//252 230//230
f 251//251 227//227 253//253
f 251//251 253//253 252//252
f 252//252 253//253 254//254
f 252//252 254//254 230//230
f 253//253 227//227 255//255
f 253//253 255//255 254//254
f 254//254 255//255 256//256
f 254//254 256//256 230//230
f 255//255 227//227 228//228
f 255//255 228//228 256//256
f 256//256 228//228 229//229
f 256//256 229//229 230//230
f 258//258 257//257 261//261
f 258//258 261//261 259//259
f 259//259 261//261 262//262
f 259//259 262//262 260//260
f 261//261 257//257 263//263
f 261//261 263//263 262//262
f 262//262 263//263 264//264
f 262//262 264//264 260//260
f 263//263 257//257 265//265
f 263//263 265//265 264//264
f 264//264 265//265 266//266
f 264//264 266//266 260//260
f 265//265 257//257 267//267
f 265//265 267//267 266//266
f 266//266 267//267 268//268
f 266//266 268//268 260//260
f 267//267 257//257 269//269
f 267//267 269//269 268//268
f 268//268 269//269 270//270
f 268//268 270//270 260//260
f 269//269 257//257 271//271
f 269//269 271//271 270//270
f 270//270 271//271 272//272
f 270//270 272//272 260//260
f 271//271 257//257 273//273
f 271//271 273//273 272//272
f 272//272 273//273 274//274
f 272//272 274//274 260//260
f 273//273 257//257 275//275
f 273//273 275//275 274//274
f 274//274 275//275 276//276
f 274//274 276//276 260//260
f 275//275 257//257 277//277
f 275//275 277//277 276//276
f 276//276 277//277 278//278
f 276//276 278//278 260//260
f 277//277 257//257 279//279
f 277//277 279//279 278//278
f 278//278 279//279 280//280
f 278//278 280//280 260//260
f 279//279 257//257 281//281
f 279//279 281//281 280//280
f 280//280 281//281 282//282
f 280//280 282//282 260//260
f 281//281 257//257 283//283
f 281//281 283//283 282//282
f 282//282 283//283 284//284
f 282//282 284//284 260//260
f 283//283 257//257 285//285
f 283//283 285//285 284//284
f 284//284 285//285 286//286
f 284//284 286//286 260//260
f 285//285 257//257 287//287
f 285//285 287//287 286//286
f 286//286 287//287 288//288
f 286//286 288//288 260//260
f 287//287 257//257 289//289
f 287//287 289//289 288//288
f 288//288 289//289 290//290
f 288//288 290//290 260//260
f 289//289 257//257 291//291
f 289//289 291//291 290//290
f 290//290 291//291 292//292
f 290//290 292//292 260//260
f 291//291 257//257 293//293
f 291//291 293//293 292//292
f 292//292 293//293 294//294
f 292//292 294//294 260//260
f 293//293 257//257 295//295
f 293//293 295//295 294//294
f 294//294 295//295 296//296
f 294//294 296//296 260//260
f 295//295 257//257 297//297
f 295//295 297//297 296//296
f 296//296 297//297 298//298
f 296//296 298//298 260//260
f 297//297 257//257 258//258
f 297//297 258//258 298//298
f 298//298 258//258 259//259
f 298//298 259//259 260//260
f 300//300 299//299 303//303
f 300//300 303//303 301//301
f 301//301 303//303 304//304
f 301//301 304//304 302//302
f 303//303 299//299 305//305
f 303//303 305//305 304//304
f 304//304 305//305 306//306
f 304//304 306//306 302//302
f 305//305 299//299 307//307
f 305//305 307//307 306//306
f 306//306 307//307 308//308
f 306//306 308//308 302//302
f 307//307 299//299 309//309
f 307//307 309//309 308//308
f 308//308 309//309 310//310
f 308//308 310//310 302//302
f 309//309 299//299 311//311
f 309//309 311//311 310//310
f 310//310 311//311 312//312
f 310//310 312//312 302//302
f 311//311 299//299 313//313
f 311//311 313//313 312//312
f 312//312 313//313 314//314
f 312//312 314//314 302//302
f 313//313 299//299 315//315
f 313//313 315//315 314//314
f 314//314 315//315 316//316
f 314//314 316//316 302//302
f 315//315 299//299 317//317
f 315//315 317//317 316//316
f 316//316 317//317 318//318
f 316//316 318//318 302//302
f 317//317 299//299 319//319
f 317//317 319//319 318//318
f 318//318 319//319 320//320
f 318//318 320//320 302//302
f 319//319 299//299 321//321
f 319//319 321//321 320//320
f 320//320 321//321 322//322
f 320//320 322//322 302//302
f 321//321 299//299 323//323
f 321//321 323//323 322//322
f 322//322 323//323 324//324
f 322//322 324//324 302//302
f 323//323 299//299 325//325
f 323//323 325//325 324//324
f 324//324 325//325 326//326
f 324//324 326//326 302//302
f 325//325 299//299 327//327
f 325//325 327//327 326//326
f 326//326 327//327 328//328
f 326//326 328//328 302//302
f 327//327 299//299 300//300
f 327//327 300//300 328//328
f 328//328 300//300 301//301
f 328//328 301//301 302//302
f 330//330 332//332 329//329
f 333//333 330//330 329//329
f 329//329 332//332 331//331
f 331//331 333//333 329//329
f 330//330 336//336 332//332
f 334//334 330//330 333//333
f 334//334 336//336 330//330
f 332//332 336//336 331//331
f 335//335 333//333 331//331
f 331//331 336//336 335//335
f 335//335 334//334 333//333
f 336//336 334//334 335//335
f 338//338 340//340 337//337
f 341//341 338//338 337//337
f 337//337 340//340 339//339
f 339//339 341//341 337//337
f 338//338 344//344 340//340
f 342//342 338//338 341//341
f 342//342 344//344 338//338
f 340//340 344//344 339//339
f 343//343 341//341 339//339
f 339//339 344//344 343//343
f 343//343 342//342 341//341
f 344//344 342//342 343//343
f 346//346 348//348 345//345
f 349//349 346//346 345//345
f 345//345 348//348 347//347
f 347//347 349//349 345//345
f 346//346 352//352 348//348
f 350//350 346//346 349//349
f 350//350 352//352 346//346
f 348//348 352//352 347//347
f 351//351 349//349 347//347
f 347//347 352//352 351//351
f 351//351 350//350 349//349
f 352//352 350//350 351//351

