# https://github.com/mikedh/trimesh
v -0.09000000 -0.09500000 -0.60000000
v -0.09000000 -0.09500000 -0.12000000
v -0.09000000 0.09500000 -0.60000000
v -0.09000000 0.09500000 -0.12000000
v 0.09000000 -0.09500000 -0.60000000
v 0.09000000 -0.09500000 -0.12000000
v 0.09000000 0.09500000 -0.60000000
v 0.09000000 0.09500000 -0.12000000
v -0.07500000 -0.07500000 -1.01000000
v -0.07500000 -0.07500000 -0.55000000
v -0.07500000 0.07500000 -1.01000000
v -0.07500000 0.07500000 -0.55000000
v 0.07500000 -0.07500000 -1.01000000
v 0.07500000 -0.07500000 -0.55000000
v 0.07500000 0.07500000 -1.01000000
v 0.07500000 0.07500000 -0.55000000
v -0.08000000 -0.10652206 -0.19016570
v -0.08000000 -0.07257869 0.14813572
v -0.08000000 0.07257869 -0.20813572
v -0.08000000 0.10652206 0.13016570
v 0.08000000 -0.10652206 -0.19016570
v 0.08000000 -0.07257869 0.14813572
v 0.08000000 0.07257869 -0.20813572
v 0.08000000 0.10652206 0.13016570
v -0.04000000 -0.04000000 -1.46000000
v -0.04000000 -0.04000000 -0.90000000
v -0.04000000 0.04000000 -1.46000000
v -0.04000000 0.04000000 -0.90000000
v 0.04000000 -0.04000000 -1.46000000
v 0.04000000 -0.04000000 -0.90000000
v 0.04000000 0.04000000 -1.46000000
v 0.04000000 0.04000000 -0.90000000
v 0.00000000 0.33000000 -1.55000000
v 0.03200000 0.33000000 -1.55000000
v 0.03200000 -0.33000000 -1.55000000
v 0.00000000 -0.33000000 -1.55000000
v 0.02771281 0.33000000 -1.53400000
v 0.02771281 -0.33000000 -1.53400000
v 0.01600000 0.33000000 -1.52228719
v 0.01600000 -0.33000000 -1.52228719
v 0.00000000 0.33000000 -1.51800000
v 0.00000000 -0.33000000 -1.51800000
v -0.01600000 0.33000000 -1.52228719
v -0.01600000 -0.33000000 -1.52228719
v -0.02771281 0.33000000 -1.53400000
v -0.02771281 -0.33000000 -1.53400000
v -0.03200000 0.33000000 -1.55000000
v -0.03200000 -0.33000000 -1.55000000
v -0.02771281 0.33000000 -1.56600000
v -0.02771281 -0.33000000 -1.56600000
v -0.01600000 0.33000000 -1.57771281
v -0.01600000 -0.33000000 -1.57771281
v -0.00000000 0.33000000 -1.58200000
v -0.00000000 -0.33000000 -1.58200000
v 0.01600000 0.33000000 -1.57771281
v 0.01600000 -0.33000000 -1.57771281
v 0.02771281 0.33000000 -1.56600000
v 0.02771281 -0.33000000 -1.56600000
v -0.05250000 -0.38502784 -0.49111947
v -0.05250000 -0.35996370 -0.35338136
v -0.05250000 -0.08003630 -0.54661864
v -0.05250000 -0.05497216 -0.40888053
v 0.05250000 -0.38502784 -0.49111947
v 0.05250000 -0.35996370 -0.35338136
v 0.05250000 -0.08003630 -0.54661864
v 0.05250000 -0.05497216 -0.40888053
v -0.03250000 0.08000000 -0.75500000
v -0.03250000 0.08000000 -0.44500000
v -0.03250000 0.20000000 -0.75500000
v -0.03250000 0.20000000 -0.44500000
v 0.03250000 0.08000000 -0.75500000
v 0.03250000 0.08000000 -0.44500000
v 0.03250000 0.20000000 -0.75500000
v 0.03250000 0.20000000 -0.44500000
v -0.03000000 0.13500000 -1.10000000
v -0.03000000 0.13500000 -0.58000000
v -0.03000000 0.20500000 -1.10000000
v -0.03000000 0.20500000 -0.58000000
v 0.03000000 0.13500000 -1.10000000
v 0.03000000 0.13500000 -0.58000000
v 0.03000000 0.20500000 -1.10000000
v 0.03000000 0.20500000 -0.58000000
v 0.00000000 0.36000000 -0.66000000
v 0.05500000 0.36000000 -0.66000000
v 0.05500000 0.08000000 -0.66000000
v 0.00000000 0.08000000 -0.66000000
v 0.04955329 0.36000000 -0.63613639
v 0.04955329 0.08000000 -0.63613639
v 0.03429194 0.36000000 -0.61699927
v 0.03429194 0.08000000 -0.61699927
v 0.01223865 0.36000000 -0.60637896
v 0.01223865 0.08000000 -0.60637896
v -0.01223865 0.36000000 -0.60637896
v -0.01223865 0.08000000 -0.60637896
v -0.03429194 0.36000000 -0.61699927
v -0.03429194 0.08000000 -0.61699927
v -0.04955329 0.36000000 -0.63613639
v -0.04955329 0.08000000 -0.63613639
v -0.05500000 0.36000000 -0.66000000
v -0.05500000 0.08000000 -0.66000000
v -0.04955329 0.36000000 -0.68386361
v -0.04955329 0.08000000 -0.68386361
v -0.03429194 0.36000000 -0.70300073
v -0.03429194 0.08000000 -0.70300073
v -0.01223865 0.36000000 -0.71362104
v -0.01223865 0.08000000 -0.71362104
v 0.01223865 0.36000000 -0.71362104
v 0.01223865 0.08000000 -0.71362104
v 0.03429194 0.36000000 -0.70300073
v 0.03429194 0.08000000 -0.70300073
v 0.04955329 0.36000000 -0.68386361
v 0.04955329 0.08000000 -0.68386361
v -0.01600000 0.11000000 -1.23000000
v -0.01600000 0.11000000 -1.15000000
v -0.01600000 0.27000000 -1.23000000
v -0.01600000 0.27000000 -1.15000000
v 0.01600000 0.11000000 -1.23000000
v 0.01600000 0.11000000 -1.15000000
v 0.01600000 0.27000000 -1.23000000
v 0.01600000 0.27000000 -1.15000000
v -0.08500000 0.06750000 -0.58250000
v -0.08500000 0.06750000 -0.55750000
v -0.08500000 0.09250000 -0.58250000
v -0.08500000 0.09250000 -0.55750000
v 0.08500000 0.06750000 -0.58250000
v 0.08500000 0.06750000 -0.55750000
v 0.08500000 0.09250000 -0.58250000
v 0.08500000 0.09250000 -0.55750000
v -0.08500000 0.06750000 -0.70250000
v -0.08500000 0.06750000 -0.67750000
v -0.08500000 0.09250000 -0.70250000
v -0.08500000 0.09250000 -0.67750000
v 0.08500000 0.06750000 -0.70250000
v 0.08500000 0.06750000 -0.67750000
v 0.08500000 0.09250000 -0.70250000
v 0.08500000 0.09250000 -0.67750000
v -0.08500000 0.06750000 -0.82250000
v -0.08500000 0.06750000 -0.79750000
v -0.08500000 0.09250000 -0.82250000
v -0.08500000 0.09250000 -0.79750000
v 0.08500000 0.06750000 -0.82250000
v 0.08500000 0.06750000 -0.79750000
v 0.08500000 0.09250000 -0.82250000
v 0.08500000 0.09250000 -0.79750000
v -0.08500000 0.06750000 -0.94250000
v -0.08500000 0.06750000 -0.91750000
v -0.08500000 0.09250000 -0.94250000
v -0.08500000 0.09250000 -0.91750000
v 0.08500000 0.06750000 -0.94250000
v 0.08500000 0.06750000 -0.91750000
v 0.08500000 0.09250000 -0.94250000
v 0.08500000 0.09250000 -0.91750000
vn -0.57735027 -0.57735027 -0.57735027
vn -0.57735027 -0.57735027 0.57735027
vn -0.57735027 0.57735027 -0.57735027
vn -0.57735027 0.57735027 0.57735027
vn 0.57735027 -0.57735027 -0.57735027
vn 0.57735027 -0.57735027 0.57735027
vn 0.57735027 0.57735027 -0.57735027
vn 0.57735027 0.57735027 0.57735027
vn -0.57735027 -0.57735027 -0.57735027
vn -0.57735027 -0.57735027 0.57735027
vn -0.57735027 0.57735027 -0.57735027
vn -0.57735027 0.57735027 0.57735027
vn 0.57735027 -0.57735027 -0.57735027
vn 0.57735027 -0.57735027 0.57735027
vn 0.57735027 0.57735027 -0.57735027
vn 0.57735027 0.57735027 0.57735027
vn -0.57735027 -0.63210477 -0.51682707
vn -0.57735027 -0.51682707 0.63210477
vn -0.57735027 0.51682707 -0.63210477
vn -0.57735027 0.63210477 0.51682707
vn 0.57735027 -0.63210477 -0.51682707
vn 0.57735027 -0.51682707 0.63210477
vn 0.57735027 0.51682707 -0.63210477
vn 0.57735027 0.63210477 0.51682707
vn -0.57735027 -0.57735027 -0.57735027
vn -0.57735027 -0.57735027 0.57735027
vn -0.57735027 0.57735027 -0.57735027
vn -0.57735027 0.57735027 0.57735027
vn 0.57735027 -0.57735027 -0.57735027
vn 0.57735027 -0.57735027 0.57735027
vn 0.57735027 0.57735027 -0.57735027
vn 0.57735027 0.57735027 0.57735027
vn 0.00000000 1.00000000 0.00000000
vn 0.75716233 0.65322677 -0.00000000
vn 0.75716233 -0.65322677 -0.00000000
vn 0.00000000 -1.00000000 0.00000000
vn 0.65572181 0.65322677 0.37858116
vn 0.65572181 -0.65322677 0.37858116
vn 0.37858116 0.65322677 0.65572181
vn 0.37858116 -0.65322677 0.65572181
vn 0.00000000 0.65322677 0.75716233
vn -0.00000000 -0.65322677 0.75716233
vn -0.37858116 0.65322677 0.65572181
vn -0.37858116 -0.65322677 0.65572181
vn -0.65572181 0.65322677 0.37858116
vn -0.65572181 -0.65322677 0.37858116
vn -0.75716233 0.65322677 0.00000000
vn -0.75716233 -0.65322677 0.00000000
vn -0.65572181 0.65322677 -0.37858116
vn -0.65572181 -0.65322677 -0.37858116
vn -0.37858116 0.65322677 -0.65572181
vn -0.37858116 -0.65322677 -0.65572181
vn -0.00000000 0.65322677 -0.75716233
vn 0.00000000 -0.65322677 -0.75716233
vn 0.37858116 0.65322677 -0.65572181
vn 0.37858116 -0.65322677 -0.65572181
vn 0.65572181 0.65322677 -0.37858116
vn 0.65572181 -0.65322677 -0.37858116
vn -0.57735027 -0.67138519 -0.46465965
vn -0.57735027 -0.46465965 0.67138519
vn -0.57735027 0.46465965 -0.67138519
vn -0.57735027 0.67138519 0.46465965
vn 0.57735027 -0.67138519 -0.46465965
vn 0.57735027 -0.46465965 0.67138519
vn 0.57735027 0.46465965 -0.67138519
vn 0.57735027 0.67138519 0.46465965
vn -0.57735027 -0.57735027 -0.57735027
vn -0.57735027 -0.57735027 0.57735027
vn -0.57735027 0.57735027 -0.57735027
vn -0.57735027 0.57735027 0.57735027
vn 0.57735027 -0.57735027 -0.57735027
vn 0.57735027 -0.57735027 0.57735027
vn 0.57735027 0.57735027 -0.57735027
vn 0.57735027 0.57735027 0.57735027
vn -0.57735027 -0.57735027 -0.57735027
vn -0.57735027 -0.57735027 0.57735027
vn -0.57735027 0.57735027 -0.57735027
vn -0.57735027 0.57735027 0.57735027
vn 0.57735027 -0.57735027 -0.57735027
vn 0.57735027 -0.57735027 0.57735027
vn 0.57735027 0.57735027 -0.57735027
vn 0.57735027 0.57735027 0.57735027
vn 0.00000000 1.00000000 0.00000000
vn 0.75101666 0.66028325 -0.00000000
vn 0.75101666 -0.66028325 0.00000000
vn 0.00000000 -1.00000000 0.00000000
vn 0.67664263 0.66028325 0.32585392
vn 0.67664263 -0.66028325 0.32585392
vn 0.46825123 0.66028325 0.58716847
vn 0.46825123 -0.66028325 0.58716847
vn 0.16711693 0.66028325 0.73218711
vn 0.16711693 -0.66028325 0.73218711
vn -0.16711693 0.66028325 0.73218711
vn -0.16711693 -0.66028325 0.73218711
vn -0.46825123 0.66028325 0.58716847
vn -0.46825123 -0.66028325 0.58716847
vn -0.67664263 0.66028325 0.32585392
vn -0.67664263 -0.66028325 0.32585392
vn -0.75101666 0.66028325 0.00000000
vn -0.75101666 -0.66028325 -0.00000000
vn -0.67664263 0.66028325 -0.32585392
vn -0.67664263 -0.66028325 -0.32585392
vn -0.46825123 0.66028325 -0.58716847
vn -0.46825123 -0.66028325 -0.58716847
vn -0.16711693 0.66028325 -0.73218711
vn -0.16711693 -0.66028325 -0.73218711
vn 0.16711693 0.66028325 -0.73218711
vn 0.16711693 -0.66028325 -0.73218711
vn 0.46825123 0.66028325 -0.58716847
vn 0.46825123 -0.66028325 -0.58716847
vn 0.67664263 0.66028325 -0.32585392
vn 0.67664263 -0.66028325 -0.32585392
vn -0.57735027 -0.57735027 -0.57735027
vn -0.57735027 -0.57735027 0.57735027
vn -0.57735027 0.57735027 -0.57735027
vn -0.57735027 0.57735027 0.57735027
vn 0.57735027 -0.57735027 -0.57735027
vn 0.57735027 -0.57735027 0.57735027
vn 0.57735027 0.57735027 -0.57735027
vn 0.57735027 0.57735027 0.57735027
vn -0.57735027 -0.57735027 -0.57735027
vn -0.57735027 -0.57735027 0.57735027
vn -0.57735027 0.57735027 -0.57735027
vn -0.57735027 0.57735027 0.57735027
vn 0.57735027 -0.57735027 -0.57735027
vn 0.57735027 -0.57735027 0.57735027
vn 0.57735027 0.57735027 -0.57735027
vn 0.57735027 0.57735027 0.57735027
vn -0.57735027 -0.57735027 -0.57735027
vn -0.57735027 -0.57735027 0.57735027
vn -0.57735027 0.57735027 -0.57735027
vn -0.57735027 0.57735027 0.57735027
vn 0.57735027 -0.57735027 -0.57735027
vn 0.57735027 -0.57735027 0.57735027
vn 0.57735027 0.57735027 -0.57735027
vn 0.57735027 0.57735027 0.57735027
vn -0.57735027 -0.57735027 -0.57735027
vn -0.57735027 -0.57735027 0.57735027
vn -0.57735027 0.57735027 -0.57735027
vn -0.57735027 0.57735027 0.57735027
vn 0.57735027 -0.57735027 -0.57735027
vn 0.57735027 -0.57735027 0.57735027
vn 0.57735027 0.57735027 -0.57735027
vn 0.57735027 0.57735027 0.57735027
vn -0.57735027 -0.57735027 -0.57735027
vn -0.57735027 -0.57735027 0.57735027
vn -0.57735027 0.57735027 -0.57735027
vn -0.57735027 0.57735027 0.57735027
vn 0.57735027 -0.57735027 -0.57735027
vn 0.57735027 -0.57735027 0.57735027
vn 0.57735027 0.57735027 -0.57735027
vn 0.57735027 0.57735027 0.57735027
f 2//2 4//4 1//1
f 5//5 2//2 1//1
f 1//1 4//4 3//3
f 3//3 5//5 1//1
f 2//2 8//8 4//4
f 6//6 2//2 5//5
f 6//6 8//8 2//2
f 4//4 8//8 3//3
f 7//7 5//5 3//3
f 3//3 8//8 7//7
f 7//7 6//6 5//5
f 8//8 6//6 7//7
f 10//10 12//12 9//9
f 13//13 10//10 9//9
f 9//9 12//12 11//11
f 11//11 13//13 9//9
f 10//10 16//16 12//12
f 14//14 10//10 13//13
f 14//14 16//16 10//10
f 12//12 16//16 11//11
f 15//15 13//13 11//11
f 11//11 16//16 15//15
f 15//15 14//14 13//13
f 16//16 14//14 15//15
f 18//18 20//20 17//17
f 21//21 18//18 17//17
f 17//17 20//20 19//19
f 19//19 21//21 17//17
f 18//18 24//24 20//20
f 22//22 18//18 21//21
f 22//22 24//24 18//18
f 20//20 24//24 19//19
f 23//23 21//21 19//19
f 19//19 24//24 23//23
f 23//23 22//22 21//21
f 24//24 22//22 23//23
f 26//26 28//28 25//25
f 29//29 26//26 25//25
f 25//25 28//28 27//27
f 27//27 29//29 25//25
f 26//26 32//32 28//28
f 30//30 26//26 29//29
f 30//30 32//32 26//26
f 28//28 32//32 27//27
f 31//31 29//29 27//27
f 27//27 32//32 31//31
f 31//31 30//30 29//29
f 32//32 30//30 31//31
f 34//34 33//33 37//37
f 34//34 37//37 35//35
f 35//35 37//37 38//38
f 35//35 38//38 36//36
f 37//37 33//33 39//39
f 37//37 39//39 38//38
f 38//38 39//39 40//40
f 38//38 40//40 36//36
f 39//39 33//33 41//41
f 39//39 41//41 40//40
f 40//40 41//41 42//42
f 40//40 42//42 36//36
f 41//41 33//33 43//43
f 41//41 43//43 42//42
f 42//42 43//43 44//44
f 42//42 44//44 36//36
f 43//43 33//33 45//45
f 43//43 45//45 44//44
f 44//44 45//45 46//46
f 44//44 46//46 36//36
f 45//45 33//33 47//47
f 45//45 47//47 46//46
f 46//46 47//47 48//48
f 46//46 48//48 36//36
f 47//47 33//33 49//49
f 47//47 49//49 48//48
f 48//48 49//49 50//50
f 48//48 50//50 36//36
f 49//49 33//33 51//51
f 49//49 51//51 50//50
f 50//50 51//51 52//52
f 50//50 52//52 36//36
f 51//51 33//33 53//53
f 51//51 53//53 52//52
f 52//52 53//53 54//54
f 52//52 54//54 36//36
f 53//53 33//33 55//55
f 53//53 55//55 54//54
f 54//54 55//55 56//56
f 54//54 56//56 36//36
f 55//55 33//33 57//57
f 55//55 57//57 56//56
f 56//56 57//57 58//58
f 56//56 58//58 36//36
f 57//57 33//33 34//34
f 57//57 34//34 58//58
f 58//58 34//34 35//35
f 58//58 35//35 36//36
f 60//60 62//62 59//59
f 63//63 60//60 59//59
f 59//59 62//62 61//61
f 61//61 63//63 59//59
f 60//60 66//66 62//62
f 64//64 60//60 63//63
f 64//64 66//66 60//60
f 62//62 66//66 61//61
f 65//65 63//63 61//61
f 61//61 66//66 65//65
f 65//65 64//64 63//63
f 66//66 64//64 65//65
f 68//68 70//70 67//67
f 71//71 68//68 67//67
f 67//67 70//70 69//69
f 69//69 71//71 67//67
f 68//68 74//74 70//70
f 72//72 68//68 71//71
f 72//72 74//74 68//68
f 70//70 74//74 69//69
f 73//73 71//71 69//69
f 69//69 74//74 73//73
f 73//73 72//72 71//71
f 74//74 72//72 73//73
f 76//76 78//78 75//75
f 79//79 76//76 75//75
f 75//75 78//78 77//77
f 77//77 79//79 75//75
f 76//76 82//82 78//78
f 80//80 76//76 79//79
f 80//80 82//82 76//76
f 78//78 82//82 77//77
f 81//81 79//79 77//77
f 77//77 82//82 81//81
f 81//81 80//80 79//79
f 82//82 80//80 81//81
f 84//84 83//83 87//87
f 84//84 87//87 85//85
f 85//85 87//87 88//88
f 85//85 88//88 86//86
f 87//87 83//83 89//89
f 87//87 89//89 88//88
f 88//88 89//89 90//90
f 88//88 90//90 86//86
f 89//89 83//83 91//91
f 89//89 91//91 90//90
f 90//90 91//91 92//92
f 90//90 92//92 86//86
f 91//91 83//83 93//93
f 91//91 93//93 92//92
f 92//92 93//93 94//94
f 92//92 94//94 86//86
f 93//93 83//83 95//95
f 93//93 95//95 94//94
f 94//94 95//95 96//96
f 94//94 96//96 86//86
f 95//95 83//83 97//97
f 95//95 97//97 96//96
f 96//96 97//97 98//98
f 96//96 98//98 86//86
f 97//97 83//83 99//99
f 97//97 99//99 98//98
f 98//98 99//99 100//100
f 98//98 100//100 86//86
f 99//99 83//83 101//101
f 99//99 101//101 100//100
f 100//100 101//101 102//102
f 100//100 102//102 86//86
f 101//101 83//83 103//103
f 101//101 103//103 102//102
f 102//102 103//103 104//104
f 102//102 104//104 86//86
f 103//103 83//83 105//105
f 103//103 105//105 104//104
f 104//104 105//105 106//106
f 104//104 106//106 86//86
f 105//105 83//83 107//107
f 105//105 107//107 106//106
f 106//106 107//107 108//108
f 106//106 108//108 86//86
f 107//107 83//83 109//109
f 107//107 109//109 108//108
f 108//108 109//109 110//110
f 108//108 110//110 86//86
f 109//109 83//83 111//111
f 109//109 111//111 110//110
f 110//110 111//111 112//112
f 110//110 112//112 86//86
f 111//111 83//83 84//84
f 111//111 84//84 112//112
f 112//112 84//84 85//85
f 112//112 85//85 86//86
f 114//114 116//116 113//113
f 117//117 114//114 113//113
f 113//113 116//116 115//115
f 115//115 117//117 113//113
f 114//114 120//120 116//116
f 118//118 114//114 117//117
f 118//118 120//120 114//114
f 116//116 120//120 115//115
f 119//119 117//117 115//115
f 115//115 120//120 119//119
f 119//119 118//118 117//117
f 120//120 118//118 119//119
f 122//122 124//124 121//121
f 125//125 122//122 121//121
f 121//121 124//124 123//123
f 123//123 125//125 121//121
f 122//122 128//128 124//124
f 126//126 122//122 125//125
f 126//126 128//128 122//122
f 124//124 128//128 123//123
f 127//127 125//125 123//123
f 123//123 128//128 127//127
f 127//127 126//126 125//125
f 128//128 126//126 127//127
f 130//130 132//132 129//129
f 133//133 130//130 129//129
f 129//129 132//132 131//131
f 131//131 133//133 129//129
f 130//130 136//136 132//132
f 134//134 130//130 133//133
f 134//134 136//136 130//130
f 132//132 136//136 131//131
f 135//135 133//133 131//131
f 131//131 136//136 135//135
f 135//135 134//134 133//133
f 136//136 134//134 135//135
f 138//138 140//140 137//137
f 141//141 138//138 137//137
f 137//137 140//140 139//139
f 139//139 141//141 137//137
f 138//138 144//144 140//140
f 142//142 138//138 141//141
f 142//142 144//144 138//138
f 140//140 144//144 139//139
f 143//143 141//141 139//139
f 139//139 144//144 143//143
f 143//143 142//142 141//141
f 144//144 142//142 143//143
f 146//146 148//148 145//145
f 149//149 146//146 145//145
f 145//145 148//148 147//147
f 147//147 149//149 145//145
f 146//146 152//152 148//148
f 150//150 146//146 149//149
f 150//150 152//152 146//146
f 148//148 152//152 147//147
f 151//151 149//149 147//147
f 147//147 152//152 151//151
f 151//151 150//150 149//149
f 152//152 150//150 151//151

