# https://github.com/mikedh/trimesh
v -0.15500000 -0.06000000 -0.11000000
v -0.15500000 -0.06000000 0.21000000
v -0.15500000 0.14000000 -0.11000000
v -0.15500000 0.14000000 0.21000000
v 0.15500000 -0.06000000 -0.11000000
v 0.15500000 -0.06000000 0.21000000
v 0.15500000 0.14000000 -0.11000000
v 0.15500000 0.14000000 0.21000000
v -0.17000000 -0.10250000 -0.11750000
v -0.17000000 -0.10250000 0.28750000
v -0.17000000 -0.03750000 -0.11750000
v -0.17000000 -0.03750000 0.28750000
v 0.17000000 -0.10250000 -0.11750000
v 0.17000000 -0.10250000 0.28750000
v 0.17000000 -0.03750000 -0.11750000
v 0.17000000 -0.03750000 0.28750000
v -0.15000000 0.07000000 -0.14500000
v -0.15000000 0.07000000 0.03500000
v -0.15000000 0.19000000 -0.14500000
v -0.15000000 0.19000000 0.03500000
v 0.15000000 0.07000000 -0.14500000
v 0.15000000 0.07000000 0.03500000
v 0.15000000 0.19000000 -0.14500000
v 0.15000000 0.19000000 0.03500000
v -0.08148832 0.06155857 0.20500000
v 0.08148832 0.06155857 0.20500000
v -0.08148832 -0.09155857 0.20500000
v 0.08148832 -0.09155857 0.20500000
v 0.00000000 -0.06231580 0.35811715
v 0.00000000 0.03231580 0.35811715
v 0.00000000 -0.06231580 0.05188285
v 0.00000000 0.03231580 0.05188285
v 0.13185088 -0.01500000 0.11036840
v 0.13185088 -0.01500000 0.29963160
v -0.13185088 -0.01500000 0.11036840
v -0.13185088 -0.01500000 0.29963160
v 0.00000000 0.07500000 0.20500000
v 0.00000000 -0.10500000 0.20500000
v -0.04789763 -0.08781153 0.29500000
v 0.04789763 -0.08781153 0.29500000
v -0.04789763 0.05781153 0.29500000
v 0.04789763 0.05781153 0.29500000
v 0.00000000 -0.01500000 0.38500000
v -0.04789763 -0.08781153 0.11500000
v 0.04789763 -0.08781153 0.11500000
v -0.04789763 0.05781153 0.11500000
v 0.04789763 0.05781153 0.11500000
v 0.00000000 -0.01500000 0.02500000
v 0.12539763 0.03000000 0.14937694
v 0.12539763 -0.06000000 0.14937694
v 0.07750000 -0.04281153 0.05937694
v 0.07750000 0.01281153 0.05937694
v 0.12539763 0.03000000 0.26062306
v 0.12539763 -0.06000000 0.26062306
v 0.07750000 -0.04281153 0.35062306
v 0.07750000 0.01281153 0.35062306
v 0.15500000 -0.01500000 0.20500000
v -0.12539763 0.03000000 0.14937694
v -0.12539763 -0.06000000 0.14937694
v -0.07750000 -0.04281153 0.05937694
v -0.07750000 0.01281153 0.05937694
v -0.12539763 0.03000000 0.26062306
v -0.12539763 -0.06000000 0.26062306
v -0.07750000 -0.04281153 0.35062306
v -0.07750000 0.01281153 0.35062306
v -0.15500000 -0.01500000 0.20500000
v -0.04235631 0.07157445 0.20500000
v 0.04235631 0.07157445 0.20500000
v -0.04235631 -0.10157445 0.20500000
v 0.04235631 -0.10157445 0.20500000
v -0.06725273 -0.09264016 0.25178054
v -0.02489642 -0.07744024 0.33136836
v -0.02518128 -0.10059509 0.25231580
v 0.06725273 -0.09264016 0.25178054
v 0.02489642 -0.07744024 0.33136836
v 0.02518128 -0.10059509 0.25231580
v 0.00000000 -0.09155857 0.29963160
v -0.06725273 0.06264016 0.25178054
v -0.02489642 0.04744024 0.33136836
v -0.02518128 0.07059509 0.25231580
v 0.06725273 0.06264016 0.25178054
v 0.02489642 0.04744024 0.33136836
v 0.02518128 0.07059509 0.25231580
v 0.00000000 0.06155857 0.29963160
v 0.00000000 -0.03959399 0.37814890
v 0.00000000 0.00959399 0.37814890
v -0.06725273 -0.09264016 0.15821946
v -0.02489642 -0.07744024 0.07863164
v -0.02518128 -0.10059509 0.15768420
v 0.06725273 -0.09264016 0.15821946
v 0.02489642 -0.07744024 0.07863164
v 0.02518128 -0.10059509 0.15768420
v 0.00000000 -0.09155857 0.11036840
v -0.06725273 0.06264016 0.15821946
v -0.02489642 0.04744024 0.07863164
v -0.02518128 0.07059509 0.15768420
v 0.06725273 0.06264016 0.15821946
v 0.02489642 0.04744024 0.07863164
v 0.02518128 0.07059509 0.15768420
v 0.00000000 0.06155857 0.11036840
v 0.00000000 -0.03959399 0.03185110
v 0.00000000 0.00959399 0.03185110
v 0.10753597 0.04818418 0.17608803
v 0.13371361 0.00839027 0.12690006
v 0.09110671 0.04693719 0.12844143
v 0.10753597 -0.07818418 0.17608803
v 0.13371361 -0.03839027 0.12690006
v 0.09110671 -0.07693719 0.12844143
v 0.04028325 -0.05404997 0.04971967
v 0.10881720 -0.02945598 0.08011951
v 0.06592544 -0.06790067 0.08112563
v 0.04074416 -0.02962139 0.03380983
v 0.10666960 -0.05327929 0.09919865
v 0.04028325 0.02404997 0.04971967
v 0.10881720 -0.00054402 0.08011951
v 0.06592544 0.03790067 0.08112563
v 0.04074416 -0.00037861 0.03380983
v 0.10666960 0.02327929 0.09919865
v 0.08148832 -0.01500000 0.05188285
v 0.10753597 0.04818418 0.23391197
v 0.13371361 0.00839027 0.28309994
v 0.09110671 0.04693719 0.28155857
v 0.13185088 0.03231580 0.20500000
v 0.10753597 -0.07818418 0.23391197
v 0.13371361 -0.03839027 0.28309994
v 0.09110671 -0.07693719 0.28155857
v 0.13185088 -0.06231580 0.20500000
v 0.04028325 -0.05404997 0.36028033
v 0.10881720 -0.02945598 0.32988049
v 0.06592544 -0.06790067 0.32887437
v 0.04074416 -0.02962139 0.37619017
v 0.10666960 -0.05327929 0.31080135
v 0.04028325 0.02404997 0.36028033
v 0.10881720 -0.00054402 0.32988049
v 0.06592544 0.03790067 0.32887437
v 0.04074416 -0.00037861 0.37619017
v 0.10666960 0.02327929 0.31080135
v 0.08148832 -0.01500000 0.35811715
v 0.14910045 -0.01500000 0.15581202
v 0.14910045 -0.01500000 0.25418798
v 0.14741376 0.00865790 0.17575723
v 0.14741376 -0.03865790 0.17575723
v 0.14741376 0.00865790 0.23424277
v 0.14741376 -0.03865790 0.23424277
v -0.10753597 0.04818418 0.17608803
v -0.13371361 0.00839027 0.12690006
v -0.09110671 0.04693719 0.12844143
v -0.10753597 -0.07818418 0.17608803
v -0.13371361 -0.03839027 0.12690006
v -0.09110671 -0.07693719 0.12844143
v -0.04028325 -0.05404997 0.04971967
v -0.10881720 -0.02945598 0.08011951
v -0.06592544 -0.06790067 0.08112563
v -0.04074416 -0.02962139 0.03380983
v -0.10666960 -0.05327929 0.09919865
v -0.04028325 0.02404997 0.04971967
v -0.10881720 -0.00054402 0.08011951
v -0.06592544 0.03790067 0.08112563
v -0.04074416 -0.00037861 0.03380983
v -0.10666960 0.02327929 0.09919865
v -0.08148832 -0.01500000 0.05188285
v -0.10753597 0.04818418 0.23391197
v -0.13371361 0.00839027 0.28309994
v -0.09110671 0.04693719 0.28155857
v -0.13185088 0.03231580 0.20500000
v -0.10753597 -0.07818418 0.23391197
v -0.13371361 -0.03839027 0.28309994
v -0.09110671 -0.07693719 0.28155857
v -0.13185088 -0.06231580 0.20500000
v -0.04028325 -0.05404997 0.36028033
v -0.10881720 -0.02945598 0.32988049
v -0.06592544 -0.06790067 0.32887437
v -0.04074416 -0.02962139 0.37619017
v -0.10666960 -0.05327929 0.31080135
v -0.04028325 0.02404997 0.36028033
v -0.10881720 -0.00054402 0.32988049
v -0.06592544 0.03790067 0.32887437
v -0.04074416 -0.00037861 0.37619017
v -0.10666960 0.02327929 0.31080135
v -0.08148832 -0.01500000 0.35811715
v -0.14910045 -0.01500000 0.15581202
v -0.14910045 -0.01500000 0.25418798
v -0.14741376 0.00865790 0.17575723
v -0.14741376 -0.03865790 0.17575723
v -0.14741376 0.00865790 0.23424277
v -0.14741376 -0.03865790 0.23424277
vn -0.57735027 -0.57735027 -0.57735027
vn -0.57735027 -0.57735027 0.57735027
vn -0.57735027 0.57735027 -0.57735027
vn -0.57735027 0.57735027 0.57735027
vn 0.57735027 -0.57735027 -0.57735027
vn 0.57735027 -0.57735027 0.57735027
vn 0.57735027 0.57735027 -0.57735027
vn 0.57735027 0.57735027 0.57735027
vn -0.57735027 -0.57735027 -0.57735027
vn -0.57735027 -0.57735027 0.57735027
vn -0.57735027 0.57735027 -0.57735027
vn -0.57735027 0.57735027 0.57735027
vn 0.57735027 -0.57735027 -0.57735027
vn 0.57735027 -0.57735027 0.57735027
vn 0.57735027 0.57735027 -0.57735027
vn 0.57735027 0.57735027 0.57735027
vn -0.57735027 -0.57735027 -0.57735027
vn -0.57735027 -0.57735027 0.57735027
vn -0.57735027 0.57735027 -0.57735027
vn -0.57735027 0.57735027 0.57735027
vn 0.57735027 -0.57735027 -0.57735027
vn 0.57735027 -0.57735027 0.57735027
vn 0.57735027 0.57735027 -0.57735027
vn 0.57735027 0.57735027 0.57735027
vn -0.34442667 0.93881322 -0.00000000
vn 0.34442667 0.93881322 -0.00000000
vn -0.34442667 -0.93881322 -0.00000000
vn 0.34442667 -0.93881322 -0.00000000
vn 0.00000000 -0.76487678 0.64417662
vn -0.00000000 0.76487678 0.64417662
vn 0.00000000 -0.76487678 -0.64417662
vn -0.00000000 0.76487678 -0.64417662
vn 0.87948042 -0.00000000 -0.47593508
vn 0.87948042 0.00000000 0.47593508
vn -0.87948042 0.00000000 -0.47593508
vn -0.87948042 -0.00000000 0.47593508
vn 0.00000000 1.00000000 -0.00000000
vn 0.00000000 -1.00000000 -0.00000000
vn -0.21290744 -0.93122202 0.29579718
vn 0.21290744 -0.93122202 0.29579718
vn -0.21290744 0.93122202 0.29579718
vn 0.21290744 0.93122202 0.29579718
vn 0.00000000 -0.00000000 1.00000000
vn -0.21290744 -0.93122202 -0.29579718
vn 0.21290744 -0.93122202 -0.29579718
vn -0.21290744 0.93122202 -0.29579718
vn 0.21290744 0.93122202 -0.29579718
vn -0.00000000 0.00000000 -1.00000000
vn 0.67949528 0.69885956 -0.22334162
vn 0.67949528 -0.69885956 -0.22334162
vn 0.49969134 -0.50469194 -0.70398481
vn 0.49969134 0.50469194 -0.70398481
vn 0.67949528 0.69885956 0.22334162
vn 0.67949528 -0.69885956 0.22334162
vn 0.49969134 -0.50469194 0.70398481
vn 0.49969134 0.50469194 0.70398481
vn 1.00000000 0.00000000 0.00000000
vn -0.67949528 0.69885956 -0.22334162
vn -0.67949528 -0.69885956 -0.22334162
vn -0.49969134 -0.50469194 -0.70398481
vn -0.49969134 0.50469194 -0.70398481
vn -0.67949528 0.69885956 0.22334162
vn -0.67949528 -0.69885956 0.22334162
vn -0.49969134 -0.50469194 0.70398481
vn -0.49969134 0.50469194 0.70398481
vn -1.00000000 0.00000000 0.00000000
vn -0.16635660 0.98606566 -0.00000000
vn 0.16635660 0.98606566 -0.00000000
vn -0.16635660 -0.98606566 -0.00000000
vn 0.16635660 -0.98606566 -0.00000000
vn -0.28397648 -0.94784473 0.14473333
vn -0.12179960 -0.87883082 0.46132554
vn -0.09418522 -0.98536895 0.14204635
vn 0.28397648 -0.94784473 0.14473333
vn 0.12179960 -0.87883082 0.46132554
vn 0.09418522 -0.98536895 0.14204635
vn 0.00000000 -0.95507574 0.29636183
vn -0.28397648 0.94784473 0.14473333
vn -0.12179960 0.87883082 0.46132554
vn -0.09418522 0.98536895 0.14204635
vn 0.28397648 0.94784473 0.14473333
vn 0.12179960 0.87883082 0.46132554
vn 0.09418522 0.98536895 0.14204635
vn 0.00000000 0.95507574 0.29636183
vn -0.00000000 -0.47387065 0.88059446
vn 0.00000000 0.47387065 0.88059446
vn -0.28397648 -0.94784473 -0.14473333
vn -0.12179960 -0.87883082 -0.46132554
vn -0.09418522 -0.98536895 -0.14204635
vn 0.28397648 -0.94784473 -0.14473333
vn 0.12179960 -0.87883082 -0.46132554
vn 0.09418522 -0.98536895 -0.14204635
vn 0.00000000 -0.95507574 -0.29636183
vn -0.28397648 0.94784473 -0.14473333
vn -0.12179960 0.87883082 -0.46132554
vn -0.09418522 0.98536895 -0.14204635
vn 0.28397648 0.94784473 -0.14473333
vn 0.12179960 0.87883082 -0.46132554
vn 0.09418522 0.98536895 -0.14204635
vn -0.00000000 0.95507574 -0.29636183
vn 0.00000000 -0.47387065 -0.88059446
vn -0.00000000 0.47387065 -0.88059446
vn 0.50389664 0.85788781 -0.10058178
vn 0.83560368 0.41298379 -0.36223042
vn 0.44033134 0.85277641 -0.28085710
vn 0.50389664 -0.85788781 -0.10058178
vn 0.83560368 -0.41298379 -0.36223042
vn 0.44033134 -0.85277641 -0.28085710
vn 0.24162715 -0.67276069 -0.69929205
vn 0.73131347 -0.26747860 -0.62740402
vn 0.35630845 -0.79950805 -0.48356093
vn 0.29524136 -0.27444689 -0.91515651
vn 0.61569739 -0.64222664 -0.45657602
vn 0.24162715 0.67276069 -0.69929205
vn 0.73131347 0.26747860 -0.62740402
vn 0.35630845 0.79950805 -0.48356093
vn 0.29524136 0.27444689 -0.91515651
vn 0.61569739 0.64222664 -0.45657602
vn 0.56890958 0.00000000 -0.82240008
vn 0.50389664 0.85788781 0.10058178
vn 0.83560368 0.41298379 0.36223042
vn 0.44033134 0.85277641 0.28085710
vn 0.70601489 0.70819699 0.00000000
vn 0.50389664 -0.85788781 0.10058178
vn 0.83560368 -0.41298379 0.36223042
vn 0.44033134 -0.85277641 0.28085710
vn 0.70601489 -0.70819699 0.00000000
vn 0.24162715 -0.67276069 0.69929205
vn 0.73131347 -0.26747860 0.62740402
vn 0.35630845 -0.79950805 0.48356093
vn 0.29524136 -0.27444689 0.91515651
vn 0.61569739 -0.64222664 0.45657602
vn 0.24162715 0.67276069 0.69929205
vn 0.73131347 0.26747860 0.62740402
vn 0.35630845 0.79950805 0.48356093
vn 0.29524136 0.27444689 0.91515651
vn 0.61569739 0.64222664 0.45657602
vn 0.56890958 0.00000000 0.82240008
vn 0.96942918 -0.00000000 -0.24537128
vn 0.96942918 0.00000000 0.24537128
vn 0.89947086 0.41854240 -0.12559629
vn 0.89947086 -0.41854240 -0.12559629
vn 0.89947086 0.41854240 0.12559629
vn 0.89947086 -0.41854240 0.12559629
vn -0.50389664 0.85788781 -0.10058178
vn -0.83560368 0.41298379 -0.36223042
vn -0.44033134 0.85277641 -0.28085710
vn -0.50389664 -0.85788781 -0.10058178
vn -0.83560368 -0.41298379 -0.36223042
vn -0.44033134 -0.85277641 -0.28085710
vn -0.24162715 -0.67276069 -0.69929205
vn -0.73131347 -0.26747860 -0.62740402
vn -0.35630845 -0.79950805 -0.48356093
vn -0.29524136 -0.27444689 -0.91515651
vn -0.61569739 -0.64222664 -0.45657602
vn -0.24162715 0.67276069 -0.69929205
vn -0.73131347 0.26747860 -0.62740402
vn -0.35630845 0.79950805 -0.48356093
vn -0.29524136 0.27444689 -0.91515651
vn -0.61569739 0.64222664 -0.45657602
vn -0.56890958 0.00000000 -0.82240008
vn -0.50389664 0.85788781 0.10058178
vn -0.83560368 0.41298379 0.36223042
vn -0.44033134 0.85277641 0.28085710
vn -0.70601489 0.70819699 0.00000000
vn -0.50389664 -0.85788781 0.10058178
vn -0.83560368 -0.41298379 0.36223042
vn -0.44033134 -0.85277641 0.28085710
vn -0.70601489 -0.70819699 0.00000000
vn -0.24162715 -0.67276069 0.69929205
vn -0.73131347 -0.26747860 0.62740402
vn -0.35630845 -0.79950805 0.48356093
vn -0.29524136 -0.27444689 0.91515651
vn -0.61569739 -0.64222664 0.45657602
vn -0.24162715 0.67276069 0.69929205
vn -0.73131347 0.26747860 0.62740402
vn -0.35630845 0.79950805 0.48356093
vn -0.29524136 0.27444689 0.91515651
vn -0.61569739 0.64222664 0.45657602
vn -0.56890958 0.00000000 0.82240008
vn -0.96942918 0.00000000 -0.24537128
vn -0.96942918 -0.00000000 0.24537128
vn -0.89947086 0.41854240 -0.12559629
vn -0.89947086 -0.41854240 -0.12559629
vn -0.89947086 0.41854240 0.12559629
vn -0.89947086 -0.41854240 0.12559629
f 2//2 4//4 1//1
f 5//5 2//2 1//1
f 1//1 4//4 3//3
f 3//3 5//5 1//1
f 2//2 8//8 4//4
f 6//6 2//2 5//5
f 6//6 8//8 2//2
f 4//4 8//8 3//3
f 7//7 5//5 3//3
f 3//3 8//8 7//7
f 7//7 6//6 5//5
f 8//8 6//6 7//7
f 10//10 12//12 9//9
f 13//13 10//10 9//9
f 9//9 12//12 11//11
f 11//11 13//13 9//9
f 10//10 16//16 12//12
f 14//14 10//10 13//13
f 14//14 16//16 10//10
f 12//12 16//16 11//11
f 15//15 13//13 11//11
f 11//11 16//16 15//15
f 15//15 14//14 13//13
f 16//16 14//14 15//15
f 18//18 20//20 17//17
f 21//21 18//18 17//17
f 17//17 20//20 19//19
f 19//19 21//21 17//17
f 18//18 24//24 20//20
f 22//22 18//18 21//21
f 22//22 24//24 18//18
f 20//20 24//24 19//19
f 23//23 21//21 19//19
f 19//19 24//24 23//23
f 23//23 22//22 21//21
f 24//24 22//22 23//23
f 25//25 162//162 78//78
f 162//162 62//62 164//164
f 78//78 164//164 41//41
f 162//162 164//164 78//78
f 62//62 163//163 179//179
f 163//163 36//36 176//176
f 179//179 176//176 65//65
f 163//163 176//176 179//179
f 41//41 177//177 79//79
f 177//177 65//65 175//175
f 79//79 175//175 30//30
f 177//177 175//175 79//79
f 62//62 179//179 164//164
f 179//179 65//65 177//177
f 164//164 177//177 41//41
f 179//179 177//177 164//164
f 25//25 78//78 67//67
f 78//78 41//41 80//80
f 67//67 80//80 37//37
f 78//78 80//80 67//67
f 41//41 79//79 84//84
f 79//79 30//30 82//82
f 84//84 82//82 42//42
f 79//79 82//82 84//84
f 37//37 83//83 68//68
f 83//83 42//42 81//81
f 68//68 81//81 26//26
f 83//83 81//81 68//68
f 41//41 84//84 80//80
f 84//84 42//42 83//83
f 80//80 83//83 37//37
f 84//84 83//83 80//80
f 25//25 67//67 94//94
f 67//67 37//37 96//96
f 94//94 96//96 46//46
f 67//67 96//96 94//94
f 37//37 68//68 99//99
f 68//68 26//26 97//97
f 99//99 97//97 47//47
f 68//68 97//97 99//99
f 46//46 100//100 95//95
f 100//100 47//47 98//98
f 95//95 98//98 32//32
f 100//100 98//98 95//95
f 37//37 99//99 96//96
f 99//99 47//47 100//100
f 96//96 100//100 46//46
f 99//99 100//100 96//96
f 25//25 94//94 145//145
f 94//94 46//46 147//147
f 145//145 147//147 58//58
f 94//94 147//147 145//145
f 46//46 95//95 158//158
f 95//95 32//32 156//156
f 158//158 156//156 61//61
f 95//95 156//156 158//158
f 58//58 160//160 146//146
f 160//160 61//61 157//157
f 146//146 157//157 35//35
f 160//160 157//157 146//146
f 46//46 158//158 147//147
f 158//158 61//61 160//160
f 147//147 160//160 58//58
f 158//158 160//160 147//147
f 25//25 145//145 162//162
f 145//145 58//58 165//165
f 162//162 165//165 62//62
f 145//145 165//165 162//162
f 58//58 146//146 183//183
f 146//146 35//35 181//181
f 183//183 181//181 66//66
f 146//146 181//181 183//183
f 62//62 185//185 163//163
f 185//185 66//66 182//182
f 163//163 182//182 36//36
f 185//185 182//182 163//163
f 58//58 183//183 165//165
f 183//183 66//66 185//185
f 165//165 185//185 62//62
f 183//183 185//185 165//165
f 26//26 81//81 120//120
f 81//81 42//42 122//122
f 120//120 122//122 53//53
f 81//81 122//122 120//120
f 42//42 82//82 135//135
f 82//82 30//30 133//133
f 135//135 133//133 56//56
f 82//82 133//133 135//135
f 53//53 137//137 121//121
f 137//137 56//56 134//134
f 121//121 134//134 34//34
f 137//137 134//134 121//121
f 42//42 135//135 122//122
f 135//135 56//56 137//137
f 122//122 137//137 53//53
f 135//135 137//137 122//122
f 30//30 175//175 86//86
f 175//175 65//65 178//178
f 86//86 178//178 43//43
f 175//175 178//178 86//86
f 65//65 176//176 180//180
f 176//176 36//36 171//171
f 180//180 171//171 64//64
f 176//176 171//171 180//180
f 43//43 173//173 85//85
f 173//173 64//64 170//170
f 85//85 170//170 29//29
f 173//173 170//170 85//85
f 65//65 180//180 178//178
f 180//180 64//64 173//173
f 178//178 173//173 43//43
f 180//180 173//173 178//178
f 36//36 182//182 167//167
f 182//182 66//66 186//186
f 167//167 186//186 63//63
f 182//182 186//186 167//167
f 66//66 181//181 184//184
f 181//181 35//35 149//149
f 184//184 149//149 59//59
f 181//181 149//149 184//184
f 63//63 169//169 166//166
f 169//169 59//59 148//148
f 166//166 148//148 27//27
f 169//169 148//148 166//166
f 66//66 184//184 186//186
f 184//184 59//59 169//169
f 186//186 169//169 63//63
f 184//184 169//169 186//186
f 35//35 157//157 152//152
f 157//157 61//61 161//161
f 152//152 161//161 60//60
f 157//157 161//161 152//152
f 61//61 156//156 159//159
f 156//156 32//32 102//102
f 159//159 102//102 48//48
f 156//156 102//102 159//159
f 60//60 154//154 151//151
f 154//154 48//48 101//101
f 151//151 101//101 31//31
f 154//154 101//101 151//151
f 61//61 159//159 161//161
f 159//159 48//48 154//154
f 161//161 154//154 60//60
f 159//159 154//154 161//161
f 32//32 98//98 114//114
f 98//98 47//47 116//116
f 114//114 116//116 52//52
f 98//98 116//116 114//114
f 47//47 97//97 105//105
f 97//97 26//26 103//103
f 105//105 103//103 49//49
f 97//97 103//103 105//105
f 52//52 118//118 115//115
f 118//118 49//49 104//104
f 115//115 104//104 33//33
f 118//118 104//104 115//115
f 47//47 105//105 116//116
f 105//105 49//49 118//118
f 116//116 118//118 52//52
f 105//105 118//118 116//116
f 28//28 124//124 74//74
f 124//124 54//54 126//126
f 74//74 126//126 40//40
f 124//124 126//126 74//74
f 54//54 125//125 132//132
f 125//125 34//34 129//129
f 132//132 129//129 55//55
f 125//125 129//129 132//132
f 40//40 130//130 75//75
f 130//130 55//55 128//128
f 75//75 128//128 29//29
f 130//130 128//128 75//75
f 54//54 132//132 126//126
f 132//132 55//55 130//130
f 126//126 130//130 40//40
f 132//132 130//130 126//126
f 28//28 74//74 70//70
f 74//74 40//40 76//76
f 70//70 76//76 38//38
f 74//74 76//76 70//70
f 40//40 75//75 77//77
f 75//75 29//29 72//72
f 77//77 72//72 39//39
f 75//75 72//72 77//77
f 38//38 73//73 69//69
f 73//73 39//39 71//71
f 69//69 71//71 27//27
f 73//73 71//71 69//69
f 40//40 77//77 76//76
f 77//77 39//39 73//73
f 76//76 73//73 38//38
f 77//77 73//73 76//76
f 28//28 70//70 90//90
f 70//70 38//38 92//92
f 90//90 92//92 45//45
f 70//70 92//92 90//90
f 38//38 69//69 89//89
f 69//69 27//27 87//87
f 89//89 87//87 44//44
f 69//69 87//87 89//89
f 45//45 93//93 91//91
f 93//93 44//44 88//88
f 91//91 88//88 31//31
f 93//93 88//88 91//91
f 38//38 89//89 92//92
f 89//89 44//44 93//93
f 92//92 93//93 45//45
f 89//89 93//93 92//92
f 28//28 90//90 106//106
f 90//90 45//45 108//108
f 106//106 108//108 50//50
f 90//90 108//108 106//106
f 45//45 91//91 111//111
f 91//91 31//31 109//109
f 111//111 109//109 51//51
f 91//91 109//109 111//111
f 50//50 113//113 107//107
f 113//113 51//51 110//110
f 107//107 110//110 33//33
f 113//113 110//110 107//107
f 45//45 111//111 108//108
f 111//111 51//51 113//113
f 108//108 113//113 50//50
f 111//111 113//113 108//108
f 28//28 106//106 124//124
f 106//106 50//50 127//127
f 124//124 127//127 54//54
f 106//106 127//127 124//124
f 50//50 107//107 142//142
f 107//107 33//33 139//139
f 142//142 139//139 57//57
f 107//107 139//139 142//142
f 54//54 144//144 125//125
f 144//144 57//57 140//140
f 125//125 140//140 34//34
f 144//144 140//140 125//125
f 50//50 142//142 127//127
f 142//142 57//57 144//144
f 127//127 144//144 54//54
f 142//142 144//144 127//127
f 29//29 128//128 85//85
f 128//128 55//55 131//131
f 85//85 131//131 43//43
f 128//128 131//131 85//85
f 55//55 129//129 138//138
f 129//129 34//34 134//134
f 138//138 134//134 56//56
f 129//129 134//134 138//138
f 43//43 136//136 86//86
f 136//136 56//56 133//133
f 86//86 133//133 30//30
f 136//136 133//133 86//86
f 55//55 138//138 131//131
f 138//138 56//56 136//136
f 131//131 136//136 43//43
f 138//138 136//136 131//131
f 27//27 71//71 166//166
f 71//71 39//39 168//168
f 166//166 168//168 63//63
f 71//71 168//168 166//166
f 39//39 72//72 172//172
f 72//72 29//29 170//170
f 172//172 170//170 64//64
f 72//72 170//170 172//172
f 63//63 174//174 167//167
f 174//174 64//64 171//171
f 167//167 171//171 36//36
f 174//174 171//171 167//167
f 39//39 172//172 168//168
f 172//172 64//64 174//174
f 168//168 174//174 63//63
f 172//172 174//174 168//168
f 31//31 88//88 151//151
f 88//88 44//44 153//153
f 151//151 153//153 60//60
f 88//88 153//153 151//151
f 44//44 87//87 150//150
f 87//87 27//27 148//148
f 150//150 148//148 59//59
f 87//87 148//148 150//150
f 60//60 155//155 152//152
f 155//155 59//59 149//149
f 152//152 149//149 35//35
f 155//155 149//149 152//152
f 44//44 150//150 153//153
f 150//150 59//59 155//155
f 153//153 155//155 60//60
f 150//150 155//155 153//153
f 33//33 110//110 115//115
f 110//110 51//51 119//119
f 115//115 119//119 52//52
f 110//110 119//119 115//115
f 51//51 109//109 112//112
f 109//109 31//31 101//101
f 112//112 101//101 48//48
f 109//109 101//101 112//112
f 52//52 117//117 114//114
f 117//117 48//48 102//102
f 114//114 102//102 32//32
f 117//117 102//102 114//114
f 51//51 112//112 119//119
f 112//112 48//48 117//117
f 119//119 117//117 52//52
f 112//112 117//117 119//119
f 34//34 140//140 121//121
f 140//140 57//57 143//143
f 121//121 143//143 53//53
f 140//140 143//143 121//121
f 57//57 139//139 141//141
f 139//139 33//33 104//104
f 141//141 104//104 49//49
f 139//139 104//104 141//141
f 53//53 123//123 120//120
f 123//123 49//49 103//103
f 120//120 103//103 26//26
f 123//123 103//103 120//120
f 57//57 141//141 143//143
f 141//141 49//49 123//123
f 143//143 123//123 53//53
f 141//141 123//123 143//143

