# https://github.com/mikedh/trimesh
v -0.92500000 0.29000000 -2.20000000
v -0.92500000 0.29000000 0.10000000
v -0.92500000 1.11000000 -2.20000000
v -0.92500000 1.11000000 0.10000000
v 0.92500000 0.29000000 -2.20000000
v 0.92500000 0.29000000 0.10000000
v 0.92500000 1.11000000 -2.20000000
v 0.92500000 1.11000000 0.10000000
v -0.89000000 0.93903666 -1.96841718
v -0.89000000 1.04486009 -0.91371276
v -0.89000000 1.71513991 -2.04628724
v -0.89000000 1.82096334 -0.99158282
v 0.89000000 0.93903666 -1.96841718
v 0.89000000 1.04486009 -0.91371276
v 0.89000000 1.71513991 -2.04628724
v 0.89000000 1.82096334 -0.99158282
v -1.01000000 0.49500000 -0.62500000
v -1.01000000 0.49500000 2.72500000
v -1.01000000 0.74500000 -0.62500000
v -1.01000000 0.74500000 2.72500000
v 1.01000000 0.49500000 -0.62500000
v 1.01000000 0.49500000 2.72500000
v 1.01000000 0.74500000 -0.62500000
v 1.01000000 0.74500000 2.72500000
v -1.05000000 0.81000000 -0.52500000
v -1.05000000 0.81000000 2.62500000
v -1.05000000 0.99000000 -0.52500000
v -1.05000000 0.99000000 2.62500000
v 1.05000000 0.81000000 -0.52500000
v 1.05000000 0.81000000 2.62500000
v 1.05000000 0.99000000 -0.52500000
v 1.05000000 0.99000000 2.62500000
v -1.06500000 0.82500000 -0.45000000
v -1.06500000 0.82500000 2.55000000
v -1.06500000 1.77500000 -0.45000000
v -1.06500000 1.77500000 2.55000000
v -0.97500000 0.82500000 -0.45000000
v -0.97500000 0.82500000 2.55000000
v -0.97500000 1.77500000 -0.45000000
v -0.97500000 1.77500000 2.55000000
v 0.97500000 0.82500000 -0.45000000
v 0.97500000 0.82500000 2.55000000
v 0.97500000 1.77500000 -0.45000000
v 0.97500000 1.77500000 2.55000000
v 1.06500000 0.82500000 -0.45000000
v 1.06500000 0.82500000 2.55000000
v 1.06500000 1.77500000 -0.45000000
v 1.06500000 1.77500000 2.55000000
v -1.03000000 1.69000000 -0.47500000
v -1.03000000 1.69000000 2.57500000
v -1.03000000 1.79000000 -0.47500000
v -1.03000000 1.79000000 2.57500000
v 1.03000000 1.69000000 -0.47500000
v 1.03000000 1.69000000 2.57500000
v 1.03000000 1.79000000 -0.47500000
v 1.03000000 1.79000000 2.57500000
v -1.15000000 0.47000000 -1.55000000
v -1.15000000 0.47000000 -1.97000000
v -0.91000000 0.47000000 -1.97000000
v -0.91000000 0.47000000 -1.55000000
v -1.15000000 0.59978714 -1.94944374
v -0.91000000 0.59978714 -1.94944374
v -1.15000000 0.71686981 -1.88978714
v -0.91000000 0.71686981 -1.88978714
v -1.15000000 0.80978714 -1.79686981
v -0.91000000 0.80978714 -1.79686981
v -1.15000000 0.86944374 -1.67978714
v -0.91000000 0.86944374 -1.67978714
v -1.15000000 0.89000000 -1.55000000
v -0.91000000 0.89000000 -1.55000000
v -1.15000000 0.86944374 -1.42021286
v -0.91000000 0.86944374 -1.42021286
v -1.15000000 0.80978714 -1.30313019
v -0.91000000 0.80978714 -1.30313019
v -1.15000000 0.71686981 -1.21021286
v -0.91000000 0.71686981 -1.21021286
v -1.15000000 0.59978714 -1.15055626
v -0.91000000 0.59978714 -1.15055626
v -1.15000000 0.47000000 -1.13000000
v -0.91000000 0.47000000 -1.13000000
v -1.15000000 0.34021286 -1.15055626
v -0.91000000 0.34021286 -1.15055626
v -1.15000000 0.22313019 -1.21021286
v -0.91000000 0.22313019 -1.21021286
v -1.15000000 0.13021286 -1.30313019
v -0.91000000 0.13021286 -1.30313019
v -1.15000000 0.07055626 -1.42021286
v -0.91000000 0.07055626 -1.42021286
v -1.15000000 0.05000000 -1.55000000
v -0.91000000 0.05000000 -1.55000000
v -1.15000000 0.07055626 -1.67978714
v -0.91000000 0.07055626 -1.67978714
v -1.15000000 0.13021286 -1.79686981
v -0.91000000 0.13021286 -1.79686981
v -1.15000000 0.22313019 -1.88978714
v -0.91000000 0.22313019 -1.88978714
v -1.15000000 0.34021286 -1.94944374
v -0.91000000 0.34021286 -1.94944374
v -1.15960000 0.47000000 -1.55000000
v -1.15960000 0.47000000 -1.78100000
v -0.90040000 0.47000000 -1.78100000
v -0.90040000 0.47000000 -1.55000000
v -1.15960000 0.57022714 -1.75812381
v -0.90040000 0.57022714 -1.75812381
v -1.15960000 0.65060307 -1.69402614
v -0.90040000 0.65060307 -1.69402614
v -1.15960000 0.69520835 -1.60140234
v -0.90040000 0.69520835 -1.60140234
v -1.15960000 0.69520835 -1.49859766
v -0.90040000 0.69520835 -1.49859766
v -1.15960000 0.65060307 -1.40597386
v -0.90040000 0.65060307 -1.40597386
v -1.15960000 0.57022714 -1.34187619
v -0.90040000 0.57022714 -1.34187619
v -1.15960000 0.47000000 -1.31900000
v -0.90040000 0.47000000 -1.31900000
v -1.15960000 0.36977286 -1.34187619
v -0.90040000 0.36977286 -1.34187619
v -1.15960000 0.28939693 -1.40597386
v -0.90040000 0.28939693 -1.40597386
v -1.15960000 0.24479165 -1.49859766
v -0.90040000 0.24479165 -1.49859766
v -1.15960000 0.24479165 -1.60140234
v -0.90040000 0.24479165 -1.60140234
v -1.15960000 0.28939693 -1.69402614
v -0.90040000 0.28939693 -1.69402614
v -1.15960000 0.36977286 -1.75812381
v -0.90040000 0.36977286 -1.75812381
v 0.91000000 0.47000000 -1.55000000
v 0.91000000 0.47000000 -1.97000000
v 1.15000000 0.47000000 -1.97000000
v 1.15000000 0.47000000 -1.55000000
v 0.91000000 0.59978714 -1.94944374
v 1.15000000 0.59978714 -1.94944374
v 0.91000000 0.71686981 -1.88978714
v 1.15000000 0.71686981 -1.88978714
v 0.91000000 0.80978714 -1.79686981
v 1.15000000 0.80978714 -1.79686981
v 0.91000000 0.86944374 -1.67978714
v 1.15000000 0.86944374 -1.67978714
v 0.91000000 0.89000000 -1.55000000
v 1.15000000 0.89000000 -1.55000000
v 0.91000000 0.86944374 -1.42021286
v 1.15000000 0.86944374 -1.42021286
v 0.91000000 0.80978714 -1.30313019
v 1.15000000 0.80978714 -1.30313019
v 0.91000000 0.71686981 -1.21021286
v 1.15000000 0.71686981 -1.21021286
v 0.91000000 0.59978714 -1.15055626
v 1.15000000 0.59978714 -1.15055626
v 0.91000000 0.47000000 -1.13000000
v 1.15000000 0.47000000 -1.13000000
v 0.91000000 0.34021286 -1.15055626
v 1.15000000 0.34021286 -1.15055626
v 0.91000000 0.22313019 -1.21021286
v 1.15000000 0.22313019 -1.21021286
v 0.91000000 0.13021286 -1.30313019
v 1.15000000 0.13021286 -1.30313019
v 0.91000000 0.07055626 -1.42021286
v 1.15000000 0.07055626 -1.42021286
v 0.91000000 0.05000000 -1.55000000
v 1.15000000 0.05000000 -1.55000000
v 0.91000000 0.07055626 -1.67978714
v 1.15000000 0.07055626 -1.67978714
v 0.91000000 0.13021286 -1.79686981
v 1.15000000 0.13021286 -1.79686981
v 0.91000000 0.22313019 -1.88978714
v 1.15000000 0.22313019 -1.88978714
v 0.91000000 0.34021286 -1.94944374
v 1.15000000 0.34021286 -1.94944374
v 0.90040000 0.47000000 -1.55000000
v 0.90040000 0.47000000 -1.78100000
v 1.15960000 0.47000000 -1.78100000
v 1.15960000 0.47000000 -1.55000000
v 0.90040000 0.57022714 -1.75812381
v 1.15960000 0.57022714 -1.75812381
v 0.90040000 0.65060307 -1.69402614
v 1.15960000 0.65060307 -1.69402614
v 0.90040000 0.69520835 -1.60140234
v 1.15960000 0.69520835 -1.60140234
v 0.90040000 0.69520835 -1.49859766
v 1.15960000 0.69520835 -1.49859766
v 0.90040000 0.65060307 -1.40597386
v 1.15960000 0.65060307 -1.40597386
v 0.90040000 0.57022714 -1.34187619
v 1.15960000 0.57022714 -1.34187619
v 0.90040000 0.47000000 -1.31900000
v 1.15960000 0.47000000 -1.31900000
v 0.90040000 0.36977286 -1.34187619
v 1.15960000 0.36977286 -1.34187619
v 0.90040000 0.28939693 -1.40597386
v 1.15960000 0.28939693 -1.40597386
v 0.90040000 0.24479165 -1.49859766
v 1.15960000 0.24479165 -1.49859766
v 0.90040000 0.24479165 -1.60140234
v 1.15960000 0.24479165 -1.60140234
v 0.90040000 0.28939693 -1.69402614
v 1.15960000 0.28939693 -1.69402614
v 0.90040000 0.36977286 -1.75812381
v 1.15960000 0.36977286 -1.75812381
v -1.15000000 0.47000000 0.35000000
v -1.15000000 0.47000000 -0.07000000
v -0.91000000 0.47000000 -0.07000000
v -0.91000000 0.47000000 0.35000000
v -1.15000000 0.59978714 -0.04944374
v -0.91000000 0.59978714 -0.04944374
v -1.15000000 0.71686981 0.01021286
v -0.91000000 0.71686981 0.01021286
v -1.15000000 0.80978714 0.10313019
v -0.91000000 0.80978714 0.10313019
v -1.15000000 0.86944374 0.22021286
v -0.91000000 0.86944374 0.22021286
v -1.15000000 0.89000000 0.35000000
v -0.91000000 0.89000000 0.35000000
v -1.15000000 0.86944374 0.47978714
v -0.91000000 0.86944374 0.47978714
v -1.15000000 0.80978714 0.59686981
v -0.91000000 0.80978714 0.59686981
v -1.15000000 0.71686981 0.68978714
v -0.91000000 0.71686981 0.68978714
v -1.15000000 0.59978714 0.74944374
v -0.91000000 0.59978714 0.74944374
v -1.15000000 0.47000000 0.77000000
v -0.91000000 0.47000000 0.77000000
v -1.15000000 0.34021286 0.74944374
v -0.91000000 0.34021286 0.74944374
v -1.15000000 0.22313019 0.68978714
v -0.91000000 0.22313019 0.68978714
v -1.15000000 0.13021286 0.59686981
v -0.91000000 0.13021286 0.59686981
v -1.15000000 0.07055626 0.47978714
v -0.91000000 0.07055626 0.47978714
v -1.15000000 0.05000000 0.35000000
v -0.91000000 0.05000000 0.35000000
v -1.15000000 0.07055626 0.22021286
v -0.91000000 0.07055626 0.22021286
v -1.15000000 0.13021286 0.10313019
v -0.91000000 0.13021286 0.10313019
v -1.15000000 0.22313019 0.01021286
v -0.91000000 0.22313019 0.01021286
v -1.15000000 0.34021286 -0.04944374
v -0.91000000 0.34021286 -0.04944374
v -1.15960000 0.47000000 0.35000000
v -1.15960000 0.47000000 0.11900000
v -0.90040000 0.47000000 0.11900000
v -0.90040000 0.47000000 0.35000000
v -1.15960000 0.57022714 0.14187619
v -0.90040000 0.57022714 0.14187619
v -1.15960000 0.65060307 0.20597386
v -0.90040000 0.65060307 0.20597386
v -1.15960000 0.69520835 0.29859766
v -0.90040000 0.69520835 0.29859766
v -1.15960000 0.69520835 0.40140234
v -0.90040000 0.69520835 0.40140234
v -1.15960000 0.65060307 0.49402614
v -0.90040000 0.65060307 0.49402614
v -1.15960000 0.57022714 0.55812381
v -0.90040000 0.57022714 0.55812381
v -1.15960000 0.47000000 0.58100000
v -0.90040000 0.47000000 0.58100000
v -1.15960000 0.36977286 0.55812381
v -0.90040000 0.36977286 0.55812381
v -1.15960000 0.28939693 0.49402614
v -0.90040000 0.28939693 0.49402614
v -1.15960000 0.24479165 0.40140234
v -0.90040000 0.24479165 0.40140234
v -1.15960000 0.24479165 0.29859766
v -0.90040000 0.24479165 0.29859766
v -1.15960000 0.28939693 0.20597386
v -0.90040000 0.28939693 0.20597386
v -1.15960000 0.36977286 0.14187619
v -0.90040000 0.36977286 0.14187619
v 0.91000000 0.47000000 0.35000000
v 0.91000000 0.47000000 -0.07000000
v 1.15000000 0.47000000 -0.07000000
v 1.15000000 0.47000000 0.35000000
v 0.91000000 0.59978714 -0.04944374
v 1.15000000 0.59978714 -0.04944374
v 0.91000000 0.71686981 0.01021286
v 1.15000000 0.71686981 0.01021286
v 0.91000000 0.80978714 0.10313019
v 1.15000000 0.80978714 0.10313019
v 0.91000000 0.86944374 0.22021286
v 1.15000000 0.86944374 0.22021286
v 0.91000000 0.89000000 0.35000000
v 1.15000000 0.89000000 0.35000000
v 0.91000000 0.86944374 0.47978714
v 1.15000000 0.86944374 0.47978714
v 0.91000000 0.80978714 0.59686981
v 1.15000000 0.80978714 0.59686981
v 0.91000000 0.71686981 0.68978714
v 1.15000000 0.71686981 0.68978714
v 0.91000000 0.59978714 0.74944374
v 1.15000000 0.59978714 0.74944374
v 0.91000000 0.47000000 0.77000000
v 1.15000000 0.47000000 0.77000000
v 0.91000000 0.34021286 0.74944374
v 1.15000000 0.34021286 0.74944374
v 0.91000000 0.22313019 0.68978714
v 1.15000000 0.22313019 0.68978714
v 0.91000000 0.13021286 0.59686981
v 1.15000000 0.13021286 0.59686981
v 0.91000000 0.07055626 0.47978714
v 1.15000000 0.07055626 0.47978714
v 0.91000000 0.05000000 0.35000000
v 1.15000000 0.05000000 0.35000000
v 0.91000000 0.07055626 0.22021286
v 1.15000000 0.07055626 0.22021286
v 0.91000000 0.13021286 0.10313019
v 1.15000000 0.13021286 0.10313019
v 0.91000000 0.22313019 0.01021286
v 1.15000000 0.22313019 0.01021286
v 0.91000000 0.34021286 -0.04944374
v 1.15000000 0.34021286 -0.04944374
v 0.90040000 0.47000000 0.35000000
v 0.90040000 0.47000000 0.11900000
v 1.15960000 0.47000000 0.11900000
v 1.15960000 0.47000000 0.35000000
v 0.90040000 0.57022714 0.14187619
v 1.15960000 0.57022714 0.14187619
v 0.90040000 0.65060307 0.20597386
v 1.15960000 0.65060307 0.20597386
v 0.90040000 0.69520835 0.29859766
v 1.15960000 0.69520835 0.29859766
v 0.90040000 0.69520835 0.40140234
v 1.15960000 0.69520835 0.40140234
v 0.90040000 0.65060307 0.49402614
v 1.15960000 0.65060307 0.49402614
v 0.90040000 0.57022714 0.55812381
v 1.15960000 0.57022714 0.55812381
v 0.90040000 0.47000000 0.58100000
v 1.15960000 0.47000000 0.58100000
v 0.90040000 0.36977286 0.55812381
v 1.15960000 0.36977286 0.55812381
v 0.90040000 0.28939693 0.49402614
v 1.15960000 0.28939693 0.49402614
v 0.90040000 0.24479165 0.40140234
v 1.15960000 0.24479165 0.40140234
v 0.90040000 0.24479165 0.29859766
v 1.15960000 0.24479165 0.29859766
v 0.90040000 0.28939693 0.20597386
v 1.15960000 0.28939693 0.20597386
v 0.90040000 0.36977286 0.14187619
v 1.15960000 0.36977286 0.14187619
v -1.15000000 0.47000000 1.85000000
v -1.15000000 0.47000000 1.43000000
v -0.91000000 0.47000000 1.43000000
v -0.91000000 0.47000000 1.85000000
v -1.15000000 0.59978714 1.45055626
v -0.91000000 0.59978714 1.45055626
v -1.15000000 0.71686981 1.51021286
v -0.91000000 0.71686981 1.51021286
v -1.15000000 0.80978714 1.60313019
v -0.91000000 0.80978714 1.60313019
v -1.15000000 0.86944374 1.72021286
v -0.91000000 0.86944374 1.72021286
v -1.15000000 0.89000000 1.85000000
v -0.91000000 0.89000000 1.85000000
v -1.15000000 0.86944374 1.97978714
v -0.91000000 0.86944374 1.97978714
v -1.15000000 0.80978714 2.09686981
v -0.91000000 0.80978714 2.09686981
v -1.15000000 0.71686981 2.18978714
v -0.91000000 0.71686981 2.18978714
v -1.15000000 0.59978714 2.24944374
v -0.91000000 0.59978714 2.24944374
v -1.15000000 0.47000000 2.27000000
v -0.91000000 0.47000000 2.27000000
v -1.15000000 0.34021286 2.24944374
v -0.91000000 0.34021286 2.24944374
v -1.15000000 0.22313019 2.18978714
v -0.91000000 0.22313019 2.18978714
v -1.15000000 0.13021286 2.09686981
v -0.91000000 0.13021286 2.09686981
v -1.15000000 0.07055626 1.97978714
v -0.91000000 0.07055626 1.97978714
v -1.15000000 0.05000000 1.85000000
v -0.91000000 0.05000000 1.85000000
v -1.15000000 0.07055626 1.72021286
v -0.91000000 0.07055626 1.72021286
v -1.15000000 0.13021286 1.60313019
v -0.91000000 0.13021286 1.60313019
v -1.15000000 0.22313019 1.51021286
v -0.91000000 0.22313019 1.51021286
v -1.15000000 0.34021286 1.45055626
v -0.91000000 0.34021286 1.45055626
v -1.15960000 0.47000000 1.85000000
v -1.15960000 0.47000000 1.61900000
v -0.90040000 0.47000000 1.61900000
v -0.90040000 0.47000000 1.85000000
v -1.15960000 0.57022714 1.64187619
v -0.90040000 0.57022714 1.64187619
v -1.15960000 0.65060307 1.70597386
v -0.90040000 0.65060307 1.70597386
v -1.15960000 0.69520835 1.79859766
v -0.90040000 0.69520835 1.79859766
v -1.15960000 0.69520835 1.90140234
v -0.90040000 0.69520835 1.90140234
v -1.15960000 0.65060307 1.99402614
v -0.90040000 0.65060307 1.99402614
v -1.15960000 0.57022714 2.05812381
v -0.90040000 0.57022714 2.05812381
v -1.15960000 0.47000000 2.08100000
v -0.90040000 0.47000000 2.08100000
v -1.15960000 0.36977286 2.05812381
v -0.90040000 0.36977286 2.05812381
v -1.15960000 0.28939693 1.99402614
v -0.90040000 0.28939693 1.99402614
v -1.15960000 0.24479165 1.90140234
v -0.90040000 0.24479165 1.90140234
v -1.15960000 0.24479165 1.79859766
v -0.90040000 0.24479165 1.79859766
v -1.15960000 0.28939693 1.70597386
v -0.90040000 0.28939693 1.70597386
v -1.15960000 0.36977286 1.64187619
v -0.90040000 0.36977286 1.64187619
v 0.91000000 0.47000000 1.85000000
v 0.91000000 0.47000000 1.43000000
v 1.15000000 0.47000000 1.43000000
v 1.15000000 0.47000000 1.85000000
v 0.91000000 0.59978714 1.45055626
v 1.15000000 0.59978714 1.45055626
v 0.91000000 0.71686981 1.51021286
v 1.15000000 0.71686981 1.51021286
v 0.91000000 0.80978714 1.60313019
v 1.15000000 0.80978714 1.60313019
v 0.91000000 0.86944374 1.72021286
v 1.15000000 0.86944374 1.72021286
v 0.91000000 0.89000000 1.85000000
v 1.15000000 0.89000000 1.85000000
v 0.91000000 0.86944374 1.97978714
v 1.15000000 0.86944374 1.97978714
v 0.91000000 0.80978714 2.09686981
v 1.15000000 0.80978714 2.09686981
v 0.91000000 0.71686981 2.18978714
v 1.15000000 0.71686981 2.18978714
v 0.91000000 0.59978714 2.24944374
v 1.15000000 0.59978714 2.24944374
v 0.91000000 0.47000000 2.27000000
v 1.15000000 0.47000000 2.27000000
v 0.91000000 0.34021286 2.24944374
v 1.15000000 0.34021286 2.24944374
v 0.91000000 0.22313019 2.18978714
v 1.15000000 0.22313019 2.18978714
v 0.91000000 0.13021286 2.09686981
v 1.15000000 0.13021286 2.09686981
v 0.91000000 0.07055626 1.97978714
v 1.15000000 0.07055626 1.97978714
v 0.91000000 0.05000000 1.85000000
v 1.15000000 0.05000000 1.85000000
v 0.91000000 0.07055626 1.72021286
v 1.15000000 0.07055626 1.72021286
v 0.91000000 0.13021286 1.60313019
v 1.15000000 0.13021286 1.60313019
v 0.91000000 0.22313019 1.51021286
v 1.15000000 0.22313019 1.51021286
v 0.91000000 0.34021286 1.45055626
v 1.15000000 0.34021286 1.45055626
v 0.90040000 0.47000000 1.85000000
v 0.90040000 0.47000000 1.61900000
v 1.15960000 0.47000000 1.61900000
v 1.15960000 0.47000000 1.85000000
v 0.90040000 0.57022714 1.64187619
v 1.15960000 0.57022714 1.64187619
v 0.90040000 0.65060307 1.70597386
v 1.15960000 0.65060307 1.70597386
v 0.90040000 0.69520835 1.79859766
v 1.15960000 0.69520835 1.79859766
v 0.90040000 0.69520835 1.90140234
v 1.15960000 0.69520835 1.90140234
v 0.90040000 0.65060307 1.99402614
v 1.15960000 0.65060307 1.99402614
v 0.90040000 0.57022714 2.05812381
v 1.15960000 0.57022714 2.05812381
v 0.90040000 0.47000000 2.08100000
v 1.15960000 0.47000000 2.08100000
v 0.90040000 0.36977286 2.05812381
v 1.15960000 0.36977286 2.05812381
v 0.90040000 0.28939693 1.99402614
v 1.15960000 0.28939693 1.99402614
v 0.90040000 0.24479165 1.90140234
v 1.15960000 0.24479165 1.90140234
v 0.90040000 0.24479165 1.79859766
v 1.15960000 0.24479165 1.79859766
v 0.90040000 0.28939693 1.70597386
v 1.15960000 0.28939693 1.70597386
v 0.90040000 0.36977286 1.64187619
v 1.15960000 0.36977286 1.64187619
vn -0.57735027 -0.57735027 -0.57735027
vn -0.57735027 -0.57735027 0.57735027
vn -0.57735027 0.57735027 -0.57735027
vn -0.57735027 0.57735027 0.57735027
vn 0.57735027 -0.57735027 -0.57735027
vn 0.57735027 -0.57735027 0.57735027
vn 0.57735027 0.57735027 -0.57735027
vn 0.57735027 0.57735027 0.57735027
vn -0.57735027 -0.63210477 -0.51682707
vn -0.57735027 -0.51682707 0.63210477
vn -0.57735027 0.51682707 -0.63210477
vn -0.57735027 0.63210477 0.51682707
vn 0.57735027 -0.63210477 -0.51682707
vn 0.57735027 -0.51682707 0.63210477
vn 0.57735027 0.51682707 -0.63210477
vn 0.57735027 0.63210477 0.51682707
vn -0.57735027 -0.57735027 -0.57735027
vn -0.57735027 -0.57735027 0.57735027
vn -0.57735027 0.57735027 -0.57735027
vn -0.57735027 0.57735027 0.57735027
vn 0.57735027 -0.57735027 -0.57735027
vn 0.57735027 -0.57735027 0.57735027
vn 0.57735027 0.57735027 -0.57735027
vn 0.57735027 0.57735027 0.57735027
vn -0.57735027 -0.57735027 -0.57735027
vn -0.57735027 -0.57735027 0.57735027
vn -0.57735027 0.57735027 -0.57735027
vn -0.57735027 0.57735027 0.57735027
vn 0.57735027 -0.57735027 -0.57735027
vn 0.57735027 -0.57735027 0.57735027
vn 0.57735027 0.57735027 -0.57735027
vn 0.57735027 0.57735027 0.57735027
vn -0.57735027 -0.57735027 -0.57735027
vn -0.57735027 -0.57735027 0.57735027
vn -0.57735027 0.57735027 -0.57735027
vn -0.57735027 0.57735027 0.57735027
vn 0.57735027 -0.57735027 -0.57735027
vn 0.57735027 -0.57735027 0.57735027
vn 0.57735027 0.57735027 -0.57735027
vn 0.57735027 0.57735027 0.57735027
vn -0.57735027 -0.57735027 -0.57735027
vn -0.57735027 -0.57735027 0.57735027
vn -0.57735027 0.57735027 -0.57735027
vn -0.57735027 0.57735027 0.57735027
vn 0.57735027 -0.57735027 -0.57735027
vn 0.57735027 -0.57735027 0.57735027
vn 0.57735027 0.57735027 -0.57735027
vn 0.57735027 0.57735027 0.57735027
vn -0.57735027 -0.57735027 -0.57735027
vn -0.57735027 -0.57735027 0.57735027
vn -0.57735027 0.57735027 -0.57735027
vn -0.57735027 0.57735027 0.57735027
vn 0.57735027 -0.57735027 -0.57735027
vn 0.57735027 -0.57735027 0.57735027
vn 0.57735027 0.57735027 -0.57735027
vn 0.57735027 0.57735027 0.57735027
vn -1.00000000 0.00000000 -0.00000000
vn -0.67353341 -0.00000000 -0.73915678
vn 0.67353341 0.00000000 -0.73915678
vn 1.00000000 0.00000000 0.00000000
vn -0.67353341 0.22841201 -0.70297987
vn 0.67353341 0.22841201 -0.70297987
vn -0.67353341 0.43446545 -0.59799039
vn 0.67353341 0.43446545 -0.59799039
vn -0.67353341 0.59799039 -0.43446545
vn 0.67353341 0.59799039 -0.43446545
vn -0.67353341 0.70297987 -0.22841201
vn 0.67353341 0.70297987 -0.22841201
vn -0.67353341 0.73915678 -0.00000000
vn 0.67353341 0.73915678 -0.00000000
vn -0.67353341 0.70297987 0.22841201
vn 0.67353341 0.70297987 0.22841201
vn -0.67353341 0.59799039 0.43446545
vn 0.67353341 0.59799039 0.43446545
vn -0.67353341 0.43446545 0.59799039
vn 0.67353341 0.43446545 0.59799039
vn -0.67353341 0.22841201 0.70297987
vn 0.67353341 0.22841201 0.70297987
vn -0.67353341 0.00000000 0.73915678
vn 0.67353341 -0.00000000 0.73915678
vn -0.67353341 -0.22841201 0.70297987
vn 0.67353341 -0.22841201 0.70297987
vn -0.67353341 -0.43446545 0.59799039
vn 0.67353341 -0.43446545 0.59799039
vn -0.67353341 -0.59799039 0.43446545
vn 0.67353341 -0.59799039 0.43446545
vn -0.67353341 -0.70297987 0.22841201
vn 0.67353341 -0.70297987 0.22841201
vn -0.67353341 -0.73915678 -0.00000000
vn 0.67353341 -0.73915678 0.00000000
vn -0.67353341 -0.70297987 -0.22841201
vn 0.67353341 -0.70297987 -0.22841201
vn -0.67353341 -0.59799039 -0.43446545
vn 0.67353341 -0.59799039 -0.43446545
vn -0.67353341 -0.43446545 -0.59799039
vn 0.67353341 -0.43446545 -0.59799039
vn -0.67353341 -0.22841201 -0.70297987
vn 0.67353341 -0.22841201 -0.70297987
vn -1.00000000 0.00000000 0.00000000
vn -0.66028325 0.00000000 -0.75101666
vn 0.66028325 0.00000000 -0.75101666
vn 1.00000000 0.00000000 0.00000000
vn -0.66028325 0.32585392 -0.67664263
vn 0.66028325 0.32585392 -0.67664263
vn -0.66028325 0.58716847 -0.46825123
vn 0.66028325 0.58716847 -0.46825123
vn -0.66028325 0.73218711 -0.16711693
vn 0.66028325 0.73218711 -0.16711693
vn -0.66028325 0.73218711 0.16711693
vn 0.66028325 0.73218711 0.16711693
vn -0.66028325 0.58716847 0.46825123
vn 0.66028325 0.58716847 0.46825123
vn -0.66028325 0.32585392 0.67664263
vn 0.66028325 0.32585392 0.67664263
vn -0.66028325 0.00000000 0.75101666
vn 0.66028325 0.00000000 0.75101666
vn -0.66028325 -0.32585392 0.67664263
vn 0.66028325 -0.32585392 0.67664263
vn -0.66028325 -0.58716847 0.46825123
vn 0.66028325 -0.58716847 0.46825123
vn -0.66028325 -0.73218711 0.16711693
vn 0.66028325 -0.73218711 0.16711693
vn -0.66028325 -0.73218711 -0.16711693
vn 0.66028325 -0.73218711 -0.16711693
vn -0.66028325 -0.58716847 -0.46825123
vn 0.66028325 -0.58716847 -0.46825123
vn -0.66028325 -0.32585392 -0.67664263
vn 0.66028325 -0.32585392 -0.67664263
vn -1.00000000 0.00000000 0.00000000
vn -0.67353341 -0.00000000 -0.73915678
vn 0.67353341 0.00000000 -0.73915678
vn 1.00000000 0.00000000 0.00000000
vn -0.67353341 0.22841201 -0.70297987
vn 0.67353341 0.22841201 -0.70297987
vn -0.67353341 0.43446545 -0.59799039
vn 0.67353341 0.43446545 -0.59799039
vn -0.67353341 0.59799039 -0.43446545
vn 0.67353341 0.59799039 -0.43446545
vn -0.67353341 0.70297987 -0.22841201
vn 0.67353341 0.70297987 -0.22841201
vn -0.67353341 0.73915678 0.00000000
vn 0.67353341 0.73915678 0.00000000
vn -0.67353341 0.70297987 0.22841201
vn 0.67353341 0.70297987 0.22841201
vn -0.67353341 0.59799039 0.43446545
vn 0.67353341 0.59799039 0.43446545
vn -0.67353341 0.43446545 0.59799039
vn 0.67353341 0.43446545 0.59799039
vn -0.67353341 0.22841201 0.70297987
vn 0.67353341 0.22841201 0.70297987
vn -0.67353341 -0.00000000 0.73915678
vn 0.67353341 0.00000000 0.73915678
vn -0.67353341 -0.22841201 0.70297987
vn 0.67353341 -0.22841201 0.70297987
vn -0.67353341 -0.43446545 0.59799039
vn 0.67353341 -0.43446545 0.59799039
vn -0.67353341 -0.59799039 0.43446545
vn 0.67353341 -0.59799039 0.43446545
vn -0.67353341 -0.70297987 0.22841201
vn 0.67353341 -0.70297987 0.22841201
vn -0.67353341 -0.73915678 0.00000000
vn 0.67353341 -0.73915678 0.00000000
vn -0.67353341 -0.70297987 -0.22841201
vn 0.67353341 -0.70297987 -0.22841201
vn -0.67353341 -0.59799039 -0.43446545
vn 0.67353341 -0.59799039 -0.43446545
vn -0.67353341 -0.43446545 -0.59799039
vn 0.67353341 -0.43446545 -0.59799039
vn -0.67353341 -0.22841201 -0.70297987
vn 0.67353341 -0.22841201 -0.70297987
vn -1.00000000 -0.00000000 -0.00000000
vn -0.66028325 0.00000000 -0.75101666
vn 0.66028325 0.00000000 -0.75101666
vn 1.00000000 0.00000000 0.00000000
vn -0.66028325 0.32585392 -0.67664263
vn 0.66028325 0.32585392 -0.67664263
vn -0.66028325 0.58716847 -0.46825123
vn 0.66028325 0.58716847 -0.46825123
vn -0.66028325 0.73218711 -0.16711693
vn 0.66028325 0.73218711 -0.16711693
vn -0.66028325 0.73218711 0.16711693
vn 0.66028325 0.73218711 0.16711693
vn -0.66028325 0.58716847 0.46825123
vn 0.66028325 0.58716847 0.46825123
vn -0.66028325 0.32585392 0.67664263
vn 0.66028325 0.32585392 0.67664263
vn -0.66028325 0.00000000 0.75101666
vn 0.66028325 0.00000000 0.75101666
vn -0.66028325 -0.32585392 0.67664263
vn 0.66028325 -0.32585392 0.67664263
vn -0.66028325 -0.58716847 0.46825123
vn 0.66028325 -0.58716847 0.46825123
vn -0.66028325 -0.73218711 0.16711693
vn 0.66028325 -0.73218711 0.16711693
vn -0.66028325 -0.73218711 -0.16711693
vn 0.66028325 -0.73218711 -0.16711693
vn -0.66028325 -0.58716847 -0.46825123
vn 0.66028325 -0.58716847 -0.46825123
vn -0.66028325 -0.32585392 -0.67664263
vn 0.66028325 -0.32585392 -0.67664263
vn -1.00000000 -0.00000000 -0.00000000
vn -0.67353341 -0.00000000 -0.73915678
vn 0.67353341 0.00000000 -0.73915678
vn 1.00000000 0.00000000 0.00000000
vn -0.67353341 0.22841201 -0.70297987
vn 0.67353341 0.22841201 -0.70297987
vn -0.67353341 0.43446545 -0.59799039
vn 0.67353341 0.43446545 -0.59799039
vn -0.67353341 0.59799039 -0.43446545
vn 0.67353341 0.59799039 -0.43446545
vn -0.67353341 0.70297987 -0.22841201
vn 0.67353341 0.70297987 -0.22841201
vn -0.67353341 0.73915678 -0.00000000
vn 0.67353341 0.73915678 0.00000000
vn -0.67353341 0.70297987 0.22841201
vn 0.67353341 0.70297987 0.22841201
vn -0.67353341 0.59799039 0.43446545
vn 0.67353341 0.59799039 0.43446545
vn -0.67353341 0.43446545 0.59799039
vn 0.67353341 0.43446545 0.59799039
vn -0.67353341 0.22841201 0.70297987
vn 0.67353341 0.22841201 0.70297987
vn -0.67353341 0.00000000 0.73915678
vn 0.67353341 0.00000000 0.73915678
vn -0.67353341 -0.22841201 0.70297987
vn 0.67353341 -0.22841201 0.70297987
vn -0.67353341 -0.43446545 0.59799039
vn 0.67353341 -0.43446545 0.59799039
vn -0.67353341 -0.59799039 0.43446545
vn 0.67353341 -0.59799039 0.43446545
vn -0.67353341 -0.70297987 0.22841201
vn 0.67353341 -0.70297987 0.22841201
vn -0.67353341 -0.73915678 -0.00000000
vn 0.67353341 -0.73915678 0.00000000
vn -0.67353341 -0.70297987 -0.22841201
vn 0.67353341 -0.70297987 -0.22841201
vn -0.67353341 -0.59799039 -0.43446545
vn 0.67353341 -0.59799039 -0.43446545
vn -0.67353341 -0.43446545 -0.59799039
vn 0.67353341 -0.43446545 -0.59799039
vn -0.67353341 -0.22841201 -0.70297987
vn 0.67353341 -0.22841201 -0.70297987
vn -1.00000000 0.00000000 0.00000000
vn -0.66028325 -0.00000000 -0.75101666
vn 0.66028325 -0.00000000 -0.75101666
vn 1.00000000 0.00000000 0.00000000
vn -0.66028325 0.32585392 -0.67664263
vn 0.66028325 0.32585392 -0.67664263
vn -0.66028325 0.58716847 -0.46825123
vn 0.66028325 0.58716847 -0.46825123
vn -0.66028325 0.73218711 -0.16711693
vn 0.66028325 0.73218711 -0.16711693
vn -0.66028325 0.73218711 0.16711693
vn 0.66028325 0.73218711 0.16711693
vn -0.66028325 0.58716847 0.46825123
vn 0.66028325 0.58716847 0.46825123
vn -0.66028325 0.32585392 0.67664263
vn 0.66028325 0.32585392 0.67664263
vn -0.66028325 0.00000000 0.75101666
vn 0.66028325 0.00000000 0.75101666
vn -0.66028325 -0.32585392 0.67664263
vn 0.66028325 -0.32585392 0.67664263
vn -0.66028325 -0.58716847 0.46825123
vn 0.66028325 -0.58716847 0.46825123
vn -0.66028325 -0.73218711 0.16711693
vn 0.66028325 -0.73218711 0.16711693
vn -0.66028325 -0.73218711 -0.16711693
vn 0.66028325 -0.73218711 -0.16711693
vn -0.66028325 -0.58716847 -0.46825123
vn 0.66028325 -0.58716847 -0.46825123
vn -0.66028325 -0.32585392 -0.67664263
vn 0.66028325 -0.32585392 -0.67664263
vn -1.00000000 0.00000000 0.00000000
vn -0.67353341 -0.00000000 -0.73915678
vn 0.67353341 0.00000000 -0.73915678
vn 1.00000000 0.00000000 0.00000000
vn -0.67353341 0.22841201 -0.70297987
vn 0.67353341 0.22841201 -0.70297987
vn -0.67353341 0.43446545 -0.59799039
vn 0.67353341 0.43446545 -0.59799039
vn -0.67353341 0.59799039 -0.43446545
vn 0.67353341 0.59799039 -0.43446545
vn -0.67353341 0.70297987 -0.22841201
vn 0.67353341 0.70297987 -0.22841201
vn -0.67353341 0.73915678 -0.00000000
vn 0.67353341 0.73915678 0.00000000
vn -0.67353341 0.70297987 0.22841201
vn 0.67353341 0.70297987 0.22841201
vn -0.67353341 0.59799039 0.43446545
vn 0.67353341 0.59799039 0.43446545
vn -0.67353341 0.43446545 0.59799039
vn 0.67353341 0.43446545 0.59799039
vn -0.67353341 0.22841201 0.70297987
vn 0.67353341 0.22841201 0.70297987
vn -0.67353341 0.00000000 0.73915678
vn 0.67353341 0.00000000 0.73915678
vn -0.67353341 -0.22841201 0.70297987
vn 0.67353341 -0.22841201 0.70297987
vn -0.67353341 -0.43446545 0.59799039
vn 0.67353341 -0.43446545 0.59799039
vn -0.67353341 -0.59799039 0.43446545
vn 0.67353341 -0.59799039 0.43446545
vn -0.67353341 -0.70297987 0.22841201
vn 0.67353341 -0.70297987 0.22841201
vn -0.67353341 -0.73915678 0.00000000
vn 0.67353341 -0.73915678 0.00000000
vn -0.67353341 -0.70297987 -0.22841201
vn 0.67353341 -0.70297987 -0.22841201
vn -0.67353341 -0.59799039 -0.43446545
vn 0.67353341 -0.59799039 -0.43446545
vn -0.67353341 -0.43446545 -0.59799039
vn 0.67353341 -0.43446545 -0.59799039
vn -0.67353341 -0.22841201 -0.70297987
vn 0.67353341 -0.22841201 -0.70297987
vn -1.00000000 -0.00000000 -0.00000000
vn -0.66028325 -0.00000000 -0.75101666
vn 0.66028325 -0.00000000 -0.75101666
vn 1.00000000 0.00000000 0.00000000
vn -0.66028325 0.32585392 -0.67664263
vn 0.66028325 0.32585392 -0.67664263
vn -0.66028325 0.58716847 -0.46825123
vn 0.66028325 0.58716847 -0.46825123
vn -0.66028325 0.73218711 -0.16711693
vn 0.66028325 0.73218711 -0.16711693
vn -0.66028325 0.73218711 0.16711693
vn 0.66028325 0.73218711 0.16711693
vn -0.66028325 0.58716847 0.46825123
vn 0.66028325 0.58716847 0.46825123
vn -0.66028325 0.32585392 0.67664263
vn 0.66028325 0.32585392 0.67664263
vn -0.66028325 0.00000000 0.75101666
vn 0.66028325 0.00000000 0.75101666
vn -0.66028325 -0.32585392 0.67664263
vn 0.66028325 -0.32585392 0.67664263
vn -0.66028325 -0.58716847 0.46825123
vn 0.66028325 -0.58716847 0.46825123
vn -0.66028325 -0.73218711 0.16711693
vn 0.66028325 -0.73218711 0.16711693
vn -0.66028325 -0.73218711 -0.16711693
vn 0.66028325 -0.73218711 -0.16711693
vn -0.66028325 -0.58716847 -0.46825123
vn 0.66028325 -0.58716847 -0.46825123
vn -0.66028325 -0.32585392 -0.67664263
vn 0.66028325 -0.32585392 -0.67664263
vn -1.00000000 -0.00000000 -0.00000000
vn -0.67353341 -0.00000000 -0.73915678
vn 0.67353341 0.00000000 -0.73915678
vn 1.00000000 0.00000000 0.00000000
vn -0.67353341 0.22841201 -0.70297987
vn 0.67353341 0.22841201 -0.70297987
vn -0.67353341 0.43446545 -0.59799039
vn 0.67353341 0.43446545 -0.59799039
vn -0.67353341 0.59799039 -0.43446545
vn 0.67353341 0.59799039 -0.43446545
vn -0.67353341 0.70297987 -0.22841201
vn 0.67353341 0.70297987 -0.22841201
vn -0.67353341 0.73915678 -0.00000000
vn 0.67353341 0.73915678 -0.00000000
vn -0.67353341 0.70297987 0.22841201
vn 0.67353341 0.70297987 0.22841201
vn -0.67353341 0.59799039 0.43446545
vn 0.67353341 0.59799039 0.43446545
vn -0.67353341 0.43446545 0.59799039
vn 0.67353341 0.43446545 0.59799039
vn -0.67353341 0.22841201 0.70297987
vn 0.67353341 0.22841201 0.70297987
vn -0.67353341 0.00000000 0.73915678
vn 0.67353341 0.00000000 0.73915678
vn -0.67353341 -0.22841201 0.70297987
vn 0.67353341 -0.22841201 0.70297987
vn -0.67353341 -0.43446545 0.59799039
vn 0.67353341 -0.43446545 0.59799039
vn -0.67353341 -0.59799039 0.43446545
vn 0.67353341 -0.59799039 0.43446545
vn -0.67353341 -0.70297987 0.22841201
vn 0.67353341 -0.70297987 0.22841201
vn -0.67353341 -0.73915678 -0.00000000
vn 0.67353341 -0.73915678 0.00000000
vn -0.67353341 -0.70297987 -0.22841201
vn 0.67353341 -0.70297987 -0.22841201
vn -0.67353341 -0.59799039 -0.43446545
vn 0.67353341 -0.59799039 -0.43446545
vn -0.67353341 -0.43446545 -0.59799039
vn 0.67353341 -0.43446545 -0.59799039
vn -0.67353341 -0.22841201 -0.70297987
vn 0.67353341 -0.22841201 -0.70297987
vn -1.00000000 0.00000000 0.00000000
vn -0.66028325 0.00000000 -0.75101666
vn 0.66028325 0.00000000 -0.75101666
vn 1.00000000 0.00000000 0.00000000
vn -0.66028325 0.32585392 -0.67664263
vn 0.66028325 0.32585392 -0.67664263
vn -0.66028325 0.58716847 -0.46825123
vn 0.66028325 0.58716847 -0.46825123
vn -0.66028325 0.73218711 -0.16711693
vn 0.66028325 0.73218711 -0.16711693
vn -0.66028325 0.73218711 0.16711693
vn 0.66028325 0.73218711 0.16711693
vn -0.66028325 0.58716847 0.46825123
vn 0.66028325 0.58716847 0.46825123
vn -0.66028325 0.32585392 0.67664263
vn 0.66028325 0.32585392 0.67664263
vn -0.66028325 0.00000000 0.75101666
vn 0.66028325 0.00000000 0.75101666
vn -0.66028325 -0.32585392 0.67664263
vn 0.66028325 -0.32585392 0.67664263
vn -0.66028325 -0.58716847 0.46825123
vn 0.66028325 -0.58716847 0.46825123
vn -0.66028325 -0.73218711 0.16711693
vn 0.66028325 -0.73218711 0.16711693
vn -0.66028325 -0.73218711 -0.16711693
vn 0.66028325 -0.73218711 -0.16711693
vn -0.66028325 -0.58716847 -0.46825123
vn 0.66028325 -0.58716847 -0.46825123
vn -0.66028325 -0.32585392 -0.67664263
vn 0.66028325 -0.32585392 -0.67664263
vn -1.00000000 0.00000000 0.00000000
vn -0.67353341 -0.00000000 -0.73915678
vn 0.67353341 0.00000000 -0.73915678
vn 1.00000000 0.00000000 0.00000000
vn -0.67353341 0.22841201 -0.70297987
vn 0.67353341 0.22841201 -0.70297987
vn -0.67353341 0.43446545 -0.59799039
vn 0.67353341 0.43446545 -0.59799039
vn -0.67353341 0.59799039 -0.43446545
vn 0.67353341 0.59799039 -0.43446545
vn -0.67353341 0.70297987 -0.22841201
vn 0.67353341 0.70297987 -0.22841201
vn -0.67353341 0.73915678 0.00000000
vn 0.67353341 0.73915678 0.00000000
vn -0.67353341 0.70297987 0.22841201
vn 0.67353341 0.70297987 0.22841201
vn -0.67353341 0.59799039 0.43446545
vn 0.67353341 0.59799039 0.43446545
vn -0.67353341 0.43446545 0.59799039
vn 0.67353341 0.43446545 0.59799039
vn -0.67353341 0.22841201 0.70297987
vn 0.67353341 0.22841201 0.70297987
vn -0.67353341 0.00000000 0.73915678
vn 0.67353341 0.00000000 0.73915678
vn -0.67353341 -0.22841201 0.70297987
vn 0.67353341 -0.22841201 0.70297987
vn -0.67353341 -0.43446545 0.59799039
vn 0.67353341 -0.43446545 0.59799039
vn -0.67353341 -0.59799039 0.43446545
vn 0.67353341 -0.59799039 0.43446545
vn -0.67353341 -0.70297987 0.22841201
vn 0.67353341 -0.70297987 0.22841201
vn -0.67353341 -0.73915678 0.00000000
vn 0.67353341 -0.73915678 0.00000000
vn -0.67353341 -0.70297987 -0.22841201
vn 0.67353341 -0.70297987 -0.22841201
vn -0.67353341 -0.59799039 -0.43446545
vn 0.67353341 -0.59799039 -0.43446545
vn -0.67353341 -0.43446545 -0.59799039
vn 0.67353341 -0.43446545 -0.59799039
vn -0.67353341 -0.22841201 -0.70297987
vn 0.67353341 -0.22841201 -0.70297987
vn -1.00000000 -0.00000000 -0.00000000
vn -0.66028325 0.00000000 -0.75101666
vn 0.66028325 0.00000000 -0.75101666
vn 1.00000000 0.00000000 0.00000000
vn -0.66028325 0.32585392 -0.67664263
vn 0.66028325 0.32585392 -0.67664263
vn -0.66028325 0.58716847 -0.46825123
vn 0.66028325 0.58716847 -0.46825123
vn -0.66028325 0.73218711 -0.16711693
vn 0.66028325 0.73218711 -0.16711693
vn -0.66028325 0.73218711 0.16711693
vn 0.66028325 0.73218711 0.16711693
vn -0.66028325 0.58716847 0.46825123
vn 0.66028325 0.58716847 0.46825123
vn -0.66028325 0.32585392 0.67664263
vn 0.66028325 0.32585392 0.67664263
vn -0.66028325 0.00000000 0.75101666
vn 0.66028325 0.00000000 0.75101666
vn -0.66028325 -0.32585392 0.67664263
vn 0.66028325 -0.32585392 0.67664263
vn -0.66028325 -0.58716847 0.46825123
vn 0.66028325 -0.58716847 0.46825123
vn -0.66028325 -0.73218711 0.16711693
vn 0.66028325 -0.73218711 0.16711693
vn -0.66028325 -0.73218711 -0.16711693
vn 0.66028325 -0.73218711 -0.16711693
vn -0.66028325 -0.58716847 -0.46825123
vn 0.66028325 -0.58716847 -0.46825123
vn -0.66028325 -0.32585392 -0.67664263
vn 0.66028325 -0.32585392 -0.67664263
f 2//2 4//4 1//1
f 5//5 2//2 1//1
f 1//1 4//4 3//3
f 3//3 5//5 1//1
f 2//2 8//8 4//4
f 6//6 2//2 5//5
f 6//6 8//8 2//2
f 4//4 8//8 3//3
f 7//7 5//5 3//3
f 3//3 8//8 7//7
f 7//7 6//6 5//5
f 8//8 6//6 7//7
f 10//10 12//12 9//9
f 13//13 10//10 9//9
f 9//9 12//12 11//11
f 11//11 13//13 9//9
f 10//10 16//16 12//12
f 14//14 10//10 13//13
f 14//14 16//16 10//10
f 12//12 16//16 11//11
f 15//15 13//13 11//11
f 11//11 16//16 15//15
f 15//15 14//14 13//13
f 16//16 14//14 15//15
f 18//18 20//20 17//17
f 21//21 18//18 17//17
f 17//17 20//20 19//19
f 19//19 21//21 17//17
f 18//18 24//24 20//20
f 22//22 18//18 21//21
f 22//22 24//24 18//18
f 20//20 24//24 19//19
f 23//23 21//21 19//19
f 19//19 24//24 23//23
f 23//23 22//22 21//21
f 24//24 22//22 23//23
f 26//26 28//28 25//25
f 29//29 26//26 25//25
f 25//25 28//28 27//27
f 27//27 29//29 25//25
f 26//26 32//32 28//28
f 30//30 26//26 29//29
f 30//30 32//32 26//26
f 28//28 32//32 27//27
f 31//31 29//29 27//27
f 27//27 32//32 31//31
f 31//31 30//30 29//29
f 32//32 30//30 31//31
f 34//34 36//36 33//33
f 37//37 34//34 33//33
f 33//33 36//36 35//35
f 35//35 37//37 33//33
f 34//34 40//40 36//36
f 38//38 34//34 37//37
f 38//38 40//40 34//34
f 36//36 40//40 35//35
f 39//39 37//37 35//35
f 35//35 40//40 39//39
f 39//39 38//38 37//37
f 40//40 38//38 39//39
f 42//42 44//44 41//41
f 45//45 42//42 41//41
f 41//41 44//44 43//43
f 43//43 45//45 41//41
f 42//42 48//48 44//44
f 46//46 42//42 45//45
f 46//46 48//48 42//42
f 44//44 48//48 43//43
f 47//47 45//45 43//43
f 43//43 48//48 47//47
f 47//47 46//46 45//45
f 48//48 46//46 47//47
f 50//50 52//52 49//49
f 53//53 50//50 49//49
f 49//49 52//52 51//51
f 51//51 53//53 49//49
f 50//50 56//56 52//52
f 54//54 50//50 53//53
f 54//54 56//56 50//50
f 52//52 56//56 51//51
f 55//55 53//53 51//51
f 51//51 56//56 55//55
f 55//55 54//54 53//53
f 56//56 54//54 55//55
f 58//58 57//57 61//61
f 58//58 61//61 59//59
f 59//59 61//61 62//62
f 59//59 62//62 60//60
f 61//61 57//57 63//63
f 61//61 63//63 62//62
f 62//62 63//63 64//64
f 62//62 64//64 60//60
f 63//63 57//57 65//65
f 63//63 65//65 64//64
f 64//64 65//65 66//66
f 64//64 66//66 60//60
f 65//65 57//57 67//67
f 65//65 67//67 66//66
f 66//66 67//67 68//68
f 66//66 68//68 60//60
f 67//67 57//57 69//69
f 67//67 69//69 68//68
f 68//68 69//69 70//70
f 68//68 70//70 60//60
f 69//69 57//57 71//71
f 69//69 71//71 70//70
f 70//70 71//71 72//72
f 70//70 72//72 60//60
f 71//71 57//57 73//73
f 71//71 73//73 72//72
f 72//72 73//73 74//74
f 72//72 74//74 60//60
f 73//73 57//57 75//75
f 73//73 75//75 74//74
f 74//74 75//75 76//76
f 74//74 76//76 60//60
f 75//75 57//57 77//77
f 75//75 77//77 76//76
f 76//76 77//77 78//78
f 76//76 78//78 60//60
f 77//77 57//57 79//79
f 77//77 79//79 78//78
f 78//78 79//79 80//80
f 78//78 80//80 60//60
f 79//79 57//57 81//81
f 79//79 81//81 80//80
f 80//80 81//81 82//82
f 80//80 82//82 60//60
f 81//81 57//57 83//83
f 81//81 83//83 82//82
f 82//82 83//83 84//84
f 82//82 84//84 60//60
f 83//83 57//57 85//85
f 83//83 85//85 84//84
f 84//84 85//85 86//86
f 84//84 86//86 60//60
f 85//85 57//57 87//87
f 85//85 87//87 86//86
f 86//86 87//87 88//88
f 86//86 88//88 60//60
f 87//87 57//57 89//89
f 87//87 89//89 88//88
f 88//88 89//89 90//90
f 88//88 90//90 60//60
f 89//89 57//57 91//91
f 89//89 91//91 90//90
f 90//90 91//91 92//92
f 90//90 92//92 60//60
f 91//91 57//57 93//93
f 91//91 93//93 92//92
f 92//92 93//93 94//94
f 92//92 94//94 60//60
f 93//93 57//57 95//95
f 93//93 95//95 94//94
f 94//94 95//95 96//96
f 94//94 96//96 60//60
f 95//95 57//57 97//97
f 95//95 97//97 96//96
f 96//96 97//97 98//98
f 96//96 98//98 60//60
f 97//97 57//57 58//58
f 97//97 58//58 98//98
f 98//98 58//58 59//59
f 98//98 59//59 60//60
f 100//100 99//99 103//103
f 100//100 103//103 101//101
f 101//101 103//103 104//104
f 101//101 104//104 102//102
f 103//103 99//99 105//105
f 103//103 105//105 104//104
f 104//104 105//105 106//106
f 104//104 106//106 102//102
f 105//105 99//99 107//107
f 105//105 107//107 106//106
f 106//106 107//107 108//108
f 106//106 108//108 102//102
f 107//107 99//99 109//109
f 107//107 109//109 108//108
f 108//108 109//109 110//110
f 108//108 110//110 102//102
f 109//109 99//99 111//111
f 109//109 111//111 110//110
f 110//110 111//111 112//112
f 110//110 112//112 102//102
f 111//111 99//99 113//113
f 111//111 113//113 112//112
f 112//112 113//113 114//114
f 112//112 114//114 102//102
f 113//113 99//99 115//115
f 113//113 115//115 114//114
f 114//114 115//115 116//116
f 114//114 116//116 102//102
f 115//115 99//99 117//117
f 115//115 117//117 116//116
f 116//116 117//117 118//118
f 116//116 118//118 102//102
f 117//117 99//99 119//119
f 117//117 119//119 118//118
f 118//118 119//119 120//120
f 118//118 120//120 102//102
f 119//119 99//99 121//121
f 119//119 121//121 120//120
f 120//120 121//121 122//122
f 120//120 122//122 102//102
f 121//121 99//99 123//123
f 121//121 123//123 122//122
f 122//122 123//123 124//124
f 122//122 124//124 102//102
f 123//123 99//99 125//125
f 123//123 125//125 124//124
f 124//124 125//125 126//126
f 124//124 126//126 102//102
f 125//125 99//99 127//127
f 125//125 127//127 126//126
f 126//126 127//127 128//128
f 126//126 128//128 102//102
f 127//127 99//99 100//100
f 127//127 100//100 128//128
f 128//128 100//100 101//101
f 128//128 101//101 102//102
f 130//130 129//129 133//133
f 130//130 133//133 131//131
f 131//131 133//133 134//134
f 131//131 134//134 132//132
f 133//133 129//129 135//135
f 133//133 135//135 134//134
f 134//134 135//135 136//136
f 134//134 136//136 132//132
f 135//135 129//129 137//137
f 135//135 137//137 136//136
f 136//136 137//137 138//138
f 136//136 138//138 132//132
f 137//137 129//129 139//139
f 137//137 139//139 138//138
f 138//138 139//139 140//140
f 138//138 140//140 132//132
f 139//139 129//129 141//141
f 139//139 141//141 140//140
f 140//140 141//141 142//142
f 140//140 142//142 132//132
f 141//141 129//129 143//143
f 141//141 143//143 142//142
f 142//142 143//143 144//144
f 142//142 144//144 132//132
f 143//143 129//129 145//145
f 143//143 145//145 144//144
f 144//144 145//145 146//146
f 144//144 146//146 132//132
f 145//145 129//129 147//147
f 145//145 147//147 146//146
f 146//146 147//147 148//148
f 146//146 148//148 132//132
f 147//147 129//129 149//149
f 147//147 149//149 148//148
f 148//148 149//149 150//150
f 148//148 150//150 132//132
f 149//149 129//129 151//151
f 149//149 151//151 150//150
f 150//150 151//151 152//152
f 150//150 152//152 132//132
f 151//151 129//129 153//153
f 151//151 153//153 152//152
f 152//152 153//153 154//154
f 152//152 154//154 132//132
f 153//153 129//129 155//155
f 153//153 155//155 154//154
f 154//154 155//155 156//156
f 154//154 156//156 132//132
f 155//155 129//129 157//157
f 155//155 157//157 156//156
f 156//156 157//157 158//158
f 156//156 158//158 132//132
f 157//157 129//129 159//159
f 157//157 159//159 158//158
f 158//158 159//159 160//160
f 158//158 160//160 132//132
f 159//159 129//129 161//161
f 159//159 161//161 160//160
f 160//160 161//161 162//162
f 160//160 162//162 132//132
f 161//161 129//129 163//163
f 161//161 163//163 162//162
f 162//162 163//163 164//164
f 162//162 164//164 132//132
f 163//163 129//129 165//165
f 163//163 165//165 164//164
f 164//164 165//165 166//166
f 164//164 166//166 132//132
f 165//165 129//129 167//167
f 165//165 167//167 166//166
f 166//166 167//167 168//168
f 166//166 168//168 132//132
f 167//167 129//129 169//169
f 167//167 169//169 168//168
f 168//168 169//169 170//170
f 168//168 170//170 132//132
f 169//169 129//129 130//130
f 169//169 130//130 170//170
f 170//170 130//130 131//131
f 170//170 131//131 132//132
f 172//172 171//171 175//175
f 172//172 175//175 173//173
f 173//173 175//175 176//176
f 173//173 176//176 174//174
f 175//175 171//171 177//177
f 175//175 177//177 176//176
f 176//176 177//177 178//178
f 176//176 178//178 174//174
f 177//177 171//171 179//179
f 177//177 179//179 178//178
f 178//178 179//179 180//180
f 178//178 180//180 174//174
f 179//179 171//171 181//181
f 179//179 181//181 180//180
f 180//180 181//181 182//182
f 180//180 182//182 174//174
f 181//181 171//171 183//183
f 181//181 183//183 182//182
f 182//182 183//183 184//184
f 182//182 184//184 174//174
f 183//183 171//171 185//185
f 183//183 185//185 184//184
f 184//184 185//185 186//186
f 184//184 186//186 174//174
f 185//185 171//171 187//187
f 185//185 187//187 186//186
f 186//186 187//187 188//188
f 186//186 188//188 174//174
f 187//187 171//171 189//189
f 187//187 189//189 188//188
f 188//188 189//189 190//190
f 188//188 190//190 174//174
f 189//189 171//171 191//191
f 189//189 191//191 190//190
f 190//190 191//191 192//192
f 190//190 192//192 174//174
f 191//191 171//171 193//193
f 191//191 193//193 192//192
f 192//192 193//193 194//194
f 192//192 194//194 174//174
f 193//193 171//171 195//195
f 193//193 195//195 194//194
f 194//194 195//195 196//196
f 194//194 196//196 174//174
f 195//195 171//171 197//197
f 195//195 197//197 196//196
f 196//196 197//197 198//198
f 196//196 198//198 174//174
f 197//197 171//171 199//199
f 197//197 199//199 198//198
f 198//198 199//199 200//200
f 198//198 200//200 174//174
f 199//199 171//171 172//172
f 199//199 172//172 200//200
f 200//200 172//172 173//173
f 200//200 173//173 174//174
f 202//202 201//201 205//205
f 202//202 205//205 203//203
f 203//203 205//205 206//206
f 203//203 206//206 204//204
f 205//205 201//201 207//207
f 205//205 207//207 206//206
f 206//206 207//207 208//208
f 206//206 208//208 204//204
f 207//207 201//201 209//209
f 207//207 209//209 208//208
f 208//208 209//209 210//210
f 208//208 210//210 204//204
f 209//209 201//201 211//211
f 209//209 211//211 210//210
f 210//210 211//211 212//212
f 210//210 212//212 204//204
f 211//211 201//201 213//213
f 211//211 213//213 212//212
f 212//212 213//213 214//214
f 212//212 214//214 204//204
f 213//213 201//201 215//215
f 213//213 215//215 214//214
f 214//214 215//215 216//216
f 214//214 216//216 204//204
f 215//215 201//201 217//217
f 215//215 217//217 216//216
f 216//216 217//217 218//218
f 216//216 218//218 204//204
f 217//217 201//201 219//219
f 217//217 219//219 218//218
f 218//218 219//219 220//220
f 218//218 220//220 204//204
f 219//219 201//201 221//221
f 219//219 221//221 220//220
f 220//220 221//221 222//222
f 220//220 222//222 204//204
f 221//221 201//201 223//223
f 221//221 223//223 222//222
f 222//222 223//223 224//224
f 222//222 224//224 204//204
f 223//223 201//201 225//225
f 223//223 225//225 224//224
f 224//224 225//225 226//226
f 224//224 226//226 204//204
f 225//225 201//201 227//227
f 225//225 227//227 226//226
f 226//226 227//227 228//228
f 226//226 228//228 204//204
f 227//227 201//201 229//229
f 227//227 229//229 228//228
f 228//228 229//229 230//230
f 228//228 230//230 204//204
f 229//229 201//201 231//231
f 229//229 231//231 230//230
f 230//230 231//231 232//232
f 230//230 232//232 204//204
f 231//231 201//201 233//233
f 231//231 233//233 232//232
f 232//232 233//233 234//234
f 232//232 234//234 204//204
f 233//233 201//201 235//235
f 233//233 235//235 234//234
f 234//234 235//235 236//236
f 234//234 236//236 204//204
f 235//235 201//201 237//237
f 235//235 237//237 236//236
f 236//236 237//237 238//238
f 236//236 238//238 204//204
f 237//237 201//201 239//239
f 237//237 239//239 238//238
f 238//238 239//239 240//240
f 238//238 240//240 204//204
f 239//239 201//201 241//241
f 239//239 241//241 240//240
f 240//240 241//241 242//242
f 240//240 242//242 204//204
f 241//241 201//201 202//202
f 241//241 202//202 242//242
f 242//242 202//202 203//203
f 242//242 203//203 204//204
f 244//244 243//243 247//247
f 244//244 247//247 245//245
f 245//245 247//247 248//248
f 245//245 248//248 246//246
f 247//247 243//243 249//249
f 247//247 249//249 248//248
f 248//248 249//249 250//250
f 248//248 250//250 246//246
f 249//249 243//243 251//251
f 249//249 251//251 250//250
f 250//250 251//251 252//252
f 250//250 252//252 246//246
f 251//251 243//243 253//253
f 251//251 253//253 252//252
f 252//252 253//253 254//254
f 252//252 254//254 246//246
f 253//253 243//243 255//255
f 253//253 255//255 254//254
f 254//254 255//255 256//256
f 254//254 256//256 246//246
f 255//255 243//243 257//257
f 255//255 257//257 256//256
f 256//256 257//257 258//258
f 256//256 258//258 246//246
f 257//257 243//243 259//259
f 257//257 259//259 258//258
f 258//258 259//259 260//260
f 258//258 260//260 246//246
f 259//259 243//243 261//261
f 259//259 261//261 260//260
f 260//260 261//261 262//262
f 260//260 262//262 246//246
f 261//261 243//243 263//263
f 261//261 263//263 262//262
f 262//262 263//263 264//264
f 262//262 264//264 246//246
f 263//263 243//243 265//265
f 263//263 265//265 264//264
f 264//264 265//265 266//266
f 264//264 266//266 246//246
f 265//265 243//243 267//267
f 265//265 267//267 266//266
f 266//266 267//267 268//268
f 266//266 268//268 246//246
f 267//267 243//243 269//269
f 267//267 269//269 268//268
f 268//268 269//269 270//270
f 268//268 270//270 246//246
f 269//269 243//243 271//271
f 269//269 271//271 270//270
f 270//270 271//271 272//272
f 270//270 272//272 246//246
f 271//271 243//243 244//244
f 271//271 244//244 272//272
f 272//272 244//244 245//245
f 272//272 245//245 246//246
f 274//274 273//273 277//277
f 274//274 277//277 275//275
f 275//275 277//277 278//278
f 275//275 278//278 276//276
f 277//277 273//273 279//279
f 277//277 279//279 278//278
f 278//278 279//279 280//280
f 278//278 280//280 276//276
f 279//279 273//273 281//281
f 279//279 281//281 280//280
f 280//280 281//281 282//282
f 280//280 282//282 276//276
f 281//281 273//273 283//283
f 281//281 283//283 282//282
f 282//282 283//283 284//284
f 282//282 284//284 276//276
f 283//283 273//273 285//285
f 283//283 285//285 284//284
f 284//284 285//285 286//286
f 284//284 286//286 276//276
f 285//285 273//273 287//287
f 285//285 287//287 286//286
f 286//286 287//287 288//288
f 286//286 288//288 276//276
f 287//287 273//273 289//289
f 287//287 289//289 288//288
f 288//288 289//289 290//290
f 288//288 290//290 276//276
f 289//289 273//273 291//291
f 289//289 291//291 290//290
f 290//290 291//291 292//292
f 290//290 292//292 276//276
f 291//291 273//273 293//293
f 291//291 293//293 292//292
f 292//292 293//293 294//294
f 292//292 294//294 276//276
f 293//293 273//273 295//295
f 293//293 295//295 294//294
f 294//294 295//295 296//296
f 294//294 296//296 276//276
f 295//295 273//273 297//297
f 295//295 297//297 296//296
f 296//296 297//297 298//298
f 296//296 298//298 276//276
f 297//297 273//273 299//299
f 297//297 299//299 298//298
f 298//298 299//299 300//300
f 298//298 300//300 276//276
f 299//299 273//273 301//301
f 299//299 301//301 300//300
f 300//300 301//301 302//302
f 300//300 302//302 276//276
f 301//301 273//273 303//303
f 301//301 303//303 302//302
f 302//302 303//303 304//304
f 302//302 304//304 276//276
f 303//303 273//273 305//305
f 303//303 305//305 304//304
f 304//304 305//305 306//306
f 304//304 306//306 276//276
f 305//305 273//273 307//307
f 305//305 307//307 306//306
f 306//306 307//307 308//308
f 306//306 308//308 276//276
f 307//307 273//273 309//309
f 307//307 309//309 308//308
f 308//308 309//309 310//310
f 308//308 310//310 276//276
f 309//309 273//273 311//311
f 309//309 311//311 310//310
f 310//310 311//311 312//312
f 310//310 312//312 276//276
f 311//311 273//273 313//313
f 311//311 313//313 312//312
f 312//312 313//313 314//314
f 312//312 314//314 276//276
f 313//313 273//273 274//274
f 313//313 274//274 314//314
f 314//314 274//274 275//275
f 314//314 275//275 276//276
f 316//316 315//315 319//319
f 316//316 319//319 317//317
f 317//317 319//319 320//320
f 317//317 320//320 318//318
f 319//319 315//315 321//321
f 319//319 321//321 320//320
f 320//320 321//321 322//322
f 320//320 322//322 318//318
f 321//321 315//315 323//323
f 321//321 323//323 322//322
f 322//322 323//323 324//324
f 322//322 324//324 318//318
f 323//323 315//315 325//325
f 323//323 325//325 324//324
f 324//324 325//325 326//326
f 324//324 326//326 318//318
f 325//325 315//315 327//327
f 325//325 327//327 326//326
f 326//326 327//327 328//328
f 326//326 328//328 318//318
f 327//327 315//315 329//329
f 327//327 329//329 328//328
f 328//328 329//329 330//330
f 328//328 330//330 318//318
f 329//329 315//315 331//331
f 329//329 331//331 330//330
f 330//330 331//331 332//332
f 330//330 332//332 318//318
f 331//331 315//315 333//333
f 331//331 333//333 332//332
f 332//332 333//333 334//334
f 332//332 334//334 318//318
f 333//333 315//315 335//335
f 333//333 335//335 334//334
f 334//334 335//335 336//336
f 334//334 336//336 318//318
f 335//335 315//315 337//337
f 335//335 337//337 336//336
f 336//336 337//337 338//338
f 336//336 338//338 318//318
f 337//337 315//315 339//339
f 337//337 339//339 338//338
f 338//338 339//339 340//340
f 338//338 340//340 318//318
f 339//339 315//315 341//341
f 339//339 341//341 340//340
f 340//340 341//341 342//342
f 340//340 342//342 318//318
f 341//341 315//315 343//343
f 341//341 343//343 342//342
f 342//342 343//343 344//344
f 342//342 344//344 318//318
f 343//343 315//315 316//316
f 343//343 316//316 344//344
f 344//344 316//316 317//317
f 344//344 317//317 318//318
f 346//346 345//345 349//349
f 346//346 349//349 347//347
f 347//347 349//349 350//350
f 347//347 350//350 348//348
f 349//349 345//345 351//351
f 349//349 351//351 350//350
f 350//350 351//351 352//352
f 350//350 352//352 348//348
f 351//351 345//345 353//353
f 351//351 353//353 352//352
f 352//352 353//353 354//354
f 352//352 354//354 348//348
f 353//353 345//345 355//355
f 353//353 355//355 354//354
f 354//354 355//355 356//356
f 354//354 356//356 348//348
f 355//355 345//345 357//357
f 355//355 357//357 356//356
f 356//356 357//357 358//358
f 356//356 358//358 348//348
f 357//357 345//345 359//359
f 357//357 359//359 358//358
f 358//358 359//359 360//360
f 358//358 360//360 348//348
f 359//359 345//345 361//361
f 359//359 361//361 360//360
f 360//360 361//361 362//362
f 360//360 362//362 348//348
f 361//361 345//345 363//363
f 361//361 363//363 362//362
f 362//362 363//363 364//364
f 362//362 364//364 348//348
f 363//363 345//345 365//365
f 363//363 365//365 364//364
f 364//364 365//365 366//366
f 364//364 366//366 348//348
f 365//365 345//345 367//367
f 365//365 367//367 366//366
f 366//366 367//367 368//368
f 366//366 368//368 348//348
f 367//367 345//345 369//369
f 367//367 369//369 368//368
f 368//368 369//369 370//370
f 368//368 370//370 348//348
f 369//369 345//345 371//371
f 369//369 371//371 370//370
f 370//370 371//371 372//372
f 370//370 372//372 348//348
f 371//371 345//345 373//373
f 371//371 373//373 372//372
f 372//372 373//373 374//374
f 372//372 374//374 348//348
f 373//373 345//345 375//375
f 373//373 375//375 374//374
f 374//374 375//375 376//376
f 374//374 376//376 348//348
f 375//375 345//345 377//377
f 375//375 377//377 376//376
f 376//376 377//377 378//378
f 376//376 378//378 348//348
f 377//377 345//345 379//379
f 377//377 379//379 378//378
f 378//378 379//379 380//380
f 378//378 380//380 348//348
f 379//379 345//345 381//381
f 379//379 381//381 380//380
f 380//380 381//381 382//382
f 380//380 382//382 348//348
f 381//381 345//345 383//383
f 381//381 383//383 382//382
f 382//382 383//383 384//384
f 382//382 384//384 348//348
f 383//383 345//345 385//385
f 383//383 385//385 384//384
f 384//384 385//385 386//386
f 384//384 386//386 348//348
f 385//385 345//345 346//346
f 385//385 346//346 386//386
f 386//386 346//346 347//347
f 386//386 347//347 348//348
f 388//388 387//387 391//391
f 388//388 391//391 389//389
f 389//389 391//391 392//392
f 389//389 392//392 390//390
f 391//391 387//387 393//393
f 391//391 393//393 392//392
f 392//392 393//393 394//394
f 392//392 394//394 390//390
f 393//393 387//387 395//395
f 393//393 395//395 394//394
f 394//394 395//395 396//396
f 394//394 396//396 390//390
f 395//395 387//387 397//397
f 395//395 397//397 396//396
f 396//396 397//397 398//398
f 396//396 398//398 390//390
f 397//397 387//387 399//399
f 397//397 399//399 398//398
f 398//398 399//399 400//400
f 398//398 400//400 390//390
f 399//399 387//387 401//401
f 399//399 401//401 400//400
f 400//400 401//401 402//402
f 400//400 402//402 390//390
f 401//401 387//387 403//403
f 401//401 403//403 402//402
f 402//402 403//403 404//404
f 402//402 404//404 390//390
f 403//403 387//387 405//405
f 403//403 405//405 404//404
f 404//404 405//405 406//406
f 404//404 406//406 390//390
f 405//405 387//387 407//407
f 405//405 407//407 406//406
f 406//406 407//407 408//408
f 406//406 408//408 390//390
f 407//407 387//387 409//409
f 407//407 409//409 408//408
f 408//408 409//409 410//410
f 408//408 410//410 390//390
f 409//409 387//387 411//411
f 409//409 411//411 410//410
f 410//410 411//411 412//412
f 410//410 412//412 390//390
f 411//411 387//387 413//413
f 411//411 413//413 412//412
f 412//412 413//413 414//414
f 412//412 414//414 390//390
f 413//413 387//387 415//415
f 413//413 415//415 414//414
f 414//414 415//415 416//416
f 414//414 416//416 390//390
f 415//415 387//387 388//388
f 415//415 388//388 416//416
f 416//416 388//388 389//389
f 416//416 389//389 390//390
f 418//418 417//417 421//421
f 418//418 421//421 419//419
f 419//419 421//421 422//422
f 419//419 422//422 420//420
f 421//421 417//417 423//423
f 421//421 423//423 422//422
f 422//422 423//423 424//424
f 422//422 424//424 420//420
f 423//423 417//417 425//425
f 423//423 425//425 424//424
f 424//424 425//425 426//426
f 424//424 426//426 420//420
f 425//425 417//417 427//427
f 425//425 427//427 426//426
f 426//426 427//427 428//428
f 426//426 428//428 420//420
f 427//427 417//417 429//429
f 427//427 429//429 428//428
f 428//428 429//429 430//430
f 428//428 430//430 420//420
f 429//429 417//417 431//431
f 429//429 431//431 430//430
f 430//430 431//431 432//432
f 430//430 432//432 420//420
f 431//431 417//417 433//433
f 431//431 433//433 432//432
f 432//432 433//433 434//434
f 432//432 434//434 420//420
f 433//433 417//417 435//435
f 433//433 435//435 434//434
f 434//434 435//435 436//436
f 434//434 436//436 420//420
f 435//435 417//417 437//437
f 435//435 437//437 436//436
f 436//436 437//437 438//438
f 436//436 438//438 420//420
f 437//437 417//417 439//439
f 437//437 439//439 438//438
f 438//438 439//439 440//440
f 438//438 440//440 420//420
f 439//439 417//417 441//441
f 439//439 441//441 440//440
f 440//440 441//441 442//442
f 440//440 442//442 420//420
f 441//441 417//417 443//443
f 441//441 443//443 442//442
f 442//442 443//443 444//444
f 442//442 444//444 420//420
f 443//443 417//417 445//445
f 443//443 445//445 444//444
f 444//444 445//445 446//446
f 444//444 446//446 420//420
f 445//445 417//417 447//447
f 445//445 447//447 446//446
f 446//446 447//447 448//448
f 446//446 448//448 420//420
f 447//447 417//417 449//449
f 447//447 449//449 448//448
f 448//448 449//449 450//450
f 448//448 450//450 420//420
f 449//449 417//417 451//451
f 449//449 451//451 450//450
f 450//450 451//451 452//452
f 450//450 452//452 420//420
f 451//451 417//417 453//453
f 451//451 453//453 452//452
f 452//452 453//453 454//454
f 452//452 454//454 420//420
f 453//453 417//417 455//455
f 453//453 455//455 454//454
f 454//454 455//455 456//456
f 454//454 456//456 420//420
f 455//455 417//417 457//457
f 455//455 457//457 456//456
f 456//456 457//457 458//458
f 456//456 458//458 420//420
f 457//457 417//417 418//418
f 457//457 418//418 458//458
f 458//458 418//418 419//419
f 458//458 419//419 420//420
f 460//460 459//459 463//463
f 460//460 463//463 461//461
f 461//461 463//463 464//464
f 461//461 464//464 462//462
f 463//463 459//459 465//465
f 463//463 465//465 464//464
f 464//464 465//465 466//466
f 464//464 466//466 462//462
f 465//465 459//459 467//467
f 465//465 467//467 466//466
f 466//466 467//467 468//468
f 466//466 468//468 462//462
f 467//467 459//459 469//469
f 467//467 469//469 468//468
f 468//468 469//469 470//470
f 468//468 470//470 462//462
f 469//469 459//459 471//471
f 469//469 471//471 470//470
f 470//470 471//471 472//472
f 470//470 472//472 462//462
f 471//471 459//459 473//473
f 471//471 473//473 472//472
f 472//472 473//473 474//474
f 472//472 474//474 462//462
f 473//473 459//459 475//475
f 473//473 475//475 474//474
f 474//474 475//475 476//476
f 474//474 476//476 462//462
f 475//475 459//459 477//477
f 475//475 477//477 476//476
f 476//476 477//477 478//478
f 476//476 478//478 462//462
f 477//477 459//459 479//479
f 477//477 479//479 478//478
f 478//478 479//479 480//480
f 478//478 480//480 462//462
f 479//479 459//459 481//481
f 479//479 481//481 480//480
f 480//480 481//481 482//482
f 480//480 482//482 462//462
f 481//481 459//459 483//483
f 481//481 483//483 482//482
f 482//482 483//483 484//484
f 482//482 484//484 462//462
f 483//483 459//459 485//485
f 483//483 485//485 484//484
f 484//484 485//485 486//486
f 484//484 486//486 462//462
f 485//485 459//459 487//487
f 485//485 487//487 486//486
f 486//486 487//487 488//488
f 486//486 488//488 462//462
f 487//487 459//459 460//460
f 487//487 460//460 488//488
f 488//488 460//460 461//461
f 488//488 461//461 462//462

