# https://github.com/mikedh/trimesh
v -0.07500000 -0.09000000 -0.68000000
v -0.07500000 -0.09000000 -0.08000000
v -0.07500000 0.09000000 -0.68000000
v -0.07500000 0.09000000 -0.08000000
v 0.07500000 -0.09000000 -0.68000000
v 0.07500000 -0.09000000 -0.08000000
v 0.07500000 0.09000000 -0.68000000
v 0.07500000 0.09000000 -0.08000000
v -0.06000000 -0.07000000 -1.34500000
v -0.06000000 -0.07000000 -0.61500000
v -0.06000000 0.07000000 -1.34500000
v -0.06000000 0.07000000 -0.61500000
v 0.06000000 -0.07000000 -1.34500000
v 0.06000000 -0.07000000 -0.61500000
v 0.06000000 0.07000000 -1.34500000
v 0.06000000 0.07000000 -0.61500000
v 0.00000000 0.52500000 -1.62000000
v 0.03000000 0.52500000 -1.62000000
v 0.03000000 -0.52500000 -1.62000000
v 0.00000000 -0.52500000 -1.62000000
v 0.02598076 0.52500000 -1.60500000
v 0.02598076 -0.52500000 -1.60500000
v 0.01500000 0.52500000 -1.59401924
v 0.01500000 -0.52500000 -1.59401924
v 0.00000000 0.52500000 -1.59000000
v 0.00000000 -0.52500000 -1.59000000
v -0.01500000 0.52500000 -1.59401924
v -0.01500000 -0.52500000 -1.59401924
v -0.02598076 0.52500000 -1.60500000
v -0.02598076 -0.52500000 -1.60500000
v -0.03000000 0.52500000 -1.62000000
v -0.03000000 -0.52500000 -1.62000000
v -0.02598076 0.52500000 -1.63500000
v -0.02598076 -0.52500000 -1.63500000
v -0.01500000 0.52500000 -1.64598076
v -0.01500000 -0.52500000 -1.64598076
v -0.00000000 0.52500000 -1.65000000
v -0.00000000 -0.52500000 -1.65000000
v 0.01500000 0.52500000 -1.64598076
v 0.01500000 -0.52500000 -1.64598076
v 0.02598076 0.52500000 -1.63500000
v 0.02598076 -0.52500000 -1.63500000
v -0.04000000 0.05500000 -1.04500000
v -0.04000000 0.05500000 -0.39500000
v -0.04000000 0.16500000 -1.04500000
v -0.04000000 0.16500000 -0.39500000
v 0.04000000 0.05500000 -1.04500000
v 0.04000000 0.05500000 -0.39500000
v 0.04000000 0.16500000 -1.04500000
v 0.04000000 0.16500000 -0.39500000
v 0.00000000 0.42000000 -0.54000000
v 0.06200000 0.42000000 -0.54000000
v 0.06200000 -0.04000000 -0.54000000
v 0.00000000 -0.04000000 -0.54000000
v 0.05586007 0.42000000 -0.51309921
v 0.05586007 -0.04000000 -0.51309921
v 0.03865637 0.42000000 -0.49152645
v 0.03865637 -0.04000000 -0.49152645
v 0.01379630 0.42000000 -0.47955447
v 0.01379630 -0.04000000 -0.47955447
v -0.01379630 0.42000000 -0.47955447
v -0.01379630 -0.04000000 -0.47955447
v -0.03865637 0.42000000 -0.49152645
v -0.03865637 -0.04000000 -0.49152645
v -0.05586007 0.42000000 -0.51309921
v -0.05586007 -0.04000000 -0.51309921
v -0.06200000 0.42000000 -0.54000000
v -0.06200000 -0.04000000 -0.54000000
v -0.05586007 0.42000000 -0.56690079
v -0.05586007 -0.04000000 -0.56690079
v -0.03865637 0.42000000 -0.58847355
v -0.03865637 -0.04000000 -0.58847355
v -0.01379630 0.42000000 -0.60044553
v -0.01379630 -0.04000000 -0.60044553
v 0.01379630 0.42000000 -0.60044553
v 0.01379630 -0.04000000 -0.60044553
v 0.03865637 0.42000000 -0.58847355
v 0.03865637 -0.04000000 -0.58847355
v 0.05586007 0.42000000 -0.56690079
v 0.05586007 -0.04000000 -0.56690079
v -0.06000000 -0.36524063 -0.49472524
v -0.06000000 -0.35326062 -0.37532474
v -0.06000000 -0.06673938 -0.52467526
v -0.06000000 -0.05475937 -0.40527476
v 0.06000000 -0.36524063 -0.49472524
v 0.06000000 -0.35326062 -0.37532474
v 0.06000000 -0.06673938 -0.52467526
v 0.06000000 -0.05475937 -0.40527476
v -0.09000000 -0.05000000 -0.23000000
v -0.09000000 -0.05000000 0.11000000
v -0.09000000 0.05000000 -0.23000000
v -0.09000000 0.05000000 0.11000000
v 0.09000000 -0.05000000 -0.23000000
v 0.09000000 -0.05000000 0.11000000
v 0.09000000 0.05000000 -0.23000000
v 0.09000000 0.05000000 0.11000000
v -0.13000000 0.08250000 -0.21000000
v -0.13000000 0.08250000 -0.15000000
v -0.13000000 0.11750000 -0.21000000
v -0.13000000 0.11750000 -0.15000000
v 0.13000000 0.08250000 -0.21000000
v 0.13000000 0.08250000 -0.15000000
v 0.13000000 0.11750000 -0.21000000
v 0.13000000 0.11750000 -0.15000000
vn -0.57735027 -0.57735027 -0.57735027
vn -0.57735027 -0.57735027 0.57735027
vn -0.57735027 0.57735027 -0.57735027
vn -0.57735027 0.57735027 0.57735027
vn 0.57735027 -0.57735027 -0.57735027
vn 0.57735027 -0.57735027 0.57735027
vn 0.57735027 0.57735027 -0.57735027
vn 0.57735027 0.57735027 0.57735027
vn -0.57735027 -0.57735027 -0.57735027
vn -0.57735027 -0.57735027 0.57735027
vn -0.57735027 0.57735027 -0.57735027
vn -0.57735027 0.57735027 0.57735027
vn 0.57735027 -0.57735027 -0.57735027
vn 0.57735027 -0.57735027 0.57735027
vn 0.57735027 0.57735027 -0.57735027
vn 0.57735027 0.57735027 0.57735027
vn 0.00000000 1.00000000 0.00000000
vn 0.75716233 0.65322677 0.00000000
vn 0.75716233 -0.65322677 -0.00000000
vn 0.00000000 -1.00000000 0.00000000
vn 0.65572181 0.65322677 0.37858116
vn 0.65572181 -0.65322677 0.37858116
vn 0.37858116 0.65322677 0.65572181
vn 0.37858116 -0.65322677 0.65572181
vn -0.00000000 0.65322677 0.75716233
vn 0.00000000 -0.65322677 0.75716233
vn -0.37858116 0.65322677 0.65572181
vn -0.37858116 -0.65322677 0.65572181
vn -0.65572181 0.65322677 0.37858116
vn -0.65572181 -0.65322677 0.37858116
vn -0.75716233 0.65322677 0.00000000
vn -0.75716233 -0.65322677 -0.00000000
vn -0.65572181 0.65322677 -0.37858116
vn -0.65572181 -0.65322677 -0.37858116
vn -0.37858116 0.65322677 -0.65572181
vn -0.37858116 -0.65322677 -0.65572181
vn 0.00000000 0.65322677 -0.75716233
vn -0.00000000 -0.65322677 -0.75716233
vn 0.37858116 0.65322677 -0.65572181
vn 0.37858116 -0.65322677 -0.65572181
vn 0.65572181 0.65322677 -0.37858116
vn 0.65572181 -0.65322677 -0.37858116
vn -0.57735027 -0.57735027 -0.57735027
vn -0.57735027 -0.57735027 0.57735027
vn -0.57735027 0.57735027 -0.57735027
vn -0.57735027 0.57735027 0.57735027
vn 0.57735027 -0.57735027 -0.57735027
vn 0.57735027 -0.57735027 0.57735027
vn 0.57735027 0.57735027 -0.57735027
vn 0.57735027 0.57735027 0.57735027
vn 0.00000000 1.00000000 0.00000000
vn 0.75101666 0.66028325 -0.00000000
vn 0.75101666 -0.66028325 0.00000000
vn 0.00000000 -1.00000000 0.00000000
vn 0.67664263 0.66028325 0.32585392
vn 0.67664263 -0.66028325 0.32585392
vn 0.46825123 0.66028325 0.58716847
vn 0.46825123 -0.66028325 0.58716847
vn 0.16711693 0.66028325 0.73218711
vn 0.16711693 -0.66028325 0.73218711
vn -0.16711693 0.66028325 0.73218711
vn -0.16711693 -0.66028325 0.73218711
vn -0.46825123 0.66028325 0.58716847
vn -0.46825123 -0.66028325 0.58716847
vn -0.67664263 0.66028325 0.32585392
vn -0.67664263 -0.66028325 0.32585392
vn -0.75101666 0.66028325 0.00000000
vn -0.75101666 -0.66028325 -0.00000000
vn -0.67664263 0.66028325 -0.32585392
vn -0.67664263 -0.66028325 -0.32585392
vn -0.46825123 0.66028325 -0.58716847
vn -0.46825123 -0.66028325 -0.58716847
vn -0.16711693 0.66028325 -0.73218711
vn -0.16711693 -0.66028325 -0.73218711
vn 0.16711693 0.66028325 -0.73218711
vn 0.16711693 -0.66028325 -0.73218711
vn 0.46825123 0.66028325 -0.58716847
vn 0.46825123 -0.66028325 -0.58716847
vn 0.67664263 0.66028325 -0.32585392
vn 0.67664263 -0.66028325 -0.32585392
vn -0.57735027 -0.63210477 -0.51682707
vn -0.57735027 -0.51682707 0.63210477
vn -0.57735027 0.51682707 -0.63210477
vn -0.57735027 0.63210477 0.51682707
vn 0.57735027 -0.63210477 -0.51682707
vn 0.57735027 -0.51682707 0.63210477
vn 0.57735027 0.51682707 -0.63210477
vn 0.57735027 0.63210477 0.51682707
vn -0.57735027 -0.57735027 -0.57735027
vn -0.57735027 -0.57735027 0.57735027
vn -0.57735027 0.57735027 -0.57735027
vn -0.57735027 0.57735027 0.57735027
vn 0.57735027 -0.57735027 -0.57735027
vn 0.57735027 -0.57735027 0.57735027
vn 0.57735027 0.57735027 -0.57735027
vn 0.57735027 0.57735027 0.57735027
vn -0.57735027 -0.57735027 -0.57735027
vn -0.57735027 -0.57735027 0.57735027
vn -0.57735027 0.57735027 -0.57735027
vn -0.57735027 0.57735027 0.57735027
vn 0.57735027 -0.57735027 -0.57735027
vn 0.57735027 -0.57735027 0.57735027
vn 0.57735027 0.57735027 -0.57735027
vn 0.57735027 0.57735027 0.57735027
f 2//2 4//4 1//1
f 5//5 2//2 1//1
f 1//1 4//4 3//3
f 3//3 5//5 1//1
f 2//2 8//8 4//4
f 6//6 2//2 5//5
f 6//6 8//8 2//2
f 4//4 8//8 3//3
f 7//7 5//5 3//3
f 3//3 8//8 7//7
f 7//7 6//6 5//5
f 8//8 6//6 7//7
f 10//10 12//12 9//9
f 13//13 10//10 9//9
f 9//9 12//12 11//11
f 11//11 13//13 9//9
f 10//10 16//16 12//12
f 14//14 10//10 13//13
f 14//14 16//16 10//10
f 12//12 16//16 11//11
f 15//15 13//13 11//11
f 11//11 16//16 15//15
f 15//15 14//14 13//13
f 16//16 14//14 15//15
f 18//18 17//17 21//21
f 18//18 21//21 19//19
f 19//19 21//21 22//22
f 19//19 22//22 20//20
f 21//21 17//17 23//23
f 21//21 23//23 22//22
f 22//22 23//23 24//24
f 22//22 24//24 20//20
f 23//23 17//17 25//25
f 23//23 25//25 24//24
f 24//24 25//25 26//26
f 24//24 26//26 20//20
f 25//25 17//17 27//27
f 25//25 27//27 26//26
f 26//26 27//27 28//28
f 26//26 28//28 20//20
f 27//27 17//17 29//29
f 27//27 29//29 28//28
f 28//28 29//29 30//30
f 28//28 30//30 20//20
f 29//29 17//17 31//31
f 29//29 31//31 30//30
f 30//30 31//31 32//32
f 30//30 32//32 20//20
f 31//31 17//17 33//33
f 31//31 33//33 32//32
f 32//32 33//33 34//34
f 32//32 34//34 20//20
f 33//33 17//17 35//35
f 33//33 35//35 34//34
f 34//34 35//35 36//36
f 34//34 36//36 20//20
f 35//35 17//17 37//37
f 35//35 37//37 36//36
f 36//36 37//37 38//38
f 36//36 38//38 20//20
f 37//37 17//17 39//39
f 37//37 39//39 38//38
f 38//38 39//39 40//40
f 38//38 40//40 20//20
f 39//39 17//17 41//41
f 39//39 41//41 40//40
f 40//40 41//41 42//42
f 40//40 42//42 20//20
f 41//41 17//17 18//18
f 41//41 18//18 42//42
f 42//42 18//18 19//19
f 42//42 19//19 20//20
f 44//44 46//46 43//43
f 47//47 44//44 43//43
f 43//43 46//46 45//45
f 45//45 47//47 43//43
f 44//44 50//50 46//46
f 48//48 44//44 47//47
f 48//48 50//50 44//44
f 46//46 50//50 45//45
f 49//49 47//47 45//45
f 45//45 50//50 49//49
f 49//49 48//48 47//47
f 50//50 48//48 49//49
f 52//52 51//51 55//55
f 52//52 55//55 53//53
f 53//53 55//55 56//56
f 53//53 56//56 54//54
f 55//55 51//51 57//57
f 55//55 57//57 56//56
f 56//56 57//57 58//58
f 56//56 58//58 54//54
f 57//57 51//51 59//59
f 57//57 59//59 58//58
f 58//58 59//59 60//60
f 58//58 60//60 54//54
f 59//59 51//51 61//61
f 59//59 61//61 60//60
f 60//60 61//61 62//62
f 60//60 62//62 54//54
f 61//61 51//51 63//63
f 61//61 63//63 62//62
f 62//62 63//63 64//64
f 62//62 64//64 54//54
f 63//63 51//51 65//65
f 63//63 65//65 64//64
f 64//64 65//65 66//66
f 64//64 66//66 54//54
f 65//65 51//51 67//67
f 65//65 67//67 66//66
f 66//66 67//67 68//68
f 66//66 68//68 54//54
f 67//67 51//51 69//69
f 67//67 69//69 68//68
f 68//68 69//69 70//70
f 68//68 70//70 54//54
f 69//69 51//51 71//71
f 69//69 71//71 70//70
f 70//70 71//71 72//72
f 70//70 72//72 54//54
f 71//71 51//51 73//73
f 71//71 73//73 72//72
f 72//72 73//73 74//74
f 72//72 74//74 54//54
f 73//73 51//51 75//75
f 73//73 75//75 74//74
f 74//74 75//75 76//76
f 74//74 76//76 54//54
f 75//75 51//51 77//77
f 75//75 77//77 76//76
f 76//76 77//77 78//78
f 76//76 78//78 54//54
f 77//77 51//51 79//79
f 77//77 79//79 78//78
f 78//78 79//79 80//80
f 78//78 80//80 54//54
f 79//79 51//51 52//52
f 79//79 52//52 80//80
f 80//80 52//52 53//53
f 80//80 53//53 54//54
f 82//82 84//84 81//81
f 85//85 82//82 81//81
f 81//81 84//84 83//83
f 83//83 85//85 81//81
f 82//82 88//88 84//84
f 86//86 82//82 85//85
f 86//86 88//88 82//82
f 84//84 88//88 83//83
f 87//87 85//85 83//83
f 83//83 88//88 87//87
f 87//87 86//86 85//85
f 88//88 86//86 87//87
f 90//90 92//92 89//89
f 93//93 90//90 89//89
f 89//89 92//92 91//91
f 91//91 93//93 89//89
f 90//90 96//96 92//92
f 94//94 90//90 93//93
f 94//94 96//96 90//90
f 92//92 96//96 91//91
f 95//95 93//93 91//91
f 91//91 96//96 95//95
f 95//95 94//94 93//93
f 96//96 94//94 95//95
f 98//98 100//100 97//97
f 101//101 98//98 97//97
f 97//97 100//100 99//99
f 99//99 101//101 97//97
f 98//98 104//104 100//100
f 102//102 98//98 101//101
f 102//102 104//104 98//98
f 100//100 104//104 99//99
f 103//103 101//101 99//99
f 99//99 104//104 103//103
f 103//103 102//102 101//101
f 104//104 102//102 103//103

