# https://github.com/mikedh/trimesh
v 0.00000000 1.10000000 -0.77500000
v 0.78000000 1.10000000 -0.77500000
v 0.78000000 1.10000000 0.77500000
v 0.00000000 1.10000000 0.77500000
v 0.75342214 1.30187886 -0.77500000
v 0.75342214 1.30187886 0.77500000
v 0.67549981 1.49000000 -0.77500000
v 0.67549981 1.49000000 0.77500000
v 0.55154329 1.65154329 -0.77500000
v 0.55154329 1.65154329 0.77500000
v 0.39000000 1.77549981 -0.77500000
v 0.39000000 1.77549981 0.77500000
v 0.20187886 1.85342214 -0.77500000
v 0.20187886 1.85342214 0.77500000
v 0.00000000 1.88000000 -0.77500000
v 0.00000000 1.88000000 0.77500000
v -0.20187886 1.85342214 -0.77500000
v -0.20187886 1.85342214 0.77500000
v -0.39000000 1.77549981 -0.77500000
v -0.39000000 1.77549981 0.77500000
v -0.55154329 1.65154329 -0.77500000
v -0.55154329 1.65154329 0.77500000
v -0.67549981 1.49000000 -0.77500000
v -0.67549981 1.49000000 0.77500000
v -0.75342214 1.30187886 -0.77500000
v -0.75342214 1.30187886 0.77500000
v -0.78000000 1.10000000 -0.77500000
v -0.78000000 1.10000000 0.77500000
v -0.75342214 0.89812114 -0.77500000
v -0.75342214 0.89812114 0.77500000
v -0.67549981 0.71000000 -0.77500000
v -0.67549981 0.71000000 0.77500000
v -0.55154329 0.54845671 -0.77500000
v -0.55154329 0.54845671 0.77500000
v -0.39000000 0.42450019 -0.77500000
v -0.39000000 0.42450019 0.77500000
v -0.20187886 0.34657786 -0.77500000
v -0.20187886 0.34657786 0.77500000
v -0.00000000 0.32000000 -0.77500000
v -0.00000000 0.32000000 0.77500000
v 0.20187886 0.34657786 -0.77500000
v 0.20187886 0.34657786 0.77500000
v 0.39000000 0.42450019 -0.77500000
v 0.39000000 0.42450019 0.77500000
v 0.55154329 0.54845671 -0.77500000
v 0.55154329 0.54845671 0.77500000
v 0.67549981 0.71000000 -0.77500000
v 0.67549981 0.71000000 0.77500000
v 0.75342214 0.89812114 -0.77500000
v 0.75342214 0.89812114 0.77500000
v 0.00000000 1.90000000 -0.05000000
v 0.80000000 1.90000000 -0.05000000
v 0.80000000 1.90000000 0.05000000
v 0.00000000 1.90000000 0.05000000
v 0.77274066 2.10705524 -0.05000000
v 0.77274066 2.10705524 0.05000000
v 0.69282032 2.30000000 -0.05000000
v 0.69282032 2.30000000 0.05000000
v 0.56568542 2.46568542 -0.05000000
v 0.56568542 2.46568542 0.05000000
v 0.40000000 2.59282032 -0.05000000
v 0.40000000 2.59282032 0.05000000
v 0.20705524 2.67274066 -0.05000000
v 0.20705524 2.67274066 0.05000000
v 0.00000000 2.70000000 -0.05000000
v 0.00000000 2.70000000 0.05000000
v -0.20705524 2.67274066 -0.05000000
v -0.20705524 2.67274066 0.05000000
v -0.40000000 2.59282032 -0.05000000
v -0.40000000 2.59282032 0.05000000
v -0.56568542 2.46568542 -0.05000000
v -0.56568542 2.46568542 0.05000000
v -0.69282032 2.30000000 -0.05000000
v -0.69282032 2.30000000 0.05000000
v -0.77274066 2.10705524 -0.05000000
v -0.77274066 2.10705524 0.05000000
v -0.80000000 1.90000000 -0.05000000
v -0.80000000 1.90000000 0.05000000
v -0.77274066 1.69294476 -0.05000000
v -0.77274066 1.69294476 0.05000000
v -0.69282032 1.50000000 -0.05000000
v -0.69282032 1.50000000 0.05000000
v -0.56568542 1.33431458 -0.05000000
v -0.56568542 1.33431458 0.05000000
v -0.40000000 1.20717968 -0.05000000
v -0.40000000 1.20717968 0.05000000
v -0.20705524 1.12725934 -0.05000000
v -0.20705524 1.12725934 0.05000000
v -0.00000000 1.10000000 -0.05000000
v -0.00000000 1.10000000 0.05000000
v 0.20705524 1.12725934 -0.05000000
v 0.20705524 1.12725934 0.05000000
v 0.40000000 1.20717968 -0.05000000
v 0.40000000 1.20717968 0.05000000
v 0.56568542 1.33431458 -0.05000000
v 0.56568542 1.33431458 0.05000000
v 0.69282032 1.50000000 -0.05000000
v 0.69282032 1.50000000 0.05000000
v 0.77274066 1.69294476 -0.05000000
v 0.77274066 1.69294476 0.05000000
v 0.00000000 2.03000000 -0.11000000
v 0.16000000 2.03000000 -0.11000000
v 0.16000000 2.03000000 0.11000000
v 0.00000000 2.03000000 0.11000000
v 0.13856406 2.11000000 -0.11000000
v 0.13856406 2.11000000 0.11000000
v 0.08000000 2.16856406 -0.11000000
v 0.08000000 2.16856406 0.11000000
v 0.00000000 2.19000000 -0.11000000
v 0.00000000 2.19000000 0.11000000
v -0.08000000 2.16856406 -0.11000000
v -0.08000000 2.16856406 0.11000000
v -0.13856406 2.11000000 -0.11000000
v -0.13856406 2.11000000 0.11000000
v -0.16000000 2.03000000 -0.11000000
v -0.16000000 2.03000000 0.11000000
v -0.13856406 1.95000000 -0.11000000
v -0.13856406 1.95000000 0.11000000
v -0.08000000 1.89143594 -0.11000000
v -0.08000000 1.89143594 0.11000000
v -0.00000000 1.87000000 -0.11000000
v -0.00000000 1.87000000 0.11000000
v 0.08000000 1.89143594 -0.11000000
v 0.08000000 1.89143594 0.11000000
v 0.13856406 1.95000000 -0.11000000
v 0.13856406 1.95000000 0.11000000
v 0.63000000 0.52000000 -0.60000000
v 0.68500000 0.52000000 -0.60000000
v 0.68500000 0.52000000 0.60000000
v 0.63000000 0.52000000 0.60000000
v 0.67449593 0.55232819 -0.60000000
v 0.67449593 0.55232819 0.60000000
v 0.64699593 0.57230811 -0.60000000
v 0.64699593 0.57230811 0.60000000
v 0.61300407 0.57230811 -0.60000000
v 0.61300407 0.57230811 0.60000000
v 0.58550407 0.55232819 -0.60000000
v 0.58550407 0.55232819 0.60000000
v 0.57500000 0.52000000 -0.60000000
v 0.57500000 0.52000000 0.60000000
v 0.58550407 0.48767181 -0.60000000
v 0.58550407 0.48767181 0.60000000
v 0.61300407 0.46769189 -0.60000000
v 0.61300407 0.46769189 0.60000000
v 0.64699593 0.46769189 -0.60000000
v 0.64699593 0.46769189 0.60000000
v 0.67449593 0.48767181 -0.60000000
v 0.67449593 0.48767181 0.60000000
v 0.00000000 0.52000000 0.03000000
v 0.05500000 0.52000000 0.03000000
v 0.05500000 0.52000000 1.23000000
v 0.00000000 0.52000000 1.23000000
v 0.04449593 0.55232819 0.03000000
v 0.04449593 0.55232819 1.23000000
v 0.01699593 0.57230811 0.03000000
v 0.01699593 0.57230811 1.23000000
v -0.01699593 0.57230811 0.03000000
v -0.01699593 0.57230811 1.23000000
v -0.04449593 0.55232819 0.03000000
v -0.04449593 0.55232819 1.23000000
v -0.05500000 0.52000000 0.03000000
v -0.05500000 0.52000000 1.23000000
v -0.04449593 0.48767181 0.03000000
v -0.04449593 0.48767181 1.23000000
v -0.01699593 0.46769189 0.03000000
v -0.01699593 0.46769189 1.23000000
v 0.01699593 0.46769189 0.03000000
v 0.01699593 0.46769189 1.23000000
v 0.04449593 0.48767181 0.03000000
v 0.04449593 0.48767181 1.23000000
v -0.63000000 0.52000000 -0.60000000
v -0.57500000 0.52000000 -0.60000000
v -0.57500000 0.52000000 0.60000000
v -0.63000000 0.52000000 0.60000000
v -0.58550407 0.55232819 -0.60000000
v -0.58550407 0.55232819 0.60000000
v -0.61300407 0.57230811 -0.60000000
v -0.61300407 0.57230811 0.60000000
v -0.64699593 0.57230811 -0.60000000
v -0.64699593 0.57230811 0.60000000
v -0.67449593 0.55232819 -0.60000000
v -0.67449593 0.55232819 0.60000000
v -0.68500000 0.52000000 -0.60000000
v -0.68500000 0.52000000 0.60000000
v -0.67449593 0.48767181 -0.60000000
v -0.67449593 0.48767181 0.60000000
v -0.64699593 0.46769189 -0.60000000
v -0.64699593 0.46769189 0.60000000
v -0.61300407 0.46769189 -0.60000000
v -0.61300407 0.46769189 0.60000000
v -0.58550407 0.48767181 -0.60000000
v -0.58550407 0.48767181 0.60000000
v -0.00000000 0.52000000 -1.23000000
v 0.05500000 0.52000000 -1.23000000
v 0.05500000 0.52000000 -0.03000000
v -0.00000000 0.52000000 -0.03000000
v 0.04449593 0.55232819 -1.23000000
v 0.04449593 0.55232819 -0.03000000
v 0.01699593 0.57230811 -1.23000000
v 0.01699593 0.57230811 -0.03000000
v -0.01699593 0.57230811 -1.23000000
v -0.01699593 0.57230811 -0.03000000
v -0.04449593 0.55232819 -1.23000000
v -0.04449593 0.55232819 -0.03000000
v -0.05500000 0.52000000 -1.23000000
v -0.05500000 0.52000000 -0.03000000
v -0.04449593 0.48767181 -1.23000000
v -0.04449593 0.48767181 -0.03000000
v -0.01699593 0.46769189 -1.23000000
v -0.01699593 0.46769189 -0.03000000
v 0.01699593 0.46769189 -1.23000000
v 0.01699593 0.46769189 -0.03000000
v 0.04449593 0.48767181 -1.23000000
v 0.04449593 0.48767181 -0.03000000
vn 0.00000000 0.00000000 -1.00000000
vn 0.73425441 -0.00000000 -0.67887441
vn 0.73425441 -0.00000000 0.67887441
vn 0.00000000 0.00000000 1.00000000
vn 0.70923530 0.19003903 -0.67887441
vn 0.70923530 0.19003903 0.67887441
vn 0.63588297 0.36712721 -0.67887441
vn 0.63588297 0.36712721 0.67887441
vn 0.51919627 0.51919627 -0.67887441
vn 0.51919627 0.51919627 0.67887441
vn 0.36712721 0.63588297 -0.67887441
vn 0.36712721 0.63588297 0.67887441
vn 0.19003903 0.70923530 -0.67887441
vn 0.19003903 0.70923530 0.67887441
vn 0.00000000 0.73425441 -0.67887441
vn 0.00000000 0.73425441 0.67887441
vn -0.19003903 0.70923530 -0.67887441
vn -0.19003903 0.70923530 0.67887441
vn -0.36712721 0.63588297 -0.67887441
vn -0.36712721 0.63588297 0.67887441
vn -0.51919627 0.51919627 -0.67887441
vn -0.51919627 0.51919627 0.67887441
vn -0.63588297 0.36712721 -0.67887441
vn -0.63588297 0.36712721 0.67887441
vn -0.70923530 0.19003903 -0.67887441
vn -0.70923530 0.19003903 0.67887441
vn -0.73425441 0.00000000 -0.67887441
vn -0.73425441 0.00000000 0.67887441
vn -0.70923530 -0.19003903 -0.67887441
vn -0.70923530 -0.19003903 0.67887441
vn -0.63588297 -0.36712721 -0.67887441
vn -0.63588297 -0.36712721 0.67887441
vn -0.51919627 -0.51919627 -0.67887441
vn -0.51919627 -0.51919627 0.67887441
vn -0.36712721 -0.63588297 -0.67887441
vn -0.36712721 -0.63588297 0.67887441
vn -0.19003903 -0.70923530 -0.67887441
vn -0.19003903 -0.70923530 0.67887441
vn -0.00000000 -0.73425441 -0.67887441
vn -0.00000000 -0.73425441 0.67887441
vn 0.19003903 -0.70923530 -0.67887441
vn 0.19003903 -0.70923530 0.67887441
vn 0.36712721 -0.63588297 -0.67887441
vn 0.36712721 -0.63588297 0.67887441
vn 0.51919627 -0.51919627 -0.67887441
vn 0.51919627 -0.51919627 0.67887441
vn 0.63588297 -0.36712721 -0.67887441
vn 0.63588297 -0.36712721 0.67887441
vn 0.70923530 -0.19003903 -0.67887441
vn 0.70923530 -0.19003903 0.67887441
vn 0.00000000 0.00000000 -1.00000000
vn 0.73425441 -0.00000000 -0.67887441
vn 0.73425441 -0.00000000 0.67887441
vn 0.00000000 0.00000000 1.00000000
vn 0.70923530 0.19003903 -0.67887441
vn 0.70923530 0.19003903 0.67887441
vn 0.63588297 0.36712721 -0.67887441
vn 0.63588297 0.36712721 0.67887441
vn 0.51919627 0.51919627 -0.67887441
vn 0.51919627 0.51919627 0.67887441
vn 0.36712721 0.63588297 -0.67887441
vn 0.36712721 0.63588297 0.67887441
vn 0.19003903 0.70923530 -0.67887441
vn 0.19003903 0.70923530 0.67887441
vn -0.00000000 0.73425441 -0.67887441
vn -0.00000000 0.73425441 0.67887441
vn -0.19003903 0.70923530 -0.67887441
vn -0.19003903 0.70923530 0.67887441
vn -0.36712721 0.63588297 -0.67887441
vn -0.36712721 0.63588297 0.67887441
vn -0.51919627 0.51919627 -0.67887441
vn -0.51919627 0.51919627 0.67887441
vn -0.63588297 0.36712721 -0.67887441
vn -0.63588297 0.36712721 0.67887441
vn -0.70923530 0.19003903 -0.67887441
vn -0.70923530 0.19003903 0.67887441
vn -0.73425441 0.00000000 -0.67887441
vn -0.73425441 0.00000000 0.67887441
vn -0.70923530 -0.19003903 -0.67887441
vn -0.70923530 -0.19003903 0.67887441
vn -0.63588297 -0.36712721 -0.67887441
vn -0.63588297 -0.36712721 0.67887441
vn -0.51919627 -0.51919627 -0.67887441
vn -0.51919627 -0.51919627 0.67887441
vn -0.36712721 -0.63588297 -0.67887441
vn -0.36712721 -0.63588297 0.67887441
vn -0.19003903 -0.70923530 -0.67887441
vn -0.19003903 -0.70923530 0.67887441
vn -0.00000000 -0.73425441 -0.67887441
vn -0.00000000 -0.73425441 0.67887441
vn 0.19003903 -0.70923530 -0.67887441
vn 0.19003903 -0.70923530 0.67887441
vn 0.36712721 -0.63588297 -0.67887441
vn 0.36712721 -0.63588297 0.67887441
vn 0.51919627 -0.51919627 -0.67887441
vn 0.51919627 -0.51919627 0.67887441
vn 0.63588297 -0.36712721 -0.67887441
vn 0.63588297 -0.36712721 0.67887441
vn 0.70923530 -0.19003903 -0.67887441
vn 0.70923530 -0.19003903 0.67887441
vn 0.00000000 0.00000000 -1.00000000
vn 0.75716233 -0.00000000 -0.65322677
vn 0.75716233 -0.00000000 0.65322677
vn 0.00000000 0.00000000 1.00000000
vn 0.65572181 0.37858116 -0.65322677
vn 0.65572181 0.37858116 0.65322677
vn 0.37858116 0.65572181 -0.65322677
vn 0.37858116 0.65572181 0.65322677
vn -0.00000000 0.75716233 -0.65322677
vn -0.00000000 0.75716233 0.65322677
vn -0.37858116 0.65572181 -0.65322677
vn -0.37858116 0.65572181 0.65322677
vn -0.65572181 0.37858116 -0.65322677
vn -0.65572181 0.37858116 0.65322677
vn -0.75716233 0.00000000 -0.65322677
vn -0.75716233 0.00000000 0.65322677
vn -0.65572181 -0.37858116 -0.65322677
vn -0.65572181 -0.37858116 0.65322677
vn -0.37858116 -0.65572181 -0.65322677
vn -0.37858116 -0.65572181 0.65322677
vn 0.00000000 -0.75716233 -0.65322677
vn 0.00000000 -0.75716233 0.65322677
vn 0.37858116 -0.65572181 -0.65322677
vn 0.37858116 -0.65572181 0.65322677
vn 0.65572181 -0.37858116 -0.65322677
vn 0.65572181 -0.37858116 0.65322677
vn 0.00000000 0.00000000 -1.00000000
vn 0.76526381 -0.00000000 -0.64371679
vn 0.76526381 0.00000000 0.64371679
vn 0.00000000 0.00000000 1.00000000
vn 0.61911143 0.44981078 -0.64371679
vn 0.61911143 0.44981078 0.64371679
vn 0.23647952 0.72780913 -0.64371679
vn 0.23647952 0.72780913 0.64371679
vn -0.23647952 0.72780913 -0.64371679
vn -0.23647952 0.72780913 0.64371679
vn -0.61911143 0.44981078 -0.64371679
vn -0.61911143 0.44981078 0.64371679
vn -0.76526381 0.00000000 -0.64371679
vn -0.76526381 -0.00000000 0.64371679
vn -0.61911143 -0.44981078 -0.64371679
vn -0.61911143 -0.44981078 0.64371679
vn -0.23647952 -0.72780913 -0.64371679
vn -0.23647952 -0.72780913 0.64371679
vn 0.23647952 -0.72780913 -0.64371679
vn 0.23647952 -0.72780913 0.64371679
vn 0.61911143 -0.44981078 -0.64371679
vn 0.61911143 -0.44981078 0.64371679
vn 0.00000000 0.00000000 -1.00000000
vn 0.76526381 -0.00000000 -0.64371679
vn 0.76526381 0.00000000 0.64371679
vn 0.00000000 0.00000000 1.00000000
vn 0.61911143 0.44981078 -0.64371679
vn 0.61911143 0.44981078 0.64371679
vn 0.23647952 0.72780913 -0.64371679
vn 0.23647952 0.72780913 0.64371679
vn -0.23647952 0.72780913 -0.64371679
vn -0.23647952 0.72780913 0.64371679
vn -0.61911143 0.44981078 -0.64371679
vn -0.61911143 0.44981078 0.64371679
vn -0.76526381 0.00000000 -0.64371679
vn -0.76526381 0.00000000 0.64371679
vn -0.61911143 -0.44981078 -0.64371679
vn -0.61911143 -0.44981078 0.64371679
vn -0.23647952 -0.72780913 -0.64371679
vn -0.23647952 -0.72780913 0.64371679
vn 0.23647952 -0.72780913 -0.64371679
vn 0.23647952 -0.72780913 0.64371679
vn 0.61911143 -0.44981078 -0.64371679
vn 0.61911143 -0.44981078 0.64371679
vn 0.00000000 0.00000000 -1.00000000
vn 0.76526381 -0.00000000 -0.64371679
vn 0.76526381 0.00000000 0.64371679
vn 0.00000000 0.00000000 1.00000000
vn 0.61911143 0.44981078 -0.64371679
vn 0.61911143 0.44981078 0.64371679
vn 0.23647952 0.72780913 -0.64371679
vn 0.23647952 0.72780913 0.64371679
vn -0.23647952 0.72780913 -0.64371679
vn -0.23647952 0.72780913 0.64371679
vn -0.61911143 0.44981078 -0.64371679
vn -0.61911143 0.44981078 0.64371679
vn -0.76526381 0.00000000 -0.64371679
vn -0.76526381 -0.00000000 0.64371679
vn -0.61911143 -0.44981078 -0.64371679
vn -0.61911143 -0.44981078 0.64371679
vn -0.23647952 -0.72780913 -0.64371679
vn -0.23647952 -0.72780913 0.64371679
vn 0.23647952 -0.72780913 -0.64371679
vn 0.23647952 -0.72780913 0.64371679
vn 0.61911143 -0.44981078 -0.64371679
vn 0.61911143 -0.44981078 0.64371679
vn 0.00000000 0.00000000 -1.00000000
vn 0.76526381 -0.00000000 -0.64371679
vn 0.76526381 0.00000000 0.64371679
vn 0.00000000 0.00000000 1.00000000
vn 0.61911143 0.44981078 -0.64371679
vn 0.61911143 0.44981078 0.64371679
vn 0.23647952 0.72780913 -0.64371679
vn 0.23647952 0.72780913 0.64371679
vn -0.23647952 0.72780913 -0.64371679
vn -0.23647952 0.72780913 0.64371679
vn -0.61911143 0.44981078 -0.64371679
vn -0.61911143 0.44981078 0.64371679
vn -0.76526381 0.00000000 -0.64371679
vn -0.76526381 0.00000000 0.64371679
vn -0.61911143 -0.44981078 -0.64371679
vn -0.61911143 -0.44981078 0.64371679
vn -0.23647952 -0.72780913 -0.64371679
vn -0.23647952 -0.72780913 0.64371679
vn 0.23647952 -0.72780913 -0.64371679
vn 0.23647952 -0.72780913 0.64371679
vn 0.61911143 -0.44981078 -0.64371679
vn 0.61911143 -0.44981078 0.64371679
f 2//2 1//1 5//5
f 2//2 5//5 3//3
f 3//3 5//5 6//6
f 3//3 6//6 4//4
f 5//5 1//1 7//7
f 5//5 7//7 6//6
f 6//6 7//7 8//8
f 6//6 8//8 4//4
f 7//7 1//1 9//9
f 7//7 9//9 8//8
f 8//8 9//9 10//10
f 8//8 10//10 4//4
f 9//9 1//1 11//11
f 9//9 11//11 10//10
f 10//10 11//11 12//12
f 10//10 12//12 4//4
f 11//11 1//1 13//13
f 11//11 13//13 12//12
f 12//12 13//13 14//14
f 12//12 14//14 4//4
f 13//13 1//1 15//15
f 13//13 15//15 14//14
f 14//14 15//15 16//16
f 14//14 16//16 4//4
f 15//15 1//1 17//17
f 15//15 17//17 16//16
f 16//16 17//17 18//18
f 16//16 18//18 4//4
f 17//17 1//1 19//19
f 17//17 19//19 18//18
f 18//18 19//19 20//20
f 18//18 20//20 4//4
f 19//19 1//1 21//21
f 19//19 21//21 20//20
f 20//20 21//21 22//22
f 20//20 22//22 4//4
f 21//21 1//1 23//23
f 21//21 23//23 22//22
f 22//22 23//23 24//24
f 22//22 24//24 4//4
f 23//23 1//1 25//25
f 23//23 25//25 24//24
f 24//24 25//25 26//26
f 24//24 26//26 4//4
f 25//25 1//1 27//27
f 25//25 27//27 26//26
f 26//26 27//27 28//28
f 26//26 28//28 4//4
f 27//27 1//1 29//29
f 27//27 29//29 28//28
f 28//28 29//29 30//30
f 28//28 30//30 4//4
f 29//29 1//1 31//31
f 29//29 31//31 30//30
f 30//30 31//31 32//32
f 30//30 32//32 4//4
f 31//31 1//1 33//33
f 31//31 33//33 32//32
f 32//32 33//33 34//34
f 32//32 34//34 4//4
f 33//33 1//1 35//35
f 33//33 35//35 34//34
f 34//34 35//35 36//36
f 34//34 36//36 4//4
f 35//35 1//1 37//37
f 35//35 37//37 36//36
f 36//36 37//37 38//38
f 36//36 38//38 4//4
f 37//37 1//1 39//39
f 37//37 39//39 38//38
f 38//38 39//39 40//40
f 38//38 40//40 4//4
f 39//39 1//1 41//41
f 39//39 41//41 40//40
f 40//40 41//41 42//42
f 40//40 42//42 4//4
f 41//41 1//1 43//43
f 41//41 43//43 42//42
f 42//42 43//43 44//44
f 42//42 44//44 4//4
f 43//43 1//1 45//45
f 43//43 45//45 44//44
f 44//44 45//45 46//46
f 44//44 46//46 4//4
f 45//45 1//1 47//47
f 45//45 47//47 46//46
f 46//46 47//47 48//48
f 46//46 48//48 4//4
f 47//47 1//1 49//49
f 47//47 49//49 48//48
f 48//48 49//49 50//50
f 48//48 50//50 4//4
f 49//49 1//1 2//2
f 49//49 2//2 50//50
f 50//50 2//2 3//3
f 50//50 3//3 4//4
f 52//52 51//51 55//55
f 52//52 55//55 53//53
f 53//53 55//55 56//56
f 53//53 56//56 54//54
f 55//55 51//51 57//57
f 55//55 57//57 56//56
f 56//56 57//57 58//58
f 56//56 58//58 54//54
f 57//57 51//51 59//59
f 57//57 59//59 58//58
f 58//58 59//59 60//60
f 58//58 60//60 54//54
f 59//59 51//51 61//61
f 59//59 61//61 60//60
f 60//60 61//61 62//62
f 60//60 62//62 54//54
f 61//61 51//51 63//63
f 61//61 63//63 62//62
f 62//62 63//63 64//64
f 62//62 64//64 54//54
f 63//63 51//51 65//65
f 63//63 65//65 64//64
f 64//64 65//65 66//66
f 64//64 66//66 54//54
f 65//65 51//51 67//67
f 65//65 67//67 66//66
f 66//66 67//67 68//68
f 66//66 68//68 54//54
f 67//67 51//51 69//69
f 67//67 69//69 68//68
f 68//68 69//69 70//70
f 68//68 70//70 54//54
f 69//69 51//51 71//71
f 69//69 71//71 70//70
f 70//70 71//71 72//72
f 70//70 72//72 54//54
f 71//71 51//51 73//73
f 71//71 73//73 72//72
f 72//72 73//73 74//74
f 72//72 74//74 54//54
f 73//73 51//51 75//75
f 73//73 75//75 74//74
f 74//74 75//75 76//76
f 74//74 76//76 54//54
f 75//75 51//51 77//77
f 75//75 77//77 76//76
f 76//76 77//77 78//78
f 76//76 78//78 54//54
f 77//77 51//51 79//79
f 77//77 79//79 78//78
f 78//78 79//79 80//80
f 78//78 80//80 54//54
f 79//79 51//51 81//81
f 79//79 81//81 80//80
f 80//80 81//81 82//82
f 80//80 82//82 54//54
f 81//81 51//51 83//83
f 81//81 83//83 82//82
f 82//82 83//83 84//84
f 82//82 84//84 54//54
f 83//83 51//51 85//85
f 83//83 85//85 84//84
f 84//84 85//85 86//86
f 84//84 86//86 54//54
f 85//85 51//51 87//87
f 85//85 87//87 86//86
f 86//86 87//87 88//88
f 86//86 88//88 54//54
f 87//87 51//51 89//89
f 87//87 89//89 88//88
f 88//88 89//89 90//90
f 88//88 90//90 54//54
f 89//89 51//51 91//91
f 89//89 91//91 90//90
f 90//90 91//91 92//92
f 90//90 92//92 54//54
f 91//91 51//51 93//93
f 91//91 93//93 92//92
f 92//92 93//93 94//94
f 92//92 94//94 54//54
f 93//93 51//51 95//95
f 93//93 95//95 94//94
f 94//94 95//95 96//96
f 94//94 96//96 54//54
f 95//95 51//51 97//97
f 95//95 97//97 96//96
f 96//96 97//97 98//98
f 96//96 98//98 54//54
f 97//97 51//51 99//99
f 97//97 99//99 98//98
f 98//98 99//99 100//100
f 98//98 100//100 54//54
f 99//99 51//51 52//52
f 99//99 52//52 100//100
f 100//100 52//52 53//53
f 100//100 53//53 54//54
f 102//102 101//101 105//105
f 102//102 105//105 103//103
f 103//103 105//105 106//106
f 103//103 106//106 104//104
f 105//105 101//101 107//107
f 105//105 107//107 106//106
f 106//106 107//107 108//108
f 106//106 108//108 104//104
f 107//107 101//101 109//109
f 107//107 109//109 108//108
f 108//108 109//109 110//110
f 108//108 110//110 104//104
f 109//109 101//101 111//111
f 109//109 111//111 110//110
f 110//110 111//111 112//112
f 110//110 112//112 104//104
f 111//111 101//101 113//113
f 111//111 113//113 112//112
f 112//112 113//113 114//114
f 112//112 114//114 104//104
f 113//113 101//101 115//115
f 113//113 115//115 114//114
f 114//114 115//115 116//116
f 114//114 116//116 104//104
f 115//115 101//101 117//117
f 115//115 117//117 116//116
f 116//116 117//117 118//118
f 116//116 118//118 104//104
f 117//117 101//101 119//119
f 117//117 119//119 118//118
f 118//118 119//119 120//120
f 118//118 120//120 104//104
f 119//119 101//101 121//121
f 119//119 121//121 120//120
f 120//120 121//121 122//122
f 120//120 122//122 104//104
f 121//121 101//101 123//123
f 121//121 123//123 122//122
f 122//122 123//123 124//124
f 122//122 124//124 104//104
f 123//123 101//101 125//125
f 123//123 125//125 124//124
f 124//124 125//125 126//126
f 124//124 126//126 104//104
f 125//125 101//101 102//102
f 125//125 102//102 126//126
f 126//126 102//102 103//103
f 126//126 103//103 104//104
f 128//128 127//127 131//131
f 128//128 131//131 129//129
f 129//129 131//131 132//132
f 129//129 132//132 130//130
f 131//131 127//127 133//133
f 131//131 133//133 132//132
f 132//132 133//133 134//134
f 132//132 134//134 130//130
f 133//133 127//127 135//135
f 133//133 135//135 134//134
f 134//134 135//135 136//136
f 134//134 136//136 130//130
f 135//135 127//127 137//137
f 135//135 137//137 136//136
f 136//136 137//137 138//138
f 136//136 138//138 130//130
f 137//137 127//127 139//139
f 137//137 139//139 138//138
f 138//138 139//139 140//140
f 138//138 140//140 130//130
f 139//139 127//127 141//141
f 139//139 141//141 140//140
f 140//140 141//141 142//142
f 140//140 142//142 130//130
f 141//141 127//127 143//143
f 141//141 143//143 142//142
f 142//142 143//143 144//144
f 142//142 144//144 130//130
f 143//143 127//127 145//145
f 143//143 145//145 144//144
f 144//144 145//145 146//146
f 144//144 146//146 130//130
f 145//145 127//127 147//147
f 145//145 147//147 146//146
f 146//146 147//147 148//148
f 146//146 148//148 130//130
f 147//147 127//127 128//128
f 147//147 128//128 148//148
f 148//148 128//128 129//129
f 148//148 129//129 130//130
f 150//150 149//149 153//153
f 150//150 153//153 151//151
f 151//151 153//153 154//154
f 151//151 154//154 152//152
f 153//153 149//149 155//155
f 153//153 155//155 154//154
f 154//154 155//155 156//156
f 154//154 156//156 152//152
f 155//155 149//149 157//157
f 155//155 157//157 156//156
f 156//156 157//157 158//158
f 156//156 158//158 152//152
f 157//157 149//149 159//159
f 157//157 159//159 158//158
f 158//158 159//159 160//160
f 158//158 160//160 152//152
f 159//159 149//149 161//161
f 159//159 161//161 160//160
f 160//160 161//161 162//162
f 160//160 162//162 152//152
f 161//161 149//149 163//163
f 161//161 163//163 162//162
f 162//162 163//163 164//164
f 162//162 164//164 152//152
f 163//163 149//149 165//165
f 163//163 165//165 164//164
f 164//164 165//165 166//166
f 164//164 166//166 152//152
f 165//165 149//149 167//167
f 165//165 167//167 166//166
f 166//166 167//167 168//168
f 166//166 168//168 152//152
f 167//167 149//149 169//169
f 167//167 169//169 168//168
f 168//168 169//169 170//170
f 168//168 170//170 152//152
f 169//169 149//149 150//150
f 169//169 150//150 170//170
f 170//170 150//150 151//151
f 170//170 151//151 152//152
f 172//172 171//171 175//175
f 172//172 175//175 173//173
f 173//173 175//175 176//176
f 173//173 176//176 174//174
f 175//175 171//171 177//177
f 175//175 177//177 176//176
f 176//176 177//177 178//178
f 176//176 178//178 174//174
f 177//177 171//171 179//179
f 177//177 179//179 178//178
f 178//178 179//179 180//180
f 178//178 180//180 174//174
f 179//179 171//171 181//181
f 179//179 181//181 180//180
f 180//180 181//181 182//182
f 180//180 182//182 174//174
f 181//181 171//171 183//183
f 181//181 183//183 182//182
f 182//182 183//183 184//184
f 182//182 184//184 174//174
f 183//183 171//171 185//185
f 183//183 185//185 184//184
f 184//184 185//185 186//186
f 184//184 186//186 174//174
f 185//185 171//171 187//187
f 185//185 187//187 186//186
f 186//186 187//187 188//188
f 186//186 188//188 174//174
f 187//187 171//171 189//189
f 187//187 189//189 188//188
f 188//188 189//189 190//190
f 188//188 190//190 174//174
f 189//189 171//171 191//191
f 189//189 191//191 190//190
f 190//190 191//191 192//192
f 190//190 192//192 174//174
f 191//191 171//171 172//172
f 191//191 172//172 192//192
f 192//192 172//172 173//173
f 192//192 173//173 174//174
f 194//194 193//193 197//197
f 194//194 197//197 195//195
f 195//195 197//197 198//198
f 195//195 198//198 196//196
f 197//197 193//193 199//199
f 197//197 199//199 198//198
f 198//198 199//199 200//200
f 198//198 200//200 196//196
f 199//199 193//193 201//201
f 199//199 201//201 200//200
f 200//200 201//201 202//202
f 200//200 202//202 196//196
f 201//201 193//193 203//203
f 201//201 203//203 202//202
f 202//202 203//203 204//204
f 202//202 204//204 196//196
f 203//203 193//193 205//205
f 203//203 205//205 204//204
f 204//204 205//205 206//206
f 204//204 206//206 196//196
f 205//205 193//193 207//207
f 205//205 207//207 206//206
f 206//206 207//207 208//208
f 206//206 208//208 196//196
f 207//207 193//193 209//209
f 207//207 209//209 208//208
f 208//208 209//209 210//210
f 208//208 210//210 196//196
f 209//209 193//193 211//211
f 209//209 211//211 210//210
f 210//210 211//211 212//212
f 210//210 212//212 196//196
f 211//211 193//193 213//213
f 211//211 213//213 212//212
f 212//212 213//213 214//214
f 212//212 214//214 196//196
f 213//213 193//193 194//194
f 213//213 194//194 214//214
f 214//214 194//194 195//195
f 214//214 195//195 196//196

