# https://github.com/mikedh/trimesh
v -0.05278648 0.08006345 -0.18594359
v -0.10556386 0.05738097 -0.00645701
v -0.04878322 0.28638435 -0.15869280
v -0.10156060 0.26370186 0.02079378
v 0.18019658 0.06671715 -0.11912239
v 0.12741920 0.04403467 0.06036418
v 0.18419984 0.27303804 -0.09187160
v 0.13142246 0.25035556 0.08761498
v -0.02710322 0.13780433 -0.38495180
v 0.00214686 0.14900976 0.03156411
v -0.02424648 0.25331912 -0.38826009
v 0.00500360 0.26452455 0.02825583
v 0.34896064 0.12775545 -0.41109077
v 0.37821072 0.13896088 0.00542515
v 0.35181739 0.24327024 -0.41439905
v 0.38106747 0.25447567 0.00211686
v -0.16284784 -0.03100190 -0.63731619
v -0.19001944 -0.01415157 -0.29344562
v -0.17244677 0.20442661 -0.64961112
v -0.19961838 0.22127694 -0.30574055
v 0.03580218 -0.02210553 -0.62205541
v 0.00863057 -0.00525520 -0.27818484
v 0.02620324 0.21332298 -0.63435034
v -0.00096837 0.23017331 -0.29047977
v 0.52377260 0.02644336 0.19129457
v 0.59540450 -0.03171676 0.39377753
v 0.54441198 0.24290875 0.24616940
v 0.61604387 0.18474862 0.44865235
v 0.67560371 0.02564151 0.13735134
v 0.74723561 -0.03251862 0.33983429
v 0.69624309 0.24210689 0.19222616
v 0.76787498 0.18394676 0.39470911
v 0.55104482 0.12986813 -0.26250808
v 0.62217759 0.20039029 0.15945973
v 0.54067790 0.25849479 -0.28225746
v 0.61181067 0.32901695 0.13971035
v 0.74681174 0.14031136 -0.29725463
v 0.81794451 0.21083352 0.12471319
v 0.73644482 0.26893802 -0.31700401
v 0.80757759 0.33946018 0.10496381
v 0.18754918 0.03876766 0.06569755
v 0.21561431 0.06448069 0.22464570
v 0.15551980 0.28406694 0.03167086
v 0.18358493 0.30977997 0.19061901
v 0.56278811 0.07769941 -0.00685557
v 0.59085325 0.10341244 0.15209258
v 0.53075873 0.32299868 -0.04088225
v 0.55882387 0.34871171 0.11806590
v -0.43003530 -0.01295681 -0.38173975
v -0.37965057 0.03418104 0.07629981
v -0.42642086 0.09359502 -0.39310282
v -0.37603612 0.14073288 0.06493673
v -0.02779271 -0.03112098 -0.42411745
v 0.02259202 0.01601687 0.03392210
v -0.02417826 0.07543085 -0.43548053
v 0.02620647 0.12256871 0.02255902
v -0.84953303 -0.10605363 0.34302162
v -0.79099426 -0.12146184 0.68513017
v -0.84107693 0.18962704 0.35489183
v -0.78253817 0.17421883 0.69700038
v -0.44241117 -0.11488418 0.27296060
v -0.38387240 -0.13029239 0.61506915
v -0.43395507 0.18079649 0.28483081
v -0.37541631 0.16538828 0.62693936
v -0.60942593 0.01304505 -0.51157430
v -0.51076178 -0.02265662 -0.22755497
v -0.55777139 0.26892981 -0.49735322
v -0.45910723 0.23322814 -0.21333389
v -0.39494572 -0.02583884 -0.59096935
v -0.29628157 -0.06154051 -0.30695002
v -0.34329117 0.23004592 -0.57674827
v -0.24462702 0.19434425 -0.29272894
v -0.27079055 0.10731447 -0.14926874
v -0.24727262 0.11341177 0.25578937
v -0.26456907 0.22910474 -0.15146326
v -0.24105115 0.23520204 0.25359485
v -0.00929603 0.09368653 -0.16424613
v 0.01422189 0.09978383 0.24081198
v -0.00307455 0.21547680 -0.16644066
v 0.02044337 0.22157410 0.23861745
v -0.83971474 0.03768750 -0.69131475
v -0.82527795 0.04151410 -0.23664175
v -0.83859005 0.23295746 -0.69299388
v -0.82415326 0.23678405 -0.23832088
v -0.40175305 0.03504560 -0.70519868
v -0.38731626 0.03887220 -0.25052568
v -0.40062836 0.23031556 -0.70687781
v -0.38619158 0.23414216 -0.25220481
v -0.47022948 -0.07498806 -0.45653770
v -0.62481847 -0.09264892 0.02838103
v -0.45957790 0.21800530 -0.44247116
v -0.61416690 0.20034445 0.04244757
v -0.17694476 -0.09011257 -0.36359124
v -0.33153375 -0.10777343 0.12132749
v -0.16629318 0.20288080 -0.34952470
v -0.32088218 0.18521994 0.13539403
v 0.17786249 -0.09463468 0.38929446
v 0.23176703 -0.06485420 0.74353914
v 0.16644611 0.12295390 0.37273952
v 0.22035065 0.15273438 0.72698421
v 0.52841283 -0.08039168 0.33475470
v 0.58231738 -0.05061120 0.68899938
v 0.51699645 0.13719690 0.31819976
v 0.57090100 0.16697738 0.67244445
v 0.45309566 0.00069054 -0.58396851
v 0.31576326 0.04044529 -0.13554488
v 0.43472933 0.18180571 -0.60564997
v 0.29739693 0.22156045 -0.15722634
v 0.85818517 0.05603353 -0.46481384
v 0.72085277 0.09578827 -0.01639021
v 0.83981884 0.23714869 -0.48649530
v 0.70248644 0.27690344 -0.03807167
v 0.13710890 0.07123831 -0.56864000
v 0.15964339 0.06098288 -0.56517260
v 0.29367764 0.61850626 0.21271534
v 0.27114315 0.62876169 0.20924794
v 0.16029488 0.07647276 -0.57638668
v 0.29432913 0.63399615 0.20150126
v 0.14736433 0.08889638 -0.58306286
v 0.28139858 0.64641976 0.19482508
v 0.12842630 0.09097613 -0.58129032
v 0.26246055 0.64849952 0.19659762
v 0.11457441 0.08149374 -0.57210740
v 0.24860866 0.63901712 0.20578054
v 0.11392293 0.06600385 -0.56089332
v 0.24795718 0.62352724 0.21699461
v 0.12685347 0.05358024 -0.55421715
v 0.26088772 0.61110362 0.22367079
v 0.14579151 0.05150048 -0.55598968
v 0.27982576 0.60902387 0.22189826
v -0.27105137 0.59446821 -0.15698025
v -0.24622882 0.59168754 -0.15803332
v -0.27743092 0.10275111 0.39753913
v -0.30225347 0.10553179 0.39859220
v -0.25153294 0.60563520 -0.14605645
v -0.28273504 0.11669877 0.40951600
v -0.26827069 0.61304139 -0.14047859
v -0.29947279 0.12410497 0.41509386
v -0.28663733 0.60956767 -0.14456718
v -0.31783942 0.12063124 0.41100527
v -0.29587392 0.59724889 -0.15592718
v -0.32707601 0.10831246 0.39964528
v -0.29056980 0.58330123 -0.16790405
v -0.32177189 0.09436480 0.38766840
v -0.27383205 0.57589503 -0.17348191
v -0.30503414 0.08695861 0.38209054
v -0.25546542 0.57936876 -0.16939332
v -0.28666751 0.09043233 0.38617913
v -0.38320397 0.47976052 -0.29733244
v -0.35847866 0.47608676 -0.29773589
v -0.37788363 0.21656571 0.87619460
v -0.40260893 0.22023948 0.87659805
v -0.36312279 0.49422721 -0.29380235
v -0.38252776 0.23470616 0.88012814
v -0.37953020 0.50389327 -0.29193668
v -0.39893517 0.24437222 0.88199381
v -0.39808965 0.49942269 -0.29323178
v -0.41749462 0.23990164 0.88069871
v -0.40792927 0.48343429 -0.29692899
v -0.42733424 0.22391324 0.87700150
v -0.40328514 0.46529384 -0.30086253
v -0.42269011 0.20577279 0.87306796
v -0.38687773 0.45562778 -0.30272820
v -0.40628270 0.19610673 0.87120229
v -0.36831828 0.46009836 -0.30143310
v -0.38772324 0.20057731 0.87249739
v 0.00167405 0.49261511 -0.59381035
v 0.02612826 0.48756743 -0.59504022
v -0.00471282 0.20233722 -0.03762123
v -0.02916703 0.20738489 -0.03639136
v 0.02253504 0.50437794 -0.58663712
v -0.00830604 0.21914773 -0.02921814
v 0.00672173 0.51429794 -0.58243600
v -0.02411935 0.22906773 -0.02501702
v -0.01204844 0.51151643 -0.58489782
v -0.04288952 0.22628622 -0.02747883
v -0.02278016 0.49766278 -0.59258047
v -0.05362124 0.21243257 -0.03516149
v -0.01918693 0.48085227 -0.60098357
v -0.05002801 0.19562206 -0.04356458
v -0.00337362 0.47093227 -0.60518469
v -0.03421470 0.18570206 -0.04776570
v 0.01539655 0.47371378 -0.60272287
v -0.01544453 0.18848357 -0.04530389
vn -0.40355157 -0.47104011 -0.78438979
vn -0.72692847 -0.61001992 0.31535806
vn -0.38134385 0.67350669 -0.63321845
vn -0.70472075 0.53452688 0.46652940
vn 0.70472075 -0.53452688 -0.46652940
vn 0.38134385 -0.67350669 0.63321845
vn 0.72692847 0.61001992 -0.31535806
vn 0.40355157 0.47104011 0.78438979
vn -0.63045472 -0.57704108 -0.51918247
vn -0.54959352 -0.54606389 0.63226671
vn -0.60191875 0.57683368 -0.55222887
vn -0.52105754 0.60781087 0.59922031
vn 0.52105754 -0.60781087 -0.59922031
vn 0.60191875 -0.57683368 0.55222887
vn 0.54959352 0.54606389 -0.63226671
vn 0.63045472 0.57704108 0.51918247
vn -0.50616819 -0.63001154 -0.58896453
vn -0.59701727 -0.57367196 0.56077702
vn -0.55314488 0.52216293 -0.64913529
vn -0.64399396 0.57850251 0.50060626
vn 0.64399396 -0.57850251 -0.50060626
vn 0.55314488 -0.52216293 0.64913529
vn 0.59701727 0.57367196 -0.56077702
vn 0.50616819 0.63001154 0.58896453
vn -0.78302207 -0.40349396 -0.47335934
vn -0.41130213 -0.70530476 0.57738700
vn -0.67675327 0.71105103 -0.19081780
vn -0.30503334 0.40924023 0.85992854
vn 0.30503334 -0.40924023 -0.85992854
vn 0.67675327 -0.71105103 0.19081780
vn 0.41130213 0.70530476 -0.57738700
vn 0.78302207 0.40349396 0.47335934
vn -0.61652948 -0.69302578 -0.37363976
vn -0.42713987 -0.50526190 0.74984128
vn -0.70822640 0.44469553 -0.54832586
vn -0.51883680 0.63245941 0.57515518
vn 0.51883680 -0.63245941 -0.57515518
vn 0.70822640 -0.44469553 0.54832586
vn 0.42713987 0.50526190 -0.74984128
vn 0.61652948 0.69302578 0.37363976
vn -0.58901751 -0.71648973 -0.37376575
vn -0.39074044 -0.53483002 0.74918540
vn -0.73712627 0.41781173 -0.53111036
vn -0.53884921 0.59947144 0.59184079
vn 0.53884921 -0.59947144 -0.59184079
vn 0.73712627 -0.41781173 0.53111036
vn 0.39074044 0.53483002 -0.74918540
vn 0.58901751 0.71648973 0.37376575
vn -0.65585832 -0.60662021 -0.44929030
vn -0.53025732 -0.48911316 0.69252834
vn -0.61693161 0.54091706 -0.57166785
vn -0.49133060 0.65842411 0.57015079
vn 0.49133060 -0.65842411 -0.57015079
vn 0.61693161 -0.54091706 0.57166785
vn 0.53025732 0.48911316 -0.69252834
vn 0.65585832 0.60662021 0.44929030
vn -0.68262843 -0.53870608 -0.49377544
vn -0.48806785 -0.58991710 0.64326323
vn -0.64964549 0.61459432 -0.44747577
vn -0.45508490 0.56338329 0.68956290
vn 0.45508490 -0.56338329 -0.68956290
vn 0.64964549 -0.61459432 0.44747577
vn 0.48806785 0.58991710 -0.64326323
vn 0.68262843 0.53870608 0.49377544
vn -0.83599356 -0.40024803 -0.37538816
vn -0.45972283 -0.53640178 0.70776271
vn -0.60784550 0.72994508 -0.31257643
vn -0.23157476 0.59379134 0.77057445
vn 0.23157476 -0.59379134 -0.77057445
vn 0.60784550 -0.72994508 0.31257643
vn 0.45972283 0.53640178 -0.70776271
vn 0.83599356 0.40024803 0.37538816
vn -0.63853804 -0.55518117 -0.53295687
vn -0.57161569 -0.53783075 0.61967216
vn -0.57963821 0.59782902 -0.55373280
vn -0.51271585 0.61517944 0.59889624
vn 0.51271585 -0.61517944 -0.59889624
vn 0.57963821 -0.59782902 0.55373280
vn 0.57161569 0.53783075 -0.61967216
vn 0.63853804 0.55518117 0.53295687
vn -0.59869721 -0.57869488 -0.55378144
vn -0.56205290 -0.56898198 0.60029663
vn -0.59204688 0.57594382 -0.56371022
vn -0.55540257 0.58565671 0.59036785
vn 0.55540257 -0.58565671 -0.59036785
vn 0.59204688 -0.57594382 0.56371022
vn 0.56205290 0.56898198 -0.60029663
vn 0.59869721 0.57869488 0.55378144
vn -0.39540555 -0.52793626 -0.75162341
vn -0.74591516 -0.56797986 0.34786413
vn -0.35350311 0.62467615 -0.69628676
vn -0.70401272 0.58463256 0.40320078
vn 0.70401272 -0.58463256 -0.40320078
vn 0.35350311 -0.62467615 0.69628676
vn 0.74591516 0.56797986 -0.34786413
vn 0.39540555 0.52793626 0.75162341
vn -0.62641974 -0.64587986 -0.43639147
vn -0.45330823 -0.55024147 0.70124602
vn -0.68674718 0.50392056 -0.52387249
vn -0.51363567 0.59955895 0.61376499
vn 0.51363567 -0.59955895 -0.61376499
vn 0.68674718 -0.50392056 0.52387249
vn 0.45330823 0.55024147 -0.70124602
vn 0.62641974 0.64587986 0.43639147
vn -0.32288727 -0.69416912 -0.64332965
vn -0.65981101 -0.59663702 0.45680816
vn -0.43856686 0.44657756 -0.77988947
vn -0.77549060 0.54410966 0.32024834
vn 0.77549060 -0.54410966 -0.32024834
vn 0.43856686 -0.44657756 0.77988947
vn 0.65981101 0.59663702 -0.45680816
vn 0.32288727 0.69416912 0.64332965
vn -0.13869600 -0.57691421 -0.80494311
vn 0.61240016 -0.68209269 -0.39964434
vn 0.78722993 0.04512207 0.61500653
vn 0.13869600 0.57691421 0.80494311
vn 0.63263221 -0.20104986 -0.74790069
vn 0.80746198 0.52616490 0.26675018
vn 0.23107043 0.18476898 -0.95523132
vn 0.40590020 0.91198374 0.05941955
vn -0.35705572 0.24935639 -0.90018476
vn -0.18222596 0.97657115 0.11446611
vn -0.78722993 -0.04512207 -0.61500653
vn -0.61240016 0.68209269 0.39964434
vn -0.80746198 -0.52616490 -0.26675018
vn -0.63263221 0.20104986 0.74790069
vn -0.40590020 -0.91198374 -0.05941955
vn -0.23107043 -0.18476898 0.95523132
vn 0.18222596 -0.97657115 -0.11446611
vn 0.35705572 -0.24935639 0.90018476
vn 0.04212297 0.66006640 -0.75002534
vn 0.79741982 0.32966035 -0.50541634
vn 0.74432277 -0.50236981 0.44000930
vn -0.04212297 -0.66006640 0.75002534
vn 0.63269886 0.76280903 -0.13347111
vn 0.57960181 -0.06922114 0.81195454
vn 0.11290326 0.99281051 0.03975093
vn 0.05980621 0.16078035 0.98517658
vn -0.45747778 0.88493306 -0.08722134
vn -0.51057483 0.05290290 0.85820430
vn -0.74432277 0.50236981 -0.44000930
vn -0.79741982 -0.32966035 0.50541634
vn -0.57960181 0.06922114 -0.81195454
vn -0.63269886 -0.76280903 0.13347111
vn -0.05980621 -0.16078035 -0.98517658
vn -0.11290326 -0.99281051 -0.03975093
vn 0.51057483 -0.05290290 -0.85820430
vn 0.45747778 -0.88493306 0.08722134
vn 0.01613811 0.21583029 -0.97629752
vn 0.77802263 0.02193994 -0.62785303
vn 0.75768014 -0.25011952 0.60279435
vn -0.01613811 -0.21583029 0.97629752
vn 0.63379783 0.58529668 -0.50569566
vn 0.61345534 0.31323722 0.72495172
vn 0.12426103 0.88547894 -0.44775691
vn 0.10391854 0.61341947 0.78289047
vn -0.45210801 0.74664401 -0.48797650
vn -0.47245050 0.47458455 0.74267088
vn -0.75768014 0.25011952 -0.60279435
vn -0.77802263 -0.02193994 0.62785303
vn -0.61345534 -0.31323722 -0.72495172
vn -0.63379783 -0.58529668 0.50569566
vn -0.10391854 -0.61341947 -0.78289047
vn -0.12426103 -0.88547894 0.44775691
vn 0.47245050 -0.47458455 -0.74267088
vn 0.45210801 -0.74664401 0.48797650
vn 0.04919494 0.45497375 -0.88914495
vn 0.79043820 0.12999593 -0.59858877
vn 0.72842676 -0.44350982 0.52220063
vn -0.04919494 -0.45497375 0.88914495
vn 0.67884948 0.65205107 -0.33762819
vn 0.61683803 0.07854531 0.78316121
vn 0.18776267 0.96011948 -0.20716121
vn 0.12575122 0.38661372 0.91362818
vn -0.39515023 0.87373887 -0.28361362
vn -0.45716168 0.30023311 0.83717578
vn -0.72842676 0.44350982 -0.52220063
vn -0.79043820 -0.12999593 0.59858877
vn -0.61683803 -0.07854531 -0.78316121
vn -0.67884948 -0.65205107 0.33762819
vn -0.12575122 -0.38661372 -0.91362818
vn -0.18776267 -0.96011948 0.20716121
vn 0.45716168 -0.30023311 -0.83717578
vn 0.39515023 -0.87373887 0.28361362
f 2//2 4//4 1//1
f 5//5 2//2 1//1
f 1//1 4//4 3//3
f 3//3 5//5 1//1
f 2//2 8//8 4//4
f 6//6 2//2 5//5
f 6//6 8//8 2//2
f 4//4 8//8 3//3
f 7//7 5//5 3//3
f 3//3 8//8 7//7
f 7//7 6//6 5//5
f 8//8 6//6 7//7
f 10//10 12//12 9//9
f 13//13 10//10 9//9
f 9//9 12//12 11//11
f 11//11 13//13 9//9
f 10//10 16//16 12//12
f 14//14 10//10 13//13
f 14//14 16//16 10//10
f 12//12 16//16 11//11
f 15//15 13//13 11//11
f 11//11 16//16 15//15
f 15//15 14//14 13//13
f 16//16 14//14 15//15
f 18//18 20//20 17//17
f 21//21 18//18 17//17
f 17//17 20//20 19//19
f 19//19 21//21 17//17
f 18//18 24//24 20//20
f 22//22 18//18 21//21
f 22//22 24//24 18//18
f 20//20 24//24 19//19
f 23//23 21//21 19//19
f 19//19 24//24 23//23
f 23//23 22//22 21//21
f 24//24 22//22 23//23
f 26//26 28//28 25//25
f 29//29 26//26 25//25
f 25//25 28//28 27//27
f 27//27 29//29 25//25
f 26//26 32//32 28//28
f 30//30 26//26 29//29
f 30//30 32//32 26//26
f 28//28 32//32 27//27
f 31//31 29//29 27//27
f 27//27 32//32 31//31
f 31//31 30//30 29//29
f 32//32 30//30 31//31
f 34//34 36//36 33//33
f 37//37 34//34 33//33
f 33//33 36//36 35//35
f 35//35 37//37 33//33
f 34//34 40//40 36//36
f 38//38 34//34 37//37
f 38//38 40//40 34//34
f 36//36 40//40 35//35
f 39//39 37//37 35//35
f 35//35 40//40 39//39
f 39//39 38//38 37//37
f 40//40 38//38 39//39
f 42//42 44//44 41//41
f 45//45 42//42 41//41
f 41//41 44//44 43//43
f 43//43 45//45 41//41
f 42//42 48//48 44//44
f 46//46 42//42 45//45
f 46//46 48//48 42//42
f 44//44 48//48 43//43
f 47//47 45//45 43//43
f 43//43 48//48 47//47
f 47//47 46//46 45//45
f 48//48 46//46 47//47
f 50//50 52//52 49//49
f 53//53 50//50 49//49
f 49//49 52//52 51//51
f 51//51 53//53 49//49
f 50//50 56//56 52//52
f 54//54 50//50 53//53
f 54//54 56//56 50//50
f 52//52 56//56 51//51
f 55//55 53//53 51//51
f 51//51 56//56 55//55
f 55//55 54//54 53//53
f 56//56 54//54 55//55
f 58//58 60//60 57//57
f 61//61 58//58 57//57
f 57//57 60//60 59//59
f 59//59 61//61 57//57
f 58//58 64//64 60//60
f 62//62 58//58 61//61
f 62//62 64//64 58//58
f 60//60 64//64 59//59
f 63//63 61//61 59//59
f 59//59 64//64 63//63
f 63//63 62//62 61//61
f 64//64 62//62 63//63
f 66//66 68//68 65//65
f 69//69 66//66 65//65
f 65//65 68//68 67//67
f 67//67 69//69 65//65
f 66//66 72//72 68//68
f 70//70 66//66 69//69
f 70//70 72//72 66//66
f 68//68 72//72 67//67
f 71//71 69//69 67//67
f 67//67 72//72 71//71
f 71//71 70//70 69//69
f 72//72 70//70 71//71
f 74//74 76//76 73//73
f 77//77 74//74 73//73
f 73//73 76//76 75//75
f 75//75 77//77 73//73
f 74//74 80//80 76//76
f 78//78 74//74 77//77
f 78//78 80//80 74//74
f 76//76 80//80 75//75
f 79//79 77//77 75//75
f 75//75 80//80 79//79
f 79//79 78//78 77//77
f 80//80 78//78 79//79
f 82//82 84//84 81//81
f 85//85 82//82 81//81
f 81//81 84//84 83//83
f 83//83 85//85 81//81
f 82//82 88//88 84//84
f 86//86 82//82 85//85
f 86//86 88//88 82//82
f 84//84 88//88 83//83
f 87//87 85//85 83//83
f 83//83 88//88 87//87
f 87//87 86//86 85//85
f 88//88 86//86 87//87
f 90//90 92//92 89//89
f 93//93 90//90 89//89
f 89//89 92//92 91//91
f 91//91 93//93 89//89
f 90//90 96//96 92//92
f 94//94 90//90 93//93
f 94//94 96//96 90//90
f 92//92 96//96 91//91
f 95//95 93//93 91//91
f 91//91 96//96 95//95
f 95//95 94//94 93//93
f 96//96 94//94 95//95
f 98//98 100//100 97//97
f 101//101 98//98 97//97
f 97//97 100//100 99//99
f 99//99 101//101 97//97
f 98//98 104//104 100//100
f 102//102 98//98 101//101
f 102//102 104//104 98//98
f 100//100 104//104 99//99
f 103//103 101//101 99//99
f 99//99 104//104 103//103
f 103//103 102//102 101//101
f 104//104 102//102 103//103
f 106//106 108//108 105//105
f 109//109 106//106 105//105
f 105//105 108//108 107//107
f 107//107 109//109 105//105
f 106//106 112//112 108//108
f 110//110 106//106 109//109
f 110//110 112//112 106//106
f 108//108 112//112 107//107
f 111//111 109//109 107//107
f 107//107 112//112 111//111
f 111//111 110//110 109//109
f 112//112 110//110 111//111
f 114//114 113//113 117//117
f 114//114 117//117 115//115
f 115//115 117//117 118//118
f 115//115 118//118 116//116
f 117//117 113//113 119//119
f 117//117 119//119 118//118
f 118//118 119//119 120//120
f 118//118 120//120 116//116
f 119//119 113//113 121//121
f 119//119 121//121 120//120
f 120//120 121//121 122//122
f 120//120 122//122 116//116
f 121//121 113//113 123//123
f 121//121 123//123 122//122
f 122//122 123//123 124//124
f 122//122 124//124 116//116
f 123//123 113//113 125//125
f 123//123 125//125 124//124
f 124//124 125//125 126//126
f 124//124 126//126 116//116
f 125//125 113//113 127//127
f 125//125 127//127 126//126
f 126//126 127//127 128//128
f 126//126 128//128 116//116
f 127//127 113//113 129//129
f 127//127 129//129 128//128
f 128//128 129//129 130//130
f 128//128 130//130 116//116
f 129//129 113//113 114//114
f 129//129 114//114 130//130
f 130//130 114//114 115//115
f 130//130 115//115 116//116
f 132//132 131//131 135//135
f 132//132 135//135 133//133
f 133//133 135//135 136//136
f 133//133 136//136 134//134
f 135//135 131//131 137//137
f 135//135 137//137 136//136
f 136//136 137//137 138//138
f 136//136 138//138 134//134
f 137//137 131//131 139//139
f 137//137 139//139 138//138
f 138//138 139//139 140//140
f 138//138 140//140 134//134
f 139//139 131//131 141//141
f 139//139 141//141 140//140
f 140//140 141//141 142//142
f 140//140 142//142 134//134
f 141//141 131//131 143//143
f 141//141 143//143 142//142
f 142//142 143//143 144//144
f 142//142 144//144 134//134
f 143//143 131//131 145//145
f 143//143 145//145 144//144
f 144//144 145//145 146//146
f 144//144 146//146 134//134
f 145//145 131//131 147//147
f 145//145 147//147 146//146
f 146//146 147//147 148//148
f 146//146 148//148 134//134
f 147//147 131//131 132//132
f 147//147 132//132 148//148
f 148//148 132//132 133//133
f 148//148 133//133 134//134
f 150//150 149//149 153//153
f 150//150 153//153 151//151
f 151//151 153//153 154//154
f 151//151 154//154 152//152
f 153//153 149//149 155//155
f 153//153 155//155 154//154
f 154//154 155//155 156//156
f 154//154 156//156 152//152
f 155//155 149//149 157//157
f 155//155 157//157 156//156
f 156//156 157//157 158//158
f 156//156 158//158 152//152
f 157//157 149//149 159//159
f 157//157 159//159 158//158
f 158//158 159//159 160//160
f 158//158 160//160 152//152
f 159//159 149//149 161//161
f 159//159 161//161 160//160
f 160//160 161//161 162//162
f 160//160 162//162 152//152
f 161//161 149//149 163//163
f 161//161 163//163 162//162
f 162//162 163//163 164//164
f 162//162 164//164 152//152
f 163//163 149//149 165//165
f 163//163 165//165 164//164
f 164//164 165//165 166//166
f 164//164 166//166 152//152
f 165//165 149//149 150//150
f 165//165 150//150 166//166
f 166//166 150//150 151//151
f 166//166 151//151 152//152
f 168//168 167//167 171//171
f 168//168 171//171 169//169
f 169//169 171//171 172//172
f 169//169 172//172 170//170
f 171//171 167//167 173//173
f 171//171 173//173 172//172
f 172//172 173//173 174//174
f 172//172 174//174 170//170
f 173//173 167//167 175//175
f 173//173 175//175 174//174
f 174//174 175//175 176//176
f 174//174 176//176 170//170
f 175//175 167//167 177//177
f 175//175 177//177 176//176
f 176//176 177//177 178//178
f 176//176 178//178 170//170
f 177//177 167//167 179//179
f 177//177 179//179 178//178
f 178//178 179//179 180//180
f 178//178 180//180 170//170
f 179//179 167//167 181//181
f 179//179 181//181 180//180
f 180//180 181//181 182//182
f 180//180 182//182 170//170
f 181//181 167//167 183//183
f 181//181 183//183 182//182
f 182//182 183//183 184//184
f 182//182 184//184 170//170
f 183//183 167//167 168//168
f 183//183 168//168 184//184
f 184//184 168//168 169//169
f 184//184 169//169 170//170

