# https://github.com/mikedh/trimesh
v 0.00000000 0.68000000 -0.67500000
v 0.06000000 0.68000000 -0.67500000
v 0.06000000 0.68000000 0.67500000
v 0.00000000 0.68000000 0.67500000
v 0.05196152 0.71000000 -0.67500000
v 0.05196152 0.71000000 0.67500000
v 0.03000000 0.73196152 -0.67500000
v 0.03000000 0.73196152 0.67500000
v 0.00000000 0.74000000 -0.67500000
v 0.00000000 0.74000000 0.67500000
v -0.03000000 0.73196152 -0.67500000
v -0.03000000 0.73196152 0.67500000
v -0.05196152 0.71000000 -0.67500000
v -0.05196152 0.71000000 0.67500000
v -0.06000000 0.68000000 -0.67500000
v -0.06000000 0.68000000 0.67500000
v -0.05196152 0.65000000 -0.67500000
v -0.05196152 0.65000000 0.67500000
v -0.03000000 0.62803848 -0.67500000
v -0.03000000 0.62803848 0.67500000
v -0.00000000 0.62000000 -0.67500000
v -0.00000000 0.62000000 0.67500000
v 0.03000000 0.62803848 -0.67500000
v 0.03000000 0.62803848 0.67500000
v 0.05196152 0.65000000 -0.67500000
v 0.05196152 0.65000000 0.67500000
v -0.39429833 1.71599505 0.08641882
v 0.39429833 1.71599505 0.08641882
v -0.39429833 1.38400495 -0.08641882
v 0.39429833 1.38400495 -0.08641882
v 0.00000000 1.15279980 0.51248244
v 0.00000000 1.35798096 0.61930198
v 0.00000000 1.74201904 -0.61930198
v 0.00000000 1.94720020 -0.51248244
v 0.63798811 1.73207876 -0.34974062
v 0.63798811 1.36792124 0.34974062
v -0.63798811 1.73207876 -0.34974062
v -0.63798811 1.36792124 0.34974062
v 0.00000000 1.74513888 0.10159142
v 0.00000000 1.35486112 -0.10159142
v -0.23176275 1.21896214 0.25043391
v 0.23176275 1.21896214 0.25043391
v -0.23176275 1.53470348 0.41481228
v 0.23176275 1.53470348 0.41481228
v 0.00000000 1.20366562 0.66524619
v -0.23176275 1.56529652 -0.41481228
v 0.23176275 1.56529652 -0.41481228
v -0.23176275 1.88103786 -0.25043391
v 0.23176275 1.88103786 -0.25043391
v 0.00000000 1.89633438 -0.66524619
v 0.60676275 1.75459265 -0.15477667
v 0.60676275 1.55945377 -0.25636809
v 0.37500000 1.76988917 -0.56958895
v 0.37500000 1.89049163 -0.50680200
v 0.60676275 1.54054623 0.25636809
v 0.60676275 1.34540735 0.15477667
v 0.37500000 1.20950837 0.50680200
v 0.37500000 1.33011083 0.56958895
v 0.75000000 1.55000000 0.00000000
v -0.60676275 1.75459265 -0.15477667
v -0.60676275 1.55945377 -0.25636809
v -0.37500000 1.76988917 -0.56958895
v -0.37500000 1.89049163 -0.50680200
v -0.60676275 1.54054623 0.25636809
v -0.60676275 1.34540735 0.15477667
v -0.37500000 1.20950837 0.50680200
v -0.37500000 1.33011083 0.56958895
v -0.75000000 1.55000000 0.00000000
v -0.20494990 1.73771158 0.09772468
v 0.20494990 1.73771158 0.09772468
v -0.20494990 1.36228842 -0.09772468
v 0.20494990 1.36228842 -0.09772468
v -0.32541642 1.29165033 0.08525239
v -0.12046653 1.17147363 0.39655158
v -0.12184489 1.27337251 0.07825113
v 0.32541642 1.29165033 0.08525239
v 0.12046653 1.17147363 0.39655158
v 0.12184489 1.27337251 0.07825113
v 0.00000000 1.20192619 0.26332180
v -0.32541642 1.62833066 0.26053182
v -0.12046653 1.44224073 0.53751587
v -0.12184489 1.64454873 0.27148949
v 0.32541642 1.62833066 0.26053182
v 0.12046653 1.44224073 0.53751587
v 0.12184489 1.64454873 0.27148949
v 0.00000000 1.53391629 0.43615944
v 0.00000000 1.16352275 0.61216430
v 0.00000000 1.27017260 0.66768736
v -0.32541642 1.47166934 -0.26053182
v -0.12046653 1.65775927 -0.53751587
v -0.12184489 1.45545127 -0.27148949
v 0.32541642 1.47166934 -0.26053182
v 0.12046653 1.65775927 -0.53751587
v 0.12184489 1.45545127 -0.27148949
v 0.00000000 1.56608371 -0.43615944
v -0.32541642 1.80834967 -0.08525239
v -0.12046653 1.92852637 -0.39655158
v -0.12184489 1.82662749 -0.07825113
v 0.32541642 1.80834967 -0.08525239
v 0.12046653 1.92852637 -0.39655158
v 0.12184489 1.82662749 -0.07825113
v 0.00000000 1.89807381 -0.26332180
v 0.00000000 1.82982740 -0.66768736
v 0.00000000 1.93647725 -0.61216430
v 0.52033536 1.74262549 -0.03553130
v 0.64700136 1.75098555 -0.26223993
v 0.44083894 1.83159763 -0.21303181
v 0.52033536 1.46863237 -0.17817509
v 0.64700136 1.64955551 -0.31504550
v 0.44083894 1.56301200 -0.35286040
v 0.19491893 1.76410322 -0.61796628
v 0.52653483 1.75893643 -0.47785264
v 0.31899405 1.67364443 -0.51753035
v 0.19714917 1.84768134 -0.64919125
v 0.51614322 1.67057272 -0.43423131
v 0.19491893 1.93344028 -0.52980757
v 0.52653483 1.82162364 -0.44521700
v 0.31899405 1.90304395 -0.39810248
v 0.19714917 1.91108580 -0.61618220
v 0.51614322 1.83656777 -0.34781249
v 0.39429833 1.84460962 -0.56589221
v 0.52033536 1.63136763 0.17817509
v 0.64700136 1.45044449 0.31504550
v 0.44083894 1.53698800 0.35286040
v 0.63798811 1.65259058 0.05340977
v 0.52033536 1.35737451 0.03553130
v 0.64700136 1.34901445 0.26223993
v 0.44083894 1.26840237 0.21303181
v 0.63798811 1.44740942 -0.05340977
v 0.19491893 1.16655972 0.52980757
v 0.52653483 1.27837636 0.44521700
v 0.31899405 1.19695605 0.39810248
v 0.19714917 1.18891420 0.61618220
v 0.51614322 1.26343223 0.34781249
v 0.19491893 1.33589678 0.61796628
v 0.52653483 1.34106357 0.47785264
v 0.31899405 1.42635557 0.51753035
v 0.19714917 1.25231866 0.64919125
v 0.51614322 1.42942728 0.43423131
v 0.39429833 1.25539038 0.56589221
v 0.72145377 1.64464159 -0.18178952
v 0.72145377 1.45535841 0.18178952
v 0.71329239 1.65756072 -0.08137091
v 0.71329239 1.55497014 -0.13478068
v 0.71329239 1.54502986 0.13478068
v 0.71329239 1.44243928 0.08137091
v -0.52033536 1.74262549 -0.03553130
v -0.64700136 1.75098555 -0.26223993
v -0.44083894 1.83159763 -0.21303181
v -0.52033536 1.46863237 -0.17817509
v -0.64700136 1.64955551 -0.31504550
v -0.44083894 1.56301200 -0.35286040
v -0.19491893 1.76410322 -0.61796628
v -0.52653483 1.75893643 -0.47785264
v -0.31899405 1.67364443 -0.51753035
v -0.19714917 1.84768134 -0.64919125
v -0.51614322 1.67057272 -0.43423131
v -0.19491893 1.93344028 -0.52980757
v -0.52653483 1.82162364 -0.44521700
v -0.31899405 1.90304395 -0.39810248
v -0.19714917 1.91108580 -0.61618220
v -0.51614322 1.83656777 -0.34781249
v -0.39429833 1.84460962 -0.56589221
v -0.52033536 1.63136763 0.17817509
v -0.64700136 1.45044449 0.31504550
v -0.44083894 1.53698800 0.35286040
v -0.63798811 1.65259058 0.05340977
v -0.52033536 1.35737451 0.03553130
v -0.64700136 1.34901445 0.26223993
v -0.44083894 1.26840237 0.21303181
v -0.63798811 1.44740942 -0.05340977
v -0.19491893 1.16655972 0.52980757
v -0.52653483 1.27837636 0.44521700
v -0.31899405 1.19695605 0.39810248
v -0.19714917 1.18891420 0.61618220
v -0.51614322 1.26343223 0.34781249
v -0.19491893 1.33589678 0.61796628
v -0.52653483 1.34106357 0.47785264
v -0.31899405 1.42635557 0.51753035
v -0.19714917 1.25231866 0.64919125
v -0.51614322 1.42942728 0.43423131
v -0.39429833 1.25539038 0.56589221
v -0.72145377 1.64464159 -0.18178952
v -0.72145377 1.45535841 0.18178952
v -0.71329239 1.65756072 -0.08137091
v -0.71329239 1.55497014 -0.13478068
v -0.71329239 1.54502986 0.13478068
v -0.71329239 1.44243928 0.08137091
v -0.30251651 1.72856055 0.09296056
v -0.10346418 1.74327314 0.10062009
v 0.30251651 1.72856055 0.09296056
v 0.10346418 1.74327314 0.10062009
v -0.30251651 1.37143945 -0.09296056
v -0.10346418 1.35672686 -0.10062009
v 0.30251651 1.37143945 -0.09296056
v 0.10346418 1.35672686 -0.10062009
v -0.36333123 1.33577945 -0.00058885
v -0.28127893 1.25246143 0.16946341
v -0.26867160 1.32403545 -0.00631818
v -0.06081472 1.15839251 0.45890465
v -0.17781474 1.19179302 0.32661556
v -0.06168185 1.31117650 -0.01181561
v -0.17900770 1.24238001 0.16639107
v -0.16508777 1.31542863 -0.00983751
v -0.22594416 1.27974420 0.08259750
v 0.36333123 1.33577945 -0.00058885
v 0.28127893 1.25246143 0.16946341
v 0.26867160 1.32403545 -0.00631818
v 0.06081472 1.15839251 0.45890465
v 0.17781474 1.19179302 0.32661556
v 0.00000000 1.16649419 0.40176814
v 0.06168185 1.31117650 -0.01181561
v 0.17900770 1.24238001 0.16639107
v 0.16508777 1.31542863 -0.00983751
v 0.00000000 1.26964808 0.07930468
v 0.22594416 1.27974420 0.08259750
v -0.11732585 1.20621156 0.26007987
v 0.11732585 1.20621156 0.26007987
v -0.06085639 1.18294150 0.33334995
v -0.06174269 1.23344395 0.17308588
v 0.06085639 1.18294150 0.33334995
v 0.06174269 1.23344395 0.17308588
v -0.36333123 1.67334214 0.17514995
v -0.28127893 1.58182132 0.34093174
v -0.26867160 1.68477099 0.18148465
v -0.06081472 1.39866390 0.58399255
v -0.17781474 1.48787815 0.48076068
v -0.06168185 1.69664930 0.18886570
v -0.17900770 1.59012005 0.34742830
v -0.16508777 1.69259017 0.18651688
v -0.22594416 1.63733393 0.26876259
v 0.36333123 1.67334214 0.17514995
v 0.28127893 1.58182132 0.34093174
v 0.26867160 1.68477099 0.18148465
v 0.06081472 1.39866390 0.58399255
v 0.17781474 1.48787815 0.48076068
v 0.00000000 1.44082317 0.54458679
v 0.06168185 1.69664930 0.18886570
v 0.17900770 1.59012005 0.34742830
v 0.16508777 1.69259017 0.18651688
v 0.00000000 1.64582170 0.27514475
v 0.22594416 1.63733393 0.26876259
v -0.11732585 1.53411431 0.43078960
v 0.11732585 1.53411431 0.43078960
v -0.06085639 1.48743792 0.49187409
v -0.06174269 1.58976072 0.35858826
v 0.06085639 1.48743792 0.49187409
v 0.06174269 1.58976072 0.35858826
v 0.00000000 1.15437869 0.56775171
v 0.00000000 1.18005712 0.64487093
v 0.00000000 1.31179931 0.64970659
v 0.00000000 1.23389681 0.67290046
v -0.36333123 1.42665786 -0.17514995
v -0.28127893 1.51817868 -0.34093174
v -0.26867160 1.41522901 -0.18148465
v -0.06081472 1.70133610 -0.58399255
v -0.17781474 1.61212185 -0.48076068
v -0.06168185 1.40335070 -0.18886570
v -0.17900770 1.50987995 -0.34742830
v -0.16508777 1.40740983 -0.18651688
v -0.22594416 1.46266607 -0.26876259
v 0.36333123 1.42665786 -0.17514995
v 0.28127893 1.51817868 -0.34093174
v 0.26867160 1.41522901 -0.18148465
v 0.06081472 1.70133610 -0.58399255
v 0.17781474 1.61212185 -0.48076068
v 0.00000000 1.65917683 -0.54458679
v 0.06168185 1.40335070 -0.18886570
v 0.17900770 1.50987995 -0.34742830
v 0.16508777 1.40740983 -0.18651688
v 0.00000000 1.45417830 -0.27514475
v 0.22594416 1.46266607 -0.26876259
v -0.11732585 1.56588569 -0.43078960
v 0.11732585 1.56588569 -0.43078960
v -0.06085639 1.61256208 -0.49187409
v -0.06174269 1.51023928 -0.35858826
v 0.06085639 1.61256208 -0.49187409
v 0.06174269 1.51023928 -0.35858826
v -0.36333123 1.76422055 0.00058885
v -0.28127893 1.84753857 -0.16946341
v -0.26867160 1.77596455 0.00631818
v -0.06081472 1.94160749 -0.45890465
v -0.17781474 1.90820698 -0.32661556
v -0.06168185 1.78882350 0.01181561
v -0.17900770 1.85761999 -0.16639107
v -0.16508777 1.78457137 0.00983751
v -0.22594416 1.82025580 -0.08259750
v 0.36333123 1.76422055 0.00058885
v 0.28127893 1.84753857 -0.16946341
v 0.26867160 1.77596455 0.00631818
v 0.06081472 1.94160749 -0.45890465
v 0.17781474 1.90820698 -0.32661556
v 0.00000000 1.93350581 -0.40176814
v 0.06168185 1.78882350 0.01181561
v 0.17900770 1.85761999 -0.16639107
v 0.16508777 1.78457137 0.00983751
v 0.00000000 1.83035192 -0.07930468
v 0.22594416 1.82025580 -0.08259750
v -0.11732585 1.89378844 -0.26007987
v 0.11732585 1.89378844 -0.26007987
v -0.06085639 1.91705850 -0.33334995
v -0.06174269 1.86655605 -0.17308588
v 0.06085639 1.91705850 -0.33334995
v 0.06174269 1.86655605 -0.17308588
v 0.00000000 1.78820069 -0.64970659
v 0.00000000 1.86610319 -0.67290046
v 0.00000000 1.94562131 -0.56775171
v 0.00000000 1.91994288 -0.64487093
v 0.46173152 1.73104123 0.02568938
v 0.56898923 1.75052633 -0.09607255
v 0.42843874 1.77845383 -0.06118629
v 0.64869700 1.74338109 -0.30894413
v 0.63293361 1.75474671 -0.21052112
v 0.34049287 1.86013603 -0.23462144
v 0.53033009 1.79612535 -0.18619663
v 0.38709122 1.82276658 -0.15068501
v 0.48555892 1.78956453 -0.12556727
v 0.46173152 1.42512472 -0.13357407
v 0.56898923 1.51369596 -0.21936900
v 0.42843874 1.46910046 -0.22223901
v 0.64869700 1.69217650 -0.33560179
v 0.63293361 1.60503080 -0.28846484
v 0.34049287 1.56433069 -0.38862091
v 0.53033009 1.56137290 -0.30841130
v 0.38709122 1.51700280 -0.30986894
v 0.48555892 1.51546861 -0.26826458
v 0.09840028 1.75502137 -0.62460606
v 0.28771030 1.76909095 -0.59950960
v 0.15976715 1.71304827 -0.58534115
v 0.09874153 1.80021410 -0.65128309
v 0.58788228 1.74739491 -0.41779118
v 0.45511886 1.76648261 -0.52877649
v 0.59448692 1.70627505 -0.40166429
v 0.27881103 1.62033643 -0.47198220
v 0.35132239 1.72390790 -0.55033519
v 0.22200344 1.66689881 -0.53298044
v 0.38503158 1.61924817 -0.44105472
v 0.25961476 1.72062086 -0.57362179
v 0.09980333 1.87602173 -0.66541104
v 0.28964054 1.81201104 -0.61698623
v 0.09959436 1.84174159 -0.66525100
v 0.19806206 1.80853954 -0.64013327
v 0.56845157 1.61582364 -0.34960390
v 0.45112572 1.72235289 -0.50816650
v 0.58758877 1.66120275 -0.37851412
v 0.48493334 1.61769163 -0.39884444
v 0.52673239 1.71645899 -0.46075982
v 0.42319066 1.67375261 -0.48228795
v 0.09840028 1.94408817 -0.52617583
v 0.28771030 1.91546017 -0.52330819
v 0.15976715 1.93599509 -0.46927261
v 0.09874153 1.94002283 -0.57849714
v 0.58788228 1.77904109 -0.40131584
v 0.45511886 1.85901214 -0.48060462
v 0.59448692 1.78941313 -0.35838170
v 0.53346130 1.79344087 -0.46760623
v 0.27881103 1.89630449 -0.32831024
v 0.35132239 1.90109029 -0.45809211
v 0.22200344 1.91956928 -0.40143746
v 0.38503158 1.87159310 -0.30968121
v 0.25961476 1.92205166 -0.46875473
v 0.09980333 1.90811913 -0.64870078
v 0.28964054 1.90516134 -0.56849117
v 0.09959436 1.92764837 -0.62052699
v 0.19980353 1.88381829 -0.64120504
v 0.19806206 1.92611418 -0.57892263
v 0.56845157 1.79864140 -0.25442700
v 0.45112572 1.86743789 -0.43263368
v 0.58758877 1.79629857 -0.30818177
v 0.48493334 1.83790750 -0.28419767
v 0.52673239 1.83198300 -0.40061677
v 0.42319066 1.87411163 -0.37797887
v 0.38944387 1.81045604 -0.57481754
v 0.38944387 1.87150894 -0.54303274
v 0.46517969 1.80437767 -0.52727130
v 0.29970529 1.85013270 -0.61572150
v 0.46517969 1.83604553 -0.51078467
v 0.29970529 1.88226176 -0.59899476
v 0.46173152 1.67487528 0.13357407
v 0.56898923 1.58630404 0.21936900
v 0.42843874 1.63089954 0.22223901
v 0.52718027 1.68879872 0.07226012
v 0.64869700 1.40782350 0.33560179
v 0.63293361 1.49496920 0.28846484
v 0.34049287 1.53566931 0.38862091
v 0.53033009 1.53862710 0.30841130
v 0.38709122 1.58299720 0.30986894
v 0.48555892 1.58453139 0.26826458
v 0.63013341 1.70550616 -0.05131523
v 0.63013341 1.59714889 0.15681964
v 0.58515328 1.69913507 0.00903171
v 0.58515328 1.64293065 0.11699033
v 0.46173152 1.36895877 -0.02568938
v 0.56898923 1.34947367 0.09607255
v 0.42843874 1.32154617 0.06118629
v 0.52718027 1.41120128 -0.07226012
v 0.64869700 1.35661891 0.30894413
v 0.63293361 1.34525329 0.21052112
v 0.34049287 1.23986397 0.23462144
v 0.53033009 1.30387465 0.18619663
v 0.38709122 1.27723342 0.15068501
v 0.48555892 1.31043547 0.12556727
v 0.63013341 1.50285111 -0.15681964
v 0.63013341 1.39449384 0.05131523
v 0.58515328 1.45706935 -0.11699033
v 0.58515328 1.40086493 -0.00903171
v 0.09840028 1.15591183 0.52617583
v 0.28771030 1.18453983 0.52330819
v 0.15976715 1.16400491 0.46927261
v 0.09874153 1.15997717 0.57849714
v 0.58788228 1.32095891 0.40131584
v 0.45511886 1.24098786 0.48060462
v 0.59448692 1.31058687 0.35838170
v 0.27881103 1.20369551 0.32831024
v 0.35132239 1.19890971 0.45809211
v 0.22200344 1.18043072 0.40143746
v 0.38503158 1.22840690 0.30968121
v 0.25961476 1.17794834 0.46875473
v 0.09980333 1.19188087 0.64870078
v 0.28964054 1.19483866 0.56849117
v 0.09959436 1.17235163 0.62052699
v 0.19806206 1.17388582 0.57892263
v 0.56845157 1.30135860 0.25442700
v 0.45112572 1.23256211 0.43263368
v 0.58758877 1.30370143 0.30818177
v 0.48493334 1.26209250 0.28419767
v 0.52673239 1.26801700 0.40061677
v 0.42319066 1.22588837 0.37797887
v 0.09840028 1.34497863 0.62460606
v 0.28771030 1.33090905 0.59950960
v 0.15976715 1.38695173 0.58534115
v 0.09874153 1.29978590 0.65128309
v 0.58788228 1.35260509 0.41779118
v 0.45511886 1.33351739 0.52877649
v 0.59448692 1.39372495 0.40166429
v 0.53346130 1.30655913 0.46760623
v 0.27881103 1.47966357 0.47198220
v 0.35132239 1.37609210 0.55033519
v 0.22200344 1.43310119 0.53298044
v 0.38503158 1.48075183 0.44105472
v 0.25961476 1.37937914 0.57362179
v 0.09980333 1.22397827 0.66541104
v 0.28964054 1.28798896 0.61698623
v 0.09959436 1.25825841 0.66525100
v 0.19980353 1.21618171 0.64120504
v 0.19806206 1.29146046 0.64013327
v 0.56845157 1.48417636 0.34960390
v 0.45112572 1.37764711 0.50816650
v 0.58758877 1.43879725 0.37851412
v 0.48493334 1.48230837 0.39884444
v 0.52673239 1.38354101 0.46075982
v 0.42319066 1.42624739 0.48228795
v 0.38944387 1.22849106 0.54303274
v 0.38944387 1.28954396 0.57481754
v 0.46517969 1.26395447 0.51078467
v 0.29970529 1.21773824 0.59899476
v 0.46517969 1.29562233 0.52727130
v 0.29970529 1.24986730 0.61572150
v 0.68628257 1.68969583 -0.26833061
v 0.74282916 1.59777760 -0.09177220
v 0.69322845 1.69975803 -0.22493528
v 0.69322845 1.64837587 -0.25168540
v 0.68628257 1.41030417 0.26833061
v 0.74282916 1.50222240 0.09177220
v 0.69322845 1.45162413 0.25168540
v 0.69322845 1.40024197 0.22493528
v 0.66825489 1.70802220 -0.11954559
v 0.74076626 1.60445074 -0.04119260
v 0.68718313 1.70586912 -0.17358278
v 0.68473687 1.65649036 -0.01416880
v 0.72479445 1.65214707 -0.13294144
v 0.66825489 1.55730185 -0.19801224
v 0.74076626 1.55251605 -0.06823037
v 0.68718313 1.60280349 -0.22723986
v 0.68473687 1.50053261 -0.09536210
v 0.72479445 1.60032112 -0.15992259
v 0.66825489 1.54269815 0.19801224
v 0.74076626 1.54748395 0.06823037
v 0.68718313 1.49719651 0.22723986
v 0.68473687 1.59946739 0.09536210
v 0.72479445 1.49967888 0.15992259
v 0.72289595 1.60198592 0.02706443
v 0.66825489 1.39197780 0.11954559
v 0.74076626 1.49554926 0.04119260
v 0.68718313 1.39413088 0.17358278
v 0.68473687 1.44350964 0.01416880
v 0.72479445 1.44785293 0.13294144
v 0.72289595 1.49801408 -0.02706443
v -0.46173152 1.73104123 0.02568938
v -0.56898923 1.75052633 -0.09607255
v -0.42843874 1.77845383 -0.06118629
v -0.64869700 1.74338109 -0.30894413
v -0.63293361 1.75474671 -0.21052112
v -0.34049287 1.86013603 -0.23462144
v -0.53033009 1.79612535 -0.18619663
v -0.38709122 1.82276658 -0.15068501
v -0.48555892 1.78956453 -0.12556727
v -0.46173152 1.42512472 -0.13357407
v -0.56898923 1.51369596 -0.21936900
v -0.42843874 1.46910046 -0.22223901
v -0.64869700 1.69217650 -0.33560179
v -0.63293361 1.60503080 -0.28846484
v -0.34049287 1.56433069 -0.38862091
v -0.53033009 1.56137290 -0.30841130
v -0.38709122 1.51700280 -0.30986894
v -0.48555892 1.51546861 -0.26826458
v -0.09840028 1.75502137 -0.62460606
v -0.28771030 1.76909095 -0.59950960
v -0.15976715 1.71304827 -0.58534115
v -0.09874153 1.80021410 -0.65128309
v -0.58788228 1.74739491 -0.41779118
v -0.45511886 1.76648261 -0.52877649
v -0.59448692 1.70627505 -0.40166429
v -0.27881103 1.62033643 -0.47198220
v -0.35132239 1.72390790 -0.55033519
v -0.22200344 1.66689881 -0.53298044
v -0.38503158 1.61924817 -0.44105472
v -0.25961476 1.72062086 -0.57362179
v -0.09980333 1.87602173 -0.66541104
v -0.28964054 1.81201104 -0.61698623
v -0.09959436 1.84174159 -0.66525100
v -0.19806206 1.80853954 -0.64013327
v -0.56845157 1.61582364 -0.34960390
v -0.45112572 1.72235289 -0.50816650
v -0.58758877 1.66120275 -0.37851412
v -0.48493334 1.61769163 -0.39884444
v -0.52673239 1.71645899 -0.46075982
v -0.42319066 1.67375261 -0.48228795
v -0.09840028 1.94408817 -0.52617583
v -0.28771030 1.91546017 -0.52330819
v -0.15976715 1.93599509 -0.46927261
v -0.09874153 1.94002283 -0.57849714
v -0.58788228 1.77904109 -0.40131584
v -0.45511886 1.85901214 -0.48060462
v -0.59448692 1.78941313 -0.35838170
v -0.53346130 1.79344087 -0.46760623
v -0.27881103 1.89630449 -0.32831024
v -0.35132239 1.90109029 -0.45809211
v -0.22200344 1.91956928 -0.40143746
v -0.38503158 1.87159310 -0.30968121
v -0.25961476 1.92205166 -0.46875473
v -0.09980333 1.90811913 -0.64870078
v -0.28964054 1.90516134 -0.56849117
v -0.09959436 1.92764837 -0.62052699
v -0.19980353 1.88381829 -0.64120504
v -0.19806206 1.92611418 -0.57892263
v -0.56845157 1.79864140 -0.25442700
v -0.45112572 1.86743789 -0.43263368
v -0.58758877 1.79629857 -0.30818177
v -0.48493334 1.83790750 -0.28419767
v -0.52673239 1.83198300 -0.40061677
v -0.42319066 1.87411163 -0.37797887
v -0.38944387 1.81045604 -0.57481754
v -0.38944387 1.87150894 -0.54303274
v -0.46517969 1.80437767 -0.52727130
v -0.29970529 1.85013270 -0.61572150
v -0.46517969 1.83604553 -0.51078467
v -0.29970529 1.88226176 -0.59899476
v -0.46173152 1.67487528 0.13357407
v -0.56898923 1.58630404 0.21936900
v -0.42843874 1.63089954 0.22223901
v -0.52718027 1.68879872 0.07226012
v -0.64869700 1.40782350 0.33560179
v -0.63293361 1.49496920 0.28846484
v -0.34049287 1.53566931 0.38862091
v -0.53033009 1.53862710 0.30841130
v -0.38709122 1.58299720 0.30986894
v -0.48555892 1.58453139 0.26826458
v -0.63013341 1.70550616 -0.05131523
v -0.63013341 1.59714889 0.15681964
v -0.58515328 1.69913507 0.00903171
v -0.58515328 1.64293065 0.11699033
v -0.46173152 1.36895877 -0.02568938
v -0.56898923 1.34947367 0.09607255
v -0.42843874 1.32154617 0.06118629
v -0.52718027 1.41120128 -0.07226012
v -0.64869700 1.35661891 0.30894413
v -0.63293361 1.34525329 0.21052112
v -0.34049287 1.23986397 0.23462144
v -0.53033009 1.30387465 0.18619663
v -0.38709122 1.27723342 0.15068501
v -0.48555892 1.31043547 0.12556727
v -0.63013341 1.50285111 -0.15681964
v -0.63013341 1.39449384 0.05131523
v -0.58515328 1.45706935 -0.11699033
v -0.58515328 1.40086493 -0.00903171
v -0.09840028 1.15591183 0.52617583
v -0.28771030 1.18453983 0.52330819
v -0.15976715 1.16400491 0.46927261
v -0.09874153 1.15997717 0.57849714
v -0.58788228 1.32095891 0.40131584
v -0.45511886 1.24098786 0.48060462
v -0.59448692 1.31058687 0.35838170
v -0.27881103 1.20369551 0.32831024
v -0.35132239 1.19890971 0.45809211
v -0.22200344 1.18043072 0.40143746
v -0.38503158 1.22840690 0.30968121
v -0.25961476 1.17794834 0.46875473
v -0.09980333 1.19188087 0.64870078
v -0.28964054 1.19483866 0.56849117
v -0.09959436 1.17235163 0.62052699
v -0.19806206 1.17388582 0.57892263
v -0.56845157 1.30135860 0.25442700
v -0.45112572 1.23256211 0.43263368
v -0.58758877 1.30370143 0.30818177
v -0.48493334 1.26209250 0.28419767
v -0.52673239 1.26801700 0.40061677
v -0.42319066 1.22588837 0.37797887
v -0.09840028 1.34497863 0.62460606
v -0.28771030 1.33090905 0.59950960
v -0.15976715 1.38695173 0.58534115
v -0.09874153 1.29978590 0.65128309
v -0.58788228 1.35260509 0.41779118
v -0.45511886 1.33351739 0.52877649
v -0.59448692 1.39372495 0.40166429
v -0.53346130 1.30655913 0.46760623
v -0.27881103 1.47966357 0.47198220
v -0.35132239 1.37609210 0.55033519
v -0.22200344 1.43310119 0.53298044
v -0.38503158 1.48075183 0.44105472
v -0.25961476 1.37937914 0.57362179
v -0.09980333 1.22397827 0.66541104
v -0.28964054 1.28798896 0.61698623
v -0.09959436 1.25825841 0.66525100
v -0.19980353 1.21618171 0.64120504
v -0.19806206 1.29146046 0.64013327
v -0.56845157 1.48417636 0.34960390
v -0.45112572 1.37764711 0.50816650
v -0.58758877 1.43879725 0.37851412
v -0.48493334 1.48230837 0.39884444
v -0.52673239 1.38354101 0.46075982
v -0.42319066 1.42624739 0.48228795
v -0.38944387 1.22849106 0.54303274
v -0.38944387 1.28954396 0.57481754
v -0.46517969 1.26395447 0.51078467
v -0.29970529 1.21773824 0.59899476
v -0.46517969 1.29562233 0.52727130
v -0.29970529 1.24986730 0.61572150
v -0.68628257 1.68969583 -0.26833061
v -0.74282916 1.59777760 -0.09177220
v -0.69322845 1.69975803 -0.22493528
v -0.69322845 1.64837587 -0.25168540
v -0.68628257 1.41030417 0.26833061
v -0.74282916 1.50222240 0.09177220
v -0.69322845 1.45162413 0.25168540
v -0.69322845 1.40024197 0.22493528
v -0.66825489 1.70802220 -0.11954559
v -0.74076626 1.60445074 -0.04119260
v -0.68718313 1.70586912 -0.17358278
v -0.68473687 1.65649036 -0.01416880
v -0.72479445 1.65214707 -0.13294144
v -0.66825489 1.55730185 -0.19801224
v -0.74076626 1.55251605 -0.06823037
v -0.68718313 1.60280349 -0.22723986
v -0.68473687 1.50053261 -0.09536210
v -0.72479445 1.60032112 -0.15992259
v -0.66825489 1.54269815 0.19801224
v -0.74076626 1.54748395 0.06823037
v -0.68718313 1.49719651 0.22723986
v -0.68473687 1.59946739 0.09536210
v -0.72479445 1.49967888 0.15992259
v -0.72289595 1.60198592 0.02706443
v -0.66825489 1.39197780 0.11954559
v -0.74076626 1.49554926 0.04119260
v -0.68718313 1.39413088 0.17358278
v -0.68473687 1.44350964 0.01416880
v -0.72479445 1.44785293 0.13294144
v -0.72289595 1.49801408 -0.02706443
v 0.00000000 1.78988742 -0.55930342
v 0.02500000 1.78988742 -0.55930342
v 0.02500000 1.45011258 -0.04069658
v 0.00000000 1.45011258 -0.04069658
v 0.02022542 1.80217893 -0.55125041
v 0.02022542 1.46240409 -0.03264357
v 0.00772542 1.80977550 -0.54627338
v 0.00772542 1.47000066 -0.02766654
v -0.00772542 1.80977550 -0.54627338
v -0.00772542 1.47000066 -0.02766654
v -0.02022542 1.80217893 -0.55125041
v -0.02022542 1.46240409 -0.03264357
v -0.02500000 1.78988742 -0.55930342
v -0.02500000 1.45011258 -0.04069658
v -0.02022542 1.77759591 -0.56735643
v -0.02022542 1.43782107 -0.04874959
v -0.00772542 1.76999934 -0.57233346
v -0.00772542 1.43022450 -0.05372662
v 0.00772542 1.76999934 -0.57233346
v 0.00772542 1.43022450 -0.05372662
v 0.02022542 1.77759591 -0.56735643
v 0.02022542 1.43782107 -0.04874959
v -0.04205849 1.94805206 -0.52000000
v 0.04205849 1.94805206 -0.52000000
v -0.04205849 1.81194794 -0.52000000
v 0.04205849 1.81194794 -0.52000000
v 0.00000000 1.83794151 -0.45194794
v 0.00000000 1.92205849 -0.45194794
v 0.00000000 1.83794151 -0.58805206
v 0.00000000 1.92205849 -0.58805206
v 0.06805206 1.88000000 -0.56205849
v 0.06805206 1.88000000 -0.47794151
v -0.06805206 1.88000000 -0.56205849
v -0.06805206 1.88000000 -0.47794151
v 0.00000000 1.96000000 -0.52000000
v 0.00000000 1.80000000 -0.52000000
v -0.02472136 1.81527864 -0.48000000
v 0.02472136 1.81527864 -0.48000000
v -0.02472136 1.94472136 -0.48000000
v 0.02472136 1.94472136 -0.48000000
v 0.00000000 1.88000000 -0.44000000
v -0.02472136 1.81527864 -0.56000000
v 0.02472136 1.81527864 -0.56000000
v -0.02472136 1.94472136 -0.56000000
v 0.02472136 1.94472136 -0.56000000
v 0.00000000 1.88000000 -0.60000000
v 0.06472136 1.92000000 -0.54472136
v 0.06472136 1.84000000 -0.54472136
v 0.04000000 1.85527864 -0.58472136
v 0.04000000 1.90472136 -0.58472136
v 0.06472136 1.92000000 -0.49527864
v 0.06472136 1.84000000 -0.49527864
v 0.04000000 1.85527864 -0.45527864
v 0.04000000 1.90472136 -0.45527864
v 0.08000000 1.88000000 -0.52000000
v -0.06472136 1.92000000 -0.54472136
v -0.06472136 1.84000000 -0.54472136
v -0.04000000 1.85527864 -0.58472136
v -0.04000000 1.90472136 -0.58472136
v -0.06472136 1.92000000 -0.49527864
v -0.06472136 1.84000000 -0.49527864
v -0.04000000 1.85527864 -0.45527864
v -0.04000000 1.90472136 -0.45527864
v -0.08000000 1.88000000 -0.52000000
vn 0.00000000 0.00000000 -1.00000000
vn 0.75716233 -0.00000000 -0.65322677
vn 0.75716233 0.00000000 0.65322677
vn 0.00000000 0.00000000 1.00000000
vn 0.65572181 0.37858116 -0.65322677
vn 0.65572181 0.37858116 0.65322677
vn 0.37858116 0.65572181 -0.65322677
vn 0.37858116 0.65572181 0.65322677
vn 0.00000000 0.75716233 -0.65322677
vn -0.00000000 0.75716233 0.65322677
vn -0.37858116 0.65572181 -0.65322677
vn -0.37858116 0.65572181 0.65322677
vn -0.65572181 0.37858116 -0.65322677
vn -0.65572181 0.37858116 0.65322677
vn -0.75716233 0.00000000 -0.65322677
vn -0.75716233 -0.00000000 0.65322677
vn -0.65572181 -0.37858116 -0.65322677
vn -0.65572181 -0.37858116 0.65322677
vn -0.37858116 -0.65572181 -0.65322677
vn -0.37858116 -0.65572181 0.65322677
vn -0.00000000 -0.75716233 -0.65322677
vn 0.00000000 -0.75716233 0.65322677
vn 0.37858116 -0.65572181 -0.65322677
vn 0.37858116 -0.65572181 0.65322677
vn 0.65572181 -0.37858116 -0.65322677
vn 0.65572181 -0.37858116 0.65322677
vn -0.17978751 0.87254176 0.45425470
vn 0.17978751 0.87254176 0.45425470
vn -0.17978751 -0.87254176 -0.45425470
vn 0.17978751 -0.87254176 -0.45425470
vn 0.00000000 -0.99951322 -0.03119825
vn -0.00000000 0.59879815 0.80089998
vn -0.00000000 -0.59879815 -0.80089998
vn -0.00000000 0.99951322 0.03119825
vn 0.84661228 0.24576357 -0.47206771
vn 0.84661228 -0.24576357 0.47206771
vn -0.84661228 0.24576357 -0.47206771
vn -0.84661228 -0.24576357 0.47206771
vn 0.00000000 0.88699492 0.46177918
vn 0.00000000 -0.88699492 -0.46177918
vn -0.11077707 -0.94974294 -0.29277428
vn 0.11077707 -0.94974294 -0.29277428
vn -0.11077707 0.78453478 0.61010951
vn 0.11077707 0.78453478 0.61010951
vn -0.00000000 -0.46177918 0.88699492
vn -0.11077707 -0.78453478 -0.61010951
vn 0.11077707 -0.78453478 -0.61010951
vn -0.11077707 0.94974294 0.29277428
vn 0.11077707 0.94974294 0.29277428
vn 0.00000000 0.46177918 -0.88699492
vn 0.42968144 0.86319883 0.26506912
vn 0.42968144 -0.71220417 -0.55510276
vn 0.35862489 -0.37877453 -0.85318113
vn 0.35862489 0.91615355 -0.17902753
vn 0.42968144 0.71220417 0.55510276
vn 0.42968144 -0.86319883 -0.26506912
vn 0.35862489 -0.91615355 0.17902753
vn 0.35862489 0.37877453 0.85318113
vn 1.00000000 0.00000000 0.00000000
vn -0.42968144 0.86319883 0.26506912
vn -0.42968144 -0.71220417 -0.55510276
vn -0.35862489 -0.37877453 -0.85318113
vn -0.35862489 0.91615355 -0.17902753
vn -0.42968144 0.71220417 0.55510276
vn -0.42968144 -0.86319883 -0.26506912
vn -0.35862489 -0.91615355 0.17902753
vn -0.35862489 0.37877453 0.85318113
vn -1.00000000 0.00000000 0.00000000
vn -0.08384341 0.88387176 0.46015322
vn 0.08384341 0.88387176 0.46015322
vn -0.08384341 -0.88387176 -0.46015322
vn 0.08384341 -0.88387176 -0.46015322
vn -0.14669744 -0.91430680 -0.37752210
vn -0.06588264 -0.98030983 -0.18615079
vn -0.04884699 -0.92086844 -0.38680136
vn 0.14669744 -0.91430680 -0.37752210
vn 0.06588264 -0.98030983 -0.18615079
vn 0.04884699 -0.92086844 -0.38680136
vn -0.00000000 -0.95503656 -0.29648807
vn -0.14669744 0.83363615 0.53247595
vn -0.06588264 0.71472043 0.69630035
vn -0.04884699 0.84500087 0.53252935
vn 0.14669744 0.83363615 0.53247595
vn 0.06588264 0.71472043 0.69630035
vn 0.04884699 0.84500087 0.53252935
vn 0.00000000 0.79061308 0.61231606
vn 0.00000000 -0.94352058 0.33131393
vn -0.00000000 0.26971833 0.96293926
vn -0.14669744 -0.83363615 -0.53247595
vn -0.06588264 -0.71472043 -0.69630035
vn -0.04884699 -0.84500087 -0.53252935
vn 0.14669744 -0.83363615 -0.53247595
vn 0.06588264 -0.71472043 -0.69630035
vn 0.04884699 -0.84500087 -0.53252935
vn 0.00000000 -0.79061308 -0.61231606
vn -0.14669744 0.91430680 0.37752210
vn -0.06588264 0.98030983 0.18615079
vn -0.04884699 0.92086844 0.38680136
vn 0.14669744 0.91430680 0.37752210
vn 0.06588264 0.98030983 0.18615079
vn 0.04884699 0.92086844 0.38680136
vn -0.00000000 0.95503656 0.29648807
vn -0.00000000 -0.26971833 -0.96293926
vn -0.00000000 0.94352058 -0.33131393
vn 0.28037886 0.87940573 0.38475090
vn 0.67115435 0.74127832 0.00763415
vn 0.24321531 0.92782710 0.28281298
vn 0.28037886 -0.81954145 -0.49973943
vn 0.67115435 -0.43139176 -0.60287062
vn 0.24321531 -0.76380540 -0.59786924
vn 0.15183950 -0.52068692 -0.84013683
vn 0.62999736 -0.12000230 -0.76726969
vn 0.20197229 -0.67214422 -0.71234075
vn 0.23723875 -0.01146527 -0.97138371
vn 0.40713901 -0.58889706 -0.69816766
vn 0.15183950 0.98685737 -0.05529293
vn 0.62999736 0.69736458 -0.34173963
vn 0.20197229 0.96903168 0.14207322
vn 0.23723875 0.80232491 -0.54771573
vn 0.40713901 0.90967729 0.08200640
vn 0.51989970 0.39446438 -0.75769529
vn 0.28037886 0.81954145 0.49973943
vn 0.67115435 0.43139176 0.60287062
vn 0.24321531 0.76380540 0.59786924
vn 0.43975309 0.79662674 0.41473252
vn 0.28037886 -0.87940573 -0.38475090
vn 0.67115435 -0.74127832 -0.00763415
vn 0.24321531 -0.92782710 -0.28281298
vn 0.43975309 -0.79662674 -0.41473252
vn 0.15183950 -0.98685737 0.05529293
vn 0.62999736 -0.69736458 0.34173963
vn 0.20197229 -0.96903168 -0.14207322
vn 0.23723875 -0.80232491 0.54771573
vn 0.40713901 -0.90967729 -0.08200640
vn 0.15183950 0.52068692 0.84013683
vn 0.62999736 0.12000230 0.76726969
vn 0.20197229 0.67214422 0.71234075
vn 0.23723875 0.01146527 0.97138371
vn 0.40713901 0.58889706 0.69816766
vn 0.51989970 -0.39446438 0.75769529
vn 0.95985475 0.12952792 -0.24879989
vn 0.95985475 -0.12952792 0.24879989
vn 0.73279481 0.64985055 0.20175734
vn 0.73279481 -0.53798019 -0.41664023
vn 0.73279481 0.53798019 0.41664023
vn 0.73279481 -0.64985055 -0.20175734
vn -0.28037886 0.87940573 0.38475090
vn -0.67115435 0.74127832 0.00763415
vn -0.24321531 0.92782710 0.28281298
vn -0.28037886 -0.81954145 -0.49973943
vn -0.67115435 -0.43139176 -0.60287062
vn -0.24321531 -0.76380540 -0.59786924
vn -0.15183950 -0.52068692 -0.84013683
vn -0.62999736 -0.12000230 -0.76726969
vn -0.20197229 -0.67214422 -0.71234075
vn -0.23723875 -0.01146527 -0.97138371
vn -0.40713901 -0.58889706 -0.69816766
vn -0.15183950 0.98685737 -0.05529293
vn -0.62999736 0.69736458 -0.34173963
vn -0.20197229 0.96903168 0.14207322
vn -0.23723875 0.80232491 -0.54771573
vn -0.40713901 0.90967729 0.08200640
vn -0.51989970 0.39446438 -0.75769529
vn -0.28037886 0.81954145 0.49973943
vn -0.67115435 0.43139176 0.60287062
vn -0.24321531 0.76380540 0.59786924
vn -0.43975309 0.79662674 0.41473252
vn -0.28037886 -0.87940573 -0.38475090
vn -0.67115435 -0.74127832 -0.00763415
vn -0.24321531 -0.92782710 -0.28281298
vn -0.43975309 -0.79662674 -0.41473252
vn -0.15183950 -0.98685737 0.05529293
vn -0.62999736 -0.69736458 0.34173963
vn -0.20197229 -0.96903168 -0.14207322
vn -0.23723875 -0.80232491 0.54771573
vn -0.40713901 -0.90967729 -0.08200640
vn -0.15183950 0.52068692 0.84013683
vn -0.62999736 0.12000230 0.76726969
vn -0.20197229 0.67214422 0.71234075
vn -0.23723875 0.01146527 0.97138371
vn -0.40713901 0.58889706 0.69816766
vn -0.51989970 -0.39446438 0.75769529
vn -0.95985475 0.12952792 -0.24879989
vn -0.95985475 -0.12952792 0.24879989
vn -0.73279481 0.64985055 0.20175734
vn -0.73279481 -0.53798019 -0.41664023
vn -0.73279481 0.53798019 0.41664023
vn -0.73279481 -0.64985055 -0.20175734
vn -0.12939060 0.87953858 0.45789732
vn -0.04126022 0.88623959 0.46138594
vn 0.12939060 0.87953858 0.45789732
vn 0.04126022 0.88623959 0.46138594
vn -0.12939060 -0.87953858 -0.45789732
vn -0.04126022 -0.88623959 -0.46138594
vn 0.12939060 -0.87953858 -0.45789732
vn 0.04126022 -0.88623959 -0.46138594
vn -0.16340278 -0.89442239 -0.41630292
vn -0.12924823 -0.93261945 -0.33692113
vn -0.11329695 -0.89989232 -0.42113848
vn -0.03694964 -0.99246729 -0.11680495
vn -0.08982207 -0.96574385 -0.24345599
vn -0.02319417 -0.90471784 -0.42537944
vn -0.07689525 -0.93607431 -0.34329579
vn -0.06741172 -0.90299657 -0.42432635
vn -0.09635914 -0.91854044 -0.38340367
vn 0.16340278 -0.89442239 -0.41630292
vn 0.12924823 -0.93261945 -0.33692113
vn 0.11329695 -0.89989232 -0.42113848
vn 0.03694964 -0.99246729 -0.11680495
vn 0.08982207 -0.96574385 -0.24345599
vn -0.00000000 -0.98221804 -0.18774376
vn 0.02319417 -0.90471784 -0.42537944
vn 0.07689525 -0.93607431 -0.34329579
vn 0.06741172 -0.90299657 -0.42432635
vn -0.00000000 -0.92185744 -0.38752917
vn 0.09635914 -0.91854044 -0.38340367
vn -0.05408816 -0.95363709 -0.29605872
vn 0.05408816 -0.95363709 -0.29605872
vn -0.02959244 -0.96887347 -0.24578136
vn -0.02598663 -0.93853477 -0.34420513
vn 0.02959244 -0.96887347 -0.24578136
vn 0.02598663 -0.93853477 -0.34420513
vn -0.16340278 0.85400096 0.49394523
vn -0.12924823 0.81087885 0.57076299
vn -0.11329695 0.86109932 0.49565287
vn -0.03694964 0.66488546 0.74603086
vn -0.08982207 0.75331049 0.65150234
vn -0.02319417 0.86734101 0.49717362
vn -0.07689525 0.81808235 0.56993719
vn -0.06741172 0.86549115 0.49636754
vn -0.09635914 0.84088235 0.53257092
vn 0.16340278 0.85400096 0.49394523
vn 0.12924823 0.81087885 0.57076299
vn 0.11329695 0.86109932 0.49565287
vn 0.03694964 0.66488546 0.74603086
vn 0.08982207 0.75331049 0.65150234
vn 0.00000000 0.71711978 0.69694994
vn 0.02319417 0.86734101 0.49717362
vn 0.07689525 0.81808235 0.56993719
vn 0.06741172 0.86549115 0.49636754
vn 0.00000000 0.84616429 0.53292212
vn 0.09635914 0.84088235 0.53257092
vn -0.05408816 0.78945874 0.61141587
vn 0.05408816 0.78945874 0.61141587
vn -0.02959244 0.75701032 0.65273246
vn -0.02598663 0.82023839 0.57143125
vn 0.02959244 0.75701032 0.65273246
vn 0.02598663 0.82023839 0.57143125
vn -0.00000000 -0.99312002 0.11710088
vn -0.00000000 -0.78661063 0.61744936
vn -0.00000000 0.47364612 0.88071525
vn 0.00000000 -0.05467239 0.99850435
vn -0.16340278 -0.85400096 -0.49394523
vn -0.12924823 -0.81087885 -0.57076299
vn -0.11329695 -0.86109932 -0.49565287
vn -0.03694964 -0.66488546 -0.74603086
vn -0.08982207 -0.75331049 -0.65150234
vn -0.02319417 -0.86734101 -0.49717362
vn -0.07689525 -0.81808235 -0.56993719
vn -0.06741172 -0.86549115 -0.49636754
vn -0.09635914 -0.84088235 -0.53257092
vn 0.16340278 -0.85400096 -0.49394523
vn 0.12924823 -0.81087885 -0.57076299
vn 0.11329695 -0.86109932 -0.49565287
vn 0.03694964 -0.66488546 -0.74603086
vn 0.08982207 -0.75331049 -0.65150234
vn -0.00000000 -0.71711978 -0.69694994
vn 0.02319417 -0.86734101 -0.49717362
vn 0.07689525 -0.81808235 -0.56993719
vn 0.06741172 -0.86549115 -0.49636754
vn -0.00000000 -0.84616429 -0.53292212
vn 0.09635914 -0.84088235 -0.53257092
vn -0.05408816 -0.78945874 -0.61141587
vn 0.05408816 -0.78945874 -0.61141587
vn -0.02959244 -0.75701032 -0.65273246
vn -0.02598663 -0.82023839 -0.57143125
vn 0.02959244 -0.75701032 -0.65273246
vn 0.02598663 -0.82023839 -0.57143125
vn -0.16340278 0.89442239 0.41630292
vn -0.12924823 0.93261945 0.33692113
vn -0.11329695 0.89989232 0.42113848
vn -0.03694964 0.99246729 0.11680495
vn -0.08982207 0.96574385 0.24345599
vn -0.02319417 0.90471784 0.42537944
vn -0.07689525 0.93607431 0.34329579
vn -0.06741172 0.90299657 0.42432635
vn -0.09635914 0.91854044 0.38340367
vn 0.16340278 0.89442239 0.41630292
vn 0.12924823 0.93261945 0.33692113
vn 0.11329695 0.89989232 0.42113848
vn 0.03694964 0.99246729 0.11680495
vn 0.08982207 0.96574385 0.24345599
vn 0.00000000 0.98221804 0.18774376
vn 0.02319417 0.90471784 0.42537944
vn 0.07689525 0.93607431 0.34329579
vn 0.06741172 0.90299657 0.42432635
vn 0.00000000 0.92185744 0.38752917
vn 0.09635914 0.91854044 0.38340367
vn -0.05408816 0.95363709 0.29605872
vn 0.05408816 0.95363709 0.29605872
vn -0.02959244 0.96887347 0.24578136
vn -0.02598663 0.93853477 0.34420513
vn 0.02959244 0.96887347 0.24578136
vn 0.02598663 0.93853477 0.34420513
vn -0.00000000 -0.47364612 -0.88071525
vn -0.00000000 0.05467239 -0.99850435
vn 0.00000000 0.99312002 -0.11710088
vn 0.00000000 0.78661063 -0.61744936
vn 0.22605216 0.87734941 0.42327112
vn 0.34639143 0.87645204 0.33443207
vn 0.20829360 0.90077878 0.38106610
vn 0.80367064 0.55432599 -0.21641672
vn 0.53718034 0.82756177 0.16303009
vn 0.17260860 0.94196909 0.28792449
vn 0.32761551 0.90405066 0.27451864
vn 0.19027517 0.92210024 0.33693695
vn 0.26141318 0.90468755 0.33645741
vn 0.22605216 -0.84991755 -0.47596279
vn 0.34639143 -0.77662669 -0.52617865
vn 0.20829360 -0.82878077 -0.51936135
vn 0.80367064 -0.14063028 -0.57821849
vn 0.53718034 -0.60817609 -0.58443061
vn 0.17260860 -0.77610341 -0.60652268
vn 0.32761551 -0.74337448 -0.58314875
vn 0.19027517 -0.80485882 -0.56213667
vn 0.26141318 -0.79447946 -0.54814736
vn 0.07057102 -0.56501897 -0.82205431
vn 0.24700822 -0.46180948 -0.85189139
vn 0.10295395 -0.63980842 -0.76160729
vn 0.08757242 -0.41375004 -0.90616885
vn 0.76048748 0.05887827 -0.64667778
vn 0.48907981 -0.26777710 -0.83011828
vn 0.66178417 -0.29525923 -0.68910355
vn 0.15155156 -0.73910545 -0.65631948
vn 0.27001348 -0.56548136 -0.77930966
vn 0.12841313 -0.69602111 -0.70644510
vn 0.22394788 -0.72305855 -0.65347814
vn 0.17912947 -0.60727049 -0.77403824
vn 0.13024476 0.23227399 -0.96389060
vn 0.31218765 -0.21720990 -0.92485606
vn 0.10946389 -0.16181721 -0.98073077
vn 0.19108914 -0.33314335 -0.92330951
vn 0.41911217 -0.65850883 -0.62506889
vn 0.38772212 -0.50031038 -0.77418414
vn 0.53086564 -0.52375396 -0.66623079
vn 0.31323829 -0.69743881 -0.64456255
vn 0.51666512 -0.41422336 -0.74931713
vn 0.29410383 -0.63821342 -0.71146789
vn 0.07057102 0.99746963 -0.00860580
vn 0.24700822 0.96271921 -0.11026630
vn 0.10295395 0.99084519 0.08732867
vn 0.08757242 0.97961979 -0.18076540
vn 0.76048748 0.49598512 -0.41911521
vn 0.48907981 0.83360142 -0.25672868
vn 0.66178417 0.73384489 -0.15334078
vn 0.70999886 0.32518620 -0.62462433
vn 0.15155156 0.96154313 0.22905661
vn 0.27001348 0.96271877 0.01628789
vn 0.12841313 0.97789589 0.16501424
vn 0.22394788 0.95001231 0.21754070
vn 0.17912947 0.98236736 0.05354446
vn 0.13024476 0.65639728 -0.74308742
vn 0.31218765 0.88220851 -0.35248691
vn 0.10946389 0.89621178 -0.42990941
vn 0.26844700 0.44482932 -0.85443729
vn 0.19108914 0.94743173 -0.25662823
vn 0.41911217 0.88971914 0.18095538
vn 0.38772212 0.92114312 -0.03416004
vn 0.53086564 0.84615401 0.04695815
vn 0.31323829 0.92801530 0.20166649
vn 0.51666512 0.85139965 -0.09042007
vn 0.29410383 0.94885665 0.11477800
vn 0.46304859 -0.05195568 -0.88480880
vn 0.46304859 0.75462553 -0.46489387
vn 0.60300660 0.12976657 -0.78711097
vn 0.38821555 0.18812903 -0.90216193
vn 0.60300660 0.57037095 -0.55772755
vn 0.38821555 0.63114769 -0.67152162
vn 0.22605216 0.84991755 0.47596279
vn 0.34639143 0.77662669 0.52617865
vn 0.20829360 0.82878077 0.51936135
vn 0.28190376 0.85102079 0.44305065
vn 0.80367064 0.14063028 0.57821849
vn 0.53718034 0.60817609 0.58443061
vn 0.17260860 0.77610341 0.60652268
vn 0.32761551 0.74337448 0.58314875
vn 0.19027517 0.80485882 0.56213667
vn 0.26141318 0.79447946 0.54814736
vn 0.43814958 0.83183191 0.34070607
vn 0.43814958 0.75617576 0.48602794
vn 0.34976017 0.84692962 0.40047227
vn 0.34976017 0.81379457 0.46411875
vn 0.22605216 -0.87734941 -0.42327112
vn 0.34639143 -0.87645204 -0.33443207
vn 0.20829360 -0.90077878 -0.38106610
vn 0.28190376 -0.85102079 -0.44305065
vn 0.80367064 -0.55432599 0.21641672
vn 0.53718034 -0.82756177 -0.16303009
vn 0.17260860 -0.94196909 -0.28792449
vn 0.32761551 -0.90405066 -0.27451864
vn 0.19027517 -0.92210024 -0.33693695
vn 0.26141318 -0.90468755 -0.33645741
vn 0.43814958 -0.75617576 -0.48602794
vn 0.43814958 -0.83183191 -0.34070607
vn 0.34976017 -0.81379457 -0.46411875
vn 0.34976017 -0.84692962 -0.40047227
vn 0.07057102 -0.99746963 0.00860580
vn 0.24700822 -0.96271921 0.11026630
vn 0.10295395 -0.99084519 -0.08732867
vn 0.08757242 -0.97961979 0.18076540
vn 0.76048748 -0.49598512 0.41911521
vn 0.48907981 -0.83360142 0.25672868
vn 0.66178417 -0.73384489 0.15334078
vn 0.15155156 -0.96154313 -0.22905661
vn 0.27001348 -0.96271877 -0.01628789
vn 0.12841313 -0.97789589 -0.16501424
vn 0.22394788 -0.95001231 -0.21754070
vn 0.17912947 -0.98236736 -0.05354446
vn 0.13024476 -0.65639728 0.74308742
vn 0.31218765 -0.88220851 0.35248691
vn 0.10946389 -0.89621178 0.42990941
vn 0.19108914 -0.94743173 0.25662823
vn 0.41911217 -0.88971914 -0.18095538
vn 0.38772212 -0.92114312 0.03416004
vn 0.53086564 -0.84615401 -0.04695815
vn 0.31323829 -0.92801530 -0.20166649
vn 0.51666512 -0.85139965 0.09042007
vn 0.29410383 -0.94885665 -0.11477800
vn 0.07057102 0.56501897 0.82205431
vn 0.24700822 0.46180948 0.85189139
vn 0.10295395 0.63980842 0.76160729
vn 0.08757242 0.41375004 0.90616885
vn 0.76048748 -0.05887827 0.64667778
vn 0.48907981 0.26777710 0.83011828
vn 0.66178417 0.29525923 0.68910355
vn 0.70999886 -0.32518620 0.62462433
vn 0.15155156 0.73910545 0.65631948
vn 0.27001348 0.56548136 0.77930966
vn 0.12841313 0.69602111 0.70644510
vn 0.22394788 0.72305855 0.65347814
vn 0.17912947 0.60727049 0.77403824
vn 0.13024476 -0.23227399 0.96389060
vn 0.31218765 0.21720990 0.92485606
vn 0.10946389 0.16181721 0.98073077
vn 0.26844700 -0.44482932 0.85443729
vn 0.19108914 0.33314335 0.92330951
vn 0.41911217 0.65850883 0.62506889
vn 0.38772212 0.50031038 0.77418414
vn 0.53086564 0.52375396 0.66623079
vn 0.31323829 0.69743881 0.64456255
vn 0.51666512 0.41422336 0.74931713
vn 0.29410383 0.63821342 0.71146789
vn 0.46304859 -0.75462553 0.46489387
vn 0.46304859 0.05195568 0.88480880
vn 0.60300660 -0.57037095 0.55772755
vn 0.38821555 -0.63114769 0.67152162
vn 0.60300660 -0.12976657 0.78711097
vn 0.38821555 -0.18812903 0.90216193
vn 0.91150507 0.18992462 -0.36481110
vn 0.98964795 0.06627284 -0.12729823
vn 0.85728418 0.50295743 -0.10998940
vn 0.85728418 -0.19835374 -0.47509960
vn 0.91150507 -0.18992462 0.36481110
vn 0.98964795 -0.06627284 0.12729823
vn 0.85728418 0.19835374 0.47509960
vn 0.85728418 -0.50295743 0.10998940
vn 0.56198421 0.78992567 0.24533894
vn 0.91214314 0.39095625 0.12307762
vn 0.70951786 0.69734343 0.10147191
vn 0.56988629 0.75074942 0.33407323
vn 0.89513140 0.44579706 0.00218111
vn 0.56198421 -0.65401774 -0.50639366
vn 0.91214314 -0.32504537 -0.24968059
vn 0.70951786 -0.48306533 -0.51306169
vn 0.56988629 -0.70423977 -0.42340992
vn 0.89513140 -0.25746027 -0.36394228
vn 0.56198421 0.65401774 0.50639366
vn 0.91214314 0.32504537 0.24968059
vn 0.70951786 0.48306533 0.51306169
vn 0.56988629 0.70423977 0.42340992
vn 0.89513140 0.25746027 0.36394228
vn 0.74354779 0.59311825 0.30878379
vn 0.56198421 -0.78992567 -0.24533894
vn 0.91214314 -0.39095625 -0.12307762
vn 0.70951786 -0.69734343 -0.10147191
vn 0.56988629 -0.75074942 -0.33407323
vn 0.89513140 -0.44579706 -0.00218111
vn 0.74354779 -0.59311825 -0.30878379
vn -0.22605216 0.87734941 0.42327112
vn -0.34639143 0.87645204 0.33443207
vn -0.20829360 0.90077878 0.38106610
vn -0.80367064 0.55432599 -0.21641672
vn -0.53718034 0.82756177 0.16303009
vn -0.17260860 0.94196909 0.28792449
vn -0.32761551 0.90405066 0.27451864
vn -0.19027517 0.92210024 0.33693695
vn -0.26141318 0.90468755 0.33645741
vn -0.22605216 -0.84991755 -0.47596279
vn -0.34639143 -0.77662669 -0.52617865
vn -0.20829360 -0.82878077 -0.51936135
vn -0.80367064 -0.14063028 -0.57821849
vn -0.53718034 -0.60817609 -0.58443061
vn -0.17260860 -0.77610341 -0.60652268
vn -0.32761551 -0.74337448 -0.58314875
vn -0.19027517 -0.80485882 -0.56213667
vn -0.26141318 -0.79447946 -0.54814736
vn -0.07057102 -0.56501897 -0.82205431
vn -0.24700822 -0.46180948 -0.85189139
vn -0.10295395 -0.63980842 -0.76160729
vn -0.08757242 -0.41375004 -0.90616885
vn -0.76048748 0.05887827 -0.64667778
vn -0.48907981 -0.26777710 -0.83011828
vn -0.66178417 -0.29525923 -0.68910355
vn -0.15155156 -0.73910545 -0.65631948
vn -0.27001348 -0.56548136 -0.77930966
vn -0.12841313 -0.69602111 -0.70644510
vn -0.22394788 -0.72305855 -0.65347814
vn -0.17912947 -0.60727049 -0.77403824
vn -0.13024476 0.23227399 -0.96389060
vn -0.31218765 -0.21720990 -0.92485606
vn -0.10946389 -0.16181721 -0.98073077
vn -0.19108914 -0.33314335 -0.92330951
vn -0.41911217 -0.65850883 -0.62506889
vn -0.38772212 -0.50031038 -0.77418414
vn -0.53086564 -0.52375396 -0.66623079
vn -0.31323829 -0.69743881 -0.64456255
vn -0.51666512 -0.41422336 -0.74931713
vn -0.29410383 -0.63821342 -0.71146789
vn -0.07057102 0.99746963 -0.00860580
vn -0.24700822 0.96271921 -0.11026630
vn -0.10295395 0.99084519 0.08732867
vn -0.08757242 0.97961979 -0.18076540
vn -0.76048748 0.49598512 -0.41911521
vn -0.48907981 0.83360142 -0.25672868
vn -0.66178417 0.73384489 -0.15334078
vn -0.70999886 0.32518620 -0.62462433
vn -0.15155156 0.96154313 0.22905661
vn -0.27001348 0.96271877 0.01628789
vn -0.12841313 0.97789589 0.16501424
vn -0.22394788 0.95001231 0.21754070
vn -0.17912947 0.98236736 0.05354446
vn -0.13024476 0.65639728 -0.74308742
vn -0.31218765 0.88220851 -0.35248691
vn -0.10946389 0.89621178 -0.42990941
vn -0.26844700 0.44482932 -0.85443729
vn -0.19108914 0.94743173 -0.25662823
vn -0.41911217 0.88971914 0.18095538
vn -0.38772212 0.92114312 -0.03416004
vn -0.53086564 0.84615401 0.04695815
vn -0.31323829 0.92801530 0.20166649
vn -0.51666512 0.85139965 -0.09042007
vn -0.29410383 0.94885665 0.11477800
vn -0.46304859 -0.05195568 -0.88480880
vn -0.46304859 0.75462553 -0.46489387
vn -0.60300660 0.12976657 -0.78711097
vn -0.38821555 0.18812903 -0.90216193
vn -0.60300660 0.57037095 -0.55772755
vn -0.38821555 0.63114769 -0.67152162
vn -0.22605216 0.84991755 0.47596279
vn -0.34639143 0.77662669 0.52617865
vn -0.20829360 0.82878077 0.51936135
vn -0.28190376 0.85102079 0.44305065
vn -0.80367064 0.14063028 0.57821849
vn -0.53718034 0.60817609 0.58443061
vn -0.17260860 0.77610341 0.60652268
vn -0.32761551 0.74337448 0.58314875
vn -0.19027517 0.80485882 0.56213667
vn -0.26141318 0.79447946 0.54814736
vn -0.43814958 0.83183191 0.34070607
vn -0.43814958 0.75617576 0.48602794
vn -0.34976017 0.84692962 0.40047227
vn -0.34976017 0.81379457 0.46411875
vn -0.22605216 -0.87734941 -0.42327112
vn -0.34639143 -0.87645204 -0.33443207
vn -0.20829360 -0.90077878 -0.38106610
vn -0.28190376 -0.85102079 -0.44305065
vn -0.80367064 -0.55432599 0.21641672
vn -0.53718034 -0.82756177 -0.16303009
vn -0.17260860 -0.94196909 -0.28792449
vn -0.32761551 -0.90405066 -0.27451864
vn -0.19027517 -0.92210024 -0.33693695
vn -0.26141318 -0.90468755 -0.33645741
vn -0.43814958 -0.75617576 -0.48602794
vn -0.43814958 -0.83183191 -0.34070607
vn -0.34976017 -0.81379457 -0.46411875
vn -0.34976017 -0.84692962 -0.40047227
vn -0.07057102 -0.99746963 0.00860580
vn -0.24700822 -0.96271921 0.11026630
vn -0.10295395 -0.99084519 -0.08732867
vn -0.08757242 -0.97961979 0.18076540
vn -0.76048748 -0.49598512 0.41911521
vn -0.48907981 -0.83360142 0.25672868
vn -0.66178417 -0.73384489 0.15334078
vn -0.15155156 -0.96154313 -0.22905661
vn -0.27001348 -0.96271877 -0.01628789
vn -0.12841313 -0.97789589 -0.16501424
vn -0.22394788 -0.95001231 -0.21754070
vn -0.17912947 -0.98236736 -0.05354446
vn -0.13024476 -0.65639728 0.74308742
vn -0.31218765 -0.88220851 0.35248691
vn -0.10946389 -0.89621178 0.42990941
vn -0.19108914 -0.94743173 0.25662823
vn -0.41911217 -0.88971914 -0.18095538
vn -0.38772212 -0.92114312 0.03416004
vn -0.53086564 -0.84615401 -0.04695815
vn -0.31323829 -0.92801530 -0.20166649
vn -0.51666512 -0.85139965 0.09042007
vn -0.29410383 -0.94885665 -0.11477800
vn -0.07057102 0.56501897 0.82205431
vn -0.24700822 0.46180948 0.85189139
vn -0.10295395 0.63980842 0.76160729
vn -0.08757242 0.41375004 0.90616885
vn -0.76048748 -0.05887827 0.64667778
vn -0.48907981 0.26777710 0.83011828
vn -0.66178417 0.29525923 0.68910355
vn -0.70999886 -0.32518620 0.62462433
vn -0.15155156 0.73910545 0.65631948
vn -0.27001348 0.56548136 0.77930966
vn -0.12841313 0.69602111 0.70644510
vn -0.22394788 0.72305855 0.65347814
vn -0.17912947 0.60727049 0.77403824
vn -0.13024476 -0.23227399 0.96389060
vn -0.31218765 0.21720990 0.92485606
vn -0.10946389 0.16181721 0.98073077
vn -0.26844700 -0.44482932 0.85443729
vn -0.19108914 0.33314335 0.92330951
vn -0.41911217 0.65850883 0.62506889
vn -0.38772212 0.50031038 0.77418414
vn -0.53086564 0.52375396 0.66623079
vn -0.31323829 0.69743881 0.64456255
vn -0.51666512 0.41422336 0.74931713
vn -0.29410383 0.63821342 0.71146789
vn -0.46304859 -0.75462553 0.46489387
vn -0.46304859 0.05195568 0.88480880
vn -0.60300660 -0.57037095 0.55772755
vn -0.38821555 -0.63114769 0.67152162
vn -0.60300660 -0.12976657 0.78711097
vn -0.38821555 -0.18812903 0.90216193
vn -0.91150507 0.18992462 -0.36481110
vn -0.98964795 0.06627284 -0.12729823
vn -0.85728418 0.50295743 -0.10998940
vn -0.85728418 -0.19835374 -0.47509960
vn -0.91150507 -0.18992462 0.36481110
vn -0.98964795 -0.06627284 0.12729823
vn -0.85728418 0.19835374 0.47509960
vn -0.85728418 -0.50295743 0.10998940
vn -0.56198421 0.78992567 0.24533894
vn -0.91214314 0.39095625 0.12307762
vn -0.70951786 0.69734343 0.10147191
vn -0.56988629 0.75074942 0.33407323
vn -0.89513140 0.44579706 0.00218111
vn -0.56198421 -0.65401774 -0.50639366
vn -0.91214314 -0.32504537 -0.24968059
vn -0.70951786 -0.48306533 -0.51306169
vn -0.56988629 -0.70423977 -0.42340992
vn -0.89513140 -0.25746027 -0.36394228
vn -0.56198421 0.65401774 0.50639366
vn -0.91214314 0.32504537 0.24968059
vn -0.70951786 0.48306533 0.51306169
vn -0.56988629 0.70423977 0.42340992
vn -0.89513140 0.25746027 0.36394228
vn -0.74354779 0.59311825 0.30878379
vn -0.56198421 -0.78992567 -0.24533894
vn -0.91214314 -0.39095625 -0.12307762
vn -0.70951786 -0.69734343 -0.10147191
vn -0.56988629 -0.75074942 -0.33407323
vn -0.89513140 -0.44579706 -0.00218111
vn -0.74354779 -0.59311825 -0.30878379
vn -0.00000000 0.54802394 -0.83646265
vn 0.76526381 0.35277221 -0.53844505
vn 0.76526381 -0.35277221 0.53844505
vn 0.00000000 -0.54802394 0.83646265
vn 0.61911143 0.72902213 -0.29193798
vn 0.61911143 0.02347771 0.78495213
vn 0.23647952 0.96155736 -0.13958823
vn 0.23647952 0.25601295 0.93730188
vn -0.23647952 0.96155736 -0.13958823
vn -0.23647952 0.25601295 0.93730188
vn -0.61911143 0.72902213 -0.29193798
vn -0.61911143 0.02347771 0.78495213
vn -0.76526381 0.35277221 -0.53844505
vn -0.76526381 -0.35277221 0.53844505
vn -0.61911143 -0.02347771 -0.78495213
vn -0.61911143 -0.72902213 0.29193798
vn -0.23647952 -0.25601295 -0.93730188
vn -0.23647952 -0.96155736 0.13958823
vn 0.23647952 -0.25601295 -0.93730188
vn 0.23647952 -0.96155736 0.13958823
vn 0.61911143 -0.02347771 -0.78495213
vn 0.61911143 -0.72902213 0.29193798
vn -0.52573111 0.85065081 0.00000000
vn 0.52573111 0.85065081 0.00000000
vn -0.52573111 -0.85065081 0.00000000
vn 0.52573111 -0.85065081 0.00000000
vn -0.00000000 -0.52573111 0.85065081
vn 0.00000000 0.52573111 0.85065081
vn -0.00000000 -0.52573111 -0.85065081
vn 0.00000000 0.52573111 -0.85065081
vn 0.85065081 0.00000000 -0.52573111
vn 0.85065081 -0.00000000 0.52573111
vn -0.85065081 -0.00000000 -0.52573111
vn -0.85065081 0.00000000 0.52573111
vn 0.00000000 1.00000000 0.00000000
vn 0.00000000 -1.00000000 0.00000000
vn -0.30901699 -0.80901699 0.50000000
vn 0.30901699 -0.80901699 0.50000000
vn -0.30901699 0.80901699 0.50000000
vn 0.30901699 0.80901699 0.50000000
vn 0.00000000 0.00000000 1.00000000
vn -0.30901699 -0.80901699 -0.50000000
vn 0.30901699 -0.80901699 -0.50000000
vn -0.30901699 0.80901699 -0.50000000
vn 0.30901699 0.80901699 -0.50000000
vn 0.00000000 0.00000000 -1.00000000
vn 0.80901699 0.50000000 -0.30901699
vn 0.80901699 -0.50000000 -0.30901699
vn 0.50000000 -0.30901699 -0.80901699
vn 0.50000000 0.30901699 -0.80901699
vn 0.80901699 0.50000000 0.30901699
vn 0.80901699 -0.50000000 0.30901699
vn 0.50000000 -0.30901699 0.80901699
vn 0.50000000 0.30901699 0.80901699
vn 1.00000000 0.00000000 0.00000000
vn -0.80901699 0.50000000 -0.30901699
vn -0.80901699 -0.50000000 -0.30901699
vn -0.50000000 -0.30901699 -0.80901699
vn -0.50000000 0.30901699 -0.80901699
vn -0.80901699 0.50000000 0.30901699
vn -0.80901699 -0.50000000 0.30901699
vn -0.50000000 -0.30901699 0.80901699
vn -0.50000000 0.30901699 0.80901699
vn -1.00000000 -0.00000000 0.00000000
f 2//2 1//1 5//5
f 2//2 5//5 3//3
f 3//3 5//5 6//6
f 3//3 6//6 4//4
f 5//5 1//1 7//7
f 5//5 7//7 6//6
f 6//6 7//7 8//8
f 6//6 8//8 4//4
f 7//7 1//1 9//9
f 7//7 9//9 8//8
f 8//8 9//9 10//10
f 8//8 10//10 4//4
f 9//9 1//1 11//11
f 9//9 11//11 10//10
f 10//10 11//11 12//12
f 10//10 12//12 4//4
f 11//11 1//1 13//13
f 11//11 13//13 12//12
f 12//12 13//13 14//14
f 12//12 14//14 4//4
f 13//13 1//1 15//15
f 13//13 15//15 14//14
f 14//14 15//15 16//16
f 14//14 16//16 4//4
f 15//15 1//1 17//17
f 15//15 17//17 16//16
f 16//16 17//17 18//18
f 16//16 18//18 4//4
f 17//17 1//1 19//19
f 17//17 19//19 18//18
f 18//18 19//19 20//20
f 18//18 20//20 4//4
f 19//19 1//1 21//21
f 19//19 21//21 20//20
f 20//20 21//21 22//22
f 20//20 22//22 4//4
f 21//21 1//1 23//23
f 21//21 23//23 22//22
f 22//22 23//23 24//24
f 22//22 24//24 4//4
f 23//23 1//1 25//25
f 23//23 25//25 24//24
f 24//24 25//25 26//26
f 24//24 26//26 4//4
f 25//25 1//1 2//2
f 25//25 2//2 26//26
f 26//26 2//2 3//3
f 26//26 3//3 4//4
f 27//27 559//559 223//223
f 559//559 164//164 561//561
f 223//223 561//561 80//80
f 559//559 561//561 223//223
f 164//164 560//560 568//568
f 560//560 64//64 566//566
f 568//568 566//566 166//166
f 560//560 566//566 568//568
f 80//80 567//567 224//224
f 567//567 166//166 565//565
f 224//224 565//565 43//43
f 567//567 565//565 224//224
f 164//164 568//568 561//561
f 568//568 166//166 567//567
f 561//561 567//567 80//80
f 568//568 567//567 561//561
f 64//64 564//564 627//627
f 564//564 165//165 629//629
f 627//627 629//629 181//181
f 564//564 629//629 627//627
f 165//165 563//563 615//615
f 563//563 38//38 613//613
f 615//615 613//613 178//178
f 563//563 613//613 615//615
f 181//181 631//631 628//628
f 631//631 178//178 614//614
f 628//628 614//614 67//67
f 631//631 614//614 628//628
f 165//165 615//615 629//629
f 615//615 178//178 631//631
f 629//629 631//631 181//181
f 615//615 631//631 629//629
f 43//43 617//617 227//227
f 617//617 179//179 619//619
f 227//227 619//619 81//81
f 617//617 619//619 227//227
f 179//179 618//618 621//621
f 618//618 67//67 610//610
f 621//621 610//610 177//177
f 618//618 610//610 621//621
f 81//81 611//611 226//226
f 611//611 177//177 609//609
f 226//226 609//609 32//32
f 611//611 609//609 226//226
f 179//179 621//621 619//619
f 621//621 177//177 611//611
f 619//619 611//611 81//81
f 621//621 611//611 619//619
f 64//64 627//627 566//566
f 627//627 181//181 630//630
f 566//566 630//630 166//166
f 627//627 630//630 566//566
f 181//181 628//628 632//632
f 628//628 67//67 618//618
f 632//632 618//618 179//179
f 628//628 618//618 632//632
f 166//166 620//620 565//565
f 620//620 179//179 617//617
f 565//565 617//617 43//43
f 620//620 617//617 565//565
f 181//181 632//632 630//630
f 632//632 179//179 620//620
f 630//630 620//620 166//166
f 632//632 620//620 630//630
f 27//27 223//223 189//189
f 223//223 80//80 225//225
f 189//189 225//225 69//69
f 223//223 225//225 189//189
f 80//80 224//224 231//231
f 224//224 43//43 229//229
f 231//231 229//229 82//82
f 224//224 229//229 231//231
f 69//69 230//230 190//190
f 230//230 82//82 228//228
f 190//190 228//228 39//39
f 230//230 228//228 190//190
f 80//80 231//231 225//225
f 231//231 82//82 230//230
f 225//225 230//230 69//69
f 231//231 230//230 225//225
f 43//43 227//227 243//243
f 227//227 81//81 245//245
f 243//243 245//245 86//86
f 227//227 245//245 243//243
f 81//81 226//226 237//237
f 226//226 32//32 235//235
f 237//237 235//235 84//84
f 226//226 235//235 237//237
f 86//86 247//247 244//244
f 247//247 84//84 236//236
f 244//244 236//236 44//44
f 247//247 236//236 244//244
f 81//81 237//237 245//245
f 237//237 84//84 247//247
f 245//245 247//247 86//86
f 237//237 247//247 245//245
f 39//39 238//238 192//192
f 238//238 85//85 240//240
f 192//192 240//240 70//70
f 238//238 240//240 192//192
f 85//85 239//239 242//242
f 239//239 44//44 233//233
f 242//242 233//233 83//83
f 239//239 233//233 242//242
f 70//70 234//234 191//191
f 234//234 83//83 232//232
f 191//191 232//232 28//28
f 234//234 232//232 191//191
f 85//85 242//242 240//240
f 242//242 83//83 234//234
f 240//240 234//234 70//70
f 242//242 234//234 240//240
f 43//43 243//243 229//229
f 243//243 86//86 246//246
f 229//229 246//246 82//82
f 243//243 246//246 229//229
f 86//86 244//244 248//248
f 244//244 44//44 239//239
f 248//248 239//239 85//85
f 244//244 239//239 248//248
f 82//82 241//241 228//228
f 241//241 85//85 238//238
f 228//228 238//238 39//39
f 241//241 238//238 228//228
f 86//86 248//248 246//246
f 248//248 85//85 241//241
f 246//246 241//241 82//82
f 248//248 241//241 246//246
f 27//27 189//189 279//279
f 189//189 69//69 281//281
f 279//279 281//281 96//96
f 189//189 281//281 279//279
f 69//69 190//190 286//286
f 190//190 39//39 284//284
f 286//286 284//284 98//98
f 190//190 284//284 286//286
f 96//96 287//287 280//280
f 287//287 98//98 285//285
f 280//280 285//285 48//48
f 287//287 285//285 280//280
f 69//69 286//286 281//281
f 286//286 98//98 287//287
f 281//281 287//287 96//96
f 286//286 287//287 281//281
f 39//39 192//192 294//294
f 192//192 70//70 296//296
f 294//294 296//296 101//101
f 192//192 296//296 294//294
f 70//70 191//191 290//290
f 191//191 28//28 288//288
f 290//290 288//288 99//99
f 191//191 288//288 290//290
f 101//101 298//298 295//295
f 298//298 99//99 289//289
f 295//295 289//289 49//49
f 298//298 289//289 295//295
f 70//70 290//290 296//296
f 290//290 99//99 298//298
f 296//296 298//298 101//101
f 290//290 298//298 296//296
f 48//48 299//299 283//283
f 299//299 102//102 301//301
f 283//283 301//301 97//97
f 299//299 301//301 283//283
f 102//102 300//300 303//303
f 300//300 49//49 292//292
f 303//303 292//292 100//100
f 300//300 292//292 303//303
f 97//97 293//293 282//282
f 293//293 100//100 291//291
f 282//282 291//291 34//34
f 293//293 291//291 282//282
f 102//102 303//303 301//301
f 303//303 100//100 293//293
f 301//301 293//293 97//97
f 303//303 293//293 301//301
f 39//39 294//294 284//284
f 294//294 101//101 297//297
f 284//284 297//297 98//98
f 294//294 297//297 284//284
f 101//101 295//295 304//304
f 295//295 49//49 300//300
f 304//304 300//300 102//102
f 295//295 300//300 304//304
f 98//98 302//302 285//285
f 302//302 102//102 299//299
f 285//285 299//299 48//48
f 302//302 299//299 285//285
f 101//101 304//304 297//297
f 304//304 102//102 302//302
f 297//297 302//302 98//98
f 304//304 302//302 297//297
f 27//27 279//279 489//489
f 279//279 96//96 491//491
f 489//489 491//491 147//147
f 279//279 491//491 489//489
f 96//96 280//280 496//496
f 280//280 48//48 494//494
f 496//496 494//494 149//149
f 280//280 494//494 496//496
f 147//147 497//497 490//490
f 497//497 149//149 495//495
f 490//490 495//495 60//60
f 497//497 495//495 490//490
f 96//96 496//496 491//491
f 496//496 149//149 497//497
f 491//491 497//497 147//147
f 496//496 497//497 491//491
f 48//48 283//283 537//537
f 283//283 97//97 539//539
f 537//537 539//539 160//160
f 283//283 539//539 537//537
f 97//97 282//282 531//531
f 282//282 34//34 529//529
f 531//531 529//529 158//158
f 282//282 529//529 531//531
f 160//160 541//541 538//538
f 541//541 158//158 530//530
f 538//538 530//530 63//63
f 541//541 530//530 538//538
f 97//97 531//531 539//539
f 531//531 158//158 541//541
f 539//539 541//541 160//160
f 531//531 541//541 539//539
f 60//60 547//547 493//493
f 547//547 162//162 549//549
f 493//493 549//549 148//148
f 547//547 549//549 493//493
f 162//162 548//548 551//551
f 548//548 63//63 534//534
f 551//551 534//534 159//159
f 548//548 534//534 551//551
f 148//148 535//535 492//492
f 535//535 159//159 533//533
f 492//492 533//533 37//37
f 535//535 533//533 492//492
f 162//162 551//551 549//549
f 551//551 159//159 535//535
f 549//549 535//535 148//148
f 551//551 535//535 549//549
f 48//48 537//537 494//494
f 537//537 160//160 540//540
f 494//494 540//540 149//149
f 537//537 540//540 494//494
f 160//160 538//538 552//552
f 538//538 63//63 548//548
f 552//552 548//548 162//162
f 538//538 548//548 552//552
f 149//149 550//550 495//495
f 550//550 162//162 547//547
f 495//495 547//547 60//60
f 550//550 547//547 495//495
f 160//160 552//552 540//540
f 552//552 162//162 550//550
f 540//540 550//550 149//149
f 552//552 550//550 540//540
f 27//27 489//489 559//559
f 489//489 147//147 562//562
f 559//559 562//562 164//164
f 489//489 562//562 559//559
f 147//147 490//490 571//571
f 490//490 60//60 569//569
f 571//571 569//569 167//167
f 490//490 569//569 571//571
f 164//164 572//572 560//560
f 572//572 167//167 570//570
f 560//560 570//570 64//64
f 572//572 570//570 560//560
f 147//147 571//571 562//562
f 571//571 167//167 572//572
f 562//562 572//572 164//164
f 571//571 572//572 562//562
f 60//60 493//493 647//647
f 493//493 148//148 649//649
f 647//647 649//649 185//185
f 493//493 649//649 647//647
f 148//148 492//492 641//641
f 492//492 37//37 639//639
f 641//641 639//639 183//183
f 492//492 639//639 641//641
f 185//185 651//651 648//648
f 651//651 183//183 640//640
f 648//648 640//640 68//68
f 651//651 640//640 648//648
f 148//148 641//641 649//649
f 641//641 183//183 651//651
f 649//649 651//651 185//185
f 641//641 651//651 649//649
f 64//64 657//657 564//564
f 657//657 187//187 659//659
f 564//564 659//659 165//165
f 657//657 659//659 564//564
f 187//187 658//658 661//661
f 658//658 68//68 644//644
f 661//661 644//644 184//184
f 658//658 644//644 661//661
f 165//165 645//645 563//563
f 645//645 184//184 643//643
f 563//563 643//643 38//38
f 645//645 643//643 563//563
f 187//187 661//661 659//659
f 661//661 184//184 645//645
f 659//659 645//645 165//165
f 661//661 645//645 659//659
f 60//60 647//647 569//569
f 647//647 185//185 650//650
f 569//569 650//650 167//167
f 647//647 650//650 569//569
f 185//185 648//648 662//662
f 648//648 68//68 658//658
f 662//662 658//658 187//187
f 648//648 658//658 662//662
f 167//167 660//660 570//570
f 660//660 187//187 657//657
f 570//570 657//657 64//64
f 660//660 657//657 570//570
f 185//185 662//662 650//650
f 662//662 187//187 660//660
f 650//650 660//660 167//167
f 662//662 660//660 650//650
f 28//28 232//232 379//379
f 232//232 83//83 381//381
f 379//379 381//381 122//122
f 232//232 381//381 379//379
f 83//83 233//233 387//387
f 233//233 44//44 385//385
f 387//387 385//385 124//124
f 233//233 385//385 387//387
f 122//122 388//388 380//380
f 388//388 124//124 386//386
f 380//380 386//386 55//55
f 388//388 386//386 380//380
f 83//83 387//387 381//381
f 387//387 124//124 388//388
f 381//381 388//388 122//122
f 387//387 388//388 381//381
f 44//44 236//236 437//437
f 236//236 84//84 439//439
f 437//437 439//439 137//137
f 236//236 439//439 437//437
f 84//84 235//235 431//431
f 235//235 32//32 429//429
f 431//431 429//429 135//135
f 235//235 429//429 431//431
f 137//137 441//441 438//438
f 441//441 135//135 430//430
f 438//438 430//430 58//58
f 441//441 430//430 438//438
f 84//84 431//431 439//439
f 431//431 135//135 441//441
f 439//439 441//441 137//137
f 431//431 441//441 439//439
f 55//55 447//447 384//384
f 447//447 139//139 449//449
f 384//384 449//449 123//123
f 447//447 449//449 384//384
f 139//139 448//448 451//451
f 448//448 58//58 434//434
f 451//451 434//434 136//136
f 448//448 434//434 451//451
f 123//123 435//435 383//383
f 435//435 136//136 433//433
f 383//383 433//433 36//36
f 435//435 433//433 383//383
f 139//139 451//451 449//449
f 451//451 136//136 435//435
f 449//449 435//435 123//123
f 451//451 435//435 449//449
f 44//44 437//437 385//385
f 437//437 137//137 440//440
f 385//385 440//440 124//124
f 437//437 440//440 385//385
f 137//137 438//438 452//452
f 438//438 58//58 448//448
f 452//452 448//448 139//139
f 438//438 448//448 452//452
f 124//124 450//450 386//386
f 450//450 139//139 447//447
f 386//386 447//447 55//55
f 450//450 447//447 386//386
f 137//137 452//452 440//440
f 452//452 139//139 450//450
f 440//440 450//450 124//124
f 452//452 450//450 440//440
f 32//32 609//609 251//251
f 609//609 177//177 612//612
f 251//251 612//612 88//88
f 609//609 612//612 251//251
f 177//177 610//610 626//626
f 610//610 67//67 623//623
f 626//626 623//623 180//180
f 610//610 623//623 626//626
f 88//88 624//624 252//252
f 624//624 180//180 622//622
f 252//252 622//622 45//45
f 624//624 622//622 252//252
f 177//177 626//626 612//612
f 626//626 180//180 624//624
f 612//612 624//624 88//88
f 626//626 624//624 612//612
f 67//67 614//614 634//634
f 614//614 178//178 637//637
f 634//634 637//637 182//182
f 614//614 637//637 634//634
f 178//178 613//613 616//616
f 613//613 38//38 591//591
f 616//616 591//591 173//173
f 613//613 591//591 616//616
f 182//182 635//635 633//633
f 635//635 173//173 592//592
f 633//633 592//592 66//66
f 635//635 592//592 633//633
f 178//178 616//616 637//637
f 616//616 173//173 635//635
f 637//637 635//635 182//182
f 616//616 635//635 637//637
f 45//45 599//599 250//250
f 599//599 175//175 601//601
f 250//250 601//601 87//87
f 599//599 601//601 250//250
f 175//175 600//600 602//602
f 600//600 66//66 588//588
f 602//602 588//588 172//172
f 600//600 588//588 602//602
f 87//87 590//590 249//249
f 590//590 172//172 587//587
f 249//249 587//587 31//31
f 590//590 587//587 249//249
f 175//175 602//602 601//601
f 602//602 172//172 590//590
f 601//601 590//590 87//87
f 602//602 590//590 601//601
f 67//67 634//634 623//623
f 634//634 182//182 638//638
f 623//623 638//638 180//180
f 634//634 638//638 623//623
f 182//182 633//633 636//636
f 633//633 66//66 600//600
f 636//636 600//600 175//175
f 633//633 600//600 636//636
f 180//180 625//625 622//622
f 625//625 175//175 599//599
f 622//622 599//599 45//45
f 625//625 599//599 622//622
f 182//182 636//636 638//638
f 636//636 175//175 625//625
f 638//638 625//625 180//180
f 636//636 625//625 638//638
f 38//38 643//643 577//577
f 643//643 184//184 646//646
f 577//577 646//646 169//169
f 643//643 646//646 577//577
f 184//184 644//644 667//667
f 644//644 68//68 664//664
f 667//667 664//664 188//188
f 644//644 664//664 667//667
f 169//169 665//665 578//578
f 665//665 188//188 663//663
f 578//578 663//663 65//65
f 665//665 663//663 578//578
f 184//184 667//667 646//646
f 667//667 188//188 665//665
f 646//646 665//665 169//169
f 667//667 665//665 646//646
f 68//68 640//640 653//653
f 640//640 183//183 656//656
f 653//653 656//656 186//186
f 640//640 656//656 653//653
f 183//183 639//639 642//642
f 639//639 37//37 501//501
f 642//642 501//501 151//151
f 639//639 501//501 642//642
f 186//186 654//654 652//652
f 654//654 151//151 502//502
f 652//652 502//502 61//61
f 654//654 502//502 652//652
f 183//183 642//642 656//656
f 642//642 151//151 654//654
f 656//656 654//654 186//186
f 642//642 654//654 656//656
f 65//65 584//584 574//574
f 584//584 171//171 586//586
f 574//574 586//586 168//168
f 584//584 586//586 574//574
f 171//171 583//583 585//585
f 583//583 61//61 499//499
f 585//585 499//499 150//150
f 583//583 499//499 585//585
f 168//168 576//576 573//573
f 576//576 150//150 498//498
f 573//573 498//498 29//29
f 576//576 498//498 573//573
f 171//171 585//585 586//586
f 585//585 150//150 576//576
f 586//586 576//576 168//168
f 585//585 576//576 586//586
f 68//68 653//653 664//664
f 653//653 186//186 668//668
f 664//664 668//668 188//188
f 653//653 668//668 664//664
f 186//186 652//652 655//655
f 652//652 61//61 583//583
f 655//655 583//583 171//171
f 652//652 583//583 655//655
f 188//188 666//666 663//663
f 666//666 171//171 584//584
f 663//663 584//584 65//65
f 666//666 584//584 663//663
f 186//186 655//655 668//668
f 655//655 171//171 666//666
f 668//668 666//666 188//188
f 655//655 666//666 668//668
f 37//37 533//533 511//511
f 533//533 159//159 536//536
f 511//511 536//536 154//154
f 533//533 536//536 511//511
f 159//159 534//534 557//557
f 534//534 63//63 554//554
f 557//557 554//554 163//163
f 534//534 554//554 557//557
f 154//154 555//555 512//512
f 555//555 163//163 553//553
f 512//512 553//553 62//62
f 555//555 553//553 512//512
f 159//159 557//557 536//536
f 557//557 163//163 555//555
f 536//536 555//555 154//154
f 557//557 555//555 536//536
f 63//63 530//530 543//543
f 530//530 158//158 546//546
f 543//543 546//546 161//161
f 530//530 546//546 543//543
f 158//158 529//529 532//532
f 529//529 34//34 307//307
f 532//532 307//307 104//104
f 529//529 307//307 532//532
f 161//161 544//544 542//542
f 544//544 104//104 308//308
f 542//542 308//308 50//50
f 544//544 308//308 542//542
f 158//158 532//532 546//546
f 532//532 104//104 544//544
f 546//546 544//544 161//161
f 532//532 544//544 546//546
f 62//62 520//520 508//508
f 520//520 156//156 522//522
f 508//508 522//522 153//153
f 520//520 522//522 508//508
f 156//156 519//519 521//521
f 519//519 50//50 306//306
f 521//521 306//306 103//103
f 519//519 306//306 521//521
f 153//153 510//510 507//507
f 510//510 103//103 305//305
f 507//507 305//305 33//33
f 510//510 305//305 507//507
f 156//156 521//521 522//522
f 521//521 103//103 510//510
f 522//522 510//510 153//153
f 521//521 510//510 522//522
f 63//63 543//543 554//554
f 543//543 161//161 558//558
f 554//554 558//558 163//163
f 543//543 558//558 554//554
f 161//161 542//542 545//545
f 542//542 50//50 519//519
f 545//545 519//519 156//156
f 542//542 519//519 545//545
f 163//163 556//556 553//553
f 556//556 156//156 520//520
f 553//553 520//520 62//62
f 556//556 520//520 553//553
f 161//161 545//545 558//558
f 545//545 156//156 556//556
f 558//558 556//556 163//163
f 545//545 556//556 558//558
f 34//34 291//291 349//349
f 291//291 100//100 351//351
f 349//349 351//351 116//116
f 291//291 351//351 349//349
f 100//100 292//292 359//359
f 292//292 49//49 357//357
f 359//359 357//357 118//118
f 292//292 357//357 359//359
f 116//116 361//361 350//350
f 361//361 118//118 358//358
f 350//350 358//358 54//54
f 361//361 358//358 350//350
f 100//100 359//359 351//351
f 359//359 118//118 361//361
f 351//351 361//361 116//116
f 359//359 361//361 351//351
f 49//49 289//289 314//314
f 289//289 99//99 316//316
f 314//314 316//316 107//107
f 289//289 316//316 314//314
f 99//99 288//288 311//311
f 288//288 28//28 309//309
f 311//311 309//309 105//105
f 288//288 309//309 311//311
f 107//107 317//317 315//315
f 317//317 105//105 310//310
f 315//315 310//310 51//51
f 317//317 310//310 315//315
f 99//99 311//311 316//316
f 311//311 105//105 317//317
f 316//316 317//317 107//107
f 311//311 317//317 316//316
f 54//54 368//368 354//354
f 368//368 120//120 371//371
f 354//354 371//371 117//117
f 368//368 371//371 354//354
f 120//120 367//367 369//369
f 367//367 51//51 313//313
f 369//369 313//313 106//106
f 367//367 313//313 369//369
f 117//117 355//355 353//353
f 355//355 106//106 312//312
f 353//353 312//312 35//35
f 355//355 312//312 353//353
f 120//120 369//369 371//371
f 369//369 106//106 355//355
f 371//371 355//355 117//117
f 369//369 355//355 371//371
f 49//49 314//314 357//357
f 314//314 107//107 360//360
f 357//357 360//360 118//118
f 314//314 360//360 357//357
f 107//107 315//315 370//370
f 315//315 51//51 367//367
f 370//370 367//367 120//120
f 315//315 367//367 370//370
f 118//118 372//372 358//358
f 372//372 120//120 368//368
f 358//358 368//368 54//54
f 372//372 368//368 358//358
f 107//107 370//370 360//360
f 370//370 120//120 372//372
f 360//360 372//372 118//118
f 370//370 372//372 360//360
f 30//30 393//393 206//206
f 393//393 126//126 395//395
f 206//206 395//395 76//76
f 393//393 395//395 206//206
f 126//126 394//394 402//402
f 394//394 56//56 400//400
f 402//402 400//400 128//128
f 394//394 400//400 402//402
f 76//76 401//401 207//207
f 401//401 128//128 399//399
f 207//207 399//399 42//42
f 401//401 399//399 207//207
f 126//126 402//402 395//395
f 402//402 128//128 401//401
f 395//395 401//401 76//76
f 402//402 401//401 395//395
f 56//56 398//398 423//423
f 398//398 127//127 425//425
f 423//423 425//425 134//134
f 398//398 425//425 423//423
f 127//127 397//397 413//413
f 397//397 36//36 411//411
f 413//413 411//411 131//131
f 397//397 411//411 413//413
f 134//134 427//427 424//424
f 427//427 131//131 412//412
f 424//424 412//412 57//57
f 427//427 412//412 424//424
f 127//127 413//413 425//425
f 413//413 131//131 427//427
f 425//425 427//427 134//134
f 413//413 427//427 425//425
f 42//42 414//414 210//210
f 414//414 132//132 416//416
f 210//210 416//416 77//77
f 414//414 416//416 210//210
f 132//132 415//415 418//418
f 415//415 57//57 408//408
f 418//418 408//408 130//130
f 415//415 408//408 418//418
f 77//77 409//409 209//209
f 409//409 130//130 407//407
f 209//209 407//407 31//31
f 409//409 407//407 209//209
f 132//132 418//418 416//416
f 418//418 130//130 409//409
f 416//416 409//409 77//77
f 418//418 409//409 416//416
f 56//56 423//423 400//400
f 423//423 134//134 426//426
f 400//400 426//426 128//128
f 423//423 426//426 400//400
f 134//134 424//424 428//428
f 424//424 57//57 415//415
f 428//428 415//415 132//132
f 424//424 415//415 428//428
f 128//128 417//417 399//399
f 417//417 132//132 414//414
f 399//399 414//414 42//42
f 417//417 414//414 399//399
f 134//134 428//428 426//426
f 428//428 132//132 417//417
f 426//426 417//417 128//128
f 428//428 417//417 426//426
f 30//30 206//206 195//195
f 206//206 76//76 208//208
f 195//195 208//208 72//72
f 206//206 208//208 195//195
f 76//76 207//207 216//216
f 207//207 42//42 213//213
f 216//216 213//213 78//78
f 207//207 213//213 216//216
f 72//72 214//214 196//196
f 214//214 78//78 212//212
f 196//196 212//212 40//40
f 214//214 212//212 196//196
f 76//76 216//216 208//208
f 216//216 78//78 214//214
f 208//208 214//214 72//72
f 216//216 214//214 208//208
f 42//42 210//210 218//218
f 210//210 77//77 221//221
f 218//218 221//221 79//79
f 210//210 221//221 218//218
f 77//77 209//209 211//211
f 209//209 31//31 200//200
f 211//211 200//200 74//74
f 209//209 200//200 211//211
f 79//79 219//219 217//217
f 219//219 74//74 201//201
f 217//217 201//201 41//41
f 219//219 201//201 217//217
f 77//77 211//211 221//221
f 211//211 74//74 219//219
f 221//221 219//219 79//79
f 211//211 219//219 221//221
f 40//40 202//202 194//194
f 202//202 75//75 204//204
f 194//194 204//204 71//71
f 202//202 204//204 194//194
f 75//75 203//203 205//205
f 203//203 41//41 198//198
f 205//205 198//198 73//73
f 203//203 198//198 205//205
f 71//71 199//199 193//193
f 199//199 73//73 197//197
f 193//193 197//197 29//29
f 199//199 197//197 193//193
f 75//75 205//205 204//204
f 205//205 73//73 199//199
f 204//204 199//199 71//71
f 205//205 199//199 204//204
f 42//42 218//218 213//213
f 218//218 79//79 222//222
f 213//213 222//222 78//78
f 218//218 222//222 213//213
f 79//79 217//217 220//220
f 217//217 41//41 203//203
f 220//220 203//203 75//75
f 217//217 203//203 220//220
f 78//78 215//215 212//212
f 215//215 75//75 202//202
f 212//212 202//202 40//40
f 215//215 202//202 212//212
f 79//79 220//220 222//222
f 220//220 75//75 215//215
f 222//222 215//215 78//78
f 220//220 215//215 222//222
f 30//30 195//195 262//262
f 195//195 72//72 264//264
f 262//262 264//264 92//92
f 195//195 264//264 262//262
f 72//72 196//196 270//270
f 196//196 40//40 268//268
f 270//270 268//268 94//94
f 196//196 268//268 270//270
f 92//92 272//272 263//263
f 272//272 94//94 269//269
f 263//263 269//269 47//47
f 272//272 269//269 263//263
f 72//72 270//270 264//264
f 270//270 94//94 272//272
f 264//264 272//272 92//92
f 270//270 272//272 264//264
f 40//40 194//194 258//258
f 194//194 71//71 260//260
f 258//258 260//260 91//91
f 194//194 260//260 258//258
f 71//71 193//193 255//255
f 193//193 29//29 253//253
f 255//255 253//253 89//89
f 193//193 253//253 255//255
f 91//91 261//261 259//259
f 261//261 89//89 254//254
f 259//259 254//254 46//46
f 261//261 254//254 259//259
f 71//71 255//255 260//260
f 255//255 89//89 261//261
f 260//260 261//261 91//91
f 255//255 261//261 260//260
f 47//47 274//274 266//266
f 274//274 95//95 277//277
f 266//266 277//277 93//93
f 274//274 277//277 266//266
f 95//95 273//273 275//275
f 273//273 46//46 257//257
f 275//275 257//257 90//90
f 273//273 257//257 275//275
f 93//93 267//267 265//265
f 267//267 90//90 256//256
f 265//265 256//256 33//33
f 267//267 256//256 265//265
f 95//95 275//275 277//277
f 275//275 90//90 267//267
f 277//277 267//267 93//93
f 275//275 267//267 277//277
f 40//40 258//258 268//268
f 258//258 91//91 271//271
f 268//268 271//271 94//94
f 258//258 271//271 268//268
f 91//91 259//259 276//276
f 259//259 46//46 273//273
f 276//276 273//273 95//95
f 259//259 273//273 276//276
f 94//94 278//278 269//269
f 278//278 95//95 274//274
f 269//269 274//274 47//47
f 278//278 274//274 269//269
f 91//91 276//276 271//271
f 276//276 95//95 278//278
f 271//271 278//278 94//94
f 276//276 278//278 271//271
f 30//30 262//262 318//318
f 262//262 92//92 320//320
f 318//318 320//320 108//108
f 262//262 320//320 318//318
f 92//92 263//263 325//325
f 263//263 47//47 323//323
f 325//325 323//323 110//110
f 263//263 323//323 325//325
f 108//108 326//326 319//319
f 326//326 110//110 324//324
f 319//319 324//324 52//52
f 326//326 324//324 319//319
f 92//92 325//325 320//320
f 325//325 110//110 326//326
f 320//320 326//326 108//108
f 325//325 326//326 320//320
f 47//47 266//266 334//334
f 266//266 93//93 336//336
f 334//334 336//336 113//113
f 266//266 336//336 334//334
f 93//93 265//265 329//329
f 265//265 33//33 327//327
f 329//329 327//327 111//111
f 265//265 327//327 329//329
f 113//113 338//338 335//335
f 338//338 111//111 328//328
f 335//335 328//328 53//53
f 338//338 328//328 335//335
f 93//93 329//329 336//336
f 329//329 111//111 338//338
f 336//336 338//338 113//113
f 329//329 338//338 336//336
f 52//52 343//343 322//322
f 343//343 115//115 345//345
f 322//322 345//345 109//109
f 343//343 345//345 322//322
f 115//115 344//344 347//347
f 344//344 53//53 332//332
f 347//347 332//332 112//112
f 344//344 332//332 347//347
f 109//109 333//333 321//321
f 333//333 112//112 331//331
f 321//321 331//331 35//35
f 333//333 331//331 321//321
f 115//115 347//347 345//345
f 347//347 112//112 333//333
f 345//345 333//333 109//109
f 347//347 333//333 345//345
f 47//47 334//334 323//323
f 334//334 113//113 337//337
f 323//323 337//337 110//110
f 334//334 337//337 323//323
f 113//113 335//335 348//348
f 335//335 53//53 344//344
f 348//348 344//344 115//115
f 335//335 344//344 348//348
f 110//110 346//346 324//324
f 346//346 115//115 343//343
f 324//324 343//343 52//52
f 346//346 343//343 324//324
f 113//113 348//348 337//337
f 348//348 115//115 346//346
f 337//337 346//346 110//110
f 348//348 346//346 337//337
f 30//30 318//318 393//393
f 318//318 108//108 396//396
f 393//393 396//396 126//126
f 318//318 396//396 393//393
f 108//108 319//319 405//405
f 319//319 52//52 403//403
f 405//405 403//403 129//129
f 319//319 403//403 405//405
f 126//126 406//406 394//394
f 406//406 129//129 404//404
f 394//394 404//404 56//56
f 406//406 404//404 394//394
f 108//108 405//405 396//396
f 405//405 129//129 406//406
f 396//396 406//406 126//126
f 405//405 406//406 396//396
f 52//52 322//322 472//472
f 322//322 109//109 474//474
f 472//472 474//474 144//144
f 322//322 474//474 472//472
f 109//109 321//321 462//462
f 321//321 35//35 459//459
f 462//462 459//459 141//141
f 321//321 459//459 462//462
f 144//144 476//476 473//473
f 476//476 141//141 460//460
f 473//473 460//460 59//59
f 476//476 460//460 473//473
f 109//109 462//462 474//474
f 462//462 141//141 476//476
f 474//474 476//476 144//144
f 462//462 476//476 474//474
f 56//56 483//483 398//398
f 483//483 146//146 485//485
f 398//398 485//485 127//127
f 483//483 485//485 398//398
f 146//146 484//484 487//487
f 484//484 59//59 464//464
f 487//487 464//464 142//142
f 484//484 464//464 487//487
f 127//127 466//466 397//397
f 466//466 142//142 463//463
f 397//397 463//463 36//36
f 466//466 463//463 397//397
f 146//146 487//487 485//485
f 487//487 142//142 466//466
f 485//485 466//466 127//127
f 487//487 466//466 485//485
f 52//52 472//472 403//403
f 472//472 144//144 475//475
f 403//403 475//475 129//129
f 472//472 475//475 403//403
f 144//144 473//473 488//488
f 473//473 59//59 484//484
f 488//488 484//484 146//146
f 473//473 484//484 488//488
f 129//129 486//486 404//404
f 486//486 146//146 483//483
f 404//404 483//483 56//56
f 486//486 483//483 404//404
f 144//144 488//488 475//475
f 488//488 146//146 486//486
f 475//475 486//486 129//129
f 488//488 486//486 475//475
f 31//31 407//407 249//249
f 407//407 130//130 410//410
f 249//249 410//410 87//87
f 407//407 410//410 249//249
f 130//130 408//408 422//422
f 408//408 57//57 420//420
f 422//422 420//420 133//133
f 408//408 420//420 422//422
f 87//87 421//421 250//250
f 421//421 133//133 419//419
f 250//250 419//419 45//45
f 421//421 419//419 250//250
f 130//130 422//422 410//410
f 422//422 133//133 421//421
f 410//410 421//421 87//87
f 422//422 421//421 410//410
f 57//57 412//412 453//453
f 412//412 131//131 455//455
f 453//453 455//455 140//140
f 412//412 455//455 453//453
f 131//131 411//411 436//436
f 411//411 36//36 433//433
f 436//436 433//433 136//136
f 411//411 433//433 436//436
f 140//140 457//457 454//454
f 457//457 136//136 434//434
f 454//454 434//434 58//58
f 457//457 434//434 454//454
f 131//131 436//436 455//455
f 436//436 136//136 457//457
f 455//455 457//457 140//140
f 436//436 457//457 455//455
f 45//45 442//442 252//252
f 442//442 138//138 444//444
f 252//252 444//444 88//88
f 442//442 444//444 252//252
f 138//138 443//443 446//446
f 443//443 58//58 430//430
f 446//446 430//430 135//135
f 443//443 430//430 446//446
f 88//88 432//432 251//251
f 432//432 135//135 429//429
f 251//251 429//429 32//32
f 432//432 429//429 251//251
f 138//138 446//446 444//444
f 446//446 135//135 432//432
f 444//444 432//432 88//88
f 446//446 432//432 444//444
f 57//57 453//453 420//420
f 453//453 140//140 456//456
f 420//420 456//456 133//133
f 453//453 456//456 420//420
f 140//140 454//454 458//458
f 454//454 58//58 443//443
f 458//458 443//443 138//138
f 454//454 443//443 458//458
f 133//133 445//445 419//419
f 445//445 138//138 442//442
f 419//419 442//442 45//45
f 445//445 442//442 419//419
f 140//140 458//458 456//456
f 458//458 138//138 445//445
f 456//456 445//445 133//133
f 458//458 445//445 456//456
f 29//29 197//197 573//573
f 197//197 73//73 575//575
f 573//573 575//575 168//168
f 197//197 575//575 573//573
f 73//73 198//198 581//581
f 198//198 41//41 579//579
f 581//581 579//579 170//170
f 198//198 579//579 581//581
f 168//168 582//582 574//574
f 582//582 170//170 580//580
f 574//574 580//580 65//65
f 582//582 580//580 574//574
f 73//73 581//581 575//575
f 581//581 170//170 582//582
f 575//575 582//582 168//168
f 581//581 582//582 575//575
f 41//41 201//201 594//594
f 201//201 74//74 596//596
f 594//594 596//596 174//174
f 201//201 596//596 594//594
f 74//74 200//200 589//589
f 200//200 31//31 587//587
f 589//589 587//587 172//172
f 200//200 587//587 589//589
f 174//174 598//598 595//595
f 598//598 172//172 588//588
f 595//595 588//588 66//66
f 598//598 588//588 595//595
f 74//74 589//589 596//596
f 589//589 172//172 598//598
f 596//596 598//598 174//174
f 589//589 598//598 596//596
f 65//65 603//603 578//578
f 603//603 176//176 605//605
f 578//578 605//605 169//169
f 603//603 605//605 578//578
f 176//176 604//604 607//607
f 604//604 66//66 592//592
f 607//607 592//592 173//173
f 604//604 592//592 607//607
f 169//169 593//593 577//577
f 593//593 173//173 591//591
f 577//577 591//591 38//38
f 593//593 591//591 577//577
f 176//176 607//607 605//605
f 607//607 173//173 593//593
f 605//605 593//593 169//169
f 607//607 593//593 605//605
f 41//41 594//594 579//579
f 594//594 174//174 597//597
f 579//579 597//597 170//170
f 594//594 597//597 579//579
f 174//174 595//595 608//608
f 595//595 66//66 604//604
f 608//608 604//604 176//176
f 595//595 604//604 608//608
f 170//170 606//606 580//580
f 606//606 176//176 603//603
f 580//580 603//603 65//65
f 606//606 603//603 580//580
f 174//174 608//608 597//597
f 608//608 176//176 606//606
f 597//597 606//606 170//170
f 608//608 606//606 597//597
f 33//33 256//256 507//507
f 256//256 90//90 509//509
f 507//507 509//509 153//153
f 256//256 509//509 507//507
f 90//90 257//257 516//516
f 257//257 46//46 514//514
f 516//516 514//514 155//155
f 257//257 514//514 516//516
f 153//153 518//518 508//508
f 518//518 155//155 515//515
f 508//508 515//515 62//62
f 518//518 515//515 508//508
f 90//90 516//516 509//509
f 516//516 155//155 518//518
f 509//509 518//518 153//153
f 516//516 518//518 509//509
f 46//46 254//254 503//503
f 254//254 89//89 505//505
f 503//503 505//505 152//152
f 254//254 505//505 503//503
f 89//89 253//253 500//500
f 253//253 29//29 498//498
f 500//500 498//498 150//150
f 253//253 498//498 500//500
f 152//152 506//506 504//504
f 506//506 150//150 499//499
f 504//504 499//499 61//61
f 506//506 499//499 504//504
f 89//89 500//500 505//505
f 500//500 150//150 506//506
f 505//505 506//506 152//152
f 500//500 506//506 505//505
f 62//62 524//524 512//512
f 524//524 157//157 527//527
f 512//512 527//527 154//154
f 524//524 527//527 512//512
f 157//157 523//523 525//525
f 523//523 61//61 502//502
f 525//525 502//502 151//151
f 523//523 502//502 525//525
f 154//154 513//513 511//511
f 513//513 151//151 501//501
f 511//511 501//501 37//37
f 513//513 501//501 511//511
f 157//157 525//525 527//527
f 525//525 151//151 513//513
f 527//527 513//513 154//154
f 525//525 513//513 527//527
f 46//46 503//503 514//514
f 503//503 152//152 517//517
f 514//514 517//517 155//155
f 503//503 517//517 514//514
f 152//152 504//504 526//526
f 504//504 61//61 523//523
f 526//526 523//523 157//157
f 504//504 523//523 526//526
f 155//155 528//528 515//515
f 528//528 157//157 524//524
f 515//515 524//524 62//62
f 528//528 524//524 515//515
f 152//152 526//526 517//517
f 526//526 157//157 528//528
f 517//517 528//528 155//155
f 526//526 528//528 517//517
f 35//35 331//331 353//353
f 331//331 112//112 356//356
f 353//353 356//356 117//117
f 331//331 356//356 353//353
f 112//112 332//332 375//375
f 332//332 53//53 373//373
f 375//375 373//373 121//121
f 332//332 373//373 375//375
f 117//117 377//377 354//354
f 377//377 121//121 374//374
f 354//354 374//374 54//54
f 377//377 374//374 354//354
f 112//112 375//375 356//356
f 375//375 121//121 377//377
f 356//356 377//377 117//117
f 375//375 377//377 356//356
f 53//53 328//328 340//340
f 328//328 111//111 342//342
f 340//340 342//342 114//114
f 328//328 342//342 340//340
f 111//111 327//327 330//330
f 327//327 33//33 305//305
f 330//330 305//305 103//103
f 327//327 305//305 330//330
f 114//114 341//341 339//339
f 341//341 103//103 306//306
f 339//339 306//306 50//50
f 341//341 306//306 339//339
f 111//111 330//330 342//342
f 330//330 103//103 341//341
f 342//342 341//341 114//114
f 330//330 341//341 342//342
f 54//54 363//363 350//350
f 363//363 119//119 366//366
f 350//350 366//366 116//116
f 363//363 366//366 350//350
f 119//119 362//362 364//364
f 362//362 50//50 308//308
f 364//364 308//308 104//104
f 362//362 308//308 364//364
f 116//116 352//352 349//349
f 352//352 104//104 307//307
f 349//349 307//307 34//34
f 352//352 307//307 349//349
f 119//119 364//364 366//366
f 364//364 104//104 352//352
f 366//366 352//352 116//116
f 364//364 352//352 366//366
f 53//53 340//340 373//373
f 340//340 114//114 376//376
f 373//373 376//376 121//121
f 340//340 376//376 373//373
f 114//114 339//339 365//365
f 339//339 50//50 362//362
f 365//365 362//362 119//119
f 339//339 362//362 365//365
f 121//121 378//378 374//374
f 378//378 119//119 363//363
f 374//374 363//363 54//54
f 378//378 363//363 374//374
f 114//114 365//365 376//376
f 365//365 119//119 378//378
f 376//376 378//378 121//121
f 365//365 378//378 376//376
f 36//36 463//463 383//383
f 463//463 142//142 465//465
f 383//383 465//465 123//123
f 463//463 465//465 383//383
f 142//142 464//464 481//481
f 464//464 59//59 478//478
f 481//481 478//478 145//145
f 464//464 478//478 481//481
f 123//123 479//479 384//384
f 479//479 145//145 477//477
f 384//384 477//477 55//55
f 479//479 477//477 384//384
f 142//142 481//481 465//465
f 481//481 145//145 479//479
f 465//465 479//479 123//123
f 481//481 479//479 465//465
f 59//59 460//460 468//468
f 460//460 141//141 471//471
f 468//468 471//471 143//143
f 460//460 471//471 468//468
f 141//141 459//459 461//461
f 459//459 35//35 312//312
f 461//461 312//312 106//106
f 459//459 312//312 461//461
f 143//143 469//469 467//467
f 469//469 106//106 313//313
f 467//467 313//313 51//51
f 469//469 313//313 467//467
f 141//141 461//461 471//471
f 461//461 106//106 469//469
f 471//471 469//469 143//143
f 461//461 469//469 471//471
f 55//55 390//390 380//380
f 390//390 125//125 392//392
f 380//380 392//392 122//122
f 390//390 392//392 380//380
f 125//125 389//389 391//391
f 389//389 51//51 310//310
f 391//391 310//310 105//105
f 389//389 310//310 391//391
f 122//122 382//382 379//379
f 382//382 105//105 309//309
f 379//379 309//309 28//28
f 382//382 309//309 379//379
f 125//125 391//391 392//392
f 391//391 105//105 382//382
f 392//392 382//382 122//122
f 391//391 382//382 392//392
f 59//59 468//468 478//478
f 468//468 143//143 482//482
f 478//478 482//482 145//145
f 468//468 482//482 478//478
f 143//143 467//467 470//470
f 467//467 51//51 389//389
f 470//470 389//389 125//125
f 467//467 389//389 470//470
f 145//145 480//480 477//477
f 480//480 125//125 390//390
f 477//477 390//390 55//55
f 480//480 390//390 477//477
f 143//143 470//470 482//482
f 470//470 125//125 480//480
f 482//482 480//480 145//145
f 470//470 480//480 482//482
f 670//670 669//669 673//673
f 670//670 673//673 671//671
f 671//671 673//673 674//674
f 671//671 674//674 672//672
f 673//673 669//669 675//675
f 673//673 675//675 674//674
f 674//674 675//675 676//676
f 674//674 676//676 672//672
f 675//675 669//669 677//677
f 675//675 677//677 676//676
f 676//676 677//677 678//678
f 676//676 678//678 672//672
f 677//677 669//669 679//679
f 677//677 679//679 678//678
f 678//678 679//679 680//680
f 678//678 680//680 672//672
f 679//679 669//669 681//681
f 679//679 681//681 680//680
f 680//680 681//681 682//682
f 680//680 682//682 672//672
f 681//681 669//669 683//683
f 681//681 683//683 682//682
f 682//682 683//683 684//684
f 682//682 684//684 672//672
f 683//683 669//669 685//685
f 683//683 685//685 684//684
f 684//684 685//685 686//686
f 684//684 686//686 672//672
f 685//685 669//669 687//687
f 685//685 687//687 686//686
f 686//686 687//687 688//688
f 686//686 688//688 672//672
f 687//687 669//669 689//689
f 687//687 689//689 688//688
f 688//688 689//689 690//690
f 688//688 690//690 672//672
f 689//689 669//669 670//670
f 689//689 670//670 690//690
f 690//690 670//670 671//671
f 690//690 671//671 672//672
f 691//691 728//728 707//707
f 728//728 702//702 731//731
f 707//707 731//731 696//696
f 728//728 731//731 707//707
f 691//691 707//707 703//703
f 707//707 696//696 708//708
f 703//703 708//708 692//692
f 707//707 708//708 703//703
f 691//691 703//703 712//712
f 703//703 692//692 713//713
f 712//712 713//713 698//698
f 703//703 713//713 712//712
f 691//691 712//712 724//724
f 712//712 698//698 727//727
f 724//724 727//727 701//701
f 712//712 727//727 724//724
f 691//691 724//724 728//728
f 724//724 701//701 732//732
f 728//728 732//732 702//702
f 724//724 732//732 728//728
f 692//692 708//708 719//719
f 708//708 696//696 722//722
f 719//719 722//722 700//700
f 708//708 722//722 719//719
f 696//696 731//731 709//709
f 731//731 702//702 730//730
f 709//709 730//730 695//695
f 731//731 730//730 709//709
f 702//702 732//732 729//729
f 732//732 701//701 725//725
f 729//729 725//725 693//693
f 732//732 725//725 729//729
f 701//701 727//727 726//726
f 727//727 698//698 714//714
f 726//726 714//714 697//697
f 727//727 714//714 726//726
f 698//698 713//713 718//718
f 713//713 692//692 715//715
f 718//718 715//715 699//699
f 713//713 715//715 718//718
f 694//694 720//720 706//706
f 720//720 700//700 721//721
f 706//706 721//721 695//695
f 720//720 721//721 706//706
f 694//694 706//706 704//704
f 706//706 695//695 705//705
f 704//704 705//705 693//693
f 706//706 705//705 704//704
f 694//694 704//704 711//711
f 704//704 693//693 710//710
f 711//711 710//710 697//697
f 704//704 710//710 711//711
f 694//694 711//711 716//716
f 711//711 697//697 717//717
f 716//716 717//717 699//699
f 711//711 717//717 716//716
f 694//694 716//716 720//720
f 716//716 699//699 723//723
f 720//720 723//723 700//700
f 716//716 723//723 720//720
f 695//695 721//721 709//709
f 721//721 700//700 722//722
f 709//709 722//722 696//696
f 721//721 722//722 709//709
f 693//693 705//705 729//729
f 705//705 695//695 730//730
f 729//729 730//730 702//702
f 705//705 730//730 729//729
f 697//697 710//710 726//726
f 710//710 693//693 725//725
f 726//726 725//725 701//701
f 710//710 725//725 726//726
f 699//699 717//717 718//718
f 717//717 697//697 714//714
f 718//718 714//714 698//698
f 717//717 714//714 718//718
f 700//700 723//723 719//719
f 723//723 699//699 715//715
f 719//719 715//715 692//692
f 723//723 715//715 719//719

