# https://github.com/mikedh/trimesh
v -0.09000000 -0.09500000 -0.53000000
v -0.09000000 -0.09500000 -0.07000000
v -0.09000000 0.09500000 -0.53000000
v -0.09000000 0.09500000 -0.07000000
v 0.09000000 -0.09500000 -0.53000000
v 0.09000000 -0.09500000 -0.07000000
v 0.09000000 0.09500000 -0.53000000
v 0.09000000 0.09500000 -0.07000000
v -0.09000000 -0.08500000 -0.82000000
v -0.09000000 -0.08500000 -0.50000000
v -0.09000000 0.08500000 -0.82000000
v -0.09000000 0.08500000 -0.50000000
v 0.09000000 -0.08500000 -0.82000000
v 0.09000000 -0.08500000 -0.50000000
v 0.09000000 0.08500000 -0.82000000
v 0.09000000 0.08500000 -0.50000000
v -0.05500000 0.53000000 -1.18000000
v -0.01000000 0.53000000 -1.18000000
v -0.01000000 -0.49000000 -1.18000000
v -0.05500000 -0.49000000 -1.18000000
v -0.01445640 0.53000000 -1.16047523
v -0.01445640 -0.49000000 -1.16047523
v -0.02694296 0.53000000 -1.14481758
v -0.02694296 -0.49000000 -1.14481758
v -0.04498656 0.53000000 -1.13612824
v -0.04498656 -0.49000000 -1.13612824
v -0.06501344 0.53000000 -1.13612824
v -0.06501344 -0.49000000 -1.13612824
v -0.08305704 0.53000000 -1.14481758
v -0.08305704 -0.49000000 -1.14481758
v -0.09554360 0.53000000 -1.16047523
v -0.09554360 -0.49000000 -1.16047523
v -0.10000000 0.53000000 -1.18000000
v -0.10000000 -0.49000000 -1.18000000
v -0.09554360 0.53000000 -1.19952477
v -0.09554360 -0.49000000 -1.19952477
v -0.08305704 0.53000000 -1.21518242
v -0.08305704 -0.49000000 -1.21518242
v -0.06501344 0.53000000 -1.22387176
v -0.06501344 -0.49000000 -1.22387176
v -0.04498656 0.53000000 -1.22387176
v -0.04498656 -0.49000000 -1.22387176
v -0.02694296 0.53000000 -1.21518242
v -0.02694296 -0.49000000 -1.21518242
v -0.01445640 0.53000000 -1.19952477
v -0.01445640 -0.49000000 -1.19952477
v 0.06000000 0.36500000 -1.12000000
v 0.09700000 0.36500000 -1.12000000
v 0.09700000 -0.52500000 -1.12000000
v 0.06000000 -0.52500000 -1.12000000
v 0.09204294 0.36500000 -1.10150000
v 0.09204294 -0.52500000 -1.10150000
v 0.07850000 0.36500000 -1.08795706
v 0.07850000 -0.52500000 -1.08795706
v 0.06000000 0.36500000 -1.08300000
v 0.06000000 -0.52500000 -1.08300000
v 0.04150000 0.36500000 -1.08795706
v 0.04150000 -0.52500000 -1.08795706
v 0.02795706 0.36500000 -1.10150000
v 0.02795706 -0.52500000 -1.10150000
v 0.02300000 0.36500000 -1.12000000
v 0.02300000 -0.52500000 -1.12000000
v 0.02795706 0.36500000 -1.13850000
v 0.02795706 -0.52500000 -1.13850000
v 0.04150000 0.36500000 -1.15204294
v 0.04150000 -0.52500000 -1.15204294
v 0.06000000 0.36500000 -1.15700000
v 0.06000000 -0.52500000 -1.15700000
v 0.07850000 0.36500000 -1.15204294
v 0.07850000 -0.52500000 -1.15204294
v 0.09204294 0.36500000 -1.13850000
v 0.09204294 -0.52500000 -1.13850000
v -0.10500000 -0.12500000 -1.12000000
v -0.10500000 -0.12500000 -0.76000000
v -0.10500000 0.05500000 -1.12000000
v -0.10500000 0.05500000 -0.76000000
v 0.10500000 -0.12500000 -1.12000000
v 0.10500000 -0.12500000 -0.76000000
v 0.10500000 0.05500000 -1.12000000
v 0.10500000 0.05500000 -0.76000000
v -0.09000000 -0.12943379 -0.25826853
v -0.09000000 -0.07951708 0.23923355
v -0.09000000 0.07951708 -0.27923355
v -0.09000000 0.12943379 0.21826853
v 0.09000000 -0.12943379 -0.25826853
v 0.09000000 -0.07951708 0.23923355
v 0.09000000 0.07951708 -0.27923355
v 0.09000000 0.12943379 0.21826853
v -0.05500000 -0.35233809 -0.41765774
v -0.05500000 -0.33440552 -0.29900521
v -0.05500000 -0.06559448 -0.46099479
v -0.05500000 -0.04766191 -0.34234226
v 0.05500000 -0.35233809 -0.41765774
v 0.05500000 -0.33440552 -0.29900521
v 0.05500000 -0.06559448 -0.46099479
v 0.05500000 -0.04766191 -0.34234226
v -0.10750000 -0.05750000 -0.84250000
v -0.10750000 -0.05750000 -0.81750000
v -0.10750000 -0.02250000 -0.84250000
v -0.10750000 -0.02250000 -0.81750000
v 0.10750000 -0.05750000 -0.84250000
v 0.10750000 -0.05750000 -0.81750000
v 0.10750000 -0.02250000 -0.84250000
v 0.10750000 -0.02250000 -0.81750000
v -0.10750000 -0.05750000 -0.90000000
v -0.10750000 -0.05750000 -0.87500000
v -0.10750000 -0.02250000 -0.90000000
v -0.10750000 -0.02250000 -0.87500000
v 0.10750000 -0.05750000 -0.90000000
v 0.10750000 -0.05750000 -0.87500000
v 0.10750000 -0.02250000 -0.90000000
v 0.10750000 -0.02250000 -0.87500000
v -0.10750000 -0.05750000 -0.95750000
v -0.10750000 -0.05750000 -0.93250000
v -0.10750000 -0.02250000 -0.95750000
v -0.10750000 -0.02250000 -0.93250000
v 0.10750000 -0.05750000 -0.95750000
v 0.10750000 -0.05750000 -0.93250000
v 0.10750000 -0.02250000 -0.95750000
v 0.10750000 -0.02250000 -0.93250000
v -0.10750000 -0.05750000 -1.01500000
v -0.10750000 -0.05750000 -0.99000000
v -0.10750000 -0.02250000 -1.01500000
v -0.10750000 -0.02250000 -0.99000000
v 0.10750000 -0.05750000 -1.01500000
v 0.10750000 -0.05750000 -0.99000000
v 0.10750000 -0.02250000 -1.01500000
v 0.10750000 -0.02250000 -0.99000000
v -0.10750000 -0.05750000 -1.07250000
v -0.10750000 -0.05750000 -1.04750000
v -0.10750000 -0.02250000 -1.07250000
v -0.10750000 -0.02250000 -1.04750000
v 0.10750000 -0.05750000 -1.07250000
v 0.10750000 -0.05750000 -1.04750000
v 0.10750000 -0.02250000 -1.07250000
v 0.10750000 -0.02250000 -1.04750000
vn -0.57735027 -0.57735027 -0.57735027
vn -0.57735027 -0.57735027 0.57735027
vn -0.57735027 0.57735027 -0.57735027
vn -0.57735027 0.57735027 0.57735027
vn 0.57735027 -0.57735027 -0.57735027
vn 0.57735027 -0.57735027 0.57735027
vn 0.57735027 0.57735027 -0.57735027
vn 0.57735027 0.57735027 0.57735027
vn -0.57735027 -0.57735027 -0.57735027
vn -0.57735027 -0.57735027 0.57735027
vn -0.57735027 0.57735027 -0.57735027
vn -0.57735027 0.57735027 0.57735027
vn 0.57735027 -0.57735027 -0.57735027
vn 0.57735027 -0.57735027 0.57735027
vn 0.57735027 0.57735027 -0.57735027
vn 0.57735027 0.57735027 0.57735027
vn 0.00000000 1.00000000 0.00000000
vn 0.75101666 0.66028325 0.00000000
vn 0.75101666 -0.66028325 -0.00000000
vn 0.00000000 -1.00000000 0.00000000
vn 0.67664263 0.66028325 0.32585392
vn 0.67664263 -0.66028325 0.32585392
vn 0.46825123 0.66028325 0.58716847
vn 0.46825123 -0.66028325 0.58716847
vn 0.16711693 0.66028325 0.73218711
vn 0.16711693 -0.66028325 0.73218711
vn -0.16711693 0.66028325 0.73218711
vn -0.16711693 -0.66028325 0.73218711
vn -0.46825123 0.66028325 0.58716847
vn -0.46825123 -0.66028325 0.58716847
vn -0.67664263 0.66028325 0.32585392
vn -0.67664263 -0.66028325 0.32585392
vn -0.75101666 0.66028325 -0.00000000
vn -0.75101666 -0.66028325 0.00000000
vn -0.67664263 0.66028325 -0.32585392
vn -0.67664263 -0.66028325 -0.32585392
vn -0.46825123 0.66028325 -0.58716847
vn -0.46825123 -0.66028325 -0.58716847
vn -0.16711693 0.66028325 -0.73218711
vn -0.16711693 -0.66028325 -0.73218711
vn 0.16711693 0.66028325 -0.73218711
vn 0.16711693 -0.66028325 -0.73218711
vn 0.46825123 0.66028325 -0.58716847
vn 0.46825123 -0.66028325 -0.58716847
vn 0.67664263 0.66028325 -0.32585392
vn 0.67664263 -0.66028325 -0.32585392
vn 0.00000000 1.00000000 0.00000000
vn 0.75716233 0.65322677 -0.00000000
vn 0.75716233 -0.65322677 -0.00000000
vn 0.00000000 -1.00000000 0.00000000
vn 0.65572181 0.65322677 0.37858116
vn 0.65572181 -0.65322677 0.37858116
vn 0.37858116 0.65322677 0.65572181
vn 0.37858116 -0.65322677 0.65572181
vn 0.00000000 0.65322677 0.75716233
vn -0.00000000 -0.65322677 0.75716233
vn -0.37858116 0.65322677 0.65572181
vn -0.37858116 -0.65322677 0.65572181
vn -0.65572181 0.65322677 0.37858116
vn -0.65572181 -0.65322677 0.37858116
vn -0.75716233 0.65322677 0.00000000
vn -0.75716233 -0.65322677 -0.00000000
vn -0.65572181 0.65322677 -0.37858116
vn -0.65572181 -0.65322677 -0.37858116
vn -0.37858116 0.65322677 -0.65572181
vn -0.37858116 -0.65322677 -0.65572181
vn -0.00000000 0.65322677 -0.75716233
vn 0.00000000 -0.65322677 -0.75716233
vn 0.37858116 0.65322677 -0.65572181
vn 0.37858116 -0.65322677 -0.65572181
vn 0.65572181 0.65322677 -0.37858116
vn 0.65572181 -0.65322677 -0.37858116
vn -0.57735027 -0.57735027 -0.57735027
vn -0.57735027 -0.57735027 0.57735027
vn -0.57735027 0.57735027 -0.57735027
vn -0.57735027 0.57735027 0.57735027
vn 0.57735027 -0.57735027 -0.57735027
vn 0.57735027 -0.57735027 0.57735027
vn 0.57735027 0.57735027 -0.57735027
vn 0.57735027 0.57735027 0.57735027
vn -0.57735027 -0.63210477 -0.51682707
vn -0.57735027 -0.51682707 0.63210477
vn -0.57735027 0.51682707 -0.63210477
vn -0.57735027 0.63210477 0.51682707
vn 0.57735027 -0.63210477 -0.51682707
vn 0.57735027 -0.51682707 0.63210477
vn 0.57735027 0.51682707 -0.63210477
vn 0.57735027 0.63210477 0.51682707
vn -0.57735027 -0.65714539 -0.48458910
vn -0.57735027 -0.48458910 0.65714539
vn -0.57735027 0.48458910 -0.65714539
vn -0.57735027 0.65714539 0.48458910
vn 0.57735027 -0.65714539 -0.48458910
vn 0.57735027 -0.48458910 0.65714539
vn 0.57735027 0.48458910 -0.65714539
vn 0.57735027 0.65714539 0.48458910
vn -0.57735027 -0.57735027 -0.57735027
vn -0.57735027 -0.57735027 0.57735027
vn -0.57735027 0.57735027 -0.57735027
vn -0.57735027 0.57735027 0.57735027
vn 0.57735027 -0.57735027 -0.57735027
vn 0.57735027 -0.57735027 0.57735027
vn 0.57735027 0.57735027 -0.57735027
vn 0.57735027 0.57735027 0.57735027
vn -0.57735027 -0.57735027 -0.57735027
vn -0.57735027 -0.57735027 0.57735027
vn -0.57735027 0.57735027 -0.57735027
vn -0.57735027 0.57735027 0.57735027
vn 0.57735027 -0.57735027 -0.57735027
vn 0.57735027 -0.57735027 0.57735027
vn 0.57735027 0.57735027 -0.57735027
vn 0.57735027 0.57735027 0.57735027
vn -0.57735027 -0.57735027 -0.57735027
vn -0.57735027 -0.57735027 0.57735027
vn -0.57735027 0.57735027 -0.57735027
vn -0.57735027 0.57735027 0.57735027
vn 0.57735027 -0.57735027 -0.57735027
vn 0.57735027 -0.57735027 0.57735027
vn 0.57735027 0.57735027 -0.57735027
vn 0.57735027 0.57735027 0.57735027
vn -0.57735027 -0.57735027 -0.57735027
vn -0.57735027 -0.57735027 0.57735027
vn -0.57735027 0.57735027 -0.57735027
vn -0.57735027 0.57735027 0.57735027
vn 0.57735027 -0.57735027 -0.57735027
vn 0.57735027 -0.57735027 0.57735027
vn 0.57735027 0.57735027 -0.57735027
vn 0.57735027 0.57735027 0.57735027
vn -0.57735027 -0.57735027 -0.57735027
vn -0.57735027 -0.57735027 0.57735027
vn -0.57735027 0.57735027 -0.57735027
vn -0.57735027 0.57735027 0.57735027
vn 0.57735027 -0.57735027 -0.57735027
vn 0.57735027 -0.57735027 0.57735027
vn 0.57735027 0.57735027 -0.57735027
vn 0.57735027 0.57735027 0.57735027
f 2//2 4//4 1//1
f 5//5 2//2 1//1
f 1//1 4//4 3//3
f 3//3 5//5 1//1
f 2//2 8//8 4//4
f 6//6 2//2 5//5
f 6//6 8//8 2//2
f 4//4 8//8 3//3
f 7//7 5//5 3//3
f 3//3 8//8 7//7
f 7//7 6//6 5//5
f 8//8 6//6 7//7
f 10//10 12//12 9//9
f 13//13 10//10 9//9
f 9//9 12//12 11//11
f 11//11 13//13 9//9
f 10//10 16//16 12//12
f 14//14 10//10 13//13
f 14//14 16//16 10//10
f 12//12 16//16 11//11
f 15//15 13//13 11//11
f 11//11 16//16 15//15
f 15//15 14//14 13//13
f 16//16 14//14 15//15
f 18//18 17//17 21//21
f 18//18 21//21 19//19
f 19//19 21//21 22//22
f 19//19 22//22 20//20
f 21//21 17//17 23//23
f 21//21 23//23 22//22
f 22//22 23//23 24//24
f 22//22 24//24 20//20
f 23//23 17//17 25//25
f 23//23 25//25 24//24
f 24//24 25//25 26//26
f 24//24 26//26 20//20
f 25//25 17//17 27//27
f 25//25 27//27 26//26
f 26//26 27//27 28//28
f 26//26 28//28 20//20
f 27//27 17//17 29//29
f 27//27 29//29 28//28
f 28//28 29//29 30//30
f 28//28 30//30 20//20
f 29//29 17//17 31//31
f 29//29 31//31 30//30
f 30//30 31//31 32//32
f 30//30 32//32 20//20
f 31//31 17//17 33//33
f 31//31 33//33 32//32
f 32//32 33//33 34//34
f 32//32 34//34 20//20
f 33//33 17//17 35//35
f 33//33 35//35 34//34
f 34//34 35//35 36//36
f 34//34 36//36 20//20
f 35//35 17//17 37//37
f 35//35 37//37 36//36
f 36//36 37//37 38//38
f 36//36 38//38 20//20
f 37//37 17//17 39//39
f 37//37 39//39 38//38
f 38//38 39//39 40//40
f 38//38 40//40 20//20
f 39//39 17//17 41//41
f 39//39 41//41 40//40
f 40//40 41//41 42//42
f 40//40 42//42 20//20
f 41//41 17//17 43//43
f 41//41 43//43 42//42
f 42//42 43//43 44//44
f 42//42 44//44 20//20
f 43//43 17//17 45//45
f 43//43 45//45 44//44
f 44//44 45//45 46//46
f 44//44 46//46 20//20
f 45//45 17//17 18//18
f 45//45 18//18 46//46
f 46//46 18//18 19//19
f 46//46 19//19 20//20
f 48//48 47//47 51//51
f 48//48 51//51 49//49
f 49//49 51//51 52//52
f 49//49 52//52 50//50
f 51//51 47//47 53//53
f 51//51 53//53 52//52
f 52//52 53//53 54//54
f 52//52 54//54 50//50
f 53//53 47//47 55//55
f 53//53 55//55 54//54
f 54//54 55//55 56//56
f 54//54 56//56 50//50
f 55//55 47//47 57//57
f 55//55 57//57 56//56
f 56//56 57//57 58//58
f 56//56 58//58 50//50
f 57//57 47//47 59//59
f 57//57 59//59 58//58
f 58//58 59//59 60//60
f 58//58 60//60 50//50
f 59//59 47//47 61//61
f 59//59 61//61 60//60
f 60//60 61//61 62//62
f 60//60 62//62 50//50
f 61//61 47//47 63//63
f 61//61 63//63 62//62
f 62//62 63//63 64//64
f 62//62 64//64 50//50
f 63//63 47//47 65//65
f 63//63 65//65 64//64
f 64//64 65//65 66//66
f 64//64 66//66 50//50
f 65//65 47//47 67//67
f 65//65 67//67 66//66
f 66//66 67//67 68//68
f 66//66 68//68 50//50
f 67//67 47//47 69//69
f 67//67 69//69 68//68
f 68//68 69//69 70//70
f 68//68 70//70 50//50
f 69//69 47//47 71//71
f 69//69 71//71 70//70
f 70//70 71//71 72//72
f 70//70 72//72 50//50
f 71//71 47//47 48//48
f 71//71 48//48 72//72
f 72//72 48//48 49//49
f 72//72 49//49 50//50
f 74//74 76//76 73//73
f 77//77 74//74 73//73
f 73//73 76//76 75//75
f 75//75 77//77 73//73
f 74//74 80//80 76//76
f 78//78 74//74 77//77
f 78//78 80//80 74//74
f 76//76 80//80 75//75
f 79//79 77//77 75//75
f 75//75 80//80 79//79
f 79//79 78//78 77//77
f 80//80 78//78 79//79
f 82//82 84//84 81//81
f 85//85 82//82 81//81
f 81//81 84//84 83//83
f 83//83 85//85 81//81
f 82//82 88//88 84//84
f 86//86 82//82 85//85
f 86//86 88//88 82//82
f 84//84 88//88 83//83
f 87//87 85//85 83//83
f 83//83 88//88 87//87
f 87//87 86//86 85//85
f 88//88 86//86 87//87
f 90//90 92//92 89//89
f 93//93 90//90 89//89
f 89//89 92//92 91//91
f 91//91 93//93 89//89
f 90//90 96//96 92//92
f 94//94 90//90 93//93
f 94//94 96//96 90//90
f 92//92 96//96 91//91
f 95//95 93//93 91//91
f 91//91 96//96 95//95
f 95//95 94//94 93//93
f 96//96 94//94 95//95
f 98//98 100//100 97//97
f 101//101 98//98 97//97
f 97//97 100//100 99//99
f 99//99 101//101 97//97
f 98//98 104//104 100//100
f 102//102 98//98 101//101
f 102//102 104//104 98//98
f 100//100 104//104 99//99
f 103//103 101//101 99//99
f 99//99 104//104 103//103
f 103//103 102//102 101//101
f 104//104 102//102 103//103
f 106//106 108//108 105//105
f 109//109 106//106 105//105
f 105//105 108//108 107//107
f 107//107 109//109 105//105
f 106//106 112//112 108//108
f 110//110 106//106 109//109
f 110//110 112//112 106//106
f 108//108 112//112 107//107
f 111//111 109//109 107//107
f 107//107 112//112 111//111
f 111//111 110//110 109//109
f 112//112 110//110 111//111
f 114//114 116//116 113//113
f 117//117 114//114 113//113
f 113//113 116//116 115//115
f 115//115 117//117 113//113
f 114//114 120//120 116//116
f 118//118 114//114 117//117
f 118//118 120//120 114//114
f 116//116 120//120 115//115
f 119//119 117//117 115//115
f 115//115 120//120 119//119
f 119//119 118//118 117//117
f 120//120 118//118 119//119
f 122//122 124//124 121//121
f 125//125 122//122 121//121
f 121//121 124//124 123//123
f 123//123 125//125 121//121
f 122//122 128//128 124//124
f 126//126 122//122 125//125
f 126//126 128//128 122//122
f 124//124 128//128 123//123
f 127//127 125//125 123//123
f 123//123 128//128 127//127
f 127//127 126//126 125//125
f 128//128 126//126 127//127
f 130//130 132//132 129//129
f 133//133 130//130 129//129
f 129//129 132//132 131//131
f 131//131 133//133 129//129
f 130//130 136//136 132//132
f 134//134 130//130 133//133
f 134//134 136//136 130//130
f 132//132 136//136 131//131
f 135//135 133//133 131//131
f 131//131 136//136 135//135
f 135//135 134//134 133//133
f 136//136 134//134 135//135

