# https://github.com/mikedh/trimesh
v 0.00000000 2.50000000 -2.50000000
v 0.08000000 2.50000000 -2.50000000
v 0.08000000 2.50000000 2.50000000
v 0.00000000 2.50000000 2.50000000
v 0.07391036 2.53061467 -2.50000000
v 0.07391036 2.53061467 2.50000000
v 0.05656854 2.55656854 -2.50000000
v 0.05656854 2.55656854 2.50000000
v 0.03061467 2.57391036 -2.50000000
v 0.03061467 2.57391036 2.50000000
v 0.00000000 2.58000000 -2.50000000
v 0.00000000 2.58000000 2.50000000
v -0.03061467 2.57391036 -2.50000000
v -0.03061467 2.57391036 2.50000000
v -0.05656854 2.55656854 -2.50000000
v -0.05656854 2.55656854 2.50000000
v -0.07391036 2.53061467 -2.50000000
v -0.07391036 2.53061467 2.50000000
v -0.08000000 2.50000000 -2.50000000
v -0.08000000 2.50000000 2.50000000
v -0.07391036 2.46938533 -2.50000000
v -0.07391036 2.46938533 2.50000000
v -0.05656854 2.44343146 -2.50000000
v -0.05656854 2.44343146 2.50000000
v -0.03061467 2.42608964 -2.50000000
v -0.03061467 2.42608964 2.50000000
v -0.00000000 2.42000000 -2.50000000
v -0.00000000 2.42000000 2.50000000
v 0.03061467 2.42608964 -2.50000000
v 0.03061467 2.42608964 2.50000000
v 0.05656854 2.44343146 -2.50000000
v 0.05656854 2.44343146 2.50000000
v 0.07391036 2.46938533 -2.50000000
v 0.07391036 2.46938533 2.50000000
v 0.55000000 4.87000000 -0.62500000
v 0.55000000 4.94000000 -0.62500000
v 0.55000000 4.94000000 0.62500000
v 0.55000000 4.87000000 0.62500000
v 0.51962814 4.93306782 -0.62500000
v 0.51962814 4.93306782 0.62500000
v 0.49527180 4.91364429 -0.62500000
v 0.49527180 4.91364429 0.62500000
v 0.48175505 4.88557647 -0.62500000
v 0.48175505 4.88557647 0.62500000
v 0.48175505 4.85442353 -0.62500000
v 0.48175505 4.85442353 0.62500000
v 0.49527180 4.82635571 -0.62500000
v 0.49527180 4.82635571 0.62500000
v 0.51962814 4.80693218 -0.62500000
v 0.51962814 4.80693218 0.62500000
v 0.55000000 4.80000000 -0.62500000
v 0.55000000 4.80000000 0.62500000
v 0.58037186 4.80693218 -0.62500000
v 0.58037186 4.80693218 0.62500000
v 0.60472820 4.82635571 -0.62500000
v 0.60472820 4.82635571 0.62500000
v 0.61824495 4.85442353 -0.62500000
v 0.61824495 4.85442353 0.62500000
v 0.61824495 4.88557647 -0.62500000
v 0.61824495 4.88557647 0.62500000
v 0.60472820 4.91364429 -0.62500000
v 0.60472820 4.91364429 0.62500000
v 0.58037186 4.93306782 -0.62500000
v 0.58037186 4.93306782 0.62500000
v 0.88000000 4.80000000 -0.16000000
v 0.88000000 4.80000000 0.16000000
v 0.88000000 4.92000000 -0.16000000
v 0.88000000 4.92000000 0.16000000
v 1.44000000 4.80000000 -0.16000000
v 1.44000000 4.80000000 0.16000000
v 1.44000000 4.92000000 -0.16000000
v 1.44000000 4.92000000 0.16000000
v 1.01000000 4.77000000 -0.11000000
v 1.01000000 4.77000000 0.13000000
v 1.01000000 4.81000000 -0.11000000
v 1.01000000 4.81000000 0.13000000
v 1.39000000 4.77000000 -0.11000000
v 1.39000000 4.77000000 0.13000000
v 1.39000000 4.81000000 -0.11000000
v 1.39000000 4.81000000 0.13000000
v 0.00000000 0.07000000 -0.05000000
v 0.16000000 0.07000000 -0.05000000
v 0.16000000 0.07000000 0.05000000
v 0.00000000 0.07000000 0.05000000
v 0.14782073 0.13122935 -0.05000000
v 0.14782073 0.13122935 0.05000000
v 0.11313708 0.18313708 -0.05000000
v 0.11313708 0.18313708 0.05000000
v 0.06122935 0.21782073 -0.05000000
v 0.06122935 0.21782073 0.05000000
v 0.00000000 0.23000000 -0.05000000
v 0.00000000 0.23000000 0.05000000
v -0.06122935 0.21782073 -0.05000000
v -0.06122935 0.21782073 0.05000000
v -0.11313708 0.18313708 -0.05000000
v -0.11313708 0.18313708 0.05000000
v -0.14782073 0.13122935 -0.05000000
v -0.14782073 0.13122935 0.05000000
v -0.16000000 0.07000000 -0.05000000
v -0.16000000 0.07000000 0.05000000
v -0.14782073 0.00877065 -0.05000000
v -0.14782073 0.00877065 0.05000000
v -0.11313708 -0.04313708 -0.05000000
v -0.11313708 -0.04313708 0.05000000
v -0.06122935 -0.07782073 -0.05000000
v -0.06122935 -0.07782073 0.05000000
v -0.00000000 -0.09000000 -0.05000000
v -0.00000000 -0.09000000 0.05000000
v 0.06122935 -0.07782073 -0.05000000
v 0.06122935 -0.07782073 0.05000000
v 0.11313708 -0.04313708 -0.05000000
v 0.11313708 -0.04313708 0.05000000
v 0.14782073 0.00877065 -0.05000000
v 0.14782073 0.00877065 0.05000000
vn 0.00000000 0.00000000 -1.00000000
vn 0.74620262 0.00000000 -0.66571890
vn 0.74620262 -0.00000000 0.66571890
vn 0.00000000 0.00000000 1.00000000
vn 0.68940133 0.28555938 -0.66571890
vn 0.68940133 0.28555938 0.66571890
vn 0.52764493 0.52764493 -0.66571890
vn 0.52764493 0.52764493 0.66571890
vn 0.28555938 0.68940133 -0.66571890
vn 0.28555938 0.68940133 0.66571890
vn -0.00000000 0.74620262 -0.66571890
vn 0.00000000 0.74620262 0.66571890
vn -0.28555938 0.68940133 -0.66571890
vn -0.28555938 0.68940133 0.66571890
vn -0.52764493 0.52764493 -0.66571890
vn -0.52764493 0.52764493 0.66571890
vn -0.68940133 0.28555938 -0.66571890
vn -0.68940133 0.28555938 0.66571890
vn -0.74620262 -0.00000000 -0.66571890
vn -0.74620262 0.00000000 0.66571890
vn -0.68940133 -0.28555938 -0.66571890
vn -0.68940133 -0.28555938 0.66571890
vn -0.52764493 -0.52764493 -0.66571890
vn -0.52764493 -0.52764493 0.66571890
vn -0.28555938 -0.68940133 -0.66571890
vn -0.28555938 -0.68940133 0.66571890
vn 0.00000000 -0.74620262 -0.66571890
vn -0.00000000 -0.74620262 0.66571890
vn 0.28555938 -0.68940133 -0.66571890
vn 0.28555938 -0.68940133 0.66571890
vn 0.52764493 -0.52764493 -0.66571890
vn 0.52764493 -0.52764493 0.66571890
vn 0.68940133 -0.28555938 -0.66571890
vn 0.68940133 -0.28555938 0.66571890
vn 0.00000000 0.00000000 -1.00000000
vn -0.00000000 0.75101666 -0.66028325
vn -0.00000000 0.75101666 0.66028325
vn 0.00000000 0.00000000 1.00000000
vn -0.32585392 0.67664263 -0.66028325
vn -0.32585392 0.67664263 0.66028325
vn -0.58716847 0.46825123 -0.66028325
vn -0.58716847 0.46825123 0.66028325
vn -0.73218711 0.16711693 -0.66028325
vn -0.73218711 0.16711693 0.66028325
vn -0.73218711 -0.16711693 -0.66028325
vn -0.73218711 -0.16711693 0.66028325
vn -0.58716847 -0.46825123 -0.66028325
vn -0.58716847 -0.46825123 0.66028325
vn -0.32585392 -0.67664263 -0.66028325
vn -0.32585392 -0.67664263 0.66028325
vn 0.00000000 -0.75101666 -0.66028325
vn -0.00000000 -0.75101666 0.66028325
vn 0.32585392 -0.67664263 -0.66028325
vn 0.32585392 -0.67664263 0.66028325
vn 0.58716847 -0.46825123 -0.66028325
vn 0.58716847 -0.46825123 0.66028325
vn 0.73218711 -0.16711693 -0.66028325
vn 0.73218711 -0.16711693 0.66028325
vn 0.73218711 0.16711693 -0.66028325
vn 0.73218711 0.16711693 0.66028325
vn 0.58716847 0.46825123 -0.66028325
vn 0.58716847 0.46825123 0.66028325
vn 0.32585392 0.67664263 -0.66028325
vn 0.32585392 0.67664263 0.66028325
vn -0.57735027 -0.57735027 -0.57735027
vn -0.57735027 -0.57735027 0.57735027
vn -0.57735027 0.57735027 -0.57735027
vn -0.57735027 0.57735027 0.57735027
vn 0.57735027 -0.57735027 -0.57735027
vn 0.57735027 -0.57735027 0.57735027
vn 0.57735027 0.57735027 -0.57735027
vn 0.57735027 0.57735027 0.57735027
vn -0.57735027 -0.57735027 -0.57735027
vn -0.57735027 -0.57735027 0.57735027
vn -0.57735027 0.57735027 -0.57735027
vn -0.57735027 0.57735027 0.57735027
vn 0.57735027 -0.57735027 -0.57735027
vn 0.57735027 -0.57735027 0.57735027
vn 0.57735027 0.57735027 -0.57735027
vn 0.57735027 0.57735027 0.57735027
vn 0.00000000 0.00000000 -1.00000000
vn 0.74620262 -0.00000000 -0.66571890
vn 0.74620262 -0.00000000 0.66571890
vn 0.00000000 0.00000000 1.00000000
vn 0.68940133 0.28555938 -0.66571890
vn 0.68940133 0.28555938 0.66571890
vn 0.52764493 0.52764493 -0.66571890
vn 0.52764493 0.52764493 0.66571890
vn 0.28555938 0.68940133 -0.66571890
vn 0.28555938 0.68940133 0.66571890
vn -0.00000000 0.74620262 -0.66571890
vn -0.00000000 0.74620262 0.66571890
vn -0.28555938 0.68940133 -0.66571890
vn -0.28555938 0.68940133 0.66571890
vn -0.52764493 0.52764493 -0.66571890
vn -0.52764493 0.52764493 0.66571890
vn -0.68940133 0.28555938 -0.66571890
vn -0.68940133 0.28555938 0.66571890
vn -0.74620262 -0.00000000 -0.66571890
vn -0.74620262 -0.00000000 0.66571890
vn -0.68940133 -0.28555938 -0.66571890
vn -0.68940133 -0.28555938 0.66571890
vn -0.52764493 -0.52764493 -0.66571890
vn -0.52764493 -0.52764493 0.66571890
vn -0.28555938 -0.68940133 -0.66571890
vn -0.28555938 -0.68940133 0.66571890
vn -0.00000000 -0.74620262 -0.66571890
vn -0.00000000 -0.74620262 0.66571890
vn 0.28555938 -0.68940133 -0.66571890
vn 0.28555938 -0.68940133 0.66571890
vn 0.52764493 -0.52764493 -0.66571890
vn 0.52764493 -0.52764493 0.66571890
vn 0.68940133 -0.28555938 -0.66571890
vn 0.68940133 -0.28555938 0.66571890
f 2//2 1//1 5//5
f 2//2 5//5 3//3
f 3//3 5//5 6//6
f 3//3 6//6 4//4
f 5//5 1//1 7//7
f 5//5 7//7 6//6
f 6//6 7//7 8//8
f 6//6 8//8 4//4
f 7//7 1//1 9//9
f 7//7 9//9 8//8
f 8//8 9//9 10//10
f 8//8 10//10 4//4
f 9//9 1//1 11//11
f 9//9 11//11 10//10
f 10//10 11//11 12//12
f 10//10 12//12 4//4
f 11//11 1//1 13//13
f 11//11 13//13 12//12
f 12//12 13//13 14//14
f 12//12 14//14 4//4
f 13//13 1//1 15//15
f 13//13 15//15 14//14
f 14//14 15//15 16//16
f 14//14 16//16 4//4
f 15//15 1//1 17//17
f 15//15 17//17 16//16
f 16//16 17//17 18//18
f 16//16 18//18 4//4
f 17//17 1//1 19//19
f 17//17 19//19 18//18
f 18//18 19//19 20//20
f 18//18 20//20 4//4
f 19//19 1//1 21//21
f 19//19 21//21 20//20
f 20//20 21//21 22//22
f 20//20 22//22 4//4
f 21//21 1//1 23//23
f 21//21 23//23 22//22
f 22//22 23//23 24//24
f 22//22 24//24 4//4
f 23//23 1//1 25//25
f 23//23 25//25 24//24
f 24//24 25//25 26//26
f 24//24 26//26 4//4
f 25//25 1//1 27//27
f 25//25 27//27 26//26
f 26//26 27//27 28//28
f 26//26 28//28 4//4
f 27//27 1//1 29//29
f 27//27 29//29 28//28
f 28//28 29//29 30//30
f 28//28 30//30 4//4
f 29//29 1//1 31//31
f 29//29 31//31 30//30
f 30//30 31//31 32//32
f 30//30 32//32 4//4
f 31//31 1//1 33//33
f 31//31 33//33 32//32
f 32//32 33//33 34//34
f 32//32 34//34 4//4
f 33//33 1//1 2//2
f 33//33 2//2 34//34
f 34//34 2//2 3//3
f 34//34 3//3 4//4
f 36//36 35//35 39//39
f 36//36 39//39 37//37
f 37//37 39//39 40//40
f 37//37 40//40 38//38
f 39//39 35//35 41//41
f 39//39 41//41 40//40
f 40//40 41//41 42//42
f 40//40 42//42 38//38
f 41//41 35//35 43//43
f 41//41 43//43 42//42
f 42//42 43//43 44//44
f 42//42 44//44 38//38
f 43//43 35//35 45//45
f 43//43 45//45 44//44
f 44//44 45//45 46//46
f 44//44 46//46 38//38
f 45//45 35//35 47//47
f 45//45 47//47 46//46
f 46//46 47//47 48//48
f 46//46 48//48 38//38
f 47//47 35//35 49//49
f 47//47 49//49 48//48
f 48//48 49//49 50//50
f 48//48 50//50 38//38
f 49//49 35//35 51//51
f 49//49 51//51 50//50
f 50//50 51//51 52//52
f 50//50 52//52 38//38
f 51//51 35//35 53//53
f 51//51 53//53 52//52
f 52//52 53//53 54//54
f 52//52 54//54 38//38
f 53//53 35//35 55//55
f 53//53 55//55 54//54
f 54//54 55//55 56//56
f 54//54 56//56 38//38
f 55//55 35//35 57//57
f 55//55 57//57 56//56
f 56//56 57//57 58//58
f 56//56 58//58 38//38
f 57//57 35//35 59//59
f 57//57 59//59 58//58
f 58//58 59//59 60//60
f 58//58 60//60 38//38
f 59//59 35//35 61//61
f 59//59 61//61 60//60
f 60//60 61//61 62//62
f 60//60 62//62 38//38
f 61//61 35//35 63//63
f 61//61 63//63 62//62
f 62//62 63//63 64//64
f 62//62 64//64 38//38
f 63//63 35//35 36//36
f 63//63 36//36 64//64
f 64//64 36//36 37//37
f 64//64 37//37 38//38
f 66//66 68//68 65//65
f 69//69 66//66 65//65
f 65//65 68//68 67//67
f 67//67 69//69 65//65
f 66//66 72//72 68//68
f 70//70 66//66 69//69
f 70//70 72//72 66//66
f 68//68 72//72 67//67
f 71//71 69//69 67//67
f 67//67 72//72 71//71
f 71//71 70//70 69//69
f 72//72 70//70 71//71
f 74//74 76//76 73//73
f 77//77 74//74 73//73
f 73//73 76//76 75//75
f 75//75 77//77 73//73
f 74//74 80//80 76//76
f 78//78 74//74 77//77
f 78//78 80//80 74//74
f 76//76 80//80 75//75
f 79//79 77//77 75//75
f 75//75 80//80 79//79
f 79//79 78//78 77//77
f 80//80 78//78 79//79
f 82//82 81//81 85//85
f 82//82 85//85 83//83
f 83//83 85//85 86//86
f 83//83 86//86 84//84
f 85//85 81//81 87//87
f 85//85 87//87 86//86
f 86//86 87//87 88//88
f 86//86 88//88 84//84
f 87//87 81//81 89//89
f 87//87 89//89 88//88
f 88//88 89//89 90//90
f 88//88 90//90 84//84
f 89//89 81//81 91//91
f 89//89 91//91 90//90
f 90//90 91//91 92//92
f 90//90 92//92 84//84
f 91//91 81//81 93//93
f 91//91 93//93 92//92
f 92//92 93//93 94//94
f 92//92 94//94 84//84
f 93//93 81//81 95//95
f 93//93 95//95 94//94
f 94//94 95//95 96//96
f 94//94 96//96 84//84
f 95//95 81//81 97//97
f 95//95 97//97 96//96
f 96//96 97//97 98//98
f 96//96 98//98 84//84
f 97//97 81//81 99//99
f 97//97 99//99 98//98
f 98//98 99//99 100//100
f 98//98 100//100 84//84
f 99//99 81//81 101//101
f 99//99 101//101 100//100
f 100//100 101//101 102//102
f 100//100 102//102 84//84
f 101//101 81//81 103//103
f 101//101 103//103 102//102
f 102//102 103//103 104//104
f 102//102 104//104 84//84
f 103//103 81//81 105//105
f 103//103 105//105 104//104
f 104//104 105//105 106//106
f 104//104 106//106 84//84
f 105//105 81//81 107//107
f 105//105 107//107 106//106
f 106//106 107//107 108//108
f 106//106 108//108 84//84
f 107//107 81//81 109//109
f 107//107 109//109 108//108
f 108//108 109//109 110//110
f 108//108 110//110 84//84
f 109//109 81//81 111//111
f 109//109 111//111 110//110
f 110//110 111//111 112//112
f 110//110 112//112 84//84
f 111//111 81//81 113//113
f 111//111 113//113 112//112
f 112//112 113//113 114//114
f 112//112 114//114 84//84
f 113//113 81//81 82//82
f 113//113 82//82 114//114
f 114//114 82//82 83//83
f 114//114 83//83 84//84

