# https://github.com/mikedh/trimesh
v -0.28500000 -0.38000000 -0.13000000
v -0.28500000 -0.38000000 0.13000000
v -0.28500000 0.38000000 -0.13000000
v -0.28500000 0.38000000 0.13000000
v 0.28500000 -0.38000000 -0.13000000
v 0.28500000 -0.38000000 0.13000000
v 0.28500000 0.38000000 -0.13000000
v 0.28500000 0.38000000 0.13000000
v -0.24000000 0.31000000 -0.15000000
v -0.24000000 0.31000000 0.15000000
v -0.24000000 0.47000000 -0.15000000
v -0.24000000 0.47000000 0.15000000
v 0.24000000 0.31000000 -0.15000000
v 0.24000000 0.31000000 0.15000000
v 0.24000000 0.47000000 -0.15000000
v 0.24000000 0.47000000 0.15000000
v -0.22000000 -0.50000000 -0.09000000
v -0.22000000 -0.50000000 0.13000000
v -0.22000000 -0.28000000 -0.09000000
v -0.22000000 -0.28000000 0.13000000
v 0.22000000 -0.50000000 -0.09000000
v 0.22000000 -0.50000000 0.13000000
v 0.22000000 -0.28000000 -0.09000000
v 0.22000000 -0.28000000 0.13000000
v -0.45652206 -0.18016570 -0.04000000
v -0.45652206 -0.18016570 0.08000000
v -0.42257869 0.15813572 -0.04000000
v -0.42257869 0.15813572 0.08000000
v -0.27742131 -0.19813572 -0.04000000
v -0.27742131 -0.19813572 0.08000000
v -0.24347794 0.14016570 -0.04000000
v -0.24347794 0.14016570 0.08000000
v 0.27742131 -0.19813572 -0.04000000
v 0.27742131 -0.19813572 0.08000000
v 0.24347794 0.14016570 -0.04000000
v 0.24347794 0.14016570 0.08000000
v 0.45652206 -0.18016570 -0.04000000
v 0.45652206 -0.18016570 0.08000000
v 0.42257869 0.15813572 -0.04000000
v 0.42257869 0.15813572 0.08000000
v 0.00000000 -0.33000000 -0.12000000
v 0.00000000 -0.22500000 -0.12000000
v 0.00000000 -0.22500000 0.46000000
v 0.00000000 -0.33000000 0.46000000
v -0.04018176 -0.23299265 -0.12000000
v -0.04018176 -0.23299265 0.46000000
v -0.07424621 -0.25575379 -0.12000000
v -0.07424621 -0.25575379 0.46000000
v -0.09700735 -0.28981824 -0.12000000
v -0.09700735 -0.28981824 0.46000000
v -0.10500000 -0.33000000 -0.12000000
v -0.10500000 -0.33000000 0.46000000
v -0.09700735 -0.37018176 -0.12000000
v -0.09700735 -0.37018176 0.46000000
v -0.07424621 -0.40424621 -0.12000000
v -0.07424621 -0.40424621 0.46000000
v -0.04018176 -0.42700735 -0.12000000
v -0.04018176 -0.42700735 0.46000000
v -0.00000000 -0.43500000 -0.12000000
v -0.00000000 -0.43500000 0.46000000
v 0.04018176 -0.42700735 -0.12000000
v 0.04018176 -0.42700735 0.46000000
v 0.07424621 -0.40424621 -0.12000000
v 0.07424621 -0.40424621 0.46000000
v 0.09700735 -0.37018176 -0.12000000
v 0.09700735 -0.37018176 0.46000000
v 0.10500000 -0.33000000 -0.12000000
v 0.10500000 -0.33000000 0.46000000
v 0.09700735 -0.28981824 -0.12000000
v 0.09700735 -0.28981824 0.46000000
v 0.07424621 -0.25575379 -0.12000000
v 0.07424621 -0.25575379 0.46000000
v 0.04018176 -0.23299265 -0.12000000
v 0.04018176 -0.23299265 0.46000000
v -0.24381589 -0.42165352 -0.17750000
v -0.24381589 -0.42165352 -0.12250000
v -0.31094424 0.41565992 -0.17750000
v -0.31094424 0.41565992 -0.12250000
v -0.16905576 -0.41565992 -0.17750000
v -0.16905576 -0.41565992 -0.12250000
v -0.23618411 0.42165352 -0.17750000
v -0.23618411 0.42165352 -0.12250000
v 0.16905576 -0.41565992 -0.17750000
v 0.16905576 -0.41565992 -0.12250000
v 0.23618411 0.42165352 -0.17750000
v 0.23618411 0.42165352 -0.12250000
v 0.24381589 -0.42165352 -0.17750000
v 0.24381589 -0.42165352 -0.12250000
v 0.31094424 0.41565992 -0.17750000
v 0.31094424 0.41565992 -0.12250000
v -0.16000000 0.16000000 -0.21000000
v -0.16000000 0.16000000 -0.13000000
v -0.16000000 0.24000000 -0.21000000
v -0.16000000 0.24000000 -0.13000000
v 0.16000000 0.16000000 -0.21000000
v 0.16000000 0.16000000 -0.13000000
v 0.16000000 0.24000000 -0.21000000
v 0.16000000 0.24000000 -0.13000000
v -0.24000000 -0.21750000 0.13250000
v -0.24000000 -0.21750000 0.16750000
v -0.24000000 -0.18250000 0.13250000
v -0.24000000 -0.18250000 0.16750000
v -0.12000000 -0.21750000 0.13250000
v -0.12000000 -0.21750000 0.16750000
v -0.12000000 -0.18250000 0.13250000
v -0.12000000 -0.18250000 0.16750000
v -0.06000000 -0.21750000 0.13250000
v -0.06000000 -0.21750000 0.16750000
v -0.06000000 -0.18250000 0.13250000
v -0.06000000 -0.18250000 0.16750000
v 0.06000000 -0.21750000 0.13250000
v 0.06000000 -0.21750000 0.16750000
v 0.06000000 -0.18250000 0.13250000
v 0.06000000 -0.18250000 0.16750000
v 0.12000000 -0.21750000 0.13250000
v 0.12000000 -0.21750000 0.16750000
v 0.12000000 -0.18250000 0.13250000
v 0.12000000 -0.18250000 0.16750000
v 0.24000000 -0.21750000 0.13250000
v 0.24000000 -0.21750000 0.16750000
v 0.24000000 -0.18250000 0.13250000
v 0.24000000 -0.18250000 0.16750000
v -0.24000000 -0.01750000 0.13250000
v -0.24000000 -0.01750000 0.16750000
v -0.24000000 0.01750000 0.13250000
v -0.24000000 0.01750000 0.16750000
v -0.12000000 -0.01750000 0.13250000
v -0.12000000 -0.01750000 0.16750000
v -0.12000000 0.01750000 0.13250000
v -0.12000000 0.01750000 0.16750000
v -0.06000000 -0.01750000 0.13250000
v -0.06000000 -0.01750000 0.16750000
v -0.06000000 0.01750000 0.13250000
v -0.06000000 0.01750000 0.16750000
v 0.06000000 -0.01750000 0.13250000
v 0.06000000 -0.01750000 0.16750000
v 0.06000000 0.01750000 0.13250000
v 0.06000000 0.01750000 0.16750000
v 0.12000000 -0.01750000 0.13250000
v 0.12000000 -0.01750000 0.16750000
v 0.12000000 0.01750000 0.13250000
v 0.12000000 0.01750000 0.16750000
v 0.24000000 -0.01750000 0.13250000
v 0.24000000 -0.01750000 0.16750000
v 0.24000000 0.01750000 0.13250000
v 0.24000000 0.01750000 0.16750000
v -0.24000000 0.18250000 0.13250000
v -0.24000000 0.18250000 0.16750000
v -0.24000000 0.21750000 0.13250000
v -0.24000000 0.21750000 0.16750000
v -0.12000000 0.18250000 0.13250000
v -0.12000000 0.18250000 0.16750000
v -0.12000000 0.21750000 0.13250000
v -0.12000000 0.21750000 0.16750000
v -0.06000000 0.18250000 0.13250000
v -0.06000000 0.18250000 0.16750000
v -0.06000000 0.21750000 0.13250000
v -0.06000000 0.21750000 0.16750000
v 0.06000000 0.18250000 0.13250000
v 0.06000000 0.18250000 0.16750000
v 0.06000000 0.21750000 0.13250000
v 0.06000000 0.21750000 0.16750000
v 0.12000000 0.18250000 0.13250000
v 0.12000000 0.18250000 0.16750000
v 0.12000000 0.21750000 0.13250000
v 0.12000000 0.21750000 0.16750000
v 0.24000000 0.18250000 0.13250000
v 0.24000000 0.18250000 0.16750000
v 0.24000000 0.21750000 0.13250000
v 0.24000000 0.21750000 0.16750000
vn -0.57735027 -0.57735027 -0.57735027
vn -0.57735027 -0.57735027 0.57735027
vn -0.57735027 0.57735027 -0.57735027
vn -0.57735027 0.57735027 0.57735027
vn 0.57735027 -0.57735027 -0.57735027
vn 0.57735027 -0.57735027 0.57735027
vn 0.57735027 0.57735027 -0.57735027
vn 0.57735027 0.57735027 0.57735027
vn -0.57735027 -0.57735027 -0.57735027
vn -0.57735027 -0.57735027 0.57735027
vn -0.57735027 0.57735027 -0.57735027
vn -0.57735027 0.57735027 0.57735027
vn 0.57735027 -0.57735027 -0.57735027
vn 0.57735027 -0.57735027 0.57735027
vn 0.57735027 0.57735027 -0.57735027
vn 0.57735027 0.57735027 0.57735027
vn -0.57735027 -0.57735027 -0.57735027
vn -0.57735027 -0.57735027 0.57735027
vn -0.57735027 0.57735027 -0.57735027
vn -0.57735027 0.57735027 0.57735027
vn 0.57735027 -0.57735027 -0.57735027
vn 0.57735027 -0.57735027 0.57735027
vn 0.57735027 0.57735027 -0.57735027
vn 0.57735027 0.57735027 0.57735027
vn -0.63210477 -0.51682707 -0.57735027
vn -0.63210477 -0.51682707 0.57735027
vn -0.51682707 0.63210477 -0.57735027
vn -0.51682707 0.63210477 0.57735027
vn 0.51682707 -0.63210477 -0.57735027
vn 0.51682707 -0.63210477 0.57735027
vn 0.63210477 0.51682707 -0.57735027
vn 0.63210477 0.51682707 0.57735027
vn -0.51682707 -0.63210477 -0.57735027
vn -0.51682707 -0.63210477 0.57735027
vn -0.63210477 0.51682707 -0.57735027
vn -0.63210477 0.51682707 0.57735027
vn 0.63210477 -0.51682707 -0.57735027
vn 0.63210477 -0.51682707 0.57735027
vn 0.51682707 0.63210477 -0.57735027
vn 0.51682707 0.63210477 0.57735027
vn 0.00000000 0.00000000 -1.00000000
vn 0.00000000 0.74620262 -0.66571890
vn 0.00000000 0.74620262 0.66571890
vn 0.00000000 0.00000000 1.00000000
vn -0.28555938 0.68940133 -0.66571890
vn -0.28555938 0.68940133 0.66571890
vn -0.52764493 0.52764493 -0.66571890
vn -0.52764493 0.52764493 0.66571890
vn -0.68940133 0.28555938 -0.66571890
vn -0.68940133 0.28555938 0.66571890
vn -0.74620262 -0.00000000 -0.66571890
vn -0.74620262 0.00000000 0.66571890
vn -0.68940133 -0.28555938 -0.66571890
vn -0.68940133 -0.28555938 0.66571890
vn -0.52764493 -0.52764493 -0.66571890
vn -0.52764493 -0.52764493 0.66571890
vn -0.28555938 -0.68940133 -0.66571890
vn -0.28555938 -0.68940133 0.66571890
vn 0.00000000 -0.74620262 -0.66571890
vn -0.00000000 -0.74620262 0.66571890
vn 0.28555938 -0.68940133 -0.66571890
vn 0.28555938 -0.68940133 0.66571890
vn 0.52764493 -0.52764493 -0.66571890
vn 0.52764493 -0.52764493 0.66571890
vn 0.68940133 -0.28555938 -0.66571890
vn 0.68940133 -0.28555938 0.66571890
vn 0.74620262 -0.00000000 -0.66571890
vn 0.74620262 -0.00000000 0.66571890
vn 0.68940133 0.28555938 -0.66571890
vn 0.68940133 0.28555938 0.66571890
vn 0.52764493 0.52764493 -0.66571890
vn 0.52764493 0.52764493 0.66571890
vn 0.28555938 0.68940133 -0.66571890
vn 0.28555938 0.68940133 0.66571890
vn -0.52936496 -0.62164250 -0.57735027
vn -0.52936496 -0.62164250 0.57735027
vn -0.62164250 0.52936496 -0.57735027
vn -0.62164250 0.52936496 0.57735027
vn 0.62164250 -0.52936496 -0.57735027
vn 0.62164250 -0.52936496 0.57735027
vn 0.52936496 0.62164250 -0.57735027
vn 0.52936496 0.62164250 0.57735027
vn -0.62164250 -0.52936496 -0.57735027
vn -0.62164250 -0.52936496 0.57735027
vn -0.52936496 0.62164250 -0.57735027
vn -0.52936496 0.62164250 0.57735027
vn 0.52936496 -0.62164250 -0.57735027
vn 0.52936496 -0.62164250 0.57735027
vn 0.62164250 0.52936496 -0.57735027
vn 0.62164250 0.52936496 0.57735027
vn -0.57735027 -0.57735027 -0.57735027
vn -0.57735027 -0.57735027 0.57735027
vn -0.57735027 0.57735027 -0.57735027
vn -0.57735027 0.57735027 0.57735027
vn 0.57735027 -0.57735027 -0.57735027
vn 0.57735027 -0.57735027 0.57735027
vn 0.57735027 0.57735027 -0.57735027
vn 0.57735027 0.57735027 0.57735027
vn -0.57735027 -0.57735027 -0.57735027
vn -0.57735027 -0.57735027 0.57735027
vn -0.57735027 0.57735027 -0.57735027
vn -0.57735027 0.57735027 0.57735027
vn 0.57735027 -0.57735027 -0.57735027
vn 0.57735027 -0.57735027 0.57735027
vn 0.57735027 0.57735027 -0.57735027
vn 0.57735027 0.57735027 0.57735027
vn -0.57735027 -0.57735027 -0.57735027
vn -0.57735027 -0.57735027 0.57735027
vn -0.57735027 0.57735027 -0.57735027
vn -0.57735027 0.57735027 0.57735027
vn 0.57735027 -0.57735027 -0.57735027
vn 0.57735027 -0.57735027 0.57735027
vn 0.57735027 0.57735027 -0.57735027
vn 0.57735027 0.57735027 0.57735027
vn -0.57735027 -0.57735027 -0.57735027
vn -0.57735027 -0.57735027 0.57735027
vn -0.57735027 0.57735027 -0.57735027
vn -0.57735027 0.57735027 0.57735027
vn 0.57735027 -0.57735027 -0.57735027
vn 0.57735027 -0.57735027 0.57735027
vn 0.57735027 0.57735027 -0.57735027
vn 0.57735027 0.57735027 0.57735027
vn -0.57735027 -0.57735027 -0.57735027
vn -0.57735027 -0.57735027 0.57735027
vn -0.57735027 0.57735027 -0.57735027
vn -0.57735027 0.57735027 0.57735027
vn 0.57735027 -0.57735027 -0.57735027
vn 0.57735027 -0.57735027 0.57735027
vn 0.57735027 0.57735027 -0.57735027
vn 0.57735027 0.57735027 0.57735027
vn -0.57735027 -0.57735027 -0.57735027
vn -0.57735027 -0.57735027 0.57735027
vn -0.57735027 0.57735027 -0.57735027
vn -0.57735027 0.57735027 0.57735027
vn 0.57735027 -0.57735027 -0.57735027
vn 0.57735027 -0.57735027 0.57735027
vn 0.57735027 0.57735027 -0.57735027
vn 0.57735027 0.57735027 0.57735027
vn -0.57735027 -0.57735027 -0.57735027
vn -0.57735027 -0.57735027 0.57735027
vn -0.57735027 0.57735027 -0.57735027
vn -0.57735027 0.57735027 0.57735027
vn 0.57735027 -0.57735027 -0.57735027
vn 0.57735027 -0.57735027 0.57735027
vn 0.57735027 0.57735027 -0.57735027
vn 0.57735027 0.57735027 0.57735027
vn -0.57735027 -0.57735027 -0.57735027
vn -0.57735027 -0.57735027 0.57735027
vn -0.57735027 0.57735027 -0.57735027
vn -0.57735027 0.57735027 0.57735027
vn 0.57735027 -0.57735027 -0.57735027
vn 0.57735027 -0.57735027 0.57735027
vn 0.57735027 0.57735027 -0.57735027
vn 0.57735027 0.57735027 0.57735027
vn -0.57735027 -0.57735027 -0.57735027
vn -0.57735027 -0.57735027 0.57735027
vn -0.57735027 0.57735027 -0.57735027
vn -0.57735027 0.57735027 0.57735027
vn 0.57735027 -0.57735027 -0.57735027
vn 0.57735027 -0.57735027 0.57735027
vn 0.57735027 0.57735027 -0.57735027
vn 0.57735027 0.57735027 0.57735027
vn -0.57735027 -0.57735027 -0.57735027
vn -0.57735027 -0.57735027 0.57735027
vn -0.57735027 0.57735027 -0.57735027
vn -0.57735027 0.57735027 0.57735027
vn 0.57735027 -0.57735027 -0.57735027
vn 0.57735027 -0.57735027 0.57735027
vn 0.57735027 0.57735027 -0.57735027
vn 0.57735027 0.57735027 0.57735027
f 2//2 4//4 1//1
f 5//5 2//2 1//1
f 1//1 4//4 3//3
f 3//3 5//5 1//1
f 2//2 8//8 4//4
f 6//6 2//2 5//5
f 6//6 8//8 2//2
f 4//4 8//8 3//3
f 7//7 5//5 3//3
f 3//3 8//8 7//7
f 7//7 6//6 5//5
f 8//8 6//6 7//7
f 10//10 12//12 9//9
f 13//13 10//10 9//9
f 9//9 12//12 11//11
f 11//11 13//13 9//9
f 10//10 16//16 12//12
f 14//14 10//10 13//13
f 14//14 16//16 10//10
f 12//12 16//16 11//11
f 15//15 13//13 11//11
f 11//11 16//16 15//15
f 15//15 14//14 13//13
f 16//16 14//14 15//15
f 18//18 20//20 17//17
f 21//21 18//18 17//17
f 17//17 20//20 19//19
f 19//19 21//21 17//17
f 18//18 24//24 20//20
f 22//22 18//18 21//21
f 22//22 24//24 18//18
f 20//20 24//24 19//19
f 23//23 21//21 19//19
f 19//19 24//24 23//23
f 23//23 22//22 21//21
f 24//24 22//22 23//23
f 26//26 28//28 25//25
f 29//29 26//26 25//25
f 25//25 28//28 27//27
f 27//27 29//29 25//25
f 26//26 32//32 28//28
f 30//30 26//26 29//29
f 30//30 32//32 26//26
f 28//28 32//32 27//27
f 31//31 29//29 27//27
f 27//27 32//32 31//31
f 31//31 30//30 29//29
f 32//32 30//30 31//31
f 34//34 36//36 33//33
f 37//37 34//34 33//33
f 33//33 36//36 35//35
f 35//35 37//37 33//33
f 34//34 40//40 36//36
f 38//38 34//34 37//37
f 38//38 40//40 34//34
f 36//36 40//40 35//35
f 39//39 37//37 35//35
f 35//35 40//40 39//39
f 39//39 38//38 37//37
f 40//40 38//38 39//39
f 42//42 41//41 45//45
f 42//42 45//45 43//43
f 43//43 45//45 46//46
f 43//43 46//46 44//44
f 45//45 41//41 47//47
f 45//45 47//47 46//46
f 46//46 47//47 48//48
f 46//46 48//48 44//44
f 47//47 41//41 49//49
f 47//47 49//49 48//48
f 48//48 49//49 50//50
f 48//48 50//50 44//44
f 49//49 41//41 51//51
f 49//49 51//51 50//50
f 50//50 51//51 52//52
f 50//50 52//52 44//44
f 51//51 41//41 53//53
f 51//51 53//53 52//52
f 52//52 53//53 54//54
f 52//52 54//54 44//44
f 53//53 41//41 55//55
f 53//53 55//55 54//54
f 54//54 55//55 56//56
f 54//54 56//56 44//44
f 55//55 41//41 57//57
f 55//55 57//57 56//56
f 56//56 57//57 58//58
f 56//56 58//58 44//44
f 57//57 41//41 59//59
f 57//57 59//59 58//58
f 58//58 59//59 60//60
f 58//58 60//60 44//44
f 59//59 41//41 61//61
f 59//59 61//61 60//60
f 60//60 61//61 62//62
f 60//60 62//62 44//44
f 61//61 41//41 63//63
f 61//61 63//63 62//62
f 62//62 63//63 64//64
f 62//62 64//64 44//44
f 63//63 41//41 65//65
f 63//63 65//65 64//64
f 64//64 65//65 66//66
f 64//64 66//66 44//44
f 65//65 41//41 67//67
f 65//65 67//67 66//66
f 66//66 67//67 68//68
f 66//66 68//68 44//44
f 67//67 41//41 69//69
f 67//67 69//69 68//68
f 68//68 69//69 70//70
f 68//68 70//70 44//44
f 69//69 41//41 71//71
f 69//69 71//71 70//70
f 70//70 71//71 72//72
f 70//70 72//72 44//44
f 71//71 41//41 73//73
f 71//71 73//73 72//72
f 72//72 73//73 74//74
f 72//72 74//74 44//44
f 73//73 41//41 42//42
f 73//73 42//42 74//74
f 74//74 42//42 43//43
f 74//74 43//43 44//44
f 76//76 78//78 75//75
f 79//79 76//76 75//75
f 75//75 78//78 77//77
f 77//77 79//79 75//75
f 76//76 82//82 78//78
f 80//80 76//76 79//79
f 80//80 82//82 76//76
f 78//78 82//82 77//77
f 81//81 79//79 77//77
f 77//77 82//82 81//81
f 81//81 80//80 79//79
f 82//82 80//80 81//81
f 84//84 86//86 83//83
f 87//87 84//84 83//83
f 83//83 86//86 85//85
f 85//85 87//87 83//83
f 84//84 90//90 86//86
f 88//88 84//84 87//87
f 88//88 90//90 84//84
f 86//86 90//90 85//85
f 89//89 87//87 85//85
f 85//85 90//90 89//89
f 89//89 88//88 87//87
f 90//90 88//88 89//89
f 92//92 94//94 91//91
f 95//95 92//92 91//91
f 91//91 94//94 93//93
f 93//93 95//95 91//91
f 92//92 98//98 94//94
f 96//96 92//92 95//95
f 96//96 98//98 92//92
f 94//94 98//98 93//93
f 97//97 95//95 93//93
f 93//93 98//98 97//97
f 97//97 96//96 95//95
f 98//98 96//96 97//97
f 100//100 102//102 99//99
f 103//103 100//100 99//99
f 99//99 102//102 101//101
f 101//101 103//103 99//99
f 100//100 106//106 102//102
f 104//104 100//100 103//103
f 104//104 106//106 100//100
f 102//102 106//106 101//101
f 105//105 103//103 101//101
f 101//101 106//106 105//105
f 105//105 104//104 103//103
f 106//106 104//104 105//105
f 108//108 110//110 107//107
f 111//111 108//108 107//107
f 107//107 110//110 109//109
f 109//109 111//111 107//107
f 108//108 114//114 110//110
f 112//112 108//108 111//111
f 112//112 114//114 108//108
f 110//110 114//114 109//109
f 113//113 111//111 109//109
f 109//109 114//114 113//113
f 113//113 112//112 111//111
f 114//114 112//112 113//113
f 116//116 118//118 115//115
f 119//119 116//116 115//115
f 115//115 118//118 117//117
f 117//117 119//119 115//115
f 116//116 122//122 118//118
f 120//120 116//116 119//119
f 120//120 122//122 116//116
f 118//118 122//122 117//117
f 121//121 119//119 117//117
f 117//117 122//122 121//121
f 121//121 120//120 119//119
f 122//122 120//120 121//121
f 124//124 126//126 123//123
f 127//127 124//124 123//123
f 123//123 126//126 125//125
f 125//125 127//127 123//123
f 124//124 130//130 126//126
f 128//128 124//124 127//127
f 128//128 130//130 124//124
f 126//126 130//130 125//125
f 129//129 127//127 125//125
f 125//125 130//130 129//129
f 129//129 128//128 127//127
f 130//130 128//128 129//129
f 132//132 134//134 131//131
f 135//135 132//132 131//131
f 131//131 134//134 133//133
f 133//133 135//135 131//131
f 132//132 138//138 134//134
f 136//136 132//132 135//135
f 136//136 138//138 132//132
f 134//134 138//138 133//133
f 137//137 135//135 133//133
f 133//133 138//138 137//137
f 137//137 136//136 135//135
f 138//138 136//136 137//137
f 140//140 142//142 139//139
f 143//143 140//140 139//139
f 139//139 142//142 141//141
f 141//141 143//143 139//139
f 140//140 146//146 142//142
f 144//144 140//140 143//143
f 144//144 146//146 140//140
f 142//142 146//146 141//141
f 145//145 143//143 141//141
f 141//141 146//146 145//145
f 145//145 144//144 143//143
f 146//146 144//144 145//145
f 148//148 150//150 147//147
f 151//151 148//148 147//147
f 147//147 150//150 149//149
f 149//149 151//151 147//147
f 148//148 154//154 150//150
f 152//152 148//148 151//151
f 152//152 154//154 148//148
f 150//150 154//154 149//149
f 153//153 151//151 149//149
f 149//149 154//154 153//153
f 153//153 152//152 151//151
f 154//154 152//152 153//153
f 156//156 158//158 155//155
f 159//159 156//156 155//155
f 155//155 158//158 157//157
f 157//157 159//159 155//155
f 156//156 162//162 158//158
f 160//160 156//156 159//159
f 160//160 162//162 156//156
f 158//158 162//162 157//157
f 161//161 159//159 157//157
f 157//157 162//162 161//161
f 161//161 160//160 159//159
f 162//162 160//160 161//161
f 164//164 166//166 163//163
f 167//167 164//164 163//163
f 163//163 166//166 165//165
f 165//165 167//167 163//163
f 164//164 170//170 166//166
f 168//168 164//164 167//167
f 168//168 170//170 164//164
f 166//166 170//170 165//165
f 169//169 167//167 165//165
f 165//165 170//170 169//169
f 169//169 168//168 167//167
f 170//170 168//168 169//169

