# https://github.com/mikedh/trimesh
v -0.07097370 0.02691596 0.00000000
v 0.07097370 0.02691596 0.00000000
v -0.07097370 -0.40691596 0.00000000
v 0.07097370 -0.40691596 0.00000000
v 0.00000000 -0.32406143 0.12334437
v 0.00000000 -0.05593857 0.12334437
v 0.00000000 -0.32406143 -0.12334437
v 0.00000000 -0.05593857 -0.12334437
v 0.11483786 -0.19000000 -0.07623101
v 0.11483786 -0.19000000 0.07623101
v -0.11483786 -0.19000000 -0.07623101
v -0.11483786 -0.19000000 0.07623101
v 0.00000000 0.06500000 0.00000000
v 0.00000000 -0.44500000 0.00000000
v -0.04171729 -0.39629933 0.07250000
v 0.04171729 -0.39629933 0.07250000
v -0.04171729 0.01629933 0.07250000
v 0.04171729 0.01629933 0.07250000
v 0.00000000 -0.19000000 0.14500000
v -0.04171729 -0.39629933 -0.07250000
v 0.04171729 -0.39629933 -0.07250000
v -0.04171729 0.01629933 -0.07250000
v 0.04171729 0.01629933 -0.07250000
v 0.00000000 -0.19000000 -0.14500000
v 0.10921729 -0.06250000 -0.04480746
v 0.10921729 -0.31750000 -0.04480746
v 0.06750000 -0.26879933 -0.11730746
v 0.06750000 -0.11120067 -0.11730746
v 0.10921729 -0.06250000 0.04480746
v 0.10921729 -0.31750000 0.04480746
v 0.06750000 -0.26879933 0.11730746
v 0.06750000 -0.11120067 0.11730746
v 0.13500000 -0.19000000 0.00000000
v -0.10921729 -0.06250000 -0.04480746
v -0.10921729 -0.31750000 -0.04480746
v -0.06750000 -0.26879933 -0.11730746
v -0.06750000 -0.11120067 -0.11730746
v -0.10921729 -0.06250000 0.04480746
v -0.10921729 -0.31750000 0.04480746
v -0.06750000 -0.26879933 0.11730746
v -0.06750000 -0.11120067 0.11730746
v -0.13500000 -0.19000000 0.00000000
v -0.03689098 0.05529428 0.00000000
v 0.03689098 0.05529428 0.00000000
v -0.03689098 -0.43529428 0.00000000
v 0.03689098 -0.43529428 0.00000000
v -0.05857496 -0.40998046 0.03768433
v -0.02168397 -0.36691402 0.10179673
v -0.02193208 -0.43251941 0.03811551
v 0.05857496 -0.40998046 0.03768433
v 0.02168397 -0.36691402 0.10179673
v 0.02193208 -0.43251941 0.03811551
v 0.00000000 -0.40691596 0.07623101
v -0.05857496 0.02998046 0.03768433
v -0.02168397 -0.01308598 0.10179673
v -0.02193208 0.05251941 0.03811551
v 0.05857496 0.02998046 0.03768433
v 0.02168397 -0.01308598 0.10179673
v 0.02193208 0.05251941 0.03811551
v 0.00000000 0.02691596 0.07623101
v 0.00000000 -0.25968296 0.13948106
v 0.00000000 -0.12031704 0.13948106
v -0.05857496 -0.40998046 -0.03768433
v -0.02168397 -0.36691402 -0.10179673
v -0.02193208 -0.43251941 -0.03811551
v 0.05857496 -0.40998046 -0.03768433
v 0.02168397 -0.36691402 -0.10179673
v 0.02193208 -0.43251941 -0.03811551
v 0.00000000 -0.40691596 -0.07623101
v -0.05857496 0.02998046 -0.03768433
v -0.02168397 -0.01308598 -0.10179673
v -0.02193208 0.05251941 -0.03811551
v 0.05857496 0.02998046 -0.03768433
v 0.02168397 -0.01308598 -0.10179673
v 0.02193208 0.05251941 -0.03811551
v 0.00000000 0.02691596 -0.07623101
v 0.00000000 -0.25968296 -0.13948106
v 0.00000000 -0.12031704 -0.13948106
v 0.09366036 -0.01097816 -0.02329020
v 0.11646024 -0.12372756 -0.06291384
v 0.07935101 -0.01451131 -0.06167218
v 0.09366036 -0.36902184 -0.02329020
v 0.11646024 -0.25627244 -0.06291384
v 0.07935101 -0.36548869 -0.06167218
v 0.03508541 -0.30064158 -0.12508693
v 0.09477627 -0.23095862 -0.10059817
v 0.05741893 -0.33988524 -0.09978769
v 0.03548685 -0.23142726 -0.13790319
v 0.09290578 -0.29845798 -0.08522886
v 0.03508541 -0.07935842 -0.12508693
v 0.09477627 -0.14904138 -0.10059817
v 0.05741893 -0.04011476 -0.09978769
v 0.03548685 -0.14857274 -0.13790319
v 0.09290578 -0.08154202 -0.08522886
v 0.07097370 -0.19000000 -0.12334437
v 0.09366036 -0.01097816 0.02329020
v 0.11646024 -0.12372756 0.06291384
v 0.07935101 -0.01451131 0.06167218
v 0.11483786 -0.05593857 0.00000000
v 0.09366036 -0.36902184 0.02329020
v 0.11646024 -0.25627244 0.06291384
v 0.07935101 -0.36548869 0.06167218
v 0.11483786 -0.32406143 0.00000000
v 0.03508541 -0.30064158 0.12508693
v 0.09477627 -0.23095862 0.10059817
v 0.05741893 -0.33988524 0.09978769
v 0.03548685 -0.23142726 0.13790319
v 0.09290578 -0.29845798 0.08522886
v 0.03508541 -0.07935842 0.12508693
v 0.09477627 -0.14904138 0.10059817
v 0.05741893 -0.04011476 0.09978769
v 0.03548685 -0.14857274 0.13790319
v 0.09290578 -0.08154202 0.08522886
v 0.07097370 -0.19000000 0.12334437
v 0.12986168 -0.19000000 -0.03962365
v 0.12986168 -0.19000000 0.03962365
v 0.12839263 -0.12296928 -0.02355668
v 0.12839263 -0.25703072 -0.02355668
v 0.12839263 -0.12296928 0.02355668
v 0.12839263 -0.25703072 0.02355668
v -0.09366036 -0.01097816 -0.02329020
v -0.11646024 -0.12372756 -0.06291384
v -0.07935101 -0.01451131 -0.06167218
v -0.09366036 -0.36902184 -0.02329020
v -0.11646024 -0.25627244 -0.06291384
v -0.07935101 -0.36548869 -0.06167218
v -0.03508541 -0.30064158 -0.12508693
v -0.09477627 -0.23095862 -0.10059817
v -0.05741893 -0.33988524 -0.09978769
v -0.03548685 -0.23142726 -0.13790319
v -0.09290578 -0.29845798 -0.08522886
v -0.03508541 -0.07935842 -0.12508693
v -0.09477627 -0.14904138 -0.10059817
v -0.05741893 -0.04011476 -0.09978769
v -0.03548685 -0.14857274 -0.13790319
v -0.09290578 -0.08154202 -0.08522886
v -0.07097370 -0.19000000 -0.12334437
v -0.09366036 -0.01097816 0.02329020
v -0.11646024 -0.12372756 0.06291384
v -0.07935101 -0.01451131 0.06167218
v -0.11483786 -0.05593857 0.00000000
v -0.09366036 -0.36902184 0.02329020
v -0.11646024 -0.25627244 0.06291384
v -0.07935101 -0.36548869 0.06167218
v -0.11483786 -0.32406143 0.00000000
v -0.03508541 -0.30064158 0.12508693
v -0.09477627 -0.23095862 0.10059817
v -0.05741893 -0.33988524 0.09978769
v -0.03548685 -0.23142726 0.13790319
v -0.09290578 -0.29845798 0.08522886
v -0.03508541 -0.07935842 0.12508693
v -0.09477627 -0.14904138 0.10059817
v -0.05741893 -0.04011476 0.09978769
v -0.03548685 -0.14857274 0.13790319
v -0.09290578 -0.08154202 0.08522886
v -0.07097370 -0.19000000 0.12334437
v -0.12986168 -0.19000000 -0.03962365
v -0.12986168 -0.19000000 0.03962365
v -0.12839263 -0.12296928 -0.02355668
v -0.12839263 -0.25703072 -0.02355668
v -0.12839263 -0.12296928 0.02355668
v -0.12839263 -0.25703072 0.02355668
v -0.06571639 -0.30642841 0.00000000
v 0.06571639 -0.30642841 0.00000000
v -0.06571639 -0.49357159 0.00000000
v 0.06571639 -0.49357159 0.00000000
v 0.00000000 -0.45783042 0.11058461
v 0.00000000 -0.34216958 0.11058461
v 0.00000000 -0.45783042 -0.11058461
v 0.00000000 -0.34216958 -0.11058461
v 0.10633135 -0.40000000 -0.06834504
v 0.10633135 -0.40000000 0.06834504
v -0.10633135 -0.40000000 -0.06834504
v -0.10633135 -0.40000000 0.06834504
v 0.00000000 -0.29000000 0.00000000
v 0.00000000 -0.51000000 0.00000000
v -0.03862712 -0.48899187 0.06500000
v 0.03862712 -0.48899187 0.06500000
v -0.03862712 -0.31100813 0.06500000
v 0.03862712 -0.31100813 0.06500000
v 0.00000000 -0.40000000 0.13000000
v -0.03862712 -0.48899187 -0.06500000
v 0.03862712 -0.48899187 -0.06500000
v -0.03862712 -0.31100813 -0.06500000
v 0.03862712 -0.31100813 -0.06500000
v 0.00000000 -0.40000000 -0.13000000
v 0.10112712 -0.34500000 -0.04017221
v 0.10112712 -0.45500000 -0.04017221
v 0.06250000 -0.43399187 -0.10517221
v 0.06250000 -0.36600813 -0.10517221
v 0.10112712 -0.34500000 0.04017221
v 0.10112712 -0.45500000 0.04017221
v 0.06250000 -0.43399187 0.10517221
v 0.06250000 -0.36600813 0.10517221
v 0.12500000 -0.40000000 0.00000000
v -0.10112712 -0.34500000 -0.04017221
v -0.10112712 -0.45500000 -0.04017221
v -0.06250000 -0.43399187 -0.10517221
v -0.06250000 -0.36600813 -0.10517221
v -0.10112712 -0.34500000 0.04017221
v -0.10112712 -0.45500000 0.04017221
v -0.06250000 -0.43399187 0.10517221
v -0.06250000 -0.36600813 0.10517221
v -0.12500000 -0.40000000 0.00000000
v -0.05888188 -0.38159055 0.00600000
v 0.05888188 -0.38159055 0.00600000
v -0.05888188 -0.79840945 0.00600000
v 0.05888188 -0.79840945 0.00600000
v 0.00000000 -0.71880412 0.10807810
v 0.00000000 -0.46119588 0.10807810
v 0.00000000 -0.71880412 -0.09607810
v 0.00000000 -0.46119588 -0.09607810
v 0.09527289 -0.59000000 -0.05708773
v 0.09527289 -0.59000000 0.06908773
v -0.09527289 -0.59000000 -0.05708773
v -0.09527289 -0.59000000 0.06908773
v 0.00000000 -0.34500000 0.00600000
v 0.00000000 -0.83500000 0.00600000
v -0.03460990 -0.78820916 0.06600000
v 0.03460990 -0.78820916 0.06600000
v -0.03460990 -0.39179084 0.06600000
v 0.03460990 -0.39179084 0.06600000
v 0.00000000 -0.59000000 0.12600000
v -0.03460990 -0.78820916 -0.05400000
v 0.03460990 -0.78820916 -0.05400000
v -0.03460990 -0.39179084 -0.05400000
v 0.03460990 -0.39179084 -0.05400000
v 0.00000000 -0.59000000 -0.11400000
v 0.09060990 -0.46750000 -0.03108204
v 0.09060990 -0.71250000 -0.03108204
v 0.05600000 -0.66570916 -0.09108204
v 0.05600000 -0.51429084 -0.09108204
v 0.09060990 -0.46750000 0.04308204
v 0.09060990 -0.71250000 0.04308204
v 0.05600000 -0.66570916 0.10308204
v 0.05600000 -0.51429084 0.10308204
v 0.11200000 -0.59000000 0.00600000
v -0.09060990 -0.46750000 -0.03108204
v -0.09060990 -0.71250000 -0.03108204
v -0.05600000 -0.66570916 -0.09108204
v -0.05600000 -0.51429084 -0.09108204
v -0.09060990 -0.46750000 0.04308204
v -0.09060990 -0.71250000 0.04308204
v -0.05600000 -0.66570916 0.10308204
v -0.05600000 -0.51429084 0.10308204
v -0.11200000 -0.59000000 0.00600000
v -0.03060585 -0.35432510 0.00600000
v 0.03060585 -0.35432510 0.00600000
v -0.03060585 -0.82567490 0.00600000
v 0.03060585 -0.82567490 0.00600000
v -0.04859552 -0.80135378 0.03718703
v -0.01798967 -0.75997622 0.09024557
v -0.01819550 -0.82300885 0.03754387
v 0.04859552 -0.80135378 0.03718703
v 0.01798967 -0.75997622 0.09024557
v 0.01819550 -0.82300885 0.03754387
v 0.00000000 -0.79840945 0.06908773
v -0.04859552 -0.37864622 0.03718703
v -0.01798967 -0.42002378 0.09024557
v -0.01819550 -0.35699115 0.03754387
v 0.04859552 -0.37864622 0.03718703
v 0.01798967 -0.42002378 0.09024557
v 0.01819550 -0.35699115 0.03754387
v 0.00000000 -0.38159055 0.06908773
v 0.00000000 -0.65695030 0.12143260
v 0.00000000 -0.52304970 0.12143260
v -0.04859552 -0.80135378 -0.02518703
v -0.01798967 -0.75997622 -0.07824557
v -0.01819550 -0.82300885 -0.02554387
v 0.04859552 -0.80135378 -0.02518703
v 0.01798967 -0.75997622 -0.07824557
v 0.01819550 -0.82300885 -0.02554387
v 0.00000000 -0.79840945 -0.05708773
v -0.04859552 -0.37864622 -0.02518703
v -0.01798967 -0.42002378 -0.07824557
v -0.01819550 -0.35699115 -0.02554387
v 0.04859552 -0.37864622 -0.02518703
v 0.01798967 -0.42002378 -0.07824557
v 0.01819550 -0.35699115 -0.02554387
v 0.00000000 -0.38159055 -0.05708773
v 0.00000000 -0.65695030 -0.10943260
v 0.00000000 -0.52304970 -0.10943260
v 0.07770341 -0.41799862 -0.01327464
v 0.09661887 -0.52632648 -0.04606663
v 0.06583195 -0.42139321 -0.04503905
v 0.07770341 -0.76200138 -0.01327464
v 0.09661887 -0.65367352 -0.04606663
v 0.06583195 -0.75860679 -0.04503905
v 0.02910789 -0.69630270 -0.09752022
v 0.07862920 -0.62935240 -0.07725366
v 0.04763645 -0.73400739 -0.07658292
v 0.02944094 -0.62980266 -0.10812678
v 0.07707739 -0.69420472 -0.06453423
v 0.02910789 -0.48369730 -0.09752022
v 0.07862920 -0.55064760 -0.07725366
v 0.04763645 -0.44599261 -0.07658292
v 0.02944094 -0.55019734 -0.10812678
v 0.07707739 -0.48579528 -0.06453423
v 0.05888188 -0.59000000 -0.09607810
v 0.07770341 -0.41799862 0.02527464
v 0.09661887 -0.52632648 0.05806663
v 0.06583195 -0.42139321 0.05703905
v 0.09527289 -0.46119588 0.00600000
v 0.07770341 -0.76200138 0.02527464
v 0.09661887 -0.65367352 0.05806663
v 0.06583195 -0.75860679 0.05703905
v 0.09527289 -0.71880412 0.00600000
v 0.02910789 -0.69630270 0.10952022
v 0.07862920 -0.62935240 0.08925366
v 0.04763645 -0.73400739 0.08858292
v 0.02944094 -0.62980266 0.12012678
v 0.07707739 -0.69420472 0.07653423
v 0.02910789 -0.48369730 0.10952022
v 0.07862920 -0.55064760 0.08925366
v 0.04763645 -0.44599261 0.08858292
v 0.02944094 -0.55019734 0.12012678
v 0.07707739 -0.48579528 0.07653423
v 0.05888188 -0.59000000 0.10807810
v 0.10773710 -0.59000000 -0.02679198
v 0.10773710 -0.59000000 0.03879198
v 0.10651833 -0.52559794 -0.01349518
v 0.10651833 -0.65440206 -0.01349518
v 0.10651833 -0.52559794 0.02549518
v 0.10651833 -0.65440206 0.02549518
v -0.07770341 -0.41799862 -0.01327464
v -0.09661887 -0.52632648 -0.04606663
v -0.06583195 -0.42139321 -0.04503905
v -0.07770341 -0.76200138 -0.01327464
v -0.09661887 -0.65367352 -0.04606663
v -0.06583195 -0.75860679 -0.04503905
v -0.02910789 -0.69630270 -0.09752022
v -0.07862920 -0.62935240 -0.07725366
v -0.04763645 -0.73400739 -0.07658292
v -0.02944094 -0.62980266 -0.10812678
v -0.07707739 -0.69420472 -0.06453423
v -0.02910789 -0.48369730 -0.09752022
v -0.07862920 -0.55064760 -0.07725366
v -0.04763645 -0.44599261 -0.07658292
v -0.02944094 -0.55019734 -0.10812678
v -0.07707739 -0.48579528 -0.06453423
v -0.05888188 -0.59000000 -0.09607810
v -0.07770341 -0.41799862 0.02527464
v -0.09661887 -0.52632648 0.05806663
v -0.06583195 -0.42139321 0.05703905
v -0.09527289 -0.46119588 0.00600000
v -0.07770341 -0.76200138 0.02527464
v -0.09661887 -0.65367352 0.05806663
v -0.06583195 -0.75860679 0.05703905
v -0.09527289 -0.71880412 0.00600000
v -0.02910789 -0.69630270 0.10952022
v -0.07862920 -0.62935240 0.08925366
v -0.04763645 -0.73400739 0.08858292
v -0.02944094 -0.62980266 0.12012678
v -0.07707739 -0.69420472 0.07653423
v -0.02910789 -0.48369730 0.10952022
v -0.07862920 -0.55064760 0.08925366
v -0.04763645 -0.44599261 0.08858292
v -0.02944094 -0.55019734 0.12012678
v -0.07707739 -0.48579528 0.07653423
v -0.05888188 -0.59000000 0.10807810
v -0.10773710 -0.59000000 -0.02679198
v -0.10773710 -0.59000000 0.03879198
v -0.10651833 -0.52559794 -0.01349518
v -0.10651833 -0.65440206 -0.01349518
v -0.10651833 -0.52559794 0.02549518
v -0.10651833 -0.65440206 0.02549518
vn -0.74716073 0.66464339 -0.00000000
vn 0.74716073 0.66464339 -0.00000000
vn -0.74716073 -0.66464339 0.00000000
vn 0.74716073 -0.66464339 -0.00000000
vn -0.00000000 -0.33971506 0.94052840
vn -0.00000000 0.33971506 0.94052840
vn 0.00000000 -0.33971506 -0.94052840
vn -0.00000000 0.33971506 -0.94052840
vn 0.86477881 0.00000000 -0.50215298
vn 0.86477881 0.00000000 0.50215298
vn -0.86477881 0.00000000 -0.50215298
vn -0.86477881 0.00000000 0.50215298
vn -0.00000000 1.00000000 0.00000000
vn 0.00000000 -1.00000000 0.00000000
vn -0.42862949 -0.62257757 0.65473195
vn 0.42862949 -0.62257757 0.65473195
vn -0.42862949 0.62257757 0.65473195
vn 0.42862949 0.62257757 0.65473195
vn 0.00000000 0.00000000 1.00000000
vn -0.42862949 -0.62257757 -0.65473195
vn 0.42862949 -0.62257757 -0.65473195
vn -0.42862949 0.62257757 -0.65473195
vn 0.42862949 0.62257757 -0.65473195
vn 0.00000000 0.00000000 -1.00000000
vn 0.89763053 0.30078443 -0.32216168
vn 0.89763053 -0.30078443 -0.32216168
vn 0.54285324 -0.18150144 -0.81998024
vn 0.54285324 0.18150144 -0.81998024
vn 0.89763053 0.30078443 0.32216168
vn 0.89763053 -0.30078443 0.32216168
vn 0.54285324 -0.18150144 0.81998024
vn 0.54285324 0.18150144 0.81998024
vn 1.00000000 -0.00000000 0.00000000
vn -0.89763053 0.30078443 -0.32216168
vn -0.89763053 -0.30078443 -0.32216168
vn -0.54285324 -0.18150144 -0.81998024
vn -0.54285324 0.18150144 -0.81998024
vn -0.89763053 0.30078443 0.32216168
vn -0.89763053 -0.30078443 0.32216168
vn -0.54285324 -0.18150144 0.81998024
vn -0.54285324 0.18150144 0.81998024
vn -1.00000000 -0.00000000 0.00000000
vn -0.45629977 0.88982612 -0.00000000
vn 0.45629977 0.88982612 0.00000000
vn -0.45629977 -0.88982612 0.00000000
vn 0.45629977 -0.88982612 -0.00000000
vn -0.63012785 -0.69192321 0.35239348
vn -0.20372947 -0.48869959 0.84833190
vn -0.25206999 -0.87501133 0.41329881
vn 0.63012785 -0.69192321 0.35239348
vn 0.20372947 -0.48869959 0.84833190
vn 0.25206999 -0.87501133 0.41329881
vn 0.00000000 -0.70034497 0.71380454
vn -0.63012785 0.69192321 0.35239348
vn -0.20372947 0.48869959 0.84833190
vn -0.25206999 0.87501133 0.41329881
vn 0.63012785 0.69192321 0.35239348
vn 0.20372947 0.48869959 0.84833190
vn 0.25206999 0.87501133 0.41329881
vn -0.00000000 0.70034497 0.71380454
vn 0.00000000 -0.16627730 0.98607903
vn 0.00000000 0.16627730 0.98607903
vn -0.63012785 -0.69192321 -0.35239348
vn -0.20372947 -0.48869959 -0.84833190
vn -0.25206999 -0.87501133 -0.41329881
vn 0.63012785 -0.69192321 -0.35239348
vn 0.20372947 -0.48869959 -0.84833190
vn 0.25206999 -0.87501133 -0.41329881
vn 0.00000000 -0.70034497 -0.71380454
vn -0.63012785 0.69192321 -0.35239348
vn -0.20372947 0.48869959 -0.84833190
vn -0.25206999 0.87501133 -0.41329881
vn 0.63012785 0.69192321 -0.35239348
vn 0.20372947 0.48869959 -0.84833190
vn 0.25206999 0.87501133 -0.41329881
vn 0.00000000 0.70034497 -0.71380454
vn 0.00000000 -0.16627730 -0.98607903
vn -0.00000000 0.16627730 -0.98607903
vn 0.86001134 0.47598475 -0.18389948
vn 0.89418567 0.14392161 -0.42393225
vn 0.72795344 0.46373301 -0.50501038
vn 0.86001134 -0.47598475 -0.18389948
vn 0.89418567 -0.14392161 -0.42393225
vn 0.72795344 -0.46373301 -0.50501038
vn 0.29516911 -0.26687135 -0.91741750
vn 0.73263132 -0.09095555 -0.67452089
vn 0.51777922 -0.38260660 -0.76519074
vn 0.28933761 -0.08907341 -0.95307380
vn 0.75118175 -0.26021508 -0.60664164
vn 0.29516911 0.26687135 -0.91741750
vn 0.73263132 0.09095555 -0.67452089
vn 0.51777922 0.38260660 -0.76519074
vn 0.28933761 0.08907341 -0.95307380
vn 0.75118175 0.26021508 -0.60664164
vn 0.54382931 -0.00000000 -0.83919586
vn 0.86001134 0.47598475 0.18389948
vn 0.89418567 0.14392161 0.42393225
vn 0.72795344 0.46373301 0.50501038
vn 0.95041380 0.31098811 0.00000000
vn 0.86001134 -0.47598475 0.18389948
vn 0.89418567 -0.14392161 0.42393225
vn 0.72795344 -0.46373301 0.50501038
vn 0.95041380 -0.31098811 0.00000000
vn 0.29516911 -0.26687135 0.91741750
vn 0.73263132 -0.09095555 0.67452089
vn 0.51777922 -0.38260660 0.76519074
vn 0.28933761 -0.08907341 0.95307380
vn 0.75118175 -0.26021508 0.60664164
vn 0.29516911 0.26687135 0.91741750
vn 0.73263132 0.09095555 0.67452089
vn 0.51777922 0.38260660 0.76519074
vn 0.28933761 0.08907341 0.95307380
vn 0.75118175 0.26021508 0.60664164
vn 0.54382931 -0.00000000 0.83919586
vn 0.96641732 -0.00000000 -0.25697775
vn 0.96641732 -0.00000000 0.25697775
vn 0.97791345 0.14840592 -0.14717669
vn 0.97791345 -0.14840592 -0.14717669
vn 0.97791345 0.14840592 0.14717669
vn 0.97791345 -0.14840592 0.14717669
vn -0.86001134 0.47598475 -0.18389948
vn -0.89418567 0.14392161 -0.42393225
vn -0.72795344 0.46373301 -0.50501038
vn -0.86001134 -0.47598475 -0.18389948
vn -0.89418567 -0.14392161 -0.42393225
vn -0.72795344 -0.46373301 -0.50501038
vn -0.29516911 -0.26687135 -0.91741750
vn -0.73263132 -0.09095555 -0.67452089
vn -0.51777922 -0.38260660 -0.76519074
vn -0.28933761 -0.08907341 -0.95307380
vn -0.75118175 -0.26021508 -0.60664164
vn -0.29516911 0.26687135 -0.91741750
vn -0.73263132 0.09095555 -0.67452089
vn -0.51777922 0.38260660 -0.76519074
vn -0.28933761 0.08907341 -0.95307380
vn -0.75118175 0.26021508 -0.60664164
vn -0.54382931 0.00000000 -0.83919586
vn -0.86001134 0.47598475 0.18389948
vn -0.89418567 0.14392161 0.42393225
vn -0.72795344 0.46373301 0.50501038
vn -0.95041380 0.31098811 0.00000000
vn -0.86001134 -0.47598475 0.18389948
vn -0.89418567 -0.14392161 0.42393225
vn -0.72795344 -0.46373301 0.50501038
vn -0.95041380 -0.31098811 0.00000000
vn -0.29516911 -0.26687135 0.91741750
vn -0.73263132 -0.09095555 0.67452089
vn -0.51777922 -0.38260660 0.76519074
vn -0.28933761 -0.08907341 0.95307380
vn -0.75118175 -0.26021508 0.60664164
vn -0.29516911 0.26687135 0.91741750
vn -0.73263132 0.09095555 0.67452089
vn -0.51777922 0.38260660 0.76519074
vn -0.28933761 0.08907341 0.95307380
vn -0.75118175 0.26021508 0.60664164
vn -0.54382931 0.00000000 0.83919586
vn -0.96641732 -0.00000000 -0.25697775
vn -0.96641732 -0.00000000 0.25697775
vn -0.97791345 0.14840592 -0.14717669
vn -0.97791345 -0.14840592 -0.14717669
vn -0.97791345 0.14840592 0.14717669
vn -0.97791345 -0.14840592 0.14717669
vn -0.48658915 0.87363093 -0.00000000
vn 0.48658915 0.87363093 0.00000000
vn -0.48658915 -0.87363093 0.00000000
vn 0.48658915 -0.87363093 -0.00000000
vn 0.00000000 -0.57658128 0.81703980
vn 0.00000000 0.57658128 0.81703980
vn 0.00000000 -0.57658128 -0.81703980
vn 0.00000000 0.57658128 -0.81703980
vn 0.85777418 -0.00000000 -0.51402670
vn 0.85777418 0.00000000 0.51402670
vn -0.85777418 0.00000000 -0.51402670
vn -0.85777418 -0.00000000 0.51402670
vn -0.00000000 1.00000000 0.00000000
vn 0.00000000 -1.00000000 0.00000000
vn -0.29220384 -0.84135513 0.45468501
vn 0.29220384 -0.84135513 0.45468501
vn -0.29220384 0.84135513 0.45468501
vn 0.29220384 0.84135513 0.45468501
vn -0.00000000 0.00000000 1.00000000
vn -0.29220384 -0.84135513 -0.45468501
vn 0.29220384 -0.84135513 -0.45468501
vn -0.29220384 0.84135513 -0.45468501
vn 0.29220384 0.84135513 -0.45468501
vn 0.00000000 0.00000000 -1.00000000
vn 0.78949278 0.54024117 -0.29127413
vn 0.78949278 -0.54024117 -0.29127413
vn 0.50416489 -0.34272366 -0.79269052
vn 0.50416489 0.34272366 -0.79269052
vn 0.78949278 0.54024117 0.29127413
vn 0.78949278 -0.54024117 0.29127413
vn 0.50416489 -0.34272366 0.79269052
vn 0.50416489 0.34272366 0.79269052
vn 1.00000000 0.00000000 0.00000000
vn -0.78949278 0.54024117 -0.29127413
vn -0.78949278 -0.54024117 -0.29127413
vn -0.50416489 -0.34272366 -0.79269052
vn -0.50416489 0.34272366 -0.79269052
vn -0.78949278 0.54024117 0.29127413
vn -0.78949278 -0.54024117 0.29127413
vn -0.50416489 -0.34272366 0.79269052
vn -0.50416489 0.34272366 0.79269052
vn -1.00000000 -0.00000000 0.00000000
vn -0.79051212 0.61244640 -0.00000000
vn 0.79051212 0.61244640 -0.00000000
vn -0.79051212 -0.61244640 -0.00000000
vn 0.79051212 -0.61244640 0.00000000
vn 0.00000000 -0.29889518 0.95428595
vn 0.00000000 0.29889518 0.95428595
vn 0.00000000 -0.29889518 -0.95428595
vn 0.00000000 0.29889518 -0.95428595
vn 0.86371758 -0.00000000 -0.50397613
vn 0.86371758 -0.00000000 0.50397613
vn -0.86371758 0.00000000 -0.50397613
vn -0.86371758 0.00000000 0.50397613
vn 0.00000000 1.00000000 -0.00000000
vn -0.00000000 -1.00000000 -0.00000000
vn -0.44912148 -0.56873809 0.68907684
vn 0.44912148 -0.56873809 0.68907684
vn -0.44912148 0.56873809 0.68907684
vn 0.44912148 0.56873809 0.68907684
vn 0.00000000 0.00000000 1.00000000
vn -0.44912148 -0.56873809 -0.68907684
vn 0.44912148 -0.56873809 -0.68907684
vn -0.44912148 0.56873809 -0.68907684
vn 0.44912148 0.56873809 -0.68907684
vn 0.00000000 0.00000000 -1.00000000
vn 0.90757216 0.26352024 -0.32690954
vn 0.90757216 -0.26352024 -0.32690954
vn 0.54427547 -0.15737565 -0.82401282
vn 0.54427547 0.15737565 -0.82401282
vn 0.90757216 0.26352024 0.32690954
vn 0.90757216 -0.26352024 0.32690954
vn 0.54427547 -0.15737565 0.82401282
vn 0.54427547 0.15737565 0.82401282
vn 1.00000000 0.00000000 0.00000000
vn -0.90757216 0.26352024 -0.32690954
vn -0.90757216 -0.26352024 -0.32690954
vn -0.54427547 -0.15737565 -0.82401282
vn -0.54427547 0.15737565 -0.82401282
vn -0.90757216 0.26352024 0.32690954
vn -0.90757216 -0.26352024 0.32690954
vn -0.54427547 -0.15737565 0.82401282
vn -0.54427547 0.15737565 0.82401282
vn -1.00000000 -0.00000000 0.00000000
vn -0.50334597 0.86408497 -0.00000000
vn 0.50334597 0.86408497 -0.00000000
vn -0.50334597 -0.86408497 -0.00000000
vn 0.50334597 -0.86408497 -0.00000000
vn -0.66869952 -0.64151419 0.37589959
vn -0.20960898 -0.43663744 0.87487818
vn -0.27668811 -0.84618519 0.45542762
vn 0.66869952 -0.64151419 0.37589959
vn 0.20960898 -0.43663744 0.87487818
vn 0.27668811 -0.84618519 0.45542762
vn 0.00000000 -0.64986183 0.76005237
vn -0.66869952 0.64151419 0.37589959
vn -0.20960898 0.43663744 0.87487818
vn -0.27668811 0.84618519 0.45542762
vn 0.66869952 0.64151419 0.37589959
vn 0.20960898 0.43663744 0.87487818
vn 0.27668811 0.84618519 0.45542762
vn -0.00000000 0.64986183 0.76005237
vn 0.00000000 -0.14490482 0.98944560
vn -0.00000000 0.14490482 0.98944560
vn -0.66869952 -0.64151419 -0.37589959
vn -0.20960898 -0.43663744 -0.87487818
vn -0.27668811 -0.84618519 -0.45542762
vn 0.66869952 -0.64151419 -0.37589959
vn 0.20960898 -0.43663744 -0.87487818
vn 0.27668811 -0.84618519 -0.45542762
vn 0.00000000 -0.64986183 -0.76005237
vn -0.66869952 0.64151419 -0.37589959
vn -0.20960898 0.43663744 -0.87487818
vn -0.27668811 0.84618519 -0.45542762
vn 0.66869952 0.64151419 -0.37589959
vn 0.20960898 0.43663744 -0.87487818
vn 0.27668811 0.84618519 -0.45542762
vn -0.00000000 0.64986183 -0.76005237
vn 0.00000000 -0.14490482 -0.98944560
vn 0.00000000 0.14490482 -0.98944560
vn 0.88517324 0.42509419 -0.18911179
vn 0.89578362 0.12475567 -0.42662364
vn 0.74709836 0.41363644 -0.52033541
vn 0.88517324 -0.42509419 -0.18911179
vn 0.89578362 -0.12475567 -0.42662364
vn 0.74709836 -0.41363644 -0.52033541
vn 0.29769843 -0.23235662 -0.92595143
vn 0.73246719 -0.07883569 -0.67622241
vn 0.52642775 -0.33704323 -0.78056113
vn 0.28929579 -0.07683224 -0.95415133
vn 0.75672306 -0.22713254 -0.61300981
vn 0.29769843 0.23235662 -0.92595143
vn 0.73246719 0.07883569 -0.67622241
vn 0.52642775 0.33704323 -0.78056113
vn 0.28929579 0.07683224 -0.95415133
vn 0.75672306 0.22713254 -0.61300981
vn 0.54317006 -0.00000000 -0.83962271
vn 0.88517324 0.42509419 0.18911179
vn 0.89578362 0.12475567 0.42662364
vn 0.74709836 0.41363644 0.52033541
vn 0.96209986 0.27269739 0.00000000
vn 0.88517324 -0.42509419 0.18911179
vn 0.89578362 -0.12475567 0.42662364
vn 0.74709836 -0.41363644 0.52033541
vn 0.96209986 -0.27269739 0.00000000
vn 0.29769843 -0.23235662 0.92595143
vn 0.73246719 -0.07883569 0.67622241
vn 0.52642775 -0.33704323 0.78056113
vn 0.28929579 -0.07683224 0.95415133
vn 0.75672306 -0.22713254 0.61300981
vn 0.29769843 0.23235662 0.92595143
vn 0.73246719 0.07883569 0.67622241
vn 0.52642775 0.33704323 0.78056113
vn 0.28929579 0.07683224 0.95415133
vn 0.75672306 0.22713254 0.61300981
vn 0.54317006 0.00000000 0.83962271
vn 0.96630880 -0.00000000 -0.25738553
vn 0.96630880 0.00000000 0.25738553
vn 0.98061220 0.12864271 -0.14782004
vn 0.98061220 -0.12864271 -0.14782004
vn 0.98061220 0.12864271 0.14782004
vn 0.98061220 -0.12864271 0.14782004
vn -0.88517324 0.42509419 -0.18911179
vn -0.89578362 0.12475567 -0.42662364
vn -0.74709836 0.41363644 -0.52033541
vn -0.88517324 -0.42509419 -0.18911179
vn -0.89578362 -0.12475567 -0.42662364
vn -0.74709836 -0.41363644 -0.52033541
vn -0.29769843 -0.23235662 -0.92595143
vn -0.73246719 -0.07883569 -0.67622241
vn -0.52642775 -0.33704323 -0.78056113
vn -0.28929579 -0.07683224 -0.95415133
vn -0.75672306 -0.22713254 -0.61300981
vn -0.29769843 0.23235662 -0.92595143
vn -0.73246719 0.07883569 -0.67622241
vn -0.52642775 0.33704323 -0.78056113
vn -0.28929579 0.07683224 -0.95415133
vn -0.75672306 0.22713254 -0.61300981
vn -0.54317006 0.00000000 -0.83962271
vn -0.88517324 0.42509419 0.18911179
vn -0.89578362 0.12475567 0.42662364
vn -0.74709836 0.41363644 0.52033541
vn -0.96209986 0.27269739 0.00000000
vn -0.88517324 -0.42509419 0.18911179
vn -0.89578362 -0.12475567 0.42662364
vn -0.74709836 -0.41363644 0.52033541
vn -0.96209986 -0.27269739 -0.00000000
vn -0.29769843 -0.23235662 0.92595143
vn -0.73246719 -0.07883569 0.67622241
vn -0.52642775 -0.33704323 0.78056113
vn -0.28929579 -0.07683224 0.95415133
vn -0.75672306 -0.22713254 0.61300981
vn -0.29769843 0.23235662 0.92595143
vn -0.73246719 0.07883569 0.67622241
vn -0.52642775 0.33704323 0.78056113
vn -0.28929579 0.07683224 0.95415133
vn -0.75672306 0.22713254 0.61300981
vn -0.54317006 -0.00000000 0.83962271
vn -0.96630880 0.00000000 -0.25738553
vn -0.96630880 -0.00000000 0.25738553
vn -0.98061220 0.12864271 -0.14782004
vn -0.98061220 -0.12864271 -0.14782004
vn -0.98061220 0.12864271 0.14782004
vn -0.98061220 -0.12864271 0.14782004
f 1//1 138//138 54//54
f 138//138 38//38 140//140
f 54//54 140//140 17//17
f 138//138 140//140 54//54
f 38//38 139//139 155//155
f 139//139 12//12 152//152
f 155//155 152//152 41//41
f 139//139 152//152 155//155
f 17//17 153//153 55//55
f 153//153 41//41 151//151
f 55//55 151//151 6//6
f 153//153 151//151 55//55
f 38//38 155//155 140//140
f 155//155 41//41 153//153
f 140//140 153//153 17//17
f 155//155 153//153 140//140
f 1//1 54//54 43//43
f 54//54 17//17 56//56
f 43//43 56//56 13//13
f 54//54 56//56 43//43
f 17//17 55//55 60//60
f 55//55 6//6 58//58
f 60//60 58//58 18//18
f 55//55 58//58 60//60
f 13//13 59//59 44//44
f 59//59 18//18 57//57
f 44//44 57//57 2//2
f 59//59 57//57 44//44
f 17//17 60//60 56//56
f 60//60 18//18 59//59
f 56//56 59//59 13//13
f 60//60 59//59 56//56
f 1//1 43//43 70//70
f 43//43 13//13 72//72
f 70//70 72//72 22//22
f 43//43 72//72 70//70
f 13//13 44//44 75//75
f 44//44 2//2 73//73
f 75//75 73//73 23//23
f 44//44 73//73 75//75
f 22//22 76//76 71//71
f 76//76 23//23 74//74
f 71//71 74//74 8//8
f 76//76 74//74 71//71
f 13//13 75//75 72//72
f 75//75 23//23 76//76
f 72//72 76//76 22//22
f 75//75 76//76 72//72
f 1//1 70//70 121//121
f 70//70 22//22 123//123
f 121//121 123//123 34//34
f 70//70 123//123 121//121
f 22//22 71//71 134//134
f 71//71 8//8 132//132
f 134//134 132//132 37//37
f 71//71 132//132 134//134
f 34//34 136//136 122//122
f 136//136 37//37 133//133
f 122//122 133//133 11//11
f 136//136 133//133 122//122
f 22//22 134//134 123//123
f 134//134 37//37 136//136
f 123//123 136//136 34//34
f 134//134 136//136 123//123
f 1//1 121//121 138//138
f 121//121 34//34 141//141
f 138//138 141//141 38//38
f 121//121 141//141 138//138
f 34//34 122//122 159//159
f 122//122 11//11 157//157
f 159//159 157//157 42//42
f 122//122 157//157 159//159
f 38//38 161//161 139//139
f 161//161 42//42 158//158
f 139//139 158//158 12//12
f 161//161 158//158 139//139
f 34//34 159//159 141//141
f 159//159 42//42 161//161
f 141//141 161//161 38//38
f 159//159 161//161 141//141
f 2//2 57//57 96//96
f 57//57 18//18 98//98
f 96//96 98//98 29//29
f 57//57 98//98 96//96
f 18//18 58//58 111//111
f 58//58 6//6 109//109
f 111//111 109//109 32//32
f 58//58 109//109 111//111
f 29//29 113//113 97//97
f 113//113 32//32 110//110
f 97//97 110//110 10//10
f 113//113 110//110 97//97
f 18//18 111//111 98//98
f 111//111 32//32 113//113
f 98//98 113//113 29//29
f 111//111 113//113 98//98
f 6//6 151//151 62//62
f 151//151 41//41 154//154
f 62//62 154//154 19//19
f 151//151 154//154 62//62
f 41//41 152//152 156//156
f 152//152 12//12 147//147
f 156//156 147//147 40//40
f 152//152 147//147 156//156
f 19//19 149//149 61//61
f 149//149 40//40 146//146
f 61//61 146//146 5//5
f 149//149 146//146 61//61
f 41//41 156//156 154//154
f 156//156 40//40 149//149
f 154//154 149//149 19//19
f 156//156 149//149 154//154
f 12//12 158//158 143//143
f 158//158 42//42 162//162
f 143//143 162//162 39//39
f 158//158 162//162 143//143
f 42//42 157//157 160//160
f 157//157 11//11 125//125
f 160//160 125//125 35//35
f 157//157 125//125 160//160
f 39//39 145//145 142//142
f 145//145 35//35 124//124
f 142//142 124//124 3//3
f 145//145 124//124 142//142
f 42//42 160//160 162//162
f 160//160 35//35 145//145
f 162//162 145//145 39//39
f 160//160 145//145 162//162
f 11//11 133//133 128//128
f 133//133 37//37 137//137
f 128//128 137//137 36//36
f 133//133 137//137 128//128
f 37//37 132//132 135//135
f 132//132 8//8 78//78
f 135//135 78//78 24//24
f 132//132 78//78 135//135
f 36//36 130//130 127//127
f 130//130 24//24 77//77
f 127//127 77//77 7//7
f 130//130 77//77 127//127
f 37//37 135//135 137//137
f 135//135 24//24 130//130
f 137//137 130//130 36//36
f 135//135 130//130 137//137
f 8//8 74//74 90//90
f 74//74 23//23 92//92
f 90//90 92//92 28//28
f 74//74 92//92 90//90
f 23//23 73//73 81//81
f 73//73 2//2 79//79
f 81//81 79//79 25//25
f 73//73 79//79 81//81
f 28//28 94//94 91//91
f 94//94 25//25 80//80
f 91//91 80//80 9//9
f 94//94 80//80 91//91
f 23//23 81//81 92//92
f 81//81 25//25 94//94
f 92//92 94//94 28//28
f 81//81 94//94 92//92
f 4//4 100//100 50//50
f 100//100 30//30 102//102
f 50//50 102//102 16//16
f 100//100 102//102 50//50
f 30//30 101//101 108//108
f 101//101 10//10 105//105
f 108//108 105//105 31//31
f 101//101 105//105 108//108
f 16//16 106//106 51//51
f 106//106 31//31 104//104
f 51//51 104//104 5//5
f 106//106 104//104 51//51
f 30//30 108//108 102//102
f 108//108 31//31 106//106
f 102//102 106//106 16//16
f 108//108 106//106 102//102
f 4//4 50//50 46//46
f 50//50 16//16 52//52
f 46//46 52//52 14//14
f 50//50 52//52 46//46
f 16//16 51//51 53//53
f 51//51 5//5 48//48
f 53//53 48//48 15//15
f 51//51 48//48 53//53
f 14//14 49//49 45//45
f 49//49 15//15 47//47
f 45//45 47//47 3//3
f 49//49 47//47 45//45
f 16//16 53//53 52//52
f 53//53 15//15 49//49
f 52//52 49//49 14//14
f 53//53 49//49 52//52
f 4//4 46//46 66//66
f 46//46 14//14 68//68
f 66//66 68//68 21//21
f 46//46 68//68 66//66
f 14//14 45//45 65//65
f 45//45 3//3 63//63
f 65//65 63//63 20//20
f 45//45 63//63 65//65
f 21//21 69//69 67//67
f 69//69 20//20 64//64
f 67//67 64//64 7//7
f 69//69 64//64 67//67
f 14//14 65//65 68//68
f 65//65 20//20 69//69
f 68//68 69//69 21//21
f 65//65 69//69 68//68
f 4//4 66//66 82//82
f 66//66 21//21 84//84
f 82//82 84//84 26//26
f 66//66 84//84 82//82
f 21//21 67//67 87//87
f 67//67 7//7 85//85
f 87//87 85//85 27//27
f 67//67 85//85 87//87
f 26//26 89//89 83//83
f 89//89 27//27 86//86
f 83//83 86//86 9//9
f 89//89 86//86 83//83
f 21//21 87//87 84//84
f 87//87 27//27 89//89
f 84//84 89//89 26//26
f 87//87 89//89 84//84
f 4//4 82//82 100//100
f 82//82 26//26 103//103
f 100//100 103//103 30//30
f 82//82 103//103 100//100
f 26//26 83//83 118//118
f 83//83 9//9 115//115
f 118//118 115//115 33//33
f 83//83 115//115 118//118
f 30//30 120//120 101//101
f 120//120 33//33 116//116
f 101//101 116//116 10//10
f 120//120 116//116 101//101
f 26//26 118//118 103//103
f 118//118 33//33 120//120
f 103//103 120//120 30//30
f 118//118 120//120 103//103
f 5//5 104//104 61//61
f 104//104 31//31 107//107
f 61//61 107//107 19//19
f 104//104 107//107 61//61
f 31//31 105//105 114//114
f 105//105 10//10 110//110
f 114//114 110//110 32//32
f 105//105 110//110 114//114
f 19//19 112//112 62//62
f 112//112 32//32 109//109
f 62//62 109//109 6//6
f 112//112 109//109 62//62
f 31//31 114//114 107//107
f 114//114 32//32 112//112
f 107//107 112//112 19//19
f 114//114 112//112 107//107
f 3//3 47//47 142//142
f 47//47 15//15 144//144
f 142//142 144//144 39//39
f 47//47 144//144 142//142
f 15//15 48//48 148//148
f 48//48 5//5 146//146
f 148//148 146//146 40//40
f 48//48 146//146 148//148
f 39//39 150//150 143//143
f 150//150 40//40 147//147
f 143//143 147//147 12//12
f 150//150 147//147 143//143
f 15//15 148//148 144//144
f 148//148 40//40 150//150
f 144//144 150//150 39//39
f 148//148 150//150 144//144
f 7//7 64//64 127//127
f 64//64 20//20 129//129
f 127//127 129//129 36//36
f 64//64 129//129 127//127
f 20//20 63//63 126//126
f 63//63 3//3 124//124
f 126//126 124//124 35//35
f 63//63 124//124 126//126
f 36//36 131//131 128//128
f 131//131 35//35 125//125
f 128//128 125//125 11//11
f 131//131 125//125 128//128
f 20//20 126//126 129//129
f 126//126 35//35 131//131
f 129//129 131//131 36//36
f 126//126 131//131 129//129
f 9//9 86//86 91//91
f 86//86 27//27 95//95
f 91//91 95//95 28//28
f 86//86 95//95 91//91
f 27//27 85//85 88//88
f 85//85 7//7 77//77
f 88//88 77//77 24//24
f 85//85 77//77 88//88
f 28//28 93//93 90//90
f 93//93 24//24 78//78
f 90//90 78//78 8//8
f 93//93 78//78 90//90
f 27//27 88//88 95//95
f 88//88 24//24 93//93
f 95//95 93//93 28//28
f 88//88 93//93 95//95
f 10//10 116//116 97//97
f 116//116 33//33 119//119
f 97//97 119//119 29//29
f 116//116 119//119 97//97
f 33//33 115//115 117//117
f 115//115 9//9 80//80
f 117//117 80//80 25//25
f 115//115 80//80 117//117
f 29//29 99//99 96//96
f 99//99 25//25 79//79
f 96//96 79//79 2//2
f 99//99 79//79 96//96
f 33//33 117//117 119//119
f 117//117 25//25 99//99
f 119//119 99//99 29//29
f 117//117 99//99 119//119
f 163//163 200//200 179//179
f 200//200 174//174 203//203
f 179//179 203//203 168//168
f 200//200 203//203 179//179
f 163//163 179//179 175//175
f 179//179 168//168 180//180
f 175//175 180//180 164//164
f 179//179 180//180 175//175
f 163//163 175//175 184//184
f 175//175 164//164 185//185
f 184//184 185//185 170//170
f 175//175 185//185 184//184
f 163//163 184//184 196//196
f 184//184 170//170 199//199
f 196//196 199//199 173//173
f 184//184 199//199 196//196
f 163//163 196//196 200//200
f 196//196 173//173 204//204
f 200//200 204//204 174//174
f 196//196 204//204 200//200
f 164//164 180//180 191//191
f 180//180 168//168 194//194
f 191//191 194//194 172//172
f 180//180 194//194 191//191
f 168//168 203//203 181//181
f 203//203 174//174 202//202
f 181//181 202//202 167//167
f 203//203 202//202 181//181
f 174//174 204//204 201//201
f 204//204 173//173 197//197
f 201//201 197//197 165//165
f 204//204 197//197 201//201
f 173//173 199//199 198//198
f 199//199 170//170 186//186
f 198//198 186//186 169//169
f 199//199 186//186 198//198
f 170//170 185//185 190//190
f 185//185 164//164 187//187
f 190//190 187//187 171//171
f 185//185 187//187 190//190
f 166//166 192//192 178//178
f 192//192 172//172 193//193
f 178//178 193//193 167//167
f 192//192 193//193 178//178
f 166//166 178//178 176//176
f 178//178 167//167 177//177
f 176//176 177//177 165//165
f 178//178 177//177 176//176
f 166//166 176//176 183//183
f 176//176 165//165 182//182
f 183//183 182//182 169//169
f 176//176 182//182 183//183
f 166//166 183//183 188//188
f 183//183 169//169 189//189
f 188//188 189//189 171//171
f 183//183 189//189 188//188
f 166//166 188//188 192//192
f 188//188 171//171 195//195
f 192//192 195//195 172//172
f 188//188 195//195 192//192
f 167//167 193//193 181//181
f 193//193 172//172 194//194
f 181//181 194//194 168//168
f 193//193 194//194 181//181
f 165//165 177//177 201//201
f 177//177 167//167 202//202
f 201//201 202//202 174//174
f 177//177 202//202 201//201
f 169//169 182//182 198//198
f 182//182 165//165 197//197
f 198//198 197//197 173//173
f 182//182 197//197 198//198
f 171//171 189//189 190//190
f 189//189 169//169 186//186
f 190//190 186//186 170//170
f 189//189 186//186 190//190
f 172//172 195//195 191//191
f 195//195 171//171 187//187
f 191//191 187//187 164//164
f 195//195 187//187 191//191
f 205//205 342//342 258//258
f 342//342 242//242 344//344
f 258//258 344//344 221//221
f 342//342 344//344 258//258
f 242//242 343//343 359//359
f 343//343 216//216 356//356
f 359//359 356//356 245//245
f 343//343 356//356 359//359
f 221//221 357//357 259//259
f 357//357 245//245 355//355
f 259//259 355//355 210//210
f 357//357 355//355 259//259
f 242//242 359//359 344//344
f 359//359 245//245 357//357
f 344//344 357//357 221//221
f 359//359 357//357 344//344
f 205//205 258//258 247//247
f 258//258 221//221 260//260
f 247//247 260//260 217//217
f 258//258 260//260 247//247
f 221//221 259//259 264//264
f 259//259 210//210 262//262
f 264//264 262//262 222//222
f 259//259 262//262 264//264
f 217//217 263//263 248//248
f 263//263 222//222 261//261
f 248//248 261//261 206//206
f 263//263 261//261 248//248
f 221//221 264//264 260//260
f 264//264 222//222 263//263
f 260//260 263//263 217//217
f 264//264 263//263 260//260
f 205//205 247//247 274//274
f 247//247 217//217 276//276
f 274//274 276//276 226//226
f 247//247 276//276 274//274
f 217//217 248//248 279//279
f 248//248 206//206 277//277
f 279//279 277//277 227//227
f 248//248 277//277 279//279
f 226//226 280//280 275//275
f 280//280 227//227 278//278
f 275//275 278//278 212//212
f 280//280 278//278 275//275
f 217//217 279//279 276//276
f 279//279 227//227 280//280
f 276//276 280//280 226//226
f 279//279 280//280 276//276
f 205//205 274//274 325//325
f 274//274 226//226 327//327
f 325//325 327//327 238//238
f 274//274 327//327 325//325
f 226//226 275//275 338//338
f 275//275 212//212 336//336
f 338//338 336//336 241//241
f 275//275 336//336 338//338
f 238//238 340//340 326//326
f 340//340 241//241 337//337
f 326//326 337//337 215//215
f 340//340 337//337 326//326
f 226//226 338//338 327//327
f 338//338 241//241 340//340
f 327//327 340//340 238//238
f 338//338 340//340 327//327
f 205//205 325//325 342//342
f 325//325 238//238 345//345
f 342//342 345//345 242//242
f 325//325 345//345 342//342
f 238//238 326//326 363//363
f 326//326 215//215 361//361
f 363//363 361//361 246//246
f 326//326 361//361 363//363
f 242//242 365//365 343//343
f 365//365 246//246 362//362
f 343//343 362//362 216//216
f 365//365 362//362 343//343
f 238//238 363//363 345//345
f 363//363 246//246 365//365
f 345//345 365//365 242//242
f 363//363 365//365 345//345
f 206//206 261//261 300//300
f 261//261 222//222 302//302
f 300//300 302//302 233//233
f 261//261 302//302 300//300
f 222//222 262//262 315//315
f 262//262 210//210 313//313
f 315//315 313//313 236//236
f 262//262 313//313 315//315
f 233//233 317//317 301//301
f 317//317 236//236 314//314
f 301//301 314//314 214//214
f 317//317 314//314 301//301
f 222//222 315//315 302//302
f 315//315 236//236 317//317
f 302//302 317//317 233//233
f 315//315 317//317 302//302
f 210//210 355//355 266//266
f 355//355 245//245 358//358
f 266//266 358//358 223//223
f 355//355 358//358 266//266
f 245//245 356//356 360//360
f 356//356 216//216 351//351
f 360//360 351//351 244//244
f 356//356 351//351 360//360
f 223//223 353//353 265//265
f 353//353 244//244 350//350
f 265//265 350//350 209//209
f 353//353 350//350 265//265
f 245//245 360//360 358//358
f 360//360 244//244 353//353
f 358//358 353//353 223//223
f 360//360 353//353 358//358
f 216//216 362//362 347//347
f 362//362 246//246 366//366
f 347//347 366//366 243//243
f 362//362 366//366 347//347
f 246//246 361//361 364//364
f 361//361 215//215 329//329
f 364//364 329//329 239//239
f 361//361 329//329 364//364
f 243//243 349//349 346//346
f 349//349 239//239 328//328
f 346//346 328//328 207//207
f 349//349 328//328 346//346
f 246//246 364//364 366//366
f 364//364 239//239 349//349
f 366//366 349//349 243//243
f 364//364 349//349 366//366
f 215//215 337//337 332//332
f 337//337 241//241 341//341
f 332//332 341//341 240//240
f 337//337 341//341 332//332
f 241//241 336//336 339//339
f 336//336 212//212 282//282
f 339//339 282//282 228//228
f 336//336 282//282 339//339
f 240//240 334//334 331//331
f 334//334 228//228 281//281
f 331//331 281//281 211//211
f 334//334 281//281 331//331
f 241//241 339//339 341//341
f 339//339 228//228 334//334
f 341//341 334//334 240//240
f 339//339 334//334 341//341
f 212//212 278//278 294//294
f 278//278 227//227 296//296
f 294//294 296//296 232//232
f 278//278 296//296 294//294
f 227//227 277//277 285//285
f 277//277 206//206 283//283
f 285//285 283//283 229//229
f 277//277 283//283 285//285
f 232//232 298//298 295//295
f 298//298 229//229 284//284
f 295//295 284//284 213//213
f 298//298 284//284 295//295
f 227//227 285//285 296//296
f 285//285 229//229 298//298
f 296//296 298//298 232//232
f 285//285 298//298 296//296
f 208//208 304//304 254//254
f 304//304 234//234 306//306
f 254//254 306//306 220//220
f 304//304 306//306 254//254
f 234//234 305//305 312//312
f 305//305 214//214 309//309
f 312//312 309//309 235//235
f 305//305 309//309 312//312
f 220//220 310//310 255//255
f 310//310 235//235 308//308
f 255//255 308//308 209//209
f 310//310 308//308 255//255
f 234//234 312//312 306//306
f 312//312 235//235 310//310
f 306//306 310//310 220//220
f 312//312 310//310 306//306
f 208//208 254//254 250//250
f 254//254 220//220 256//256
f 250//250 256//256 218//218
f 254//254 256//256 250//250
f 220//220 255//255 257//257
f 255//255 209//209 252//252
f 257//257 252//252 219//219
f 255//255 252//252 257//257
f 218//218 253//253 249//249
f 253//253 219//219 251//251
f 249//249 251//251 207//207
f 253//253 251//251 249//249
f 220//220 257//257 256//256
f 257//257 219//219 253//253
f 256//256 253//253 218//218
f 257//257 253//253 256//256
f 208//208 250//250 270//270
f 250//250 218//218 272//272
f 270//270 272//272 225//225
f 250//250 272//272 270//270
f 218//218 249//249 269//269
f 249//249 207//207 267//267
f 269//269 267//267 224//224
f 249//249 267//267 269//269
f 225//225 273//273 271//271
f 273//273 224//224 268//268
f 271//271 268//268 211//211
f 273//273 268//268 271//271
f 218//218 269//269 272//272
f 269//269 224//224 273//273
f 272//272 273//273 225//225
f 269//269 273//273 272//272
f 208//208 270//270 286//286
f 270//270 225//225 288//288
f 286//286 288//288 230//230
f 270//270 288//288 286//286
f 225//225 271//271 291//291
f 271//271 211//211 289//289
f 291//291 289//289 231//231
f 271//271 289//289 291//291
f 230//230 293//293 287//287
f 293//293 231//231 290//290
f 287//287 290//290 213//213
f 293//293 290//290 287//287
f 225//225 291//291 288//288
f 291//291 231//231 293//293
f 288//288 293//293 230//230
f 291//291 293//293 288//288
f 208//208 286//286 304//304
f 286//286 230//230 307//307
f 304//304 307//307 234//234
f 286//286 307//307 304//304
f 230//230 287//287 322//322
f 287//287 213//213 319//319
f 322//322 319//319 237//237
f 287//287 319//319 322//322
f 234//234 324//324 305//305
f 324//324 237//237 320//320
f 305//305 320//320 214//214
f 324//324 320//320 305//305
f 230//230 322//322 307//307
f 322//322 237//237 324//324
f 307//307 324//324 234//234
f 322//322 324//324 307//307
f 209//209 308//308 265//265
f 308//308 235//235 311//311
f 265//265 311//311 223//223
f 308//308 311//311 265//265
f 235//235 309//309 318//318
f 309//309 214//214 314//314
f 318//318 314//314 236//236
f 309//309 314//314 318//318
f 223//223 316//316 266//266
f 316//316 236//236 313//313
f 266//266 313//313 210//210
f 316//316 313//313 266//266
f 235//235 318//318 311//311
f 318//318 236//236 316//316
f 311//311 316//316 223//223
f 318//318 316//316 311//311
f 207//207 251//251 346//346
f 251//251 219//219 348//348
f 346//346 348//348 243//243
f 251//251 348//348 346//346
f 219//219 252//252 352//352
f 252//252 209//209 350//350
f 352//352 350//350 244//244
f 252//252 350//350 352//352
f 243//243 354//354 347//347
f 354//354 244//244 351//351
f 347//347 351//351 216//216
f 354//354 351//351 347//347
f 219//219 352//352 348//348
f 352//352 244//244 354//354
f 348//348 354//354 243//243
f 352//352 354//354 348//348
f 211//211 268//268 331//331
f 268//268 224//224 333//333
f 331//331 333//333 240//240
f 268//268 333//333 331//331
f 224//224 267//267 330//330
f 267//267 207//207 328//328
f 330//330 328//328 239//239
f 267//267 328//328 330//330
f 240//240 335//335 332//332
f 335//335 239//239 329//329
f 332//332 329//329 215//215
f 335//335 329//329 332//332
f 224//224 330//330 333//333
f 330//330 239//239 335//335
f 333//333 335//335 240//240
f 330//330 335//335 333//333
f 213//213 290//290 295//295
f 290//290 231//231 299//299
f 295//295 299//299 232//232
f 290//290 299//299 295//295
f 231//231 289//289 292//292
f 289//289 211//211 281//281
f 292//292 281//281 228//228
f 289//289 281//281 292//292
f 232//232 297//297 294//294
f 297//297 228//228 282//282
f 294//294 282//282 212//212
f 297//297 282//282 294//294
f 231//231 292//292 299//299
f 292//292 228//228 297//297
f 299//299 297//297 232//232
f 292//292 297//297 299//299
f 214//214 320//320 301//301
f 320//320 237//237 323//323
f 301//301 323//323 233//233
f 320//320 323//323 301//301
f 237//237 319//319 321//321
f 319//319 213//213 284//284
f 321//321 284//284 229//229
f 319//319 284//284 321//321
f 233//233 303//303 300//300
f 303//303 229//229 283//283
f 300//300 283//283 206//206
f 303//303 283//283 300//300
f 237//237 321//321 323//323
f 321//321 229//229 303//303
f 323//323 303//303 233//233
f 321//321 303//303 323//323

