# https://github.com/mikedh/trimesh
v -0.67500000 0.00500000 -0.37500000
v -0.67500000 0.00500000 0.37500000
v -0.67500000 1.55500000 -0.37500000
v -0.67500000 1.55500000 0.37500000
v 0.67500000 0.00500000 -0.37500000
v 0.67500000 0.00500000 0.37500000
v 0.67500000 1.55500000 -0.37500000
v 0.67500000 1.55500000 0.37500000
v -0.61000000 1.52000000 -0.41000000
v -0.61000000 1.52000000 0.41000000
v -0.61000000 1.64000000 -0.41000000
v -0.61000000 1.64000000 0.41000000
v 0.61000000 1.52000000 -0.41000000
v 0.61000000 1.52000000 0.41000000
v 0.61000000 1.64000000 -0.41000000
v 0.61000000 1.64000000 0.41000000
v -0.35000000 1.87000000 -0.17000000
v -0.25000000 1.87000000 -0.17000000
v -0.25000000 1.87000000 0.17000000
v -0.35000000 1.87000000 0.17000000
v -0.26339746 1.92000000 -0.17000000
v -0.26339746 1.92000000 0.17000000
v -0.30000000 1.95660254 -0.17000000
v -0.30000000 1.95660254 0.17000000
v -0.35000000 1.97000000 -0.17000000
v -0.35000000 1.97000000 0.17000000
v -0.40000000 1.95660254 -0.17000000
v -0.40000000 1.95660254 0.17000000
v -0.43660254 1.92000000 -0.17000000
v -0.43660254 1.92000000 0.17000000
v -0.45000000 1.87000000 -0.17000000
v -0.45000000 1.87000000 0.17000000
v -0.43660254 1.82000000 -0.17000000
v -0.43660254 1.82000000 0.17000000
v -0.40000000 1.78339746 -0.17000000
v -0.40000000 1.78339746 0.17000000
v -0.35000000 1.77000000 -0.17000000
v -0.35000000 1.77000000 0.17000000
v -0.30000000 1.78339746 -0.17000000
v -0.30000000 1.78339746 0.17000000
v -0.26339746 1.82000000 -0.17000000
v -0.26339746 1.82000000 0.17000000
v 0.00000000 1.87000000 -0.17000000
v 0.10000000 1.87000000 -0.17000000
v 0.10000000 1.87000000 0.17000000
v 0.00000000 1.87000000 0.17000000
v 0.08660254 1.92000000 -0.17000000
v 0.08660254 1.92000000 0.17000000
v 0.05000000 1.95660254 -0.17000000
v 0.05000000 1.95660254 0.17000000
v 0.00000000 1.97000000 -0.17000000
v 0.00000000 1.97000000 0.17000000
v -0.05000000 1.95660254 -0.17000000
v -0.05000000 1.95660254 0.17000000
v -0.08660254 1.92000000 -0.17000000
v -0.08660254 1.92000000 0.17000000
v -0.10000000 1.87000000 -0.17000000
v -0.10000000 1.87000000 0.17000000
v -0.08660254 1.82000000 -0.17000000
v -0.08660254 1.82000000 0.17000000
v -0.05000000 1.78339746 -0.17000000
v -0.05000000 1.78339746 0.17000000
v -0.00000000 1.77000000 -0.17000000
v -0.00000000 1.77000000 0.17000000
v 0.05000000 1.78339746 -0.17000000
v 0.05000000 1.78339746 0.17000000
v 0.08660254 1.82000000 -0.17000000
v 0.08660254 1.82000000 0.17000000
v 0.35000000 1.87000000 -0.17000000
v 0.45000000 1.87000000 -0.17000000
v 0.45000000 1.87000000 0.17000000
v 0.35000000 1.87000000 0.17000000
v 0.43660254 1.92000000 -0.17000000
v 0.43660254 1.92000000 0.17000000
v 0.40000000 1.95660254 -0.17000000
v 0.40000000 1.95660254 0.17000000
v 0.35000000 1.97000000 -0.17000000
v 0.35000000 1.97000000 0.17000000
v 0.30000000 1.95660254 -0.17000000
v 0.30000000 1.95660254 0.17000000
v 0.26339746 1.92000000 -0.17000000
v 0.26339746 1.92000000 0.17000000
v 0.25000000 1.87000000 -0.17000000
v 0.25000000 1.87000000 0.17000000
v 0.26339746 1.82000000 -0.17000000
v 0.26339746 1.82000000 0.17000000
v 0.30000000 1.78339746 -0.17000000
v 0.30000000 1.78339746 0.17000000
v 0.35000000 1.77000000 -0.17000000
v 0.35000000 1.77000000 0.17000000
v 0.40000000 1.78339746 -0.17000000
v 0.40000000 1.78339746 0.17000000
v 0.43660254 1.82000000 -0.17000000
v 0.43660254 1.82000000 0.17000000
v -0.62000000 0.57500000 0.35500000
v -0.62000000 0.57500000 0.44500000
v -0.62000000 1.02500000 0.35500000
v -0.62000000 1.02500000 0.44500000
v -0.54000000 0.57500000 0.35500000
v -0.54000000 0.57500000 0.44500000
v -0.54000000 1.02500000 0.35500000
v -0.54000000 1.02500000 0.44500000
v 0.54000000 0.57500000 0.35500000
v 0.54000000 0.57500000 0.44500000
v 0.54000000 1.02500000 0.35500000
v 0.54000000 1.02500000 0.44500000
v 0.62000000 0.57500000 0.35500000
v 0.62000000 0.57500000 0.44500000
v 0.62000000 1.02500000 0.35500000
v 0.62000000 1.02500000 0.44500000
vn -0.57735027 -0.57735027 -0.57735027
vn -0.57735027 -0.57735027 0.57735027
vn -0.57735027 0.57735027 -0.57735027
vn -0.57735027 0.57735027 0.57735027
vn 0.57735027 -0.57735027 -0.57735027
vn 0.57735027 -0.57735027 0.57735027
vn 0.57735027 0.57735027 -0.57735027
vn 0.57735027 0.57735027 0.57735027
vn -0.57735027 -0.57735027 -0.57735027
vn -0.57735027 -0.57735027 0.57735027
vn -0.57735027 0.57735027 -0.57735027
vn -0.57735027 0.57735027 0.57735027
vn 0.57735027 -0.57735027 -0.57735027
vn 0.57735027 -0.57735027 0.57735027
vn 0.57735027 0.57735027 -0.57735027
vn 0.57735027 0.57735027 0.57735027
vn 0.00000000 0.00000000 -1.00000000
vn 0.75716233 -0.00000000 -0.65322677
vn 0.75716233 -0.00000000 0.65322677
vn 0.00000000 0.00000000 1.00000000
vn 0.65572181 0.37858116 -0.65322677
vn 0.65572181 0.37858116 0.65322677
vn 0.37858116 0.65572181 -0.65322677
vn 0.37858116 0.65572181 0.65322677
vn -0.00000000 0.75716233 -0.65322677
vn -0.00000000 0.75716233 0.65322677
vn -0.37858116 0.65572181 -0.65322677
vn -0.37858116 0.65572181 0.65322677
vn -0.65572181 0.37858116 -0.65322677
vn -0.65572181 0.37858116 0.65322677
vn -0.75716233 0.00000000 -0.65322677
vn -0.75716233 0.00000000 0.65322677
vn -0.65572181 -0.37858116 -0.65322677
vn -0.65572181 -0.37858116 0.65322677
vn -0.37858116 -0.65572181 -0.65322677
vn -0.37858116 -0.65572181 0.65322677
vn 0.00000000 -0.75716233 -0.65322677
vn 0.00000000 -0.75716233 0.65322677
vn 0.37858116 -0.65572181 -0.65322677
vn 0.37858116 -0.65572181 0.65322677
vn 0.65572181 -0.37858116 -0.65322677
vn 0.65572181 -0.37858116 0.65322677
vn 0.00000000 0.00000000 -1.00000000
vn 0.75716233 -0.00000000 -0.65322677
vn 0.75716233 -0.00000000 0.65322677
vn 0.00000000 0.00000000 1.00000000
vn 0.65572181 0.37858116 -0.65322677
vn 0.65572181 0.37858116 0.65322677
vn 0.37858116 0.65572181 -0.65322677
vn 0.37858116 0.65572181 0.65322677
vn -0.00000000 0.75716233 -0.65322677
vn -0.00000000 0.75716233 0.65322677
vn -0.37858116 0.65572181 -0.65322677
vn -0.37858116 0.65572181 0.65322677
vn -0.65572181 0.37858116 -0.65322677
vn -0.65572181 0.37858116 0.65322677
vn -0.75716233 0.00000000 -0.65322677
vn -0.75716233 0.00000000 0.65322677
vn -0.65572181 -0.37858116 -0.65322677
vn -0.65572181 -0.37858116 0.65322677
vn -0.37858116 -0.65572181 -0.65322677
vn -0.37858116 -0.65572181 0.65322677
vn 0.00000000 -0.75716233 -0.65322677
vn 0.00000000 -0.75716233 0.65322677
vn 0.37858116 -0.65572181 -0.65322677
vn 0.37858116 -0.65572181 0.65322677
vn 0.65572181 -0.37858116 -0.65322677
vn 0.65572181 -0.37858116 0.65322677
vn 0.00000000 0.00000000 -1.00000000
vn 0.75716233 -0.00000000 -0.65322677
vn 0.75716233 -0.00000000 0.65322677
vn 0.00000000 0.00000000 1.00000000
vn 0.65572181 0.37858116 -0.65322677
vn 0.65572181 0.37858116 0.65322677
vn 0.37858116 0.65572181 -0.65322677
vn 0.37858116 0.65572181 0.65322677
vn -0.00000000 0.75716233 -0.65322677
vn -0.00000000 0.75716233 0.65322677
vn -0.37858116 0.65572181 -0.65322677
vn -0.37858116 0.65572181 0.65322677
vn -0.65572181 0.37858116 -0.65322677
vn -0.65572181 0.37858116 0.65322677
vn -0.75716233 0.00000000 -0.65322677
vn -0.75716233 0.00000000 0.65322677
vn -0.65572181 -0.37858116 -0.65322677
vn -0.65572181 -0.37858116 0.65322677
vn -0.37858116 -0.65572181 -0.65322677
vn -0.37858116 -0.65572181 0.65322677
vn 0.00000000 -0.75716233 -0.65322677
vn 0.00000000 -0.75716233 0.65322677
vn 0.37858116 -0.65572181 -0.65322677
vn 0.37858116 -0.65572181 0.65322677
vn 0.65572181 -0.37858116 -0.65322677
vn 0.65572181 -0.37858116 0.65322677
vn -0.57735027 -0.57735027 -0.57735027
vn -0.57735027 -0.57735027 0.57735027
vn -0.57735027 0.57735027 -0.57735027
vn -0.57735027 0.57735027 0.57735027
vn 0.57735027 -0.57735027 -0.57735027
vn 0.57735027 -0.57735027 0.57735027
vn 0.57735027 0.57735027 -0.57735027
vn 0.57735027 0.57735027 0.57735027
vn -0.57735027 -0.57735027 -0.57735027
vn -0.57735027 -0.57735027 0.57735027
vn -0.57735027 0.57735027 -0.57735027
vn -0.57735027 0.57735027 0.57735027
vn 0.57735027 -0.57735027 -0.57735027
vn 0.57735027 -0.57735027 0.57735027
vn 0.57735027 0.57735027 -0.57735027
vn 0.57735027 0.57735027 0.57735027
f 2//2 4//4 1//1
f 5//5 2//2 1//1
f 1//1 4//4 3//3
f 3//3 5//5 1//1
f 2//2 8//8 4//4
f 6//6 2//2 5//5
f 6//6 8//8 2//2
f 4//4 8//8 3//3
f 7//7 5//5 3//3
f 3//3 8//8 7//7
f 7//7 6//6 5//5
f 8//8 6//6 7//7
f 10//10 12//12 9//9
f 13//13 10//10 9//9
f 9//9 12//12 11//11
f 11//11 13//13 9//9
f 10//10 16//16 12//12
f 14//14 10//10 13//13
f 14//14 16//16 10//10
f 12//12 16//16 11//11
f 15//15 13//13 11//11
f 11//11 16//16 15//15
f 15//15 14//14 13//13
f 16//16 14//14 15//15
f 18//18 17//17 21//21
f 18//18 21//21 19//19
f 19//19 21//21 22//22
f 19//19 22//22 20//20
f 21//21 17//17 23//23
f 21//21 23//23 22//22
f 22//22 23//23 24//24
f 22//22 24//24 20//20
f 23//23 17//17 25//25
f 23//23 25//25 24//24
f 24//24 25//25 26//26
f 24//24 26//26 20//20
f 25//25 17//17 27//27
f 25//25 27//27 26//26
f 26//26 27//27 28//28
f 26//26 28//28 20//20
f 27//27 17//17 29//29
f 27//27 29//29 28//28
f 28//28 29//29 30//30
f 28//28 30//30 20//20
f 29//29 17//17 31//31
f 29//29 31//31 30//30
f 30//30 31//31 32//32
f 30//30 32//32 20//20
f 31//31 17//17 33//33
f 31//31 33//33 32//32
f 32//32 33//33 34//34
f 32//32 34//34 20//20
f 33//33 17//17 35//35
f 33//33 35//35 34//34
f 34//34 35//35 36//36
f 34//34 36//36 20//20
f 35//35 17//17 37//37
f 35//35 37//37 36//36
f 36//36 37//37 38//38
f 36//36 38//38 20//20
f 37//37 17//17 39//39
f 37//37 39//39 38//38
f 38//38 39//39 40//40
f 38//38 40//40 20//20
f 39//39 17//17 41//41
f 39//39 41//41 40//40
f 40//40 41//41 42//42
f 40//40 42//42 20//20
f 41//41 17//17 18//18
f 41//41 18//18 42//42
f 42//42 18//18 19//19
f 42//42 19//19 20//20
f 44//44 43//43 47//47
f 44//44 47//47 45//45
f 45//45 47//47 48//48
f 45//45 48//48 46//46
f 47//47 43//43 49//49
f 47//47 49//49 48//48
f 48//48 49//49 50//50
f 48//48 50//50 46//46
f 49//49 43//43 51//51
f 49//49 51//51 50//50
f 50//50 51//51 52//52
f 50//50 52//52 46//46
f 51//51 43//43 53//53
f 51//51 53//53 52//52
f 52//52 53//53 54//54
f 52//52 54//54 46//46
f 53//53 43//43 55//55
f 53//53 55//55 54//54
f 54//54 55//55 56//56
f 54//54 56//56 46//46
f 55//55 43//43 57//57
f 55//55 57//57 56//56
f 56//56 57//57 58//58
f 56//56 58//58 46//46
f 57//57 43//43 59//59
f 57//57 59//59 58//58
f 58//58 59//59 60//60
f 58//58 60//60 46//46
f 59//59 43//43 61//61
f 59//59 61//61 60//60
f 60//60 61//61 62//62
f 60//60 62//62 46//46
f 61//61 43//43 63//63
f 61//61 63//63 62//62
f 62//62 63//63 64//64
f 62//62 64//64 46//46
f 63//63 43//43 65//65
f 63//63 65//65 64//64
f 64//64 65//65 66//66
f 64//64 66//66 46//46
f 65//65 43//43 67//67
f 65//65 67//67 66//66
f 66//66 67//67 68//68
f 66//66 68//68 46//46
f 67//67 43//43 44//44
f 67//67 44//44 68//68
f 68//68 44//44 45//45
f 68//68 45//45 46//46
f 70//70 69//69 73//73
f 70//70 73//73 71//71
f 71//71 73//73 74//74
f 71//71 74//74 72//72
f 73//73 69//69 75//75
f 73//73 75//75 74//74
f 74//74 75//75 76//76
f 74//74 76//76 72//72
f 75//75 69//69 77//77
f 75//75 77//77 76//76
f 76//76 77//77 78//78
f 76//76 78//78 72//72
f 77//77 69//69 79//79
f 77//77 79//79 78//78
f 78//78 79//79 80//80
f 78//78 80//80 72//72
f 79//79 69//69 81//81
f 79//79 81//81 80//80
f 80//80 81//81 82//82
f 80//80 82//82 72//72
f 81//81 69//69 83//83
f 81//81 83//83 82//82
f 82//82 83//83 84//84
f 82//82 84//84 72//72
f 83//83 69//69 85//85
f 83//83 85//85 84//84
f 84//84 85//85 86//86
f 84//84 86//86 72//72
f 85//85 69//69 87//87
f 85//85 87//87 86//86
f 86//86 87//87 88//88
f 86//86 88//88 72//72
f 87//87 69//69 89//89
f 87//87 89//89 88//88
f 88//88 89//89 90//90
f 88//88 90//90 72//72
f 89//89 69//69 91//91
f 89//89 91//91 90//90
f 90//90 91//91 92//92
f 90//90 92//92 72//72
f 91//91 69//69 93//93
f 91//91 93//93 92//92
f 92//92 93//93 94//94
f 92//92 94//94 72//72
f 93//93 69//69 70//70
f 93//93 70//70 94//94
f 94//94 70//70 71//71
f 94//94 71//71 72//72
f 96//96 98//98 95//95
f 99//99 96//96 95//95
f 95//95 98//98 97//97
f 97//97 99//99 95//95
f 96//96 102//102 98//98
f 100//100 96//96 99//99
f 100//100 102//102 96//96
f 98//98 102//102 97//97
f 101//101 99//99 97//97
f 97//97 102//102 101//101
f 101//101 100//100 99//99
f 102//102 100//100 101//101
f 104//104 106//106 103//103
f 107//107 104//104 103//103
f 103//103 106//106 105//105
f 105//105 107//107 103//103
f 104//104 110//110 106//106
f 108//108 104//104 107//107
f 108//108 110//110 104//104
f 106//106 110//110 105//105
f 109//109 107//107 105//105
f 105//105 110//110 109//109
f 109//109 108//108 107//107
f 110//110 108//108 109//109

