# https://github.com/mikedh/trimesh
v -1.22500000 0.17500000 -3.35000000
v -1.22500000 0.17500000 3.35000000
v -1.22500000 1.52500000 -3.35000000
v -1.22500000 1.52500000 3.35000000
v 1.22500000 0.17500000 -3.35000000
v 1.22500000 0.17500000 3.35000000
v 1.22500000 1.52500000 -3.35000000
v 1.22500000 1.52500000 3.35000000
v -1.19000000 1.43000000 -2.90000000
v -1.19000000 1.43000000 3.00000000
v -1.19000000 2.01000000 -2.90000000
v -1.19000000 2.01000000 3.00000000
v 1.19000000 1.43000000 -2.90000000
v 1.19000000 1.43000000 3.00000000
v 1.19000000 2.01000000 -2.90000000
v 1.19000000 2.01000000 3.00000000
v -1.16138734 2.00901885 -2.58000000
v -1.16138734 2.00901885 2.82000000
v -1.15788770 2.14897511 -2.58000000
v -1.15788770 2.14897511 2.82000000
v 1.15788770 1.95102489 -2.58000000
v 1.15788770 1.95102489 2.82000000
v 1.16138734 2.09098115 -2.58000000
v 1.16138734 2.09098115 2.82000000
v -1.20122661 0.31764149 -3.50000000
v -1.20122661 0.31764149 -3.22000000
v -1.21441869 0.53724561 -3.50000000
v -1.21441869 0.53724561 -3.22000000
v 1.21441869 0.46275439 -3.50000000
v 1.21441869 0.46275439 -3.22000000
v 1.20122661 0.68235851 -3.50000000
v 1.20122661 0.68235851 -3.22000000
v -1.21000000 0.42000000 3.26000000
v -1.21000000 0.42000000 3.50000000
v -1.21000000 0.62000000 3.26000000
v -1.21000000 0.62000000 3.50000000
v 1.21000000 0.42000000 3.26000000
v 1.21000000 0.42000000 3.50000000
v 1.21000000 0.62000000 3.26000000
v 1.21000000 0.62000000 3.50000000
v -1.28500000 0.71000000 -2.10000000
v -1.28500000 0.71000000 2.30000000
v -1.28500000 2.05000000 -2.10000000
v -1.28500000 2.05000000 2.30000000
v -1.19500000 0.71000000 -2.10000000
v -1.19500000 0.71000000 2.30000000
v -1.19500000 2.05000000 -2.10000000
v -1.19500000 2.05000000 2.30000000
v 1.21847277 0.70883565 -2.10000000
v 1.21847277 0.70883565 2.30000000
v 1.17158235 2.04801499 -2.10000000
v 1.17158235 2.04801499 2.30000000
v 1.30841765 0.71198501 -2.10000000
v 1.30841765 0.71198501 2.30000000
v 1.26152723 2.05116435 -2.10000000
v 1.26152723 2.05116435 2.30000000
v -1.10000000 1.52818524 -3.65085527
v -1.10000000 1.80454088 -2.68979983
v -1.10000000 1.59545912 -3.67020017
v -1.10000000 1.87181476 -2.70914473
v 1.10000000 1.52818524 -3.65085527
v 1.10000000 1.80454088 -2.68979983
v 1.10000000 1.59545912 -3.67020017
v 1.10000000 1.87181476 -2.70914473
v -1.38500000 0.50000000 -2.25000000
v -1.38500000 0.50000000 -2.73000000
v -1.15500000 0.50000000 -2.73000000
v -1.15500000 0.50000000 -2.25000000
v -1.38500000 0.64832816 -2.70650713
v -1.15500000 0.64832816 -2.70650713
v -1.38500000 0.78213692 -2.63832816
v -1.15500000 0.78213692 -2.63832816
v -1.38500000 0.88832816 -2.53213692
v -1.15500000 0.88832816 -2.53213692
v -1.38500000 0.95650713 -2.39832816
v -1.15500000 0.95650713 -2.39832816
v -1.38500000 0.98000000 -2.25000000
v -1.15500000 0.98000000 -2.25000000
v -1.38500000 0.95650713 -2.10167184
v -1.15500000 0.95650713 -2.10167184
v -1.38500000 0.88832816 -1.96786308
v -1.15500000 0.88832816 -1.96786308
v -1.38500000 0.78213692 -1.86167184
v -1.15500000 0.78213692 -1.86167184
v -1.38500000 0.64832816 -1.79349287
v -1.15500000 0.64832816 -1.79349287
v -1.38500000 0.50000000 -1.77000000
v -1.15500000 0.50000000 -1.77000000
v -1.38500000 0.35167184 -1.79349287
v -1.15500000 0.35167184 -1.79349287
v -1.38500000 0.21786308 -1.86167184
v -1.15500000 0.21786308 -1.86167184
v -1.38500000 0.11167184 -1.96786308
v -1.15500000 0.11167184 -1.96786308
v -1.38500000 0.04349287 -2.10167184
v -1.15500000 0.04349287 -2.10167184
v -1.38500000 0.02000000 -2.25000000
v -1.15500000 0.02000000 -2.25000000
v -1.38500000 0.04349287 -2.39832816
v -1.15500000 0.04349287 -2.39832816
v -1.38500000 0.11167184 -2.53213692
v -1.15500000 0.11167184 -2.53213692
v -1.38500000 0.21786308 -2.63832816
v -1.15500000 0.21786308 -2.63832816
v -1.38500000 0.35167184 -2.70650713
v -1.15500000 0.35167184 -2.70650713
v -1.39420000 0.50000000 -2.25000000
v -1.39420000 0.50000000 -2.51400000
v -1.14580000 0.50000000 -2.51400000
v -1.14580000 0.50000000 -2.25000000
v -1.39420000 0.61454531 -2.48785578
v -1.14580000 0.61454531 -2.48785578
v -1.39420000 0.70640351 -2.41460131
v -1.14580000 0.70640351 -2.41460131
v -1.39420000 0.75738097 -2.30874553
v -1.14580000 0.75738097 -2.30874553
v -1.39420000 0.75738097 -2.19125447
v -1.14580000 0.75738097 -2.19125447
v -1.39420000 0.70640351 -2.08539869
v -1.14580000 0.70640351 -2.08539869
v -1.39420000 0.61454531 -2.01214422
v -1.14580000 0.61454531 -2.01214422
v -1.39420000 0.50000000 -1.98600000
v -1.14580000 0.50000000 -1.98600000
v -1.39420000 0.38545469 -2.01214422
v -1.14580000 0.38545469 -2.01214422
v -1.39420000 0.29359649 -2.08539869
v -1.14580000 0.29359649 -2.08539869
v -1.39420000 0.24261903 -2.19125447
v -1.14580000 0.24261903 -2.19125447
v -1.39420000 0.24261903 -2.30874553
v -1.14580000 0.24261903 -2.30874553
v -1.39420000 0.29359649 -2.41460131
v -1.14580000 0.29359649 -2.41460131
v -1.39420000 0.38545469 -2.48785578
v -1.14580000 0.38545469 -2.48785578
v 1.15500000 0.50000000 -2.25000000
v 1.15500000 0.50000000 -2.73000000
v 1.38500000 0.50000000 -2.73000000
v 1.38500000 0.50000000 -2.25000000
v 1.15500000 0.64832816 -2.70650713
v 1.38500000 0.64832816 -2.70650713
v 1.15500000 0.78213692 -2.63832816
v 1.38500000 0.78213692 -2.63832816
v 1.15500000 0.88832816 -2.53213692
v 1.38500000 0.88832816 -2.53213692
v 1.15500000 0.95650713 -2.39832816
v 1.38500000 0.95650713 -2.39832816
v 1.15500000 0.98000000 -2.25000000
v 1.38500000 0.98000000 -2.25000000
v 1.15500000 0.95650713 -2.10167184
v 1.38500000 0.95650713 -2.10167184
v 1.15500000 0.88832816 -1.96786308
v 1.38500000 0.88832816 -1.96786308
v 1.15500000 0.78213692 -1.86167184
v 1.38500000 0.78213692 -1.86167184
v 1.15500000 0.64832816 -1.79349287
v 1.38500000 0.64832816 -1.79349287
v 1.15500000 0.50000000 -1.77000000
v 1.38500000 0.50000000 -1.77000000
v 1.15500000 0.35167184 -1.79349287
v 1.38500000 0.35167184 -1.79349287
v 1.15500000 0.21786308 -1.86167184
v 1.38500000 0.21786308 -1.86167184
v 1.15500000 0.11167184 -1.96786308
v 1.38500000 0.11167184 -1.96786308
v 1.15500000 0.04349287 -2.10167184
v 1.38500000 0.04349287 -2.10167184
v 1.15500000 0.02000000 -2.25000000
v 1.38500000 0.02000000 -2.25000000
v 1.15500000 0.04349287 -2.39832816
v 1.38500000 0.04349287 -2.39832816
v 1.15500000 0.11167184 -2.53213692
v 1.38500000 0.11167184 -2.53213692
v 1.15500000 0.21786308 -2.63832816
v 1.38500000 0.21786308 -2.63832816
v 1.15500000 0.35167184 -2.70650713
v 1.38500000 0.35167184 -2.70650713
v 1.14580000 0.50000000 -2.25000000
v 1.14580000 0.50000000 -2.51400000
v 1.39420000 0.50000000 -2.51400000
v 1.39420000 0.50000000 -2.25000000
v 1.14580000 0.61454531 -2.48785578
v 1.39420000 0.61454531 -2.48785578
v 1.14580000 0.70640351 -2.41460131
v 1.39420000 0.70640351 -2.41460131
v 1.14580000 0.75738097 -2.30874553
v 1.39420000 0.75738097 -2.30874553
v 1.14580000 0.75738097 -2.19125447
v 1.39420000 0.75738097 -2.19125447
v 1.14580000 0.70640351 -2.08539869
v 1.39420000 0.70640351 -2.08539869
v 1.14580000 0.61454531 -2.01214422
v 1.39420000 0.61454531 -2.01214422
v 1.14580000 0.50000000 -1.98600000
v 1.39420000 0.50000000 -1.98600000
v 1.14580000 0.38545469 -2.01214422
v 1.39420000 0.38545469 -2.01214422
v 1.14580000 0.29359649 -2.08539869
v 1.39420000 0.29359649 -2.08539869
v 1.14580000 0.24261903 -2.19125447
v 1.39420000 0.24261903 -2.19125447
v 1.14580000 0.24261903 -2.30874553
v 1.39420000 0.24261903 -2.30874553
v 1.14580000 0.29359649 -2.41460131
v 1.39420000 0.29359649 -2.41460131
v 1.14580000 0.38545469 -2.48785578
v 1.39420000 0.38545469 -2.48785578
v -1.38500000 0.50000000 2.25000000
v -1.38500000 0.50000000 1.77000000
v -1.15500000 0.50000000 1.77000000
v -1.15500000 0.50000000 2.25000000
v -1.38500000 0.64832816 1.79349287
v -1.15500000 0.64832816 1.79349287
v -1.38500000 0.78213692 1.86167184
v -1.15500000 0.78213692 1.86167184
v -1.38500000 0.88832816 1.96786308
v -1.15500000 0.88832816 1.96786308
v -1.38500000 0.95650713 2.10167184
v -1.15500000 0.95650713 2.10167184
v -1.38500000 0.98000000 2.25000000
v -1.15500000 0.98000000 2.25000000
v -1.38500000 0.95650713 2.39832816
v -1.15500000 0.95650713 2.39832816
v -1.38500000 0.88832816 2.53213692
v -1.15500000 0.88832816 2.53213692
v -1.38500000 0.78213692 2.63832816
v -1.15500000 0.78213692 2.63832816
v -1.38500000 0.64832816 2.70650713
v -1.15500000 0.64832816 2.70650713
v -1.38500000 0.50000000 2.73000000
v -1.15500000 0.50000000 2.73000000
v -1.38500000 0.35167184 2.70650713
v -1.15500000 0.35167184 2.70650713
v -1.38500000 0.21786308 2.63832816
v -1.15500000 0.21786308 2.63832816
v -1.38500000 0.11167184 2.53213692
v -1.15500000 0.11167184 2.53213692
v -1.38500000 0.04349287 2.39832816
v -1.15500000 0.04349287 2.39832816
v -1.38500000 0.02000000 2.25000000
v -1.15500000 0.02000000 2.25000000
v -1.38500000 0.04349287 2.10167184
v -1.15500000 0.04349287 2.10167184
v -1.38500000 0.11167184 1.96786308
v -1.15500000 0.11167184 1.96786308
v -1.38500000 0.21786308 1.86167184
v -1.15500000 0.21786308 1.86167184
v -1.38500000 0.35167184 1.79349287
v -1.15500000 0.35167184 1.79349287
v -1.39420000 0.50000000 2.25000000
v -1.39420000 0.50000000 1.98600000
v -1.14580000 0.50000000 1.98600000
v -1.14580000 0.50000000 2.25000000
v -1.39420000 0.61454531 2.01214422
v -1.14580000 0.61454531 2.01214422
v -1.39420000 0.70640351 2.08539869
v -1.14580000 0.70640351 2.08539869
v -1.39420000 0.75738097 2.19125447
v -1.14580000 0.75738097 2.19125447
v -1.39420000 0.75738097 2.30874553
v -1.14580000 0.75738097 2.30874553
v -1.39420000 0.70640351 2.41460131
v -1.14580000 0.70640351 2.41460131
v -1.39420000 0.61454531 2.48785578
v -1.14580000 0.61454531 2.48785578
v -1.39420000 0.50000000 2.51400000
v -1.14580000 0.50000000 2.51400000
v -1.39420000 0.38545469 2.48785578
v -1.14580000 0.38545469 2.48785578
v -1.39420000 0.29359649 2.41460131
v -1.14580000 0.29359649 2.41460131
v -1.39420000 0.24261903 2.30874553
v -1.14580000 0.24261903 2.30874553
v -1.39420000 0.24261903 2.19125447
v -1.14580000 0.24261903 2.19125447
v -1.39420000 0.29359649 2.08539869
v -1.14580000 0.29359649 2.08539869
v -1.39420000 0.38545469 2.01214422
v -1.14580000 0.38545469 2.01214422
v 1.15500000 0.50000000 2.25000000
v 1.15500000 0.50000000 1.77000000
v 1.38500000 0.50000000 1.77000000
v 1.38500000 0.50000000 2.25000000
v 1.15500000 0.64832816 1.79349287
v 1.38500000 0.64832816 1.79349287
v 1.15500000 0.78213692 1.86167184
v 1.38500000 0.78213692 1.86167184
v 1.15500000 0.88832816 1.96786308
v 1.38500000 0.88832816 1.96786308
v 1.15500000 0.95650713 2.10167184
v 1.38500000 0.95650713 2.10167184
v 1.15500000 0.98000000 2.25000000
v 1.38500000 0.98000000 2.25000000
v 1.15500000 0.95650713 2.39832816
v 1.38500000 0.95650713 2.39832816
v 1.15500000 0.88832816 2.53213692
v 1.38500000 0.88832816 2.53213692
v 1.15500000 0.78213692 2.63832816
v 1.38500000 0.78213692 2.63832816
v 1.15500000 0.64832816 2.70650713
v 1.38500000 0.64832816 2.70650713
v 1.15500000 0.50000000 2.73000000
v 1.38500000 0.50000000 2.73000000
v 1.15500000 0.35167184 2.70650713
v 1.38500000 0.35167184 2.70650713
v 1.15500000 0.21786308 2.63832816
v 1.38500000 0.21786308 2.63832816
v 1.15500000 0.11167184 2.53213692
v 1.38500000 0.11167184 2.53213692
v 1.15500000 0.04349287 2.39832816
v 1.38500000 0.04349287 2.39832816
v 1.15500000 0.02000000 2.25000000
v 1.38500000 0.02000000 2.25000000
v 1.15500000 0.04349287 2.10167184
v 1.38500000 0.04349287 2.10167184
v 1.15500000 0.11167184 1.96786308
v 1.38500000 0.11167184 1.96786308
v 1.15500000 0.21786308 1.86167184
v 1.38500000 0.21786308 1.86167184
v 1.15500000 0.35167184 1.79349287
v 1.38500000 0.35167184 1.79349287
v 1.14580000 0.50000000 2.25000000
v 1.14580000 0.50000000 1.98600000
v 1.39420000 0.50000000 1.98600000
v 1.39420000 0.50000000 2.25000000
v 1.14580000 0.61454531 2.01214422
v 1.39420000 0.61454531 2.01214422
v 1.14580000 0.70640351 2.08539869
v 1.39420000 0.70640351 2.08539869
v 1.14580000 0.75738097 2.19125447
v 1.39420000 0.75738097 2.19125447
v 1.14580000 0.75738097 2.30874553
v 1.39420000 0.75738097 2.30874553
v 1.14580000 0.70640351 2.41460131
v 1.39420000 0.70640351 2.41460131
v 1.14580000 0.61454531 2.48785578
v 1.39420000 0.61454531 2.48785578
v 1.14580000 0.50000000 2.51400000
v 1.39420000 0.50000000 2.51400000
v 1.14580000 0.38545469 2.48785578
v 1.39420000 0.38545469 2.48785578
v 1.14580000 0.29359649 2.41460131
v 1.39420000 0.29359649 2.41460131
v 1.14580000 0.24261903 2.30874553
v 1.39420000 0.24261903 2.30874553
v 1.14580000 0.24261903 2.19125447
v 1.39420000 0.24261903 2.19125447
v 1.14580000 0.29359649 2.08539869
v 1.39420000 0.29359649 2.08539869
v 1.14580000 0.38545469 2.01214422
v 1.39420000 0.38545469 2.01214422
v -1.24000000 1.62500000 -2.53500000
v -1.24000000 1.62500000 -2.46500000
v -1.24000000 1.69500000 -2.53500000
v -1.24000000 1.69500000 -2.46500000
v 1.24000000 1.62500000 -2.53500000
v 1.24000000 1.62500000 -2.46500000
v 1.24000000 1.69500000 -2.53500000
v 1.24000000 1.69500000 -2.46500000
v -1.24000000 1.62500000 -1.68500000
v -1.24000000 1.62500000 -1.61500000
v -1.24000000 1.69500000 -1.68500000
v -1.24000000 1.69500000 -1.61500000
v 1.24000000 1.62500000 -1.68500000
v 1.24000000 1.62500000 -1.61500000
v 1.24000000 1.69500000 -1.68500000
v 1.24000000 1.69500000 -1.61500000
v -1.24000000 1.62500000 -0.83500000
v -1.24000000 1.62500000 -0.76500000
v -1.24000000 1.69500000 -0.83500000
v -1.24000000 1.69500000 -0.76500000
v 1.24000000 1.62500000 -0.83500000
v 1.24000000 1.62500000 -0.76500000
v 1.24000000 1.69500000 -0.83500000
v 1.24000000 1.69500000 -0.76500000
v -1.24000000 1.62500000 0.01500000
v -1.24000000 1.62500000 0.08500000
v -1.24000000 1.69500000 0.01500000
v -1.24000000 1.69500000 0.08500000
v 1.24000000 1.62500000 0.01500000
v 1.24000000 1.62500000 0.08500000
v 1.24000000 1.69500000 0.01500000
v 1.24000000 1.69500000 0.08500000
v -1.24000000 1.62500000 0.86500000
v -1.24000000 1.62500000 0.93500000
v -1.24000000 1.69500000 0.86500000
v -1.24000000 1.69500000 0.93500000
v 1.24000000 1.62500000 0.86500000
v 1.24000000 1.62500000 0.93500000
v 1.24000000 1.69500000 0.86500000
v 1.24000000 1.69500000 0.93500000
v -1.24000000 1.62500000 1.71500000
v -1.24000000 1.62500000 1.78500000
v -1.24000000 1.69500000 1.71500000
v -1.24000000 1.69500000 1.78500000
v 1.24000000 1.62500000 1.71500000
v 1.24000000 1.62500000 1.78500000
v 1.24000000 1.69500000 1.71500000
v 1.24000000 1.69500000 1.78500000
v -1.24000000 1.62500000 2.56500000
v -1.24000000 1.62500000 2.63500000
v -1.24000000 1.69500000 2.56500000
v -1.24000000 1.69500000 2.63500000
v 1.24000000 1.62500000 2.56500000
v 1.24000000 1.62500000 2.63500000
v 1.24000000 1.69500000 2.56500000
v 1.24000000 1.69500000 2.63500000
v -0.05818747 0.47500000 -3.49530907
v 0.14907926 0.47500000 -2.77451750
v -0.05818747 0.82500000 -3.49530907
v 0.14907926 0.82500000 -2.77451750
v 0.95092074 0.47500000 -3.78548250
v 1.15818747 0.47500000 -3.06469093
v 0.95092074 0.82500000 -3.78548250
v 1.15818747 0.82500000 -3.06469093
v -1.60193004 0.61872531 -2.09000000
v -1.60193004 0.61872531 -1.21000000
v -1.19299351 1.85273135 -2.09000000
v -1.19299351 1.85273135 -1.21000000
v -1.50700649 0.58726865 -2.09000000
v -1.50700649 0.58726865 -1.21000000
v -1.09806996 1.82127469 -2.09000000
v -1.09806996 1.82127469 -1.21000000
vn -0.57735027 -0.57735027 -0.57735027
vn -0.57735027 -0.57735027 0.57735027
vn -0.57735027 0.57735027 -0.57735027
vn -0.57735027 0.57735027 0.57735027
vn 0.57735027 -0.57735027 -0.57735027
vn 0.57735027 -0.57735027 0.57735027
vn 0.57735027 0.57735027 -0.57735027
vn 0.57735027 0.57735027 0.57735027
vn -0.57735027 -0.57735027 -0.57735027
vn -0.57735027 -0.57735027 0.57735027
vn -0.57735027 0.57735027 -0.57735027
vn -0.57735027 0.57735027 0.57735027
vn 0.57735027 -0.57735027 -0.57735027
vn 0.57735027 -0.57735027 0.57735027
vn 0.57735027 0.57735027 -0.57735027
vn 0.57735027 0.57735027 0.57735027
vn -0.59160211 -0.56273760 -0.57735027
vn -0.59160211 -0.56273760 0.57735027
vn -0.56273760 0.59160211 -0.57735027
vn -0.56273760 0.59160211 0.57735027
vn 0.56273760 -0.59160211 -0.57735027
vn 0.56273760 -0.59160211 0.57735027
vn 0.59160211 0.56273760 -0.57735027
vn 0.59160211 0.56273760 0.57735027
vn -0.54169112 -0.61093159 -0.57735027
vn -0.54169112 -0.61093159 0.57735027
vn -0.61093159 0.54169112 -0.57735027
vn -0.61093159 0.54169112 0.57735027
vn 0.61093159 -0.54169112 -0.57735027
vn 0.61093159 -0.54169112 0.57735027
vn 0.54169112 0.61093159 -0.57735027
vn 0.54169112 0.61093159 0.57735027
vn -0.57735027 -0.57735027 -0.57735027
vn -0.57735027 -0.57735027 0.57735027
vn -0.57735027 0.57735027 -0.57735027
vn -0.57735027 0.57735027 0.57735027
vn 0.57735027 -0.57735027 -0.57735027
vn 0.57735027 -0.57735027 0.57735027
vn 0.57735027 0.57735027 -0.57735027
vn 0.57735027 0.57735027 0.57735027
vn -0.57735027 -0.57735027 -0.57735027
vn -0.57735027 -0.57735027 0.57735027
vn -0.57735027 0.57735027 -0.57735027
vn -0.57735027 0.57735027 0.57735027
vn 0.57735027 -0.57735027 -0.57735027
vn 0.57735027 -0.57735027 0.57735027
vn 0.57735027 0.57735027 -0.57735027
vn 0.57735027 0.57735027 0.57735027
vn -0.55679354 -0.59719981 -0.57735027
vn -0.55679354 -0.59719981 0.57735027
vn -0.59719981 0.55679354 -0.57735027
vn -0.59719981 0.55679354 0.57735027
vn 0.59719981 -0.55679354 -0.57735027
vn 0.59719981 -0.55679354 0.57735027
vn 0.55679354 0.59719981 -0.57735027
vn 0.55679354 0.59719981 0.57735027
vn -0.57735027 -0.71441962 -0.39531161
vn -0.57735027 -0.39531161 0.71441962
vn -0.57735027 0.39531161 -0.71441962
vn -0.57735027 0.71441962 0.39531161
vn 0.57735027 -0.71441962 -0.39531161
vn 0.57735027 -0.39531161 0.71441962
vn 0.57735027 0.39531161 -0.71441962
vn 0.57735027 0.71441962 0.39531161
vn -1.00000000 0.00000000 0.00000000
vn -0.67353341 0.00000000 -0.73915678
vn 0.67353341 0.00000000 -0.73915678
vn 1.00000000 0.00000000 0.00000000
vn -0.67353341 0.22841201 -0.70297987
vn 0.67353341 0.22841201 -0.70297987
vn -0.67353341 0.43446545 -0.59799039
vn 0.67353341 0.43446545 -0.59799039
vn -0.67353341 0.59799039 -0.43446545
vn 0.67353341 0.59799039 -0.43446545
vn -0.67353341 0.70297987 -0.22841201
vn 0.67353341 0.70297987 -0.22841201
vn -0.67353341 0.73915678 0.00000000
vn 0.67353341 0.73915678 0.00000000
vn -0.67353341 0.70297987 0.22841201
vn 0.67353341 0.70297987 0.22841201
vn -0.67353341 0.59799039 0.43446545
vn 0.67353341 0.59799039 0.43446545
vn -0.67353341 0.43446545 0.59799039
vn 0.67353341 0.43446545 0.59799039
vn -0.67353341 0.22841201 0.70297987
vn 0.67353341 0.22841201 0.70297987
vn -0.67353341 0.00000000 0.73915678
vn 0.67353341 0.00000000 0.73915678
vn -0.67353341 -0.22841201 0.70297987
vn 0.67353341 -0.22841201 0.70297987
vn -0.67353341 -0.43446545 0.59799039
vn 0.67353341 -0.43446545 0.59799039
vn -0.67353341 -0.59799039 0.43446545
vn 0.67353341 -0.59799039 0.43446545
vn -0.67353341 -0.70297987 0.22841201
vn 0.67353341 -0.70297987 0.22841201
vn -0.67353341 -0.73915678 0.00000000
vn 0.67353341 -0.73915678 0.00000000
vn -0.67353341 -0.70297987 -0.22841201
vn 0.67353341 -0.70297987 -0.22841201
vn -0.67353341 -0.59799039 -0.43446545
vn 0.67353341 -0.59799039 -0.43446545
vn -0.67353341 -0.43446545 -0.59799039
vn 0.67353341 -0.43446545 -0.59799039
vn -0.67353341 -0.22841201 -0.70297987
vn 0.67353341 -0.22841201 -0.70297987
vn -1.00000000 0.00000000 0.00000000
vn -0.66028325 0.00000000 -0.75101666
vn 0.66028325 0.00000000 -0.75101666
vn 1.00000000 0.00000000 0.00000000
vn -0.66028325 0.32585392 -0.67664263
vn 0.66028325 0.32585392 -0.67664263
vn -0.66028325 0.58716847 -0.46825123
vn 0.66028325 0.58716847 -0.46825123
vn -0.66028325 0.73218711 -0.16711693
vn 0.66028325 0.73218711 -0.16711693
vn -0.66028325 0.73218711 0.16711693
vn 0.66028325 0.73218711 0.16711693
vn -0.66028325 0.58716847 0.46825123
vn 0.66028325 0.58716847 0.46825123
vn -0.66028325 0.32585392 0.67664263
vn 0.66028325 0.32585392 0.67664263
vn -0.66028325 -0.00000000 0.75101666
vn 0.66028325 -0.00000000 0.75101666
vn -0.66028325 -0.32585392 0.67664263
vn 0.66028325 -0.32585392 0.67664263
vn -0.66028325 -0.58716847 0.46825123
vn 0.66028325 -0.58716847 0.46825123
vn -0.66028325 -0.73218711 0.16711693
vn 0.66028325 -0.73218711 0.16711693
vn -0.66028325 -0.73218711 -0.16711693
vn 0.66028325 -0.73218711 -0.16711693
vn -0.66028325 -0.58716847 -0.46825123
vn 0.66028325 -0.58716847 -0.46825123
vn -0.66028325 -0.32585392 -0.67664263
vn 0.66028325 -0.32585392 -0.67664263
vn -1.00000000 0.00000000 0.00000000
vn -0.67353341 0.00000000 -0.73915678
vn 0.67353341 0.00000000 -0.73915678
vn 1.00000000 0.00000000 0.00000000
vn -0.67353341 0.22841201 -0.70297987
vn 0.67353341 0.22841201 -0.70297987
vn -0.67353341 0.43446545 -0.59799039
vn 0.67353341 0.43446545 -0.59799039
vn -0.67353341 0.59799039 -0.43446545
vn 0.67353341 0.59799039 -0.43446545
vn -0.67353341 0.70297987 -0.22841201
vn 0.67353341 0.70297987 -0.22841201
vn -0.67353341 0.73915678 0.00000000
vn 0.67353341 0.73915678 0.00000000
vn -0.67353341 0.70297987 0.22841201
vn 0.67353341 0.70297987 0.22841201
vn -0.67353341 0.59799039 0.43446545
vn 0.67353341 0.59799039 0.43446545
vn -0.67353341 0.43446545 0.59799039
vn 0.67353341 0.43446545 0.59799039
vn -0.67353341 0.22841201 0.70297987
vn 0.67353341 0.22841201 0.70297987
vn -0.67353341 0.00000000 0.73915678
vn 0.67353341 0.00000000 0.73915678
vn -0.67353341 -0.22841201 0.70297987
vn 0.67353341 -0.22841201 0.70297987
vn -0.67353341 -0.43446545 0.59799039
vn 0.67353341 -0.43446545 0.59799039
vn -0.67353341 -0.59799039 0.43446545
vn 0.67353341 -0.59799039 0.43446545
vn -0.67353341 -0.70297987 0.22841201
vn 0.67353341 -0.70297987 0.22841201
vn -0.67353341 -0.73915678 0.00000000
vn 0.67353341 -0.73915678 0.00000000
vn -0.67353341 -0.70297987 -0.22841201
vn 0.67353341 -0.70297987 -0.22841201
vn -0.67353341 -0.59799039 -0.43446545
vn 0.67353341 -0.59799039 -0.43446545
vn -0.67353341 -0.43446545 -0.59799039
vn 0.67353341 -0.43446545 -0.59799039
vn -0.67353341 -0.22841201 -0.70297987
vn 0.67353341 -0.22841201 -0.70297987
vn -1.00000000 0.00000000 0.00000000
vn -0.66028325 0.00000000 -0.75101666
vn 0.66028325 0.00000000 -0.75101666
vn 1.00000000 0.00000000 0.00000000
vn -0.66028325 0.32585392 -0.67664263
vn 0.66028325 0.32585392 -0.67664263
vn -0.66028325 0.58716847 -0.46825123
vn 0.66028325 0.58716847 -0.46825123
vn -0.66028325 0.73218711 -0.16711693
vn 0.66028325 0.73218711 -0.16711693
vn -0.66028325 0.73218711 0.16711693
vn 0.66028325 0.73218711 0.16711693
vn -0.66028325 0.58716847 0.46825123
vn 0.66028325 0.58716847 0.46825123
vn -0.66028325 0.32585392 0.67664263
vn 0.66028325 0.32585392 0.67664263
vn -0.66028325 -0.00000000 0.75101666
vn 0.66028325 -0.00000000 0.75101666
vn -0.66028325 -0.32585392 0.67664263
vn 0.66028325 -0.32585392 0.67664263
vn -0.66028325 -0.58716847 0.46825123
vn 0.66028325 -0.58716847 0.46825123
vn -0.66028325 -0.73218711 0.16711693
vn 0.66028325 -0.73218711 0.16711693
vn -0.66028325 -0.73218711 -0.16711693
vn 0.66028325 -0.73218711 -0.16711693
vn -0.66028325 -0.58716847 -0.46825123
vn 0.66028325 -0.58716847 -0.46825123
vn -0.66028325 -0.32585392 -0.67664263
vn 0.66028325 -0.32585392 -0.67664263
vn -1.00000000 0.00000000 0.00000000
vn -0.67353341 0.00000000 -0.73915678
vn 0.67353341 0.00000000 -0.73915678
vn 1.00000000 0.00000000 0.00000000
vn -0.67353341 0.22841201 -0.70297987
vn 0.67353341 0.22841201 -0.70297987
vn -0.67353341 0.43446545 -0.59799039
vn 0.67353341 0.43446545 -0.59799039
vn -0.67353341 0.59799039 -0.43446545
vn 0.67353341 0.59799039 -0.43446545
vn -0.67353341 0.70297987 -0.22841201
vn 0.67353341 0.70297987 -0.22841201
vn -0.67353341 0.73915678 0.00000000
vn 0.67353341 0.73915678 0.00000000
vn -0.67353341 0.70297987 0.22841201
vn 0.67353341 0.70297987 0.22841201
vn -0.67353341 0.59799039 0.43446545
vn 0.67353341 0.59799039 0.43446545
vn -0.67353341 0.43446545 0.59799039
vn 0.67353341 0.43446545 0.59799039
vn -0.67353341 0.22841201 0.70297987
vn 0.67353341 0.22841201 0.70297987
vn -0.67353341 0.00000000 0.73915678
vn 0.67353341 0.00000000 0.73915678
vn -0.67353341 -0.22841201 0.70297987
vn 0.67353341 -0.22841201 0.70297987
vn -0.67353341 -0.43446545 0.59799039
vn 0.67353341 -0.43446545 0.59799039
vn -0.67353341 -0.59799039 0.43446545
vn 0.67353341 -0.59799039 0.43446545
vn -0.67353341 -0.70297987 0.22841201
vn 0.67353341 -0.70297987 0.22841201
vn -0.67353341 -0.73915678 0.00000000
vn 0.67353341 -0.73915678 0.00000000
vn -0.67353341 -0.70297987 -0.22841201
vn 0.67353341 -0.70297987 -0.22841201
vn -0.67353341 -0.59799039 -0.43446545
vn 0.67353341 -0.59799039 -0.43446545
vn -0.67353341 -0.43446545 -0.59799039
vn 0.67353341 -0.43446545 -0.59799039
vn -0.67353341 -0.22841201 -0.70297987
vn 0.67353341 -0.22841201 -0.70297987
vn -1.00000000 0.00000000 0.00000000
vn -0.66028325 0.00000000 -0.75101666
vn 0.66028325 0.00000000 -0.75101666
vn 1.00000000 0.00000000 0.00000000
vn -0.66028325 0.32585392 -0.67664263
vn 0.66028325 0.32585392 -0.67664263
vn -0.66028325 0.58716847 -0.46825123
vn 0.66028325 0.58716847 -0.46825123
vn -0.66028325 0.73218711 -0.16711693
vn 0.66028325 0.73218711 -0.16711693
vn -0.66028325 0.73218711 0.16711693
vn 0.66028325 0.73218711 0.16711693
vn -0.66028325 0.58716847 0.46825123
vn 0.66028325 0.58716847 0.46825123
vn -0.66028325 0.32585392 0.67664263
vn 0.66028325 0.32585392 0.67664263
vn -0.66028325 -0.00000000 0.75101666
vn 0.66028325 -0.00000000 0.75101666
vn -0.66028325 -0.32585392 0.67664263
vn 0.66028325 -0.32585392 0.67664263
vn -0.66028325 -0.58716847 0.46825123
vn 0.66028325 -0.58716847 0.46825123
vn -0.66028325 -0.73218711 0.16711693
vn 0.66028325 -0.73218711 0.16711693
vn -0.66028325 -0.73218711 -0.16711693
vn 0.66028325 -0.73218711 -0.16711693
vn -0.66028325 -0.58716847 -0.46825123
vn 0.66028325 -0.58716847 -0.46825123
vn -0.66028325 -0.32585392 -0.67664263
vn 0.66028325 -0.32585392 -0.67664263
vn -1.00000000 0.00000000 0.00000000
vn -0.67353341 0.00000000 -0.73915678
vn 0.67353341 0.00000000 -0.73915678
vn 1.00000000 0.00000000 0.00000000
vn -0.67353341 0.22841201 -0.70297987
vn 0.67353341 0.22841201 -0.70297987
vn -0.67353341 0.43446545 -0.59799039
vn 0.67353341 0.43446545 -0.59799039
vn -0.67353341 0.59799039 -0.43446545
vn 0.67353341 0.59799039 -0.43446545
vn -0.67353341 0.70297987 -0.22841201
vn 0.67353341 0.70297987 -0.22841201
vn -0.67353341 0.73915678 0.00000000
vn 0.67353341 0.73915678 0.00000000
vn -0.67353341 0.70297987 0.22841201
vn 0.67353341 0.70297987 0.22841201
vn -0.67353341 0.59799039 0.43446545
vn 0.67353341 0.59799039 0.43446545
vn -0.67353341 0.43446545 0.59799039
vn 0.67353341 0.43446545 0.59799039
vn -0.67353341 0.22841201 0.70297987
vn 0.67353341 0.22841201 0.70297987
vn -0.67353341 0.00000000 0.73915678
vn 0.67353341 0.00000000 0.73915678
vn -0.67353341 -0.22841201 0.70297987
vn 0.67353341 -0.22841201 0.70297987
vn -0.67353341 -0.43446545 0.59799039
vn 0.67353341 -0.43446545 0.59799039
vn -0.67353341 -0.59799039 0.43446545
vn 0.67353341 -0.59799039 0.43446545
vn -0.67353341 -0.70297987 0.22841201
vn 0.67353341 -0.70297987 0.22841201
vn -0.67353341 -0.73915678 0.00000000
vn 0.67353341 -0.73915678 0.00000000
vn -0.67353341 -0.70297987 -0.22841201
vn 0.67353341 -0.70297987 -0.22841201
vn -0.67353341 -0.59799039 -0.43446545
vn 0.67353341 -0.59799039 -0.43446545
vn -0.67353341 -0.43446545 -0.59799039
vn 0.67353341 -0.43446545 -0.59799039
vn -0.67353341 -0.22841201 -0.70297987
vn 0.67353341 -0.22841201 -0.70297987
vn -1.00000000 0.00000000 0.00000000
vn -0.66028325 0.00000000 -0.75101666
vn 0.66028325 0.00000000 -0.75101666
vn 1.00000000 0.00000000 0.00000000
vn -0.66028325 0.32585392 -0.67664263
vn 0.66028325 0.32585392 -0.67664263
vn -0.66028325 0.58716847 -0.46825123
vn 0.66028325 0.58716847 -0.46825123
vn -0.66028325 0.73218711 -0.16711693
vn 0.66028325 0.73218711 -0.16711693
vn -0.66028325 0.73218711 0.16711693
vn 0.66028325 0.73218711 0.16711693
vn -0.66028325 0.58716847 0.46825123
vn 0.66028325 0.58716847 0.46825123
vn -0.66028325 0.32585392 0.67664263
vn 0.66028325 0.32585392 0.67664263
vn -0.66028325 -0.00000000 0.75101666
vn 0.66028325 -0.00000000 0.75101666
vn -0.66028325 -0.32585392 0.67664263
vn 0.66028325 -0.32585392 0.67664263
vn -0.66028325 -0.58716847 0.46825123
vn 0.66028325 -0.58716847 0.46825123
vn -0.66028325 -0.73218711 0.16711693
vn 0.66028325 -0.73218711 0.16711693
vn -0.66028325 -0.73218711 -0.16711693
vn 0.66028325 -0.73218711 -0.16711693
vn -0.66028325 -0.58716847 -0.46825123
vn 0.66028325 -0.58716847 -0.46825123
vn -0.66028325 -0.32585392 -0.67664263
vn 0.66028325 -0.32585392 -0.67664263
vn -0.57735027 -0.57735027 -0.57735027
vn -0.57735027 -0.57735027 0.57735027
vn -0.57735027 0.57735027 -0.57735027
vn -0.57735027 0.57735027 0.57735027
vn 0.57735027 -0.57735027 -0.57735027
vn 0.57735027 -0.57735027 0.57735027
vn 0.57735027 0.57735027 -0.57735027
vn 0.57735027 0.57735027 0.57735027
vn -0.57735027 -0.57735027 -0.57735027
vn -0.57735027 -0.57735027 0.57735027
vn -0.57735027 0.57735027 -0.57735027
vn -0.57735027 0.57735027 0.57735027
vn 0.57735027 -0.57735027 -0.57735027
vn 0.57735027 -0.57735027 0.57735027
vn 0.57735027 0.57735027 -0.57735027
vn 0.57735027 0.57735027 0.57735027
vn -0.57735027 -0.57735027 -0.57735027
vn -0.57735027 -0.57735027 0.57735027
vn -0.57735027 0.57735027 -0.57735027
vn -0.57735027 0.57735027 0.57735027
vn 0.57735027 -0.57735027 -0.57735027
vn 0.57735027 -0.57735027 0.57735027
vn 0.57735027 0.57735027 -0.57735027
vn 0.57735027 0.57735027 0.57735027
vn -0.57735027 -0.57735027 -0.57735027
vn -0.57735027 -0.57735027 0.57735027
vn -0.57735027 0.57735027 -0.57735027
vn -0.57735027 0.57735027 0.57735027
vn 0.57735027 -0.57735027 -0.57735027
vn 0.57735027 -0.57735027 0.57735027
vn 0.57735027 0.57735027 -0.57735027
vn 0.57735027 0.57735027 0.57735027
vn -0.57735027 -0.57735027 -0.57735027
vn -0.57735027 -0.57735027 0.57735027
vn -0.57735027 0.57735027 -0.57735027
vn -0.57735027 0.57735027 0.57735027
vn 0.57735027 -0.57735027 -0.57735027
vn 0.57735027 -0.57735027 0.57735027
vn 0.57735027 0.57735027 -0.57735027
vn 0.57735027 0.57735027 0.57735027
vn -0.57735027 -0.57735027 -0.57735027
vn -0.57735027 -0.57735027 0.57735027
vn -0.57735027 0.57735027 -0.57735027
vn -0.57735027 0.57735027 0.57735027
vn 0.57735027 -0.57735027 -0.57735027
vn 0.57735027 -0.57735027 0.57735027
vn 0.57735027 0.57735027 -0.57735027
vn 0.57735027 0.57735027 0.57735027
vn -0.57735027 -0.57735027 -0.57735027
vn -0.57735027 -0.57735027 0.57735027
vn -0.57735027 0.57735027 -0.57735027
vn -0.57735027 0.57735027 0.57735027
vn 0.57735027 -0.57735027 -0.57735027
vn 0.57735027 -0.57735027 0.57735027
vn 0.57735027 0.57735027 -0.57735027
vn 0.57735027 0.57735027 0.57735027
vn -0.71441962 -0.57735027 -0.39531161
vn -0.39531161 -0.57735027 0.71441962
vn -0.71441962 0.57735027 -0.39531161
vn -0.39531161 0.57735027 0.71441962
vn 0.39531161 -0.57735027 -0.71441962
vn 0.71441962 -0.57735027 0.39531161
vn 0.39531161 0.57735027 -0.71441962
vn 0.71441962 0.57735027 0.39531161
vn -0.72965641 -0.36642624 -0.57735027
vn -0.72965641 -0.36642624 0.57735027
vn -0.36642624 0.72965641 -0.57735027
vn -0.36642624 0.72965641 0.57735027
vn 0.36642624 -0.72965641 -0.57735027
vn 0.36642624 -0.72965641 0.57735027
vn 0.72965641 0.36642624 -0.57735027
vn 0.72965641 0.36642624 0.57735027
f 2//2 4//4 1//1
f 5//5 2//2 1//1
f 1//1 4//4 3//3
f 3//3 5//5 1//1
f 2//2 8//8 4//4
f 6//6 2//2 5//5
f 6//6 8//8 2//2
f 4//4 8//8 3//3
f 7//7 5//5 3//3
f 3//3 8//8 7//7
f 7//7 6//6 5//5
f 8//8 6//6 7//7
f 10//10 12//12 9//9
f 13//13 10//10 9//9
f 9//9 12//12 11//11
f 11//11 13//13 9//9
f 10//10 16//16 12//12
f 14//14 10//10 13//13
f 14//14 16//16 10//10
f 12//12 16//16 11//11
f 15//15 13//13 11//11
f 11//11 16//16 15//15
f 15//15 14//14 13//13
f 16//16 14//14 15//15
f 18//18 20//20 17//17
f 21//21 18//18 17//17
f 17//17 20//20 19//19
f 19//19 21//21 17//17
f 18//18 24//24 20//20
f 22//22 18//18 21//21
f 22//22 24//24 18//18
f 20//20 24//24 19//19
f 23//23 21//21 19//19
f 19//19 24//24 23//23
f 23//23 22//22 21//21
f 24//24 22//22 23//23
f 26//26 28//28 25//25
f 29//29 26//26 25//25
f 25//25 28//28 27//27
f 27//27 29//29 25//25
f 26//26 32//32 28//28
f 30//30 26//26 29//29
f 30//30 32//32 26//26
f 28//28 32//32 27//27
f 31//31 29//29 27//27
f 27//27 32//32 31//31
f 31//31 30//30 29//29
f 32//32 30//30 31//31
f 34//34 36//36 33//33
f 37//37 34//34 33//33
f 33//33 36//36 35//35
f 35//35 37//37 33//33
f 34//34 40//40 36//36
f 38//38 34//34 37//37
f 38//38 40//40 34//34
f 36//36 40//40 35//35
f 39//39 37//37 35//35
f 35//35 40//40 39//39
f 39//39 38//38 37//37
f 40//40 38//38 39//39
f 42//42 44//44 41//41
f 45//45 42//42 41//41
f 41//41 44//44 43//43
f 43//43 45//45 41//41
f 42//42 48//48 44//44
f 46//46 42//42 45//45
f 46//46 48//48 42//42
f 44//44 48//48 43//43
f 47//47 45//45 43//43
f 43//43 48//48 47//47
f 47//47 46//46 45//45
f 48//48 46//46 47//47
f 50//50 52//52 49//49
f 53//53 50//50 49//49
f 49//49 52//52 51//51
f 51//51 53//53 49//49
f 50//50 56//56 52//52
f 54//54 50//50 53//53
f 54//54 56//56 50//50
f 52//52 56//56 51//51
f 55//55 53//53 51//51
f 51//51 56//56 55//55
f 55//55 54//54 53//53
f 56//56 54//54 55//55
f 58//58 60//60 57//57
f 61//61 58//58 57//57
f 57//57 60//60 59//59
f 59//59 61//61 57//57
f 58//58 64//64 60//60
f 62//62 58//58 61//61
f 62//62 64//64 58//58
f 60//60 64//64 59//59
f 63//63 61//61 59//59
f 59//59 64//64 63//63
f 63//63 62//62 61//61
f 64//64 62//62 63//63
f 66//66 65//65 69//69
f 66//66 69//69 67//67
f 67//67 69//69 70//70
f 67//67 70//70 68//68
f 69//69 65//65 71//71
f 69//69 71//71 70//70
f 70//70 71//71 72//72
f 70//70 72//72 68//68
f 71//71 65//65 73//73
f 71//71 73//73 72//72
f 72//72 73//73 74//74
f 72//72 74//74 68//68
f 73//73 65//65 75//75
f 73//73 75//75 74//74
f 74//74 75//75 76//76
f 74//74 76//76 68//68
f 75//75 65//65 77//77
f 75//75 77//77 76//76
f 76//76 77//77 78//78
f 76//76 78//78 68//68
f 77//77 65//65 79//79
f 77//77 79//79 78//78
f 78//78 79//79 80//80
f 78//78 80//80 68//68
f 79//79 65//65 81//81
f 79//79 81//81 80//80
f 80//80 81//81 82//82
f 80//80 82//82 68//68
f 81//81 65//65 83//83
f 81//81 83//83 82//82
f 82//82 83//83 84//84
f 82//82 84//84 68//68
f 83//83 65//65 85//85
f 83//83 85//85 84//84
f 84//84 85//85 86//86
f 84//84 86//86 68//68
f 85//85 65//65 87//87
f 85//85 87//87 86//86
f 86//86 87//87 88//88
f 86//86 88//88 68//68
f 87//87 65//65 89//89
f 87//87 89//89 88//88
f 88//88 89//89 90//90
f 88//88 90//90 68//68
f 89//89 65//65 91//91
f 89//89 91//91 90//90
f 90//90 91//91 92//92
f 90//90 92//92 68//68
f 91//91 65//65 93//93
f 91//91 93//93 92//92
f 92//92 93//93 94//94
f 92//92 94//94 68//68
f 93//93 65//65 95//95
f 93//93 95//95 94//94
f 94//94 95//95 96//96
f 94//94 96//96 68//68
f 95//95 65//65 97//97
f 95//95 97//97 96//96
f 96//96 97//97 98//98
f 96//96 98//98 68//68
f 97//97 65//65 99//99
f 97//97 99//99 98//98
f 98//98 99//99 100//100
f 98//98 100//100 68//68
f 99//99 65//65 101//101
f 99//99 101//101 100//100
f 100//100 101//101 102//102
f 100//100 102//102 68//68
f 101//101 65//65 103//103
f 101//101 103//103 102//102
f 102//102 103//103 104//104
f 102//102 104//104 68//68
f 103//103 65//65 105//105
f 103//103 105//105 104//104
f 104//104 105//105 106//106
f 104//104 106//106 68//68
f 105//105 65//65 66//66
f 105//105 66//66 106//106
f 106//106 66//66 67//67
f 106//106 67//67 68//68
f 108//108 107//107 111//111
f 108//108 111//111 109//109
f 109//109 111//111 112//112
f 109//109 112//112 110//110
f 111//111 107//107 113//113
f 111//111 113//113 112//112
f 112//112 113//113 114//114
f 112//112 114//114 110//110
f 113//113 107//107 115//115
f 113//113 115//115 114//114
f 114//114 115//115 116//116
f 114//114 116//116 110//110
f 115//115 107//107 117//117
f 115//115 117//117 116//116
f 116//116 117//117 118//118
f 116//116 118//118 110//110
f 117//117 107//107 119//119
f 117//117 119//119 118//118
f 118//118 119//119 120//120
f 118//118 120//120 110//110
f 119//119 107//107 121//121
f 119//119 121//121 120//120
f 120//120 121//121 122//122
f 120//120 122//122 110//110
f 121//121 107//107 123//123
f 121//121 123//123 122//122
f 122//122 123//123 124//124
f 122//122 124//124 110//110
f 123//123 107//107 125//125
f 123//123 125//125 124//124
f 124//124 125//125 126//126
f 124//124 126//126 110//110
f 125//125 107//107 127//127
f 125//125 127//127 126//126
f 126//126 127//127 128//128
f 126//126 128//128 110//110
f 127//127 107//107 129//129
f 127//127 129//129 128//128
f 128//128 129//129 130//130
f 128//128 130//130 110//110
f 129//129 107//107 131//131
f 129//129 131//131 130//130
f 130//130 131//131 132//132
f 130//130 132//132 110//110
f 131//131 107//107 133//133
f 131//131 133//133 132//132
f 132//132 133//133 134//134
f 132//132 134//134 110//110
f 133//133 107//107 135//135
f 133//133 135//135 134//134
f 134//134 135//135 136//136
f 134//134 136//136 110//110
f 135//135 107//107 108//108
f 135//135 108//108 136//136
f 136//136 108//108 109//109
f 136//136 109//109 110//110
f 138//138 137//137 141//141
f 138//138 141//141 139//139
f 139//139 141//141 142//142
f 139//139 142//142 140//140
f 141//141 137//137 143//143
f 141//141 143//143 142//142
f 142//142 143//143 144//144
f 142//142 144//144 140//140
f 143//143 137//137 145//145
f 143//143 145//145 144//144
f 144//144 145//145 146//146
f 144//144 146//146 140//140
f 145//145 137//137 147//147
f 145//145 147//147 146//146
f 146//146 147//147 148//148
f 146//146 148//148 140//140
f 147//147 137//137 149//149
f 147//147 149//149 148//148
f 148//148 149//149 150//150
f 148//148 150//150 140//140
f 149//149 137//137 151//151
f 149//149 151//151 150//150
f 150//150 151//151 152//152
f 150//150 152//152 140//140
f 151//151 137//137 153//153
f 151//151 153//153 152//152
f 152//152 153//153 154//154
f 152//152 154//154 140//140
f 153//153 137//137 155//155
f 153//153 155//155 154//154
f 154//154 155//155 156//156
f 154//154 156//156 140//140
f 155//155 137//137 157//157
f 155//155 157//157 156//156
f 156//156 157//157 158//158
f 156//156 158//158 140//140
f 157//157 137//137 159//159
f 157//157 159//159 158//158
f 158//158 159//159 160//160
f 158//158 160//160 140//140
f 159//159 137//137 161//161
f 159//159 161//161 160//160
f 160//160 161//161 162//162
f 160//160 162//162 140//140
f 161//161 137//137 163//163
f 161//161 163//163 162//162
f 162//162 163//163 164//164
f 162//162 164//164 140//140
f 163//163 137//137 165//165
f 163//163 165//165 164//164
f 164//164 165//165 166//166
f 164//164 166//166 140//140
f 165//165 137//137 167//167
f 165//165 167//167 166//166
f 166//166 167//167 168//168
f 166//166 168//168 140//140
f 167//167 137//137 169//169
f 167//167 169//169 168//168
f 168//168 169//169 170//170
f 168//168 170//170 140//140
f 169//169 137//137 171//171
f 169//169 171//171 170//170
f 170//170 171//171 172//172
f 170//170 172//172 140//140
f 171//171 137//137 173//173
f 171//171 173//173 172//172
f 172//172 173//173 174//174
f 172//172 174//174 140//140
f 173//173 137//137 175//175
f 173//173 175//175 174//174
f 174//174 175//175 176//176
f 174//174 176//176 140//140
f 175//175 137//137 177//177
f 175//175 177//177 176//176
f 176//176 177//177 178//178
f 176//176 178//178 140//140
f 177//177 137//137 138//138
f 177//177 138//138 178//178
f 178//178 138//138 139//139
f 178//178 139//139 140//140
f 180//180 179//179 183//183
f 180//180 183//183 181//181
f 181//181 183//183 184//184
f 181//181 184//184 182//182
f 183//183 179//179 185//185
f 183//183 185//185 184//184
f 184//184 185//185 186//186
f 184//184 186//186 182//182
f 185//185 179//179 187//187
f 185//185 187//187 186//186
f 186//186 187//187 188//188
f 186//186 188//188 182//182
f 187//187 179//179 189//189
f 187//187 189//189 188//188
f 188//188 189//189 190//190
f 188//188 190//190 182//182
f 189//189 179//179 191//191
f 189//189 191//191 190//190
f 190//190 191//191 192//192
f 190//190 192//192 182//182
f 191//191 179//179 193//193
f 191//191 193//193 192//192
f 192//192 193//193 194//194
f 192//192 194//194 182//182
f 193//193 179//179 195//195
f 193//193 195//195 194//194
f 194//194 195//195 196//196
f 194//194 196//196 182//182
f 195//195 179//179 197//197
f 195//195 197//197 196//196
f 196//196 197//197 198//198
f 196//196 198//198 182//182
f 197//197 179//179 199//199
f 197//197 199//199 198//198
f 198//198 199//199 200//200
f 198//198 200//200 182//182
f 199//199 179//179 201//201
f 199//199 201//201 200//200
f 200//200 201//201 202//202
f 200//200 202//202 182//182
f 201//201 179//179 203//203
f 201//201 203//203 202//202
f 202//202 203//203 204//204
f 202//202 204//204 182//182
f 203//203 179//179 205//205
f 203//203 205//205 204//204
f 204//204 205//205 206//206
f 204//204 206//206 182//182
f 205//205 179//179 207//207
f 205//205 207//207 206//206
f 206//206 207//207 208//208
f 206//206 208//208 182//182
f 207//207 179//179 180//180
f 207//207 180//180 208//208
f 208//208 180//180 181//181
f 208//208 181//181 182//182
f 210//210 209//209 213//213
f 210//210 213//213 211//211
f 211//211 213//213 214//214
f 211//211 214//214 212//212
f 213//213 209//209 215//215
f 213//213 215//215 214//214
f 214//214 215//215 216//216
f 214//214 216//216 212//212
f 215//215 209//209 217//217
f 215//215 217//217 216//216
f 216//216 217//217 218//218
f 216//216 218//218 212//212
f 217//217 209//209 219//219
f 217//217 219//219 218//218
f 218//218 219//219 220//220
f 218//218 220//220 212//212
f 219//219 209//209 221//221
f 219//219 221//221 220//220
f 220//220 221//221 222//222
f 220//220 222//222 212//212
f 221//221 209//209 223//223
f 221//221 223//223 222//222
f 222//222 223//223 224//224
f 222//222 224//224 212//212
f 223//223 209//209 225//225
f 223//223 225//225 224//224
f 224//224 225//225 226//226
f 224//224 226//226 212//212
f 225//225 209//209 227//227
f 225//225 227//227 226//226
f 226//226 227//227 228//228
f 226//226 228//228 212//212
f 227//227 209//209 229//229
f 227//227 229//229 228//228
f 228//228 229//229 230//230
f 228//228 230//230 212//212
f 229//229 209//209 231//231
f 229//229 231//231 230//230
f 230//230 231//231 232//232
f 230//230 232//232 212//212
f 231//231 209//209 233//233
f 231//231 233//233 232//232
f 232//232 233//233 234//234
f 232//232 234//234 212//212
f 233//233 209//209 235//235
f 233//233 235//235 234//234
f 234//234 235//235 236//236
f 234//234 236//236 212//212
f 235//235 209//209 237//237
f 235//235 237//237 236//236
f 236//236 237//237 238//238
f 236//236 238//238 212//212
f 237//237 209//209 239//239
f 237//237 239//239 238//238
f 238//238 239//239 240//240
f 238//238 240//240 212//212
f 239//239 209//209 241//241
f 239//239 241//241 240//240
f 240//240 241//241 242//242
f 240//240 242//242 212//212
f 241//241 209//209 243//243
f 241//241 243//243 242//242
f 242//242 243//243 244//244
f 242//242 244//244 212//212
f 243//243 209//209 245//245
f 243//243 245//245 244//244
f 244//244 245//245 246//246
f 244//244 246//246 212//212
f 245//245 209//209 247//247
f 245//245 247//247 246//246
f 246//246 247//247 248//248
f 246//246 248//248 212//212
f 247//247 209//209 249//249
f 247//247 249//249 248//248
f 248//248 249//249 250//250
f 248//248 250//250 212//212
f 249//249 209//209 210//210
f 249//249 210//210 250//250
f 250//250 210//210 211//211
f 250//250 211//211 212//212
f 252//252 251//251 255//255
f 252//252 255//255 253//253
f 253//253 255//255 256//256
f 253//253 256//256 254//254
f 255//255 251//251 257//257
f 255//255 257//257 256//256
f 256//256 257//257 258//258
f 256//256 258//258 254//254
f 257//257 251//251 259//259
f 257//257 259//259 258//258
f 258//258 259//259 260//260
f 258//258 260//260 254//254
f 259//259 251//251 261//261
f 259//259 261//261 260//260
f 260//260 261//261 262//262
f 260//260 262//262 254//254
f 261//261 251//251 263//263
f 261//261 263//263 262//262
f 262//262 263//263 264//264
f 262//262 264//264 254//254
f 263//263 251//251 265//265
f 263//263 265//265 264//264
f 264//264 265//265 266//266
f 264//264 266//266 254//254
f 265//265 251//251 267//267
f 265//265 267//267 266//266
f 266//266 267//267 268//268
f 266//266 268//268 254//254
f 267//267 251//251 269//269
f 267//267 269//269 268//268
f 268//268 269//269 270//270
f 268//268 270//270 254//254
f 269//269 251//251 271//271
f 269//269 271//271 270//270
f 270//270 271//271 272//272
f 270//270 272//272 254//254
f 271//271 251//251 273//273
f 271//271 273//273 272//272
f 272//272 273//273 274//274
f 272//272 274//274 254//254
f 273//273 251//251 275//275
f 273//273 275//275 274//274
f 274//274 275//275 276//276
f 274//274 276//276 254//254
f 275//275 251//251 277//277
f 275//275 277//277 276//276
f 276//276 277//277 278//278
f 276//276 278//278 254//254
f 277//277 251//251 279//279
f 277//277 279//279 278//278
f 278//278 279//279 280//280
f 278//278 280//280 254//254
f 279//279 251//251 252//252
f 279//279 252//252 280//280
f 280//280 252//252 253//253
f 280//280 253//253 254//254
f 282//282 281//281 285//285
f 282//282 285//285 283//283
f 283//283 285//285 286//286
f 283//283 286//286 284//284
f 285//285 281//281 287//287
f 285//285 287//287 286//286
f 286//286 287//287 288//288
f 286//286 288//288 284//284
f 287//287 281//281 289//289
f 287//287 289//289 288//288
f 288//288 289//289 290//290
f 288//288 290//290 284//284
f 289//289 281//281 291//291
f 289//289 291//291 290//290
f 290//290 291//291 292//292
f 290//290 292//292 284//284
f 291//291 281//281 293//293
f 291//291 293//293 292//292
f 292//292 293//293 294//294
f 292//292 294//294 284//284
f 293//293 281//281 295//295
f 293//293 295//295 294//294
f 294//294 295//295 296//296
f 294//294 296//296 284//284
f 295//295 281//281 297//297
f 295//295 297//297 296//296
f 296//296 297//297 298//298
f 296//296 298//298 284//284
f 297//297 281//281 299//299
f 297//297 299//299 298//298
f 298//298 299//299 300//300
f 298//298 300//300 284//284
f 299//299 281//281 301//301
f 299//299 301//301 300//300
f 300//300 301//301 302//302
f 300//300 302//302 284//284
f 301//301 281//281 303//303
f 301//301 303//303 302//302
f 302//302 303//303 304//304
f 302//302 304//304 284//284
f 303//303 281//281 305//305
f 303//303 305//305 304//304
f 304//304 305//305 306//306
f 304//304 306//306 284//284
f 305//305 281//281 307//307
f 305//305 307//307 306//306
f 306//306 307//307 308//308
f 306//306 308//308 284//284
f 307//307 281//281 309//309
f 307//307 309//309 308//308
f 308//308 309//309 310//310
f 308//308 310//310 284//284
f 309//309 281//281 311//311
f 309//309 311//311 310//310
f 310//310 311//311 312//312
f 310//310 312//312 284//284
f 311//311 281//281 313//313
f 311//311 313//313 312//312
f 312//312 313//313 314//314
f 312//312 314//314 284//284
f 313//313 281//281 315//315
f 313//313 315//315 314//314
f 314//314 315//315 316//316
f 314//314 316//316 284//284
f 315//315 281//281 317//317
f 315//315 317//317 316//316
f 316//316 317//317 318//318
f 316//316 318//318 284//284
f 317//317 281//281 319//319
f 317//317 319//319 318//318
f 318//318 319//319 320//320
f 318//318 320//320 284//284
f 319//319 281//281 321//321
f 319//319 321//321 320//320
f 320//320 321//321 322//322
f 320//320 322//322 284//284
f 321//321 281//281 282//282
f 321//321 282//282 322//322
f 322//322 282//282 283//283
f 322//322 283//283 284//284
f 324//324 323//323 327//327
f 324//324 327//327 325//325
f 325//325 327//327 328//328
f 325//325 328//328 326//326
f 327//327 323//323 329//329
f 327//327 329//329 328//328
f 328//328 329//329 330//330
f 328//328 330//330 326//326
f 329//329 323//323 331//331
f 329//329 331//331 330//330
f 330//330 331//331 332//332
f 330//330 332//332 326//326
f 331//331 323//323 333//333
f 331//331 333//333 332//332
f 332//332 333//333 334//334
f 332//332 334//334 326//326
f 333//333 323//323 335//335
f 333//333 335//335 334//334
f 334//334 335//335 336//336
f 334//334 336//336 326//326
f 335//335 323//323 337//337
f 335//335 337//337 336//336
f 336//336 337//337 338//338
f 336//336 338//338 326//326
f 337//337 323//323 339//339
f 337//337 339//339 338//338
f 338//338 339//339 340//340
f 338//338 340//340 326//326
f 339//339 323//323 341//341
f 339//339 341//341 340//340
f 340//340 341//341 342//342
f 340//340 342//342 326//326
f 341//341 323//323 343//343
f 341//341 343//343 342//342
f 342//342 343//343 344//344
f 342//342 344//344 326//326
f 343//343 323//323 345//345
f 343//343 345//345 344//344
f 344//344 345//345 346//346
f 344//344 346//346 326//326
f 345//345 323//323 347//347
f 345//345 347//347 346//346
f 346//346 347//347 348//348
f 346//346 348//348 326//326
f 347//347 323//323 349//349
f 347//347 349//349 348//348
f 348//348 349//349 350//350
f 348//348 350//350 326//326
f 349//349 323//323 351//351
f 349//349 351//351 350//350
f 350//350 351//351 352//352
f 350//350 352//352 326//326
f 351//351 323//323 324//324
f 351//351 324//324 352//352
f 352//352 324//324 325//325
f 352//352 325//325 326//326
f 354//354 356//356 353//353
f 357//357 354//354 353//353
f 353//353 356//356 355//355
f 355//355 357//357 353//353
f 354//354 360//360 356//356
f 358//358 354//354 357//357
f 358//358 360//360 354//354
f 356//356 360//360 355//355
f 359//359 357//357 355//355
f 355//355 360//360 359//359
f 359//359 358//358 357//357
f 360//360 358//358 359//359
f 362//362 364//364 361//361
f 365//365 362//362 361//361
f 361//361 364//364 363//363
f 363//363 365//365 361//361
f 362//362 368//368 364//364
f 366//366 362//362 365//365
f 366//366 368//368 362//362
f 364//364 368//368 363//363
f 367//367 365//365 363//363
f 363//363 368//368 367//367
f 367//367 366//366 365//365
f 368//368 366//366 367//367
f 370//370 372//372 369//369
f 373//373 370//370 369//369
f 369//369 372//372 371//371
f 371//371 373//373 369//369
f 370//370 376//376 372//372
f 374//374 370//370 373//373
f 374//374 376//376 370//370
f 372//372 376//376 371//371
f 375//375 373//373 371//371
f 371//371 376//376 375//375
f 375//375 374//374 373//373
f 376//376 374//374 375//375
f 378//378 380//380 377//377
f 381//381 378//378 377//377
f 377//377 380//380 379//379
f 379//379 381//381 377//377
f 378//378 384//384 380//380
f 382//382 378//378 381//381
f 382//382 384//384 378//378
f 380//380 384//384 379//379
f 383//383 381//381 379//379
f 379//379 384//384 383//383
f 383//383 382//382 381//381
f 384//384 382//382 383//383
f 386//386 388//388 385//385
f 389//389 386//386 385//385
f 385//385 388//388 387//387
f 387//387 389//389 385//385
f 386//386 392//392 388//388
f 390//390 386//386 389//389
f 390//390 392//392 386//386
f 388//388 392//392 387//387
f 391//391 389//389 387//387
f 387//387 392//392 391//391
f 391//391 390//390 389//389
f 392//392 390//390 391//391
f 394//394 396//396 393//393
f 397//397 394//394 393//393
f 393//393 396//396 395//395
f 395//395 397//397 393//393
f 394//394 400//400 396//396
f 398//398 394//394 397//397
f 398//398 400//400 394//394
f 396//396 400//400 395//395
f 399//399 397//397 395//395
f 395//395 400//400 399//399
f 399//399 398//398 397//397
f 400//400 398//398 399//399
f 402//402 404//404 401//401
f 405//405 402//402 401//401
f 401//401 404//404 403//403
f 403//403 405//405 401//401
f 402//402 408//408 404//404
f 406//406 402//402 405//405
f 406//406 408//408 402//402
f 404//404 408//408 403//403
f 407//407 405//405 403//403
f 403//403 408//408 407//407
f 407//407 406//406 405//405
f 408//408 406//406 407//407
f 410//410 412//412 409//409
f 413//413 410//410 409//409
f 409//409 412//412 411//411
f 411//411 413//413 409//409
f 410//410 416//416 412//412
f 414//414 410//410 413//413
f 414//414 416//416 410//410
f 412//412 416//416 411//411
f 415//415 413//413 411//411
f 411//411 416//416 415//415
f 415//415 414//414 413//413
f 416//416 414//414 415//415
f 418//418 420//420 417//417
f 421//421 418//418 417//417
f 417//417 420//420 419//419
f 419//419 421//421 417//417
f 418//418 424//424 420//420
f 422//422 418//418 421//421
f 422//422 424//424 418//418
f 420//420 424//424 419//419
f 423//423 421//421 419//419
f 419//419 424//424 423//423
f 423//423 422//422 421//421
f 424//424 422//422 423//423

