# https://github.com/mikedh/trimesh
v -0.88346929 0.10383649 -1.71000000
v -0.88346929 0.10383649 1.71000000
v -0.89592911 0.52365163 -1.71000000
v -0.89592911 0.52365163 1.71000000
v 0.87575607 0.15604908 -1.71000000
v 0.87575607 0.15604908 1.71000000
v 0.86329624 0.57586422 -1.71000000
v 0.86329624 0.57586422 1.71000000
v -0.85351734 0.44298417 -1.59436145
v -0.85482231 0.48695308 -0.49524133
v -0.86122440 0.70266186 -1.60475867
v -0.86252936 0.74663076 -0.50563855
v 0.82574322 0.49282346 -1.59436145
v 0.82443825 0.53679237 -0.49524133
v 0.81803617 0.75250115 -1.60475867
v 0.81673120 0.79647005 -0.50563855
v -0.83461416 0.48023642 0.80724717
v -0.83403573 0.46074704 1.58700343
v -0.84143526 0.71006335 0.81299657
v -0.84085683 0.69057397 1.59275283
v 0.80466401 0.52888906 0.80724717
v 0.80524244 0.50939968 1.58700343
v 0.79784291 0.75871599 0.81299657
v 0.79842134 0.73922661 1.59275283
v -0.76583800 0.52251044 -0.65000000
v -0.76583800 0.52251044 0.85000000
v -0.78571438 1.19221555 -0.65000000
v -0.78571438 1.19221555 0.85000000
v 0.73350179 0.56700981 -0.65000000
v 0.73350179 0.56700981 0.85000000
v 0.71362541 1.23671491 -0.65000000
v 0.71362541 1.23671491 0.85000000
v -0.76144179 0.71147035 -0.95010180
v -0.77471438 1.15867051 -0.32341539
v -0.76337337 0.77655197 -0.99658461
v -0.77664596 1.22375213 -0.36989820
v 0.71790680 0.75537639 -0.95010180
v 0.70463421 1.20257655 -0.32341539
v 0.71597522 0.82045801 -0.99658461
v 0.70270263 1.26765817 -0.36989820
v -0.76204305 1.06881215 0.54714025
v -0.75228836 0.74014251 1.04901784
v -0.76402822 1.13569971 0.59098216
v -0.75427354 0.80703007 1.09285975
v 0.69731435 1.11212486 0.54714025
v 0.70706904 0.78345523 1.04901784
v 0.69532917 1.17901242 0.59098216
v 0.70508386 0.85034278 1.09285975
v -0.74850482 1.11828688 -0.27000000
v -0.74850482 1.11828688 0.47000000
v -0.75147144 1.21824286 -0.27000000
v -0.75147144 1.21824286 0.47000000
v 0.68086578 1.16070961 -0.27000000
v 0.68086578 1.16070961 0.47000000
v 0.67789916 1.26066559 -0.27000000
v 0.67789916 1.26066559 0.47000000
v -0.91404941 0.12293770 -1.78000000
v -0.91404941 0.12293770 -1.62000000
v -0.91820268 0.26287608 -1.78000000
v -0.91820268 0.26287608 -1.62000000
v 0.90514954 0.17693026 -1.78000000
v 0.90514954 0.17693026 -1.62000000
v 0.90099626 0.31686864 -1.78000000
v 0.90099626 0.31686864 -1.62000000
v -0.91404941 0.12293770 1.62000000
v -0.91404941 0.12293770 1.78000000
v -0.91820268 0.26287608 1.62000000
v -0.91820268 0.26287608 1.78000000
v 0.90514954 0.17693026 1.62000000
v 0.90514954 0.17693026 1.78000000
v 0.90099626 0.31686864 1.62000000
v 0.90099626 0.31686864 1.78000000
v -0.94462953 0.14203891 -1.05000000
v -0.94462953 0.14203891 1.25000000
v -0.94937613 0.30196848 -1.05000000
v -0.94937613 0.30196848 1.25000000
v -0.84467354 0.14500553 -1.05000000
v -0.84467354 0.14500553 1.25000000
v -0.84942014 0.30493511 -1.05000000
v -0.84942014 0.30493511 1.25000000
v 0.83458702 0.19484482 -1.05000000
v 0.83458702 0.19484482 1.25000000
v 0.82984042 0.35477440 -1.05000000
v 0.82984042 0.35477440 1.25000000
v 0.93454301 0.19781145 -1.05000000
v 0.93454301 0.19781145 1.25000000
v 0.92979641 0.35774102 -1.05000000
v 0.92979641 0.35774102 1.25000000
v -1.00667976 0.21022812 -1.10000000
v -1.00667976 0.21022812 -1.43000000
v -0.82675898 0.21556805 -1.43000000
v -0.82675898 0.21556805 -1.10000000
v -1.00970499 0.31215885 -1.41384865
v -0.82978422 0.31749877 -1.41384865
v -1.01243409 0.40411188 -1.36697561
v -0.83251332 0.40945181 -1.36697561
v -1.01459992 0.47708622 -1.29396913
v -0.83467915 0.48242615 -1.29396913
v -1.01599047 0.52393864 -1.20197561
v -0.83606969 0.52927856 -1.20197561
v -1.01646962 0.54008288 -1.10000000
v -0.83654884 0.54542280 -1.10000000
v -1.01599047 0.52393864 -0.99802439
v -0.83606969 0.52927856 -0.99802439
v -1.01459992 0.47708622 -0.90603087
v -0.83467915 0.48242615 -0.90603087
v -1.01243409 0.40411188 -0.83302439
v -0.83251332 0.40945181 -0.83302439
v -1.00970499 0.31215885 -0.78615135
v -0.82978422 0.31749877 -0.78615135
v -1.00667976 0.21022812 -0.77000000
v -0.82675898 0.21556805 -0.77000000
v -1.00365453 0.10829740 -0.78615135
v -0.82373375 0.11363732 -0.78615135
v -1.00092542 0.01634436 -0.83302439
v -0.82100465 0.02168429 -0.83302439
v -0.99875960 -0.05662998 -0.90603087
v -0.81883882 -0.05129006 -0.90603087
v -0.99736905 -0.10348239 -0.99802439
v -0.81744827 -0.09814247 -0.99802439
v -0.99688990 -0.11962663 -1.10000000
v -0.81696912 -0.11428671 -1.10000000
v -0.99736905 -0.10348239 -1.20197561
v -0.81744827 -0.09814247 -1.20197561
v -0.99875960 -0.05662998 -1.29396913
v -0.81883882 -0.05129006 -1.29396913
v -1.00092542 0.01634436 -1.36697561
v -0.82100465 0.02168429 -1.36697561
v -1.00365453 0.10829740 -1.41384865
v -0.82373375 0.11363732 -1.41384865
v -1.01667536 0.20993146 -1.10000000
v -1.01667536 0.20993146 -1.27000000
v -0.81676339 0.21586471 -1.27000000
v -0.81676339 0.21586471 -1.10000000
v -1.01860533 0.27495901 -1.25705952
v -0.81869336 0.28089226 -1.25705952
v -1.02024148 0.33008670 -1.22020815
v -0.82032951 0.33601995 -1.22020815
v -1.02133472 0.36692185 -1.16505618
v -0.82142275 0.37285510 -1.16505618
v -1.02171862 0.37985664 -1.10000000
v -0.82180665 0.38578988 -1.10000000
v -1.02133472 0.36692185 -1.03494382
v -0.82142275 0.37285510 -1.03494382
v -1.02024148 0.33008670 -0.97979185
v -0.82032951 0.33601995 -0.97979185
v -1.01860533 0.27495901 -0.94294048
v -0.81869336 0.28089226 -0.94294048
v -1.01667536 0.20993146 -0.93000000
v -0.81676339 0.21586471 -0.93000000
v -1.01474538 0.14490391 -0.94294048
v -0.81483341 0.15083716 -0.94294048
v -1.01310923 0.08977622 -0.97979185
v -0.81319726 0.09570946 -0.97979185
v -1.01201599 0.05294107 -1.03494382
v -0.81210402 0.05887432 -1.03494382
v -1.01163210 0.04000628 -1.10000000
v -0.81172012 0.04593953 -1.10000000
v -1.01201599 0.05294107 -1.16505618
v -0.81210402 0.05887432 -1.16505618
v -1.01310923 0.08977622 -1.22020815
v -0.81319726 0.09570946 -1.22020815
v -1.01474538 0.14490391 -1.25705952
v -0.81483341 0.15083716 -1.25705952
v -1.00667976 0.21022812 1.12000000
v -1.00667976 0.21022812 0.79000000
v -0.82675898 0.21556805 0.79000000
v -0.82675898 0.21556805 1.12000000
v -1.00970499 0.31215885 0.80615135
v -0.82978422 0.31749877 0.80615135
v -1.01243409 0.40411188 0.85302439
v -0.83251332 0.40945181 0.85302439
v -1.01459992 0.47708622 0.92603087
v -0.83467915 0.48242615 0.92603087
v -1.01599047 0.52393864 1.01802439
v -0.83606969 0.52927856 1.01802439
v -1.01646962 0.54008288 1.12000000
v -0.83654884 0.54542280 1.12000000
v -1.01599047 0.52393864 1.22197561
v -0.83606969 0.52927856 1.22197561
v -1.01459992 0.47708622 1.31396913
v -0.83467915 0.48242615 1.31396913
v -1.01243409 0.40411188 1.38697561
v -0.83251332 0.40945181 1.38697561
v -1.00970499 0.31215885 1.43384865
v -0.82978422 0.31749877 1.43384865
v -1.00667976 0.21022812 1.45000000
v -0.82675898 0.21556805 1.45000000
v -1.00365453 0.10829740 1.43384865
v -0.82373375 0.11363732 1.43384865
v -1.00092542 0.01634436 1.38697561
v -0.82100465 0.02168429 1.38697561
v -0.99875960 -0.05662998 1.31396913
v -0.81883882 -0.05129006 1.31396913
v -0.99736905 -0.10348239 1.22197561
v -0.81744827 -0.09814247 1.22197561
v -0.99688990 -0.11962663 1.12000000
v -0.81696912 -0.11428671 1.12000000
v -0.99736905 -0.10348239 1.01802439
v -0.81744827 -0.09814247 1.01802439
v -0.99875960 -0.05662998 0.92603087
v -0.81883882 -0.05129006 0.92603087
v -1.00092542 0.01634436 0.85302439
v -0.82100465 0.02168429 0.85302439
v -1.00365453 0.10829740 0.80615135
v -0.82373375 0.11363732 0.80615135
v -1.01667536 0.20993146 1.12000000
v -1.01667536 0.20993146 0.95000000
v -0.81676339 0.21586471 0.95000000
v -0.81676339 0.21586471 1.12000000
v -1.01860533 0.27495901 0.96294048
v -0.81869336 0.28089226 0.96294048
v -1.02024148 0.33008670 0.99979185
v -0.82032951 0.33601995 0.99979185
v -1.02133472 0.36692185 1.05494382
v -0.82142275 0.37285510 1.05494382
v -1.02171862 0.37985664 1.12000000
v -0.82180665 0.38578988 1.12000000
v -1.02133472 0.36692185 1.18505618
v -0.82142275 0.37285510 1.18505618
v -1.02024148 0.33008670 1.24020815
v -0.82032951 0.33601995 1.24020815
v -1.01860533 0.27495901 1.27705952
v -0.81869336 0.28089226 1.27705952
v -1.01667536 0.20993146 1.29000000
v -0.81676339 0.21586471 1.29000000
v -1.01474538 0.14490391 1.27705952
v -0.81483341 0.15083716 1.27705952
v -1.01310923 0.08977622 1.24020815
v -0.81319726 0.09570946 1.24020815
v -1.01201599 0.05294107 1.18505618
v -0.81210402 0.05887432 1.18505618
v -1.01163210 0.04000628 1.12000000
v -0.81172012 0.04593953 1.12000000
v -1.01201599 0.05294107 1.05494382
v -0.81210402 0.05887432 1.05494382
v -1.01310923 0.08977622 0.99979185
v -0.81319726 0.09570946 0.99979185
v -1.01474538 0.14490391 0.96294048
v -0.81483341 0.15083716 0.96294048
v 0.81251919 0.26422069 -1.10000000
v 0.81251919 0.26422069 -1.43000000
v 0.99243996 0.26956061 -1.43000000
v 0.99243996 0.26956061 -1.10000000
v 0.80949395 0.36615141 -1.41384865
v 0.98941473 0.37149134 -1.41384865
v 0.80676485 0.45810445 -1.36697561
v 0.98668563 0.46344437 -1.36697561
v 0.80459902 0.53107879 -1.29396913
v 0.98451980 0.53641871 -1.29396913
v 0.80320848 0.57793120 -1.20197561
v 0.98312925 0.58327112 -1.20197561
v 0.80272933 0.59407544 -1.10000000
v 0.98265010 0.59941536 -1.10000000
v 0.80320848 0.57793120 -0.99802439
v 0.98312925 0.58327112 -0.99802439
v 0.80459902 0.53107879 -0.90603087
v 0.98451980 0.53641871 -0.90603087
v 0.80676485 0.45810445 -0.83302439
v 0.98668563 0.46344437 -0.83302439
v 0.80949395 0.36615141 -0.78615135
v 0.98941473 0.37149134 -0.78615135
v 0.81251919 0.26422069 -0.77000000
v 0.99243996 0.26956061 -0.77000000
v 0.81554442 0.16228996 -0.78615135
v 0.99546519 0.16762989 -0.78615135
v 0.81827352 0.07033693 -0.83302439
v 0.99819430 0.07567685 -0.83302439
v 0.82043935 -0.00263741 -0.90603087
v 1.00036013 0.00270251 -0.90603087
v 0.82182990 -0.04948983 -0.99802439
v 1.00175067 -0.04414990 -0.99802439
v 0.82230905 -0.06563407 -1.10000000
v 1.00222982 -0.06029414 -1.10000000
v 0.82182990 -0.04948983 -1.20197561
v 1.00175067 -0.04414990 -1.20197561
v 0.82043935 -0.00263741 -1.29396913
v 1.00036013 0.00270251 -1.29396913
v 0.81827352 0.07033693 -1.36697561
v 0.99819430 0.07567685 -1.36697561
v 0.81554442 0.16228996 -1.41384865
v 0.99546519 0.16762989 -1.41384865
v 0.80252359 0.26392402 -1.10000000
v 0.80252359 0.26392402 -1.27000000
v 1.00243556 0.26985727 -1.27000000
v 1.00243556 0.26985727 -1.10000000
v 0.80059362 0.32895157 -1.25705952
v 1.00050559 0.33488482 -1.25705952
v 0.79895746 0.38407927 -1.22020815
v 0.99886944 0.39001252 -1.22020815
v 0.79786422 0.42091442 -1.16505618
v 0.99777619 0.42684767 -1.16505618
v 0.79748033 0.43384920 -1.10000000
v 0.99739230 0.43978245 -1.10000000
v 0.79786422 0.42091442 -1.03494382
v 0.99777619 0.42684767 -1.03494382
v 0.79895746 0.38407927 -0.97979185
v 0.99886944 0.39001252 -0.97979185
v 0.80059362 0.32895157 -0.94294048
v 1.00050559 0.33488482 -0.94294048
v 0.80252359 0.26392402 -0.93000000
v 1.00243556 0.26985727 -0.93000000
v 0.80445356 0.19889647 -0.94294048
v 1.00436553 0.20482972 -0.94294048
v 0.80608971 0.14376878 -0.97979185
v 1.00600168 0.14970203 -0.97979185
v 0.80718295 0.10693363 -1.03494382
v 1.00709493 0.11286688 -1.03494382
v 0.80756685 0.09399885 -1.10000000
v 1.00747882 0.09993210 -1.10000000
v 0.80718295 0.10693363 -1.16505618
v 1.00709493 0.11286688 -1.16505618
v 0.80608971 0.14376878 -1.22020815
v 1.00600168 0.14970203 -1.22020815
v 0.80445356 0.19889647 -1.25705952
v 1.00436553 0.20482972 -1.25705952
v 0.81251919 0.26422069 1.12000000
v 0.81251919 0.26422069 0.79000000
v 0.99243996 0.26956061 0.79000000
v 0.99243996 0.26956061 1.12000000
v 0.80949395 0.36615141 0.80615135
v 0.98941473 0.37149134 0.80615135
v 0.80676485 0.45810445 0.85302439
v 0.98668563 0.46344437 0.85302439
v 0.80459902 0.53107879 0.92603087
v 0.98451980 0.53641871 0.92603087
v 0.80320848 0.57793120 1.01802439
v 0.98312925 0.58327112 1.01802439
v 0.80272933 0.59407544 1.12000000
v 0.98265010 0.59941536 1.12000000
v 0.80320848 0.57793120 1.22197561
v 0.98312925 0.58327112 1.22197561
v 0.80459902 0.53107879 1.31396913
v 0.98451980 0.53641871 1.31396913
v 0.80676485 0.45810445 1.38697561
v 0.98668563 0.46344437 1.38697561
v 0.80949395 0.36615141 1.43384865
v 0.98941473 0.37149134 1.43384865
v 0.81251919 0.26422069 1.45000000
v 0.99243996 0.26956061 1.45000000
v 0.81554442 0.16228996 1.43384865
v 0.99546519 0.16762989 1.43384865
v 0.81827352 0.07033693 1.38697561
v 0.99819430 0.07567685 1.38697561
v 0.82043935 -0.00263741 1.31396913
v 1.00036013 0.00270251 1.31396913
v 0.82182990 -0.04948983 1.22197561
v 1.00175067 -0.04414990 1.22197561
v 0.82230905 -0.06563407 1.12000000
v 1.00222982 -0.06029414 1.12000000
v 0.82182990 -0.04948983 1.01802439
v 1.00175067 -0.04414990 1.01802439
v 0.82043935 -0.00263741 0.92603087
v 1.00036013 0.00270251 0.92603087
v 0.81827352 0.07033693 0.85302439
v 0.99819430 0.07567685 0.85302439
v 0.81554442 0.16228996 0.80615135
v 0.99546519 0.16762989 0.80615135
v 0.80252359 0.26392402 1.12000000
v 0.80252359 0.26392402 0.95000000
v 1.00243556 0.26985727 0.95000000
v 1.00243556 0.26985727 1.12000000
v 0.80059362 0.32895157 0.96294048
v 1.00050559 0.33488482 0.96294048
v 0.79895746 0.38407927 0.99979185
v 0.99886944 0.39001252 0.99979185
v 0.79786422 0.42091442 1.05494382
v 0.99777619 0.42684767 1.05494382
v 0.79748033 0.43384920 1.12000000
v 0.99739230 0.43978245 1.12000000
v 0.79786422 0.42091442 1.18505618
v 0.99777619 0.42684767 1.18505618
v 0.79895746 0.38407927 1.24020815
v 0.99886944 0.39001252 1.24020815
v 0.80059362 0.32895157 1.27705952
v 1.00050559 0.33488482 1.27705952
v 0.80252359 0.26392402 1.29000000
v 1.00243556 0.26985727 1.29000000
v 0.80445356 0.19889647 1.27705952
v 1.00436553 0.20482972 1.27705952
v 0.80608971 0.14376878 1.24020815
v 1.00600168 0.14970203 1.24020815
v 0.80718295 0.10693363 1.18505618
v 1.00709493 0.11286688 1.18505618
v 0.80756685 0.09399885 1.12000000
v 1.00747882 0.09993210 1.12000000
v 0.80718295 0.10693363 1.05494382
v 1.00709493 0.11286688 1.05494382
v 0.80608971 0.14376878 0.99979185
v 1.00600168 0.14970203 0.99979185
v 0.80445356 0.19889647 0.96294048
v 1.00436553 0.20482972 0.96294048
vn -0.55996834 -0.59422397 -0.57735027
vn -0.55996834 -0.59422397 0.57735027
vn -0.59422397 0.55996834 -0.57735027
vn -0.59422397 0.55996834 0.57735027
vn 0.59422397 -0.55996834 -0.57735027
vn 0.59422397 -0.55996834 0.57735027
vn 0.55996834 0.59422397 -0.57735027
vn 0.55996834 0.59422397 0.57735027
vn -0.55929711 -0.61684004 -0.55380060
vn -0.56066697 -0.57068466 0.59997630
vn -0.59352534 0.53642903 -0.59997630
vn -0.59489520 0.58258442 0.55380060
vn 0.59489520 -0.58258442 -0.55380060
vn 0.59352534 -0.53642903 0.59997630
vn 0.56066697 0.57068466 -0.59997630
vn 0.55929711 0.61684004 0.55380060
vn -0.56040184 -0.57961773 -0.59160211
vn -0.55954554 -0.60846954 0.56273760
vn -0.59464677 0.57421391 -0.56273760
vn -0.59379047 0.54536211 0.59160211
vn 0.59379047 -0.54536211 -0.59160211
vn 0.59464677 -0.57421391 0.56273760
vn 0.55954554 0.60846954 -0.56273760
vn 0.56040184 0.57961773 0.59160211
vn -0.55996834 -0.59422397 -0.57735027
vn -0.55996834 -0.59422397 0.57735027
vn -0.59422397 0.55996834 -0.57735027
vn -0.59422397 0.55996834 0.57735027
vn 0.59422397 -0.55996834 -0.57735027
vn 0.59422397 -0.55996834 0.57735027
vn 0.55996834 0.59422397 -0.57735027
vn 0.55996834 0.59422397 0.57735027
vn -0.55320433 -0.82212710 -0.13443214
vn -0.57310806 -0.15150078 0.80535375
vn -0.58108425 0.11724516 -0.80535375
vn -0.60098798 0.78787147 0.13443214
vn 0.60098798 -0.78787147 -0.13443214
vn 0.58108425 -0.11724516 0.80535375
vn 0.57310806 0.15150078 -0.80535375
vn 0.55320433 0.82212710 0.13443214
vn -0.57215583 -0.18358469 -0.79933370
vn -0.55338293 -0.81610970 0.16653017
vn -0.60080938 0.78185407 -0.16653017
vn -0.58203648 0.14932906 0.79933370
vn 0.58203648 -0.14932906 -0.79933370
vn 0.60080938 -0.78185407 0.16653017
vn 0.55338293 0.81610970 -0.16653017
vn 0.57215583 0.18358469 0.79933370
vn -0.55996834 -0.59422397 -0.57735027
vn -0.55996834 -0.59422397 0.57735027
vn -0.59422397 0.55996834 -0.57735027
vn -0.59422397 0.55996834 0.57735027
vn 0.59422397 -0.55996834 -0.57735027
vn 0.59422397 -0.55996834 0.57735027
vn 0.55996834 0.59422397 -0.57735027
vn 0.55996834 0.59422397 0.57735027
vn -0.55996834 -0.59422397 -0.57735027
vn -0.55996834 -0.59422397 0.57735027
vn -0.59422397 0.55996834 -0.57735027
vn -0.59422397 0.55996834 0.57735027
vn 0.59422397 -0.55996834 -0.57735027
vn 0.59422397 -0.55996834 0.57735027
vn 0.55996834 0.59422397 -0.57735027
vn 0.55996834 0.59422397 0.57735027
vn -0.55996834 -0.59422397 -0.57735027
vn -0.55996834 -0.59422397 0.57735027
vn -0.59422397 0.55996834 -0.57735027
vn -0.59422397 0.55996834 0.57735027
vn 0.59422397 -0.55996834 -0.57735027
vn 0.59422397 -0.55996834 0.57735027
vn 0.55996834 0.59422397 -0.57735027
vn 0.55996834 0.59422397 0.57735027
vn -0.55996834 -0.59422397 -0.57735027
vn -0.55996834 -0.59422397 0.57735027
vn -0.59422397 0.55996834 -0.57735027
vn -0.59422397 0.55996834 0.57735027
vn 0.59422397 -0.55996834 -0.57735027
vn 0.59422397 -0.55996834 0.57735027
vn 0.55996834 0.59422397 -0.57735027
vn 0.55996834 0.59422397 0.57735027
vn -0.55996834 -0.59422397 -0.57735027
vn -0.55996834 -0.59422397 0.57735027
vn -0.59422397 0.55996834 -0.57735027
vn -0.59422397 0.55996834 0.57735027
vn 0.59422397 -0.55996834 -0.57735027
vn 0.59422397 -0.55996834 0.57735027
vn 0.55996834 0.59422397 -0.57735027
vn 0.55996834 0.59422397 0.57735027
vn -0.99955986 -0.02966624 0.00000000
vn -0.67323696 -0.01998121 -0.73915678
vn 0.67323696 0.01998121 -0.73915678
vn 0.99955986 0.02966624 -0.00000000
vn -0.68001309 0.20833027 -0.70297987
vn 0.66646084 0.24829268 -0.70297987
vn -0.68612592 0.41429302 -0.59799039
vn 0.66034801 0.45425543 -0.59799039
vn -0.69097709 0.57774599 -0.43446545
vn 0.65549684 0.61770840 -0.43446545
vn -0.69409174 0.68268925 -0.22841201
vn 0.65238219 0.72265167 -0.22841201
vn -0.69516497 0.71885024 -0.00000000
vn 0.65130896 0.75881265 -0.00000000
vn -0.69409174 0.68268925 0.22841201
vn 0.65238219 0.72265167 0.22841201
vn -0.69097709 0.57774599 0.43446545
vn 0.65549684 0.61770840 0.43446545
vn -0.68612592 0.41429302 0.59799039
vn 0.66034801 0.45425543 0.59799039
vn -0.68001309 0.20833027 0.70297987
vn 0.66646084 0.24829268 0.70297987
vn -0.67323696 -0.01998121 0.73915678
vn 0.67323696 0.01998121 0.73915678
vn -0.66646084 -0.24829268 0.70297987
vn 0.68001309 -0.20833027 0.70297987
vn -0.66034801 -0.45425543 0.59799039
vn 0.68612592 -0.41429302 0.59799039
vn -0.65549684 -0.61770840 0.43446545
vn 0.69097709 -0.57774599 0.43446545
vn -0.65238219 -0.72265167 0.22841201
vn 0.69409174 -0.68268925 0.22841201
vn -0.65130896 -0.75881265 0.00000000
vn 0.69516497 -0.71885024 0.00000000
vn -0.65238219 -0.72265167 -0.22841201
vn 0.69409174 -0.68268925 -0.22841201
vn -0.65549684 -0.61770840 -0.43446545
vn 0.69097709 -0.57774599 -0.43446545
vn -0.66034801 -0.45425543 -0.59799039
vn 0.68612592 -0.41429302 -0.59799039
vn -0.66646084 -0.24829268 -0.70297987
vn 0.68001309 -0.20833027 -0.70297987
vn -0.99955986 -0.02966624 0.00000000
vn -0.66542589 -0.01974938 -0.74620262
vn 0.66542589 0.01974938 -0.74620262
vn 0.99955986 0.02966624 -0.00000000
vn -0.67389736 0.26568432 -0.68940133
vn 0.65695441 0.30518307 -0.68940133
vn -0.68107913 0.50766332 -0.52764493
vn 0.64977264 0.54716208 -0.52764493
vn -0.68587783 0.66934852 -0.28555938
vn 0.64497394 0.70884728 -0.28555938
vn -0.68756292 0.72612481 -0.00000000
vn 0.64328886 0.76562357 -0.00000000
vn -0.68587783 0.66934852 0.28555938
vn 0.64497394 0.70884728 0.28555938
vn -0.68107913 0.50766332 0.52764493
vn 0.64977264 0.54716208 0.52764493
vn -0.67389736 0.26568432 0.68940133
vn 0.65695441 0.30518307 0.68940133
vn -0.66542589 -0.01974938 0.74620262
vn 0.66542589 0.01974938 0.74620262
vn -0.65695441 -0.30518307 0.68940133
vn 0.67389736 -0.26568432 0.68940133
vn -0.64977264 -0.54716208 0.52764493
vn 0.68107913 -0.50766332 0.52764493
vn -0.64497394 -0.70884728 0.28555938
vn 0.68587783 -0.66934852 0.28555938
vn -0.64328886 -0.76562357 0.00000000
vn 0.68756292 -0.72612481 0.00000000
vn -0.64497394 -0.70884728 -0.28555938
vn 0.68587783 -0.66934852 -0.28555938
vn -0.64977264 -0.54716208 -0.52764493
vn 0.68107913 -0.50766332 -0.52764493
vn -0.65695441 -0.30518307 -0.68940133
vn 0.67389736 -0.26568432 -0.68940133
vn -0.99955986 -0.02966624 0.00000000
vn -0.67323696 -0.01998121 -0.73915678
vn 0.67323696 0.01998121 -0.73915678
vn 0.99955986 0.02966624 -0.00000000
vn -0.68001309 0.20833027 -0.70297987
vn 0.66646084 0.24829268 -0.70297987
vn -0.68612592 0.41429302 -0.59799039
vn 0.66034801 0.45425543 -0.59799039
vn -0.69097709 0.57774599 -0.43446545
vn 0.65549684 0.61770840 -0.43446545
vn -0.69409174 0.68268925 -0.22841201
vn 0.65238219 0.72265167 -0.22841201
vn -0.69516497 0.71885024 -0.00000000
vn 0.65130896 0.75881265 -0.00000000
vn -0.69409174 0.68268925 0.22841201
vn 0.65238219 0.72265167 0.22841201
vn -0.69097709 0.57774599 0.43446545
vn 0.65549684 0.61770840 0.43446545
vn -0.68612592 0.41429302 0.59799039
vn 0.66034801 0.45425543 0.59799039
vn -0.68001309 0.20833027 0.70297987
vn 0.66646084 0.24829268 0.70297987
vn -0.67323696 -0.01998121 0.73915678
vn 0.67323696 0.01998121 0.73915678
vn -0.66646084 -0.24829268 0.70297987
vn 0.68001309 -0.20833027 0.70297987
vn -0.66034801 -0.45425543 0.59799039
vn 0.68612592 -0.41429302 0.59799039
vn -0.65549684 -0.61770840 0.43446545
vn 0.69097709 -0.57774599 0.43446545
vn -0.65238219 -0.72265167 0.22841201
vn 0.69409174 -0.68268925 0.22841201
vn -0.65130896 -0.75881265 0.00000000
vn 0.69516497 -0.71885024 0.00000000
vn -0.65238219 -0.72265167 -0.22841201
vn 0.69409174 -0.68268925 -0.22841201
vn -0.65549684 -0.61770840 -0.43446545
vn 0.69097709 -0.57774599 -0.43446545
vn -0.66034801 -0.45425543 -0.59799039
vn 0.68612592 -0.41429302 -0.59799039
vn -0.66646084 -0.24829268 -0.70297987
vn 0.68001309 -0.20833027 -0.70297987
vn -0.99955986 -0.02966624 0.00000000
vn -0.66542589 -0.01974938 -0.74620262
vn 0.66542589 0.01974938 -0.74620262
vn 0.99955986 0.02966624 -0.00000000
vn -0.67389736 0.26568432 -0.68940133
vn 0.65695441 0.30518307 -0.68940133
vn -0.68107913 0.50766332 -0.52764493
vn 0.64977264 0.54716208 -0.52764493
vn -0.68587783 0.66934852 -0.28555938
vn 0.64497394 0.70884728 -0.28555938
vn -0.68756292 0.72612481 -0.00000000
vn 0.64328886 0.76562357 -0.00000000
vn -0.68587783 0.66934852 0.28555938
vn 0.64497394 0.70884728 0.28555938
vn -0.68107913 0.50766332 0.52764493
vn 0.64977264 0.54716208 0.52764493
vn -0.67389736 0.26568432 0.68940133
vn 0.65695441 0.30518307 0.68940133
vn -0.66542589 -0.01974938 0.74620262
vn 0.66542589 0.01974938 0.74620262
vn -0.65695441 -0.30518307 0.68940133
vn 0.67389736 -0.26568432 0.68940133
vn -0.64977264 -0.54716208 0.52764493
vn 0.68107913 -0.50766332 0.52764493
vn -0.64497394 -0.70884728 0.28555938
vn 0.68587783 -0.66934852 0.28555938
vn -0.64328886 -0.76562357 0.00000000
vn 0.68756292 -0.72612481 0.00000000
vn -0.64497394 -0.70884728 -0.28555938
vn 0.68587783 -0.66934852 -0.28555938
vn -0.64977264 -0.54716208 -0.52764493
vn 0.68107913 -0.50766332 -0.52764493
vn -0.65695441 -0.30518307 -0.68940133
vn 0.67389736 -0.26568432 -0.68940133
vn -0.99955986 -0.02966624 0.00000000
vn -0.67323696 -0.01998121 -0.73915678
vn 0.67323696 0.01998121 -0.73915678
vn 0.99955986 0.02966624 0.00000000
vn -0.68001309 0.20833027 -0.70297987
vn 0.66646084 0.24829268 -0.70297987
vn -0.68612592 0.41429302 -0.59799039
vn 0.66034801 0.45425543 -0.59799039
vn -0.69097709 0.57774599 -0.43446545
vn 0.65549684 0.61770840 -0.43446545
vn -0.69409174 0.68268925 -0.22841201
vn 0.65238219 0.72265167 -0.22841201
vn -0.69516497 0.71885024 0.00000000
vn 0.65130896 0.75881265 0.00000000
vn -0.69409174 0.68268925 0.22841201
vn 0.65238219 0.72265167 0.22841201
vn -0.69097709 0.57774599 0.43446545
vn 0.65549684 0.61770840 0.43446545
vn -0.68612592 0.41429302 0.59799039
vn 0.66034801 0.45425543 0.59799039
vn -0.68001309 0.20833027 0.70297987
vn 0.66646084 0.24829268 0.70297987
vn -0.67323696 -0.01998121 0.73915678
vn 0.67323696 0.01998121 0.73915678
vn -0.66646084 -0.24829268 0.70297987
vn 0.68001309 -0.20833027 0.70297987
vn -0.66034801 -0.45425543 0.59799039
vn 0.68612592 -0.41429302 0.59799039
vn -0.65549684 -0.61770840 0.43446545
vn 0.69097709 -0.57774599 0.43446545
vn -0.65238219 -0.72265167 0.22841201
vn 0.69409174 -0.68268925 0.22841201
vn -0.65130896 -0.75881265 0.00000000
vn 0.69516497 -0.71885024 0.00000000
vn -0.65238219 -0.72265167 -0.22841201
vn 0.69409174 -0.68268925 -0.22841201
vn -0.65549684 -0.61770840 -0.43446545
vn 0.69097709 -0.57774599 -0.43446545
vn -0.66034801 -0.45425543 -0.59799039
vn 0.68612592 -0.41429302 -0.59799039
vn -0.66646084 -0.24829268 -0.70297987
vn 0.68001309 -0.20833027 -0.70297987
vn -0.99955986 -0.02966624 0.00000000
vn -0.66542589 -0.01974938 -0.74620262
vn 0.66542589 0.01974938 -0.74620262
vn 0.99955986 0.02966624 -0.00000000
vn -0.67389736 0.26568432 -0.68940133
vn 0.65695441 0.30518307 -0.68940133
vn -0.68107913 0.50766332 -0.52764493
vn 0.64977264 0.54716208 -0.52764493
vn -0.68587783 0.66934852 -0.28555938
vn 0.64497394 0.70884728 -0.28555938
vn -0.68756292 0.72612481 0.00000000
vn 0.64328886 0.76562357 0.00000000
vn -0.68587783 0.66934852 0.28555938
vn 0.64497394 0.70884728 0.28555938
vn -0.68107913 0.50766332 0.52764493
vn 0.64977264 0.54716208 0.52764493
vn -0.67389736 0.26568432 0.68940133
vn 0.65695441 0.30518307 0.68940133
vn -0.66542589 -0.01974938 0.74620262
vn 0.66542589 0.01974938 0.74620262
vn -0.65695441 -0.30518307 0.68940133
vn 0.67389736 -0.26568432 0.68940133
vn -0.64977264 -0.54716208 0.52764493
vn 0.68107913 -0.50766332 0.52764493
vn -0.64497394 -0.70884728 0.28555938
vn 0.68587783 -0.66934852 0.28555938
vn -0.64328886 -0.76562357 0.00000000
vn 0.68756292 -0.72612481 0.00000000
vn -0.64497394 -0.70884728 -0.28555938
vn 0.68587783 -0.66934852 -0.28555938
vn -0.64977264 -0.54716208 -0.52764493
vn 0.68107913 -0.50766332 -0.52764493
vn -0.65695441 -0.30518307 -0.68940133
vn 0.67389736 -0.26568432 -0.68940133
vn -0.99955986 -0.02966624 0.00000000
vn -0.67323696 -0.01998121 -0.73915678
vn 0.67323696 0.01998121 -0.73915678
vn 0.99955986 0.02966624 0.00000000
vn -0.68001309 0.20833027 -0.70297987
vn 0.66646084 0.24829268 -0.70297987
vn -0.68612592 0.41429302 -0.59799039
vn 0.66034801 0.45425543 -0.59799039
vn -0.69097709 0.57774599 -0.43446545
vn 0.65549684 0.61770840 -0.43446545
vn -0.69409174 0.68268925 -0.22841201
vn 0.65238219 0.72265167 -0.22841201
vn -0.69516497 0.71885024 0.00000000
vn 0.65130896 0.75881265 0.00000000
vn -0.69409174 0.68268925 0.22841201
vn 0.65238219 0.72265167 0.22841201
vn -0.69097709 0.57774599 0.43446545
vn 0.65549684 0.61770840 0.43446545
vn -0.68612592 0.41429302 0.59799039
vn 0.66034801 0.45425543 0.59799039
vn -0.68001309 0.20833027 0.70297987
vn 0.66646084 0.24829268 0.70297987
vn -0.67323696 -0.01998121 0.73915678
vn 0.67323696 0.01998121 0.73915678
vn -0.66646084 -0.24829268 0.70297987
vn 0.68001309 -0.20833027 0.70297987
vn -0.66034801 -0.45425543 0.59799039
vn 0.68612592 -0.41429302 0.59799039
vn -0.65549684 -0.61770840 0.43446545
vn 0.69097709 -0.57774599 0.43446545
vn -0.65238219 -0.72265167 0.22841201
vn 0.69409174 -0.68268925 0.22841201
vn -0.65130896 -0.75881265 0.00000000
vn 0.69516497 -0.71885024 0.00000000
vn -0.65238219 -0.72265167 -0.22841201
vn 0.69409174 -0.68268925 -0.22841201
vn -0.65549684 -0.61770840 -0.43446545
vn 0.69097709 -0.57774599 -0.43446545
vn -0.66034801 -0.45425543 -0.59799039
vn 0.68612592 -0.41429302 -0.59799039
vn -0.66646084 -0.24829268 -0.70297987
vn 0.68001309 -0.20833027 -0.70297987
vn -0.99955986 -0.02966624 0.00000000
vn -0.66542589 -0.01974938 -0.74620262
vn 0.66542589 0.01974938 -0.74620262
vn 0.99955986 0.02966624 -0.00000000
vn -0.67389736 0.26568432 -0.68940133
vn 0.65695441 0.30518307 -0.68940133
vn -0.68107913 0.50766332 -0.52764493
vn 0.64977264 0.54716208 -0.52764493
vn -0.68587783 0.66934852 -0.28555938
vn 0.64497394 0.70884728 -0.28555938
vn -0.68756292 0.72612481 0.00000000
vn 0.64328886 0.76562357 0.00000000
vn -0.68587783 0.66934852 0.28555938
vn 0.64497394 0.70884728 0.28555938
vn -0.68107913 0.50766332 0.52764493
vn 0.64977264 0.54716208 0.52764493
vn -0.67389736 0.26568432 0.68940133
vn 0.65695441 0.30518307 0.68940133
vn -0.66542589 -0.01974938 0.74620262
vn 0.66542589 0.01974938 0.74620262
vn -0.65695441 -0.30518307 0.68940133
vn 0.67389736 -0.26568432 0.68940133
vn -0.64977264 -0.54716208 0.52764493
vn 0.68107913 -0.50766332 0.52764493
vn -0.64497394 -0.70884728 0.28555938
vn 0.68587783 -0.66934852 0.28555938
vn -0.64328886 -0.76562357 0.00000000
vn 0.68756292 -0.72612481 0.00000000
vn -0.64497394 -0.70884728 -0.28555938
vn 0.68587783 -0.66934852 -0.28555938
vn -0.64977264 -0.54716208 -0.52764493
vn 0.68107913 -0.50766332 -0.52764493
vn -0.65695441 -0.30518307 -0.68940133
vn 0.67389736 -0.26568432 -0.68940133
f 2//2 4//4 1//1
f 5//5 2//2 1//1
f 1//1 4//4 3//3
f 3//3 5//5 1//1
f 2//2 8//8 4//4
f 6//6 2//2 5//5
f 6//6 8//8 2//2
f 4//4 8//8 3//3
f 7//7 5//5 3//3
f 3//3 8//8 7//7
f 7//7 6//6 5//5
f 8//8 6//6 7//7
f 10//10 12//12 9//9
f 13//13 10//10 9//9
f 9//9 12//12 11//11
f 11//11 13//13 9//9
f 10//10 16//16 12//12
f 14//14 10//10 13//13
f 14//14 16//16 10//10
f 12//12 16//16 11//11
f 15//15 13//13 11//11
f 11//11 16//16 15//15
f 15//15 14//14 13//13
f 16//16 14//14 15//15
f 18//18 20//20 17//17
f 21//21 18//18 17//17
f 17//17 20//20 19//19
f 19//19 21//21 17//17
f 18//18 24//24 20//20
f 22//22 18//18 21//21
f 22//22 24//24 18//18
f 20//20 24//24 19//19
f 23//23 21//21 19//19
f 19//19 24//24 23//23
f 23//23 22//22 21//21
f 24//24 22//22 23//23
f 26//26 28//28 25//25
f 29//29 26//26 25//25
f 25//25 28//28 27//27
f 27//27 29//29 25//25
f 26//26 32//32 28//28
f 30//30 26//26 29//29
f 30//30 32//32 26//26
f 28//28 32//32 27//27
f 31//31 29//29 27//27
f 27//27 32//32 31//31
f 31//31 30//30 29//29
f 32//32 30//30 31//31
f 34//34 36//36 33//33
f 37//37 34//34 33//33
f 33//33 36//36 35//35
f 35//35 37//37 33//33
f 34//34 40//40 36//36
f 38//38 34//34 37//37
f 38//38 40//40 34//34
f 36//36 40//40 35//35
f 39//39 37//37 35//35
f 35//35 40//40 39//39
f 39//39 38//38 37//37
f 40//40 38//38 39//39
f 42//42 44//44 41//41
f 45//45 42//42 41//41
f 41//41 44//44 43//43
f 43//43 45//45 41//41
f 42//42 48//48 44//44
f 46//46 42//42 45//45
f 46//46 48//48 42//42
f 44//44 48//48 43//43
f 47//47 45//45 43//43
f 43//43 48//48 47//47
f 47//47 46//46 45//45
f 48//48 46//46 47//47
f 50//50 52//52 49//49
f 53//53 50//50 49//49
f 49//49 52//52 51//51
f 51//51 53//53 49//49
f 50//50 56//56 52//52
f 54//54 50//50 53//53
f 54//54 56//56 50//50
f 52//52 56//56 51//51
f 55//55 53//53 51//51
f 51//51 56//56 55//55
f 55//55 54//54 53//53
f 56//56 54//54 55//55
f 58//58 60//60 57//57
f 61//61 58//58 57//57
f 57//57 60//60 59//59
f 59//59 61//61 57//57
f 58//58 64//64 60//60
f 62//62 58//58 61//61
f 62//62 64//64 58//58
f 60//60 64//64 59//59
f 63//63 61//61 59//59
f 59//59 64//64 63//63
f 63//63 62//62 61//61
f 64//64 62//62 63//63
f 66//66 68//68 65//65
f 69//69 66//66 65//65
f 65//65 68//68 67//67
f 67//67 69//69 65//65
f 66//66 72//72 68//68
f 70//70 66//66 69//69
f 70//70 72//72 66//66
f 68//68 72//72 67//67
f 71//71 69//69 67//67
f 67//67 72//72 71//71
f 71//71 70//70 69//69
f 72//72 70//70 71//71
f 74//74 76//76 73//73
f 77//77 74//74 73//73
f 73//73 76//76 75//75
f 75//75 77//77 73//73
f 74//74 80//80 76//76
f 78//78 74//74 77//77
f 78//78 80//80 74//74
f 76//76 80//80 75//75
f 79//79 77//77 75//75
f 75//75 80//80 79//79
f 79//79 78//78 77//77
f 80//80 78//78 79//79
f 82//82 84//84 81//81
f 85//85 82//82 81//81
f 81//81 84//84 83//83
f 83//83 85//85 81//81
f 82//82 88//88 84//84
f 86//86 82//82 85//85
f 86//86 88//88 82//82
f 84//84 88//88 83//83
f 87//87 85//85 83//83
f 83//83 88//88 87//87
f 87//87 86//86 85//85
f 88//88 86//86 87//87
f 90//90 89//89 93//93
f 90//90 93//93 91//91
f 91//91 93//93 94//94
f 91//91 94//94 92//92
f 93//93 89//89 95//95
f 93//93 95//95 94//94
f 94//94 95//95 96//96
f 94//94 96//96 92//92
f 95//95 89//89 97//97
f 95//95 97//97 96//96
f 96//96 97//97 98//98
f 96//96 98//98 92//92
f 97//97 89//89 99//99
f 97//97 99//99 98//98
f 98//98 99//99 100//100
f 98//98 100//100 92//92
f 99//99 89//89 101//101
f 99//99 101//101 100//100
f 100//100 101//101 102//102
f 100//100 102//102 92//92
f 101//101 89//89 103//103
f 101//101 103//103 102//102
f 102//102 103//103 104//104
f 102//102 104//104 92//92
f 103//103 89//89 105//105
f 103//103 105//105 104//104
f 104//104 105//105 106//106
f 104//104 106//106 92//92
f 105//105 89//89 107//107
f 105//105 107//107 106//106
f 106//106 107//107 108//108
f 106//106 108//108 92//92
f 107//107 89//89 109//109
f 107//107 109//109 108//108
f 108//108 109//109 110//110
f 108//108 110//110 92//92
f 109//109 89//89 111//111
f 109//109 111//111 110//110
f 110//110 111//111 112//112
f 110//110 112//112 92//92
f 111//111 89//89 113//113
f 111//111 113//113 112//112
f 112//112 113//113 114//114
f 112//112 114//114 92//92
f 113//113 89//89 115//115
f 113//113 115//115 114//114
f 114//114 115//115 116//116
f 114//114 116//116 92//92
f 115//115 89//89 117//117
f 115//115 117//117 116//116
f 116//116 117//117 118//118
f 116//116 118//118 92//92
f 117//117 89//89 119//119
f 117//117 119//119 118//118
f 118//118 119//119 120//120
f 118//118 120//120 92//92
f 119//119 89//89 121//121
f 119//119 121//121 120//120
f 120//120 121//121 122//122
f 120//120 122//122 92//92
f 121//121 89//89 123//123
f 121//121 123//123 122//122
f 122//122 123//123 124//124
f 122//122 124//124 92//92
f 123//123 89//89 125//125
f 123//123 125//125 124//124
f 124//124 125//125 126//126
f 124//124 126//126 92//92
f 125//125 89//89 127//127
f 125//125 127//127 126//126
f 126//126 127//127 128//128
f 126//126 128//128 92//92
f 127//127 89//89 129//129
f 127//127 129//129 128//128
f 128//128 129//129 130//130
f 128//128 130//130 92//92
f 129//129 89//89 90//90
f 129//129 90//90 130//130
f 130//130 90//90 91//91
f 130//130 91//91 92//92
f 132//132 131//131 135//135
f 132//132 135//135 133//133
f 133//133 135//135 136//136
f 133//133 136//136 134//134
f 135//135 131//131 137//137
f 135//135 137//137 136//136
f 136//136 137//137 138//138
f 136//136 138//138 134//134
f 137//137 131//131 139//139
f 137//137 139//139 138//138
f 138//138 139//139 140//140
f 138//138 140//140 134//134
f 139//139 131//131 141//141
f 139//139 141//141 140//140
f 140//140 141//141 142//142
f 140//140 142//142 134//134
f 141//141 131//131 143//143
f 141//141 143//143 142//142
f 142//142 143//143 144//144
f 142//142 144//144 134//134
f 143//143 131//131 145//145
f 143//143 145//145 144//144
f 144//144 145//145 146//146
f 144//144 146//146 134//134
f 145//145 131//131 147//147
f 145//145 147//147 146//146
f 146//146 147//147 148//148
f 146//146 148//148 134//134
f 147//147 131//131 149//149
f 147//147 149//149 148//148
f 148//148 149//149 150//150
f 148//148 150//150 134//134
f 149//149 131//131 151//151
f 149//149 151//151 150//150
f 150//150 151//151 152//152
f 150//150 152//152 134//134
f 151//151 131//131 153//153
f 151//151 153//153 152//152
f 152//152 153//153 154//154
f 152//152 154//154 134//134
f 153//153 131//131 155//155
f 153//153 155//155 154//154
f 154//154 155//155 156//156
f 154//154 156//156 134//134
f 155//155 131//131 157//157
f 155//155 157//157 156//156
f 156//156 157//157 158//158
f 156//156 158//158 134//134
f 157//157 131//131 159//159
f 157//157 159//159 158//158
f 158//158 159//159 160//160
f 158//158 160//160 134//134
f 159//159 131//131 161//161
f 159//159 161//161 160//160
f 160//160 161//161 162//162
f 160//160 162//162 134//134
f 161//161 131//131 163//163
f 161//161 163//163 162//162
f 162//162 163//163 164//164
f 162//162 164//164 134//134
f 163//163 131//131 132//132
f 163//163 132//132 164//164
f 164//164 132//132 133//133
f 164//164 133//133 134//134
f 166//166 165//165 169//169
f 166//166 169//169 167//167
f 167//167 169//169 170//170
f 167//167 170//170 168//168
f 169//169 165//165 171//171
f 169//169 171//171 170//170
f 170//170 171//171 172//172
f 170//170 172//172 168//168
f 171//171 165//165 173//173
f 171//171 173//173 172//172
f 172//172 173//173 174//174
f 172//172 174//174 168//168
f 173//173 165//165 175//175
f 173//173 175//175 174//174
f 174//174 175//175 176//176
f 174//174 176//176 168//168
f 175//175 165//165 177//177
f 175//175 177//177 176//176
f 176//176 177//177 178//178
f 176//176 178//178 168//168
f 177//177 165//165 179//179
f 177//177 179//179 178//178
f 178//178 179//179 180//180
f 178//178 180//180 168//168
f 179//179 165//165 181//181
f 179//179 181//181 180//180
f 180//180 181//181 182//182
f 180//180 182//182 168//168
f 181//181 165//165 183//183
f 181//181 183//183 182//182
f 182//182 183//183 184//184
f 182//182 184//184 168//168
f 183//183 165//165 185//185
f 183//183 185//185 184//184
f 184//184 185//185 186//186
f 184//184 186//186 168//168
f 185//185 165//165 187//187
f 185//185 187//187 186//186
f 186//186 187//187 188//188
f 186//186 188//188 168//168
f 187//187 165//165 189//189
f 187//187 189//189 188//188
f 188//188 189//189 190//190
f 188//188 190//190 168//168
f 189//189 165//165 191//191
f 189//189 191//191 190//190
f 190//190 191//191 192//192
f 190//190 192//192 168//168
f 191//191 165//165 193//193
f 191//191 193//193 192//192
f 192//192 193//193 194//194
f 192//192 194//194 168//168
f 193//193 165//165 195//195
f 193//193 195//195 194//194
f 194//194 195//195 196//196
f 194//194 196//196 168//168
f 195//195 165//165 197//197
f 195//195 197//197 196//196
f 196//196 197//197 198//198
f 196//196 198//198 168//168
f 197//197 165//165 199//199
f 197//197 199//199 198//198
f 198//198 199//199 200//200
f 198//198 200//200 168//168
f 199//199 165//165 201//201
f 199//199 201//201 200//200
f 200//200 201//201 202//202
f 200//200 202//202 168//168
f 201//201 165//165 203//203
f 201//201 203//203 202//202
f 202//202 203//203 204//204
f 202//202 204//204 168//168
f 203//203 165//165 205//205
f 203//203 205//205 204//204
f 204//204 205//205 206//206
f 204//204 206//206 168//168
f 205//205 165//165 166//166
f 205//205 166//166 206//206
f 206//206 166//166 167//167
f 206//206 167//167 168//168
f 208//208 207//207 211//211
f 208//208 211//211 209//209
f 209//209 211//211 212//212
f 209//209 212//212 210//210
f 211//211 207//207 213//213
f 211//211 213//213 212//212
f 212//212 213//213 214//214
f 212//212 214//214 210//210
f 213//213 207//207 215//215
f 213//213 215//215 214//214
f 214//214 215//215 216//216
f 214//214 216//216 210//210
f 215//215 207//207 217//217
f 215//215 217//217 216//216
f 216//216 217//217 218//218
f 216//216 218//218 210//210
f 217//217 207//207 219//219
f 217//217 219//219 218//218
f 218//218 219//219 220//220
f 218//218 220//220 210//210
f 219//219 207//207 221//221
f 219//219 221//221 220//220
f 220//220 221//221 222//222
f 220//220 222//222 210//210
f 221//221 207//207 223//223
f 221//221 223//223 222//222
f 222//222 223//223 224//224
f 222//222 224//224 210//210
f 223//223 207//207 225//225
f 223//223 225//225 224//224
f 224//224 225//225 226//226
f 224//224 226//226 210//210
f 225//225 207//207 227//227
f 225//225 227//227 226//226
f 226//226 227//227 228//228
f 226//226 228//228 210//210
f 227//227 207//207 229//229
f 227//227 229//229 228//228
f 228//228 229//229 230//230
f 228//228 230//230 210//210
f 229//229 207//207 231//231
f 229//229 231//231 230//230
f 230//230 231//231 232//232
f 230//230 232//232 210//210
f 231//231 207//207 233//233
f 231//231 233//233 232//232
f 232//232 233//233 234//234
f 232//232 234//234 210//210
f 233//233 207//207 235//235
f 233//233 235//235 234//234
f 234//234 235//235 236//236
f 234//234 236//236 210//210
f 235//235 207//207 237//237
f 235//235 237//237 236//236
f 236//236 237//237 238//238
f 236//236 238//238 210//210
f 237//237 207//207 239//239
f 237//237 239//239 238//238
f 238//238 239//239 240//240
f 238//238 240//240 210//210
f 239//239 207//207 208//208
f 239//239 208//208 240//240
f 240//240 208//208 209//209
f 240//240 209//209 210//210
f 242//242 241//241 245//245
f 242//242 245//245 243//243
f 243//243 245//245 246//246
f 243//243 246//246 244//244
f 245//245 241//241 247//247
f 245//245 247//247 246//246
f 246//246 247//247 248//248
f 246//246 248//248 244//244
f 247//247 241//241 249//249
f 247//247 249//249 248//248
f 248//248 249//249 250//250
f 248//248 250//250 244//244
f 249//249 241//241 251//251
f 249//249 251//251 250//250
f 250//250 251//251 252//252
f 250//250 252//252 244//244
f 251//251 241//241 253//253
f 251//251 253//253 252//252
f 252//252 253//253 254//254
f 252//252 254//254 244//244
f 253//253 241//241 255//255
f 253//253 255//255 254//254
f 254//254 255//255 256//256
f 254//254 256//256 244//244
f 255//255 241//241 257//257
f 255//255 257//257 256//256
f 256//256 257//257 258//258
f 256//256 258//258 244//244
f 257//257 241//241 259//259
f 257//257 259//259 258//258
f 258//258 259//259 260//260
f 258//258 260//260 244//244
f 259//259 241//241 261//261
f 259//259 261//261 260//260
f 260//260 261//261 262//262
f 260//260 262//262 244//244
f 261//261 241//241 263//263
f 261//261 263//263 262//262
f 262//262 263//263 264//264
f 262//262 264//264 244//244
f 263//263 241//241 265//265
f 263//263 265//265 264//264
f 264//264 265//265 266//266
f 264//264 266//266 244//244
f 265//265 241//241 267//267
f 265//265 267//267 266//266
f 266//266 267//267 268//268
f 266//266 268//268 244//244
f 267//267 241//241 269//269
f 267//267 269//269 268//268
f 268//268 269//269 270//270
f 268//268 270//270 244//244
f 269//269 241//241 271//271
f 269//269 271//271 270//270
f 270//270 271//271 272//272
f 270//270 272//272 244//244
f 271//271 241//241 273//273
f 271//271 273//273 272//272
f 272//272 273//273 274//274
f 272//272 274//274 244//244
f 273//273 241//241 275//275
f 273//273 275//275 274//274
f 274//274 275//275 276//276
f 274//274 276//276 244//244
f 275//275 241//241 277//277
f 275//275 277//277 276//276
f 276//276 277//277 278//278
f 276//276 278//278 244//244
f 277//277 241//241 279//279
f 277//277 279//279 278//278
f 278//278 279//279 280//280
f 278//278 280//280 244//244
f 279//279 241//241 281//281
f 279//279 281//281 280//280
f 280//280 281//281 282//282
f 280//280 282//282 244//244
f 281//281 241//241 242//242
f 281//281 242//242 282//282
f 282//282 242//242 243//243
f 282//282 243//243 244//244
f 284//284 283//283 287//287
f 284//284 287//287 285//285
f 285//285 287//287 288//288
f 285//285 288//288 286//286
f 287//287 283//283 289//289
f 287//287 289//289 288//288
f 288//288 289//289 290//290
f 288//288 290//290 286//286
f 289//289 283//283 291//291
f 289//289 291//291 290//290
f 290//290 291//291 292//292
f 290//290 292//292 286//286
f 291//291 283//283 293//293
f 291//291 293//293 292//292
f 292//292 293//293 294//294
f 292//292 294//294 286//286
f 293//293 283//283 295//295
f 293//293 295//295 294//294
f 294//294 295//295 296//296
f 294//294 296//296 286//286
f 295//295 283//283 297//297
f 295//295 297//297 296//296
f 296//296 297//297 298//298
f 296//296 298//298 286//286
f 297//297 283//283 299//299
f 297//297 299//299 298//298
f 298//298 299//299 300//300
f 298//298 300//300 286//286
f 299//299 283//283 301//301
f 299//299 301//301 300//300
f 300//300 301//301 302//302
f 300//300 302//302 286//286
f 301//301 283//283 303//303
f 301//301 303//303 302//302
f 302//302 303//303 304//304
f 302//302 304//304 286//286
f 303//303 283//283 305//305
f 303//303 305//305 304//304
f 304//304 305//305 306//306
f 304//304 306//306 286//286
f 305//305 283//283 307//307
f 305//305 307//307 306//306
f 306//306 307//307 308//308
f 306//306 308//308 286//286
f 307//307 283//283 309//309
f 307//307 309//309 308//308
f 308//308 309//309 310//310
f 308//308 310//310 286//286
f 309//309 283//283 311//311
f 309//309 311//311 310//310
f 310//310 311//311 312//312
f 310//310 312//312 286//286
f 311//311 283//283 313//313
f 311//311 313//313 312//312
f 312//312 313//313 314//314
f 312//312 314//314 286//286
f 313//313 283//283 315//315
f 313//313 315//315 314//314
f 314//314 315//315 316//316
f 314//314 316//316 286//286
f 315//315 283//283 284//284
f 315//315 284//284 316//316
f 316//316 284//284 285//285
f 316//316 285//285 286//286
f 318//318 317//317 321//321
f 318//318 321//321 319//319
f 319//319 321//321 322//322
f 319//319 322//322 320//320
f 321//321 317//317 323//323
f 321//321 323//323 322//322
f 322//322 323//323 324//324
f 322//322 324//324 320//320
f 323//323 317//317 325//325
f 323//323 325//325 324//324
f 324//324 325//325 326//326
f 324//324 326//326 320//320
f 325//325 317//317 327//327
f 325//325 327//327 326//326
f 326//326 327//327 328//328
f 326//326 328//328 320//320
f 327//327 317//317 329//329
f 327//327 329//329 328//328
f 328//328 329//329 330//330
f 328//328 330//330 320//320
f 329//329 317//317 331//331
f 329//329 331//331 330//330
f 330//330 331//331 332//332
f 330//330 332//332 320//320
f 331//331 317//317 333//333
f 331//331 333//333 332//332
f 332//332 333//333 334//334
f 332//332 334//334 320//320
f 333//333 317//317 335//335
f 333//333 335//335 334//334
f 334//334 335//335 336//336
f 334//334 336//336 320//320
f 335//335 317//317 337//337
f 335//335 337//337 336//336
f 336//336 337//337 338//338
f 336//336 338//338 320//320
f 337//337 317//317 339//339
f 337//337 339//339 338//338
f 338//338 339//339 340//340
f 338//338 340//340 320//320
f 339//339 317//317 341//341
f 339//339 341//341 340//340
f 340//340 341//341 342//342
f 340//340 342//342 320//320
f 341//341 317//317 343//343
f 341//341 343//343 342//342
f 342//342 343//343 344//344
f 342//342 344//344 320//320
f 343//343 317//317 345//345
f 343//343 345//345 344//344
f 344//344 345//345 346//346
f 344//344 346//346 320//320
f 345//345 317//317 347//347
f 345//345 347//347 346//346
f 346//346 347//347 348//348
f 346//346 348//348 320//320
f 347//347 317//317 349//349
f 347//347 349//349 348//348
f 348//348 349//349 350//350
f 348//348 350//350 320//320
f 349//349 317//317 351//351
f 349//349 351//351 350//350
f 350//350 351//351 352//352
f 350//350 352//352 320//320
f 351//351 317//317 353//353
f 351//351 353//353 352//352
f 352//352 353//353 354//354
f 352//352 354//354 320//320
f 353//353 317//317 355//355
f 353//353 355//355 354//354
f 354//354 355//355 356//356
f 354//354 356//356 320//320
f 355//355 317//317 357//357
f 355//355 357//357 356//356
f 356//356 357//357 358//358
f 356//356 358//358 320//320
f 357//357 317//317 318//318
f 357//357 318//318 358//358
f 358//358 318//318 319//319
f 358//358 319//319 320//320
f 360//360 359//359 363//363
f 360//360 363//363 361//361
f 361//361 363//363 364//364
f 361//361 364//364 362//362
f 363//363 359//359 365//365
f 363//363 365//365 364//364
f 364//364 365//365 366//366
f 364//364 366//366 362//362
f 365//365 359//359 367//367
f 365//365 367//367 366//366
f 366//366 367//367 368//368
f 366//366 368//368 362//362
f 367//367 359//359 369//369
f 367//367 369//369 368//368
f 368//368 369//369 370//370
f 368//368 370//370 362//362
f 369//369 359//359 371//371
f 369//369 371//371 370//370
f 370//370 371//371 372//372
f 370//370 372//372 362//362
f 371//371 359//359 373//373
f 371//371 373//373 372//372
f 372//372 373//373 374//374
f 372//372 374//374 362//362
f 373//373 359//359 375//375
f 373//373 375//375 374//374
f 374//374 375//375 376//376
f 374//374 376//376 362//362
f 375//375 359//359 377//377
f 375//375 377//377 376//376
f 376//376 377//377 378//378
f 376//376 378//378 362//362
f 377//377 359//359 379//379
f 377//377 379//379 378//378
f 378//378 379//379 380//380
f 378//378 380//380 362//362
f 379//379 359//359 381//381
f 379//379 381//381 380//380
f 380//380 381//381 382//382
f 380//380 382//382 362//362
f 381//381 359//359 383//383
f 381//381 383//383 382//382
f 382//382 383//383 384//384
f 382//382 384//384 362//362
f 383//383 359//359 385//385
f 383//383 385//385 384//384
f 384//384 385//385 386//386
f 384//384 386//386 362//362
f 385//385 359//359 387//387
f 385//385 387//387 386//386
f 386//386 387//387 388//388
f 386//386 388//388 362//362
f 387//387 359//359 389//389
f 387//387 389//389 388//388
f 388//388 389//389 390//390
f 388//388 390//390 362//362
f 389//389 359//359 391//391
f 389//389 391//391 390//390
f 390//390 391//391 392//392
f 390//390 392//392 362//362
f 391//391 359//359 360//360
f 391//391 360//360 392//392
f 392//392 360//360 361//361
f 392//392 361//361 362//362

