# https://github.com/mikedh/trimesh
v -0.21029244 0.45129937 0.00000000
v 0.21029244 0.45129937 0.00000000
v -0.21029244 -0.33129937 0.00000000
v 0.21029244 -0.33129937 0.00000000
v 0.00000000 -0.18183631 0.25519524
v 0.00000000 0.30183631 0.25519524
v 0.00000000 -0.18183631 -0.25519524
v 0.00000000 0.30183631 -0.25519524
v 0.34026032 0.06000000 -0.15771933
v 0.34026032 0.06000000 0.15771933
v -0.34026032 0.06000000 -0.15771933
v -0.34026032 0.06000000 0.15771933
v 0.00000000 0.52000000 0.00000000
v 0.00000000 -0.40000000 0.00000000
v -0.12360680 -0.31214782 0.15000000
v 0.12360680 -0.31214782 0.15000000
v -0.12360680 0.43214782 0.15000000
v 0.12360680 0.43214782 0.15000000
v 0.00000000 0.06000000 0.30000000
v -0.12360680 -0.31214782 -0.15000000
v 0.12360680 -0.31214782 -0.15000000
v -0.12360680 0.43214782 -0.15000000
v 0.12360680 0.43214782 -0.15000000
v 0.00000000 0.06000000 -0.30000000
v 0.32360680 0.29000000 -0.09270510
v 0.32360680 -0.17000000 -0.09270510
v 0.20000000 -0.08214782 -0.24270510
v 0.20000000 0.20214782 -0.24270510
v 0.32360680 0.29000000 0.09270510
v 0.32360680 -0.17000000 0.09270510
v 0.20000000 -0.08214782 0.24270510
v 0.20000000 0.20214782 0.24270510
v 0.40000000 0.06000000 0.00000000
v -0.32360680 0.29000000 -0.09270510
v -0.32360680 -0.17000000 -0.09270510
v -0.20000000 -0.08214782 -0.24270510
v -0.20000000 0.20214782 -0.24270510
v -0.32360680 0.29000000 0.09270510
v -0.32360680 -0.17000000 0.09270510
v -0.20000000 -0.08214782 0.24270510
v -0.20000000 0.20214782 0.24270510
v -0.40000000 0.06000000 0.00000000
v -0.10930661 0.50249164 0.00000000
v 0.10930661 0.50249164 0.00000000
v -0.10930661 -0.38249164 0.00000000
v 0.10930661 -0.38249164 0.00000000
v -0.17355543 -0.33682750 0.07796757
v -0.06424881 -0.25913902 0.21061393
v -0.06498394 -0.37748600 0.07885967
v 0.17355543 -0.33682750 0.07796757
v 0.06424881 -0.25913902 0.21061393
v 0.06498394 -0.37748600 0.07885967
v 0.00000000 -0.33129937 0.15771933
v -0.17355543 0.45682750 0.07796757
v -0.06424881 0.37913902 0.21061393
v -0.06498394 0.49748600 0.07885967
v 0.17355543 0.45682750 0.07796757
v 0.06424881 0.37913902 0.21061393
v 0.06498394 0.49748600 0.07885967
v 0.00000000 0.45129937 0.15771933
v 0.00000000 -0.06570260 0.28858151
v 0.00000000 0.18570260 0.28858151
v -0.17355543 -0.33682750 -0.07796757
v -0.06424881 -0.25913902 -0.21061393
v -0.06498394 -0.37748600 -0.07885967
v 0.17355543 -0.33682750 -0.07796757
v 0.06424881 -0.25913902 -0.21061393
v 0.06498394 -0.37748600 -0.07885967
v 0.00000000 -0.33129937 -0.15771933
v -0.17355543 0.45682750 -0.07796757
v -0.06424881 0.37913902 -0.21061393
v -0.06498394 0.49748600 -0.07885967
v 0.17355543 0.45682750 -0.07796757
v 0.06424881 0.37913902 -0.21061393
v 0.06498394 0.49748600 -0.07885967
v 0.00000000 0.45129937 -0.15771933
v 0.00000000 -0.06570260 -0.28858151
v 0.00000000 0.18570260 -0.28858151
v 0.27751219 0.38294136 -0.04818661
v 0.34506739 0.17955028 -0.13016657
v 0.23511410 0.37656784 -0.12759762
v 0.27751219 -0.26294136 -0.04818661
v 0.34506739 -0.05955028 -0.13016657
v 0.23511410 -0.25656784 -0.12759762
v 0.10395677 -0.13958874 -0.25880054
v 0.28081858 -0.01388614 -0.20813414
v 0.17013016 -0.21038122 -0.20645729
v 0.10514622 -0.01473153 -0.28531695
v 0.27527638 -0.13564969 -0.17633558
v 0.10395677 0.25958874 -0.25880054
v 0.28081858 0.13388614 -0.20813414
v 0.17013016 0.33038122 -0.20645729
v 0.10514622 0.13473153 -0.28531695
v 0.27527638 0.25564969 -0.17633558
v 0.21029244 0.06000000 -0.25519524
v 0.27751219 0.38294136 0.04818661
v 0.34506739 0.17955028 0.13016657
v 0.23511410 0.37656784 0.12759762
v 0.34026032 0.30183631 0.00000000
v 0.27751219 -0.26294136 0.04818661
v 0.34506739 -0.05955028 0.13016657
v 0.23511410 -0.25656784 0.12759762
v 0.34026032 -0.18183631 0.00000000
v 0.10395677 -0.13958874 0.25880054
v 0.28081858 -0.01388614 0.20813414
v 0.17013016 -0.21038122 0.20645729
v 0.10514622 -0.01473153 0.28531695
v 0.27527638 -0.13564969 0.17633558
v 0.10395677 0.25958874 0.25880054
v 0.28081858 0.13388614 0.20813414
v 0.17013016 0.33038122 0.20645729
v 0.10514622 0.13473153 0.28531695
v 0.27527638 0.25564969 0.17633558
v 0.21029244 0.06000000 0.25519524
v 0.38477534 0.06000000 -0.08197996
v 0.38477534 0.06000000 0.08197996
v 0.38042261 0.18091816 -0.04873795
v 0.38042261 -0.06091816 -0.04873795
v 0.38042261 0.18091816 0.04873795
v 0.38042261 -0.06091816 0.04873795
v -0.27751219 0.38294136 -0.04818661
v -0.34506739 0.17955028 -0.13016657
v -0.23511410 0.37656784 -0.12759762
v -0.27751219 -0.26294136 -0.04818661
v -0.34506739 -0.05955028 -0.13016657
v -0.23511410 -0.25656784 -0.12759762
v -0.10395677 -0.13958874 -0.25880054
v -0.28081858 -0.01388614 -0.20813414
v -0.17013016 -0.21038122 -0.20645729
v -0.10514622 -0.01473153 -0.28531695
v -0.27527638 -0.13564969 -0.17633558
v -0.10395677 0.25958874 -0.25880054
v -0.28081858 0.13388614 -0.20813414
v -0.17013016 0.33038122 -0.20645729
v -0.10514622 0.13473153 -0.28531695
v -0.27527638 0.25564969 -0.17633558
v -0.21029244 0.06000000 -0.25519524
v -0.27751219 0.38294136 0.04818661
v -0.34506739 0.17955028 0.13016657
v -0.23511410 0.37656784 0.12759762
v -0.34026032 0.30183631 0.00000000
v -0.27751219 -0.26294136 0.04818661
v -0.34506739 -0.05955028 0.13016657
v -0.23511410 -0.25656784 0.12759762
v -0.34026032 -0.18183631 0.00000000
v -0.10395677 -0.13958874 0.25880054
v -0.28081858 -0.01388614 0.20813414
v -0.17013016 -0.21038122 0.20645729
v -0.10514622 -0.01473153 0.28531695
v -0.27527638 -0.13564969 0.17633558
v -0.10395677 0.25958874 0.25880054
v -0.28081858 0.13388614 0.20813414
v -0.17013016 0.33038122 0.20645729
v -0.10514622 0.13473153 0.28531695
v -0.27527638 0.25564969 0.17633558
v -0.21029244 0.06000000 0.25519524
v -0.38477534 0.06000000 -0.08197996
v -0.38477534 0.06000000 0.08197996
v -0.38042261 0.18091816 -0.04873795
v -0.38042261 -0.06091816 -0.04873795
v -0.38042261 0.18091816 0.04873795
v -0.38042261 -0.06091816 0.04873795
v -0.18926320 -0.02675269 0.08000000
v 0.18926320 -0.02675269 0.08000000
v -0.18926320 -0.67324731 0.08000000
v 0.18926320 -0.67324731 0.08000000
v 0.00000000 -0.54977782 0.35220826
v 0.00000000 -0.15022218 0.35220826
v 0.00000000 -0.54977782 -0.19220826
v 0.00000000 -0.15022218 -0.19220826
v 0.30623429 -0.35000000 -0.08823396
v 0.30623429 -0.35000000 0.24823396
v -0.30623429 -0.35000000 -0.08823396
v -0.30623429 -0.35000000 0.24823396
v 0.00000000 0.03000000 0.08000000
v 0.00000000 -0.73000000 0.08000000
v -0.11124612 -0.65742646 0.24000000
v 0.11124612 -0.65742646 0.24000000
v -0.11124612 -0.04257354 0.24000000
v 0.11124612 -0.04257354 0.24000000
v 0.00000000 -0.35000000 0.40000000
v -0.11124612 -0.65742646 -0.08000000
v 0.11124612 -0.65742646 -0.08000000
v -0.11124612 -0.04257354 -0.08000000
v 0.11124612 -0.04257354 -0.08000000
v 0.00000000 -0.35000000 -0.24000000
v 0.29124612 -0.16000000 -0.01888544
v 0.29124612 -0.54000000 -0.01888544
v 0.18000000 -0.46742646 -0.17888544
v 0.18000000 -0.23257354 -0.17888544
v 0.29124612 -0.16000000 0.17888544
v 0.29124612 -0.54000000 0.17888544
v 0.18000000 -0.46742646 0.33888544
v 0.18000000 -0.23257354 0.33888544
v 0.36000000 -0.35000000 0.08000000
v -0.29124612 -0.16000000 -0.01888544
v -0.29124612 -0.54000000 -0.01888544
v -0.18000000 -0.46742646 -0.17888544
v -0.18000000 -0.23257354 -0.17888544
v -0.29124612 -0.16000000 0.17888544
v -0.29124612 -0.54000000 0.17888544
v -0.18000000 -0.46742646 0.33888544
v -0.18000000 -0.23257354 0.33888544
v -0.36000000 -0.35000000 0.08000000
v -0.09837595 0.01553658 0.08000000
v 0.09837595 0.01553658 0.08000000
v -0.09837595 -0.71553658 0.08000000
v 0.09837595 -0.71553658 0.08000000
v -0.15619988 -0.67781402 0.16316541
v -0.05782393 -0.61363658 0.30465486
v -0.05848555 -0.71140148 0.16411698
v 0.15619988 -0.67781402 0.16316541
v 0.05782393 -0.61363658 0.30465486
v 0.05848555 -0.71140148 0.16411698
v 0.00000000 -0.67324731 0.24823396
v -0.15619988 -0.02218598 0.16316541
v -0.05782393 -0.08636342 0.30465486
v -0.05848555 0.01140148 0.16411698
v 0.15619988 -0.02218598 0.16316541
v 0.05782393 -0.08636342 0.30465486
v 0.05848555 0.01140148 0.16411698
v 0.00000000 -0.02675269 0.24823396
v 0.00000000 -0.45384128 0.38782027
v 0.00000000 -0.24615872 0.38782027
v -0.15619988 -0.67781402 -0.00316541
v -0.05782393 -0.61363658 -0.14465486
v -0.05848555 -0.71140148 -0.00411698
v 0.15619988 -0.67781402 -0.00316541
v 0.05782393 -0.61363658 -0.14465486
v 0.05848555 -0.71140148 -0.00411698
v 0.00000000 -0.67324731 -0.08823396
v -0.15619988 -0.02218598 -0.00316541
v -0.05782393 -0.08636342 -0.14465486
v -0.05848555 0.01140148 -0.00411698
v 0.15619988 -0.02218598 -0.00316541
v 0.05782393 -0.08636342 -0.14465486
v 0.05848555 0.01140148 -0.00411698
v 0.00000000 -0.02675269 -0.08823396
v 0.00000000 -0.45384128 -0.22782027
v 0.00000000 -0.24615872 -0.22782027
v 0.24976097 -0.08322235 0.02860095
v 0.31056065 -0.25124107 -0.05884434
v 0.21160269 -0.08848744 -0.05610413
v 0.24976097 -0.61677765 0.02860095
v 0.31056065 -0.44875893 -0.05884434
v 0.21160269 -0.61151256 -0.05610413
v 0.09356109 -0.51487765 -0.19605391
v 0.25273672 -0.41103637 -0.14200975
v 0.15311715 -0.57335840 -0.14022111
v 0.09463160 -0.41173474 -0.22433809
v 0.24774875 -0.51162365 -0.10809128
v 0.09356109 -0.18512235 -0.19605391
v 0.25273672 -0.28896363 -0.14200975
v 0.15311715 -0.12664160 -0.14022111
v 0.09463160 -0.28826526 -0.22433809
v 0.24774875 -0.18837635 -0.10809128
v 0.18926320 -0.35000000 -0.19220826
v 0.24976097 -0.08322235 0.13139905
v 0.31056065 -0.25124107 0.21884434
v 0.21160269 -0.08848744 0.21610413
v 0.30623429 -0.15022218 0.08000000
v 0.24976097 -0.61677765 0.13139905
v 0.31056065 -0.44875893 0.21884434
v 0.21160269 -0.61151256 0.21610413
v 0.30623429 -0.54977782 0.08000000
v 0.09356109 -0.51487765 0.35605391
v 0.25273672 -0.41103637 0.30200975
v 0.15311715 -0.57335840 0.30022111
v 0.09463160 -0.41173474 0.38433809
v 0.24774875 -0.51162365 0.26809128
v 0.09356109 -0.18512235 0.35605391
v 0.25273672 -0.28896363 0.30200975
v 0.15311715 -0.12664160 0.30022111
v 0.09463160 -0.28826526 0.38433809
v 0.24774875 -0.18837635 0.26809128
v 0.18926320 -0.35000000 0.35220826
v 0.34629781 -0.35000000 -0.00744529
v 0.34629781 -0.35000000 0.16744529
v 0.34238035 -0.25011109 0.02801285
v 0.34238035 -0.44988891 0.02801285
v 0.34238035 -0.25011109 0.13198715
v 0.34238035 -0.44988891 0.13198715
v -0.24976097 -0.08322235 0.02860095
v -0.31056065 -0.25124107 -0.05884434
v -0.21160269 -0.08848744 -0.05610413
v -0.24976097 -0.61677765 0.02860095
v -0.31056065 -0.44875893 -0.05884434
v -0.21160269 -0.61151256 -0.05610413
v -0.09356109 -0.51487765 -0.19605391
v -0.25273672 -0.41103637 -0.14200975
v -0.15311715 -0.57335840 -0.14022111
v -0.09463160 -0.41173474 -0.22433809
v -0.24774875 -0.51162365 -0.10809128
v -0.09356109 -0.18512235 -0.19605391
v -0.25273672 -0.28896363 -0.14200975
v -0.15311715 -0.12664160 -0.14022111
v -0.09463160 -0.28826526 -0.22433809
v -0.24774875 -0.18837635 -0.10809128
v -0.18926320 -0.35000000 -0.19220826
v -0.24976097 -0.08322235 0.13139905
v -0.31056065 -0.25124107 0.21884434
v -0.21160269 -0.08848744 0.21610413
v -0.30623429 -0.15022218 0.08000000
v -0.24976097 -0.61677765 0.13139905
v -0.31056065 -0.44875893 0.21884434
v -0.21160269 -0.61151256 0.21610413
v -0.30623429 -0.54977782 0.08000000
v -0.09356109 -0.51487765 0.35605391
v -0.25273672 -0.41103637 0.30200975
v -0.15311715 -0.57335840 0.30022111
v -0.09463160 -0.41173474 0.38433809
v -0.24774875 -0.51162365 0.26809128
v -0.09356109 -0.18512235 0.35605391
v -0.25273672 -0.28896363 0.30200975
v -0.15311715 -0.12664160 0.30022111
v -0.09463160 -0.28826526 0.38433809
v -0.24774875 -0.18837635 0.26809128
v -0.18926320 -0.35000000 0.35220826
v -0.34629781 -0.35000000 -0.00744529
v -0.34629781 -0.35000000 0.16744529
v -0.34238035 -0.25011109 0.02801285
v -0.34238035 -0.44988891 0.02801285
v -0.34238035 -0.25011109 0.13198715
v -0.34238035 -0.44988891 0.13198715
v -0.14720471 0.59519524 -0.02000000
v 0.14720471 0.59519524 -0.02000000
v -0.14720471 0.08480476 -0.02000000
v 0.14720471 0.08480476 -0.02000000
v 0.00000000 0.18228067 0.26922127
v 0.00000000 0.49771933 0.26922127
v 0.00000000 0.18228067 -0.30922127
v 0.00000000 0.49771933 -0.30922127
v 0.23818223 0.34000000 -0.19874858
v 0.23818223 0.34000000 0.15874858
v -0.23818223 0.34000000 -0.19874858
v -0.23818223 0.34000000 0.15874858
v 0.00000000 0.64000000 -0.02000000
v 0.00000000 0.04000000 -0.02000000
v -0.08652476 0.09729490 0.15000000
v 0.08652476 0.09729490 0.15000000
v -0.08652476 0.58270510 0.15000000
v 0.08652476 0.58270510 0.15000000
v 0.00000000 0.34000000 0.32000000
v -0.08652476 0.09729490 -0.19000000
v 0.08652476 0.09729490 -0.19000000
v -0.08652476 0.58270510 -0.19000000
v 0.08652476 0.58270510 -0.19000000
v 0.00000000 0.34000000 -0.36000000
v 0.22652476 0.49000000 -0.12506578
v 0.22652476 0.19000000 -0.12506578
v 0.14000000 0.24729490 -0.29506578
v 0.14000000 0.43270510 -0.29506578
v 0.22652476 0.49000000 0.08506578
v 0.22652476 0.19000000 0.08506578
v 0.14000000 0.24729490 0.25506578
v 0.14000000 0.43270510 0.25506578
v 0.28000000 0.34000000 -0.02000000
v -0.22652476 0.49000000 -0.12506578
v -0.22652476 0.19000000 -0.12506578
v -0.14000000 0.24729490 -0.29506578
v -0.14000000 0.43270510 -0.29506578
v -0.22652476 0.49000000 0.08506578
v -0.22652476 0.19000000 0.08506578
v -0.14000000 0.24729490 0.25506578
v -0.14000000 0.43270510 0.25506578
v -0.28000000 0.34000000 -0.02000000
v -0.07651463 0.62858151 -0.02000000
v 0.07651463 0.62858151 -0.02000000
v -0.07651463 0.05141849 -0.02000000
v 0.07651463 0.05141849 -0.02000000
v -0.12148880 0.08119946 0.06836325
v -0.04497417 0.13186586 0.21869579
v -0.04548876 0.05468305 0.06937429
v 0.12148880 0.08119946 0.06836325
v 0.04497417 0.13186586 0.21869579
v 0.04548876 0.05468305 0.06937429
v 0.00000000 0.08480476 0.15874858
v -0.12148880 0.59880054 0.06836325
v -0.04497417 0.54813414 0.21869579
v -0.04548876 0.62531695 0.06937429
v 0.12148880 0.59880054 0.06836325
v 0.04497417 0.54813414 0.21869579
v 0.04548876 0.62531695 0.06937429
v 0.00000000 0.59519524 0.15874858
v 0.00000000 0.25802004 0.30705904
v 0.00000000 0.42197996 0.30705904
v -0.12148880 0.08119946 -0.10836325
v -0.04497417 0.13186586 -0.25869579
v -0.04548876 0.05468305 -0.10937429
v 0.12148880 0.08119946 -0.10836325
v 0.04497417 0.13186586 -0.25869579
v 0.04548876 0.05468305 -0.10937429
v 0.00000000 0.08480476 -0.19874858
v -0.12148880 0.59880054 -0.10836325
v -0.04497417 0.54813414 -0.25869579
v -0.04548876 0.62531695 -0.10937429
v 0.12148880 0.59880054 -0.10836325
v 0.04497417 0.54813414 -0.25869579
v 0.04548876 0.62531695 -0.10937429
v 0.00000000 0.59519524 -0.19874858
v 0.00000000 0.25802004 -0.34705904
v 0.00000000 0.42197996 -0.34705904
v 0.19425853 0.55061393 -0.07461149
v 0.24154717 0.41796757 -0.16752211
v 0.16457987 0.54645729 -0.16461064
v 0.19425853 0.12938607 -0.07461149
v 0.24154717 0.26203243 -0.16752211
v 0.16457987 0.13354271 -0.16461064
v 0.07276974 0.20983343 -0.31330728
v 0.19657300 0.29181339 -0.25588536
v 0.11909111 0.16366442 -0.25398493
v 0.07360236 0.29126205 -0.34335922
v 0.19269347 0.21240238 -0.21984699
v 0.07276974 0.47016657 -0.31330728
v 0.19657300 0.38818661 -0.25588536
v 0.11909111 0.51633558 -0.25398493
v 0.07360236 0.38873795 -0.34335922
v 0.19269347 0.46759762 -0.21984699
v 0.14720471 0.34000000 -0.30922127
v 0.19425853 0.55061393 0.03461149
v 0.24154717 0.41796757 0.12752211
v 0.16457987 0.54645729 0.12461064
v 0.23818223 0.49771933 -0.02000000
v 0.19425853 0.12938607 0.03461149
v 0.24154717 0.26203243 0.12752211
v 0.16457987 0.13354271 0.12461064
v 0.23818223 0.18228067 -0.02000000
v 0.07276974 0.20983343 0.27330728
v 0.19657300 0.29181339 0.21588536
v 0.11909111 0.16366442 0.21398493
v 0.07360236 0.29126205 0.30335922
v 0.19269347 0.21240238 0.17984699
v 0.07276974 0.47016657 0.27330728
v 0.19657300 0.38818661 0.21588536
v 0.11909111 0.51633558 0.21398493
v 0.07360236 0.38873795 0.30335922
v 0.19269347 0.46759762 0.17984699
v 0.14720471 0.34000000 0.26922127
v 0.26934274 0.34000000 -0.11291062
v 0.26934274 0.34000000 0.07291062
v 0.26629582 0.41885967 -0.07523635
v 0.26629582 0.26114033 -0.07523635
v 0.26629582 0.41885967 0.03523635
v 0.26629582 0.26114033 0.03523635
v -0.19425853 0.55061393 -0.07461149
v -0.24154717 0.41796757 -0.16752211
v -0.16457987 0.54645729 -0.16461064
v -0.19425853 0.12938607 -0.07461149
v -0.24154717 0.26203243 -0.16752211
v -0.16457987 0.13354271 -0.16461064
v -0.07276974 0.20983343 -0.31330728
v -0.19657300 0.29181339 -0.25588536
v -0.11909111 0.16366442 -0.25398493
v -0.07360236 0.29126205 -0.34335922
v -0.19269347 0.21240238 -0.21984699
v -0.07276974 0.47016657 -0.31330728
v -0.19657300 0.38818661 -0.25588536
v -0.11909111 0.51633558 -0.25398493
v -0.07360236 0.38873795 -0.34335922
v -0.19269347 0.46759762 -0.21984699
v -0.14720471 0.34000000 -0.30922127
v -0.19425853 0.55061393 0.03461149
v -0.24154717 0.41796757 0.12752211
v -0.16457987 0.54645729 0.12461064
v -0.23818223 0.49771933 -0.02000000
v -0.19425853 0.12938607 0.03461149
v -0.24154717 0.26203243 0.12752211
v -0.16457987 0.13354271 0.12461064
v -0.23818223 0.18228067 -0.02000000
v -0.07276974 0.20983343 0.27330728
v -0.19657300 0.29181339 0.21588536
v -0.11909111 0.16366442 0.21398493
v -0.07360236 0.29126205 0.30335922
v -0.19269347 0.21240238 0.17984699
v -0.07276974 0.47016657 0.27330728
v -0.19657300 0.38818661 0.21588536
v -0.11909111 0.51633558 0.21398493
v -0.07360236 0.38873795 0.30335922
v -0.19269347 0.46759762 0.17984699
v -0.14720471 0.34000000 0.26922127
v -0.26934274 0.34000000 -0.11291062
v -0.26934274 0.34000000 0.07291062
v -0.26629582 0.41885967 -0.07523635
v -0.26629582 0.26114033 -0.07523635
v -0.26629582 0.41885967 0.03523635
v -0.26629582 0.26114033 0.03523635
v -0.47514622 0.41311715 0.00000000
v -0.26485378 0.41311715 0.00000000
v -0.47514622 0.10688285 0.00000000
v -0.26485378 0.10688285 0.00000000
v -0.37000000 0.16536840 0.20415619
v -0.37000000 0.35463160 0.20415619
v -0.37000000 0.16536840 -0.20415619
v -0.37000000 0.35463160 -0.20415619
v -0.19986984 0.26000000 -0.12617547
v -0.19986984 0.26000000 0.12617547
v -0.54013016 0.26000000 -0.12617547
v -0.54013016 0.26000000 0.12617547
v -0.37000000 0.44000000 0.00000000
v -0.37000000 0.08000000 0.00000000
v -0.43180340 0.11437694 0.12000000
v -0.30819660 0.11437694 0.12000000
v -0.43180340 0.40562306 0.12000000
v -0.30819660 0.40562306 0.12000000
v -0.37000000 0.26000000 0.24000000
v -0.43180340 0.11437694 -0.12000000
v -0.30819660 0.11437694 -0.12000000
v -0.43180340 0.40562306 -0.12000000
v -0.30819660 0.40562306 -0.12000000
v -0.37000000 0.26000000 -0.24000000
v -0.20819660 0.35000000 -0.07416408
v -0.20819660 0.17000000 -0.07416408
v -0.27000000 0.20437694 -0.19416408
v -0.27000000 0.31562306 -0.19416408
v -0.20819660 0.35000000 0.07416408
v -0.20819660 0.17000000 0.07416408
v -0.27000000 0.20437694 0.19416408
v -0.27000000 0.31562306 0.19416408
v -0.17000000 0.26000000 0.00000000
v -0.53180340 0.35000000 -0.07416408
v -0.53180340 0.17000000 -0.07416408
v -0.47000000 0.20437694 -0.19416408
v -0.47000000 0.31562306 -0.19416408
v -0.53180340 0.35000000 0.07416408
v -0.53180340 0.17000000 0.07416408
v -0.47000000 0.20437694 0.19416408
v -0.47000000 0.31562306 0.19416408
v -0.57000000 0.26000000 0.00000000
v 0.24536840 0.38610413 0.00000000
v 0.43463160 0.38610413 0.00000000
v 0.24536840 0.11389587 0.00000000
v 0.43463160 0.11389587 0.00000000
v 0.34000000 0.16588302 0.18714318
v 0.34000000 0.33411698 0.18714318
v 0.34000000 0.16588302 -0.18714318
v 0.34000000 0.33411698 -0.18714318
v 0.49311715 0.25000000 -0.11566084
v 0.49311715 0.25000000 0.11566084
v 0.18688285 0.25000000 -0.11566084
v 0.18688285 0.25000000 0.11566084
v 0.34000000 0.41000000 0.00000000
v 0.34000000 0.09000000 0.00000000
v 0.28437694 0.12055728 0.11000000
v 0.39562306 0.12055728 0.11000000
v 0.28437694 0.37944272 0.11000000
v 0.39562306 0.37944272 0.11000000
v 0.34000000 0.25000000 0.22000000
v 0.28437694 0.12055728 -0.11000000
v 0.39562306 0.12055728 -0.11000000
v 0.28437694 0.37944272 -0.11000000
v 0.39562306 0.37944272 -0.11000000
v 0.34000000 0.25000000 -0.22000000
v 0.48562306 0.33000000 -0.06798374
v 0.48562306 0.17000000 -0.06798374
v 0.43000000 0.20055728 -0.17798374
v 0.43000000 0.29944272 -0.17798374
v 0.48562306 0.33000000 0.06798374
v 0.48562306 0.17000000 0.06798374
v 0.43000000 0.20055728 0.17798374
v 0.43000000 0.29944272 0.17798374
v 0.52000000 0.25000000 0.00000000
v 0.19437694 0.33000000 -0.06798374
v 0.19437694 0.17000000 -0.06798374
v 0.25000000 0.20055728 -0.17798374
v 0.25000000 0.29944272 -0.17798374
v 0.19437694 0.33000000 0.06798374
v 0.19437694 0.17000000 0.06798374
v 0.25000000 0.20055728 0.17798374
v 0.25000000 0.29944272 0.17798374
v 0.16000000 0.25000000 0.00000000
vn -0.57735318 0.81649452 0.00000000
vn 0.57735318 0.81649452 0.00000000
vn -0.57735318 -0.81649452 0.00000000
vn 0.57735318 -0.81649452 -0.00000000
vn 0.00000000 -0.37948978 0.92519593
vn 0.00000000 0.37948978 0.92519593
vn -0.00000000 -0.37948978 -0.92519593
vn 0.00000000 0.37948978 -0.92519593
vn 0.77611409 0.00000000 -0.63059251
vn 0.77611409 -0.00000000 0.63059251
vn -0.77611409 0.00000000 -0.63059251
vn -0.77611409 0.00000000 0.63059251
vn -0.00000000 1.00000000 0.00000000
vn 0.00000000 -1.00000000 0.00000000
vn -0.30407855 -0.69976618 0.64642364
vn 0.30407855 -0.69976618 0.64642364
vn -0.30407855 0.69976618 0.64642364
vn 0.30407855 0.69976618 0.64642364
vn -0.00000000 0.00000000 1.00000000
vn -0.30407855 -0.69976618 -0.64642364
vn 0.30407855 -0.69976618 -0.64642364
vn -0.30407855 0.69976618 -0.64642364
vn 0.30407855 0.69976618 -0.64642364
vn 0.00000000 0.00000000 -1.00000000
vn 0.80582505 0.43503850 -0.40173061
vn 0.80582505 -0.43503850 -0.40173061
vn 0.41482054 -0.22461397 -0.88174400
vn 0.41482054 0.22461397 -0.88174400
vn 0.80582505 0.43503850 0.40173061
vn 0.80582505 -0.43503850 0.40173061
vn 0.41482054 -0.22461397 0.88174400
vn 0.41482054 0.22461397 0.88174400
vn 1.00000000 -0.00000000 -0.00000000
vn -0.80582505 0.43503850 -0.40173061
vn -0.80582505 -0.43503850 -0.40173061
vn -0.41482054 -0.22461397 -0.88174400
vn -0.41482054 0.22461397 -0.88174400
vn -0.80582505 0.43503850 0.40173061
vn -0.80582505 -0.43503850 0.40173061
vn -0.41482054 -0.22461397 0.88174400
vn -0.41482054 0.22461397 0.88174400
vn -1.00000000 0.00000000 -0.00000000
vn -0.31226226 0.94999594 0.00000000
vn 0.31226226 0.94999594 0.00000000
vn -0.31226226 -0.94999594 0.00000000
vn 0.31226226 -0.94999594 0.00000000
vn -0.46379321 -0.80913024 0.36083807
vn -0.14273548 -0.54294607 0.82754828
vn -0.16762262 -0.90921170 0.38109938
vn 0.46379321 -0.80913024 0.36083807
vn 0.14273548 -0.54294607 0.82754828
vn 0.16762262 -0.90921170 0.38109938
vn -0.00000000 -0.74327205 0.66898929
vn -0.46379321 0.80913024 0.36083807
vn -0.14273548 0.54294607 0.82754828
vn -0.16762262 0.90921170 0.38109938
vn 0.46379321 0.80913024 0.36083807
vn 0.14273548 0.54294607 0.82754828
vn 0.16762262 0.90921170 0.38109938
vn 0.00000000 0.74327205 0.66898929
vn 0.00000000 -0.18665480 0.98242556
vn -0.00000000 0.18665480 0.98242556
vn -0.46379321 -0.80913024 -0.36083807
vn -0.14273548 -0.54294607 -0.82754828
vn -0.16762262 -0.90921170 -0.38109938
vn 0.46379321 -0.80913024 -0.36083807
vn 0.14273548 -0.54294607 -0.82754828
vn 0.16762262 -0.90921170 -0.38109938
vn 0.00000000 -0.74327205 -0.66898929
vn -0.46379321 0.80913024 -0.36083807
vn -0.14273548 0.54294607 -0.82754828
vn -0.16762262 0.90921170 -0.38109938
vn 0.46379321 0.80913024 -0.36083807
vn 0.14273548 0.54294607 -0.82754828
vn 0.16762262 0.90921170 -0.38109938
vn -0.00000000 0.74327205 -0.66898929
vn 0.00000000 -0.18665480 -0.98242556
vn -0.00000000 0.18665480 -0.98242556
vn 0.73004594 0.64804660 -0.21695280
vn 0.81467673 0.21270482 -0.53949836
vn 0.58022168 0.59168423 -0.55968972
vn 0.73004594 -0.64804660 -0.21695280
vn 0.81467673 -0.21270482 -0.53949836
vn 0.58022168 -0.59168423 -0.55968972
vn 0.21083874 -0.30987048 -0.92710696
vn 0.60732677 -0.12140889 -0.78512042
vn 0.38760536 -0.45931808 -0.79924276
vn 0.20883506 -0.10420207 -0.97238359
vn 0.62203195 -0.34675796 -0.70202220
vn 0.21083874 0.30987048 -0.92710696
vn 0.60732677 0.12140889 -0.78512042
vn 0.38760536 0.45931808 -0.79924276
vn 0.20883506 0.10420207 -0.97238359
vn 0.62203195 0.34675796 -0.70202220
vn 0.41807347 0.00000000 -0.90841322
vn 0.73004594 0.64804660 0.21695280
vn 0.81467673 0.21270482 0.53949836
vn 0.58022168 0.59168423 0.55968972
vn 0.88445173 0.46663168 -0.00000000
vn 0.73004594 -0.64804660 0.21695280
vn 0.81467673 -0.21270482 0.53949836
vn 0.58022168 -0.59168423 0.55968972
vn 0.88445173 -0.46663168 -0.00000000
vn 0.21083874 -0.30987048 0.92710696
vn 0.60732677 -0.12140889 0.78512042
vn 0.38760536 -0.45931808 0.79924276
vn 0.20883506 -0.10420207 0.97238359
vn 0.62203195 -0.34675796 0.70202220
vn 0.21083874 0.30987048 0.92710696
vn 0.60732677 0.12140889 0.78512042
vn 0.38760536 0.45931808 0.79924276
vn 0.20883506 0.10420207 0.97238359
vn 0.62203195 0.34675796 0.70202220
vn 0.41807347 -0.00000000 0.90841322
vn 0.93681005 0.00000000 -0.34983844
vn 0.93681005 -0.00000000 0.34983844
vn 0.95142387 0.23389175 -0.20021805
vn 0.95142387 -0.23389175 -0.20021805
vn 0.95142387 0.23389175 0.20021805
vn 0.95142387 -0.23389175 0.20021805
vn -0.73004594 0.64804660 -0.21695280
vn -0.81467673 0.21270482 -0.53949836
vn -0.58022168 0.59168423 -0.55968972
vn -0.73004594 -0.64804660 -0.21695280
vn -0.81467673 -0.21270482 -0.53949836
vn -0.58022168 -0.59168423 -0.55968972
vn -0.21083874 -0.30987048 -0.92710696
vn -0.60732677 -0.12140889 -0.78512042
vn -0.38760536 -0.45931808 -0.79924276
vn -0.20883506 -0.10420207 -0.97238359
vn -0.62203195 -0.34675796 -0.70202220
vn -0.21083874 0.30987048 -0.92710696
vn -0.60732677 0.12140889 -0.78512042
vn -0.38760536 0.45931808 -0.79924276
vn -0.20883506 0.10420207 -0.97238359
vn -0.62203195 0.34675796 -0.70202220
vn -0.41807347 -0.00000000 -0.90841322
vn -0.73004594 0.64804660 0.21695280
vn -0.81467673 0.21270482 0.53949836
vn -0.58022168 0.59168423 0.55968972
vn -0.88445173 0.46663168 -0.00000000
vn -0.73004594 -0.64804660 0.21695280
vn -0.81467673 -0.21270482 0.53949836
vn -0.58022168 -0.59168423 0.55968972
vn -0.88445173 -0.46663168 -0.00000000
vn -0.21083874 -0.30987048 0.92710696
vn -0.60732677 -0.12140889 0.78512042
vn -0.38760536 -0.45931808 0.79924276
vn -0.20883506 -0.10420207 0.97238359
vn -0.62203195 -0.34675796 0.70202220
vn -0.21083874 0.30987048 0.92710696
vn -0.60732677 0.12140889 0.78512042
vn -0.38760536 0.45931808 0.79924276
vn -0.20883506 0.10420207 0.97238359
vn -0.62203195 0.34675796 0.70202220
vn -0.41807347 -0.00000000 0.90841322
vn -0.93681005 -0.00000000 -0.34983844
vn -0.93681005 0.00000000 0.34983844
vn -0.95142387 0.23389175 -0.20021805
vn -0.95142387 -0.23389175 -0.20021805
vn -0.95142387 0.23389175 0.20021805
vn -0.95142387 -0.23389175 0.20021805
vn -0.54545347 0.83814111 0.00000000
vn 0.54545347 0.83814111 -0.00000000
vn -0.54545347 -0.83814111 0.00000000
vn 0.54545347 -0.83814111 -0.00000000
vn 0.00000000 -0.46459226 0.88552472
vn 0.00000000 0.46459226 0.88552472
vn -0.00000000 -0.46459226 -0.88552472
vn 0.00000000 0.46459226 -0.88552472
vn 0.82261664 -0.00000000 -0.56859639
vn 0.82261664 0.00000000 0.56859639
vn -0.82261664 0.00000000 -0.56859639
vn -0.82261664 0.00000000 0.56859639
vn 0.00000000 1.00000000 -0.00000000
vn -0.00000000 -1.00000000 -0.00000000
vn -0.30882089 -0.76932378 0.55925895
vn 0.30882089 -0.76932378 0.55925895
vn -0.30882089 0.76932378 0.55925895
vn 0.30882089 0.76932378 0.55925895
vn 0.00000000 0.00000000 1.00000000
vn -0.30882089 -0.76932378 -0.55925895
vn 0.30882089 -0.76932378 -0.55925895
vn -0.30882089 0.76932378 -0.55925895
vn 0.30882089 0.76932378 -0.55925895
vn 0.00000000 0.00000000 -1.00000000
vn 0.80948085 0.47491162 -0.34525310
vn 0.80948085 -0.47491162 -0.34525310
vn 0.46543544 -0.27354297 -0.84175061
vn 0.46543544 0.27354297 -0.84175061
vn 0.80948085 0.47491162 0.34525310
vn 0.80948085 -0.47491162 0.34525310
vn 0.46543544 -0.27354297 0.84175061
vn 0.46543544 0.27354297 0.84175061
vn 1.00000000 0.00000000 0.00000000
vn -0.80948085 0.47491162 -0.34525310
vn -0.80948085 -0.47491162 -0.34525310
vn -0.46543544 -0.27354297 -0.84175061
vn -0.46543544 0.27354297 -0.84175061
vn -0.80948085 0.47491162 0.34525310
vn -0.80948085 -0.47491162 0.34525310
vn -0.46543544 -0.27354297 0.84175061
vn -0.46543544 0.27354297 0.84175061
vn -1.00000000 0.00000000 0.00000000
vn -0.28910853 0.95729633 0.00000000
vn 0.28910853 0.95729633 -0.00000000
vn -0.28910853 -0.95729633 -0.00000000
vn 0.28910853 -0.95729633 0.00000000
vn -0.44690375 -0.84385035 0.29697414
vn -0.15363825 -0.63413954 0.75780098
vn -0.15933989 -0.93701931 0.31081443
vn 0.44690375 -0.84385035 0.29697414
vn 0.15363825 -0.63413954 0.75780098
vn 0.15933989 -0.93701931 0.31081443
vn -0.00000000 -0.81553901 0.57870210
vn -0.44690375 0.84385035 0.29697414
vn -0.15363825 0.63413954 0.75780098
vn -0.15933989 0.93701931 0.31081443
vn 0.44690375 0.84385035 0.29697414
vn 0.15363825 0.63413954 0.75780098
vn 0.15933989 0.93701931 0.31081443
vn 0.00000000 0.81553901 0.57870210
vn 0.00000000 -0.23619782 0.97170499
vn 0.00000000 0.23619782 0.97170499
vn -0.44690375 -0.84385035 -0.29697414
vn -0.15363825 -0.63413954 -0.75780098
vn -0.15933989 -0.93701931 -0.31081443
vn 0.44690375 -0.84385035 -0.29697414
vn 0.15363825 -0.63413954 -0.75780098
vn 0.15933989 -0.93701931 -0.31081443
vn 0.00000000 -0.81553901 -0.57870210
vn -0.44690375 0.84385035 -0.29697414
vn -0.15363825 0.63413954 -0.75780098
vn -0.15933989 0.93701931 -0.31081443
vn 0.44690375 0.84385035 -0.29697414
vn 0.15363825 0.63413954 -0.75780098
vn 0.15933989 0.93701931 -0.31081443
vn -0.00000000 0.81553901 -0.57870210
vn 0.00000000 -0.23619782 -0.97170499
vn 0.00000000 0.23619782 -0.97170499
vn 0.70797583 0.68256514 -0.18131478
vn 0.84564334 0.23995870 -0.47676742
vn 0.58716687 0.64861219 -0.48429051
vn 0.70797583 -0.68256514 -0.18131478
vn 0.84564334 -0.23995870 -0.47676742
vn 0.58716687 -0.64861219 -0.48429051
vn 0.23875407 -0.38188213 -0.89283959
vn 0.66542855 -0.14380085 -0.73247946
vn 0.41728107 -0.53688554 -0.73323285
vn 0.24267755 -0.13183398 -0.96110739
vn 0.66059571 -0.39947420 -0.63563643
vn 0.23875407 0.38188213 -0.89283959
vn 0.66542855 0.14380085 -0.73247946
vn 0.41728107 0.53688554 -0.73323285
vn 0.24267755 0.13183398 -0.96110739
vn 0.66059571 0.39947420 -0.63563643
vn 0.47550286 0.00000000 -0.87971417
vn 0.70797583 0.68256514 0.18131478
vn 0.84564334 0.23995870 0.47676742
vn 0.58716687 0.64861219 0.48429051
vn 0.86762125 0.49722567 -0.00000000
vn 0.70797583 -0.68256514 0.18131478
vn 0.84564334 -0.23995870 0.47676742
vn 0.58716687 -0.64861219 0.48429051
vn 0.86762125 -0.49722567 -0.00000000
vn 0.23875407 -0.38188213 0.89283959
vn 0.66542855 -0.14380085 0.73247946
vn 0.41728107 -0.53688554 0.73323285
vn 0.24267755 -0.13183398 0.96110739
vn 0.66059571 -0.39947420 0.63563643
vn 0.23875407 0.38188213 0.89283959
vn 0.66542855 0.14380085 0.73247946
vn 0.41728107 0.53688554 0.73323285
vn 0.24267755 0.13183398 0.96110739
vn 0.66059571 0.39947420 0.63563643
vn 0.47550286 0.00000000 0.87971417
vn 0.95262021 0.00000000 -0.30416233
vn 0.95262021 0.00000000 0.30416233
vn 0.95170531 0.25461859 -0.17154117
vn 0.95170531 -0.25461859 -0.17154117
vn 0.95170531 0.25461859 0.17154117
vn 0.95170531 -0.25461859 0.17154117
vn -0.70797583 0.68256514 -0.18131478
vn -0.84564334 0.23995870 -0.47676742
vn -0.58716687 0.64861219 -0.48429051
vn -0.70797583 -0.68256514 -0.18131478
vn -0.84564334 -0.23995870 -0.47676742
vn -0.58716687 -0.64861219 -0.48429051
vn -0.23875407 -0.38188213 -0.89283959
vn -0.66542855 -0.14380085 -0.73247946
vn -0.41728107 -0.53688554 -0.73323285
vn -0.24267755 -0.13183398 -0.96110739
vn -0.66059571 -0.39947420 -0.63563643
vn -0.23875407 0.38188213 -0.89283959
vn -0.66542855 0.14380085 -0.73247946
vn -0.41728107 0.53688554 -0.73323285
vn -0.24267755 0.13183398 -0.96110739
vn -0.66059571 0.39947420 -0.63563643
vn -0.47550286 0.00000000 -0.87971417
vn -0.70797583 0.68256514 0.18131478
vn -0.84564334 0.23995870 0.47676742
vn -0.58716687 0.64861219 0.48429051
vn -0.86762125 0.49722567 -0.00000000
vn -0.70797583 -0.68256514 0.18131478
vn -0.84564334 -0.23995870 0.47676742
vn -0.58716687 -0.64861219 0.48429051
vn -0.86762125 -0.49722567 -0.00000000
vn -0.23875407 -0.38188213 0.89283959
vn -0.66542855 -0.14380085 0.73247946
vn -0.41728107 -0.53688554 0.73323285
vn -0.24267755 -0.13183398 0.96110739
vn -0.66059571 -0.39947420 0.63563643
vn -0.23875407 0.38188213 0.89283959
vn -0.66542855 0.14380085 0.73247946
vn -0.41728107 0.53688554 0.73323285
vn -0.24267755 0.13183398 0.96110739
vn -0.66059571 0.39947420 0.63563643
vn -0.47550286 -0.00000000 0.87971417
vn -0.95262021 -0.00000000 -0.30416233
vn -0.95262021 -0.00000000 0.30416233
vn -0.95170531 0.25461859 -0.17154117
vn -0.95170531 -0.25461859 -0.17154117
vn -0.95170531 0.25461859 0.17154117
vn -0.95170531 -0.25461859 0.17154117
vn -0.55095527 0.83453477 -0.00000000
vn 0.55095527 0.83453477 -0.00000000
vn -0.55095527 -0.83453477 0.00000000
vn 0.55095527 -0.83453477 0.00000000
vn 0.00000000 -0.57122416 0.82079410
vn 0.00000000 0.57122416 0.82079410
vn 0.00000000 -0.57122416 -0.82079410
vn -0.00000000 0.57122416 -0.82079410
vn 0.88952678 0.00000000 -0.45688304
vn 0.88952678 -0.00000000 0.45688304
vn -0.88952678 0.00000000 -0.45688304
vn -0.88952678 0.00000000 0.45688304
vn 0.00000000 1.00000000 0.00000000
vn 0.00000000 -1.00000000 0.00000000
vn -0.33664825 -0.82564663 0.45274232
vn 0.33664825 -0.82564663 0.45274232
vn -0.33664825 0.82564663 0.45274232
vn 0.33664825 0.82564663 0.45274232
vn -0.00000000 0.00000000 1.00000000
vn -0.33664825 -0.82564663 -0.45274232
vn 0.33664825 -0.82564663 -0.45274232
vn -0.33664825 0.82564663 -0.45274232
vn 0.33664825 0.82564663 -0.45274232
vn -0.00000000 0.00000000 -1.00000000
vn 0.83429900 0.48329961 -0.26526717
vn 0.83429900 -0.48329961 -0.26526717
vn 0.56350332 -0.32573795 -0.75918298
vn 0.56350332 0.32573795 -0.75918298
vn 0.83429900 0.48329961 0.26526717
vn 0.83429900 -0.48329961 0.26526717
vn 0.56350332 -0.32573795 0.75918298
vn 0.56350332 0.32573795 0.75918298
vn 1.00000000 -0.00000000 0.00000000
vn -0.83429900 0.48329961 -0.26526717
vn -0.83429900 -0.48329961 -0.26526717
vn -0.56350332 -0.32573795 -0.75918298
vn -0.56350332 0.32573795 -0.75918298
vn -0.83429900 0.48329961 0.26526717
vn -0.83429900 -0.48329961 0.26526717
vn -0.56350332 -0.32573795 0.75918298
vn -0.56350332 0.32573795 0.75918298
vn -1.00000000 0.00000000 0.00000000
vn -0.29159757 0.95654109 -0.00000000
vn 0.29159757 0.95654109 -0.00000000
vn -0.29159757 -0.95654109 -0.00000000
vn 0.29159757 -0.95654109 0.00000000
vn -0.46184992 -0.85736017 0.22721837
vn -0.17888694 -0.73081320 0.65871962
vn -0.16476181 -0.95688710 0.23920832
vn 0.46184992 -0.85736017 0.22721837
vn 0.17888694 -0.73081320 0.65871962
vn 0.16476181 -0.95688710 0.23920832
vn 0.00000000 -0.88146083 0.47225713
vn -0.46184992 0.85736017 0.22721837
vn -0.17888694 0.73081320 0.65871962
vn -0.16476181 0.95688710 0.23920832
vn 0.46184992 0.85736017 0.22721837
vn 0.17888694 0.73081320 0.65871962
vn 0.16476181 0.95688710 0.23920832
vn -0.00000000 0.88146083 0.47225713
vn -0.00000000 -0.30705915 0.95169043
vn -0.00000000 0.30705915 0.95169043
vn -0.46184992 -0.85736017 -0.22721837
vn -0.17888694 -0.73081320 -0.65871962
vn -0.16476181 -0.95688710 -0.23920832
vn 0.46184992 -0.85736017 -0.22721837
vn 0.17888694 -0.73081320 -0.65871962
vn 0.16476181 -0.95688710 -0.23920832
vn 0.00000000 -0.88146083 -0.47225713
vn -0.46184992 0.85736017 -0.22721837
vn -0.17888694 0.73081320 -0.65871962
vn -0.16476181 0.95688710 -0.23920832
vn 0.46184992 0.85736017 -0.22721837
vn 0.17888694 0.73081320 -0.65871962
vn 0.16476181 0.95688710 -0.23920832
vn 0.00000000 0.88146083 -0.47225713
vn 0.00000000 -0.30705915 -0.95169043
vn 0.00000000 0.30705915 -0.95169043
vn 0.71753634 0.68272026 -0.13796611
vn 0.89312731 0.25037504 -0.37367894
vn 0.62481811 0.67967793 -0.38423982
vn 0.71753634 -0.68272026 -0.13796611
vn 0.89312731 -0.25037504 -0.37367894
vn 0.62481811 -0.67967793 -0.38423982
vn 0.29841794 -0.47042484 -0.83045000
vn 0.76329854 -0.16184853 -0.62544416
vn 0.48067822 -0.60995360 -0.63000402
vn 0.31593659 -0.16965286 -0.93348914
vn 0.73161926 -0.43579923 -0.52422542
vn 0.29841794 0.47042484 -0.83045000
vn 0.76329854 0.16184853 -0.62544416
vn 0.48067822 0.60995360 -0.63000402
vn 0.31593659 0.16965286 -0.93348914
vn 0.73161926 0.43579923 -0.52422542
vn 0.58657153 -0.00000000 -0.80989743
vn 0.71753634 0.68272026 0.13796611
vn 0.89312731 0.25037504 0.37367894
vn 0.62481811 0.67967793 0.38423982
vn 0.87015607 0.49277623 -0.00000000
vn 0.71753634 -0.68272026 0.13796611
vn 0.89312731 -0.25037504 0.37367894
vn 0.62481811 -0.67967793 0.38423982
vn 0.87015607 -0.49277623 0.00000000
vn 0.29841794 -0.47042484 0.83045000
vn 0.76329854 -0.16184853 0.62544416
vn 0.48067822 -0.60995360 0.63000402
vn 0.31593659 -0.16965286 0.93348914
vn 0.73161926 -0.43579923 0.52422542
vn 0.29841794 0.47042484 0.83045000
vn 0.76329854 0.16184853 0.62544416
vn 0.48067822 0.60995360 0.63000402
vn 0.31593659 0.16965286 0.93348914
vn 0.73161926 0.43579923 0.52422542
vn 0.58657153 0.00000000 0.80989743
vn 0.97277508 0.00000000 -0.23175126
vn 0.97277508 0.00000000 0.23175126
vn 0.95866309 0.25375667 -0.12873475
vn 0.95866309 -0.25375667 -0.12873475
vn 0.95866309 0.25375667 0.12873475
vn 0.95866309 -0.25375667 0.12873475
vn -0.71753634 0.68272026 -0.13796611
vn -0.89312731 0.25037504 -0.37367894
vn -0.62481811 0.67967793 -0.38423982
vn -0.71753634 -0.68272026 -0.13796611
vn -0.89312731 -0.25037504 -0.37367894
vn -0.62481811 -0.67967793 -0.38423982
vn -0.29841794 -0.47042484 -0.83045000
vn -0.76329854 -0.16184853 -0.62544416
vn -0.48067822 -0.60995360 -0.63000402
vn -0.31593659 -0.16965286 -0.93348914
vn -0.73161926 -0.43579923 -0.52422542
vn -0.29841794 0.47042484 -0.83045000
vn -0.76329854 0.16184853 -0.62544416
vn -0.48067822 0.60995360 -0.63000402
vn -0.31593659 0.16965286 -0.93348914
vn -0.73161926 0.43579923 -0.52422542
vn -0.58657153 0.00000000 -0.80989743
vn -0.71753634 0.68272026 0.13796611
vn -0.89312731 0.25037504 0.37367894
vn -0.62481811 0.67967793 0.38423982
vn -0.87015607 0.49277623 -0.00000000
vn -0.71753634 -0.68272026 0.13796611
vn -0.89312731 -0.25037504 0.37367894
vn -0.62481811 -0.67967793 0.38423982
vn -0.87015607 -0.49277623 -0.00000000
vn -0.29841794 -0.47042484 0.83045000
vn -0.76329854 -0.16184853 0.62544416
vn -0.48067822 -0.60995360 0.63000402
vn -0.31593659 -0.16965286 0.93348914
vn -0.73161926 -0.43579923 0.52422542
vn -0.29841794 0.47042484 0.83045000
vn -0.76329854 0.16184853 0.62544416
vn -0.48067822 0.60995360 0.63000402
vn -0.31593659 0.16965286 0.93348914
vn -0.73161926 0.43579923 0.52422542
vn -0.58657153 -0.00000000 0.80989743
vn -0.97277508 -0.00000000 -0.23175126
vn -0.97277508 -0.00000000 0.23175126
vn -0.95866309 0.25375667 -0.12873475
vn -0.95866309 -0.25375667 -0.12873475
vn -0.95866309 0.25375667 0.12873475
vn -0.95866309 -0.25375667 0.12873475
vn -0.49396925 0.86947937 0.00000000
vn 0.49396925 0.86947937 0.00000000
vn -0.49396925 -0.86947937 0.00000000
vn 0.49396925 -0.86947937 0.00000000
vn -0.00000000 -0.61235260 0.79058478
vn 0.00000000 0.61235260 0.79058478
vn -0.00000000 -0.61235260 -0.79058478
vn -0.00000000 0.61235260 -0.79058478
vn 0.88237927 0.00000000 -0.47053887
vn 0.88237927 0.00000000 0.47053887
vn -0.88237927 0.00000000 -0.47053887
vn -0.88237927 -0.00000000 0.47053887
vn 0.00000000 1.00000000 0.00000000
vn 0.00000000 -1.00000000 0.00000000
vn -0.30384374 -0.85618935 0.41787412
vn 0.30384374 -0.85618935 0.41787412
vn -0.30384374 0.85618935 0.41787412
vn 0.30384374 0.85618935 0.41787412
vn 0.00000000 0.00000000 1.00000000
vn -0.30384374 -0.85618935 -0.41787412
vn 0.30384374 -0.85618935 -0.41787412
vn -0.30384374 0.85618935 -0.41787412
vn 0.30384374 0.85618935 -0.41787412
vn 0.00000000 0.00000000 -1.00000000
vn 0.80033886 0.53885922 -0.26284682
vn 0.80033886 -0.53885922 -0.26284682
vn 0.54125473 -0.35815501 -0.76076824
vn 0.54125473 0.35815501 -0.76076824
vn 0.80033886 0.53885922 0.26284682
vn 0.80033886 -0.53885922 0.26284682
vn 0.54125473 -0.35815501 0.76076824
vn 0.54125473 0.35815501 0.76076824
vn 1.00000000 0.00000000 0.00000000
vn -0.80033886 0.53885922 -0.26284682
vn -0.80033886 -0.53885922 -0.26284682
vn -0.54125473 -0.35815501 -0.76076824
vn -0.54125473 0.35815501 -0.76076824
vn -0.80033886 0.53885922 0.26284682
vn -0.80033886 -0.53885922 0.26284682
vn -0.54125473 -0.35815501 0.76076824
vn -0.54125473 0.35815501 0.76076824
vn -1.00000000 -0.00000000 0.00000000
vn -0.49027436 0.87156815 -0.00000000
vn 0.49027436 0.87156815 0.00000000
vn -0.49027436 -0.87156815 0.00000000
vn 0.49027436 -0.87156815 -0.00000000
vn -0.00000000 -0.62135403 0.78352994
vn 0.00000000 0.62135403 0.78352994
vn -0.00000000 -0.62135403 -0.78352994
vn 0.00000000 0.62135403 -0.78352994
vn 0.88526248 0.00000000 -0.46509176
vn 0.88526248 0.00000000 0.46509176
vn -0.88526248 0.00000000 -0.46509176
vn -0.88526248 0.00000000 0.46509176
vn -0.00000000 1.00000000 -0.00000000
vn -0.00000000 -1.00000000 -0.00000000
vn -0.30277006 -0.86069914 0.40930096
vn 0.30277006 -0.86069914 0.40930096
vn -0.30277006 0.86069914 0.40930096
vn 0.30277006 0.86069914 0.40930096
vn 0.00000000 0.00000000 1.00000000
vn -0.30277006 -0.86069914 -0.40930096
vn 0.30277006 -0.86069914 -0.40930096
vn -0.30277006 0.86069914 -0.40930096
vn 0.30277006 0.86069914 -0.40930096
vn -0.00000000 0.00000000 -1.00000000
vn 0.79892251 0.54319711 -0.25818544
vn 0.79892251 -0.54319711 -0.25818544
vn 0.54512763 -0.36338026 -0.75550688
vn 0.54512763 0.36338026 -0.75550688
vn 0.79892251 0.54319711 0.25818544
vn 0.79892251 -0.54319711 0.25818544
vn 0.54512763 -0.36338026 0.75550688
vn 0.54512763 0.36338026 0.75550688
vn 1.00000000 0.00000000 0.00000000
vn -0.79892251 0.54319711 -0.25818544
vn -0.79892251 -0.54319711 -0.25818544
vn -0.54512763 -0.36338026 -0.75550688
vn -0.54512763 0.36338026 -0.75550688
vn -0.79892251 0.54319711 0.25818544
vn -0.79892251 -0.54319711 0.25818544
vn -0.54512763 -0.36338026 0.75550688
vn -0.54512763 0.36338026 0.75550688
vn -1.00000000 0.00000000 0.00000000
f 1//1 138//138 54//54
f 138//138 38//38 140//140
f 54//54 140//140 17//17
f 138//138 140//140 54//54
f 38//38 139//139 155//155
f 139//139 12//12 152//152
f 155//155 152//152 41//41
f 139//139 152//152 155//155
f 17//17 153//153 55//55
f 153//153 41//41 151//151
f 55//55 151//151 6//6
f 153//153 151//151 55//55
f 38//38 155//155 140//140
f 155//155 41//41 153//153
f 140//140 153//153 17//17
f 155//155 153//153 140//140
f 1//1 54//54 43//43
f 54//54 17//17 56//56
f 43//43 56//56 13//13
f 54//54 56//56 43//43
f 17//17 55//55 60//60
f 55//55 6//6 58//58
f 60//60 58//58 18//18
f 55//55 58//58 60//60
f 13//13 59//59 44//44
f 59//59 18//18 57//57
f 44//44 57//57 2//2
f 59//59 57//57 44//44
f 17//17 60//60 56//56
f 60//60 18//18 59//59
f 56//56 59//59 13//13
f 60//60 59//59 56//56
f 1//1 43//43 70//70
f 43//43 13//13 72//72
f 70//70 72//72 22//22
f 43//43 72//72 70//70
f 13//13 44//44 75//75
f 44//44 2//2 73//73
f 75//75 73//73 23//23
f 44//44 73//73 75//75
f 22//22 76//76 71//71
f 76//76 23//23 74//74
f 71//71 74//74 8//8
f 76//76 74//74 71//71
f 13//13 75//75 72//72
f 75//75 23//23 76//76
f 72//72 76//76 22//22
f 75//75 76//76 72//72
f 1//1 70//70 121//121
f 70//70 22//22 123//123
f 121//121 123//123 34//34
f 70//70 123//123 121//121
f 22//22 71//71 134//134
f 71//71 8//8 132//132
f 134//134 132//132 37//37
f 71//71 132//132 134//134
f 34//34 136//136 122//122
f 136//136 37//37 133//133
f 122//122 133//133 11//11
f 136//136 133//133 122//122
f 22//22 134//134 123//123
f 134//134 37//37 136//136
f 123//123 136//136 34//34
f 134//134 136//136 123//123
f 1//1 121//121 138//138
f 121//121 34//34 141//141
f 138//138 141//141 38//38
f 121//121 141//141 138//138
f 34//34 122//122 159//159
f 122//122 11//11 157//157
f 159//159 157//157 42//42
f 122//122 157//157 159//159
f 38//38 161//161 139//139
f 161//161 42//42 158//158
f 139//139 158//158 12//12
f 161//161 158//158 139//139
f 34//34 159//159 141//141
f 159//159 42//42 161//161
f 141//141 161//161 38//38
f 159//159 161//161 141//141
f 2//2 57//57 96//96
f 57//57 18//18 98//98
f 96//96 98//98 29//29
f 57//57 98//98 96//96
f 18//18 58//58 111//111
f 58//58 6//6 109//109
f 111//111 109//109 32//32
f 58//58 109//109 111//111
f 29//29 113//113 97//97
f 113//113 32//32 110//110
f 97//97 110//110 10//10
f 113//113 110//110 97//97
f 18//18 111//111 98//98
f 111//111 32//32 113//113
f 98//98 113//113 29//29
f 111//111 113//113 98//98
f 6//6 151//151 62//62
f 151//151 41//41 154//154
f 62//62 154//154 19//19
f 151//151 154//154 62//62
f 41//41 152//152 156//156
f 152//152 12//12 147//147
f 156//156 147//147 40//40
f 152//152 147//147 156//156
f 19//19 149//149 61//61
f 149//149 40//40 146//146
f 61//61 146//146 5//5
f 149//149 146//146 61//61
f 41//41 156//156 154//154
f 156//156 40//40 149//149
f 154//154 149//149 19//19
f 156//156 149//149 154//154
f 12//12 158//158 143//143
f 158//158 42//42 162//162
f 143//143 162//162 39//39
f 158//158 162//162 143//143
f 42//42 157//157 160//160
f 157//157 11//11 125//125
f 160//160 125//125 35//35
f 157//157 125//125 160//160
f 39//39 145//145 142//142
f 145//145 35//35 124//124
f 142//142 124//124 3//3
f 145//145 124//124 142//142
f 42//42 160//160 162//162
f 160//160 35//35 145//145
f 162//162 145//145 39//39
f 160//160 145//145 162//162
f 11//11 133//133 128//128
f 133//133 37//37 137//137
f 128//128 137//137 36//36
f 133//133 137//137 128//128
f 37//37 132//132 135//135
f 132//132 8//8 78//78
f 135//135 78//78 24//24
f 132//132 78//78 135//135
f 36//36 130//130 127//127
f 130//130 24//24 77//77
f 127//127 77//77 7//7
f 130//130 77//77 127//127
f 37//37 135//135 137//137
f 135//135 24//24 130//130
f 137//137 130//130 36//36
f 135//135 130//130 137//137
f 8//8 74//74 90//90
f 74//74 23//23 92//92
f 90//90 92//92 28//28
f 74//74 92//92 90//90
f 23//23 73//73 81//81
f 73//73 2//2 79//79
f 81//81 79//79 25//25
f 73//73 79//79 81//81
f 28//28 94//94 91//91
f 94//94 25//25 80//80
f 91//91 80//80 9//9
f 94//94 80//80 91//91
f 23//23 81//81 92//92
f 81//81 25//25 94//94
f 92//92 94//94 28//28
f 81//81 94//94 92//92
f 4//4 100//100 50//50
f 100//100 30//30 102//102
f 50//50 102//102 16//16
f 100//100 102//102 50//50
f 30//30 101//101 108//108
f 101//101 10//10 105//105
f 108//108 105//105 31//31
f 101//101 105//105 108//108
f 16//16 106//106 51//51
f 106//106 31//31 104//104
f 51//51 104//104 5//5
f 106//106 104//104 51//51
f 30//30 108//108 102//102
f 108//108 31//31 106//106
f 102//102 106//106 16//16
f 108//108 106//106 102//102
f 4//4 50//50 46//46
f 50//50 16//16 52//52
f 46//46 52//52 14//14
f 50//50 52//52 46//46
f 16//16 51//51 53//53
f 51//51 5//5 48//48
f 53//53 48//48 15//15
f 51//51 48//48 53//53
f 14//14 49//49 45//45
f 49//49 15//15 47//47
f 45//45 47//47 3//3
f 49//49 47//47 45//45
f 16//16 53//53 52//52
f 53//53 15//15 49//49
f 52//52 49//49 14//14
f 53//53 49//49 52//52
f 4//4 46//46 66//66
f 46//46 14//14 68//68
f 66//66 68//68 21//21
f 46//46 68//68 66//66
f 14//14 45//45 65//65
f 45//45 3//3 63//63
f 65//65 63//63 20//20
f 45//45 63//63 65//65
f 21//21 69//69 67//67
f 69//69 20//20 64//64
f 67//67 64//64 7//7
f 69//69 64//64 67//67
f 14//14 65//65 68//68
f 65//65 20//20 69//69
f 68//68 69//69 21//21
f 65//65 69//69 68//68
f 4//4 66//66 82//82
f 66//66 21//21 84//84
f 82//82 84//84 26//26
f 66//66 84//84 82//82
f 21//21 67//67 87//87
f 67//67 7//7 85//85
f 87//87 85//85 27//27
f 67//67 85//85 87//87
f 26//26 89//89 83//83
f 89//89 27//27 86//86
f 83//83 86//86 9//9
f 89//89 86//86 83//83
f 21//21 87//87 84//84
f 87//87 27//27 89//89
f 84//84 89//89 26//26
f 87//87 89//89 84//84
f 4//4 82//82 100//100
f 82//82 26//26 103//103
f 100//100 103//103 30//30
f 82//82 103//103 100//100
f 26//26 83//83 118//118
f 83//83 9//9 115//115
f 118//118 115//115 33//33
f 83//83 115//115 118//118
f 30//30 120//120 101//101
f 120//120 33//33 116//116
f 101//101 116//116 10//10
f 120//120 116//116 101//101
f 26//26 118//118 103//103
f 118//118 33//33 120//120
f 103//103 120//120 30//30
f 118//118 120//120 103//103
f 5//5 104//104 61//61
f 104//104 31//31 107//107
f 61//61 107//107 19//19
f 104//104 107//107 61//61
f 31//31 105//105 114//114
f 105//105 10//10 110//110
f 114//114 110//110 32//32
f 105//105 110//110 114//114
f 19//19 112//112 62//62
f 112//112 32//32 109//109
f 62//62 109//109 6//6
f 112//112 109//109 62//62
f 31//31 114//114 107//107
f 114//114 32//32 112//112
f 107//107 112//112 19//19
f 114//114 112//112 107//107
f 3//3 47//47 142//142
f 47//47 15//15 144//144
f 142//142 144//144 39//39
f 47//47 144//144 142//142
f 15//15 48//48 148//148
f 48//48 5//5 146//146
f 148//148 146//146 40//40
f 48//48 146//146 148//148
f 39//39 150//150 143//143
f 150//150 40//40 147//147
f 143//143 147//147 12//12
f 150//150 147//147 143//143
f 15//15 148//148 144//144
f 148//148 40//40 150//150
f 144//144 150//150 39//39
f 148//148 150//150 144//144
f 7//7 64//64 127//127
f 64//64 20//20 129//129
f 127//127 129//129 36//36
f 64//64 129//129 127//127
f 20//20 63//63 126//126
f 63//63 3//3 124//124
f 126//126 124//124 35//35
f 63//63 124//124 126//126
f 36//36 131//131 128//128
f 131//131 35//35 125//125
f 128//128 125//125 11//11
f 131//131 125//125 128//128
f 20//20 126//126 129//129
f 126//126 35//35 131//131
f 129//129 131//131 36//36
f 126//126 131//131 129//129
f 9//9 86//86 91//91
f 86//86 27//27 95//95
f 91//91 95//95 28//28
f 86//86 95//95 91//91
f 27//27 85//85 88//88
f 85//85 7//7 77//77
f 88//88 77//77 24//24
f 85//85 77//77 88//88
f 28//28 93//93 90//90
f 93//93 24//24 78//78
f 90//90 78//78 8//8
f 93//93 78//78 90//90
f 27//27 88//88 95//95
f 88//88 24//24 93//93
f 95//95 93//93 28//28
f 88//88 93//93 95//95
f 10//10 116//116 97//97
f 116//116 33//33 119//119
f 97//97 119//119 29//29
f 116//116 119//119 97//97
f 33//33 115//115 117//117
f 115//115 9//9 80//80
f 117//117 80//80 25//25
f 115//115 80//80 117//117
f 29//29 99//99 96//96
f 99//99 25//25 79//79
f 96//96 79//79 2//2
f 99//99 79//79 96//96
f 33//33 117//117 119//119
f 117//117 25//25 99//99
f 119//119 99//99 29//29
f 117//117 99//99 119//119
f 163//163 300//300 216//216
f 300//300 200//200 302//302
f 216//216 302//302 179//179
f 300//300 302//302 216//216
f 200//200 301//301 317//317
f 301//301 174//174 314//314
f 317//317 314//314 203//203
f 301//301 314//314 317//317
f 179//179 315//315 217//217
f 315//315 203//203 313//313
f 217//217 313//313 168//168
f 315//315 313//313 217//217
f 200//200 317//317 302//302
f 317//317 203//203 315//315
f 302//302 315//315 179//179
f 317//317 315//315 302//302
f 163//163 216//216 205//205
f 216//216 179//179 218//218
f 205//205 218//218 175//175
f 216//216 218//218 205//205
f 179//179 217//217 222//222
f 217//217 168//168 220//220
f 222//222 220//220 180//180
f 217//217 220//220 222//222
f 175//175 221//221 206//206
f 221//221 180//180 219//219
f 206//206 219//219 164//164
f 221//221 219//219 206//206
f 179//179 222//222 218//218
f 222//222 180//180 221//221
f 218//218 221//221 175//175
f 222//222 221//221 218//218
f 163//163 205//205 232//232
f 205//205 175//175 234//234
f 232//232 234//234 184//184
f 205//205 234//234 232//232
f 175//175 206//206 237//237
f 206//206 164//164 235//235
f 237//237 235//235 185//185
f 206//206 235//235 237//237
f 184//184 238//238 233//233
f 238//238 185//185 236//236
f 233//233 236//236 170//170
f 238//238 236//236 233//233
f 175//175 237//237 234//234
f 237//237 185//185 238//238
f 234//234 238//238 184//184
f 237//237 238//238 234//234
f 163//163 232//232 283//283
f 232//232 184//184 285//285
f 283//283 285//285 196//196
f 232//232 285//285 283//283
f 184//184 233//233 296//296
f 233//233 170//170 294//294
f 296//296 294//294 199//199
f 233//233 294//294 296//296
f 196//196 298//298 284//284
f 298//298 199//199 295//295
f 284//284 295//295 173//173
f 298//298 295//295 284//284
f 184//184 296//296 285//285
f 296//296 199//199 298//298
f 285//285 298//298 196//196
f 296//296 298//298 285//285
f 163//163 283//283 300//300
f 283//283 196//196 303//303
f 300//300 303//303 200//200
f 283//283 303//303 300//300
f 196//196 284//284 321//321
f 284//284 173//173 319//319
f 321//321 319//319 204//204
f 284//284 319//319 321//321
f 200//200 323//323 301//301
f 323//323 204//204 320//320
f 301//301 320//320 174//174
f 323//323 320//320 301//301
f 196//196 321//321 303//303
f 321//321 204//204 323//323
f 303//303 323//323 200//200
f 321//321 323//323 303//303
f 164//164 219//219 258//258
f 219//219 180//180 260//260
f 258//258 260//260 191//191
f 219//219 260//260 258//258
f 180//180 220//220 273//273
f 220//220 168//168 271//271
f 273//273 271//271 194//194
f 220//220 271//271 273//273
f 191//191 275//275 259//259
f 275//275 194//194 272//272
f 259//259 272//272 172//172
f 275//275 272//272 259//259
f 180//180 273//273 260//260
f 273//273 194//194 275//275
f 260//260 275//275 191//191
f 273//273 275//275 260//260
f 168//168 313//313 224//224
f 313//313 203//203 316//316
f 224//224 316//316 181//181
f 313//313 316//316 224//224
f 203//203 314//314 318//318
f 314//314 174//174 309//309
f 318//318 309//309 202//202
f 314//314 309//309 318//318
f 181//181 311//311 223//223
f 311//311 202//202 308//308
f 223//223 308//308 167//167
f 311//311 308//308 223//223
f 203//203 318//318 316//316
f 318//318 202//202 311//311
f 316//316 311//311 181//181
f 318//318 311//311 316//316
f 174//174 320//320 305//305
f 320//320 204//204 324//324
f 305//305 324//324 201//201
f 320//320 324//324 305//305
f 204//204 319//319 322//322
f 319//319 173//173 287//287
f 322//322 287//287 197//197
f 319//319 287//287 322//322
f 201//201 307//307 304//304
f 307//307 197//197 286//286
f 304//304 286//286 165//165
f 307//307 286//286 304//304
f 204//204 322//322 324//324
f 322//322 197//197 307//307
f 324//324 307//307 201//201
f 322//322 307//307 324//324
f 173//173 295//295 290//290
f 295//295 199//199 299//299
f 290//290 299//299 198//198
f 295//295 299//299 290//290
f 199//199 294//294 297//297
f 294//294 170//170 240//240
f 297//297 240//240 186//186
f 294//294 240//240 297//297
f 198//198 292//292 289//289
f 292//292 186//186 239//239
f 289//289 239//239 169//169
f 292//292 239//239 289//289
f 199//199 297//297 299//299
f 297//297 186//186 292//292
f 299//299 292//292 198//198
f 297//297 292//292 299//299
f 170//170 236//236 252//252
f 236//236 185//185 254//254
f 252//252 254//254 190//190
f 236//236 254//254 252//252
f 185//185 235//235 243//243
f 235//235 164//164 241//241
f 243//243 241//241 187//187
f 235//235 241//241 243//243
f 190//190 256//256 253//253
f 256//256 187//187 242//242
f 253//253 242//242 171//171
f 256//256 242//242 253//253
f 185//185 243//243 254//254
f 243//243 187//187 256//256
f 254//254 256//256 190//190
f 243//243 256//256 254//254
f 166//166 262//262 212//212
f 262//262 192//192 264//264
f 212//212 264//264 178//178
f 262//262 264//264 212//212
f 192//192 263//263 270//270
f 263//263 172//172 267//267
f 270//270 267//267 193//193
f 263//263 267//267 270//270
f 178//178 268//268 213//213
f 268//268 193//193 266//266
f 213//213 266//266 167//167
f 268//268 266//266 213//213
f 192//192 270//270 264//264
f 270//270 193//193 268//268
f 264//264 268//268 178//178
f 270//270 268//268 264//264
f 166//166 212//212 208//208
f 212//212 178//178 214//214
f 208//208 214//214 176//176
f 212//212 214//214 208//208
f 178//178 213//213 215//215
f 213//213 167//167 210//210
f 215//215 210//210 177//177
f 213//213 210//210 215//215
f 176//176 211//211 207//207
f 211//211 177//177 209//209
f 207//207 209//209 165//165
f 211//211 209//209 207//207
f 178//178 215//215 214//214
f 215//215 177//177 211//211
f 214//214 211//211 176//176
f 215//215 211//211 214//214
f 166//166 208//208 228//228
f 208//208 176//176 230//230
f 228//228 230//230 183//183
f 208//208 230//230 228//228
f 176//176 207//207 227//227
f 207//207 165//165 225//225
f 227//227 225//225 182//182
f 207//207 225//225 227//227
f 183//183 231//231 229//229
f 231//231 182//182 226//226
f 229//229 226//226 169//169
f 231//231 226//226 229//229
f 176//176 227//227 230//230
f 227//227 182//182 231//231
f 230//230 231//231 183//183
f 227//227 231//231 230//230
f 166//166 228//228 244//244
f 228//228 183//183 246//246
f 244//244 246//246 188//188
f 228//228 246//246 244//244
f 183//183 229//229 249//249
f 229//229 169//169 247//247
f 249//249 247//247 189//189
f 229//229 247//247 249//249
f 188//188 251//251 245//245
f 251//251 189//189 248//248
f 245//245 248//248 171//171
f 251//251 248//248 245//245
f 183//183 249//249 246//246
f 249//249 189//189 251//251
f 246//246 251//251 188//188
f 249//249 251//251 246//246
f 166//166 244//244 262//262
f 244//244 188//188 265//265
f 262//262 265//265 192//192
f 244//244 265//265 262//262
f 188//188 245//245 280//280
f 245//245 171//171 277//277
f 280//280 277//277 195//195
f 245//245 277//277 280//280
f 192//192 282//282 263//263
f 282//282 195//195 278//278
f 263//263 278//278 172//172
f 282//282 278//278 263//263
f 188//188 280//280 265//265
f 280//280 195//195 282//282
f 265//265 282//282 192//192
f 280//280 282//282 265//265
f 167//167 266//266 223//223
f 266//266 193//193 269//269
f 223//223 269//269 181//181
f 266//266 269//269 223//223
f 193//193 267//267 276//276
f 267//267 172//172 272//272
f 276//276 272//272 194//194
f 267//267 272//272 276//276
f 181//181 274//274 224//224
f 274//274 194//194 271//271
f 224//224 271//271 168//168
f 274//274 271//271 224//224
f 193//193 276//276 269//269
f 276//276 194//194 274//274
f 269//269 274//274 181//181
f 276//276 274//274 269//269
f 165//165 209//209 304//304
f 209//209 177//177 306//306
f 304//304 306//306 201//201
f 209//209 306//306 304//304
f 177//177 210//210 310//310
f 210//210 167//167 308//308
f 310//310 308//308 202//202
f 210//210 308//308 310//310
f 201//201 312//312 305//305
f 312//312 202//202 309//309
f 305//305 309//309 174//174
f 312//312 309//309 305//305
f 177//177 310//310 306//306
f 310//310 202//202 312//312
f 306//306 312//312 201//201
f 310//310 312//312 306//306
f 169//169 226//226 289//289
f 226//226 182//182 291//291
f 289//289 291//291 198//198
f 226//226 291//291 289//289
f 182//182 225//225 288//288
f 225//225 165//165 286//286
f 288//288 286//286 197//197
f 225//225 286//286 288//288
f 198//198 293//293 290//290
f 293//293 197//197 287//287
f 290//290 287//287 173//173
f 293//293 287//287 290//290
f 182//182 288//288 291//291
f 288//288 197//197 293//293
f 291//291 293//293 198//198
f 288//288 293//293 291//291
f 171//171 248//248 253//253
f 248//248 189//189 257//257
f 253//253 257//257 190//190
f 248//248 257//257 253//253
f 189//189 247//247 250//250
f 247//247 169//169 239//239
f 250//250 239//239 186//186
f 247//247 239//239 250//250
f 190//190 255//255 252//252
f 255//255 186//186 240//240
f 252//252 240//240 170//170
f 255//255 240//240 252//252
f 189//189 250//250 257//257
f 250//250 186//186 255//255
f 257//257 255//255 190//190
f 250//250 255//255 257//257
f 172//172 278//278 259//259
f 278//278 195//195 281//281
f 259//259 281//281 191//191
f 278//278 281//281 259//259
f 195//195 277//277 279//279
f 277//277 171//171 242//242
f 279//279 242//242 187//187
f 277//277 242//242 279//279
f 191//191 261//261 258//258
f 261//261 187//187 241//241
f 258//258 241//241 164//164
f 261//261 241//241 258//258
f 195//195 279//279 281//281
f 279//279 187//187 261//261
f 281//281 261//261 191//191
f 279//279 261//261 281//281
f 325//325 462//462 378//378
f 462//462 362//362 464//464
f 378//378 464//464 341//341
f 462//462 464//464 378//378
f 362//362 463//463 479//479
f 463//463 336//336 476//476
f 479//479 476//476 365//365
f 463//463 476//476 479//479
f 341//341 477//477 379//379
f 477//477 365//365 475//475
f 379//379 475//475 330//330
f 477//477 475//475 379//379
f 362//362 479//479 464//464
f 479//479 365//365 477//477
f 464//464 477//477 341//341
f 479//479 477//477 464//464
f 325//325 378//378 367//367
f 378//378 341//341 380//380
f 367//367 380//380 337//337
f 378//378 380//380 367//367
f 341//341 379//379 384//384
f 379//379 330//330 382//382
f 384//384 382//382 342//342
f 379//379 382//382 384//384
f 337//337 383//383 368//368
f 383//383 342//342 381//381
f 368//368 381//381 326//326
f 383//383 381//381 368//368
f 341//341 384//384 380//380
f 384//384 342//342 383//383
f 380//380 383//383 337//337
f 384//384 383//383 380//380
f 325//325 367//367 394//394
f 367//367 337//337 396//396
f 394//394 396//396 346//346
f 367//367 396//396 394//394
f 337//337 368//368 399//399
f 368//368 326//326 397//397
f 399//399 397//397 347//347
f 368//368 397//397 399//399
f 346//346 400//400 395//395
f 400//400 347//347 398//398
f 395//395 398//398 332//332
f 400//400 398//398 395//395
f 337//337 399//399 396//396
f 399//399 347//347 400//400
f 396//396 400//400 346//346
f 399//399 400//400 396//396
f 325//325 394//394 445//445
f 394//394 346//346 447//447
f 445//445 447//447 358//358
f 394//394 447//447 445//445
f 346//346 395//395 458//458
f 395//395 332//332 456//456
f 458//458 456//456 361//361
f 395//395 456//456 458//458
f 358//358 460//460 446//446
f 460//460 361//361 457//457
f 446//446 457//457 335//335
f 460//460 457//457 446//446
f 346//346 458//458 447//447
f 458//458 361//361 460//460
f 447//447 460//460 358//358
f 458//458 460//460 447//447
f 325//325 445//445 462//462
f 445//445 358//358 465//465
f 462//462 465//465 362//362
f 445//445 465//465 462//462
f 358//358 446//446 483//483
f 446//446 335//335 481//481
f 483//483 481//481 366//366
f 446//446 481//481 483//483
f 362//362 485//485 463//463
f 485//485 366//366 482//482
f 463//463 482//482 336//336
f 485//485 482//482 463//463
f 358//358 483//483 465//465
f 483//483 366//366 485//485
f 465//465 485//485 362//362
f 483//483 485//485 465//465
f 326//326 381//381 420//420
f 381//381 342//342 422//422
f 420//420 422//422 353//353
f 381//381 422//422 420//420
f 342//342 382//382 435//435
f 382//382 330//330 433//433
f 435//435 433//433 356//356
f 382//382 433//433 435//435
f 353//353 437//437 421//421
f 437//437 356//356 434//434
f 421//421 434//434 334//334
f 437//437 434//434 421//421
f 342//342 435//435 422//422
f 435//435 356//356 437//437
f 422//422 437//437 353//353
f 435//435 437//437 422//422
f 330//330 475//475 386//386
f 475//475 365//365 478//478
f 386//386 478//478 343//343
f 475//475 478//478 386//386
f 365//365 476//476 480//480
f 476//476 336//336 471//471
f 480//480 471//471 364//364
f 476//476 471//471 480//480
f 343//343 473//473 385//385
f 473//473 364//364 470//470
f 385//385 470//470 329//329
f 473//473 470//470 385//385
f 365//365 480//480 478//478
f 480//480 364//364 473//473
f 478//478 473//473 343//343
f 480//480 473//473 478//478
f 336//336 482//482 467//467
f 482//482 366//366 486//486
f 467//467 486//486 363//363
f 482//482 486//486 467//467
f 366//366 481//481 484//484
f 481//481 335//335 449//449
f 484//484 449//449 359//359
f 481//481 449//449 484//484
f 363//363 469//469 466//466
f 469//469 359//359 448//448
f 466//466 448//448 327//327
f 469//469 448//448 466//466
f 366//366 484//484 486//486
f 484//484 359//359 469//469
f 486//486 469//469 363//363
f 484//484 469//469 486//486
f 335//335 457//457 452//452
f 457//457 361//361 461//461
f 452//452 461//461 360//360
f 457//457 461//461 452//452
f 361//361 456//456 459//459
f 456//456 332//332 402//402
f 459//459 402//402 348//348
f 456//456 402//402 459//459
f 360//360 454//454 451//451
f 454//454 348//348 401//401
f 451//451 401//401 331//331
f 454//454 401//401 451//451
f 361//361 459//459 461//461
f 459//459 348//348 454//454
f 461//461 454//454 360//360
f 459//459 454//454 461//461
f 332//332 398//398 414//414
f 398//398 347//347 416//416
f 414//414 416//416 352//352
f 398//398 416//416 414//414
f 347//347 397//397 405//405
f 397//397 326//326 403//403
f 405//405 403//403 349//349
f 397//397 403//403 405//405
f 352//352 418//418 415//415
f 418//418 349//349 404//404
f 415//415 404//404 333//333
f 418//418 404//404 415//415
f 347//347 405//405 416//416
f 405//405 349//349 418//418
f 416//416 418//418 352//352
f 405//405 418//418 416//416
f 328//328 424//424 374//374
f 424//424 354//354 426//426
f 374//374 426//426 340//340
f 424//424 426//426 374//374
f 354//354 425//425 432//432
f 425//425 334//334 429//429
f 432//432 429//429 355//355
f 425//425 429//429 432//432
f 340//340 430//430 375//375
f 430//430 355//355 428//428
f 375//375 428//428 329//329
f 430//430 428//428 375//375
f 354//354 432//432 426//426
f 432//432 355//355 430//430
f 426//426 430//430 340//340
f 432//432 430//430 426//426
f 328//328 374//374 370//370
f 374//374 340//340 376//376
f 370//370 376//376 338//338
f 374//374 376//376 370//370
f 340//340 375//375 377//377
f 375//375 329//329 372//372
f 377//377 372//372 339//339
f 375//375 372//372 377//377
f 338//338 373//373 369//369
f 373//373 339//339 371//371
f 369//369 371//371 327//327
f 373//373 371//371 369//369
f 340//340 377//377 376//376
f 377//377 339//339 373//373
f 376//376 373//373 338//338
f 377//377 373//373 376//376
f 328//328 370//370 390//390
f 370//370 338//338 392//392
f 390//390 392//392 345//345
f 370//370 392//392 390//390
f 338//338 369//369 389//389
f 369//369 327//327 387//387
f 389//389 387//387 344//344
f 369//369 387//387 389//389
f 345//345 393//393 391//391
f 393//393 344//344 388//388
f 391//391 388//388 331//331
f 393//393 388//388 391//391
f 338//338 389//389 392//392
f 389//389 344//344 393//393
f 392//392 393//393 345//345
f 389//389 393//393 392//392
f 328//328 390//390 406//406
f 390//390 345//345 408//408
f 406//406 408//408 350//350
f 390//390 408//408 406//406
f 345//345 391//391 411//411
f 391//391 331//331 409//409
f 411//411 409//409 351//351
f 391//391 409//409 411//411
f 350//350 413//413 407//407
f 413//413 351//351 410//410
f 407//407 410//410 333//333
f 413//413 410//410 407//407
f 345//345 411//411 408//408
f 411//411 351//351 413//413
f 408//408 413//413 350//350
f 411//411 413//413 408//408
f 328//328 406//406 424//424
f 406//406 350//350 427//427
f 424//424 427//427 354//354
f 406//406 427//427 424//424
f 350//350 407//407 442//442
f 407//407 333//333 439//439
f 442//442 439//439 357//357
f 407//407 439//439 442//442
f 354//354 444//444 425//425
f 444//444 357//357 440//440
f 425//425 440//440 334//334
f 444//444 440//440 425//425
f 350//350 442//442 427//427
f 442//442 357//357 444//444
f 427//427 444//444 354//354
f 442//442 444//444 427//427
f 329//329 428//428 385//385
f 428//428 355//355 431//431
f 385//385 431//431 343//343
f 428//428 431//431 385//385
f 355//355 429//429 438//438
f 429//429 334//334 434//434
f 438//438 434//434 356//356
f 429//429 434//434 438//438
f 343//343 436//436 386//386
f 436//436 356//356 433//433
f 386//386 433//433 330//330
f 436//436 433//433 386//386
f 355//355 438//438 431//431
f 438//438 356//356 436//436
f 431//431 436//436 343//343
f 438//438 436//436 431//431
f 327//327 371//371 466//466
f 371//371 339//339 468//468
f 466//466 468//468 363//363
f 371//371 468//468 466//466
f 339//339 372//372 472//472
f 372//372 329//329 470//470
f 472//472 470//470 364//364
f 372//372 470//470 472//472
f 363//363 474//474 467//467
f 474//474 364//364 471//471
f 467//467 471//471 336//336
f 474//474 471//471 467//467
f 339//339 472//472 468//468
f 472//472 364//364 474//474
f 468//468 474//474 363//363
f 472//472 474//474 468//468
f 331//331 388//388 451//451
f 388//388 344//344 453//453
f 451//451 453//453 360//360
f 388//388 453//453 451//451
f 344//344 387//387 450//450
f 387//387 327//327 448//448
f 450//450 448//448 359//359
f 387//387 448//448 450//450
f 360//360 455//455 452//452
f 455//455 359//359 449//449
f 452//452 449//449 335//335
f 455//455 449//449 452//452
f 344//344 450//450 453//453
f 450//450 359//359 455//455
f 453//453 455//455 360//360
f 450//450 455//455 453//453
f 333//333 410//410 415//415
f 410//410 351//351 419//419
f 415//415 419//419 352//352
f 410//410 419//419 415//415
f 351//351 409//409 412//412
f 409//409 331//331 401//401
f 412//412 401//401 348//348
f 409//409 401//401 412//412
f 352//352 417//417 414//414
f 417//417 348//348 402//402
f 414//414 402//402 332//332
f 417//417 402//402 414//414
f 351//351 412//412 419//419
f 412//412 348//348 417//417
f 419//419 417//417 352//352
f 412//412 417//417 419//419
f 334//334 440//440 421//421
f 440//440 357//357 443//443
f 421//421 443//443 353//353
f 440//440 443//443 421//421
f 357//357 439//439 441//441
f 439//439 333//333 404//404
f 441//441 404//404 349//349
f 439//439 404//404 441//441
f 353//353 423//423 420//420
f 423//423 349//349 403//403
f 420//420 403//403 326//326
f 423//423 403//403 420//420
f 357//357 441//441 443//443
f 441//441 349//349 423//423
f 443//443 423//423 353//353
f 441//441 423//423 443//443
f 487//487 524//524 503//503
f 524//524 498//498 527//527
f 503//503 527//527 492//492
f 524//524 527//527 503//503
f 487//487 503//503 499//499
f 503//503 492//492 504//504
f 499//499 504//504 488//488
f 503//503 504//504 499//499
f 487//487 499//499 508//508
f 499//499 488//488 509//509
f 508//508 509//509 494//494
f 499//499 509//509 508//508
f 487//487 508//508 520//520
f 508//508 494//494 523//523
f 520//520 523//523 497//497
f 508//508 523//523 520//520
f 487//487 520//520 524//524
f 520//520 497//497 528//528
f 524//524 528//528 498//498
f 520//520 528//528 524//524
f 488//488 504//504 515//515
f 504//504 492//492 518//518
f 515//515 518//518 496//496
f 504//504 518//518 515//515
f 492//492 527//527 505//505
f 527//527 498//498 526//526
f 505//505 526//526 491//491
f 527//527 526//526 505//505
f 498//498 528//528 525//525
f 528//528 497//497 521//521
f 525//525 521//521 489//489
f 528//528 521//521 525//525
f 497//497 523//523 522//522
f 523//523 494//494 510//510
f 522//522 510//510 493//493
f 523//523 510//510 522//522
f 494//494 509//509 514//514
f 509//509 488//488 511//511
f 514//514 511//511 495//495
f 509//509 511//511 514//514
f 490//490 516//516 502//502
f 516//516 496//496 517//517
f 502//502 517//517 491//491
f 516//516 517//517 502//502
f 490//490 502//502 500//500
f 502//502 491//491 501//501
f 500//500 501//501 489//489
f 502//502 501//501 500//500
f 490//490 500//500 507//507
f 500//500 489//489 506//506
f 507//507 506//506 493//493
f 500//500 506//506 507//507
f 490//490 507//507 512//512
f 507//507 493//493 513//513
f 512//512 513//513 495//495
f 507//507 513//513 512//512
f 490//490 512//512 516//516
f 512//512 495//495 519//519
f 516//516 519//519 496//496
f 512//512 519//519 516//516
f 491//491 517//517 505//505
f 517//517 496//496 518//518
f 505//505 518//518 492//492
f 517//517 518//518 505//505
f 489//489 501//501 525//525
f 501//501 491//491 526//526
f 525//525 526//526 498//498
f 501//501 526//526 525//525
f 493//493 506//506 522//522
f 506//506 489//489 521//521
f 522//522 521//521 497//497
f 506//506 521//521 522//522
f 495//495 513//513 514//514
f 513//513 493//493 510//510
f 514//514 510//510 494//494
f 513//513 510//510 514//514
f 496//496 519//519 515//515
f 519//519 495//495 511//511
f 515//515 511//511 488//488
f 519//519 511//511 515//515
f 529//529 566//566 545//545
f 566//566 540//540 569//569
f 545//545 569//569 534//534
f 566//566 569//569 545//545
f 529//529 545//545 541//541
f 545//545 534//534 546//546
f 541//541 546//546 530//530
f 545//545 546//546 541//541
f 529//529 541//541 550//550
f 541//541 530//530 551//551
f 550//550 551//551 536//536
f 541//541 551//551 550//550
f 529//529 550//550 562//562
f 550//550 536//536 565//565
f 562//562 565//565 539//539
f 550//550 565//565 562//562
f 529//529 562//562 566//566
f 562//562 539//539 570//570
f 566//566 570//570 540//540
f 562//562 570//570 566//566
f 530//530 546//546 557//557
f 546//546 534//534 560//560
f 557//557 560//560 538//538
f 546//546 560//560 557//557
f 534//534 569//569 547//547
f 569//569 540//540 568//568
f 547//547 568//568 533//533
f 569//569 568//568 547//547
f 540//540 570//570 567//567
f 570//570 539//539 563//563
f 567//567 563//563 531//531
f 570//570 563//563 567//567
f 539//539 565//565 564//564
f 565//565 536//536 552//552
f 564//564 552//552 535//535
f 565//565 552//552 564//564
f 536//536 551//551 556//556
f 551//551 530//530 553//553
f 556//556 553//553 537//537
f 551//551 553//553 556//556
f 532//532 558//558 544//544
f 558//558 538//538 559//559
f 544//544 559//559 533//533
f 558//558 559//559 544//544
f 532//532 544//544 542//542
f 544//544 533//533 543//543
f 542//542 543//543 531//531
f 544//544 543//543 542//542
f 532//532 542//542 549//549
f 542//542 531//531 548//548
f 549//549 548//548 535//535
f 542//542 548//548 549//549
f 532//532 549//549 554//554
f 549//549 535//535 555//555
f 554//554 555//555 537//537
f 549//549 555//555 554//554
f 532//532 554//554 558//558
f 554//554 537//537 561//561
f 558//558 561//561 538//538
f 554//554 561//561 558//558
f 533//533 559//559 547//547
f 559//559 538//538 560//560
f 547//547 560//560 534//534
f 559//559 560//560 547//547
f 531//531 543//543 567//567
f 543//543 533//533 568//568
f 567//567 568//568 540//540
f 543//543 568//568 567//567
f 535//535 548//548 564//564
f 548//548 531//531 563//563
f 564//564 563//563 539//539
f 548//548 563//563 564//564
f 537//537 555//555 556//556
f 555//555 535//535 552//552
f 556//556 552//552 536//536
f 555//555 552//552 556//556
f 538//538 561//561 557//557
f 561//561 537//537 553//553
f 557//557 553//553 530//530
f 561//561 553//553 557//557

