# https://github.com/mikedh/trimesh
v -0.11566084 0.08506508 0.00000000
v 0.11566084 0.08506508 0.00000000
v -0.11566084 -0.08506508 0.00000000
v 0.11566084 -0.08506508 0.00000000
v 0.00000000 -0.05257311 0.14461064
v 0.00000000 0.05257311 0.14461064
v 0.00000000 -0.05257311 -0.14461064
v 0.00000000 0.05257311 -0.14461064
v 0.18714318 0.00000000 -0.08937429
v 0.18714318 0.00000000 0.08937429
v -0.18714318 0.00000000 -0.08937429
v -0.18714318 0.00000000 0.08937429
v 0.00000000 0.10000000 0.00000000
v 0.00000000 -0.10000000 0.00000000
v -0.06798374 -0.08090170 0.08500000
v 0.06798374 -0.08090170 0.08500000
v -0.06798374 0.08090170 0.08500000
v 0.06798374 0.08090170 0.08500000
v 0.00000000 0.00000000 0.17000000
v -0.06798374 -0.08090170 -0.08500000
v 0.06798374 -0.08090170 -0.08500000
v -0.06798374 0.08090170 -0.08500000
v 0.06798374 0.08090170 -0.08500000
v 0.00000000 0.00000000 -0.17000000
v 0.17798374 0.05000000 -0.05253289
v 0.17798374 -0.05000000 -0.05253289
v 0.11000000 -0.03090170 -0.13753289
v 0.11000000 0.03090170 -0.13753289
v 0.17798374 0.05000000 0.05253289
v 0.17798374 -0.05000000 0.05253289
v 0.11000000 -0.03090170 0.13753289
v 0.11000000 0.03090170 0.13753289
v 0.22000000 0.00000000 0.00000000
v -0.17798374 0.05000000 -0.05253289
v -0.17798374 -0.05000000 -0.05253289
v -0.11000000 -0.03090170 -0.13753289
v -0.11000000 0.03090170 -0.13753289
v -0.17798374 0.05000000 0.05253289
v -0.17798374 -0.05000000 0.05253289
v -0.11000000 -0.03090170 0.13753289
v -0.11000000 0.03090170 0.13753289
v -0.22000000 0.00000000 0.00000000
v -0.06011864 0.09619384 0.00000000
v 0.06011864 0.09619384 0.00000000
v -0.06011864 -0.09619384 0.00000000
v 0.06011864 -0.09619384 0.00000000
v -0.09545548 -0.08626685 0.04418163
v -0.03533685 -0.06937805 0.11934790
v -0.03574117 -0.09510565 0.04468714
v 0.09545548 -0.08626685 0.04418163
v 0.03533685 -0.06937805 0.11934790
v 0.03574117 -0.09510565 0.04468714
v 0.00000000 -0.08506508 0.08937429
v -0.09545548 0.08626685 0.04418163
v -0.03533685 0.06937805 0.11934790
v -0.03574117 0.09510565 0.04468714
v 0.09545548 0.08626685 0.04418163
v 0.03533685 0.06937805 0.11934790
v 0.03574117 0.09510565 0.04468714
v 0.00000000 0.08506508 0.08937429
v 0.00000000 -0.02732665 0.16352952
v 0.00000000 0.02732665 0.16352952
v -0.09545548 -0.08626685 -0.04418163
v -0.03533685 -0.06937805 -0.11934790
v -0.03574117 -0.09510565 -0.04468714
v 0.09545548 -0.08626685 -0.04418163
v 0.03533685 -0.06937805 -0.11934790
v 0.03574117 -0.09510565 -0.04468714
v 0.00000000 -0.08506508 -0.08937429
v -0.09545548 0.08626685 -0.04418163
v -0.03533685 0.06937805 -0.11934790
v -0.03574117 0.09510565 -0.04468714
v 0.09545548 0.08626685 -0.04418163
v 0.03533685 0.06937805 -0.11934790
v 0.03574117 0.09510565 -0.04468714
v 0.00000000 0.08506508 -0.08937429
v 0.00000000 -0.02732665 -0.16352952
v 0.00000000 0.02732665 -0.16352952
v 0.15263171 0.07020464 -0.02730575
v 0.18978707 0.02598919 -0.07376106
v 0.12931276 0.06881910 -0.07230532
v 0.15263171 -0.07020464 -0.02730575
v 0.18978707 -0.02598919 -0.07376106
v 0.12931276 -0.06881910 -0.07230532
v 0.05717622 -0.04338886 -0.14665364
v 0.15445022 -0.01606220 -0.11794268
v 0.09357159 -0.05877853 -0.11699246
v 0.05783042 -0.01624598 -0.16167961
v 0.15140201 -0.04253254 -0.09992349
v 0.05717622 0.04338886 -0.14665364
v 0.15445022 0.01606220 -0.11794268
v 0.09357159 0.05877853 -0.11699246
v 0.05783042 0.01624598 -0.16167961
v 0.15140201 0.04253254 -0.09992349
v 0.11566084 0.00000000 -0.14461064
v 0.15263171 0.07020464 0.02730575
v 0.18978707 0.02598919 0.07376106
v 0.12931276 0.06881910 0.07230532
v 0.18714318 0.05257311 0.00000000
v 0.15263171 -0.07020464 0.02730575
v 0.18978707 -0.02598919 0.07376106
v 0.12931276 -0.06881910 0.07230532
v 0.18714318 -0.05257311 0.00000000
v 0.05717622 -0.04338886 0.14665364
v 0.15445022 -0.01606220 0.11794268
v 0.09357159 -0.05877853 0.11699246
v 0.05783042 -0.01624598 0.16167961
v 0.15140201 -0.04253254 0.09992349
v 0.05717622 0.04338886 0.14665364
v 0.15445022 0.01606220 0.11794268
v 0.09357159 0.05877853 0.11699246
v 0.05783042 0.01624598 0.16167961
v 0.15140201 0.04253254 0.09992349
v 0.11566084 0.00000000 0.14461064
v 0.21162644 0.00000000 -0.04645531
v 0.21162644 0.00000000 0.04645531
v 0.20923243 0.02628656 -0.02761817
v 0.20923243 -0.02628656 -0.02761817
v 0.20923243 0.02628656 0.02761817
v 0.20923243 -0.02628656 0.02761817
v -0.15263171 0.07020464 -0.02730575
v -0.18978707 0.02598919 -0.07376106
v -0.12931276 0.06881910 -0.07230532
v -0.15263171 -0.07020464 -0.02730575
v -0.18978707 -0.02598919 -0.07376106
v -0.12931276 -0.06881910 -0.07230532
v -0.05717622 -0.04338886 -0.14665364
v -0.15445022 -0.01606220 -0.11794268
v -0.09357159 -0.05877853 -0.11699246
v -0.05783042 -0.01624598 -0.16167961
v -0.15140201 -0.04253254 -0.09992349
v -0.05717622 0.04338886 -0.14665364
v -0.15445022 0.01606220 -0.11794268
v -0.09357159 0.05877853 -0.11699246
v -0.05783042 0.01624598 -0.16167961
v -0.15140201 0.04253254 -0.09992349
v -0.11566084 0.00000000 -0.14461064
v -0.15263171 0.07020464 0.02730575
v -0.18978707 0.02598919 0.07376106
v -0.12931276 0.06881910 0.07230532
v -0.18714318 0.05257311 0.00000000
v -0.15263171 -0.07020464 0.02730575
v -0.18978707 -0.02598919 0.07376106
v -0.12931276 -0.06881910 0.07230532
v -0.18714318 -0.05257311 0.00000000
v -0.05717622 -0.04338886 0.14665364
v -0.15445022 -0.01606220 0.11794268
v -0.09357159 -0.05877853 0.11699246
v -0.05783042 -0.01624598 0.16167961
v -0.15140201 -0.04253254 0.09992349
v -0.05717622 0.04338886 0.14665364
v -0.15445022 0.01606220 0.11794268
v -0.09357159 0.05877853 0.11699246
v -0.05783042 0.01624598 0.16167961
v -0.15140201 0.04253254 0.09992349
v -0.11566084 0.00000000 0.14461064
v -0.21162644 0.00000000 -0.04645531
v -0.21162644 0.00000000 0.04645531
v -0.20923243 0.02628656 -0.02761817
v -0.20923243 -0.02628656 -0.02761817
v -0.20923243 0.02628656 0.02761817
v -0.20923243 -0.02628656 0.02761817
v -0.16000000 0.02302453 0.03123967
v -0.16000000 0.02702346 0.13115969
v -0.16000000 0.08297654 0.02884031
v -0.16000000 0.08697547 0.12876033
v 0.16000000 0.02302453 0.03123967
v 0.16000000 0.02702346 0.13115969
v 0.16000000 0.08297654 0.02884031
v 0.16000000 0.08697547 0.12876033
v -0.13000000 0.10000000 0.10250000
v -0.11507494 0.09850250 0.10250000
v -0.11507494 0.09850250 0.17750000
v -0.13000000 0.10000000 0.17750000
v -0.11838749 0.10949472 0.10250000
v -0.11838749 0.10949472 0.17750000
v -0.12850250 0.11492506 0.10250000
v -0.12850250 0.11492506 0.17750000
v -0.13949472 0.11161251 0.10250000
v -0.13949472 0.11161251 0.17750000
v -0.14492506 0.10149750 0.10250000
v -0.14492506 0.10149750 0.17750000
v -0.14161251 0.09050528 0.10250000
v -0.14161251 0.09050528 0.17750000
v -0.13149750 0.08507494 0.10250000
v -0.13149750 0.08507494 0.17750000
v -0.12050528 0.08838749 0.10250000
v -0.12050528 0.08838749 0.17750000
v -0.07800000 0.10000000 0.10250000
v -0.06307494 0.10149750 0.10250000
v -0.06307494 0.10149750 0.17750000
v -0.07800000 0.10000000 0.17750000
v -0.06850528 0.11161251 0.10250000
v -0.06850528 0.11161251 0.17750000
v -0.07949750 0.11492506 0.10250000
v -0.07949750 0.11492506 0.17750000
v -0.08961251 0.10949472 0.10250000
v -0.08961251 0.10949472 0.17750000
v -0.09292506 0.09850250 0.10250000
v -0.09292506 0.09850250 0.17750000
v -0.08749472 0.08838749 0.10250000
v -0.08749472 0.08838749 0.17750000
v -0.07650250 0.08507494 0.10250000
v -0.07650250 0.08507494 0.17750000
v -0.06638749 0.09050528 0.10250000
v -0.06638749 0.09050528 0.17750000
v -0.02600000 0.10000000 0.10250000
v -0.01107494 0.09850250 0.10250000
v -0.01107494 0.09850250 0.17750000
v -0.02600000 0.10000000 0.17750000
v -0.01438749 0.10949472 0.10250000
v -0.01438749 0.10949472 0.17750000
v -0.02450250 0.11492506 0.10250000
v -0.02450250 0.11492506 0.17750000
v -0.03549472 0.11161251 0.10250000
v -0.03549472 0.11161251 0.17750000
v -0.04092506 0.10149750 0.10250000
v -0.04092506 0.10149750 0.17750000
v -0.03761251 0.09050528 0.10250000
v -0.03761251 0.09050528 0.17750000
v -0.02749750 0.08507494 0.10250000
v -0.02749750 0.08507494 0.17750000
v -0.01650528 0.08838749 0.10250000
v -0.01650528 0.08838749 0.17750000
v 0.02600000 0.10000000 0.10250000
v 0.04092506 0.10149750 0.10250000
v 0.04092506 0.10149750 0.17750000
v 0.02600000 0.10000000 0.17750000
v 0.03549472 0.11161251 0.10250000
v 0.03549472 0.11161251 0.17750000
v 0.02450250 0.11492506 0.10250000
v 0.02450250 0.11492506 0.17750000
v 0.01438749 0.10949472 0.10250000
v 0.01438749 0.10949472 0.17750000
v 0.01107494 0.09850250 0.10250000
v 0.01107494 0.09850250 0.17750000
v 0.01650528 0.08838749 0.10250000
v 0.01650528 0.08838749 0.17750000
v 0.02749750 0.08507494 0.10250000
v 0.02749750 0.08507494 0.17750000
v 0.03761251 0.09050528 0.10250000
v 0.03761251 0.09050528 0.17750000
v 0.07800000 0.10000000 0.10250000
v 0.09292506 0.09850250 0.10250000
v 0.09292506 0.09850250 0.17750000
v 0.07800000 0.10000000 0.17750000
v 0.08961251 0.10949472 0.10250000
v 0.08961251 0.10949472 0.17750000
v 0.07949750 0.11492506 0.10250000
v 0.07949750 0.11492506 0.17750000
v 0.06850528 0.11161251 0.10250000
v 0.06850528 0.11161251 0.17750000
v 0.06307494 0.10149750 0.10250000
v 0.06307494 0.10149750 0.17750000
v 0.06638749 0.09050528 0.10250000
v 0.06638749 0.09050528 0.17750000
v 0.07650250 0.08507494 0.10250000
v 0.07650250 0.08507494 0.17750000
v 0.08749472 0.08838749 0.10250000
v 0.08749472 0.08838749 0.17750000
v 0.13000000 0.10000000 0.10250000
v 0.14492506 0.10149750 0.10250000
v 0.14492506 0.10149750 0.17750000
v 0.13000000 0.10000000 0.17750000
v 0.13949472 0.11161251 0.10250000
v 0.13949472 0.11161251 0.17750000
v 0.12850250 0.11492506 0.10250000
v 0.12850250 0.11492506 0.17750000
v 0.11838749 0.10949472 0.10250000
v 0.11838749 0.10949472 0.17750000
v 0.11507494 0.09850250 0.10250000
v 0.11507494 0.09850250 0.17750000
v 0.12050528 0.08838749 0.10250000
v 0.12050528 0.08838749 0.17750000
v 0.13149750 0.08507494 0.10250000
v 0.13149750 0.08507494 0.17750000
v 0.14161251 0.09050528 0.10250000
v 0.14161251 0.09050528 0.17750000
vn -0.27712662 0.96083341 0.00000000
vn 0.27712662 0.96083341 0.00000000
vn -0.27712662 -0.96083341 0.00000000
vn 0.27712662 -0.96083341 0.00000000
vn -0.00000000 -0.71550131 0.69861139
vn 0.00000000 0.71550131 0.69861139
vn 0.00000000 -0.71550131 -0.69861139
vn -0.00000000 0.71550131 -0.69861139
vn 0.78282704 0.00000000 -0.62223937
vn 0.78282704 -0.00000000 0.62223937
vn -0.78282704 0.00000000 -0.62223937
vn -0.78282704 0.00000000 0.62223937
vn 0.00000000 1.00000000 -0.00000000
vn -0.00000000 -1.00000000 -0.00000000
vn -0.16596027 -0.92409811 0.34423810
vn 0.16596027 -0.92409811 0.34423810
vn -0.16596027 0.92409811 0.34423810
vn 0.16596027 0.92409811 0.34423810
vn -0.00000000 0.00000000 1.00000000
vn -0.16596027 -0.92409811 -0.34423810
vn 0.16596027 -0.92409811 -0.34423810
vn -0.16596027 0.92409811 -0.34423810
vn 0.16596027 0.92409811 -0.34423810
vn 0.00000000 0.00000000 -1.00000000
vn 0.58607687 0.75865306 -0.28453372
vn 0.58607687 -0.75865306 -0.28453372
vn 0.37824655 -0.48728997 -0.78706927
vn 0.37824655 0.48728997 -0.78706927
vn 0.58607687 0.75865306 0.28453372
vn 0.58607687 -0.75865306 0.28453372
vn 0.37824655 -0.48728997 0.78706927
vn 0.37824655 0.48728997 0.78706927
vn 1.00000000 0.00000000 0.00000000
vn -0.58607687 0.75865306 -0.28453372
vn -0.58607687 -0.75865306 -0.28453372
vn -0.37824655 -0.48728997 -0.78706927
vn -0.37824655 0.48728997 -0.78706927
vn -0.58607687 0.75865306 0.28453372
vn -0.58607687 -0.75865306 0.28453372
vn -0.37824655 -0.48728997 0.78706927
vn -0.37824655 0.48728997 0.78706927
vn -1.00000000 0.00000000 0.00000000
vn -0.13242100 0.99119356 0.00000000
vn 0.13242100 0.99119356 -0.00000000
vn -0.13242100 -0.99119356 -0.00000000
vn 0.13242100 -0.99119356 0.00000000
vn -0.22509736 -0.95892103 0.17263150
vn -0.09320532 -0.84852764 0.52087773
vn -0.07394926 -0.98317678 0.16701777
vn 0.22509736 -0.95892103 0.17263150
vn 0.09320532 -0.84852764 0.52087773
vn 0.07394926 -0.98317678 0.16701777
vn 0.00000000 -0.93946572 0.34264291
vn -0.22509736 0.95892103 0.17263150
vn -0.09320532 0.84852764 0.52087773
vn -0.07394926 0.98317678 0.16701777
vn 0.22509736 0.95892103 0.17263150
vn 0.09320532 0.84852764 0.52087773
vn 0.07394926 0.98317678 0.16701777
vn 0.00000000 0.93946572 0.34264291
vn -0.00000000 -0.42236649 0.90642515
vn 0.00000000 0.42236649 0.90642515
vn -0.22509736 -0.95892103 -0.17263150
vn -0.09320532 -0.84852764 -0.52087773
vn -0.07394926 -0.98317678 -0.16701777
vn 0.22509736 -0.95892103 -0.17263150
vn 0.09320532 -0.84852764 -0.52087773
vn 0.07394926 -0.98317678 -0.16701777
vn 0.00000000 -0.93946572 -0.34264291
vn -0.22509736 0.95892103 -0.17263150
vn -0.09320532 0.84852764 -0.52087773
vn -0.07394926 0.98317678 -0.16701777
vn 0.22509736 0.95892103 -0.17263150
vn 0.09320532 0.84852764 -0.52087773
vn 0.07394926 0.98317678 -0.16701777
vn -0.00000000 0.93946572 -0.34264291
vn 0.00000000 -0.42236649 -0.90642515
vn 0.00000000 0.42236649 -0.90642515
vn 0.41734551 0.90037875 -0.12304809
vn 0.74824797 0.46014558 -0.47790274
vn 0.35463766 0.87247372 -0.33618706
vn 0.41734551 -0.90037875 -0.12304809
vn 0.74824797 -0.46014558 -0.47790274
vn 0.35463766 -0.87247372 -0.33618706
vn 0.17614391 -0.62939376 -0.75685984
vn 0.59681014 -0.27392270 -0.75417771
vn 0.27535202 -0.78547265 -0.55426887
vn 0.20697056 -0.24670480 -0.94673118
vn 0.50403908 -0.66402791 -0.55227851
vn 0.17614391 0.62939376 -0.75685984
vn 0.59681014 0.27392270 -0.75417771
vn 0.27535202 0.78547265 -0.55426887
vn 0.20697056 0.24670480 -0.94673118
vn 0.50403908 0.66402791 -0.55227851
vn 0.42602469 0.00000000 -0.90471154
vn 0.41734551 0.90037875 0.12304809
vn 0.74824797 0.46014558 0.47790274
vn 0.35463766 0.87247372 0.33618706
vn 0.62246423 0.78264825 0.00000000
vn 0.41734551 -0.90037875 0.12304809
vn 0.74824797 -0.46014558 0.47790274
vn 0.35463766 -0.87247372 0.33618706
vn 0.62246423 -0.78264825 0.00000000
vn 0.17614391 -0.62939376 0.75685984
vn 0.59681014 -0.27392270 0.75417771
vn 0.27535202 -0.78547265 0.55426887
vn 0.20697056 -0.24670480 0.94673118
vn 0.50403908 -0.66402791 0.55227851
vn 0.17614391 0.62939376 0.75685984
vn 0.59681014 0.27392270 0.75417771
vn 0.27535202 0.78547265 0.55426887
vn 0.20697056 0.24670480 0.94673118
vn 0.50403908 0.66402791 0.55227851
vn 0.42602469 0.00000000 0.90471154
vn 0.93795266 -0.00000000 -0.34676334
vn 0.93795266 0.00000000 0.34676334
vn 0.85391724 0.48985117 -0.17570195
vn 0.85391724 -0.48985117 -0.17570195
vn 0.85391724 0.48985117 0.17570195
vn 0.85391724 -0.48985117 0.17570195
vn -0.41734551 0.90037875 -0.12304809
vn -0.74824797 0.46014558 -0.47790274
vn -0.35463766 0.87247372 -0.33618706
vn -0.41734551 -0.90037875 -0.12304809
vn -0.74824797 -0.46014558 -0.47790274
vn -0.35463766 -0.87247372 -0.33618706
vn -0.17614391 -0.62939376 -0.75685984
vn -0.59681014 -0.27392270 -0.75417771
vn -0.27535202 -0.78547265 -0.55426887
vn -0.20697056 -0.24670480 -0.94673118
vn -0.50403908 -0.66402791 -0.55227851
vn -0.17614391 0.62939376 -0.75685984
vn -0.59681014 0.27392270 -0.75417771
vn -0.27535202 0.78547265 -0.55426887
vn -0.20697056 0.24670480 -0.94673118
vn -0.50403908 0.66402791 -0.55227851
vn -0.42602469 0.00000000 -0.90471154
vn -0.41734551 0.90037875 0.12304809
vn -0.74824797 0.46014558 0.47790274
vn -0.35463766 0.87247372 0.33618706
vn -0.62246423 0.78264825 0.00000000
vn -0.41734551 -0.90037875 0.12304809
vn -0.74824797 -0.46014558 0.47790274
vn -0.35463766 -0.87247372 0.33618706
vn -0.62246423 -0.78264825 0.00000000
vn -0.17614391 -0.62939376 0.75685984
vn -0.59681014 -0.27392270 0.75417771
vn -0.27535202 -0.78547265 0.55426887
vn -0.20697056 -0.24670480 0.94673118
vn -0.50403908 -0.66402791 0.55227851
vn -0.17614391 0.62939376 0.75685984
vn -0.59681014 0.27392270 0.75417771
vn -0.27535202 0.78547265 0.55426887
vn -0.20697056 0.24670480 0.94673118
vn -0.50403908 0.66402791 0.55227851
vn -0.42602469 -0.00000000 0.90471154
vn -0.93795266 0.00000000 -0.34676334
vn -0.93795266 -0.00000000 0.34676334
vn -0.85391724 0.48985117 -0.17570195
vn -0.85391724 -0.48985117 -0.17570195
vn -0.85391724 0.48985117 0.17570195
vn -0.85391724 -0.48985117 0.17570195
vn -0.57735027 -0.59997630 -0.55380060
vn -0.57735027 -0.55380060 0.59997630
vn -0.57735027 0.55380060 -0.59997630
vn -0.57735027 0.59997630 0.55380060
vn 0.57735027 -0.59997630 -0.55380060
vn 0.57735027 -0.55380060 0.59997630
vn 0.57735027 0.55380060 -0.59997630
vn 0.57735027 0.59997630 0.55380060
vn 0.00000000 0.00000000 -1.00000000
vn 0.77250346 -0.07750888 -0.63026247
vn 0.77250346 -0.07750888 0.63026247
vn 0.00000000 0.00000000 1.00000000
vn 0.60104949 0.49143538 -0.63026247
vn 0.60104949 0.49143538 0.63026247
vn 0.07750888 0.77250346 -0.63026247
vn 0.07750888 0.77250346 0.63026247
vn -0.49143538 0.60104949 -0.63026247
vn -0.49143538 0.60104949 0.63026247
vn -0.77250346 0.07750888 -0.63026247
vn -0.77250346 0.07750888 0.63026247
vn -0.60104949 -0.49143538 -0.63026247
vn -0.60104949 -0.49143538 0.63026247
vn -0.07750888 -0.77250346 -0.63026247
vn -0.07750888 -0.77250346 0.63026247
vn 0.49143538 -0.60104949 -0.63026247
vn 0.49143538 -0.60104949 0.63026247
vn 0.00000000 0.00000000 -1.00000000
vn 0.77250346 0.07750888 -0.63026247
vn 0.77250346 0.07750888 0.63026247
vn 0.00000000 0.00000000 1.00000000
vn 0.49143538 0.60104949 -0.63026247
vn 0.49143538 0.60104949 0.63026247
vn -0.07750888 0.77250346 -0.63026247
vn -0.07750888 0.77250346 0.63026247
vn -0.60104949 0.49143538 -0.63026247
vn -0.60104949 0.49143538 0.63026247
vn -0.77250346 -0.07750888 -0.63026247
vn -0.77250346 -0.07750888 0.63026247
vn -0.49143538 -0.60104949 -0.63026247
vn -0.49143538 -0.60104949 0.63026247
vn 0.07750888 -0.77250346 -0.63026247
vn 0.07750888 -0.77250346 0.63026247
vn 0.60104949 -0.49143538 -0.63026247
vn 0.60104949 -0.49143538 0.63026247
vn 0.00000000 0.00000000 -1.00000000
vn 0.77250346 -0.07750888 -0.63026247
vn 0.77250346 -0.07750888 0.63026247
vn 0.00000000 0.00000000 1.00000000
vn 0.60104949 0.49143538 -0.63026247
vn 0.60104949 0.49143538 0.63026247
vn 0.07750888 0.77250346 -0.63026247
vn 0.07750888 0.77250346 0.63026247
vn -0.49143538 0.60104949 -0.63026247
vn -0.49143538 0.60104949 0.63026247
vn -0.77250346 0.07750888 -0.63026247
vn -0.77250346 0.07750888 0.63026247
vn -0.60104949 -0.49143538 -0.63026247
vn -0.60104949 -0.49143538 0.63026247
vn -0.07750888 -0.77250346 -0.63026247
vn -0.07750888 -0.77250346 0.63026247
vn 0.49143538 -0.60104949 -0.63026247
vn 0.49143538 -0.60104949 0.63026247
vn 0.00000000 0.00000000 -1.00000000
vn 0.77250346 0.07750888 -0.63026247
vn 0.77250346 0.07750888 0.63026247
vn 0.00000000 0.00000000 1.00000000
vn 0.49143538 0.60104949 -0.63026247
vn 0.49143538 0.60104949 0.63026247
vn -0.07750888 0.77250346 -0.63026247
vn -0.07750888 0.77250346 0.63026247
vn -0.60104949 0.49143538 -0.63026247
vn -0.60104949 0.49143538 0.63026247
vn -0.77250346 -0.07750888 -0.63026247
vn -0.77250346 -0.07750888 0.63026247
vn -0.49143538 -0.60104949 -0.63026247
vn -0.49143538 -0.60104949 0.63026247
vn 0.07750888 -0.77250346 -0.63026247
vn 0.07750888 -0.77250346 0.63026247
vn 0.60104949 -0.49143538 -0.63026247
vn 0.60104949 -0.49143538 0.63026247
vn 0.00000000 0.00000000 -1.00000000
vn 0.77250346 -0.07750888 -0.63026247
vn 0.77250346 -0.07750888 0.63026247
vn 0.00000000 0.00000000 1.00000000
vn 0.60104949 0.49143538 -0.63026247
vn 0.60104949 0.49143538 0.63026247
vn 0.07750888 0.77250346 -0.63026247
vn 0.07750888 0.77250346 0.63026247
vn -0.49143538 0.60104949 -0.63026247
vn -0.49143538 0.60104949 0.63026247
vn -0.77250346 0.07750888 -0.63026247
vn -0.77250346 0.07750888 0.63026247
vn -0.60104949 -0.49143538 -0.63026247
vn -0.60104949 -0.49143538 0.63026247
vn -0.07750888 -0.77250346 -0.63026247
vn -0.07750888 -0.77250346 0.63026247
vn 0.49143538 -0.60104949 -0.63026247
vn 0.49143538 -0.60104949 0.63026247
vn 0.00000000 0.00000000 -1.00000000
vn 0.77250346 0.07750888 -0.63026247
vn 0.77250346 0.07750888 0.63026247
vn 0.00000000 0.00000000 1.00000000
vn 0.49143538 0.60104949 -0.63026247
vn 0.49143538 0.60104949 0.63026247
vn -0.07750888 0.77250346 -0.63026247
vn -0.07750888 0.77250346 0.63026247
vn -0.60104949 0.49143538 -0.63026247
vn -0.60104949 0.49143538 0.63026247
vn -0.77250346 -0.07750888 -0.63026247
vn -0.77250346 -0.07750888 0.63026247
vn -0.49143538 -0.60104949 -0.63026247
vn -0.49143538 -0.60104949 0.63026247
vn 0.07750888 -0.77250346 -0.63026247
vn 0.07750888 -0.77250346 0.63026247
vn 0.60104949 -0.49143538 -0.63026247
vn 0.60104949 -0.49143538 0.63026247
f 1//1 138//138 54//54
f 138//138 38//38 140//140
f 54//54 140//140 17//17
f 138//138 140//140 54//54
f 38//38 139//139 155//155
f 139//139 12//12 152//152
f 155//155 152//152 41//41
f 139//139 152//152 155//155
f 17//17 153//153 55//55
f 153//153 41//41 151//151
f 55//55 151//151 6//6
f 153//153 151//151 55//55
f 38//38 155//155 140//140
f 155//155 41//41 153//153
f 140//140 153//153 17//17
f 155//155 153//153 140//140
f 1//1 54//54 43//43
f 54//54 17//17 56//56
f 43//43 56//56 13//13
f 54//54 56//56 43//43
f 17//17 55//55 60//60
f 55//55 6//6 58//58
f 60//60 58//58 18//18
f 55//55 58//58 60//60
f 13//13 59//59 44//44
f 59//59 18//18 57//57
f 44//44 57//57 2//2
f 59//59 57//57 44//44
f 17//17 60//60 56//56
f 60//60 18//18 59//59
f 56//56 59//59 13//13
f 60//60 59//59 56//56
f 1//1 43//43 70//70
f 43//43 13//13 72//72
f 70//70 72//72 22//22
f 43//43 72//72 70//70
f 13//13 44//44 75//75
f 44//44 2//2 73//73
f 75//75 73//73 23//23
f 44//44 73//73 75//75
f 22//22 76//76 71//71
f 76//76 23//23 74//74
f 71//71 74//74 8//8
f 76//76 74//74 71//71
f 13//13 75//75 72//72
f 75//75 23//23 76//76
f 72//72 76//76 22//22
f 75//75 76//76 72//72
f 1//1 70//70 121//121
f 70//70 22//22 123//123
f 121//121 123//123 34//34
f 70//70 123//123 121//121
f 22//22 71//71 134//134
f 71//71 8//8 132//132
f 134//134 132//132 37//37
f 71//71 132//132 134//134
f 34//34 136//136 122//122
f 136//136 37//37 133//133
f 122//122 133//133 11//11
f 136//136 133//133 122//122
f 22//22 134//134 123//123
f 134//134 37//37 136//136
f 123//123 136//136 34//34
f 134//134 136//136 123//123
f 1//1 121//121 138//138
f 121//121 34//34 141//141
f 138//138 141//141 38//38
f 121//121 141//141 138//138
f 34//34 122//122 159//159
f 122//122 11//11 157//157
f 159//159 157//157 42//42
f 122//122 157//157 159//159
f 38//38 161//161 139//139
f 161//161 42//42 158//158
f 139//139 158//158 12//12
f 161//161 158//158 139//139
f 34//34 159//159 141//141
f 159//159 42//42 161//161
f 141//141 161//161 38//38
f 159//159 161//161 141//141
f 2//2 57//57 96//96
f 57//57 18//18 98//98
f 96//96 98//98 29//29
f 57//57 98//98 96//96
f 18//18 58//58 111//111
f 58//58 6//6 109//109
f 111//111 109//109 32//32
f 58//58 109//109 111//111
f 29//29 113//113 97//97
f 113//113 32//32 110//110
f 97//97 110//110 10//10
f 113//113 110//110 97//97
f 18//18 111//111 98//98
f 111//111 32//32 113//113
f 98//98 113//113 29//29
f 111//111 113//113 98//98
f 6//6 151//151 62//62
f 151//151 41//41 154//154
f 62//62 154//154 19//19
f 151//151 154//154 62//62
f 41//41 152//152 156//156
f 152//152 12//12 147//147
f 156//156 147//147 40//40
f 152//152 147//147 156//156
f 19//19 149//149 61//61
f 149//149 40//40 146//146
f 61//61 146//146 5//5
f 149//149 146//146 61//61
f 41//41 156//156 154//154
f 156//156 40//40 149//149
f 154//154 149//149 19//19
f 156//156 149//149 154//154
f 12//12 158//158 143//143
f 158//158 42//42 162//162
f 143//143 162//162 39//39
f 158//158 162//162 143//143
f 42//42 157//157 160//160
f 157//157 11//11 125//125
f 160//160 125//125 35//35
f 157//157 125//125 160//160
f 39//39 145//145 142//142
f 145//145 35//35 124//124
f 142//142 124//124 3//3
f 145//145 124//124 142//142
f 42//42 160//160 162//162
f 160//160 35//35 145//145
f 162//162 145//145 39//39
f 160//160 145//145 162//162
f 11//11 133//133 128//128
f 133//133 37//37 137//137
f 128//128 137//137 36//36
f 133//133 137//137 128//128
f 37//37 132//132 135//135
f 132//132 8//8 78//78
f 135//135 78//78 24//24
f 132//132 78//78 135//135
f 36//36 130//130 127//127
f 130//130 24//24 77//77
f 127//127 77//77 7//7
f 130//130 77//77 127//127
f 37//37 135//135 137//137
f 135//135 24//24 130//130
f 137//137 130//130 36//36
f 135//135 130//130 137//137
f 8//8 74//74 90//90
f 74//74 23//23 92//92
f 90//90 92//92 28//28
f 74//74 92//92 90//90
f 23//23 73//73 81//81
f 73//73 2//2 79//79
f 81//81 79//79 25//25
f 73//73 79//79 81//81
f 28//28 94//94 91//91
f 94//94 25//25 80//80
f 91//91 80//80 9//9
f 94//94 80//80 91//91
f 23//23 81//81 92//92
f 81//81 25//25 94//94
f 92//92 94//94 28//28
f 81//81 94//94 92//92
f 4//4 100//100 50//50
f 100//100 30//30 102//102
f 50//50 102//102 16//16
f 100//100 102//102 50//50
f 30//30 101//101 108//108
f 101//101 10//10 105//105
f 108//108 105//105 31//31
f 101//101 105//105 108//108
f 16//16 106//106 51//51
f 106//106 31//31 104//104
f 51//51 104//104 5//5
f 106//106 104//104 51//51
f 30//30 108//108 102//102
f 108//108 31//31 106//106
f 102//102 106//106 16//16
f 108//108 106//106 102//102
f 4//4 50//50 46//46
f 50//50 16//16 52//52
f 46//46 52//52 14//14
f 50//50 52//52 46//46
f 16//16 51//51 53//53
f 51//51 5//5 48//48
f 53//53 48//48 15//15
f 51//51 48//48 53//53
f 14//14 49//49 45//45
f 49//49 15//15 47//47
f 45//45 47//47 3//3
f 49//49 47//47 45//45
f 16//16 53//53 52//52
f 53//53 15//15 49//49
f 52//52 49//49 14//14
f 53//53 49//49 52//52
f 4//4 46//46 66//66
f 46//46 14//14 68//68
f 66//66 68//68 21//21
f 46//46 68//68 66//66
f 14//14 45//45 65//65
f 45//45 3//3 63//63
f 65//65 63//63 20//20
f 45//45 63//63 65//65
f 21//21 69//69 67//67
f 69//69 20//20 64//64
f 67//67 64//64 7//7
f 69//69 64//64 67//67
f 14//14 65//65 68//68
f 65//65 20//20 69//69
f 68//68 69//69 21//21
f 65//65 69//69 68//68
f 4//4 66//66 82//82
f 66//66 21//21 84//84
f 82//82 84//84 26//26
f 66//66 84//84 82//82
f 21//21 67//67 87//87
f 67//67 7//7 85//85
f 87//87 85//85 27//27
f 67//67 85//85 87//87
f 26//26 89//89 83//83
f 89//89 27//27 86//86
f 83//83 86//86 9//9
f 89//89 86//86 83//83
f 21//21 87//87 84//84
f 87//87 27//27 89//89
f 84//84 89//89 26//26
f 87//87 89//89 84//84
f 4//4 82//82 100//100
f 82//82 26//26 103//103
f 100//100 103//103 30//30
f 82//82 103//103 100//100
f 26//26 83//83 118//118
f 83//83 9//9 115//115
f 118//118 115//115 33//33
f 83//83 115//115 118//118
f 30//30 120//120 101//101
f 120//120 33//33 116//116
f 101//101 116//116 10//10
f 120//120 116//116 101//101
f 26//26 118//118 103//103
f 118//118 33//33 120//120
f 103//103 120//120 30//30
f 118//118 120//120 103//103
f 5//5 104//104 61//61
f 104//104 31//31 107//107
f 61//61 107//107 19//19
f 104//104 107//107 61//61
f 31//31 105//105 114//114
f 105//105 10//10 110//110
f 114//114 110//110 32//32
f 105//105 110//110 114//114
f 19//19 112//112 62//62
f 112//112 32//32 109//109
f 62//62 109//109 6//6
f 112//112 109//109 62//62
f 31//31 114//114 107//107
f 114//114 32//32 112//112
f 107//107 112//112 19//19
f 114//114 112//112 107//107
f 3//3 47//47 142//142
f 47//47 15//15 144//144
f 142//142 144//144 39//39
f 47//47 144//144 142//142
f 15//15 48//48 148//148
f 48//48 5//5 146//146
f 148//148 146//146 40//40
f 48//48 146//146 148//148
f 39//39 150//150 143//143
f 150//150 40//40 147//147
f 143//143 147//147 12//12
f 150//150 147//147 143//143
f 15//15 148//148 144//144
f 148//148 40//40 150//150
f 144//144 150//150 39//39
f 148//148 150//150 144//144
f 7//7 64//64 127//127
f 64//64 20//20 129//129
f 127//127 129//129 36//36
f 64//64 129//129 127//127
f 20//20 63//63 126//126
f 63//63 3//3 124//124
f 126//126 124//124 35//35
f 63//63 124//124 126//126
f 36//36 131//131 128//128
f 131//131 35//35 125//125
f 128//128 125//125 11//11
f 131//131 125//125 128//128
f 20//20 126//126 129//129
f 126//126 35//35 131//131
f 129//129 131//131 36//36
f 126//126 131//131 129//129
f 9//9 86//86 91//91
f 86//86 27//27 95//95
f 91//91 95//95 28//28
f 86//86 95//95 91//91
f 27//27 85//85 88//88
f 85//85 7//7 77//77
f 88//88 77//77 24//24
f 85//85 77//77 88//88
f 28//28 93//93 90//90
f 93//93 24//24 78//78
f 90//90 78//78 8//8
f 93//93 78//78 90//90
f 27//27 88//88 95//95
f 88//88 24//24 93//93
f 95//95 93//93 28//28
f 88//88 93//93 95//95
f 10//10 116//116 97//97
f 116//116 33//33 119//119
f 97//97 119//119 29//29
f 116//116 119//119 97//97
f 33//33 115//115 117//117
f 115//115 9//9 80//80
f 117//117 80//80 25//25
f 115//115 80//80 117//117
f 29//29 99//99 96//96
f 99//99 25//25 79//79
f 96//96 79//79 2//2
f 99//99 79//79 96//96
f 33//33 117//117 119//119
f 117//117 25//25 99//99
f 119//119 99//99 29//29
f 117//117 99//99 119//119
f 164//164 166//166 163//163
f 167//167 164//164 163//163
f 163//163 166//166 165//165
f 165//165 167//167 163//163
f 164//164 170//170 166//166
f 168//168 164//164 167//167
f 168//168 170//170 164//164
f 166//166 170//170 165//165
f 169//169 167//167 165//165
f 165//165 170//170 169//169
f 169//169 168//168 167//167
f 170//170 168//168 169//169
f 172//172 171//171 175//175
f 172//172 175//175 173//173
f 173//173 175//175 176//176
f 173//173 176//176 174//174
f 175//175 171//171 177//177
f 175//175 177//177 176//176
f 176//176 177//177 178//178
f 176//176 178//178 174//174
f 177//177 171//171 179//179
f 177//177 179//179 178//178
f 178//178 179//179 180//180
f 178//178 180//180 174//174
f 179//179 171//171 181//181
f 179//179 181//181 180//180
f 180//180 181//181 182//182
f 180//180 182//182 174//174
f 181//181 171//171 183//183
f 181//181 183//183 182//182
f 182//182 183//183 184//184
f 182//182 184//184 174//174
f 183//183 171//171 185//185
f 183//183 185//185 184//184
f 184//184 185//185 186//186
f 184//184 186//186 174//174
f 185//185 171//171 187//187
f 185//185 187//187 186//186
f 186//186 187//187 188//188
f 186//186 188//188 174//174
f 187//187 171//171 172//172
f 187//187 172//172 188//188
f 188//188 172//172 173//173
f 188//188 173//173 174//174
f 190//190 189//189 193//193
f 190//190 193//193 191//191
f 191//191 193//193 194//194
f 191//191 194//194 192//192
f 193//193 189//189 195//195
f 193//193 195//195 194//194
f 194//194 195//195 196//196
f 194//194 196//196 192//192
f 195//195 189//189 197//197
f 195//195 197//197 196//196
f 196//196 197//197 198//198
f 196//196 198//198 192//192
f 197//197 189//189 199//199
f 197//197 199//199 198//198
f 198//198 199//199 200//200
f 198//198 200//200 192//192
f 199//199 189//189 201//201
f 199//199 201//201 200//200
f 200//200 201//201 202//202
f 200//200 202//202 192//192
f 201//201 189//189 203//203
f 201//201 203//203 202//202
f 202//202 203//203 204//204
f 202//202 204//204 192//192
f 203//203 189//189 205//205
f 203//203 205//205 204//204
f 204//204 205//205 206//206
f 204//204 206//206 192//192
f 205//205 189//189 190//190
f 205//205 190//190 206//206
f 206//206 190//190 191//191
f 206//206 191//191 192//192
f 208//208 207//207 211//211
f 208//208 211//211 209//209
f 209//209 211//211 212//212
f 209//209 212//212 210//210
f 211//211 207//207 213//213
f 211//211 213//213 212//212
f 212//212 213//213 214//214
f 212//212 214//214 210//210
f 213//213 207//207 215//215
f 213//213 215//215 214//214
f 214//214 215//215 216//216
f 214//214 216//216 210//210
f 215//215 207//207 217//217
f 215//215 217//217 216//216
f 216//216 217//217 218//218
f 216//216 218//218 210//210
f 217//217 207//207 219//219
f 217//217 219//219 218//218
f 218//218 219//219 220//220
f 218//218 220//220 210//210
f 219//219 207//207 221//221
f 219//219 221//221 220//220
f 220//220 221//221 222//222
f 220//220 222//222 210//210
f 221//221 207//207 223//223
f 221//221 223//223 222//222
f 222//222 223//223 224//224
f 222//222 224//224 210//210
f 223//223 207//207 208//208
f 223//223 208//208 224//224
f 224//224 208//208 209//209
f 224//224 209//209 210//210
f 226//226 225//225 229//229
f 226//226 229//229 227//227
f 227//227 229//229 230//230
f 227//227 230//230 228//228
f 229//229 225//225 231//231
f 229//229 231//231 230//230
f 230//230 231//231 232//232
f 230//230 232//232 228//228
f 231//231 225//225 233//233
f 231//231 233//233 232//232
f 232//232 233//233 234//234
f 232//232 234//234 228//228
f 233//233 225//225 235//235
f 233//233 235//235 234//234
f 234//234 235//235 236//236
f 234//234 236//236 228//228
f 235//235 225//225 237//237
f 235//235 237//237 236//236
f 236//236 237//237 238//238
f 236//236 238//238 228//228
f 237//237 225//225 239//239
f 237//237 239//239 238//238
f 238//238 239//239 240//240
f 238//238 240//240 228//228
f 239//239 225//225 241//241
f 239//239 241//241 240//240
f 240//240 241//241 242//242
f 240//240 242//242 228//228
f 241//241 225//225 226//226
f 241//241 226//226 242//242
f 242//242 226//226 227//227
f 242//242 227//227 228//228
f 244//244 243//243 247//247
f 244//244 247//247 245//245
f 245//245 247//247 248//248
f 245//245 248//248 246//246
f 247//247 243//243 249//249
f 247//247 249//249 248//248
f 248//248 249//249 250//250
f 248//248 250//250 246//246
f 249//249 243//243 251//251
f 249//249 251//251 250//250
f 250//250 251//251 252//252
f 250//250 252//252 246//246
f 251//251 243//243 253//253
f 251//251 253//253 252//252
f 252//252 253//253 254//254
f 252//252 254//254 246//246
f 253//253 243//243 255//255
f 253//253 255//255 254//254
f 254//254 255//255 256//256
f 254//254 256//256 246//246
f 255//255 243//243 257//257
f 255//255 257//257 256//256
f 256//256 257//257 258//258
f 256//256 258//258 246//246
f 257//257 243//243 259//259
f 257//257 259//259 258//258
f 258//258 259//259 260//260
f 258//258 260//260 246//246
f 259//259 243//243 244//244
f 259//259 244//244 260//260
f 260//260 244//244 245//245
f 260//260 245//245 246//246
f 262//262 261//261 265//265
f 262//262 265//265 263//263
f 263//263 265//265 266//266
f 263//263 266//266 264//264
f 265//265 261//261 267//267
f 265//265 267//267 266//266
f 266//266 267//267 268//268
f 266//266 268//268 264//264
f 267//267 261//261 269//269
f 267//267 269//269 268//268
f 268//268 269//269 270//270
f 268//268 270//270 264//264
f 269//269 261//261 271//271
f 269//269 271//271 270//270
f 270//270 271//271 272//272
f 270//270 272//272 264//264
f 271//271 261//261 273//273
f 271//271 273//273 272//272
f 272//272 273//273 274//274
f 272//272 274//274 264//264
f 273//273 261//261 275//275
f 273//273 275//275 274//274
f 274//274 275//275 276//276
f 274//274 276//276 264//264
f 275//275 261//261 277//277
f 275//275 277//277 276//276
f 276//276 277//277 278//278
f 276//276 278//278 264//264
f 277//277 261//261 262//262
f 277//277 262//262 278//278
f 278//278 262//262 263//263
f 278//278 263//263 264//264

