# https://github.com/mikedh/trimesh
v -0.06045908 0.00714318 0.00000000
v 0.06045908 0.00714318 0.00000000
v -0.06045908 -0.36714318 0.00000000
v 0.06045908 -0.36714318 0.00000000
v 0.00000000 -0.29566084 0.09782484
v 0.00000000 -0.06433916 0.09782484
v 0.00000000 -0.29566084 -0.09782484
v 0.00000000 -0.06433916 -0.09782484
v 0.09782484 -0.18000000 -0.06045908
v 0.09782484 -0.18000000 0.06045908
v -0.09782484 -0.18000000 -0.06045908
v -0.09782484 -0.18000000 0.06045908
v 0.00000000 0.04000000 0.00000000
v 0.00000000 -0.40000000 0.00000000
v -0.03553695 -0.35798374 0.05750000
v 0.03553695 -0.35798374 0.05750000
v -0.03553695 -0.00201626 0.05750000
v 0.03553695 -0.00201626 0.05750000
v 0.00000000 -0.18000000 0.11500000
v -0.03553695 -0.35798374 -0.05750000
v 0.03553695 -0.35798374 -0.05750000
v -0.03553695 -0.00201626 -0.05750000
v 0.03553695 -0.00201626 -0.05750000
v 0.00000000 -0.18000000 -0.11500000
v 0.09303695 -0.07000000 -0.03553695
v 0.09303695 -0.29000000 -0.03553695
v 0.05750000 -0.24798374 -0.09303695
v 0.05750000 -0.11201626 -0.09303695
v 0.09303695 -0.07000000 0.03553695
v 0.09303695 -0.29000000 0.03553695
v 0.05750000 -0.24798374 0.09303695
v 0.05750000 -0.11201626 0.09303695
v 0.11500000 -0.18000000 0.00000000
v -0.09303695 -0.07000000 -0.03553695
v -0.09303695 -0.29000000 -0.03553695
v -0.05750000 -0.24798374 -0.09303695
v -0.05750000 -0.11201626 -0.09303695
v -0.09303695 -0.07000000 0.03553695
v -0.09303695 -0.29000000 0.03553695
v -0.05750000 -0.24798374 0.09303695
v -0.05750000 -0.11201626 0.09303695
v -0.11500000 -0.18000000 0.00000000
v -0.03142565 0.03162644 0.00000000
v 0.03142565 0.03162644 0.00000000
v -0.03142565 -0.39162644 0.00000000
v 0.03142565 -0.39162644 0.00000000
v -0.04989718 -0.36978707 0.02988757
v -0.01847153 -0.33263171 0.08073534
v -0.01868288 -0.38923243 0.03022954
v 0.04989718 -0.36978707 0.02988757
v 0.01847153 -0.33263171 0.08073534
v 0.01868288 -0.38923243 0.03022954
v 0.00000000 -0.36714318 0.06045908
v -0.04989718 0.00978707 0.02988757
v -0.01847153 -0.02736829 0.08073534
v -0.01868288 0.02923243 0.03022954
v 0.04989718 0.00978707 0.02988757
v 0.01847153 -0.02736829 0.08073534
v 0.01868288 0.02923243 0.03022954
v 0.00000000 0.00714318 0.06045908
v 0.00000000 -0.24011864 0.11062291
v 0.00000000 -0.11988136 0.11062291
v -0.04989718 -0.36978707 -0.02988757
v -0.01847153 -0.33263171 -0.08073534
v -0.01868288 -0.38923243 -0.03022954
v 0.04989718 -0.36978707 -0.02988757
v 0.01847153 -0.33263171 -0.08073534
v 0.01868288 -0.38923243 -0.03022954
v 0.00000000 -0.36714318 -0.06045908
v -0.04989718 0.00978707 -0.02988757
v -0.01847153 -0.02736829 -0.08073534
v -0.01868288 0.02923243 -0.03022954
v 0.04989718 0.00978707 -0.02988757
v 0.01847153 -0.02736829 -0.08073534
v 0.01868288 0.02923243 -0.03022954
v 0.00000000 0.00714318 -0.06045908
v 0.00000000 -0.24011864 -0.11062291
v 0.00000000 -0.11988136 -0.11062291
v 0.07978475 -0.02554978 -0.01847153
v 0.09920688 -0.12282378 -0.04989718
v 0.06759530 -0.02859799 -0.04891242
v 0.07978475 -0.33445022 -0.01847153
v 0.09920688 -0.23717622 -0.04989718
v 0.06759530 -0.33140201 -0.04891242
v 0.02988757 -0.27545548 -0.09920688
v 0.08073534 -0.21533685 -0.07978475
v 0.04891242 -0.30931276 -0.07914196
v 0.03022954 -0.21574117 -0.10937150
v 0.07914196 -0.27357159 -0.06759530
v 0.02988757 -0.08454452 -0.09920688
v 0.08073534 -0.14466315 -0.07978475
v 0.04891242 -0.05068724 -0.07914196
v 0.03022954 -0.14425883 -0.10937150
v 0.07914196 -0.08642841 -0.06759530
v 0.06045908 -0.18000000 -0.09782484
v 0.07978475 -0.02554978 0.01847153
v 0.09920688 -0.12282378 0.04989718
v 0.06759530 -0.02859799 0.04891242
v 0.09782484 -0.06433916 0.00000000
v 0.07978475 -0.33445022 0.01847153
v 0.09920688 -0.23717622 0.04989718
v 0.06759530 -0.33140201 0.04891242
v 0.09782484 -0.29566084 0.00000000
v 0.02988757 -0.27545548 0.09920688
v 0.08073534 -0.21533685 0.07978475
v 0.04891242 -0.30931276 0.07914196
v 0.03022954 -0.21574117 0.10937150
v 0.07914196 -0.27357159 0.06759530
v 0.02988757 -0.08454452 0.09920688
v 0.08073534 -0.14466315 0.07978475
v 0.04891242 -0.05068724 0.07914196
v 0.03022954 -0.14425883 0.10937150
v 0.07914196 -0.08642841 0.06759530
v 0.06045908 -0.18000000 0.09782484
v 0.11062291 -0.18000000 -0.03142565
v 0.11062291 -0.18000000 0.03142565
v 0.10937150 -0.12216958 -0.01868288
v 0.10937150 -0.23783042 -0.01868288
v 0.10937150 -0.12216958 0.01868288
v 0.10937150 -0.23783042 0.01868288
v -0.07978475 -0.02554978 -0.01847153
v -0.09920688 -0.12282378 -0.04989718
v -0.06759530 -0.02859799 -0.04891242
v -0.07978475 -0.33445022 -0.01847153
v -0.09920688 -0.23717622 -0.04989718
v -0.06759530 -0.33140201 -0.04891242
v -0.02988757 -0.27545548 -0.09920688
v -0.08073534 -0.21533685 -0.07978475
v -0.04891242 -0.30931276 -0.07914196
v -0.03022954 -0.21574117 -0.10937150
v -0.07914196 -0.27357159 -0.06759530
v -0.02988757 -0.08454452 -0.09920688
v -0.08073534 -0.14466315 -0.07978475
v -0.04891242 -0.05068724 -0.07914196
v -0.03022954 -0.14425883 -0.10937150
v -0.07914196 -0.08642841 -0.06759530
v -0.06045908 -0.18000000 -0.09782484
v -0.07978475 -0.02554978 0.01847153
v -0.09920688 -0.12282378 0.04989718
v -0.06759530 -0.02859799 0.04891242
v -0.09782484 -0.06433916 0.00000000
v -0.07978475 -0.33445022 0.01847153
v -0.09920688 -0.23717622 0.04989718
v -0.06759530 -0.33140201 0.04891242
v -0.09782484 -0.29566084 0.00000000
v -0.02988757 -0.27545548 0.09920688
v -0.08073534 -0.21533685 0.07978475
v -0.04891242 -0.30931276 0.07914196
v -0.03022954 -0.21574117 0.10937150
v -0.07914196 -0.27357159 0.06759530
v -0.02988757 -0.08454452 0.09920688
v -0.08073534 -0.14466315 0.07978475
v -0.04891242 -0.05068724 0.07914196
v -0.03022954 -0.14425883 0.10937150
v -0.07914196 -0.08642841 0.06759530
v -0.06045908 -0.18000000 0.09782484
v -0.11062291 -0.18000000 -0.03142565
v -0.11062291 -0.18000000 0.03142565
v -0.10937150 -0.12216958 -0.01868288
v -0.10937150 -0.23783042 -0.01868288
v -0.10937150 -0.12216958 0.01868288
v -0.10937150 -0.23783042 0.01868288
v -0.04320177 -0.26285682 0.01200000
v 0.06720177 -0.26285682 0.01200000
v -0.04320177 -0.63714318 0.01200000
v 0.06720177 -0.63714318 0.01200000
v 0.01200000 -0.56566084 0.09706508
v 0.01200000 -0.33433916 0.09706508
v 0.01200000 -0.56566084 -0.07306508
v 0.01200000 -0.33433916 -0.07306508
v 0.10131833 -0.45000000 -0.04057311
v 0.10131833 -0.45000000 0.06457311
v -0.07731833 -0.45000000 -0.04057311
v -0.07731833 -0.45000000 0.06457311
v 0.01200000 -0.23000000 0.01200000
v 0.01200000 -0.67000000 0.01200000
v -0.02044678 -0.62798374 0.06200000
v 0.04444678 -0.62798374 0.06200000
v -0.02044678 -0.27201626 0.06200000
v 0.04444678 -0.27201626 0.06200000
v 0.01200000 -0.45000000 0.11200000
v -0.02044678 -0.62798374 -0.03800000
v 0.04444678 -0.62798374 -0.03800000
v -0.02044678 -0.27201626 -0.03800000
v 0.04444678 -0.27201626 -0.03800000
v 0.01200000 -0.45000000 -0.08800000
v 0.09694678 -0.34000000 -0.01890170
v 0.09694678 -0.56000000 -0.01890170
v 0.06450000 -0.51798374 -0.06890170
v 0.06450000 -0.38201626 -0.06890170
v 0.09694678 -0.34000000 0.04290170
v 0.09694678 -0.56000000 0.04290170
v 0.06450000 -0.51798374 0.09290170
v 0.06450000 -0.38201626 0.09290170
v 0.11700000 -0.45000000 0.01200000
v -0.07294678 -0.34000000 -0.01890170
v -0.07294678 -0.56000000 -0.01890170
v -0.04050000 -0.51798374 -0.06890170
v -0.04050000 -0.38201626 -0.06890170
v -0.07294678 -0.34000000 0.04290170
v -0.07294678 -0.56000000 0.04290170
v -0.04050000 -0.51798374 0.09290170
v -0.04050000 -0.38201626 0.09290170
v -0.09300000 -0.45000000 0.01200000
v -0.01669299 -0.23837356 0.01200000
v 0.04069299 -0.23837356 0.01200000
v -0.01669299 -0.66162644 0.01200000
v 0.04069299 -0.66162644 0.01200000
v -0.03355830 -0.63978707 0.03798919
v -0.00486531 -0.60263171 0.08220464
v -0.00505828 -0.65923243 0.03828656
v 0.05755830 -0.63978707 0.03798919
v 0.02886531 -0.60263171 0.08220464
v 0.02905828 -0.65923243 0.03828656
v 0.01200000 -0.63714318 0.06457311
v -0.03355830 -0.26021293 0.03798919
v -0.00486531 -0.29736829 0.08220464
v -0.00505828 -0.24076757 0.03828656
v 0.05755830 -0.26021293 0.03798919
v 0.02886531 -0.29736829 0.08220464
v 0.02905828 -0.24076757 0.03828656
v 0.01200000 -0.26285682 0.06457311
v 0.01200000 -0.51011864 0.10819384
v 0.01200000 -0.38988136 0.10819384
v -0.03355830 -0.63978707 -0.01398919
v -0.00486531 -0.60263171 -0.05820464
v -0.00505828 -0.65923243 -0.01428656
v 0.05755830 -0.63978707 -0.01398919
v 0.02886531 -0.60263171 -0.05820464
v 0.02905828 -0.65923243 -0.01428656
v 0.01200000 -0.63714318 -0.04057311
v -0.03355830 -0.26021293 -0.01398919
v -0.00486531 -0.29736829 -0.05820464
v -0.00505828 -0.24076757 -0.01428656
v 0.05755830 -0.26021293 -0.01398919
v 0.02886531 -0.29736829 -0.05820464
v 0.02905828 -0.24076757 -0.01428656
v 0.01200000 -0.26285682 -0.04057311
v 0.01200000 -0.51011864 -0.08419384
v 0.01200000 -0.38988136 -0.08419384
v 0.08484695 -0.29554978 -0.00406220
v 0.10258019 -0.39282378 -0.03138886
v 0.07371745 -0.29859799 -0.03053254
v 0.08484695 -0.60445022 -0.00406220
v 0.10258019 -0.50717622 -0.03138886
v 0.07371745 -0.60140201 -0.03053254
v 0.03928865 -0.54545548 -0.07426685
v 0.08571488 -0.48533685 -0.05737805
v 0.05665917 -0.57931276 -0.05681910
v 0.03960088 -0.48574117 -0.08310565
v 0.08426005 -0.54357159 -0.04677853
v 0.03928865 -0.35454452 -0.07426685
v 0.08571488 -0.41466315 -0.05737805
v 0.05665917 -0.32068724 -0.05681910
v 0.03960088 -0.41425883 -0.08310565
v 0.08426005 -0.35642841 -0.04677853
v 0.06720177 -0.45000000 -0.07306508
v 0.08484695 -0.29554978 0.02806220
v 0.10258019 -0.39282378 0.05538886
v 0.07371745 -0.29859799 0.05453254
v 0.10131833 -0.33433916 0.01200000
v 0.08484695 -0.60445022 0.02806220
v 0.10258019 -0.50717622 0.05538886
v 0.07371745 -0.60140201 0.05453254
v 0.10131833 -0.56566084 0.01200000
v 0.03928865 -0.54545548 0.09826685
v 0.08571488 -0.48533685 0.08137805
v 0.05665917 -0.57931276 0.08081910
v 0.03960088 -0.48574117 0.10710565
v 0.08426005 -0.54357159 0.07077853
v 0.03928865 -0.35454452 0.09826685
v 0.08571488 -0.41466315 0.08137805
v 0.05665917 -0.32068724 0.08081910
v 0.03960088 -0.41425883 0.10710565
v 0.08426005 -0.35642841 0.07077853
v 0.06720177 -0.45000000 0.09706508
v 0.11300353 -0.45000000 -0.01532665
v 0.11300353 -0.45000000 0.03932665
v 0.11186093 -0.39216958 -0.00424598
v 0.11186093 -0.50783042 -0.00424598
v 0.11186093 -0.39216958 0.02824598
v 0.11186093 -0.50783042 0.02824598
v -0.06084695 -0.29554978 -0.00406220
v -0.07858019 -0.39282378 -0.03138886
v -0.04971745 -0.29859799 -0.03053254
v -0.06084695 -0.60445022 -0.00406220
v -0.07858019 -0.50717622 -0.03138886
v -0.04971745 -0.60140201 -0.03053254
v -0.01528865 -0.54545548 -0.07426685
v -0.06171488 -0.48533685 -0.05737805
v -0.03265917 -0.57931276 -0.05681910
v -0.01560088 -0.48574117 -0.08310565
v -0.06026005 -0.54357159 -0.04677853
v -0.01528865 -0.35454452 -0.07426685
v -0.06171488 -0.41466315 -0.05737805
v -0.03265917 -0.32068724 -0.05681910
v -0.01560088 -0.41425883 -0.08310565
v -0.06026005 -0.35642841 -0.04677853
v -0.04320177 -0.45000000 -0.07306508
v -0.06084695 -0.29554978 0.02806220
v -0.07858019 -0.39282378 0.05538886
v -0.04971745 -0.29859799 0.05453254
v -0.07731833 -0.33433916 0.01200000
v -0.06084695 -0.60445022 0.02806220
v -0.07858019 -0.50717622 0.05538886
v -0.04971745 -0.60140201 0.05453254
v -0.07731833 -0.56566084 0.01200000
v -0.01528865 -0.54545548 0.09826685
v -0.06171488 -0.48533685 0.08137805
v -0.03265917 -0.57931276 0.08081910
v -0.01560088 -0.48574117 0.10710565
v -0.06026005 -0.54357159 0.07077853
v -0.01528865 -0.35454452 0.09826685
v -0.06171488 -0.41466315 0.08137805
v -0.03265917 -0.32068724 0.08081910
v -0.01560088 -0.41425883 0.10710565
v -0.06026005 -0.35642841 0.07077853
v -0.04320177 -0.45000000 0.09706508
v -0.08900353 -0.45000000 -0.01532665
v -0.08900353 -0.45000000 0.03932665
v -0.08786093 -0.39216958 -0.00424598
v -0.08786093 -0.50783042 -0.00424598
v -0.08786093 -0.39216958 0.02824598
v -0.08786093 -0.50783042 0.02824598
v -0.05888188 -0.24493492 0.00000000
v 0.05888188 -0.24493492 0.00000000
v -0.05888188 -0.41506508 0.00000000
v 0.05888188 -0.41506508 0.00000000
v 0.00000000 -0.38257311 0.09782484
v 0.00000000 -0.27742689 0.09782484
v 0.00000000 -0.38257311 -0.09782484
v 0.00000000 -0.27742689 -0.09782484
v 0.09527289 -0.33000000 -0.06045908
v 0.09527289 -0.33000000 0.06045908
v -0.09527289 -0.33000000 -0.06045908
v -0.09527289 -0.33000000 0.06045908
v 0.00000000 -0.23000000 0.00000000
v 0.00000000 -0.43000000 0.00000000
v -0.03460990 -0.41090170 0.05750000
v 0.03460990 -0.41090170 0.05750000
v -0.03460990 -0.24909830 0.05750000
v 0.03460990 -0.24909830 0.05750000
v 0.00000000 -0.33000000 0.11500000
v -0.03460990 -0.41090170 -0.05750000
v 0.03460990 -0.41090170 -0.05750000
v -0.03460990 -0.24909830 -0.05750000
v 0.03460990 -0.24909830 -0.05750000
v 0.00000000 -0.33000000 -0.11500000
v 0.09060990 -0.28000000 -0.03553695
v 0.09060990 -0.38000000 -0.03553695
v 0.05600000 -0.36090170 -0.09303695
v 0.05600000 -0.29909830 -0.09303695
v 0.09060990 -0.28000000 0.03553695
v 0.09060990 -0.38000000 0.03553695
v 0.05600000 -0.36090170 0.09303695
v 0.05600000 -0.29909830 0.09303695
v 0.11200000 -0.33000000 0.00000000
v -0.09060990 -0.28000000 -0.03553695
v -0.09060990 -0.38000000 -0.03553695
v -0.05600000 -0.36090170 -0.09303695
v -0.05600000 -0.29909830 -0.09303695
v -0.09060990 -0.28000000 0.03553695
v -0.09060990 -0.38000000 0.03553695
v -0.05600000 -0.36090170 0.09303695
v -0.05600000 -0.29909830 0.09303695
v -0.11200000 -0.33000000 0.00000000
v -0.09160236 0.05006508 0.01000000
v 0.05560236 0.05006508 0.01000000
v -0.09160236 -0.12006508 0.01000000
v 0.05560236 -0.12006508 0.01000000
v -0.01800000 -0.08757311 0.12058461
v -0.01800000 0.01757311 0.12058461
v -0.01800000 -0.08757311 -0.10058461
v -0.01800000 0.01757311 -0.10058461
v 0.10109111 -0.03500000 -0.05834504
v 0.10109111 -0.03500000 0.07834504
v -0.13709111 -0.03500000 -0.05834504
v -0.13709111 -0.03500000 0.07834504
v -0.01800000 0.06500000 0.01000000
v -0.01800000 -0.13500000 0.01000000
v -0.06126238 -0.11590170 0.07500000
v 0.02526238 -0.11590170 0.07500000
v -0.06126238 0.04590170 0.07500000
v 0.02526238 0.04590170 0.07500000
v -0.01800000 -0.03500000 0.14000000
v -0.06126238 -0.11590170 -0.05500000
v 0.02526238 -0.11590170 -0.05500000
v -0.06126238 0.04590170 -0.05500000
v 0.02526238 0.04590170 -0.05500000
v -0.01800000 -0.03500000 -0.12000000
v 0.09526238 0.01500000 -0.03017221
v 0.09526238 -0.08500000 -0.03017221
v 0.05200000 -0.06590170 -0.09517221
v 0.05200000 -0.00409830 -0.09517221
v 0.09526238 0.01500000 0.05017221
v 0.09526238 -0.08500000 0.05017221
v 0.05200000 -0.06590170 0.11517221
v 0.05200000 -0.00409830 0.11517221
v 0.12200000 -0.03500000 0.01000000
v -0.13126238 0.01500000 -0.03017221
v -0.13126238 -0.08500000 -0.03017221
v -0.08800000 -0.06590170 -0.09517221
v -0.08800000 -0.00409830 -0.09517221
v -0.13126238 0.01500000 0.05017221
v -0.13126238 -0.08500000 0.05017221
v -0.08800000 -0.06590170 0.11517221
v -0.08800000 -0.00409830 0.11517221
v -0.15800000 -0.03500000 0.01000000
vn -0.75127218 0.65999250 -0.00000000
vn 0.75127218 0.65999250 0.00000000
vn -0.75127218 -0.65999250 0.00000000
vn 0.75127218 -0.65999250 -0.00000000
vn -0.00000000 -0.31570052 0.94885888
vn -0.00000000 0.31570052 0.94885888
vn 0.00000000 -0.31570052 -0.94885888
vn -0.00000000 0.31570052 -0.94885888
vn 0.84907718 0.00000000 -0.52826881
vn 0.84907718 -0.00000000 0.52826881
vn -0.84907718 -0.00000000 -0.52826881
vn -0.84907718 0.00000000 0.52826881
vn 0.00000000 1.00000000 -0.00000000
vn 0.00000000 -1.00000000 0.00000000
vn -0.41841514 -0.59941620 0.68237013
vn 0.41841514 -0.59941620 0.68237013
vn -0.41841514 0.59941620 0.68237013
vn 0.41841514 0.59941620 0.68237013
vn -0.00000000 0.00000000 1.00000000
vn -0.41841514 -0.59941620 -0.68237013
vn 0.41841514 -0.59941620 -0.68237013
vn -0.41841514 0.59941620 -0.68237013
vn 0.41841514 0.59941620 -0.68237013
vn 0.00000000 0.00000000 -1.00000000
vn 0.89204988 0.29507952 -0.34230847
vn 0.89204988 -0.29507952 -0.34230847
vn 0.51858256 -0.17095876 -0.83776204
vn 0.51858256 0.17095876 -0.83776204
vn 0.89204988 0.29507952 0.34230847
vn 0.89204988 -0.29507952 0.34230847
vn 0.51858256 -0.17095876 0.83776204
vn 0.51858256 0.17095876 0.83776204
vn 1.00000000 0.00000000 0.00000000
vn -0.89204988 0.29507952 -0.34230847
vn -0.89204988 -0.29507952 -0.34230847
vn -0.51858256 -0.17095876 -0.83776204
vn -0.51858256 0.17095876 -0.83776204
vn -0.89204988 0.29507952 0.34230847
vn -0.89204988 -0.29507952 0.34230847
vn -0.51858256 -0.17095876 0.83776204
vn -0.51858256 0.17095876 0.83776204
vn -1.00000000 0.00000000 0.00000000
vn -0.46065385 0.88757987 -0.00000000
vn 0.46065385 0.88757987 -0.00000000
vn -0.46065385 -0.88757987 0.00000000
vn 0.46065385 -0.88757987 0.00000000
vn -0.62811979 -0.68181905 0.37495109
vn -0.19486785 -0.46009544 0.86622093
vn -0.25167629 -0.86262366 0.43879319
vn 0.62811979 -0.68181905 0.37495109
vn 0.19486785 -0.46009544 0.86622093
vn 0.25167629 -0.86262366 0.43879319
vn -0.00000000 -0.67197276 0.74057587
vn -0.62811979 0.68181905 0.37495109
vn -0.19486785 0.46009544 0.86622093
vn -0.25167629 0.86262366 0.43879319
vn 0.62811979 0.68181905 0.37495109
vn 0.19486785 0.46009544 0.86622093
vn 0.25167629 0.86262366 0.43879319
vn 0.00000000 0.67197276 0.74057587
vn 0.00000000 -0.15346456 0.98815415
vn 0.00000000 0.15346456 0.98815415
vn -0.62811979 -0.68181905 -0.37495109
vn -0.19486785 -0.46009544 -0.86622093
vn -0.25167629 -0.86262366 -0.43879319
vn 0.62811979 -0.68181905 -0.37495109
vn 0.19486785 -0.46009544 -0.86622093
vn 0.25167629 -0.86262366 -0.43879319
vn -0.00000000 -0.67197276 -0.74057587
vn -0.62811979 0.68181905 -0.37495109
vn -0.19486785 0.46009544 -0.86622093
vn -0.25167629 0.86262366 -0.43879319
vn 0.62811979 0.68181905 -0.37495109
vn 0.19486785 0.46009544 -0.86622093
vn 0.25167629 0.86262366 -0.43879319
vn 0.00000000 0.67197276 -0.74057587
vn 0.00000000 -0.15346456 -0.98815415
vn 0.00000000 0.15346456 -0.98815415
vn 0.86050031 0.47022117 -0.19603893
vn 0.88281483 0.14027445 -0.44828681
vn 0.71706057 0.45107967 -0.53136736
vn 0.86050031 -0.47022117 -0.19603893
vn 0.88281483 -0.14027445 -0.44828681
vn 0.71706057 -0.45107967 -0.53136736
vn 0.27918531 -0.24852365 -0.92751903
vn 0.70969899 -0.08702015 -0.69911003
vn 0.49864175 -0.36302937 -0.78712520
vn 0.27223127 -0.08248812 -0.95868965
vn 0.73274915 -0.25042474 -0.63274492
vn 0.27918531 0.24852365 -0.92751903
vn 0.70969899 0.08702015 -0.69911003
vn 0.49864175 0.36302937 -0.78712520
vn 0.27223127 0.08248812 -0.95868965
vn 0.73274915 0.25042474 -0.63274492
vn 0.51838024 0.00000000 -0.85515023
vn 0.86050031 0.47022117 0.19603893
vn 0.88281483 0.14027445 0.44828681
vn 0.71706057 0.45107967 0.53136736
vn 0.95155995 0.30746326 0.00000000
vn 0.86050031 -0.47022117 0.19603893
vn 0.88281483 -0.14027445 0.44828681
vn 0.71706057 -0.45107967 0.53136736
vn 0.95155995 -0.30746326 0.00000000
vn 0.27918531 -0.24852365 0.92751903
vn 0.70969899 -0.08702015 0.69911003
vn 0.49864175 -0.36302937 0.78712520
vn 0.27223127 -0.08248812 0.95868965
vn 0.73274915 -0.25042474 0.63274492
vn 0.27918531 0.24852365 0.92751903
vn 0.70969899 0.08702015 0.69911003
vn 0.49864175 0.36302937 0.78712520
vn 0.27223127 0.08248812 0.95868965
vn 0.73274915 0.25042474 0.63274492
vn 0.51838024 -0.00000000 0.85515023
vn 0.96180371 0.00000000 -0.27374007
vn 0.96180371 -0.00000000 0.27374007
vn 0.97667462 0.14625418 -0.15721449
vn 0.97667462 -0.14625418 -0.15721449
vn 0.97667462 0.14625418 0.15721449
vn 0.97667462 -0.14625418 0.15721449
vn -0.86050031 0.47022117 -0.19603893
vn -0.88281483 0.14027445 -0.44828681
vn -0.71706057 0.45107967 -0.53136736
vn -0.86050031 -0.47022117 -0.19603893
vn -0.88281483 -0.14027445 -0.44828681
vn -0.71706057 -0.45107967 -0.53136736
vn -0.27918531 -0.24852365 -0.92751903
vn -0.70969899 -0.08702015 -0.69911003
vn -0.49864175 -0.36302937 -0.78712520
vn -0.27223127 -0.08248812 -0.95868965
vn -0.73274915 -0.25042474 -0.63274492
vn -0.27918531 0.24852365 -0.92751903
vn -0.70969899 0.08702015 -0.69911003
vn -0.49864175 0.36302937 -0.78712520
vn -0.27223127 0.08248812 -0.95868965
vn -0.73274915 0.25042474 -0.63274492
vn -0.51838024 -0.00000000 -0.85515023
vn -0.86050031 0.47022117 0.19603893
vn -0.88281483 0.14027445 0.44828681
vn -0.71706057 0.45107967 0.53136736
vn -0.95155995 0.30746326 0.00000000
vn -0.86050031 -0.47022117 0.19603893
vn -0.88281483 -0.14027445 0.44828681
vn -0.71706057 -0.45107967 0.53136736
vn -0.95155995 -0.30746326 0.00000000
vn -0.27918531 -0.24852365 0.92751903
vn -0.70969899 -0.08702015 0.69911003
vn -0.49864175 -0.36302937 0.78712520
vn -0.27223127 -0.08248812 0.95868965
vn -0.73274915 -0.25042474 0.63274492
vn -0.27918531 0.24852365 0.92751903
vn -0.70969899 0.08702015 0.69911003
vn -0.49864175 0.36302937 0.78712520
vn -0.27223127 0.08248812 0.95868965
vn -0.73274915 0.25042474 0.63274492
vn -0.51838024 -0.00000000 0.85515023
vn -0.96180371 0.00000000 -0.27374007
vn -0.96180371 0.00000000 0.27374007
vn -0.97667462 0.14625418 -0.15721449
vn -0.97667462 -0.14625418 -0.15721449
vn -0.97667462 0.14625418 0.15721449
vn -0.97667462 -0.14625418 0.15721449
vn -0.77863608 0.62747577 0.00000000
vn 0.77863608 0.62747577 0.00000000
vn -0.77863608 -0.62747577 -0.00000000
vn 0.77863608 -0.62747577 0.00000000
vn -0.00000000 -0.27911929 0.96025643
vn -0.00000000 0.27911929 0.96025643
vn -0.00000000 -0.27911929 -0.96025643
vn -0.00000000 0.27911929 -0.96025643
vn 0.83727383 -0.00000000 -0.54678381
vn 0.83727383 0.00000000 0.54678381
vn -0.83727383 0.00000000 -0.54678381
vn -0.83727383 -0.00000000 0.54678381
vn 0.00000000 1.00000000 -0.00000000
vn -0.00000000 -1.00000000 -0.00000000
vn -0.42125587 -0.55312500 0.71874629
vn 0.42125587 -0.55312500 0.71874629
vn -0.42125587 0.55312500 0.71874629
vn 0.42125587 0.55312500 0.71874629
vn 0.00000000 0.00000000 1.00000000
vn -0.42125587 -0.55312500 -0.71874629
vn 0.42125587 -0.55312500 -0.71874629
vn -0.42125587 0.55312500 -0.71874629
vn 0.42125587 0.55312500 -0.71874629
vn 0.00000000 0.00000000 -1.00000000
vn 0.89334900 0.27029585 -0.35898151
vn 0.89334900 -0.27029585 -0.35898151
vn 0.50306436 -0.15136322 -0.85089096
vn 0.50306436 0.15136322 -0.85089096
vn 0.89334900 0.27029585 0.35898151
vn 0.89334900 -0.27029585 0.35898151
vn 0.50306436 -0.15136322 0.85089096
vn 0.50306436 0.15136322 0.85089096
vn 1.00000000 0.00000000 0.00000000
vn -0.89334900 0.27029585 -0.35898151
vn -0.89334900 -0.27029585 -0.35898151
vn -0.50306436 -0.15136322 -0.85089096
vn -0.50306436 0.15136322 -0.85089096
vn -0.89334900 0.27029585 0.35898151
vn -0.89334900 -0.27029585 0.35898151
vn -0.50306436 -0.15136322 0.85089096
vn -0.50306436 0.15136322 0.85089096
vn -1.00000000 -0.00000000 0.00000000
vn -0.49001201 0.87171568 -0.00000000
vn 0.49001201 0.87171568 -0.00000000
vn -0.49001201 -0.87171568 -0.00000000
vn 0.49001201 -0.87171568 -0.00000000
vn -0.64735586 -0.64623309 0.40412025
vn -0.19155107 -0.41315674 0.89028630
vn -0.26450709 -0.83641783 0.48004293
vn 0.64735586 -0.64623309 0.40412025
vn 0.19155107 -0.41315674 0.89028630
vn 0.26450709 -0.83641783 0.48004293
vn -0.00000000 -0.62334866 0.78194402
vn -0.64735586 0.64623309 0.40412025
vn -0.19155107 0.41315674 0.89028630
vn -0.26450709 0.83641783 0.48004293
vn 0.64735586 0.64623309 0.40412025
vn 0.19155107 0.41315674 0.89028630
vn 0.26450709 0.83641783 0.48004293
vn -0.00000000 0.62334866 0.78194402
vn -0.00000000 -0.13455730 0.99090581
vn 0.00000000 0.13455730 0.99090581
vn -0.64735586 -0.64623309 -0.40412025
vn -0.19155107 -0.41315674 -0.89028630
vn -0.26450709 -0.83641783 -0.48004293
vn 0.64735586 -0.64623309 -0.40412025
vn 0.19155107 -0.41315674 -0.89028630
vn 0.26450709 -0.83641783 -0.48004293
vn -0.00000000 -0.62334866 -0.78194402
vn -0.64735586 0.64623309 -0.40412025
vn -0.19155107 0.41315674 -0.89028630
vn -0.26450709 0.83641783 -0.48004293
vn 0.64735586 0.64623309 -0.40412025
vn 0.19155107 0.41315674 -0.89028630
vn 0.26450709 0.83641783 -0.48004293
vn -0.00000000 0.62334866 -0.78194402
vn -0.00000000 -0.13455730 -0.99090581
vn 0.00000000 0.13455730 -0.99090581
vn 0.87483553 0.43766625 -0.20763199
vn 0.87541109 0.12715341 -0.46635548
vn 0.71911211 0.41449890 -0.55773509
vn 0.87483553 -0.43766625 -0.20763199
vn 0.87541109 -0.12715341 -0.46635548
vn 0.71911211 -0.41449890 -0.55773509
vn 0.26989960 -0.21886359 -0.93768488
vn 0.69384384 -0.07783277 -0.71590697
vn 0.48965892 -0.32548215 -0.80888535
vn 0.26123573 -0.07207770 -0.96258023
vn 0.72261453 -0.22572284 -0.65335858
vn 0.26989960 0.21886359 -0.93768488
vn 0.69384384 0.07783277 -0.71590697
vn 0.48965892 0.32548215 -0.80888535
vn 0.26123573 0.07207770 -0.96258023
vn 0.72261453 0.22572284 -0.65335858
vn 0.50126315 0.00000000 -0.86529490
vn 0.87483553 0.43766625 0.20763199
vn 0.87541109 0.12715341 0.46635548
vn 0.71911211 0.41449890 0.55773509
vn 0.95896689 0.28351810 0.00000000
vn 0.87483553 -0.43766625 0.20763199
vn 0.87541109 -0.12715341 0.46635548
vn 0.71911211 -0.41449890 0.55773509
vn 0.95896689 -0.28351810 -0.00000000
vn 0.26989960 -0.21886359 0.93768488
vn 0.69384384 -0.07783277 0.71590697
vn 0.48965892 -0.32548215 0.80888535
vn 0.26123573 -0.07207770 0.96258023
vn 0.72261453 -0.22572284 0.65335858
vn 0.26989960 0.21886359 0.93768488
vn 0.69384384 0.07783277 0.71590697
vn 0.48965892 0.32548215 0.80888535
vn 0.26123573 0.07207770 0.96258023
vn 0.72261453 0.22572284 0.65335858
vn 0.50126315 0.00000000 0.86529490
vn 0.95834778 -0.00000000 -0.28560381
vn 0.95834778 0.00000000 0.28560381
vn 0.97726293 0.13365873 -0.16459801
vn 0.97726293 -0.13365873 -0.16459801
vn 0.97726293 0.13365873 0.16459801
vn 0.97726293 -0.13365873 0.16459801
vn -0.87483553 0.43766625 -0.20763199
vn -0.87541109 0.12715341 -0.46635548
vn -0.71911211 0.41449890 -0.55773509
vn -0.87483553 -0.43766625 -0.20763199
vn -0.87541109 -0.12715341 -0.46635548
vn -0.71911211 -0.41449890 -0.55773509
vn -0.26989960 -0.21886359 -0.93768488
vn -0.69384384 -0.07783277 -0.71590697
vn -0.48965892 -0.32548215 -0.80888535
vn -0.26123573 -0.07207770 -0.96258023
vn -0.72261453 -0.22572284 -0.65335858
vn -0.26989960 0.21886359 -0.93768488
vn -0.69384384 0.07783277 -0.71590697
vn -0.48965892 0.32548215 -0.80888535
vn -0.26123573 0.07207770 -0.96258023
vn -0.72261453 0.22572284 -0.65335858
vn -0.50126315 0.00000000 -0.86529490
vn -0.87483553 0.43766625 0.20763199
vn -0.87541109 0.12715341 0.46635548
vn -0.71911211 0.41449890 0.55773509
vn -0.95896689 0.28351810 0.00000000
vn -0.87483553 -0.43766625 0.20763199
vn -0.87541109 -0.12715341 0.46635548
vn -0.71911211 -0.41449890 0.55773509
vn -0.95896689 -0.28351810 -0.00000000
vn -0.26989960 -0.21886359 0.93768488
vn -0.69384384 -0.07783277 0.71590697
vn -0.48965892 -0.32548215 0.80888535
vn -0.26123573 -0.07207770 0.96258023
vn -0.72261453 -0.22572284 0.65335858
vn -0.26989960 0.21886359 0.93768488
vn -0.69384384 0.07783277 0.71590697
vn -0.48965892 0.32548215 0.80888535
vn -0.26123573 0.07207770 0.96258023
vn -0.72261453 0.22572284 0.65335858
vn -0.50126315 0.00000000 0.86529490
vn -0.95834778 0.00000000 -0.28560381
vn -0.95834778 -0.00000000 0.28560381
vn -0.97726293 0.13365873 -0.16459801
vn -0.97726293 -0.13365873 -0.16459801
vn -0.97726293 0.13365873 0.16459801
vn -0.97726293 -0.13365873 0.16459801
vn -0.49100921 0.87115438 -0.00000000
vn 0.49100921 0.87115438 0.00000000
vn -0.49100921 -0.87115438 -0.00000000
vn 0.49100921 -0.87115438 -0.00000000
vn 0.00000000 -0.56834490 0.82279042
vn -0.00000000 0.56834490 0.82279042
vn -0.00000000 -0.56834490 -0.82279042
vn 0.00000000 0.56834490 -0.82279042
vn 0.85546574 -0.00000000 -0.51785940
vn 0.85546574 0.00000000 0.51785940
vn -0.85546574 0.00000000 -0.51785940
vn -0.85546574 0.00000000 0.51785940
vn 0.00000000 1.00000000 0.00000000
vn -0.00000000 -1.00000000 -0.00000000
vn -0.29367380 -0.83665459 0.46234704
vn 0.29367380 -0.83665459 0.46234704
vn -0.29367380 0.83665459 0.46234704
vn 0.29367380 0.83665459 0.46234704
vn 0.00000000 0.00000000 1.00000000
vn -0.29367380 -0.83665459 -0.46234704
vn 0.29367380 -0.83665459 -0.46234704
vn -0.29367380 0.83665459 -0.46234704
vn 0.29367380 0.83665459 -0.46234704
vn 0.00000000 0.00000000 -1.00000000
vn 0.79139166 0.53536030 -0.29510775
vn 0.79139166 -0.53536030 -0.29510775
vn 0.50162131 -0.33766709 -0.79646532
vn 0.50162131 0.33766709 -0.79646532
vn 0.79139166 0.53536030 0.29510775
vn 0.79139166 -0.53536030 0.29510775
vn 0.50162131 -0.33766709 0.79646532
vn 0.50162131 0.33766709 0.79646532
vn 1.00000000 -0.00000000 -0.00000000
vn -0.79139166 0.53536030 -0.29510775
vn -0.79139166 -0.53536030 -0.29510775
vn -0.50162131 -0.33766709 -0.79646532
vn -0.50162131 0.33766709 -0.79646532
vn -0.79139166 0.53536030 0.29510775
vn -0.79139166 -0.53536030 0.29510775
vn -0.50162131 -0.33766709 0.79646532
vn -0.50162131 0.33766709 0.79646532
vn -1.00000000 0.00000000 -0.00000000
vn -0.42315083 0.90605926 0.00000000
vn 0.42315083 0.90605926 0.00000000
vn -0.42315083 -0.90605926 0.00000000
vn 0.42315083 -0.90605926 0.00000000
vn -0.00000000 -0.60577173 0.79563849
vn 0.00000000 0.60577173 0.79563849
vn -0.00000000 -0.60577173 -0.79563849
vn 0.00000000 0.60577173 -0.79563849
vn 0.83556227 0.00000000 -0.54939576
vn 0.83556227 0.00000000 0.54939576
vn -0.83556227 -0.00000000 -0.54939576
vn -0.83556227 -0.00000000 0.54939576
vn 0.00000000 1.00000000 -0.00000000
vn 0.00000000 -1.00000000 -0.00000000
vn -0.25386818 -0.86479491 0.43322132
vn 0.25386818 -0.86479491 0.43322132
vn -0.25386818 0.86479491 0.43322132
vn 0.25386818 0.86479491 0.43322132
vn 0.00000000 0.00000000 1.00000000
vn -0.25386818 -0.86479491 -0.43322132
vn 0.25386818 -0.86479491 -0.43322132
vn -0.25386818 0.86479491 -0.43322132
vn 0.25386818 0.86479491 -0.43322132
vn 0.00000000 -0.00000000 -1.00000000
vn 0.74437602 0.59730163 -0.29855502
vn 0.74437602 -0.59730163 -0.29855502
vn 0.46499760 -0.37145015 -0.80361808
vn 0.46499760 0.37145015 -0.80361808
vn 0.74437602 0.59730163 0.29855502
vn 0.74437602 -0.59730163 0.29855502
vn 0.46499760 -0.37145015 0.80361808
vn 0.46499760 0.37145015 0.80361808
vn 1.00000000 0.00000000 0.00000000
vn -0.74437602 0.59730163 -0.29855502
vn -0.74437602 -0.59730163 -0.29855502
vn -0.46499760 -0.37145015 -0.80361808
vn -0.46499760 0.37145015 -0.80361808
vn -0.74437602 0.59730163 0.29855502
vn -0.74437602 -0.59730163 0.29855502
vn -0.46499760 -0.37145015 0.80361808
vn -0.46499760 0.37145015 0.80361808
vn -1.00000000 0.00000000 0.00000000
f 1//1 138//138 54//54
f 138//138 38//38 140//140
f 54//54 140//140 17//17
f 138//138 140//140 54//54
f 38//38 139//139 155//155
f 139//139 12//12 152//152
f 155//155 152//152 41//41
f 139//139 152//152 155//155
f 17//17 153//153 55//55
f 153//153 41//41 151//151
f 55//55 151//151 6//6
f 153//153 151//151 55//55
f 38//38 155//155 140//140
f 155//155 41//41 153//153
f 140//140 153//153 17//17
f 155//155 153//153 140//140
f 1//1 54//54 43//43
f 54//54 17//17 56//56
f 43//43 56//56 13//13
f 54//54 56//56 43//43
f 17//17 55//55 60//60
f 55//55 6//6 58//58
f 60//60 58//58 18//18
f 55//55 58//58 60//60
f 13//13 59//59 44//44
f 59//59 18//18 57//57
f 44//44 57//57 2//2
f 59//59 57//57 44//44
f 17//17 60//60 56//56
f 60//60 18//18 59//59
f 56//56 59//59 13//13
f 60//60 59//59 56//56
f 1//1 43//43 70//70
f 43//43 13//13 72//72
f 70//70 72//72 22//22
f 43//43 72//72 70//70
f 13//13 44//44 75//75
f 44//44 2//2 73//73
f 75//75 73//73 23//23
f 44//44 73//73 75//75
f 22//22 76//76 71//71
f 76//76 23//23 74//74
f 71//71 74//74 8//8
f 76//76 74//74 71//71
f 13//13 75//75 72//72
f 75//75 23//23 76//76
f 72//72 76//76 22//22
f 75//75 76//76 72//72
f 1//1 70//70 121//121
f 70//70 22//22 123//123
f 121//121 123//123 34//34
f 70//70 123//123 121//121
f 22//22 71//71 134//134
f 71//71 8//8 132//132
f 134//134 132//132 37//37
f 71//71 132//132 134//134
f 34//34 136//136 122//122
f 136//136 37//37 133//133
f 122//122 133//133 11//11
f 136//136 133//133 122//122
f 22//22 134//134 123//123
f 134//134 37//37 136//136
f 123//123 136//136 34//34
f 134//134 136//136 123//123
f 1//1 121//121 138//138
f 121//121 34//34 141//141
f 138//138 141//141 38//38
f 121//121 141//141 138//138
f 34//34 122//122 159//159
f 122//122 11//11 157//157
f 159//159 157//157 42//42
f 122//122 157//157 159//159
f 38//38 161//161 139//139
f 161//161 42//42 158//158
f 139//139 158//158 12//12
f 161//161 158//158 139//139
f 34//34 159//159 141//141
f 159//159 42//42 161//161
f 141//141 161//161 38//38
f 159//159 161//161 141//141
f 2//2 57//57 96//96
f 57//57 18//18 98//98
f 96//96 98//98 29//29
f 57//57 98//98 96//96
f 18//18 58//58 111//111
f 58//58 6//6 109//109
f 111//111 109//109 32//32
f 58//58 109//109 111//111
f 29//29 113//113 97//97
f 113//113 32//32 110//110
f 97//97 110//110 10//10
f 113//113 110//110 97//97
f 18//18 111//111 98//98
f 111//111 32//32 113//113
f 98//98 113//113 29//29
f 111//111 113//113 98//98
f 6//6 151//151 62//62
f 151//151 41//41 154//154
f 62//62 154//154 19//19
f 151//151 154//154 62//62
f 41//41 152//152 156//156
f 152//152 12//12 147//147
f 156//156 147//147 40//40
f 152//152 147//147 156//156
f 19//19 149//149 61//61
f 149//149 40//40 146//146
f 61//61 146//146 5//5
f 149//149 146//146 61//61
f 41//41 156//156 154//154
f 156//156 40//40 149//149
f 154//154 149//149 19//19
f 156//156 149//149 154//154
f 12//12 158//158 143//143
f 158//158 42//42 162//162
f 143//143 162//162 39//39
f 158//158 162//162 143//143
f 42//42 157//157 160//160
f 157//157 11//11 125//125
f 160//160 125//125 35//35
f 157//157 125//125 160//160
f 39//39 145//145 142//142
f 145//145 35//35 124//124
f 142//142 124//124 3//3
f 145//145 124//124 142//142
f 42//42 160//160 162//162
f 160//160 35//35 145//145
f 162//162 145//145 39//39
f 160//160 145//145 162//162
f 11//11 133//133 128//128
f 133//133 37//37 137//137
f 128//128 137//137 36//36
f 133//133 137//137 128//128
f 37//37 132//132 135//135
f 132//132 8//8 78//78
f 135//135 78//78 24//24
f 132//132 78//78 135//135
f 36//36 130//130 127//127
f 130//130 24//24 77//77
f 127//127 77//77 7//7
f 130//130 77//77 127//127
f 37//37 135//135 137//137
f 135//135 24//24 130//130
f 137//137 130//130 36//36
f 135//135 130//130 137//137
f 8//8 74//74 90//90
f 74//74 23//23 92//92
f 90//90 92//92 28//28
f 74//74 92//92 90//90
f 23//23 73//73 81//81
f 73//73 2//2 79//79
f 81//81 79//79 25//25
f 73//73 79//79 81//81
f 28//28 94//94 91//91
f 94//94 25//25 80//80
f 91//91 80//80 9//9
f 94//94 80//80 91//91
f 23//23 81//81 92//92
f 81//81 25//25 94//94
f 92//92 94//94 28//28
f 81//81 94//94 92//92
f 4//4 100//100 50//50
f 100//100 30//30 102//102
f 50//50 102//102 16//16
f 100//100 102//102 50//50
f 30//30 101//101 108//108
f 101//101 10//10 105//105
f 108//108 105//105 31//31
f 101//101 105//105 108//108
f 16//16 106//106 51//51
f 106//106 31//31 104//104
f 51//51 104//104 5//5
f 106//106 104//104 51//51
f 30//30 108//108 102//102
f 108//108 31//31 106//106
f 102//102 106//106 16//16
f 108//108 106//106 102//102
f 4//4 50//50 46//46
f 50//50 16//16 52//52
f 46//46 52//52 14//14
f 50//50 52//52 46//46
f 16//16 51//51 53//53
f 51//51 5//5 48//48
f 53//53 48//48 15//15
f 51//51 48//48 53//53
f 14//14 49//49 45//45
f 49//49 15//15 47//47
f 45//45 47//47 3//3
f 49//49 47//47 45//45
f 16//16 53//53 52//52
f 53//53 15//15 49//49
f 52//52 49//49 14//14
f 53//53 49//49 52//52
f 4//4 46//46 66//66
f 46//46 14//14 68//68
f 66//66 68//68 21//21
f 46//46 68//68 66//66
f 14//14 45//45 65//65
f 45//45 3//3 63//63
f 65//65 63//63 20//20
f 45//45 63//63 65//65
f 21//21 69//69 67//67
f 69//69 20//20 64//64
f 67//67 64//64 7//7
f 69//69 64//64 67//67
f 14//14 65//65 68//68
f 65//65 20//20 69//69
f 68//68 69//69 21//21
f 65//65 69//69 68//68
f 4//4 66//66 82//82
f 66//66 21//21 84//84
f 82//82 84//84 26//26
f 66//66 84//84 82//82
f 21//21 67//67 87//87
f 67//67 7//7 85//85
f 87//87 85//85 27//27
f 67//67 85//85 87//87
f 26//26 89//89 83//83
f 89//89 27//27 86//86
f 83//83 86//86 9//9
f 89//89 86//86 83//83
f 21//21 87//87 84//84
f 87//87 27//27 89//89
f 84//84 89//89 26//26
f 87//87 89//89 84//84
f 4//4 82//82 100//100
f 82//82 26//26 103//103
f 100//100 103//103 30//30
f 82//82 103//103 100//100
f 26//26 83//83 118//118
f 83//83 9//9 115//115
f 118//118 115//115 33//33
f 83//83 115//115 118//118
f 30//30 120//120 101//101
f 120//120 33//33 116//116
f 101//101 116//116 10//10
f 120//120 116//116 101//101
f 26//26 118//118 103//103
f 118//118 33//33 120//120
f 103//103 120//120 30//30
f 118//118 120//120 103//103
f 5//5 104//104 61//61
f 104//104 31//31 107//107
f 61//61 107//107 19//19
f 104//104 107//107 61//61
f 31//31 105//105 114//114
f 105//105 10//10 110//110
f 114//114 110//110 32//32
f 105//105 110//110 114//114
f 19//19 112//112 62//62
f 112//112 32//32 109//109
f 62//62 109//109 6//6
f 112//112 109//109 62//62
f 31//31 114//114 107//107
f 114//114 32//32 112//112
f 107//107 112//112 19//19
f 114//114 112//112 107//107
f 3//3 47//47 142//142
f 47//47 15//15 144//144
f 142//142 144//144 39//39
f 47//47 144//144 142//142
f 15//15 48//48 148//148
f 48//48 5//5 146//146
f 148//148 146//146 40//40
f 48//48 146//146 148//148
f 39//39 150//150 143//143
f 150//150 40//40 147//147
f 143//143 147//147 12//12
f 150//150 147//147 143//143
f 15//15 148//148 144//144
f 148//148 40//40 150//150
f 144//144 150//150 39//39
f 148//148 150//150 144//144
f 7//7 64//64 127//127
f 64//64 20//20 129//129
f 127//127 129//129 36//36
f 64//64 129//129 127//127
f 20//20 63//63 126//126
f 63//63 3//3 124//124
f 126//126 124//124 35//35
f 63//63 124//124 126//126
f 36//36 131//131 128//128
f 131//131 35//35 125//125
f 128//128 125//125 11//11
f 131//131 125//125 128//128
f 20//20 126//126 129//129
f 126//126 35//35 131//131
f 129//129 131//131 36//36
f 126//126 131//131 129//129
f 9//9 86//86 91//91
f 86//86 27//27 95//95
f 91//91 95//95 28//28
f 86//86 95//95 91//91
f 27//27 85//85 88//88
f 85//85 7//7 77//77
f 88//88 77//77 24//24
f 85//85 77//77 88//88
f 28//28 93//93 90//90
f 93//93 24//24 78//78
f 90//90 78//78 8//8
f 93//93 78//78 90//90
f 27//27 88//88 95//95
f 88//88 24//24 93//93
f 95//95 93//93 28//28
f 88//88 93//93 95//95
f 10//10 116//116 97//97
f 116//116 33//33 119//119
f 97//97 119//119 29//29
f 116//116 119//119 97//97
f 33//33 115//115 117//117
f 115//115 9//9 80//80
f 117//117 80//80 25//25
f 115//115 80//80 117//117
f 29//29 99//99 96//96
f 99//99 25//25 79//79
f 96//96 79//79 2//2
f 99//99 79//79 96//96
f 33//33 117//117 119//119
f 117//117 25//25 99//99
f 119//119 99//99 29//29
f 117//117 99//99 119//119
f 163//163 300//300 216//216
f 300//300 200//200 302//302
f 216//216 302//302 179//179
f 300//300 302//302 216//216
f 200//200 301//301 317//317
f 301//301 174//174 314//314
f 317//317 314//314 203//203
f 301//301 314//314 317//317
f 179//179 315//315 217//217
f 315//315 203//203 313//313
f 217//217 313//313 168//168
f 315//315 313//313 217//217
f 200//200 317//317 302//302
f 317//317 203//203 315//315
f 302//302 315//315 179//179
f 317//317 315//315 302//302
f 163//163 216//216 205//205
f 216//216 179//179 218//218
f 205//205 218//218 175//175
f 216//216 218//218 205//205
f 179//179 217//217 222//222
f 217//217 168//168 220//220
f 222//222 220//220 180//180
f 217//217 220//220 222//222
f 175//175 221//221 206//206
f 221//221 180//180 219//219
f 206//206 219//219 164//164
f 221//221 219//219 206//206
f 179//179 222//222 218//218
f 222//222 180//180 221//221
f 218//218 221//221 175//175
f 222//222 221//221 218//218
f 163//163 205//205 232//232
f 205//205 175//175 234//234
f 232//232 234//234 184//184
f 205//205 234//234 232//232
f 175//175 206//206 237//237
f 206//206 164//164 235//235
f 237//237 235//235 185//185
f 206//206 235//235 237//237
f 184//184 238//238 233//233
f 238//238 185//185 236//236
f 233//233 236//236 170//170
f 238//238 236//236 233//233
f 175//175 237//237 234//234
f 237//237 185//185 238//238
f 234//234 238//238 184//184
f 237//237 238//238 234//234
f 163//163 232//232 283//283
f 232//232 184//184 285//285
f 283//283 285//285 196//196
f 232//232 285//285 283//283
f 184//184 233//233 296//296
f 233//233 170//170 294//294
f 296//296 294//294 199//199
f 233//233 294//294 296//296
f 196//196 298//298 284//284
f 298//298 199//199 295//295
f 284//284 295//295 173//173
f 298//298 295//295 284//284
f 184//184 296//296 285//285
f 296//296 199//199 298//298
f 285//285 298//298 196//196
f 296//296 298//298 285//285
f 163//163 283//283 300//300
f 283//283 196//196 303//303
f 300//300 303//303 200//200
f 283//283 303//303 300//300
f 196//196 284//284 321//321
f 284//284 173//173 319//319
f 321//321 319//319 204//204
f 284//284 319//319 321//321
f 200//200 323//323 301//301
f 323//323 204//204 320//320
f 301//301 320//320 174//174
f 323//323 320//320 301//301
f 196//196 321//321 303//303
f 321//321 204//204 323//323
f 303//303 323//323 200//200
f 321//321 323//323 303//303
f 164//164 219//219 258//258
f 219//219 180//180 260//260
f 258//258 260//260 191//191
f 219//219 260//260 258//258
f 180//180 220//220 273//273
f 220//220 168//168 271//271
f 273//273 271//271 194//194
f 220//220 271//271 273//273
f 191//191 275//275 259//259
f 275//275 194//194 272//272
f 259//259 272//272 172//172
f 275//275 272//272 259//259
f 180//180 273//273 260//260
f 273//273 194//194 275//275
f 260//260 275//275 191//191
f 273//273 275//275 260//260
f 168//168 313//313 224//224
f 313//313 203//203 316//316
f 224//224 316//316 181//181
f 313//313 316//316 224//224
f 203//203 314//314 318//318
f 314//314 174//174 309//309
f 318//318 309//309 202//202
f 314//314 309//309 318//318
f 181//181 311//311 223//223
f 311//311 202//202 308//308
f 223//223 308//308 167//167
f 311//311 308//308 223//223
f 203//203 318//318 316//316
f 318//318 202//202 311//311
f 316//316 311//311 181//181
f 318//318 311//311 316//316
f 174//174 320//320 305//305
f 320//320 204//204 324//324
f 305//305 324//324 201//201
f 320//320 324//324 305//305
f 204//204 319//319 322//322
f 319//319 173//173 287//287
f 322//322 287//287 197//197
f 319//319 287//287 322//322
f 201//201 307//307 304//304
f 307//307 197//197 286//286
f 304//304 286//286 165//165
f 307//307 286//286 304//304
f 204//204 322//322 324//324
f 322//322 197//197 307//307
f 324//324 307//307 201//201
f 322//322 307//307 324//324
f 173//173 295//295 290//290
f 295//295 199//199 299//299
f 290//290 299//299 198//198
f 295//295 299//299 290//290
f 199//199 294//294 297//297
f 294//294 170//170 240//240
f 297//297 240//240 186//186
f 294//294 240//240 297//297
f 198//198 292//292 289//289
f 292//292 186//186 239//239
f 289//289 239//239 169//169
f 292//292 239//239 289//289
f 199//199 297//297 299//299
f 297//297 186//186 292//292
f 299//299 292//292 198//198
f 297//297 292//292 299//299
f 170//170 236//236 252//252
f 236//236 185//185 254//254
f 252//252 254//254 190//190
f 236//236 254//254 252//252
f 185//185 235//235 243//243
f 235//235 164//164 241//241
f 243//243 241//241 187//187
f 235//235 241//241 243//243
f 190//190 256//256 253//253
f 256//256 187//187 242//242
f 253//253 242//242 171//171
f 256//256 242//242 253//253
f 185//185 243//243 254//254
f 243//243 187//187 256//256
f 254//254 256//256 190//190
f 243//243 256//256 254//254
f 166//166 262//262 212//212
f 262//262 192//192 264//264
f 212//212 264//264 178//178
f 262//262 264//264 212//212
f 192//192 263//263 270//270
f 263//263 172//172 267//267
f 270//270 267//267 193//193
f 263//263 267//267 270//270
f 178//178 268//268 213//213
f 268//268 193//193 266//266
f 213//213 266//266 167//167
f 268//268 266//266 213//213
f 192//192 270//270 264//264
f 270//270 193//193 268//268
f 264//264 268//268 178//178
f 270//270 268//268 264//264
f 166//166 212//212 208//208
f 212//212 178//178 214//214
f 208//208 214//214 176//176
f 212//212 214//214 208//208
f 178//178 213//213 215//215
f 213//213 167//167 210//210
f 215//215 210//210 177//177
f 213//213 210//210 215//215
f 176//176 211//211 207//207
f 211//211 177//177 209//209
f 207//207 209//209 165//165
f 211//211 209//209 207//207
f 178//178 215//215 214//214
f 215//215 177//177 211//211
f 214//214 211//211 176//176
f 215//215 211//211 214//214
f 166//166 208//208 228//228
f 208//208 176//176 230//230
f 228//228 230//230 183//183
f 208//208 230//230 228//228
f 176//176 207//207 227//227
f 207//207 165//165 225//225
f 227//227 225//225 182//182
f 207//207 225//225 227//227
f 183//183 231//231 229//229
f 231//231 182//182 226//226
f 229//229 226//226 169//169
f 231//231 226//226 229//229
f 176//176 227//227 230//230
f 227//227 182//182 231//231
f 230//230 231//231 183//183
f 227//227 231//231 230//230
f 166//166 228//228 244//244
f 228//228 183//183 246//246
f 244//244 246//246 188//188
f 228//228 246//246 244//244
f 183//183 229//229 249//249
f 229//229 169//169 247//247
f 249//249 247//247 189//189
f 229//229 247//247 249//249
f 188//188 251//251 245//245
f 251//251 189//189 248//248
f 245//245 248//248 171//171
f 251//251 248//248 245//245
f 183//183 249//249 246//246
f 249//249 189//189 251//251
f 246//246 251//251 188//188
f 249//249 251//251 246//246
f 166//166 244//244 262//262
f 244//244 188//188 265//265
f 262//262 265//265 192//192
f 244//244 265//265 262//262
f 188//188 245//245 280//280
f 245//245 171//171 277//277
f 280//280 277//277 195//195
f 245//245 277//277 280//280
f 192//192 282//282 263//263
f 282//282 195//195 278//278
f 263//263 278//278 172//172
f 282//282 278//278 263//263
f 188//188 280//280 265//265
f 280//280 195//195 282//282
f 265//265 282//282 192//192
f 280//280 282//282 265//265
f 167//167 266//266 223//223
f 266//266 193//193 269//269
f 223//223 269//269 181//181
f 266//266 269//269 223//223
f 193//193 267//267 276//276
f 267//267 172//172 272//272
f 276//276 272//272 194//194
f 267//267 272//272 276//276
f 181//181 274//274 224//224
f 274//274 194//194 271//271
f 224//224 271//271 168//168
f 274//274 271//271 224//224
f 193//193 276//276 269//269
f 276//276 194//194 274//274
f 269//269 274//274 181//181
f 276//276 274//274 269//269
f 165//165 209//209 304//304
f 209//209 177//177 306//306
f 304//304 306//306 201//201
f 209//209 306//306 304//304
f 177//177 210//210 310//310
f 210//210 167//167 308//308
f 310//310 308//308 202//202
f 210//210 308//308 310//310
f 201//201 312//312 305//305
f 312//312 202//202 309//309
f 305//305 309//309 174//174
f 312//312 309//309 305//305
f 177//177 310//310 306//306
f 310//310 202//202 312//312
f 306//306 312//312 201//201
f 310//310 312//312 306//306
f 169//169 226//226 289//289
f 226//226 182//182 291//291
f 289//289 291//291 198//198
f 226//226 291//291 289//289
f 182//182 225//225 288//288
f 225//225 165//165 286//286
f 288//288 286//286 197//197
f 225//225 286//286 288//288
f 198//198 293//293 290//290
f 293//293 197//197 287//287
f 290//290 287//287 173//173
f 293//293 287//287 290//290
f 182//182 288//288 291//291
f 288//288 197//197 293//293
f 291//291 293//293 198//198
f 288//288 293//293 291//291
f 171//171 248//248 253//253
f 248//248 189//189 257//257
f 253//253 257//257 190//190
f 248//248 257//257 253//253
f 189//189 247//247 250//250
f 247//247 169//169 239//239
f 250//250 239//239 186//186
f 247//247 239//239 250//250
f 190//190 255//255 252//252
f 255//255 186//186 240//240
f 252//252 240//240 170//170
f 255//255 240//240 252//252
f 189//189 250//250 257//257
f 250//250 186//186 255//255
f 257//257 255//255 190//190
f 250//250 255//255 257//257
f 172//172 278//278 259//259
f 278//278 195//195 281//281
f 259//259 281//281 191//191
f 278//278 281//281 259//259
f 195//195 277//277 279//279
f 277//277 171//171 242//242
f 279//279 242//242 187//187
f 277//277 242//242 279//279
f 191//191 261//261 258//258
f 261//261 187//187 241//241
f 258//258 241//241 164//164
f 261//261 241//241 258//258
f 195//195 279//279 281//281
f 279//279 187//187 261//261
f 281//281 261//261 191//191
f 279//279 261//261 281//281
f 325//325 362//362 341//341
f 362//362 336//336 365//365
f 341//341 365//365 330//330
f 362//362 365//365 341//341
f 325//325 341//341 337//337
f 341//341 330//330 342//342
f 337//337 342//342 326//326
f 341//341 342//342 337//337
f 325//325 337//337 346//346
f 337//337 326//326 347//347
f 346//346 347//347 332//332
f 337//337 347//347 346//346
f 325//325 346//346 358//358
f 346//346 332//332 361//361
f 358//358 361//361 335//335
f 346//346 361//361 358//358
f 325//325 358//358 362//362
f 358//358 335//335 366//366
f 362//362 366//366 336//336
f 358//358 366//366 362//362
f 326//326 342//342 353//353
f 342//342 330//330 356//356
f 353//353 356//356 334//334
f 342//342 356//356 353//353
f 330//330 365//365 343//343
f 365//365 336//336 364//364
f 343//343 364//364 329//329
f 365//365 364//364 343//343
f 336//336 366//366 363//363
f 366//366 335//335 359//359
f 363//363 359//359 327//327
f 366//366 359//359 363//363
f 335//335 361//361 360//360
f 361//361 332//332 348//348
f 360//360 348//348 331//331
f 361//361 348//348 360//360
f 332//332 347//347 352//352
f 347//347 326//326 349//349
f 352//352 349//349 333//333
f 347//347 349//349 352//352
f 328//328 354//354 340//340
f 354//354 334//334 355//355
f 340//340 355//355 329//329
f 354//354 355//355 340//340
f 328//328 340//340 338//338
f 340//340 329//329 339//339
f 338//338 339//339 327//327
f 340//340 339//339 338//338
f 328//328 338//338 345//345
f 338//338 327//327 344//344
f 345//345 344//344 331//331
f 338//338 344//344 345//345
f 328//328 345//345 350//350
f 345//345 331//331 351//351
f 350//350 351//351 333//333
f 345//345 351//351 350//350
f 328//328 350//350 354//354
f 350//350 333//333 357//357
f 354//354 357//357 334//334
f 350//350 357//357 354//354
f 329//329 355//355 343//343
f 355//355 334//334 356//356
f 343//343 356//356 330//330
f 355//355 356//356 343//343
f 327//327 339//339 363//363
f 339//339 329//329 364//364
f 363//363 364//364 336//336
f 339//339 364//364 363//363
f 331//331 344//344 360//360
f 344//344 327//327 359//359
f 360//360 359//359 335//335
f 344//344 359//359 360//360
f 333//333 351//351 352//352
f 351//351 331//331 348//348
f 352//352 348//348 332//332
f 351//351 348//348 352//352
f 334//334 357//357 353//353
f 357//357 333//333 349//349
f 353//353 349//349 326//326
f 357//357 349//349 353//353
f 367//367 404//404 383//383
f 404//404 378//378 407//407
f 383//383 407//407 372//372
f 404//404 407//407 383//383
f 367//367 383//383 379//379
f 383//383 372//372 384//384
f 379//379 384//384 368//368
f 383//383 384//384 379//379
f 367//367 379//379 388//388
f 379//379 368//368 389//389
f 388//388 389//389 374//374
f 379//379 389//389 388//388
f 367//367 388//388 400//400
f 388//388 374//374 403//403
f 400//400 403//403 377//377
f 388//388 403//403 400//400
f 367//367 400//400 404//404
f 400//400 377//377 408//408
f 404//404 408//408 378//378
f 400//400 408//408 404//404
f 368//368 384//384 395//395
f 384//384 372//372 398//398
f 395//395 398//398 376//376
f 384//384 398//398 395//395
f 372//372 407//407 385//385
f 407//407 378//378 406//406
f 385//385 406//406 371//371
f 407//407 406//406 385//385
f 378//378 408//408 405//405
f 408//408 377//377 401//401
f 405//405 401//401 369//369
f 408//408 401//401 405//405
f 377//377 403//403 402//402
f 403//403 374//374 390//390
f 402//402 390//390 373//373
f 403//403 390//390 402//402
f 374//374 389//389 394//394
f 389//389 368//368 391//391
f 394//394 391//391 375//375
f 389//389 391//391 394//394
f 370//370 396//396 382//382
f 396//396 376//376 397//397
f 382//382 397//397 371//371
f 396//396 397//397 382//382
f 370//370 382//382 380//380
f 382//382 371//371 381//381
f 380//380 381//381 369//369
f 382//382 381//381 380//380
f 370//370 380//380 387//387
f 380//380 369//369 386//386
f 387//387 386//386 373//373
f 380//380 386//386 387//387
f 370//370 387//387 392//392
f 387//387 373//373 393//393
f 392//392 393//393 375//375
f 387//387 393//393 392//392
f 370//370 392//392 396//396
f 392//392 375//375 399//399
f 396//396 399//399 376//376
f 392//392 399//399 396//396
f 371//371 397//397 385//385
f 397//397 376//376 398//398
f 385//385 398//398 372//372
f 397//397 398//398 385//385
f 369//369 381//381 405//405
f 381//381 371//371 406//406
f 405//405 406//406 378//378
f 381//381 406//406 405//405
f 373//373 386//386 402//402
f 386//386 369//369 401//401
f 402//402 401//401 377//377
f 386//386 401//401 402//402
f 375//375 393//393 394//394
f 393//393 373//373 390//390
f 394//394 390//390 374//374
f 393//393 390//390 394//394
f 376//376 399//399 395//395
f 399//399 375//375 391//391
f 395//395 391//391 368//368
f 399//399 391//391 395//395

