# https://github.com/mikedh/trimesh
v -0.27468503 0.48129937 0.01000000
v 0.16692910 0.48129937 0.01000000
v -0.22772910 -0.30129937 0.01000000
v 0.21388503 -0.30129937 0.01000000
v -0.01588982 -0.15183631 0.25668873
v -0.04491018 0.33183631 0.25668873
v -0.01588982 -0.15183631 -0.23668873
v -0.04491018 0.33183631 -0.23668873
v 0.32687334 0.09000000 -0.14246202
v 0.32687334 0.09000000 0.16246202
v -0.38767334 0.09000000 -0.14246202
v -0.38767334 0.09000000 0.16246202
v -0.05800000 0.55000000 0.01000000
v -0.00280000 -0.37000000 0.01000000
v -0.13785827 -0.28214782 0.15500000
v 0.12171601 -0.28214782 0.15500000
v -0.18251601 0.46214782 0.15500000
v 0.07705827 0.46214782 0.15500000
v -0.03040000 0.09000000 0.30000000
v -0.13785827 -0.28214782 -0.13500000
v 0.12171601 -0.28214782 -0.13500000
v -0.18251601 0.46214782 -0.13500000
v 0.07705827 0.46214782 -0.13500000
v -0.03040000 0.09000000 -0.28000000
v 0.29558714 0.32000000 -0.07961493
v 0.32318714 -0.14000000 -0.07961493
v 0.18812887 -0.05214782 -0.22461493
v 0.17107113 0.23214782 -0.22461493
v 0.29558714 0.32000000 0.09961493
v 0.32318714 -0.14000000 0.09961493
v 0.18812887 -0.05214782 0.24461493
v 0.17107113 0.23214782 0.24461493
v 0.38960000 0.09000000 0.01000000
v -0.38398714 0.32000000 -0.07961493
v -0.35638714 -0.14000000 -0.07961493
v -0.23187113 -0.05214782 -0.22461493
v -0.24892887 0.23214782 -0.22461493
v -0.38398714 0.32000000 0.09961493
v -0.35638714 -0.14000000 0.09961493
v -0.23187113 -0.05214782 0.24461493
v -0.24892887 0.23214782 0.24461493
v -0.45040000 0.09000000 0.01000000
v -0.17172144 0.53249164 0.01000000
v 0.05782244 0.53249164 0.01000000
v -0.11862244 -0.35249164 0.01000000
v 0.11092144 -0.35249164 0.01000000
v -0.18882355 -0.30682750 0.08536865
v -0.07871291 -0.22913902 0.21359347
v -0.07238398 -0.34748600 0.08623101
v 0.17564285 -0.30682750 0.08536865
v 0.05620960 -0.22913902 0.21359347
v 0.06408230 -0.34748600 0.08623101
v -0.00692204 -0.30129937 0.16246202
v -0.23644285 0.48682750 0.08536865
v -0.11700960 0.40913902 0.21359347
v -0.12488230 0.52748600 0.08623101
v 0.12802355 0.48682750 0.08536865
v 0.01791291 0.40913902 0.21359347
v 0.01158398 0.52748600 0.08623101
v -0.05387796 0.48129937 0.16246202
v -0.02285784 -0.03570260 0.28896212
v -0.03794216 0.21570260 0.28896212
v -0.18882355 -0.30682750 -0.06536865
v -0.07871291 -0.22913902 -0.19359347
v -0.07238398 -0.34748600 -0.06623101
v 0.17564285 -0.30682750 -0.06536865
v 0.05620960 -0.22913902 -0.19359347
v 0.06408230 -0.34748600 -0.06623101
v -0.00692204 -0.30129937 -0.14246202
v -0.23644285 0.48682750 -0.06536865
v -0.11700960 0.40913902 -0.19359347
v -0.12488230 0.52748600 -0.06623101
v 0.12802355 0.48682750 -0.06536865
v 0.01791291 0.40913902 -0.19359347
v 0.01158398 0.52748600 -0.06623101
v -0.05387796 0.48129937 -0.14246202
v -0.02285784 -0.03570260 -0.26896212
v -0.03794216 0.21570260 -0.26896212
v 0.24161132 0.41294136 -0.03658039
v 0.32474774 0.20955028 -0.11582768
v 0.19747574 0.40656784 -0.11334437
v 0.28036428 -0.23294136 -0.03658039
v 0.33909378 -0.02955028 -0.11582768
v 0.23546388 -0.22656784 -0.11334437
v 0.09072993 -0.10958874 -0.24017386
v 0.26889267 0.01611386 -0.19119634
v 0.16445954 -0.18038122 -0.18957538
v 0.08448743 0.01526847 -0.26580639
v 0.27037918 -0.10564969 -0.16045772
v 0.06677928 0.28958874 -0.24017386
v 0.26002634 0.16388614 -0.19119634
v 0.13201380 0.36038122 -0.18957538
v 0.07551964 0.16473153 -0.26580639
v 0.24690122 0.28564969 -0.16045772
v 0.19040707 0.09000000 -0.23668873
v 0.24161132 0.41294136 0.05658039
v 0.32474774 0.20955028 0.13582768
v 0.19747574 0.40656784 0.13334437
v 0.31236316 0.33183631 0.01000000
v 0.28036428 -0.23294136 0.05658039
v 0.33909378 -0.02955028 0.13582768
v 0.23546388 -0.22656784 0.13334437
v 0.34138352 -0.15183631 0.01000000
v 0.09072993 -0.10958874 0.26017386
v 0.26889267 0.01611386 0.21119634
v 0.16445954 -0.18038122 0.20957538
v 0.08448743 0.01526847 0.28580639
v 0.27037918 -0.10564969 0.18045772
v 0.06677928 0.28958874 0.26017386
v 0.26002634 0.16388614 0.21119634
v 0.13201380 0.36038122 0.20957538
v 0.07551964 0.16473153 0.28580639
v 0.24690122 0.28564969 0.18045772
v 0.19040707 0.09000000 0.25668873
v 0.37361411 0.09000000 -0.06924729
v 0.37361411 0.09000000 0.08924729
v 0.36178865 0.21091816 -0.03711336
v 0.37629883 -0.03091816 -0.03711336
v 0.36178865 0.21091816 0.05711336
v 0.37629883 -0.03091816 0.05711336
v -0.34116428 0.41294136 -0.03658039
v -0.39989378 0.20955028 -0.11582768
v -0.29626388 0.40656784 -0.11334437
v -0.30241132 -0.23294136 -0.03658039
v -0.38554774 -0.02955028 -0.11582768
v -0.25827574 -0.22656784 -0.11334437
v -0.12757928 -0.10958874 -0.24017386
v -0.32082634 0.01611386 -0.19119634
v -0.19281380 -0.18038122 -0.18957538
v -0.13631964 0.01526847 -0.26580639
v -0.30770122 -0.10564969 -0.16045772
v -0.15152993 0.28958874 -0.24017386
v -0.32969267 0.16388614 -0.19119634
v -0.22525954 0.36038122 -0.18957538
v -0.14528743 0.16473153 -0.26580639
v -0.33117918 0.28564969 -0.16045772
v -0.25120707 0.09000000 -0.23668873
v -0.34116428 0.41294136 0.05658039
v -0.39989378 0.20955028 0.13582768
v -0.29626388 0.40656784 0.13334437
v -0.40218352 0.33183631 0.01000000
v -0.30241132 -0.23294136 0.05658039
v -0.38554774 -0.02955028 0.13582768
v -0.25827574 -0.22656784 0.13334437
v -0.37316316 -0.15183631 0.01000000
v -0.12757928 -0.10958874 0.26017386
v -0.32082634 0.01611386 0.21119634
v -0.19281380 -0.18038122 0.20957538
v -0.13631964 0.01526847 0.28580639
v -0.30770122 -0.10564969 0.18045772
v -0.15152993 0.28958874 0.26017386
v -0.32969267 0.16388614 0.21119634
v -0.22525954 0.36038122 0.20957538
v -0.14528743 0.16473153 0.28580639
v -0.33117918 0.28564969 0.18045772
v -0.25120707 0.09000000 0.25668873
v -0.43441411 0.09000000 -0.06924729
v -0.43441411 0.09000000 0.08924729
v -0.43709883 0.21091816 -0.03711336
v -0.42258865 -0.03091816 -0.03711336
v -0.43709883 0.21091816 0.05711336
v -0.42258865 -0.03091816 0.05711336
v -0.14672992 -0.02077873 0.02500000
v 0.17922337 -0.02077873 0.02500000
v -0.11202337 -0.59922127 0.02500000
v 0.21392992 -0.59922127 0.02500000
v 0.04432491 -0.48874858 0.23340945
v 0.02287509 -0.13125142 0.23340945
v 0.04432491 -0.48874858 -0.18340945
v 0.02287509 -0.13125142 -0.18340945
v 0.29730175 -0.31000000 -0.10380412
v 0.29730175 -0.31000000 0.15380412
v -0.23010175 -0.31000000 -0.10380412
v -0.23010175 -0.31000000 0.15380412
v 0.01320000 0.03000000 0.02500000
v 0.05400000 -0.65000000 0.02500000
v -0.04569132 -0.58506578 0.14750000
v 0.14589921 -0.58506578 0.14750000
v -0.07869921 -0.03493422 0.14750000
v 0.11289132 -0.03493422 0.14750000
v 0.03360000 -0.31000000 0.27000000
v -0.04569132 -0.58506578 -0.09750000
v 0.14589921 -0.58506578 -0.09750000
v -0.07869921 -0.03493422 -0.09750000
v 0.11289132 -0.03493422 -0.09750000
v 0.03360000 -0.31000000 -0.22000000
v 0.27419527 -0.14000000 -0.05070916
v 0.29459527 -0.48000000 -0.05070916
v 0.19490395 -0.41506578 -0.17320916
v 0.18229605 -0.20493422 -0.17320916
v 0.27419527 -0.14000000 0.10070916
v 0.29459527 -0.48000000 0.10070916
v 0.19490395 -0.41506578 0.22320916
v 0.18229605 -0.20493422 0.22320916
v 0.34360000 -0.31000000 0.02500000
v -0.22739527 -0.14000000 -0.05070916
v -0.20699527 -0.48000000 -0.05070916
v -0.11509605 -0.41506578 -0.17320916
v -0.12770395 -0.20493422 -0.17320916
v -0.22739527 -0.14000000 0.10070916
v -0.20699527 -0.48000000 0.10070916
v -0.11509605 -0.41506578 0.22320916
v -0.12770395 -0.20493422 0.22320916
v -0.27640000 -0.31000000 0.02500000
v -0.07073617 0.01705904 0.02500000
v 0.09868908 0.01705904 0.02500000
v -0.03148908 -0.63705904 0.02500000
v 0.13793617 -0.63705904 0.02500000
v -0.08330702 -0.60330728 0.08867352
v -0.00203971 -0.54588536 0.19700138
v 0.00263900 -0.63335922 0.08940206
v 0.18570389 -0.60330728 0.08867352
v 0.09754595 -0.54588536 0.19700138
v 0.10336411 -0.63335922 0.08940206
v 0.05095328 -0.59922127 0.15380412
v -0.11850389 -0.01669272 0.08867352
v -0.03034595 -0.07411464 0.19700138
v -0.03616411 0.01335922 0.08940206
v 0.15050702 -0.01669272 0.08867352
v 0.06923971 -0.07411464 0.19700138
v 0.06456100 0.01335922 0.08940206
v 0.01624672 -0.02077873 0.15380412
v 0.03917464 -0.40291062 0.26067490
v 0.02802536 -0.21708938 0.26067490
v -0.08330702 -0.60330728 -0.03867352
v -0.00203971 -0.54588536 -0.14700138
v 0.00263900 -0.63335922 -0.03940206
v 0.18570389 -0.60330728 -0.03867352
v 0.09754595 -0.54588536 -0.14700138
v 0.10336411 -0.63335922 -0.03940206
v 0.05095328 -0.59922127 -0.10380412
v -0.11850389 -0.01669272 -0.03867352
v -0.03034595 -0.07411464 -0.14700138
v -0.03616411 0.01335922 -0.03940206
v 0.15050702 -0.01669272 -0.03867352
v 0.06923971 -0.07411464 -0.14700138
v 0.06456100 0.01335922 -0.03940206
v 0.01624672 -0.02077873 -0.10380412
v 0.03917464 -0.40291062 -0.21067490
v 0.02802536 -0.21708938 -0.21067490
v 0.23435020 -0.07130421 -0.01435240
v 0.29572543 -0.22163675 -0.08130270
v 0.20177433 -0.07601507 -0.07920472
v 0.26299370 -0.54869579 -0.01435240
v 0.30632902 -0.39836325 -0.08130270
v 0.22985252 -0.54398493 -0.07920472
v 0.12301782 -0.45752211 -0.18635378
v 0.25451109 -0.36461149 -0.14497622
v 0.17744169 -0.50984699 -0.14360679
v 0.11840250 -0.36523635 -0.20800885
v 0.25561584 -0.45461064 -0.11900739
v 0.10531517 -0.16247789 -0.18635378
v 0.24795771 -0.25538851 -0.14497622
v 0.15346006 -0.11015301 -0.14360679
v 0.11177414 -0.25476365 -0.20800885
v 0.23826256 -0.16538936 -0.11900739
v 0.19657664 -0.31000000 -0.18340945
v 0.23435020 -0.07130421 0.06435240
v 0.29572543 -0.22163675 0.13130270
v 0.20177433 -0.07601507 0.12920472
v 0.28657684 -0.13125142 0.02500000
v 0.26299370 -0.54869579 0.06435240
v 0.30632902 -0.39836325 0.13130270
v 0.22985252 -0.54398493 0.12920472
v 0.30802667 -0.48874858 0.02500000
v 0.12301782 -0.45752211 0.23635378
v 0.25451109 -0.36461149 0.19497622
v 0.17744169 -0.50984699 0.19360679
v 0.11840250 -0.36523635 0.25800885
v 0.25561584 -0.45461064 0.16900739
v 0.10531517 -0.16247789 0.23635378
v 0.24795771 -0.25538851 0.19497622
v 0.15346006 -0.11015301 0.19360679
v 0.11177414 -0.25476365 0.25800885
v 0.23826256 -0.16538936 0.16900739
v 0.19657664 -0.31000000 0.23340945
v 0.33180089 -0.31000000 -0.04195030
v 0.33180089 -0.31000000 0.09195030
v 0.32306506 -0.22062571 -0.01480266
v 0.33378998 -0.39937429 -0.01480266
v 0.32306506 -0.22062571 0.06480266
v 0.33378998 -0.39937429 0.06480266
v -0.19579370 -0.07130421 -0.01435240
v -0.23912902 -0.22163675 -0.08130270
v -0.16265252 -0.07601507 -0.07920472
v -0.16715020 -0.54869579 -0.01435240
v -0.22852543 -0.39836325 -0.08130270
v -0.13457433 -0.54398493 -0.07920472
v -0.03811517 -0.45752211 -0.18635378
v -0.18075771 -0.36461149 -0.14497622
v -0.08626006 -0.50984699 -0.14360679
v -0.04457414 -0.36523635 -0.20800885
v -0.17106256 -0.45461064 -0.11900739
v -0.05581782 -0.16247789 -0.18635378
v -0.18731109 -0.25538851 -0.14497622
v -0.11024169 -0.11015301 -0.14360679
v -0.05120250 -0.25476365 -0.20800885
v -0.18841584 -0.16538936 -0.11900739
v -0.12937664 -0.31000000 -0.18340945
v -0.19579370 -0.07130421 0.06435240
v -0.23912902 -0.22163675 0.13130270
v -0.16265252 -0.07601507 0.12920472
v -0.24082667 -0.13125142 0.02500000
v -0.16715020 -0.54869579 0.06435240
v -0.22852543 -0.39836325 0.13130270
v -0.13457433 -0.54398493 0.12920472
v -0.21937684 -0.48874858 0.02500000
v -0.03811517 -0.45752211 0.23635378
v -0.18075771 -0.36461149 0.19497622
v -0.08626006 -0.50984699 0.19360679
v -0.04457414 -0.36523635 0.25800885
v -0.17106256 -0.45461064 0.16900739
v -0.05581782 -0.16247789 0.23635378
v -0.18731109 -0.25538851 0.19497622
v -0.11024169 -0.11015301 0.19360679
v -0.05120250 -0.25476365 0.25800885
v -0.18841584 -0.16538936 0.16900739
v -0.12937664 -0.31000000 0.23340945
v -0.26460089 -0.31000000 -0.04195030
v -0.26460089 -0.31000000 0.09195030
v -0.26658998 -0.22062571 -0.01480266
v -0.25586506 -0.39937429 -0.01480266
v -0.26658998 -0.22062571 0.06480266
v -0.25586506 -0.39937429 0.06480266
v -0.51716555 0.45461064 0.03000000
v -0.31738773 0.45461064 0.03000000
v -0.49981227 0.16538936 0.03000000
v -0.30003445 0.16538936 0.03000000
v -0.40323754 0.22062571 0.23415619
v -0.41396246 0.39937429 0.23415619
v -0.40323754 0.22062571 -0.17415619
v -0.41396246 0.39937429 -0.17415619
v -0.24697635 0.31000000 -0.09617547
v -0.24697635 0.31000000 0.15617547
v -0.57022365 0.31000000 -0.09617547
v -0.57022365 0.31000000 0.15617547
v -0.41880000 0.48000000 0.03000000
v -0.39840000 0.14000000 0.03000000
v -0.45906126 0.17246711 0.15000000
v -0.34163480 0.17246711 0.15000000
v -0.47556520 0.44753289 0.15000000
v -0.35813874 0.44753289 0.15000000
v -0.40860000 0.31000000 0.27000000
v -0.45906126 0.17246711 -0.09000000
v -0.34163480 0.17246711 -0.09000000
v -0.47556520 0.44753289 -0.09000000
v -0.35813874 0.44753289 -0.09000000
v -0.40860000 0.31000000 -0.21000000
v -0.25998677 0.39500000 -0.04416408
v -0.24978677 0.22500000 -0.04416408
v -0.31044803 0.25746711 -0.16416408
v -0.31675197 0.36253289 -0.16416408
v -0.25998677 0.39500000 0.10416408
v -0.24978677 0.22500000 0.10416408
v -0.31044803 0.25746711 0.22416408
v -0.31675197 0.36253289 0.22416408
v -0.21860000 0.31000000 0.03000000
v -0.56741323 0.39500000 -0.04416408
v -0.55721323 0.22500000 -0.04416408
v -0.50044803 0.25746711 -0.16416408
v -0.50675197 0.36253289 -0.16416408
v -0.56741323 0.39500000 0.10416408
v -0.55721323 0.22500000 0.10416408
v -0.50044803 0.25746711 0.22416408
v -0.50675197 0.36253289 0.22416408
v -0.59860000 0.31000000 0.03000000
v -0.47033241 0.47352952 0.03000000
v -0.36649113 0.47352952 0.03000000
v -0.45070887 0.14647048 0.03000000
v -0.34686759 0.14647048 0.03000000
v -0.48223961 0.16334636 0.09237406
v -0.43204163 0.19205732 0.19849115
v -0.42976659 0.14832039 0.09308773
v -0.31736195 0.16334636 0.09237406
v -0.37100525 0.19205732 0.19849115
v -0.36803185 0.14832039 0.09308773
v -0.39992336 0.16538936 0.15617547
v -0.49983805 0.45665364 0.09237406
v -0.44619475 0.42794268 0.19849115
v -0.44916815 0.47167961 0.09308773
v -0.33496039 0.45665364 0.09237406
v -0.38515837 0.42794268 0.19849115
v -0.38743341 0.47167961 0.09308773
v -0.41727664 0.45461064 0.15617547
v -0.40581268 0.26354469 0.26086521
v -0.41138732 0.35645531 0.26086521
v -0.48223961 0.16334636 -0.03237406
v -0.43204163 0.19205732 -0.13849115
v -0.42976659 0.14832039 -0.03308773
v -0.31736195 0.16334636 -0.03237406
v -0.37100525 0.19205732 -0.13849115
v -0.36803185 0.14832039 -0.03308773
v -0.39992336 0.16538936 -0.09617547
v -0.49983805 0.45665364 -0.03237406
v -0.44619475 0.42794268 -0.13849115
v -0.44916815 0.47167961 -0.03308773
v -0.33496039 0.45665364 -0.03237406
v -0.38515837 0.42794268 -0.13849115
v -0.38743341 0.47167961 -0.03308773
v -0.41727664 0.45461064 -0.09617547
v -0.40581268 0.26354469 -0.20086521
v -0.41138732 0.35645531 -0.20086521
v -0.28394258 0.42934790 -0.00854929
v -0.24734389 0.35418163 -0.07413326
v -0.30394035 0.42699246 -0.07207810
v -0.26962084 0.19065210 -0.00854929
v -0.24204209 0.26581837 -0.07413326
v -0.28990125 0.19300754 -0.07207810
v -0.35479487 0.23623894 -0.17704044
v -0.27357283 0.28269425 -0.13650731
v -0.32179276 0.21007651 -0.13516583
v -0.35699845 0.28238183 -0.19825356
v -0.27350540 0.23769468 -0.11106846
v -0.36364620 0.38376106 -0.17704044
v -0.27684952 0.33730575 -0.13650731
v -0.33378358 0.40992349 -0.13516583
v -0.36031263 0.33761817 -0.19825356
v -0.28218204 0.38230532 -0.11106846
v -0.30871109 0.31000000 -0.17415619
v -0.28394258 0.42934790 0.06854929
v -0.24734389 0.35418163 0.13413326
v -0.30394035 0.42699246 0.13207810
v -0.25233880 0.39937429 0.03000000
v -0.26962084 0.19065210 0.06854929
v -0.24204209 0.26581837 0.13413326
v -0.28990125 0.19300754 0.13207810
v -0.24161389 0.22062571 0.03000000
v -0.35479487 0.23623894 0.23704044
v -0.27357283 0.28269425 0.19650731
v -0.32179276 0.21007651 0.19516583
v -0.35699845 0.28238183 0.25825356
v -0.27350540 0.23769468 0.17106846
v -0.36364620 0.38376106 0.23704044
v -0.27684952 0.33730575 0.19650731
v -0.33378358 0.40992349 0.19516583
v -0.36031263 0.33761817 0.25825356
v -0.28218204 0.38230532 0.17106846
v -0.30871109 0.31000000 0.23415619
v -0.22583171 0.31000000 -0.03558397
v -0.22583171 0.31000000 0.09558397
v -0.23058049 0.35468714 -0.00899036
v -0.22521803 0.26531286 -0.00899036
v -0.23058049 0.35468714 0.06899036
v -0.22521803 0.26531286 0.06899036
v -0.54757916 0.42934790 -0.00854929
v -0.57515791 0.35418163 -0.07413326
v -0.52729875 0.42699246 -0.07207810
v -0.53325742 0.19065210 -0.00854929
v -0.56985611 0.26581837 -0.07413326
v -0.51325965 0.19300754 -0.07207810
v -0.45355380 0.23623894 -0.17704044
v -0.54035048 0.28269425 -0.13650731
v -0.48341642 0.21007651 -0.13516583
v -0.45688737 0.28238183 -0.19825356
v -0.53501796 0.23769468 -0.11106846
v -0.46240513 0.38376106 -0.17704044
v -0.54362717 0.33730575 -0.13650731
v -0.49540724 0.40992349 -0.13516583
v -0.46020155 0.33761817 -0.19825356
v -0.54369460 0.38230532 -0.11106846
v -0.50848891 0.31000000 -0.17415619
v -0.54757916 0.42934790 0.06854929
v -0.57515791 0.35418163 0.13413326
v -0.52729875 0.42699246 0.13207810
v -0.57558611 0.39937429 0.03000000
v -0.53325742 0.19065210 0.06854929
v -0.56985611 0.26581837 0.13413326
v -0.51325965 0.19300754 0.13207810
v -0.56486120 0.22062571 0.03000000
v -0.45355380 0.23623894 0.23704044
v -0.54035048 0.28269425 0.19650731
v -0.48341642 0.21007651 0.19516583
v -0.45688737 0.28238183 0.25825356
v -0.53501796 0.23769468 0.17106846
v -0.46240513 0.38376106 0.23704044
v -0.54362717 0.33730575 0.19650731
v -0.49540724 0.40992349 0.19516583
v -0.46020155 0.33761817 0.25825356
v -0.54369460 0.38230532 0.17106846
v -0.50848891 0.31000000 0.23415619
v -0.59136829 0.31000000 -0.03558397
v -0.59136829 0.31000000 0.09558397
v -0.59198197 0.35468714 -0.00899036
v -0.58661951 0.26531286 -0.00899036
v -0.59198197 0.35468714 0.06899036
v -0.58661951 0.26531286 0.06899036
v 0.23138236 0.40834437 -0.00500000
v 0.39961632 0.40834437 -0.00500000
v 0.24618368 0.16165563 -0.00500000
v 0.41441764 0.16165563 -0.00500000
v 0.32747386 0.20876899 0.17363667
v 0.31832614 0.36123101 0.17363667
v 0.32747386 0.20876899 -0.18363667
v 0.31832614 0.36123101 -0.18363667
v 0.45900413 0.28500000 -0.11540353
v 0.45900413 0.28500000 0.10540353
v 0.18679587 0.28500000 -0.11540353
v 0.18679587 0.28500000 0.10540353
v 0.31420000 0.43000000 -0.00500000
v 0.33160000 0.14000000 -0.00500000
v 0.28049573 0.16769254 0.10000000
v 0.37938117 0.16769254 0.10000000
v 0.26641883 0.40230746 0.10000000
v 0.36530427 0.40230746 0.10000000
v 0.32290000 0.28500000 0.20500000
v 0.28049573 0.16769254 -0.11000000
v 0.37938117 0.16769254 -0.11000000
v 0.26641883 0.40230746 -0.11000000
v 0.36530427 0.40230746 -0.11000000
v 0.32290000 0.28500000 -0.21500000
v 0.44799272 0.35750000 -0.06989357
v 0.45669272 0.21250000 -0.06989357
v 0.40558845 0.24019254 -0.17489357
v 0.40021155 0.32980746 -0.17489357
v 0.44799272 0.35750000 0.05989357
v 0.45669272 0.21250000 0.05989357
v 0.40558845 0.24019254 0.16489357
v 0.40021155 0.32980746 0.16489357
v 0.48290000 0.28500000 -0.00500000
v 0.18910728 0.35750000 -0.06989357
v 0.19780728 0.21250000 -0.06989357
v 0.24558845 0.24019254 -0.17489357
v 0.24021155 0.32980746 -0.17489357
v 0.18910728 0.35750000 0.05989357
v 0.19780728 0.21250000 0.05989357
v 0.24558845 0.24019254 0.16489357
v 0.24021155 0.32980746 0.16489357
v 0.16290000 0.28500000 -0.00500000
v 0.27080849 0.42448106 -0.00500000
v 0.35825378 0.42448106 -0.00500000
v 0.28754622 0.14551894 -0.00500000
v 0.37499151 0.14551894 -0.00500000
v 0.26098305 0.15991307 0.04957730
v 0.30323636 0.18440183 0.14242975
v 0.30518062 0.14709681 0.05020177
v 0.39982739 0.15991307 0.04957730
v 0.35463542 0.18440183 0.14242975
v 0.35716777 0.14709681 0.05020177
v 0.33030066 0.16165563 0.10540353
v 0.24597261 0.41008693 0.04957730
v 0.29116458 0.38559817 0.14242975
v 0.28863223 0.42290319 0.05020177
v 0.38481695 0.41008693 0.04957730
v 0.34256364 0.38559817 0.14242975
v 0.34061938 0.42290319 0.05020177
v 0.31549934 0.40834437 0.10540353
v 0.32527742 0.24537635 0.19700706
v 0.32052258 0.32462365 0.19700706
v 0.26098305 0.15991307 -0.05957730
v 0.30323636 0.18440183 -0.15242975
v 0.30518062 0.14709681 -0.06020177
v 0.39982739 0.15991307 -0.05957730
v 0.35463542 0.18440183 -0.15242975
v 0.35716777 0.14709681 -0.06020177
v 0.33030066 0.16165563 -0.11540353
v 0.24597261 0.41008693 -0.05957730
v 0.29116458 0.38559817 -0.15242975
v 0.28863223 0.42290319 -0.06020177
v 0.38481695 0.41008693 -0.05957730
v 0.34256364 0.38559817 -0.15242975
v 0.34061938 0.42290319 -0.06020177
v 0.31549934 0.40834437 -0.11540353
v 0.32527742 0.24537635 -0.20700706
v 0.32052258 0.32462365 -0.20700706
v 0.42779707 0.38679673 -0.03873063
v 0.45866590 0.32268433 -0.09611660
v 0.41095838 0.38478769 -0.09431833
v 0.44001268 0.18320327 -0.03873063
v 0.46318802 0.24731567 -0.09611660
v 0.42293290 0.18521231 -0.09431833
v 0.36825754 0.22208616 -0.18616038
v 0.43662484 0.26170980 -0.15069390
v 0.39606580 0.19977114 -0.14952010
v 0.36637189 0.26144332 -0.20472187
v 0.43671088 0.22332782 -0.12843490
v 0.36070788 0.34791384 -0.18616038
v 0.43383002 0.30829020 -0.15069390
v 0.38583833 0.37022886 -0.14952010
v 0.36354509 0.30855668 -0.20472187
v 0.42931022 0.34667218 -0.12843490
v 0.40701698 0.28500000 -0.18363667
v 0.42779707 0.38679673 0.02873063
v 0.45866590 0.32268433 0.08611660
v 0.41095838 0.38478769 0.08431833
v 0.45443027 0.36123101 -0.00500000
v 0.44001268 0.18320327 0.02873063
v 0.46318802 0.24731567 0.08611660
v 0.42293290 0.18521231 0.08431833
v 0.46357799 0.20876899 -0.00500000
v 0.36825754 0.22208616 0.17616038
v 0.43662484 0.26170980 0.14069390
v 0.39606580 0.19977114 0.13952010
v 0.36637189 0.26144332 0.19472187
v 0.43671088 0.22332782 0.11843490
v 0.36070788 0.34791384 0.17616038
v 0.43383002 0.30829020 0.14069390
v 0.38583833 0.37022886 0.13952010
v 0.36354509 0.30855668 0.19472187
v 0.42931022 0.34667218 0.11843490
v 0.40701698 0.28500000 0.17363667
v 0.47681014 0.28500000 -0.06238597
v 0.47681014 0.28500000 0.05238597
v 0.47278211 0.32311551 -0.03911657
v 0.47735597 0.24688449 -0.03911657
v 0.47278211 0.32311551 0.02911657
v 0.47735597 0.24688449 0.02911657
v 0.20578732 0.38679673 -0.03873063
v 0.18261198 0.32268433 -0.09611660
v 0.22286710 0.38478769 -0.09431833
v 0.21800293 0.18320327 -0.03873063
v 0.18713410 0.24731567 -0.09611660
v 0.23484162 0.18521231 -0.09431833
v 0.28509212 0.22208616 -0.18616038
v 0.21196998 0.26170980 -0.15069390
v 0.25996167 0.19977114 -0.14952010
v 0.28225491 0.26144332 -0.20472187
v 0.21648978 0.22332782 -0.12843490
v 0.27754246 0.34791384 -0.18616038
v 0.20917516 0.30829020 -0.15069390
v 0.24973420 0.37022886 -0.14952010
v 0.27942811 0.30855668 -0.20472187
v 0.20908912 0.34667218 -0.12843490
v 0.23878302 0.28500000 -0.18363667
v 0.20578732 0.38679673 0.02873063
v 0.18261198 0.32268433 0.08611660
v 0.22286710 0.38478769 0.08431833
v 0.18222201 0.36123101 -0.00500000
v 0.21800293 0.18320327 0.02873063
v 0.18713410 0.24731567 0.08611660
v 0.23484162 0.18521231 0.08431833
v 0.19136973 0.20876899 -0.00500000
v 0.28509212 0.22208616 0.17616038
v 0.21196998 0.26170980 0.14069390
v 0.25996167 0.19977114 0.13952010
v 0.28225491 0.26144332 0.19472187
v 0.21648978 0.22332782 0.11843490
v 0.27754246 0.34791384 0.17616038
v 0.20917516 0.30829020 0.14069390
v 0.24973420 0.37022886 0.13952010
v 0.27942811 0.30855668 0.19472187
v 0.20908912 0.34667218 0.11843490
v 0.23878302 0.28500000 0.17363667
v 0.16898986 0.28500000 -0.06238597
v 0.16898986 0.28500000 0.05238597
v 0.16844403 0.32311551 -0.03911657
v 0.17301789 0.24688449 -0.03911657
v 0.16844403 0.32311551 0.02911657
v 0.17301789 0.24688449 0.02911657
v -0.28116571 -0.61511731 -0.20000000
v -0.28116571 -0.61511731 0.27000000
v -0.29066132 -0.51517855 -0.20000000
v -0.29066132 -0.51517855 0.27000000
v 0.29726132 -0.59482145 -0.20000000
v 0.29726132 -0.59482145 0.27000000
v 0.28776571 -0.49488269 -0.20000000
v 0.28776571 -0.49488269 0.27000000
v -0.23021675 0.54162365 0.16000000
v 0.08522191 0.54162365 0.16000000
v -0.21082191 0.21837635 0.16000000
v 0.10461675 0.21837635 0.16000000
v -0.05680667 0.28011109 0.33013016
v -0.06879333 0.47988891 0.33013016
v -0.05680667 0.28011109 -0.01013016
v -0.06879333 0.47988891 -0.01013016
v 0.19239524 0.38000000 0.05485378
v 0.19239524 0.38000000 0.26514622
v -0.31799524 0.38000000 0.05485378
v -0.31799524 0.38000000 0.26514622
v -0.07420000 0.57000000 0.16000000
v -0.05140000 0.19000000 0.16000000
v -0.14628230 0.22628677 0.26000000
v 0.03912789 0.22628677 0.26000000
v -0.16472789 0.53371323 0.26000000
v 0.02068230 0.53371323 0.26000000
v -0.06280000 0.38000000 0.36000000
v -0.14628230 0.22628677 0.06000000
v 0.03912789 0.22628677 0.06000000
v -0.16472789 0.53371323 0.06000000
v 0.02068230 0.53371323 0.06000000
v -0.06280000 0.38000000 -0.04000000
v 0.17420510 0.47500000 0.09819660
v 0.18560510 0.28500000 0.09819660
v 0.09072279 0.32128677 -0.00180340
v 0.08367721 0.43871323 -0.00180340
v 0.17420510 0.47500000 0.22180340
v 0.18560510 0.28500000 0.22180340
v 0.09072279 0.32128677 0.32180340
v 0.08367721 0.43871323 0.32180340
v 0.23720000 0.38000000 0.16000000
v -0.31120510 0.47500000 0.09819660
v -0.29980510 0.28500000 0.09819660
v -0.20927721 0.32128677 -0.00180340
v -0.21632279 0.43871323 -0.00180340
v -0.31120510 0.47500000 0.22180340
v -0.29980510 0.28500000 0.22180340
v -0.20927721 0.32128677 0.32180340
v -0.21632279 0.43871323 0.32180340
v -0.36280000 0.38000000 0.16000000
vn -0.57629519 0.81724161 -0.00000000
vn 0.54449758 0.83876241 -0.00000000
vn -0.54449758 -0.83876241 0.00000000
vn 0.57629519 -0.81724161 0.00000000
vn 0.00033247 -0.36886110 0.92948447
vn -0.00033247 0.36886110 0.92948447
vn 0.00033247 -0.36886110 -0.92948447
vn -0.00033247 0.36886110 -0.92948447
vn 0.75064789 0.04451713 -0.65920101
vn 0.75064789 0.04451713 0.65920101
vn -0.75064789 -0.04451713 -0.65920101
vn -0.75064789 -0.04451713 0.65920101
vn -0.00166224 0.99999862 -0.00000000
vn 0.00166224 -0.99999862 0.00000000
vn -0.28323603 -0.70190698 0.65353190
vn 0.29192494 -0.68414106 0.66837926
vn -0.29192494 0.68414106 0.66837926
vn 0.28323603 0.70190698 0.65353190
vn 0.00000000 0.00000000 1.00000000
vn -0.28323603 -0.70190698 -0.65353190
vn 0.29192494 -0.68414106 -0.66837926
vn -0.29192494 0.68414106 -0.66837926
vn 0.28323603 0.70190698 -0.65353190
vn 0.00000000 -0.00000000 -1.00000000
vn 0.77151267 0.48192984 -0.41534544
vn 0.80485042 -0.40736859 -0.43158617
vn 0.39082579 -0.19876056 -0.89874882
vn 0.38633538 0.24236920 -0.88994502
vn 0.77151267 0.48192984 0.41534544
vn 0.80485042 -0.40736859 0.43158617
vn 0.39082579 -0.19876056 0.89874882
vn 0.38633538 0.24236920 0.88994502
vn 0.99829999 0.05828498 -0.00000000
vn -0.80485042 0.40736859 -0.43158617
vn -0.77151267 -0.48192984 -0.41534544
vn -0.38633538 -0.24236920 -0.88994502
vn -0.39082579 0.19876056 -0.89874882
vn -0.80485042 0.40736859 0.43158617
vn -0.77151267 -0.48192984 0.41534544
vn -0.38633538 -0.24236920 0.88994502
vn -0.39082579 0.19876056 0.89874882
vn -0.99829999 -0.05828498 -0.00000000
vn -0.30671411 0.95180169 -0.00000000
vn 0.29391283 0.95583223 0.00000000
vn -0.29391283 -0.95583223 -0.00000000
vn 0.30671411 -0.95180169 0.00000000
vn -0.43467453 -0.82247152 0.36687689
vn -0.13230667 -0.53706417 0.83310085
vn -0.15666783 -0.90792638 0.38874783
vn 0.45587816 -0.80416133 0.38144418
vn 0.13457093 -0.52552912 0.84006536
vn 0.16256414 -0.90432700 0.39467149
vn 0.00097924 -0.73261488 0.68064270
vn -0.45587816 0.80416133 0.38144418
vn -0.13457093 0.52552912 0.84006536
vn -0.16256414 0.90432700 0.39467149
vn 0.43467453 0.82247152 0.36687689
vn 0.13230667 0.53706417 0.83310085
vn 0.15666783 0.90792638 0.38874783
vn -0.00097924 0.73261488 0.68064270
vn -0.00006022 -0.18059319 0.98355788
vn 0.00006022 0.18059319 0.98355788
vn -0.43467453 -0.82247152 -0.36687689
vn -0.13230667 -0.53706417 -0.83310085
vn -0.15666783 -0.90792638 -0.38874783
vn 0.45587816 -0.80416133 -0.38144418
vn 0.13457093 -0.52552912 -0.84006536
vn 0.16256414 -0.90432700 -0.39467149
vn 0.00097924 -0.73261488 -0.68064270
vn -0.45587816 0.80416133 -0.38144418
vn -0.13457093 0.52552912 -0.84006536
vn -0.16256414 0.90432700 -0.39467149
vn 0.43467453 0.82247152 -0.36687689
vn 0.13230667 0.53706417 -0.83310085
vn 0.15666783 0.90792638 -0.38874783
vn -0.00097924 0.73261488 -0.68064270
vn -0.00006022 -0.18059319 -0.98355788
vn 0.00006022 0.18059319 -0.98355788
vn 0.69323015 0.68558262 -0.22228007
vn 0.78483282 0.26134048 -0.56190621
vn 0.54508041 0.61557960 -0.56916527
vn 0.73355944 -0.63804818 -0.23406209
vn 0.80158504 -0.17192461 -0.57262846
vn 0.56850383 -0.57303635 -0.59028191
vn 0.19687210 -0.29144718 -0.93610892
vn 0.57946701 -0.08717273 -0.81032025
vn 0.36901582 -0.43554264 -0.82105416
vn 0.19365872 -0.08994536 -0.97693712
vn 0.60204585 -0.31588112 -0.73332115
vn 0.19464152 0.31224580 -0.92984797
vn 0.57462858 0.15440308 -0.80371741
vn 0.36055456 0.46985064 -0.80575479
vn 0.19305677 0.11236076 -0.97473286
vn 0.58664229 0.37760374 -0.71642601
vn 0.39103584 0.02298757 -0.92008834
vn 0.69323015 0.68558262 0.22228007
vn 0.78483282 0.26134048 0.56190621
vn 0.54508041 0.61557960 0.56916527
vn 0.85320903 0.52156913 0.00000000
vn 0.73355944 -0.63804818 0.23406209
vn 0.80158504 -0.17192461 0.57262846
vn 0.56850383 -0.57303635 0.59028191
vn 0.89666403 -0.44271166 -0.00000000
vn 0.19687210 -0.29144718 0.93610892
vn 0.57946701 -0.08717273 0.81032025
vn 0.36901582 -0.43554264 0.82105416
vn 0.19365872 -0.08994536 0.97693712
vn 0.60204585 -0.31588112 0.73332115
vn 0.19464152 0.31224580 0.92984797
vn 0.57462858 0.15440308 0.80371741
vn 0.36055456 0.46985064 0.80575479
vn 0.19305677 0.11236076 0.97473286
vn 0.58664229 0.37760374 0.71642601
vn 0.39103584 0.02298757 0.92008834
vn 0.92614640 0.05427759 -0.37323824
vn 0.92614640 0.05427759 0.37323824
vn 0.93191921 0.29449898 -0.21165287
vn 0.95746240 -0.19048612 -0.21675051
vn 0.93191921 0.29449898 0.21165287
vn 0.95746240 -0.19048612 0.21675051
vn -0.73355944 0.63804818 -0.23406209
vn -0.80158504 0.17192461 -0.57262846
vn -0.56850383 0.57303635 -0.59028191
vn -0.69323015 -0.68558262 -0.22228007
vn -0.78483282 -0.26134048 -0.56190621
vn -0.54508041 -0.61557960 -0.56916527
vn -0.19464152 -0.31224580 -0.92984797
vn -0.57462858 -0.15440308 -0.80371741
vn -0.36055456 -0.46985064 -0.80575479
vn -0.19305677 -0.11236076 -0.97473286
vn -0.58664229 -0.37760374 -0.71642601
vn -0.19687210 0.29144718 -0.93610892
vn -0.57946701 0.08717273 -0.81032025
vn -0.36901582 0.43554264 -0.82105416
vn -0.19365872 0.08994536 -0.97693712
vn -0.60204585 0.31588112 -0.73332115
vn -0.39103584 -0.02298757 -0.92008834
vn -0.73355944 0.63804818 0.23406209
vn -0.80158504 0.17192461 0.57262846
vn -0.56850383 0.57303635 0.59028191
vn -0.89666403 0.44271166 -0.00000000
vn -0.69323015 -0.68558262 0.22228007
vn -0.78483282 -0.26134048 0.56190621
vn -0.54508041 -0.61557960 0.56916527
vn -0.85320903 -0.52156913 0.00000000
vn -0.19464152 -0.31224580 0.92984797
vn -0.57462858 -0.15440308 0.80371741
vn -0.36055456 -0.46985064 0.80575479
vn -0.19305677 -0.11236076 0.97473286
vn -0.58664229 -0.37760374 0.71642601
vn -0.19687210 0.29144718 0.93610892
vn -0.57946701 0.08717273 0.81032025
vn -0.36901582 0.43554264 0.82105416
vn -0.19365872 0.08994536 0.97693712
vn -0.60204585 0.31588112 0.73332115
vn -0.39103584 -0.02298757 0.92008834
vn -0.92614640 -0.05427759 -0.37323824
vn -0.92614640 -0.05427759 0.37323824
vn -0.95746240 0.19048612 -0.21675051
vn -0.93191921 -0.29449898 -0.21165287
vn -0.95746240 0.19048612 0.21675051
vn -0.93191921 -0.29449898 0.21165287
vn -0.57610457 0.81737600 -0.00000000
vn 0.54418071 0.83896803 -0.00000000
vn -0.54418071 -0.83896803 0.00000000
vn 0.57610457 -0.81737600 -0.00000000
vn 0.00044075 -0.41160021 0.91136440
vn -0.00044075 0.41160021 0.91136440
vn 0.00044075 -0.41160021 -0.91136440
vn -0.00044075 0.41160021 -0.91136440
vn 0.79035292 0.04671643 -0.61086810
vn 0.79035292 0.04671643 0.61086810
vn -0.79035292 -0.04671643 -0.61086810
vn -0.79035292 -0.04671643 0.61086810
vn -0.00169698 0.99999856 -0.00000000
vn 0.00169698 -0.99999856 -0.00000000
vn -0.29818337 -0.73750257 0.60595103
vn 0.30821846 -0.72041226 0.62129507
vn -0.30821846 0.72041226 0.62129507
vn 0.29818337 0.73750257 0.60595103
vn 0.00000000 0.00000000 1.00000000
vn -0.29818337 -0.73750257 -0.60595103
vn 0.30821846 -0.72041226 -0.62129507
vn -0.30821846 0.72041226 -0.62129507
vn 0.29818337 0.73750257 -0.60595103
vn 0.00000000 -0.00000000 -1.00000000
vn 0.78650440 0.49113581 -0.37442815
vn 0.82161539 -0.41578300 -0.38996493
vn 0.43274660 -0.21967355 -0.87434198
vn 0.42679680 0.26723572 -0.86396155
vn 0.78650440 0.49113581 0.37442815
vn 0.82161539 -0.41578300 0.38996493
vn 0.43274660 -0.21967355 0.87434198
vn 0.42679680 0.26723572 0.86396155
vn 0.99829800 0.05831902 0.00000000
vn -0.82161539 0.41578300 -0.38996493
vn -0.78650440 -0.49113581 -0.37442815
vn -0.42679680 -0.26723572 -0.86396155
vn -0.43274660 0.21967355 -0.87434198
vn -0.82161539 0.41578300 0.38996493
vn -0.78650440 -0.49113581 0.37442815
vn -0.42679680 -0.26723572 0.86396155
vn -0.43274660 0.21967355 0.87434198
vn -0.99829800 -0.05831902 0.00000000
vn -0.30608838 0.95200310 -0.00000000
vn 0.29326682 0.95603063 -0.00000000
vn -0.29326682 -0.95603063 -0.00000000
vn 0.30608838 -0.95200310 -0.00000000
vn -0.44205310 -0.83436756 0.32927168
vn -0.14405137 -0.58470185 0.79835640
vn -0.15942614 -0.92302260 0.35016079
vn 0.46423944 -0.81659970 0.34299661
vn 0.14692494 -0.57300739 0.80627265
vn 0.16563928 -0.91977239 0.35578417
vn 0.00116606 -0.77302743 0.63437152
vn -0.46423944 0.81659970 0.34299661
vn -0.14692494 0.57300739 0.80627265
vn -0.16563928 0.91977239 0.35578417
vn 0.44205310 0.83436756 0.32927168
vn 0.14405137 0.58470185 0.79835640
vn 0.15942614 0.92302260 0.35016079
vn -0.00116606 0.77302743 0.63437152
vn -0.00001515 -0.20475306 0.97881366
vn 0.00001515 0.20475306 0.97881366
vn -0.44205310 -0.83436756 -0.32927168
vn -0.14405137 -0.58470185 -0.79835640
vn -0.15942614 -0.92302260 -0.35016079
vn 0.46423944 -0.81659970 -0.34299661
vn 0.14692494 -0.57300739 -0.80627265
vn 0.16563928 -0.91977239 -0.35578417
vn 0.00116606 -0.77302743 -0.63437152
vn -0.46423944 0.81659970 -0.34299661
vn -0.14692494 0.57300739 -0.80627265
vn -0.16563928 0.91977239 -0.35578417
vn 0.44205310 0.83436756 -0.32927168
vn 0.14405137 0.58470185 -0.79835640
vn 0.15942614 0.92302260 -0.35016079
vn -0.00116606 0.77302743 -0.63437152
vn -0.00001515 -0.20475306 -0.97881366
vn 0.00001515 0.20475306 -0.97881366
vn 0.69696747 0.68910395 -0.19842402
vn 0.81418906 0.27074114 -0.51361018
vn 0.56615545 0.63798946 -0.52195542
vn 0.73792574 -0.64158093 -0.20937889
vn 0.83265626 -0.17843421 -0.52425641
vn 0.59207005 -0.59541195 -0.54308164
vn 0.22033790 -0.32572117 -0.91943294
vn 0.62797654 -0.09415687 -0.77251534
vn 0.40080368 -0.47252513 -0.78490535
vn 0.21916828 -0.10176755 -0.97036520
vn 0.64196041 -0.33637019 -0.68901518
vn 0.21735912 0.34836920 -0.91180805
vn 0.62188142 0.16660551 -0.76518371
vn 0.39026051 0.50809231 -0.76781439
vn 0.21829557 0.12696883 -0.96758770
vn 0.62369450 0.40086976 -0.67105038
vn 0.43520701 0.02551816 -0.89996871
vn 0.69696747 0.68910395 0.19842402
vn 0.81418906 0.27074114 0.51361018
vn 0.56615545 0.63798946 0.52195542
vn 0.85331064 0.52140286 -0.00000000
vn 0.73792574 -0.64158093 0.20937889
vn 0.83265626 -0.17843421 0.52425641
vn 0.59207005 -0.59541195 0.54308164
vn 0.89676250 -0.44251217 0.00000000
vn 0.22033790 -0.32572117 0.91943294
vn 0.62797654 -0.09415687 0.77251534
vn 0.40080368 -0.47252513 0.78490535
vn 0.21916828 -0.10176755 0.97036520
vn 0.64196041 -0.33637019 0.68901518
vn 0.21735912 0.34836920 0.91180805
vn 0.62188142 0.16660551 0.76518371
vn 0.39026051 0.50809231 0.76781439
vn 0.21829557 0.12696883 0.96758770
vn 0.62369450 0.40086976 0.67105038
vn 0.43520701 0.02551816 0.89996871
vn 0.94065987 0.05510634 -0.33484667
vn 0.94065987 0.05510634 0.33484667
vn 0.93644914 0.29601747 -0.18824630
vn 0.96233599 -0.19150096 -0.19296845
vn 0.93644914 0.29601747 0.18824630
vn 0.96233599 -0.19150096 0.19296845
vn -0.73792574 0.64158093 -0.20937889
vn -0.83265626 0.17843421 -0.52425641
vn -0.59207005 0.59541195 -0.54308164
vn -0.69696747 -0.68910395 -0.19842402
vn -0.81418906 -0.27074114 -0.51361018
vn -0.56615545 -0.63798946 -0.52195542
vn -0.21735912 -0.34836920 -0.91180805
vn -0.62188142 -0.16660551 -0.76518371
vn -0.39026051 -0.50809231 -0.76781439
vn -0.21829557 -0.12696883 -0.96758770
vn -0.62369450 -0.40086976 -0.67105038
vn -0.22033790 0.32572117 -0.91943294
vn -0.62797654 0.09415687 -0.77251534
vn -0.40080368 0.47252513 -0.78490535
vn -0.21916828 0.10176755 -0.97036520
vn -0.64196041 0.33637019 -0.68901518
vn -0.43520701 -0.02551816 -0.89996871
vn -0.73792574 0.64158093 0.20937889
vn -0.83265626 0.17843421 0.52425641
vn -0.59207005 0.59541195 0.54308164
vn -0.89676250 0.44251217 0.00000000
vn -0.69696747 -0.68910395 0.19842402
vn -0.81418906 -0.27074114 0.51361018
vn -0.56615545 -0.63798946 0.52195542
vn -0.85331064 -0.52140286 -0.00000000
vn -0.21735912 -0.34836920 0.91180805
vn -0.62188142 -0.16660551 0.76518371
vn -0.39026051 -0.50809231 0.76781439
vn -0.21829557 -0.12696883 0.96758770
vn -0.62369450 -0.40086976 0.67105038
vn -0.22033790 0.32572117 0.91943294
vn -0.62797654 0.09415687 0.77251534
vn -0.40080368 0.47252513 0.78490535
vn -0.21916828 0.10176755 0.97036520
vn -0.64196041 0.33637019 0.68901518
vn -0.43520701 -0.02551816 0.89996871
vn -0.94065987 -0.05510634 -0.33484667
vn -0.94065987 -0.05510634 0.33484667
vn -0.96233599 0.19150096 -0.19296845
vn -0.93644914 -0.29601747 -0.18824630
vn -0.96233599 0.19150096 0.19296845
vn -0.93644914 -0.29601747 0.18824630
vn -0.49982732 0.86612508 -0.00000000
vn 0.47357280 0.88075468 -0.00000000
vn -0.47357280 -0.88075468 -0.00000000
vn 0.49982732 -0.86612508 -0.00000000
vn 0.00123366 -0.64999949 0.75993364
vn -0.00123366 0.64999949 0.75993364
vn 0.00123366 -0.64999949 -0.75993364
vn -0.00123366 0.64999949 -0.75993364
vn 0.89486941 0.05166850 -0.44332731
vn 0.89486941 0.05166850 0.44332731
vn -0.89486941 -0.05166850 -0.44332731
vn -0.89486941 -0.05166850 0.44332731
vn -0.00114595 0.99999934 -0.00000000
vn 0.00114595 -0.99999934 -0.00000000
vn -0.29478796 -0.87608997 0.38153167
vn 0.30660584 -0.86667478 0.39353231
vn -0.30660584 0.86667478 0.39353231
vn 0.29478796 0.87608997 0.38153167
vn 0.00000000 0.00000000 1.00000000
vn -0.29478796 -0.87608997 -0.38153167
vn 0.30660584 -0.86667478 -0.39353231
vn -0.30660584 0.86667478 -0.39353231
vn 0.29478796 0.87608997 -0.38153167
vn 0.00000000 0.00000000 -1.00000000
vn 0.77843702 0.58091829 -0.23784396
vn 0.81988512 -0.51492640 -0.25027822
vn 0.57045237 -0.35633622 -0.74000580
vn 0.55544414 0.41179767 -0.72242957
vn 0.77843702 0.58091829 0.23784396
vn 0.81988512 -0.51492640 0.25027822
vn 0.57045237 -0.35633622 0.74000580
vn 0.55544414 0.41179767 0.72242957
vn 0.99834172 0.05756568 0.00000000
vn -0.81988512 0.51492640 -0.25027822
vn -0.77843702 -0.58091829 -0.23784396
vn -0.55544414 -0.41179767 -0.72242957
vn -0.57045237 0.35633622 -0.74000580
vn -0.81988512 0.51492640 0.25027822
vn -0.77843702 -0.58091829 0.23784396
vn -0.55544414 -0.41179767 0.72242957
vn -0.57045237 0.35633622 0.74000580
vn -0.99834172 -0.05756568 0.00000000
vn -0.25322511 0.96740738 -0.00000000
vn 0.24405601 0.96976114 -0.00000000
vn -0.24405601 -0.96976114 -0.00000000
vn 0.25322511 -0.96740738 -0.00000000
vn -0.39658195 -0.89863265 0.18756896
vn -0.16250593 -0.79969518 0.57799606
vn -0.13844053 -0.97102131 0.19481230
vn 0.41617030 -0.88800556 0.19557199
vn 0.16748228 -0.79194396 0.58717497
vn 0.14337478 -0.96968447 0.19787797
vn 0.00138009 -0.91717972 0.39847141
vn -0.41617030 0.88800556 0.19557199
vn -0.16748228 0.79194396 0.58717497
vn -0.14337478 0.96968447 0.19787797
vn 0.39658195 0.89863265 0.18756896
vn 0.16250593 0.79969518 0.57799606
vn 0.13844053 0.97102131 0.19481230
vn -0.00138009 0.91717972 0.39847141
vn 0.00066733 -0.36701402 0.93021517
vn -0.00066733 0.36701402 0.93021517
vn -0.39658195 -0.89863265 -0.18756896
vn -0.16250593 -0.79969518 -0.57799606
vn -0.13844053 -0.97102131 -0.19481230
vn 0.41617030 -0.88800556 -0.19557199
vn 0.16748228 -0.79194396 -0.58717497
vn 0.14337478 -0.96968447 -0.19787797
vn 0.00138009 -0.91717972 -0.39847141
vn -0.41617030 0.88800556 -0.19557199
vn -0.16748228 0.79194396 -0.58717497
vn -0.14337478 0.96968447 -0.19787797
vn 0.39658195 0.89863265 -0.18756896
vn 0.16250593 0.79969518 -0.57799606
vn 0.13844053 0.97102131 -0.19481230
vn -0.00138009 0.91717972 -0.39847141
vn 0.00066733 -0.36701402 -0.93021517
vn -0.00066733 0.36701402 -0.93021517
vn 0.63914118 0.75993024 -0.11834094
vn 0.87209966 0.34125906 -0.35069137
vn 0.56166848 0.75765366 -0.33239953
vn 0.67808104 -0.72420421 -0.12543670
vn 0.89912238 -0.24704323 -0.36131509
vn 0.59217485 -0.72615477 -0.34932535
vn 0.29667670 -0.53405222 -0.79168880
vn 0.77594465 -0.14924165 -0.61289219
vn 0.46411292 -0.66692495 -0.58293251
vn 0.32515402 -0.18768424 -0.92684923
vn 0.72752368 -0.46918434 -0.50057502
vn 0.28890930 0.55821550 -0.77777045
vn 0.76281249 0.23462720 -0.60255056
vn 0.44561712 0.69637753 -0.56256886
vn 0.32188328 0.22262914 -0.92023226
vn 0.69723452 0.53194552 -0.48051845
vn 0.59982115 0.03409844 -0.79940721
vn 0.63914118 0.75993024 0.11834094
vn 0.87209966 0.34125906 0.35069137
vn 0.56166848 0.75765366 0.33239953
vn 0.80749991 0.58986769 0.00000000
vn 0.67808104 -0.72420421 0.12543670
vn 0.89912238 -0.24704323 0.36131509
vn 0.59217485 -0.72615477 0.34932535
vn 0.85261844 -0.52253401 -0.00000000
vn 0.29667670 -0.53405222 0.79168880
vn 0.77594465 -0.14924165 0.61289219
vn 0.46411292 -0.66692495 0.58293251
vn 0.32515402 -0.18768424 0.92684923
vn 0.72752368 -0.46918434 0.50057502
vn 0.28890930 0.55821550 0.77777045
vn 0.76281249 0.23462720 0.60255056
vn 0.44561712 0.69637753 0.56256886
vn 0.32188328 0.22262914 0.92023226
vn 0.69723452 0.53194552 0.48051845
vn 0.59982115 0.03409844 0.79940721
vn 0.97288769 0.05626794 -0.22432891
vn 0.97288769 0.05626794 0.22432891
vn 0.93030905 0.34648603 -0.12030169
vn 0.96119486 -0.24632913 -0.12420306
vn 0.93030905 0.34648603 0.12030169
vn 0.96119486 -0.24632913 0.12420306
vn -0.67808104 0.72420421 -0.12543670
vn -0.89912238 0.24704323 -0.36131509
vn -0.59217485 0.72615477 -0.34932535
vn -0.63914118 -0.75993024 -0.11834094
vn -0.87209966 -0.34125906 -0.35069137
vn -0.56166848 -0.75765366 -0.33239953
vn -0.28890930 -0.55821550 -0.77777045
vn -0.76281249 -0.23462720 -0.60255056
vn -0.44561712 -0.69637753 -0.56256886
vn -0.32188328 -0.22262914 -0.92023226
vn -0.69723452 -0.53194552 -0.48051845
vn -0.29667670 0.53405222 -0.79168880
vn -0.77594465 0.14924165 -0.61289219
vn -0.46411292 0.66692495 -0.58293251
vn -0.32515402 0.18768424 -0.92684923
vn -0.72752368 0.46918434 -0.50057502
vn -0.59982115 -0.03409844 -0.79940721
vn -0.67808104 0.72420421 0.12543670
vn -0.89912238 0.24704323 0.36131509
vn -0.59217485 0.72615477 0.34932535
vn -0.85261844 0.52253401 0.00000000
vn -0.63914118 -0.75993024 0.11834094
vn -0.87209966 -0.34125906 0.35069137
vn -0.56166848 -0.75765366 0.33239953
vn -0.80749991 -0.58986769 -0.00000000
vn -0.28890930 -0.55821550 0.77777045
vn -0.76281249 -0.23462720 0.60255056
vn -0.44561712 -0.69637753 0.56256886
vn -0.32188328 -0.22262914 0.92023226
vn -0.69723452 -0.53194552 0.48051845
vn -0.29667670 0.53405222 0.79168880
vn -0.77594465 0.14924165 0.61289219
vn -0.46411292 0.66692495 0.58293251
vn -0.32515402 0.18768424 0.92684923
vn -0.72752368 0.46918434 0.50057502
vn -0.59982115 -0.03409844 0.79940721
vn -0.97288769 -0.05626794 -0.22432891
vn -0.97288769 -0.05626794 0.22432891
vn -0.96119486 0.24632913 -0.12420306
vn -0.93030905 -0.34648603 -0.12030169
vn -0.96119486 0.24632913 0.12420306
vn -0.93030905 -0.34648603 0.12030169
vn -0.50470701 0.86329070 0.00000000
vn 0.47803903 0.87833859 0.00000000
vn -0.47803903 -0.87833859 0.00000000
vn 0.50470701 -0.86329070 -0.00000000
vn 0.00129703 -0.65895691 0.75217957
vn -0.00129703 0.65895691 0.75217957
vn 0.00129703 -0.65895691 -0.75217957
vn -0.00129703 0.65895691 -0.75217957
vn 0.90114047 0.05204771 -0.43039155
vn 0.90114047 0.05204771 0.43039155
vn -0.90114047 -0.05204771 -0.43039155
vn -0.90114047 -0.05204771 0.43039155
vn -0.00117202 0.99999931 0.00000000
vn 0.00117202 -0.99999931 -0.00000000
vn -0.29908040 -0.87828805 0.37304291
vn 0.31126622 -0.86884504 0.38499563
vn -0.31126622 0.86884504 0.38499563
vn 0.29908040 0.87828805 0.37304291
vn -0.00000000 0.00000000 1.00000000
vn -0.29908040 -0.87828805 -0.37304291
vn 0.31126622 -0.86884504 -0.38499563
vn -0.31126622 0.86884504 -0.38499563
vn 0.29908040 0.87828805 -0.37304291
vn -0.00000000 0.00000000 -1.00000000
vn 0.78290812 0.57783956 -0.23055654
vn 0.82454728 -0.51112743 -0.24263251
vn 0.58268122 -0.35905720 -0.72908197
vn 0.56696671 0.41551541 -0.71126345
vn 0.78290812 0.57783956 0.23055654
vn 0.82454728 -0.51112743 0.24263251
vn 0.58268122 -0.35905720 0.72908197
vn 0.56696671 0.41551541 0.71126345
vn 0.99833868 0.05761848 0.00000000
vn -0.82454728 0.51112743 -0.24263251
vn -0.78290812 -0.57783956 -0.23055654
vn -0.56696671 -0.41551541 -0.71126345
vn -0.58268122 0.35905720 -0.72908197
vn -0.82454728 0.51112743 0.24263251
vn -0.78290812 -0.57783956 0.23055654
vn -0.56696671 -0.41551541 0.71126345
vn -0.58268122 0.35905720 0.72908197
vn -0.99833868 -0.05761848 0.00000000
vn -0.25610515 0.96664893 -0.00000000
vn 0.24674772 0.96907975 0.00000000
vn -0.24674772 -0.96907975 -0.00000000
vn 0.25610515 -0.96664893 0.00000000
vn -0.40103924 -0.89766570 0.18265767
vn -0.16558040 -0.80594433 0.56836332
vn -0.14017801 -0.97170961 0.19008038
vn 0.42103178 -0.88680691 0.19054066
vn 0.17079138 -0.79822377 0.57764099
vn 0.14523641 -0.97036775 0.19311348
vn 0.00143802 -0.92072154 0.39021760
vn -0.42103178 0.88680691 0.19054066
vn -0.17079138 0.79822377 0.57764099
vn -0.14523641 0.97036775 0.19311348
vn 0.40103924 0.89766570 0.18265767
vn 0.16558040 0.80594433 0.56836332
vn 0.14017801 0.97170961 0.19008038
vn -0.00143802 0.92072154 0.39021760
vn 0.00073831 -0.37453339 0.92721313
vn -0.00073831 0.37453339 0.92721313
vn -0.40103924 -0.89766570 -0.18265767
vn -0.16558040 -0.80594433 -0.56836332
vn -0.14017801 -0.97170961 -0.19008038
vn 0.42103178 -0.88680691 -0.19054066
vn 0.17079138 -0.79822377 -0.57764099
vn 0.14523641 -0.97036775 -0.19311348
vn 0.00143802 -0.92072154 -0.39021760
vn -0.42103178 0.88680691 -0.19054066
vn -0.17079138 0.79822377 -0.57764099
vn -0.14523641 0.97036775 -0.19311348
vn 0.40103924 0.89766570 -0.18265767
vn 0.16558040 0.80594433 -0.56836332
vn 0.14017801 0.97170961 -0.19008038
vn -0.00143802 0.92072154 -0.39021760
vn 0.00073831 -0.37453339 -0.92721313
vn -0.00073831 0.37453339 -0.92721313
vn 0.64371336 0.75658512 -0.11494373
vn 0.87697750 0.33976765 -0.33980643
vn 0.56768482 0.75687899 -0.32383350
vn 0.68299341 -0.72018726 -0.12186190
vn 0.90412166 -0.24489946 -0.35012610
vn 0.59877012 -0.72493184 -0.34051164
vn 0.30456591 -0.54114052 -0.78384089
vn 0.78666829 -0.14892347 -0.59914506
vn 0.47242900 -0.67032379 -0.57225594
vn 0.33530029 -0.19101611 -0.92254353
vn 0.73618751 -0.46855648 -0.48834698
vn 0.29634377 0.56569158 -0.76952804
vn 0.77316408 0.23545822 -0.58887752
vn 0.45323430 0.70006483 -0.55180423
vn 0.33177494 0.22692366 -0.91565880
vn 0.70525293 0.53206467 -0.46853547
vn 0.61346560 0.03483864 -0.78895261
vn 0.64371336 0.75658512 0.11494373
vn 0.87697750 0.33976765 0.33980643
vn 0.56768482 0.75687899 0.32383350
vn 0.81053053 0.58569639 -0.00000000
vn 0.68299341 -0.72018726 0.12186190
vn 0.90412166 -0.24489946 0.35012610
vn 0.59877012 -0.72493184 0.34051164
vn 0.85559924 -0.51763882 0.00000000
vn 0.30456591 -0.54114052 0.78384089
vn 0.78666829 -0.14892347 0.59914506
vn 0.47242900 -0.67032379 0.57225594
vn 0.33530029 -0.19101611 0.92254353
vn 0.73618751 -0.46855648 0.48834698
vn 0.29634377 0.56569158 0.76952804
vn 0.77316408 0.23545822 0.58887752
vn 0.45323430 0.70006483 0.55180423
vn 0.33177494 0.22692366 0.91565880
vn 0.70525293 0.53206467 0.46853547
vn 0.61346560 0.03483864 0.78895261
vn 0.97460683 0.05641152 -0.21670088
vn 0.97460683 0.05641152 0.21670088
vn 0.93187376 0.34369952 -0.11611176
vn 0.96255775 -0.24313874 -0.11985880
vn 0.93187376 0.34369952 0.11611176
vn 0.96255775 -0.24313874 0.11985880
vn -0.68299341 0.72018726 -0.12186190
vn -0.90412166 0.24489946 -0.35012610
vn -0.59877012 0.72493184 -0.34051164
vn -0.64371336 -0.75658512 -0.11494373
vn -0.87697750 -0.33976765 -0.33980643
vn -0.56768482 -0.75687899 -0.32383350
vn -0.29634377 -0.56569158 -0.76952804
vn -0.77316408 -0.23545822 -0.58887752
vn -0.45323430 -0.70006483 -0.55180423
vn -0.33177494 -0.22692366 -0.91565880
vn -0.70525293 -0.53206467 -0.46853547
vn -0.30456591 0.54114052 -0.78384089
vn -0.78666829 0.14892347 -0.59914506
vn -0.47242900 0.67032379 -0.57225594
vn -0.33530029 0.19101611 -0.92254353
vn -0.73618751 0.46855648 -0.48834698
vn -0.61346560 -0.03483864 -0.78895261
vn -0.68299341 0.72018726 0.12186190
vn -0.90412166 0.24489946 0.35012610
vn -0.59877012 0.72493184 0.34051164
vn -0.85559924 0.51763882 0.00000000
vn -0.64371336 -0.75658512 0.11494373
vn -0.87697750 -0.33976765 0.33980643
vn -0.56768482 -0.75687899 0.32383350
vn -0.81053053 -0.58569639 0.00000000
vn -0.29634377 -0.56569158 0.76952804
vn -0.77316408 -0.23545822 0.58887752
vn -0.45323430 -0.70006483 0.55180423
vn -0.33177494 -0.22692366 0.91565880
vn -0.70525293 -0.53206467 0.46853547
vn -0.30456591 0.54114052 0.78384089
vn -0.78666829 0.14892347 0.59914506
vn -0.47242900 0.67032379 0.57225594
vn -0.33530029 0.19101611 0.92254353
vn -0.73618751 0.46855648 0.48834698
vn -0.61346560 -0.03483864 0.78895261
vn -0.97460683 -0.05641152 -0.21670088
vn -0.97460683 -0.05641152 0.21670088
vn -0.96255775 0.24313874 -0.11985880
vn -0.93187376 -0.34369952 -0.11611176
vn -0.96255775 0.24313874 0.11985880
vn -0.93187376 -0.34369952 0.11611176
vn -0.53718992 -0.61187088 -0.58055234
vn -0.53718992 -0.61187088 0.58055234
vn -0.61520554 0.54011757 -0.57427794
vn -0.61520554 0.54011757 0.57427794
vn 0.61520554 -0.54011757 -0.57427794
vn 0.61520554 -0.54011757 0.57427794
vn 0.53718992 0.61187088 -0.58055234
vn 0.53718992 0.61187088 0.58055234
vn -0.39926158 0.91683706 -0.00000000
vn 0.37837990 0.92565040 -0.00000000
vn -0.37837990 -0.92565040 -0.00000000
vn 0.39926158 -0.91683706 0.00000000
vn 0.00202921 -0.54358067 0.83935447
vn -0.00202921 0.54358067 0.83935447
vn 0.00202921 -0.54358067 -0.83935447
vn -0.00202921 0.54358067 -0.83935447
vn 0.76218511 0.03796550 -0.64624491
vn 0.76218511 0.03796550 0.64624491
vn -0.76218511 -0.03796550 -0.64624491
vn -0.76218511 -0.03796550 0.64624491
vn -0.00228481 0.99999739 -0.00000000
vn 0.00228481 -0.99999739 -0.00000000
vn -0.21408854 -0.84208265 0.49503829
vn 0.22379786 -0.83364001 0.50493450
vn -0.22379786 0.83364001 0.50493450
vn 0.21408854 0.84208265 0.49503829
vn 0.00000000 -0.00000000 1.00000000
vn -0.21408854 -0.84208265 -0.49503829
vn 0.22379786 -0.83364001 -0.50493450
vn -0.22379786 0.83364001 -0.50493450
vn 0.21408854 0.84208265 -0.49503829
vn 0.00000000 0.00000000 -1.00000000
vn 0.68239000 0.63987039 -0.35342576
vn 0.71919610 -0.59046974 -0.36620002
vn 0.38150117 -0.32672893 -0.86469941
vn 0.37334327 0.36144467 -0.85438431
vn 0.68239000 0.63987039 0.35342576
vn 0.71919610 -0.59046974 0.36620002
vn 0.38150117 -0.32672893 0.86469941
vn 0.37334327 0.36144467 0.85438431
vn 0.99899293 0.04486781 -0.00000000
vn -0.71919610 0.59046974 -0.36620002
vn -0.68239000 -0.63987039 -0.35342576
vn -0.37334327 -0.36144467 -0.85438431
vn -0.38150117 0.32672893 -0.86469941
vn -0.71919610 0.59046974 0.36620002
vn -0.68239000 -0.63987039 0.35342576
vn -0.37334327 -0.36144467 0.85438431
vn -0.38150117 0.32672893 0.86469941
vn -0.99899293 -0.04486781 -0.00000000
f 1//1 138//138 54//54
f 138//138 38//38 140//140
f 54//54 140//140 17//17
f 138//138 140//140 54//54
f 38//38 139//139 155//155
f 139//139 12//12 152//152
f 155//155 152//152 41//41
f 139//139 152//152 155//155
f 17//17 153//153 55//55
f 153//153 41//41 151//151
f 55//55 151//151 6//6
f 153//153 151//151 55//55
f 38//38 155//155 140//140
f 155//155 41//41 153//153
f 140//140 153//153 17//17
f 155//155 153//153 140//140
f 1//1 54//54 43//43
f 54//54 17//17 56//56
f 43//43 56//56 13//13
f 54//54 56//56 43//43
f 17//17 55//55 60//60
f 55//55 6//6 58//58
f 60//60 58//58 18//18
f 55//55 58//58 60//60
f 13//13 59//59 44//44
f 59//59 18//18 57//57
f 44//44 57//57 2//2
f 59//59 57//57 44//44
f 17//17 60//60 56//56
f 60//60 18//18 59//59
f 56//56 59//59 13//13
f 60//60 59//59 56//56
f 1//1 43//43 70//70
f 43//43 13//13 72//72
f 70//70 72//72 22//22
f 43//43 72//72 70//70
f 13//13 44//44 75//75
f 44//44 2//2 73//73
f 75//75 73//73 23//23
f 44//44 73//73 75//75
f 22//22 76//76 71//71
f 76//76 23//23 74//74
f 71//71 74//74 8//8
f 76//76 74//74 71//71
f 13//13 75//75 72//72
f 75//75 23//23 76//76
f 72//72 76//76 22//22
f 75//75 76//76 72//72
f 1//1 70//70 121//121
f 70//70 22//22 123//123
f 121//121 123//123 34//34
f 70//70 123//123 121//121
f 22//22 71//71 134//134
f 71//71 8//8 132//132
f 134//134 132//132 37//37
f 71//71 132//132 134//134
f 34//34 136//136 122//122
f 136//136 37//37 133//133
f 122//122 133//133 11//11
f 136//136 133//133 122//122
f 22//22 134//134 123//123
f 134//134 37//37 136//136
f 123//123 136//136 34//34
f 134//134 136//136 123//123
f 1//1 121//121 138//138
f 121//121 34//34 141//141
f 138//138 141//141 38//38
f 121//121 141//141 138//138
f 34//34 122//122 159//159
f 122//122 11//11 157//157
f 159//159 157//157 42//42
f 122//122 157//157 159//159
f 38//38 161//161 139//139
f 161//161 42//42 158//158
f 139//139 158//158 12//12
f 161//161 158//158 139//139
f 34//34 159//159 141//141
f 159//159 42//42 161//161
f 141//141 161//161 38//38
f 159//159 161//161 141//141
f 2//2 57//57 96//96
f 57//57 18//18 98//98
f 96//96 98//98 29//29
f 57//57 98//98 96//96
f 18//18 58//58 111//111
f 58//58 6//6 109//109
f 111//111 109//109 32//32
f 58//58 109//109 111//111
f 29//29 113//113 97//97
f 113//113 32//32 110//110
f 97//97 110//110 10//10
f 113//113 110//110 97//97
f 18//18 111//111 98//98
f 111//111 32//32 113//113
f 98//98 113//113 29//29
f 111//111 113//113 98//98
f 6//6 151//151 62//62
f 151//151 41//41 154//154
f 62//62 154//154 19//19
f 151//151 154//154 62//62
f 41//41 152//152 156//156
f 152//152 12//12 147//147
f 156//156 147//147 40//40
f 152//152 147//147 156//156
f 19//19 149//149 61//61
f 149//149 40//40 146//146
f 61//61 146//146 5//5
f 149//149 146//146 61//61
f 41//41 156//156 154//154
f 156//156 40//40 149//149
f 154//154 149//149 19//19
f 156//156 149//149 154//154
f 12//12 158//158 143//143
f 158//158 42//42 162//162
f 143//143 162//162 39//39
f 158//158 162//162 143//143
f 42//42 157//157 160//160
f 157//157 11//11 125//125
f 160//160 125//125 35//35
f 157//157 125//125 160//160
f 39//39 145//145 142//142
f 145//145 35//35 124//124
f 142//142 124//124 3//3
f 145//145 124//124 142//142
f 42//42 160//160 162//162
f 160//160 35//35 145//145
f 162//162 145//145 39//39
f 160//160 145//145 162//162
f 11//11 133//133 128//128
f 133//133 37//37 137//137
f 128//128 137//137 36//36
f 133//133 137//137 128//128
f 37//37 132//132 135//135
f 132//132 8//8 78//78
f 135//135 78//78 24//24
f 132//132 78//78 135//135
f 36//36 130//130 127//127
f 130//130 24//24 77//77
f 127//127 77//77 7//7
f 130//130 77//77 127//127
f 37//37 135//135 137//137
f 135//135 24//24 130//130
f 137//137 130//130 36//36
f 135//135 130//130 137//137
f 8//8 74//74 90//90
f 74//74 23//23 92//92
f 90//90 92//92 28//28
f 74//74 92//92 90//90
f 23//23 73//73 81//81
f 73//73 2//2 79//79
f 81//81 79//79 25//25
f 73//73 79//79 81//81
f 28//28 94//94 91//91
f 94//94 25//25 80//80
f 91//91 80//80 9//9
f 94//94 80//80 91//91
f 23//23 81//81 92//92
f 81//81 25//25 94//94
f 92//92 94//94 28//28
f 81//81 94//94 92//92
f 4//4 100//100 50//50
f 100//100 30//30 102//102
f 50//50 102//102 16//16
f 100//100 102//102 50//50
f 30//30 101//101 108//108
f 101//101 10//10 105//105
f 108//108 105//105 31//31
f 101//101 105//105 108//108
f 16//16 106//106 51//51
f 106//106 31//31 104//104
f 51//51 104//104 5//5
f 106//106 104//104 51//51
f 30//30 108//108 102//102
f 108//108 31//31 106//106
f 102//102 106//106 16//16
f 108//108 106//106 102//102
f 4//4 50//50 46//46
f 50//50 16//16 52//52
f 46//46 52//52 14//14
f 50//50 52//52 46//46
f 16//16 51//51 53//53
f 51//51 5//5 48//48
f 53//53 48//48 15//15
f 51//51 48//48 53//53
f 14//14 49//49 45//45
f 49//49 15//15 47//47
f 45//45 47//47 3//3
f 49//49 47//47 45//45
f 16//16 53//53 52//52
f 53//53 15//15 49//49
f 52//52 49//49 14//14
f 53//53 49//49 52//52
f 4//4 46//46 66//66
f 46//46 14//14 68//68
f 66//66 68//68 21//21
f 46//46 68//68 66//66
f 14//14 45//45 65//65
f 45//45 3//3 63//63
f 65//65 63//63 20//20
f 45//45 63//63 65//65
f 21//21 69//69 67//67
f 69//69 20//20 64//64
f 67//67 64//64 7//7
f 69//69 64//64 67//67
f 14//14 65//65 68//68
f 65//65 20//20 69//69
f 68//68 69//69 21//21
f 65//65 69//69 68//68
f 4//4 66//66 82//82
f 66//66 21//21 84//84
f 82//82 84//84 26//26
f 66//66 84//84 82//82
f 21//21 67//67 87//87
f 67//67 7//7 85//85
f 87//87 85//85 27//27
f 67//67 85//85 87//87
f 26//26 89//89 83//83
f 89//89 27//27 86//86
f 83//83 86//86 9//9
f 89//89 86//86 83//83
f 21//21 87//87 84//84
f 87//87 27//27 89//89
f 84//84 89//89 26//26
f 87//87 89//89 84//84
f 4//4 82//82 100//100
f 82//82 26//26 103//103
f 100//100 103//103 30//30
f 82//82 103//103 100//100
f 26//26 83//83 118//118
f 83//83 9//9 115//115
f 118//118 115//115 33//33
f 83//83 115//115 118//118
f 30//30 120//120 101//101
f 120//120 33//33 116//116
f 101//101 116//116 10//10
f 120//120 116//116 101//101
f 26//26 118//118 103//103
f 118//118 33//33 120//120
f 103//103 120//120 30//30
f 118//118 120//120 103//103
f 5//5 104//104 61//61
f 104//104 31//31 107//107
f 61//61 107//107 19//19
f 104//104 107//107 61//61
f 31//31 105//105 114//114
f 105//105 10//10 110//110
f 114//114 110//110 32//32
f 105//105 110//110 114//114
f 19//19 112//112 62//62
f 112//112 32//32 109//109
f 62//62 109//109 6//6
f 112//112 109//109 62//62
f 31//31 114//114 107//107
f 114//114 32//32 112//112
f 107//107 112//112 19//19
f 114//114 112//112 107//107
f 3//3 47//47 142//142
f 47//47 15//15 144//144
f 142//142 144//144 39//39
f 47//47 144//144 142//142
f 15//15 48//48 148//148
f 48//48 5//5 146//146
f 148//148 146//146 40//40
f 48//48 146//146 148//148
f 39//39 150//150 143//143
f 150//150 40//40 147//147
f 143//143 147//147 12//12
f 150//150 147//147 143//143
f 15//15 148//148 144//144
f 148//148 40//40 150//150
f 144//144 150//150 39//39
f 148//148 150//150 144//144
f 7//7 64//64 127//127
f 64//64 20//20 129//129
f 127//127 129//129 36//36
f 64//64 129//129 127//127
f 20//20 63//63 126//126
f 63//63 3//3 124//124
f 126//126 124//124 35//35
f 63//63 124//124 126//126
f 36//36 131//131 128//128
f 131//131 35//35 125//125
f 128//128 125//125 11//11
f 131//131 125//125 128//128
f 20//20 126//126 129//129
f 126//126 35//35 131//131
f 129//129 131//131 36//36
f 126//126 131//131 129//129
f 9//9 86//86 91//91
f 86//86 27//27 95//95
f 91//91 95//95 28//28
f 86//86 95//95 91//91
f 27//27 85//85 88//88
f 85//85 7//7 77//77
f 88//88 77//77 24//24
f 85//85 77//77 88//88
f 28//28 93//93 90//90
f 93//93 24//24 78//78
f 90//90 78//78 8//8
f 93//93 78//78 90//90
f 27//27 88//88 95//95
f 88//88 24//24 93//93
f 95//95 93//93 28//28
f 88//88 93//93 95//95
f 10//10 116//116 97//97
f 116//116 33//33 119//119
f 97//97 119//119 29//29
f 116//116 119//119 97//97
f 33//33 115//115 117//117
f 115//115 9//9 80//80
f 117//117 80//80 25//25
f 115//115 80//80 117//117
f 29//29 99//99 96//96
f 99//99 25//25 79//79
f 96//96 79//79 2//2
f 99//99 79//79 96//96
f 33//33 117//117 119//119
f 117//117 25//25 99//99
f 119//119 99//99 29//29
f 117//117 99//99 119//119
f 163//163 300//300 216//216
f 300//300 200//200 302//302
f 216//216 302//302 179//179
f 300//300 302//302 216//216
f 200//200 301//301 317//317
f 301//301 174//174 314//314
f 317//317 314//314 203//203
f 301//301 314//314 317//317
f 179//179 315//315 217//217
f 315//315 203//203 313//313
f 217//217 313//313 168//168
f 315//315 313//313 217//217
f 200//200 317//317 302//302
f 317//317 203//203 315//315
f 302//302 315//315 179//179
f 317//317 315//315 302//302
f 163//163 216//216 205//205
f 216//216 179//179 218//218
f 205//205 218//218 175//175
f 216//216 218//218 205//205
f 179//179 217//217 222//222
f 217//217 168//168 220//220
f 222//222 220//220 180//180
f 217//217 220//220 222//222
f 175//175 221//221 206//206
f 221//221 180//180 219//219
f 206//206 219//219 164//164
f 221//221 219//219 206//206
f 179//179 222//222 218//218
f 222//222 180//180 221//221
f 218//218 221//221 175//175
f 222//222 221//221 218//218
f 163//163 205//205 232//232
f 205//205 175//175 234//234
f 232//232 234//234 184//184
f 205//205 234//234 232//232
f 175//175 206//206 237//237
f 206//206 164//164 235//235
f 237//237 235//235 185//185
f 206//206 235//235 237//237
f 184//184 238//238 233//233
f 238//238 185//185 236//236
f 233//233 236//236 170//170
f 238//238 236//236 233//233
f 175//175 237//237 234//234
f 237//237 185//185 238//238
f 234//234 238//238 184//184
f 237//237 238//238 234//234
f 163//163 232//232 283//283
f 232//232 184//184 285//285
f 283//283 285//285 196//196
f 232//232 285//285 283//283
f 184//184 233//233 296//296
f 233//233 170//170 294//294
f 296//296 294//294 199//199
f 233//233 294//294 296//296
f 196//196 298//298 284//284
f 298//298 199//199 295//295
f 284//284 295//295 173//173
f 298//298 295//295 284//284
f 184//184 296//296 285//285
f 296//296 199//199 298//298
f 285//285 298//298 196//196
f 296//296 298//298 285//285
f 163//163 283//283 300//300
f 283//283 196//196 303//303
f 300//300 303//303 200//200
f 283//283 303//303 300//300
f 196//196 284//284 321//321
f 284//284 173//173 319//319
f 321//321 319//319 204//204
f 284//284 319//319 321//321
f 200//200 323//323 301//301
f 323//323 204//204 320//320
f 301//301 320//320 174//174
f 323//323 320//320 301//301
f 196//196 321//321 303//303
f 321//321 204//204 323//323
f 303//303 323//323 200//200
f 321//321 323//323 303//303
f 164//164 219//219 258//258
f 219//219 180//180 260//260
f 258//258 260//260 191//191
f 219//219 260//260 258//258
f 180//180 220//220 273//273
f 220//220 168//168 271//271
f 273//273 271//271 194//194
f 220//220 271//271 273//273
f 191//191 275//275 259//259
f 275//275 194//194 272//272
f 259//259 272//272 172//172
f 275//275 272//272 259//259
f 180//180 273//273 260//260
f 273//273 194//194 275//275
f 260//260 275//275 191//191
f 273//273 275//275 260//260
f 168//168 313//313 224//224
f 313//313 203//203 316//316
f 224//224 316//316 181//181
f 313//313 316//316 224//224
f 203//203 314//314 318//318
f 314//314 174//174 309//309
f 318//318 309//309 202//202
f 314//314 309//309 318//318
f 181//181 311//311 223//223
f 311//311 202//202 308//308
f 223//223 308//308 167//167
f 311//311 308//308 223//223
f 203//203 318//318 316//316
f 318//318 202//202 311//311
f 316//316 311//311 181//181
f 318//318 311//311 316//316
f 174//174 320//320 305//305
f 320//320 204//204 324//324
f 305//305 324//324 201//201
f 320//320 324//324 305//305
f 204//204 319//319 322//322
f 319//319 173//173 287//287
f 322//322 287//287 197//197
f 319//319 287//287 322//322
f 201//201 307//307 304//304
f 307//307 197//197 286//286
f 304//304 286//286 165//165
f 307//307 286//286 304//304
f 204//204 322//322 324//324
f 322//322 197//197 307//307
f 324//324 307//307 201//201
f 322//322 307//307 324//324
f 173//173 295//295 290//290
f 295//295 199//199 299//299
f 290//290 299//299 198//198
f 295//295 299//299 290//290
f 199//199 294//294 297//297
f 294//294 170//170 240//240
f 297//297 240//240 186//186
f 294//294 240//240 297//297
f 198//198 292//292 289//289
f 292//292 186//186 239//239
f 289//289 239//239 169//169
f 292//292 239//239 289//289
f 199//199 297//297 299//299
f 297//297 186//186 292//292
f 299//299 292//292 198//198
f 297//297 292//292 299//299
f 170//170 236//236 252//252
f 236//236 185//185 254//254
f 252//252 254//254 190//190
f 236//236 254//254 252//252
f 185//185 235//235 243//243
f 235//235 164//164 241//241
f 243//243 241//241 187//187
f 235//235 241//241 243//243
f 190//190 256//256 253//253
f 256//256 187//187 242//242
f 253//253 242//242 171//171
f 256//256 242//242 253//253
f 185//185 243//243 254//254
f 243//243 187//187 256//256
f 254//254 256//256 190//190
f 243//243 256//256 254//254
f 166//166 262//262 212//212
f 262//262 192//192 264//264
f 212//212 264//264 178//178
f 262//262 264//264 212//212
f 192//192 263//263 270//270
f 263//263 172//172 267//267
f 270//270 267//267 193//193
f 263//263 267//267 270//270
f 178//178 268//268 213//213
f 268//268 193//193 266//266
f 213//213 266//266 167//167
f 268//268 266//266 213//213
f 192//192 270//270 264//264
f 270//270 193//193 268//268
f 264//264 268//268 178//178
f 270//270 268//268 264//264
f 166//166 212//212 208//208
f 212//212 178//178 214//214
f 208//208 214//214 176//176
f 212//212 214//214 208//208
f 178//178 213//213 215//215
f 213//213 167//167 210//210
f 215//215 210//210 177//177
f 213//213 210//210 215//215
f 176//176 211//211 207//207
f 211//211 177//177 209//209
f 207//207 209//209 165//165
f 211//211 209//209 207//207
f 178//178 215//215 214//214
f 215//215 177//177 211//211
f 214//214 211//211 176//176
f 215//215 211//211 214//214
f 166//166 208//208 228//228
f 208//208 176//176 230//230
f 228//228 230//230 183//183
f 208//208 230//230 228//228
f 176//176 207//207 227//227
f 207//207 165//165 225//225
f 227//227 225//225 182//182
f 207//207 225//225 227//227
f 183//183 231//231 229//229
f 231//231 182//182 226//226
f 229//229 226//226 169//169
f 231//231 226//226 229//229
f 176//176 227//227 230//230
f 227//227 182//182 231//231
f 230//230 231//231 183//183
f 227//227 231//231 230//230
f 166//166 228//228 244//244
f 228//228 183//183 246//246
f 244//244 246//246 188//188
f 228//228 246//246 244//244
f 183//183 229//229 249//249
f 229//229 169//169 247//247
f 249//249 247//247 189//189
f 229//229 247//247 249//249
f 188//188 251//251 245//245
f 251//251 189//189 248//248
f 245//245 248//248 171//171
f 251//251 248//248 245//245
f 183//183 249//249 246//246
f 249//249 189//189 251//251
f 246//246 251//251 188//188
f 249//249 251//251 246//246
f 166//166 244//244 262//262
f 244//244 188//188 265//265
f 262//262 265//265 192//192
f 244//244 265//265 262//262
f 188//188 245//245 280//280
f 245//245 171//171 277//277
f 280//280 277//277 195//195
f 245//245 277//277 280//280
f 192//192 282//282 263//263
f 282//282 195//195 278//278
f 263//263 278//278 172//172
f 282//282 278//278 263//263
f 188//188 280//280 265//265
f 280//280 195//195 282//282
f 265//265 282//282 192//192
f 280//280 282//282 265//265
f 167//167 266//266 223//223
f 266//266 193//193 269//269
f 223//223 269//269 181//181
f 266//266 269//269 223//223
f 193//193 267//267 276//276
f 267//267 172//172 272//272
f 276//276 272//272 194//194
f 267//267 272//272 276//276
f 181//181 274//274 224//224
f 274//274 194//194 271//271
f 224//224 271//271 168//168
f 274//274 271//271 224//224
f 193//193 276//276 269//269
f 276//276 194//194 274//274
f 269//269 274//274 181//181
f 276//276 274//274 269//269
f 165//165 209//209 304//304
f 209//209 177//177 306//306
f 304//304 306//306 201//201
f 209//209 306//306 304//304
f 177//177 210//210 310//310
f 210//210 167//167 308//308
f 310//310 308//308 202//202
f 210//210 308//308 310//310
f 201//201 312//312 305//305
f 312//312 202//202 309//309
f 305//305 309//309 174//174
f 312//312 309//309 305//305
f 177//177 310//310 306//306
f 310//310 202//202 312//312
f 306//306 312//312 201//201
f 310//310 312//312 306//306
f 169//169 226//226 289//289
f 226//226 182//182 291//291
f 289//289 291//291 198//198
f 226//226 291//291 289//289
f 182//182 225//225 288//288
f 225//225 165//165 286//286
f 288//288 286//286 197//197
f 225//225 286//286 288//288
f 198//198 293//293 290//290
f 293//293 197//197 287//287
f 290//290 287//287 173//173
f 293//293 287//287 290//290
f 182//182 288//288 291//291
f 288//288 197//197 293//293
f 291//291 293//293 198//198
f 288//288 293//293 291//291
f 171//171 248//248 253//253
f 248//248 189//189 257//257
f 253//253 257//257 190//190
f 248//248 257//257 253//253
f 189//189 247//247 250//250
f 247//247 169//169 239//239
f 250//250 239//239 186//186
f 247//247 239//239 250//250
f 190//190 255//255 252//252
f 255//255 186//186 240//240
f 252//252 240//240 170//170
f 255//255 240//240 252//252
f 189//189 250//250 257//257
f 250//250 186//186 255//255
f 257//257 255//255 190//190
f 250//250 255//255 257//257
f 172//172 278//278 259//259
f 278//278 195//195 281//281
f 259//259 281//281 191//191
f 278//278 281//281 259//259
f 195//195 277//277 279//279
f 277//277 171//171 242//242
f 279//279 242//242 187//187
f 277//277 242//242 279//279
f 191//191 261//261 258//258
f 261//261 187//187 241//241
f 258//258 241//241 164//164
f 261//261 241//241 258//258
f 195//195 279//279 281//281
f 279//279 187//187 261//261
f 281//281 261//261 191//191
f 279//279 261//261 281//281
f 325//325 462//462 378//378
f 462//462 362//362 464//464
f 378//378 464//464 341//341
f 462//462 464//464 378//378
f 362//362 463//463 479//479
f 463//463 336//336 476//476
f 479//479 476//476 365//365
f 463//463 476//476 479//479
f 341//341 477//477 379//379
f 477//477 365//365 475//475
f 379//379 475//475 330//330
f 477//477 475//475 379//379
f 362//362 479//479 464//464
f 479//479 365//365 477//477
f 464//464 477//477 341//341
f 479//479 477//477 464//464
f 325//325 378//378 367//367
f 378//378 341//341 380//380
f 367//367 380//380 337//337
f 378//378 380//380 367//367
f 341//341 379//379 384//384
f 379//379 330//330 382//382
f 384//384 382//382 342//342
f 379//379 382//382 384//384
f 337//337 383//383 368//368
f 383//383 342//342 381//381
f 368//368 381//381 326//326
f 383//383 381//381 368//368
f 341//341 384//384 380//380
f 384//384 342//342 383//383
f 380//380 383//383 337//337
f 384//384 383//383 380//380
f 325//325 367//367 394//394
f 367//367 337//337 396//396
f 394//394 396//396 346//346
f 367//367 396//396 394//394
f 337//337 368//368 399//399
f 368//368 326//326 397//397
f 399//399 397//397 347//347
f 368//368 397//397 399//399
f 346//346 400//400 395//395
f 400//400 347//347 398//398
f 395//395 398//398 332//332
f 400//400 398//398 395//395
f 337//337 399//399 396//396
f 399//399 347//347 400//400
f 396//396 400//400 346//346
f 399//399 400//400 396//396
f 325//325 394//394 445//445
f 394//394 346//346 447//447
f 445//445 447//447 358//358
f 394//394 447//447 445//445
f 346//346 395//395 458//458
f 395//395 332//332 456//456
f 458//458 456//456 361//361
f 395//395 456//456 458//458
f 358//358 460//460 446//446
f 460//460 361//361 457//457
f 446//446 457//457 335//335
f 460//460 457//457 446//446
f 346//346 458//458 447//447
f 458//458 361//361 460//460
f 447//447 460//460 358//358
f 458//458 460//460 447//447
f 325//325 445//445 462//462
f 445//445 358//358 465//465
f 462//462 465//465 362//362
f 445//445 465//465 462//462
f 358//358 446//446 483//483
f 446//446 335//335 481//481
f 483//483 481//481 366//366
f 446//446 481//481 483//483
f 362//362 485//485 463//463
f 485//485 366//366 482//482
f 463//463 482//482 336//336
f 485//485 482//482 463//463
f 358//358 483//483 465//465
f 483//483 366//366 485//485
f 465//465 485//485 362//362
f 483//483 485//485 465//465
f 326//326 381//381 420//420
f 381//381 342//342 422//422
f 420//420 422//422 353//353
f 381//381 422//422 420//420
f 342//342 382//382 435//435
f 382//382 330//330 433//433
f 435//435 433//433 356//356
f 382//382 433//433 435//435
f 353//353 437//437 421//421
f 437//437 356//356 434//434
f 421//421 434//434 334//334
f 437//437 434//434 421//421
f 342//342 435//435 422//422
f 435//435 356//356 437//437
f 422//422 437//437 353//353
f 435//435 437//437 422//422
f 330//330 475//475 386//386
f 475//475 365//365 478//478
f 386//386 478//478 343//343
f 475//475 478//478 386//386
f 365//365 476//476 480//480
f 476//476 336//336 471//471
f 480//480 471//471 364//364
f 476//476 471//471 480//480
f 343//343 473//473 385//385
f 473//473 364//364 470//470
f 385//385 470//470 329//329
f 473//473 470//470 385//385
f 365//365 480//480 478//478
f 480//480 364//364 473//473
f 478//478 473//473 343//343
f 480//480 473//473 478//478
f 336//336 482//482 467//467
f 482//482 366//366 486//486
f 467//467 486//486 363//363
f 482//482 486//486 467//467
f 366//366 481//481 484//484
f 481//481 335//335 449//449
f 484//484 449//449 359//359
f 481//481 449//449 484//484
f 363//363 469//469 466//466
f 469//469 359//359 448//448
f 466//466 448//448 327//327
f 469//469 448//448 466//466
f 366//366 484//484 486//486
f 484//484 359//359 469//469
f 486//486 469//469 363//363
f 484//484 469//469 486//486
f 335//335 457//457 452//452
f 457//457 361//361 461//461
f 452//452 461//461 360//360
f 457//457 461//461 452//452
f 361//361 456//456 459//459
f 456//456 332//332 402//402
f 459//459 402//402 348//348
f 456//456 402//402 459//459
f 360//360 454//454 451//451
f 454//454 348//348 401//401
f 451//451 401//401 331//331
f 454//454 401//401 451//451
f 361//361 459//459 461//461
f 459//459 348//348 454//454
f 461//461 454//454 360//360
f 459//459 454//454 461//461
f 332//332 398//398 414//414
f 398//398 347//347 416//416
f 414//414 416//416 352//352
f 398//398 416//416 414//414
f 347//347 397//397 405//405
f 397//397 326//326 403//403
f 405//405 403//403 349//349
f 397//397 403//403 405//405
f 352//352 418//418 415//415
f 418//418 349//349 404//404
f 415//415 404//404 333//333
f 418//418 404//404 415//415
f 347//347 405//405 416//416
f 405//405 349//349 418//418
f 416//416 418//418 352//352
f 405//405 418//418 416//416
f 328//328 424//424 374//374
f 424//424 354//354 426//426
f 374//374 426//426 340//340
f 424//424 426//426 374//374
f 354//354 425//425 432//432
f 425//425 334//334 429//429
f 432//432 429//429 355//355
f 425//425 429//429 432//432
f 340//340 430//430 375//375
f 430//430 355//355 428//428
f 375//375 428//428 329//329
f 430//430 428//428 375//375
f 354//354 432//432 426//426
f 432//432 355//355 430//430
f 426//426 430//430 340//340
f 432//432 430//430 426//426
f 328//328 374//374 370//370
f 374//374 340//340 376//376
f 370//370 376//376 338//338
f 374//374 376//376 370//370
f 340//340 375//375 377//377
f 375//375 329//329 372//372
f 377//377 372//372 339//339
f 375//375 372//372 377//377
f 338//338 373//373 369//369
f 373//373 339//339 371//371
f 369//369 371//371 327//327
f 373//373 371//371 369//369
f 340//340 377//377 376//376
f 377//377 339//339 373//373
f 376//376 373//373 338//338
f 377//377 373//373 376//376
f 328//328 370//370 390//390
f 370//370 338//338 392//392
f 390//390 392//392 345//345
f 370//370 392//392 390//390
f 338//338 369//369 389//389
f 369//369 327//327 387//387
f 389//389 387//387 344//344
f 369//369 387//387 389//389
f 345//345 393//393 391//391
f 393//393 344//344 388//388
f 391//391 388//388 331//331
f 393//393 388//388 391//391
f 338//338 389//389 392//392
f 389//389 344//344 393//393
f 392//392 393//393 345//345
f 389//389 393//393 392//392
f 328//328 390//390 406//406
f 390//390 345//345 408//408
f 406//406 408//408 350//350
f 390//390 408//408 406//406
f 345//345 391//391 411//411
f 391//391 331//331 409//409
f 411//411 409//409 351//351
f 391//391 409//409 411//411
f 350//350 413//413 407//407
f 413//413 351//351 410//410
f 407//407 410//410 333//333
f 413//413 410//410 407//407
f 345//345 411//411 408//408
f 411//411 351//351 413//413
f 408//408 413//413 350//350
f 411//411 413//413 408//408
f 328//328 406//406 424//424
f 406//406 350//350 427//427
f 424//424 427//427 354//354
f 406//406 427//427 424//424
f 350//350 407//407 442//442
f 407//407 333//333 439//439
f 442//442 439//439 357//357
f 407//407 439//439 442//442
f 354//354 444//444 425//425
f 444//444 357//357 440//440
f 425//425 440//440 334//334
f 444//444 440//440 425//425
f 350//350 442//442 427//427
f 442//442 357//357 444//444
f 427//427 444//444 354//354
f 442//442 444//444 427//427
f 329//329 428//428 385//385
f 428//428 355//355 431//431
f 385//385 431//431 343//343
f 428//428 431//431 385//385
f 355//355 429//429 438//438
f 429//429 334//334 434//434
f 438//438 434//434 356//356
f 429//429 434//434 438//438
f 343//343 436//436 386//386
f 436//436 356//356 433//433
f 386//386 433//433 330//330
f 436//436 433//433 386//386
f 355//355 438//438 431//431
f 438//438 356//356 436//436
f 431//431 436//436 343//343
f 438//438 436//436 431//431
f 327//327 371//371 466//466
f 371//371 339//339 468//468
f 466//466 468//468 363//363
f 371//371 468//468 466//466
f 339//339 372//372 472//472
f 372//372 329//329 470//470
f 472//472 470//470 364//364
f 372//372 470//470 472//472
f 363//363 474//474 467//467
f 474//474 364//364 471//471
f 467//467 471//471 336//336
f 474//474 471//471 467//467
f 339//339 472//472 468//468
f 472//472 364//364 474//474
f 468//468 474//474 363//363
f 472//472 474//474 468//468
f 331//331 388//388 451//451
f 388//388 344//344 453//453
f 451//451 453//453 360//360
f 388//388 453//453 451//451
f 344//344 387//387 450//450
f 387//387 327//327 448//448
f 450//450 448//448 359//359
f 387//387 448//448 450//450
f 360//360 455//455 452//452
f 455//455 359//359 449//449
f 452//452 449//449 335//335
f 455//455 449//449 452//452
f 344//344 450//450 453//453
f 450//450 359//359 455//455
f 453//453 455//455 360//360
f 450//450 455//455 453//453
f 333//333 410//410 415//415
f 410//410 351//351 419//419
f 415//415 419//419 352//352
f 410//410 419//419 415//415
f 351//351 409//409 412//412
f 409//409 331//331 401//401
f 412//412 401//401 348//348
f 409//409 401//401 412//412
f 352//352 417//417 414//414
f 417//417 348//348 402//402
f 414//414 402//402 332//332
f 417//417 402//402 414//414
f 351//351 412//412 419//419
f 412//412 348//348 417//417
f 419//419 417//417 352//352
f 412//412 417//417 419//419
f 334//334 440//440 421//421
f 440//440 357//357 443//443
f 421//421 443//443 353//353
f 440//440 443//443 421//421
f 357//357 439//439 441//441
f 439//439 333//333 404//404
f 441//441 404//404 349//349
f 439//439 404//404 441//441
f 353//353 423//423 420//420
f 423//423 349//349 403//403
f 420//420 403//403 326//326
f 423//423 403//403 420//420
f 357//357 441//441 443//443
f 441//441 349//349 423//423
f 443//443 423//423 353//353
f 441//441 423//423 443//443
f 487//487 624//624 540//540
f 624//624 524//524 626//626
f 540//540 626//626 503//503
f 624//624 626//626 540//540
f 524//524 625//625 641//641
f 625//625 498//498 638//638
f 641//641 638//638 527//527
f 625//625 638//638 641//641
f 503//503 639//639 541//541
f 639//639 527//527 637//637
f 541//541 637//637 492//492
f 639//639 637//637 541//541
f 524//524 641//641 626//626
f 641//641 527//527 639//639
f 626//626 639//639 503//503
f 641//641 639//639 626//626
f 487//487 540//540 529//529
f 540//540 503//503 542//542
f 529//529 542//542 499//499
f 540//540 542//542 529//529
f 503//503 541//541 546//546
f 541//541 492//492 544//544
f 546//546 544//544 504//504
f 541//541 544//544 546//546
f 499//499 545//545 530//530
f 545//545 504//504 543//543
f 530//530 543//543 488//488
f 545//545 543//543 530//530
f 503//503 546//546 542//542
f 546//546 504//504 545//545
f 542//542 545//545 499//499
f 546//546 545//545 542//542
f 487//487 529//529 556//556
f 529//529 499//499 558//558
f 556//556 558//558 508//508
f 529//529 558//558 556//556
f 499//499 530//530 561//561
f 530//530 488//488 559//559
f 561//561 559//559 509//509
f 530//530 559//559 561//561
f 508//508 562//562 557//557
f 562//562 509//509 560//560
f 557//557 560//560 494//494
f 562//562 560//560 557//557
f 499//499 561//561 558//558
f 561//561 509//509 562//562
f 558//558 562//562 508//508
f 561//561 562//562 558//558
f 487//487 556//556 607//607
f 556//556 508//508 609//609
f 607//607 609//609 520//520
f 556//556 609//609 607//607
f 508//508 557//557 620//620
f 557//557 494//494 618//618
f 620//620 618//618 523//523
f 557//557 618//618 620//620
f 520//520 622//622 608//608
f 622//622 523//523 619//619
f 608//608 619//619 497//497
f 622//622 619//619 608//608
f 508//508 620//620 609//609
f 620//620 523//523 622//622
f 609//609 622//622 520//520
f 620//620 622//622 609//609
f 487//487 607//607 624//624
f 607//607 520//520 627//627
f 624//624 627//627 524//524
f 607//607 627//627 624//624
f 520//520 608//608 645//645
f 608//608 497//497 643//643
f 645//645 643//643 528//528
f 608//608 643//643 645//645
f 524//524 647//647 625//625
f 647//647 528//528 644//644
f 625//625 644//644 498//498
f 647//647 644//644 625//625
f 520//520 645//645 627//627
f 645//645 528//528 647//647
f 627//627 647//647 524//524
f 645//645 647//647 627//627
f 488//488 543//543 582//582
f 543//543 504//504 584//584
f 582//582 584//584 515//515
f 543//543 584//584 582//582
f 504//504 544//544 597//597
f 544//544 492//492 595//595
f 597//597 595//595 518//518
f 544//544 595//595 597//597
f 515//515 599//599 583//583
f 599//599 518//518 596//596
f 583//583 596//596 496//496
f 599//599 596//596 583//583
f 504//504 597//597 584//584
f 597//597 518//518 599//599
f 584//584 599//599 515//515
f 597//597 599//599 584//584
f 492//492 637//637 548//548
f 637//637 527//527 640//640
f 548//548 640//640 505//505
f 637//637 640//640 548//548
f 527//527 638//638 642//642
f 638//638 498//498 633//633
f 642//642 633//633 526//526
f 638//638 633//633 642//642
f 505//505 635//635 547//547
f 635//635 526//526 632//632
f 547//547 632//632 491//491
f 635//635 632//632 547//547
f 527//527 642//642 640//640
f 642//642 526//526 635//635
f 640//640 635//635 505//505
f 642//642 635//635 640//640
f 498//498 644//644 629//629
f 644//644 528//528 648//648
f 629//629 648//648 525//525
f 644//644 648//648 629//629
f 528//528 643//643 646//646
f 643//643 497//497 611//611
f 646//646 611//611 521//521
f 643//643 611//611 646//646
f 525//525 631//631 628//628
f 631//631 521//521 610//610
f 628//628 610//610 489//489
f 631//631 610//610 628//628
f 528//528 646//646 648//648
f 646//646 521//521 631//631
f 648//648 631//631 525//525
f 646//646 631//631 648//648
f 497//497 619//619 614//614
f 619//619 523//523 623//623
f 614//614 623//623 522//522
f 619//619 623//623 614//614
f 523//523 618//618 621//621
f 618//618 494//494 564//564
f 621//621 564//564 510//510
f 618//618 564//564 621//621
f 522//522 616//616 613//613
f 616//616 510//510 563//563
f 613//613 563//563 493//493
f 616//616 563//563 613//613
f 523//523 621//621 623//623
f 621//621 510//510 616//616
f 623//623 616//616 522//522
f 621//621 616//616 623//623
f 494//494 560//560 576//576
f 560//560 509//509 578//578
f 576//576 578//578 514//514
f 560//560 578//578 576//576
f 509//509 559//559 567//567
f 559//559 488//488 565//565
f 567//567 565//565 511//511
f 559//559 565//565 567//567
f 514//514 580//580 577//577
f 580//580 511//511 566//566
f 577//577 566//566 495//495
f 580//580 566//566 577//577
f 509//509 567//567 578//578
f 567//567 511//511 580//580
f 578//578 580//580 514//514
f 567//567 580//580 578//578
f 490//490 586//586 536//536
f 586//586 516//516 588//588
f 536//536 588//588 502//502
f 586//586 588//588 536//536
f 516//516 587//587 594//594
f 587//587 496//496 591//591
f 594//594 591//591 517//517
f 587//587 591//591 594//594
f 502//502 592//592 537//537
f 592//592 517//517 590//590
f 537//537 590//590 491//491
f 592//592 590//590 537//537
f 516//516 594//594 588//588
f 594//594 517//517 592//592
f 588//588 592//592 502//502
f 594//594 592//592 588//588
f 490//490 536//536 532//532
f 536//536 502//502 538//538
f 532//532 538//538 500//500
f 536//536 538//538 532//532
f 502//502 537//537 539//539
f 537//537 491//491 534//534
f 539//539 534//534 501//501
f 537//537 534//534 539//539
f 500//500 535//535 531//531
f 535//535 501//501 533//533
f 531//531 533//533 489//489
f 535//535 533//533 531//531
f 502//502 539//539 538//538
f 539//539 501//501 535//535
f 538//538 535//535 500//500
f 539//539 535//535 538//538
f 490//490 532//532 552//552
f 532//532 500//500 554//554
f 552//552 554//554 507//507
f 532//532 554//554 552//552
f 500//500 531//531 551//551
f 531//531 489//489 549//549
f 551//551 549//549 506//506
f 531//531 549//549 551//551
f 507//507 555//555 553//553
f 555//555 506//506 550//550
f 553//553 550//550 493//493
f 555//555 550//550 553//553
f 500//500 551//551 554//554
f 551//551 506//506 555//555
f 554//554 555//555 507//507
f 551//551 555//555 554//554
f 490//490 552//552 568//568
f 552//552 507//507 570//570
f 568//568 570//570 512//512
f 552//552 570//570 568//568
f 507//507 553//553 573//573
f 553//553 493//493 571//571
f 573//573 571//571 513//513
f 553//553 571//571 573//573
f 512//512 575//575 569//569
f 575//575 513//513 572//572
f 569//569 572//572 495//495
f 575//575 572//572 569//569
f 507//507 573//573 570//570
f 573//573 513//513 575//575
f 570//570 575//575 512//512
f 573//573 575//575 570//570
f 490//490 568//568 586//586
f 568//568 512//512 589//589
f 586//586 589//589 516//516
f 568//568 589//589 586//586
f 512//512 569//569 604//604
f 569//569 495//495 601//601
f 604//604 601//601 519//519
f 569//569 601//601 604//604
f 516//516 606//606 587//587
f 606//606 519//519 602//602
f 587//587 602//602 496//496
f 606//606 602//602 587//587
f 512//512 604//604 589//589
f 604//604 519//519 606//606
f 589//589 606//606 516//516
f 604//604 606//606 589//589
f 491//491 590//590 547//547
f 590//590 517//517 593//593
f 547//547 593//593 505//505
f 590//590 593//593 547//547
f 517//517 591//591 600//600
f 591//591 496//496 596//596
f 600//600 596//596 518//518
f 591//591 596//596 600//600
f 505//505 598//598 548//548
f 598//598 518//518 595//595
f 548//548 595//595 492//492
f 598//598 595//595 548//548
f 517//517 600//600 593//593
f 600//600 518//518 598//598
f 593//593 598//598 505//505
f 600//600 598//598 593//593
f 489//489 533//533 628//628
f 533//533 501//501 630//630
f 628//628 630//630 525//525
f 533//533 630//630 628//628
f 501//501 534//534 634//634
f 534//534 491//491 632//632
f 634//634 632//632 526//526
f 534//534 632//632 634//634
f 525//525 636//636 629//629
f 636//636 526//526 633//633
f 629//629 633//633 498//498
f 636//636 633//633 629//629
f 501//501 634//634 630//630
f 634//634 526//526 636//636
f 630//630 636//636 525//525
f 634//634 636//636 630//630
f 493//493 550//550 613//613
f 550//550 506//506 615//615
f 613//613 615//615 522//522
f 550//550 615//615 613//613
f 506//506 549//549 612//612
f 549//549 489//489 610//610
f 612//612 610//610 521//521
f 549//549 610//610 612//612
f 522//522 617//617 614//614
f 617//617 521//521 611//611
f 614//614 611//611 497//497
f 617//617 611//611 614//614
f 506//506 612//612 615//615
f 612//612 521//521 617//617
f 615//615 617//617 522//522
f 612//612 617//617 615//615
f 495//495 572//572 577//577
f 572//572 513//513 581//581
f 577//577 581//581 514//514
f 572//572 581//581 577//577
f 513//513 571//571 574//574
f 571//571 493//493 563//563
f 574//574 563//563 510//510
f 571//571 563//563 574//574
f 514//514 579//579 576//576
f 579//579 510//510 564//564
f 576//576 564//564 494//494
f 579//579 564//564 576//576
f 513//513 574//574 581//581
f 574//574 510//510 579//579
f 581//581 579//579 514//514
f 574//574 579//579 581//581
f 496//496 602//602 583//583
f 602//602 519//519 605//605
f 583//583 605//605 515//515
f 602//602 605//605 583//583
f 519//519 601//601 603//603
f 601//601 495//495 566//566
f 603//603 566//566 511//511
f 601//601 566//566 603//603
f 515//515 585//585 582//582
f 585//585 511//511 565//565
f 582//582 565//565 488//488
f 585//585 565//565 582//582
f 519//519 603//603 605//605
f 603//603 511//511 585//585
f 605//605 585//585 515//515
f 603//603 585//585 605//605
f 650//650 652//652 649//649
f 653//653 650//650 649//649
f 649//649 652//652 651//651
f 651//651 653//653 649//649
f 650//650 656//656 652//652
f 654//654 650//650 653//653
f 654//654 656//656 650//650
f 652//652 656//656 651//651
f 655//655 653//653 651//651
f 651//651 656//656 655//655
f 655//655 654//654 653//653
f 656//656 654//654 655//655
f 657//657 694//694 673//673
f 694//694 668//668 697//697
f 673//673 697//697 662//662
f 694//694 697//697 673//673
f 657//657 673//673 669//669
f 673//673 662//662 674//674
f 669//669 674//674 658//658
f 673//673 674//674 669//669
f 657//657 669//669 678//678
f 669//669 658//658 679//679
f 678//678 679//679 664//664
f 669//669 679//679 678//678
f 657//657 678//678 690//690
f 678//678 664//664 693//693
f 690//690 693//693 667//667
f 678//678 693//693 690//690
f 657//657 690//690 694//694
f 690//690 667//667 698//698
f 694//694 698//698 668//668
f 690//690 698//698 694//694
f 658//658 674//674 685//685
f 674//674 662//662 688//688
f 685//685 688//688 666//666
f 674//674 688//688 685//685
f 662//662 697//697 675//675
f 697//697 668//668 696//696
f 675//675 696//696 661//661
f 697//697 696//696 675//675
f 668//668 698//698 695//695
f 698//698 667//667 691//691
f 695//695 691//691 659//659
f 698//698 691//691 695//695
f 667//667 693//693 692//692
f 693//693 664//664 680//680
f 692//692 680//680 663//663
f 693//693 680//680 692//692
f 664//664 679//679 684//684
f 679//679 658//658 681//681
f 684//684 681//681 665//665
f 679//679 681//681 684//684
f 660//660 686//686 672//672
f 686//686 666//666 687//687
f 672//672 687//687 661//661
f 686//686 687//687 672//672
f 660//660 672//672 670//670
f 672//672 661//661 671//671
f 670//670 671//671 659//659
f 672//672 671//671 670//670
f 660//660 670//670 677//677
f 670//670 659//659 676//676
f 677//677 676//676 663//663
f 670//670 676//676 677//677
f 660//660 677//677 682//682
f 677//677 663//663 683//683
f 682//682 683//683 665//665
f 677//677 683//683 682//682
f 660//660 682//682 686//686
f 682//682 665//665 689//689
f 686//686 689//689 666//666
f 682//682 689//689 686//686
f 661//661 687//687 675//675
f 687//687 666//666 688//688
f 675//675 688//688 662//662
f 687//687 688//688 675//675
f 659//659 671//671 695//695
f 671//671 661//661 696//696
f 695//695 696//696 668//668
f 671//671 696//696 695//695
f 663//663 676//676 692//692
f 676//676 659//659 691//691
f 692//692 691//691 667//667
f 676//676 691//691 692//692
f 665//665 683//683 684//684
f 683//683 663//663 680//680
f 684//684 680//680 664//664
f 683//683 680//680 684//684
f 666//666 689//689 685//685
f 689//689 665//665 681//681
f 685//685 681//681 658//658
f 689//689 681//681 685//685

