# https://github.com/mikedh/trimesh
v -0.24183631 0.47831239 0.00000000
v 0.24183631 0.47831239 0.00000000
v -0.24183631 -0.33831239 0.00000000
v 0.24183631 -0.33831239 0.00000000
v 0.00000000 -0.18235093 0.26370175
v 0.00000000 0.32235093 0.26370175
v 0.00000000 -0.18235093 -0.26370175
v 0.00000000 0.32235093 -0.26370175
v 0.39129937 0.07000000 -0.16297664
v 0.39129937 0.07000000 0.16297664
v -0.39129937 0.07000000 -0.16297664
v -0.39129937 0.07000000 0.16297664
v 0.00000000 0.55000000 0.00000000
v 0.00000000 -0.41000000 0.00000000
v -0.14214782 -0.31832816 0.15500000
v 0.14214782 -0.31832816 0.15500000
v -0.14214782 0.45832816 0.15500000
v 0.14214782 0.45832816 0.15500000
v 0.00000000 0.07000000 0.31000000
v -0.14214782 -0.31832816 -0.15500000
v 0.14214782 -0.31832816 -0.15500000
v -0.14214782 0.45832816 -0.15500000
v 0.14214782 0.45832816 -0.15500000
v 0.00000000 0.07000000 -0.31000000
v 0.37214782 0.31000000 -0.09579527
v 0.37214782 -0.17000000 -0.09579527
v 0.23000000 -0.07832816 -0.25079527
v 0.23000000 0.21832816 -0.25079527
v 0.37214782 0.31000000 0.09579527
v 0.37214782 -0.17000000 0.09579527
v 0.23000000 -0.07832816 0.25079527
v 0.23000000 0.21832816 0.25079527
v 0.46000000 0.07000000 0.00000000
v -0.37214782 0.31000000 -0.09579527
v -0.37214782 -0.17000000 -0.09579527
v -0.23000000 -0.07832816 -0.25079527
v -0.23000000 0.21832816 -0.25079527
v -0.37214782 0.31000000 0.09579527
v -0.37214782 -0.17000000 0.09579527
v -0.23000000 -0.07832816 0.25079527
v -0.23000000 0.21832816 0.25079527
v -0.46000000 0.07000000 0.00000000
v -0.12570260 0.53173041 0.00000000
v 0.12570260 0.53173041 0.00000000
v -0.12570260 -0.39173041 0.00000000
v 0.12570260 -0.39173041 0.00000000
v -0.19958874 -0.34408087 0.08056649
v -0.07388614 -0.26301463 0.21763440
v -0.07473153 -0.38650713 0.08148832
v 0.19958874 -0.34408087 0.08056649
v 0.07388614 -0.26301463 0.21763440
v 0.07473153 -0.38650713 0.08148832
v 0.00000000 -0.33831239 0.16297664
v -0.19958874 0.48408087 0.08056649
v -0.07388614 0.40301463 0.21763440
v -0.07473153 0.52650713 0.08148832
v 0.19958874 0.48408087 0.08056649
v 0.07388614 0.40301463 0.21763440
v 0.07473153 0.52650713 0.08148832
v 0.00000000 0.47831239 0.16297664
v 0.00000000 -0.06116793 0.29820089
v 0.00000000 0.20116793 0.29820089
v -0.19958874 -0.34408087 -0.08056649
v -0.07388614 -0.26301463 -0.21763440
v -0.07473153 -0.38650713 -0.08148832
v 0.19958874 -0.34408087 -0.08056649
v 0.07388614 -0.26301463 -0.21763440
v 0.07473153 -0.38650713 -0.08148832
v 0.00000000 -0.33831239 -0.16297664
v -0.19958874 0.48408087 -0.08056649
v -0.07388614 0.40301463 -0.21763440
v -0.07473153 0.52650713 -0.08148832
v 0.19958874 0.48408087 -0.08056649
v 0.07388614 0.40301463 -0.21763440
v 0.07473153 0.52650713 -0.08148832
v 0.00000000 0.47831239 -0.16297664
v 0.00000000 -0.06116793 -0.29820089
v 0.00000000 0.20116793 -0.29820089
v 0.31913902 0.40698229 -0.04979283
v 0.39682750 0.19474812 -0.13450546
v 0.27038122 0.40033166 -0.13185088
v 0.31913902 -0.26698229 -0.04979283
v 0.39682750 -0.05474812 -0.13450546
v 0.27038122 -0.26033166 -0.13185088
v 0.11955028 -0.13826651 -0.26742723
v 0.32294136 -0.00709858 -0.21507195
v 0.19564969 -0.21213692 -0.21333920
v 0.12091816 -0.00798073 -0.29482752
v 0.31656784 -0.13415619 -0.18221343
v 0.11955028 0.27826651 -0.26742723
v 0.32294136 0.14709858 -0.21507195
v 0.19564969 0.35213692 -0.21333920
v 0.12091816 0.14798073 -0.29482752
v 0.31656784 0.27415619 -0.18221343
v 0.24183631 0.07000000 -0.26370175
v 0.31913902 0.40698229 0.04979283
v 0.39682750 0.19474812 0.13450546
v 0.27038122 0.40033166 0.13185088
v 0.39129937 0.32235093 0.00000000
v 0.31913902 -0.26698229 0.04979283
v 0.39682750 -0.05474812 0.13450546
v 0.27038122 -0.26033166 0.13185088
v 0.39129937 -0.18235093 0.00000000
v 0.11955028 -0.13826651 0.26742723
v 0.32294136 -0.00709858 0.21507195
v 0.19564969 -0.21213692 0.21333920
v 0.12091816 -0.00798073 0.29482752
v 0.31656784 -0.13415619 0.18221343
v 0.11955028 0.27826651 0.26742723
v 0.32294136 0.14709858 0.21507195
v 0.19564969 0.35213692 0.21333920
v 0.12091816 0.14798073 0.29482752
v 0.31656784 0.27415619 0.18221343
v 0.24183631 0.07000000 0.26370175
v 0.44249164 0.07000000 -0.08471262
v 0.44249164 0.07000000 0.08471262
v 0.43748600 0.19617547 -0.05036255
v 0.43748600 -0.05617547 -0.05036255
v 0.43748600 0.19617547 0.05036255
v 0.43748600 -0.05617547 0.05036255
v -0.31913902 0.40698229 -0.04979283
v -0.39682750 0.19474812 -0.13450546
v -0.27038122 0.40033166 -0.13185088
v -0.31913902 -0.26698229 -0.04979283
v -0.39682750 -0.05474812 -0.13450546
v -0.27038122 -0.26033166 -0.13185088
v -0.11955028 -0.13826651 -0.26742723
v -0.32294136 -0.00709858 -0.21507195
v -0.19564969 -0.21213692 -0.21333920
v -0.12091816 -0.00798073 -0.29482752
v -0.31656784 -0.13415619 -0.18221343
v -0.11955028 0.27826651 -0.26742723
v -0.32294136 0.14709858 -0.21507195
v -0.19564969 0.35213692 -0.21333920
v -0.12091816 0.14798073 -0.29482752
v -0.31656784 0.27415619 -0.18221343
v -0.24183631 0.07000000 -0.26370175
v -0.31913902 0.40698229 0.04979283
v -0.39682750 0.19474812 0.13450546
v -0.27038122 0.40033166 0.13185088
v -0.39129937 0.32235093 0.00000000
v -0.31913902 -0.26698229 0.04979283
v -0.39682750 -0.05474812 0.13450546
v -0.27038122 -0.26033166 0.13185088
v -0.39129937 -0.18235093 0.00000000
v -0.11955028 -0.13826651 0.26742723
v -0.32294136 -0.00709858 0.21507195
v -0.19564969 -0.21213692 0.21333920
v -0.12091816 -0.00798073 0.29482752
v -0.31656784 -0.13415619 0.18221343
v -0.11955028 0.27826651 0.26742723
v -0.32294136 0.14709858 0.21507195
v -0.19564969 0.35213692 0.21333920
v -0.12091816 0.14798073 0.29482752
v -0.31656784 0.27415619 0.18221343
v -0.24183631 0.07000000 0.26370175
v -0.44249164 0.07000000 -0.08471262
v -0.44249164 0.07000000 0.08471262
v -0.43748600 0.19617547 -0.05036255
v -0.43748600 -0.05617547 -0.05036255
v -0.43748600 0.19617547 0.05036255
v -0.43748600 -0.05617547 0.05036255
v -0.17874858 -0.05077873 0.02000000
v 0.17874858 -0.05077873 0.02000000
v -0.17874858 -0.62922127 0.02000000
v 0.17874858 -0.62922127 0.02000000
v 0.00000000 -0.51874858 0.24967572
v 0.00000000 -0.16125142 0.24967572
v 0.00000000 -0.51874858 -0.20967572
v 0.00000000 -0.16125142 -0.20967572
v 0.28922127 -0.34000000 -0.12194740
v 0.28922127 -0.34000000 0.16194740
v -0.28922127 -0.34000000 -0.12194740
v -0.28922127 -0.34000000 0.16194740
v 0.00000000 0.00000000 0.02000000
v 0.00000000 -0.68000000 0.02000000
v -0.10506578 -0.61506578 0.15500000
v 0.10506578 -0.61506578 0.15500000
v -0.10506578 -0.06493422 0.15500000
v 0.10506578 -0.06493422 0.15500000
v 0.00000000 -0.34000000 0.29000000
v -0.10506578 -0.61506578 -0.11500000
v 0.10506578 -0.61506578 -0.11500000
v -0.10506578 -0.06493422 -0.11500000
v 0.10506578 -0.06493422 -0.11500000
v 0.00000000 -0.34000000 -0.25000000
v 0.27506578 -0.17000000 -0.06343459
v 0.27506578 -0.51000000 -0.06343459
v 0.17000000 -0.44506578 -0.19843459
v 0.17000000 -0.23493422 -0.19843459
v 0.27506578 -0.17000000 0.10343459
v 0.27506578 -0.51000000 0.10343459
v 0.17000000 -0.44506578 0.23843459
v 0.17000000 -0.23493422 0.23843459
v 0.34000000 -0.34000000 0.02000000
v -0.27506578 -0.17000000 -0.06343459
v -0.27506578 -0.51000000 -0.06343459
v -0.17000000 -0.44506578 -0.19843459
v -0.17000000 -0.23493422 -0.19843459
v -0.27506578 -0.17000000 0.10343459
v -0.27506578 -0.51000000 0.10343459
v -0.17000000 -0.44506578 0.23843459
v -0.17000000 -0.23493422 0.23843459
v -0.34000000 -0.34000000 0.02000000
v -0.09291062 -0.01294096 0.02000000
v 0.09291062 -0.01294096 0.02000000
v -0.09291062 -0.66705904 0.02000000
v 0.09291062 -0.66705904 0.02000000
v -0.14752211 -0.63330728 0.09017082
v -0.05461149 -0.57588536 0.20955254
v -0.05523635 -0.66335922 0.09097370
v 0.14752211 -0.63330728 0.09017082
v 0.05461149 -0.57588536 0.20955254
v 0.05523635 -0.66335922 0.09097370
v 0.00000000 -0.62922127 0.16194740
v -0.14752211 -0.04669272 0.09017082
v -0.05461149 -0.10411464 0.20955254
v -0.05523635 -0.01664078 0.09097370
v 0.14752211 -0.04669272 0.09017082
v 0.05461149 -0.10411464 0.20955254
v 0.05523635 -0.01664078 0.09097370
v 0.00000000 -0.05077873 0.16194740
v 0.00000000 -0.43291062 0.27972336
v 0.00000000 -0.24708938 0.27972336
v -0.14752211 -0.63330728 -0.05017082
v -0.05461149 -0.57588536 -0.16955254
v -0.05523635 -0.66335922 -0.05097370
v 0.14752211 -0.63330728 -0.05017082
v 0.05461149 -0.57588536 -0.16955254
v 0.05523635 -0.66335922 -0.05097370
v 0.00000000 -0.62922127 -0.12194740
v -0.14752211 -0.04669272 -0.05017082
v -0.05461149 -0.10411464 -0.16955254
v -0.05523635 -0.01664078 -0.05097370
v 0.14752211 -0.04669272 -0.05017082
v 0.05461149 -0.10411464 -0.16955254
v 0.05523635 -0.01664078 -0.05097370
v 0.00000000 -0.05077873 -0.12194740
v 0.00000000 -0.43291062 -0.23972336
v 0.00000000 -0.24708938 -0.23972336
v 0.23588536 -0.10130421 -0.02336795
v 0.29330728 -0.25163675 -0.09714991
v 0.19984699 -0.10601507 -0.09483786
v 0.23588536 -0.57869579 -0.02336795
v 0.29330728 -0.42836325 -0.09714991
v 0.19984699 -0.57398493 -0.09483786
v 0.08836325 -0.48752211 -0.21292049
v 0.23869579 -0.39461149 -0.16732073
v 0.14461064 -0.53984699 -0.16581156
v 0.08937429 -0.39523635 -0.23678526
v 0.23398493 -0.48461064 -0.13870202
v 0.08836325 -0.19247789 -0.21292049
v 0.23869579 -0.28538851 -0.16732073
v 0.14461064 -0.14015301 -0.16581156
v 0.08937429 -0.28476365 -0.23678526
v 0.23398493 -0.19538936 -0.13870202
v 0.17874858 -0.34000000 -0.20967572
v 0.23588536 -0.10130421 0.06336795
v 0.29330728 -0.25163675 0.13714991
v 0.19984699 -0.10601507 0.13483786
v 0.28922127 -0.16125142 0.02000000
v 0.23588536 -0.57869579 0.06336795
v 0.29330728 -0.42836325 0.13714991
v 0.19984699 -0.57398493 0.13483786
v 0.28922127 -0.51874858 0.02000000
v 0.08836325 -0.48752211 0.25292049
v 0.23869579 -0.39461149 0.20732073
v 0.14461064 -0.53984699 0.20581156
v 0.08937429 -0.39523635 0.27678526
v 0.23398493 -0.48461064 0.17870202
v 0.08836325 -0.19247789 0.25292049
v 0.23869579 -0.28538851 0.20732073
v 0.14461064 -0.14015301 0.20581156
v 0.08937429 -0.28476365 0.27678526
v 0.23398493 -0.19538936 0.17870202
v 0.17874858 -0.34000000 0.24967572
v 0.32705904 -0.34000000 -0.05378196
v 0.32705904 -0.34000000 0.09378196
v 0.32335922 -0.25062571 -0.02386416
v 0.32335922 -0.42937429 -0.02386416
v 0.32335922 -0.25062571 0.06386416
v 0.32335922 -0.42937429 0.06386416
v -0.23588536 -0.10130421 -0.02336795
v -0.29330728 -0.25163675 -0.09714991
v -0.19984699 -0.10601507 -0.09483786
v -0.23588536 -0.57869579 -0.02336795
v -0.29330728 -0.42836325 -0.09714991
v -0.19984699 -0.57398493 -0.09483786
v -0.08836325 -0.48752211 -0.21292049
v -0.23869579 -0.39461149 -0.16732073
v -0.14461064 -0.53984699 -0.16581156
v -0.08937429 -0.39523635 -0.23678526
v -0.23398493 -0.48461064 -0.13870202
v -0.08836325 -0.19247789 -0.21292049
v -0.23869579 -0.28538851 -0.16732073
v -0.14461064 -0.14015301 -0.16581156
v -0.08937429 -0.28476365 -0.23678526
v -0.23398493 -0.19538936 -0.13870202
v -0.17874858 -0.34000000 -0.20967572
v -0.23588536 -0.10130421 0.06336795
v -0.29330728 -0.25163675 0.13714991
v -0.19984699 -0.10601507 0.13483786
v -0.28922127 -0.16125142 0.02000000
v -0.23588536 -0.57869579 0.06336795
v -0.29330728 -0.42836325 0.13714991
v -0.19984699 -0.57398493 0.13483786
v -0.28922127 -0.51874858 0.02000000
v -0.08836325 -0.48752211 0.25292049
v -0.23869579 -0.39461149 0.20732073
v -0.14461064 -0.53984699 0.20581156
v -0.08937429 -0.39523635 0.27678526
v -0.23398493 -0.48461064 0.17870202
v -0.08836325 -0.19247789 0.25292049
v -0.23869579 -0.28538851 0.20732073
v -0.14461064 -0.14015301 0.20581156
v -0.08937429 -0.28476365 0.27678526
v -0.23398493 -0.19538936 0.17870202
v -0.17874858 -0.34000000 0.24967572
v -0.32705904 -0.34000000 -0.05378196
v -0.32705904 -0.34000000 0.09378196
v -0.32335922 -0.25062571 -0.02386416
v -0.32335922 -0.42937429 -0.02386416
v -0.32335922 -0.25062571 0.06386416
v -0.32335922 -0.42937429 0.06386416
v -0.41000000 -0.30000000 -0.19000000
v -0.41000000 -0.30000000 0.17000000
v -0.41000000 0.38000000 -0.19000000
v -0.41000000 0.38000000 0.17000000
v 0.41000000 -0.30000000 -0.19000000
v 0.41000000 -0.30000000 0.17000000
v 0.41000000 0.38000000 -0.19000000
v 0.41000000 0.38000000 0.17000000
v -0.37000000 0.31500000 -0.20000000
v -0.37000000 0.31500000 0.20000000
v -0.37000000 0.46500000 -0.20000000
v -0.37000000 0.46500000 0.20000000
v 0.37000000 0.31500000 -0.20000000
v 0.37000000 0.31500000 0.20000000
v 0.37000000 0.46500000 -0.20000000
v 0.37000000 0.46500000 0.20000000
v -0.54048963 0.13173588 -0.18500000
v -0.54048963 0.13173588 0.18500000
v -0.57677084 0.38919204 -0.18500000
v -0.57677084 0.38919204 0.18500000
v -0.26322916 0.17080796 -0.18500000
v -0.26322916 0.17080796 0.18500000
v -0.29951037 0.42826412 -0.18500000
v -0.29951037 0.42826412 0.18500000
v 0.26322916 0.17080796 -0.18500000
v 0.26322916 0.17080796 0.18500000
v 0.29951037 0.42826412 -0.18500000
v 0.29951037 0.42826412 0.18500000
v 0.54048963 0.13173588 -0.18500000
v 0.54048963 0.13173588 0.18500000
v 0.57677084 0.38919204 -0.18500000
v 0.57677084 0.38919204 0.18500000
vn -0.54254681 0.84002557 -0.00000000
vn 0.54254681 0.84002557 -0.00000000
vn -0.54254681 -0.84002557 -0.00000000
vn 0.54254681 -0.84002557 -0.00000000
vn 0.00000000 -0.37642921 0.92644538
vn 0.00000000 0.37642921 0.92644538
vn -0.00000000 -0.37642921 -0.92644538
vn 0.00000000 0.37642921 -0.92644538
vn 0.74405156 -0.00000000 -0.66812220
vn 0.74405156 -0.00000000 0.66812220
vn -0.74405156 -0.00000000 -0.66812220
vn -0.74405156 0.00000000 0.66812220
vn -0.00000000 1.00000000 -0.00000000
vn -0.00000000 -1.00000000 -0.00000000
vn -0.27836302 -0.70259224 0.65488791
vn 0.27836302 -0.70259224 0.65488791
vn -0.27836302 0.70259224 0.65488791
vn 0.27836302 0.70259224 0.65488791
vn 0.00000000 0.00000000 1.00000000
vn -0.27836302 -0.70259224 -0.65488791
vn 0.27836302 -0.70259224 -0.65488791
vn -0.27836302 0.70259224 -0.65488791
vn 0.27836302 0.70259224 -0.65488791
vn -0.00000000 0.00000000 -1.00000000
vn 0.77800323 0.46059491 -0.42727428
vn 0.77800323 -0.46059491 -0.42727428
vn 0.38051275 -0.22654991 -0.89659645
vn 0.38051275 0.22654991 -0.89659645
vn 0.77800323 0.46059491 0.42727428
vn 0.77800323 -0.46059491 0.42727428
vn 0.38051275 -0.22654991 0.89659645
vn 0.38051275 0.22654991 0.89659645
vn 1.00000000 0.00000000 0.00000000
vn -0.77800323 0.46059491 -0.42727428
vn -0.77800323 -0.46059491 -0.42727428
vn -0.38051275 -0.22654991 -0.89659645
vn -0.38051275 0.22654991 -0.89659645
vn -0.77800323 0.46059491 0.42727428
vn -0.77800323 -0.46059491 0.42727428
vn -0.38051275 -0.22654991 0.89659645
vn -0.38051275 0.22654991 0.89659645
vn -1.00000000 -0.00000000 0.00000000
vn -0.28808185 0.95760579 -0.00000000
vn 0.28808185 0.95760579 -0.00000000
vn -0.28808185 -0.95760579 -0.00000000
vn 0.28808185 -0.95760579 -0.00000000
vn -0.43016241 -0.82332824 0.37025789
vn -0.12964355 -0.54039101 0.83136641
vn -0.15309534 -0.91009933 0.38507276
vn 0.43016241 -0.82332824 0.37025789
vn 0.12964355 -0.54039101 0.83136641
vn 0.15309534 -0.91009933 0.38507276
vn 0.00000000 -0.74011212 0.67248349
vn -0.43016241 0.82332824 0.37025789
vn -0.12964355 0.54039101 0.83136641
vn -0.15309534 0.91009933 0.38507276
vn 0.43016241 0.82332824 0.37025789
vn 0.12964355 0.54039101 0.83136641
vn 0.15309534 0.91009933 0.38507276
vn 0.00000000 0.74011212 0.67248349
vn -0.00000000 -0.18459354 0.98281495
vn 0.00000000 0.18459354 0.98281495
vn -0.43016241 -0.82332824 -0.37025789
vn -0.12964355 -0.54039101 -0.83136641
vn -0.15309534 -0.91009933 -0.38507276
vn 0.43016241 -0.82332824 -0.37025789
vn 0.12964355 -0.54039101 -0.83136641
vn 0.15309534 -0.91009933 -0.38507276
vn -0.00000000 -0.74011212 -0.67248349
vn -0.43016241 0.82332824 -0.37025789
vn -0.12964355 0.54039101 -0.83136641
vn -0.15309534 0.91009933 -0.38507276
vn 0.43016241 0.82332824 -0.37025789
vn 0.12964355 0.54039101 -0.83136641
vn 0.15309534 0.91009933 -0.38507276
vn 0.00000000 0.74011212 -0.67248349
vn -0.00000000 -0.18459354 -0.98281495
vn -0.00000000 0.18459354 -0.98281495
vn 0.69778869 0.67892149 -0.22837810
vn 0.78647426 0.22555867 -0.57496219
vn 0.54335309 0.60799165 -0.57888995
vn 0.69778869 -0.67892149 -0.22837810
vn 0.78647426 -0.22555867 -0.57496219
vn 0.54335309 -0.60799165 -0.57888995
vn 0.19084493 -0.30882622 -0.93177496
vn 0.56828214 -0.12467195 -0.81333407
vn 0.35580403 -0.46282667 -0.81190823
vn 0.18888448 -0.10363503 -0.97651545
vn 0.58410158 -0.35737656 -0.72877112
vn 0.19084493 0.30882622 -0.93177496
vn 0.56828214 0.12467195 -0.81333407
vn 0.35580403 0.46282667 -0.81190823
vn 0.18888448 0.10363503 -0.97651545
vn 0.58410158 0.35737656 -0.72877112
vn 0.38334178 0.00000000 -0.92360656
vn 0.69778869 0.67892149 0.22837810
vn 0.78647426 0.22555867 0.57496219
vn 0.54335309 0.60799165 0.57888995
vn 0.86566431 0.50062492 -0.00000000
vn 0.69778869 -0.67892149 0.22837810
vn 0.78647426 -0.22555867 0.57496219
vn 0.54335309 -0.60799165 0.57888995
vn 0.86566431 -0.50062492 -0.00000000
vn 0.19084493 -0.30882622 0.93177496
vn 0.56828214 -0.12467195 0.81333407
vn 0.35580403 -0.46282667 0.81190823
vn 0.18888448 -0.10363503 0.97651545
vn 0.58410158 -0.35737656 0.72877112
vn 0.19084493 0.30882622 0.93177496
vn 0.56828214 0.12467195 0.81333407
vn 0.35580403 0.46282667 0.81190823
vn 0.18888448 0.10363503 0.97651545
vn 0.58410158 0.35737656 0.72877112
vn 0.38334178 0.00000000 0.92360656
vn 0.92459290 0.00000000 -0.38095664
vn 0.92459290 0.00000000 0.38095664
vn 0.94222459 0.25403988 -0.21834963
vn 0.94222459 -0.25403988 -0.21834963
vn 0.94222459 0.25403988 0.21834963
vn 0.94222459 -0.25403988 0.21834963
vn -0.69778869 0.67892149 -0.22837810
vn -0.78647426 0.22555867 -0.57496219
vn -0.54335309 0.60799165 -0.57888995
vn -0.69778869 -0.67892149 -0.22837810
vn -0.78647426 -0.22555867 -0.57496219
vn -0.54335309 -0.60799165 -0.57888995
vn -0.19084493 -0.30882622 -0.93177496
vn -0.56828214 -0.12467195 -0.81333407
vn -0.35580403 -0.46282667 -0.81190823
vn -0.18888448 -0.10363503 -0.97651545
vn -0.58410158 -0.35737656 -0.72877112
vn -0.19084493 0.30882622 -0.93177496
vn -0.56828214 0.12467195 -0.81333407
vn -0.35580403 0.46282667 -0.81190823
vn -0.18888448 0.10363503 -0.97651545
vn -0.58410158 0.35737656 -0.72877112
vn -0.38334178 -0.00000000 -0.92360656
vn -0.69778869 0.67892149 0.22837810
vn -0.78647426 0.22555867 0.57496219
vn -0.54335309 0.60799165 0.57888995
vn -0.86566431 0.50062492 -0.00000000
vn -0.69778869 -0.67892149 0.22837810
vn -0.78647426 -0.22555867 0.57496219
vn -0.54335309 -0.60799165 0.57888995
vn -0.86566431 -0.50062492 -0.00000000
vn -0.19084493 -0.30882622 0.93177496
vn -0.56828214 -0.12467195 0.81333407
vn -0.35580403 -0.46282667 0.81190823
vn -0.18888448 -0.10363503 0.97651545
vn -0.58410158 -0.35737656 0.72877112
vn -0.19084493 0.30882622 0.93177496
vn -0.56828214 0.12467195 0.81333407
vn -0.35580403 0.46282667 0.81190823
vn -0.18888448 0.10363503 0.97651545
vn -0.58410158 0.35737656 0.72877112
vn -0.38334178 -0.00000000 0.92360656
vn -0.92459290 -0.00000000 -0.38095664
vn -0.92459290 -0.00000000 0.38095664
vn -0.94222459 0.25403988 -0.21834963
vn -0.94222459 -0.25403988 -0.21834963
vn -0.94222459 0.25403988 0.21834963
vn -0.94222459 -0.25403988 0.21834963
vn -0.52617508 0.85037626 -0.00000000
vn 0.52617508 0.85037626 0.00000000
vn -0.52617508 -0.85037626 0.00000000
vn 0.52617508 -0.85037626 0.00000000
vn -0.00000000 -0.44433683 0.89585980
vn 0.00000000 0.44433683 0.89585980
vn 0.00000000 -0.44433683 -0.89585980
vn 0.00000000 0.44433683 -0.89585980
vn 0.79279488 0.00000000 -0.60948854
vn 0.79279488 -0.00000000 0.60948854
vn -0.79279488 -0.00000000 -0.60948854
vn -0.79279488 0.00000000 0.60948854
vn 0.00000000 1.00000000 -0.00000000
vn -0.00000000 -1.00000000 -0.00000000
vn -0.28938856 -0.75906382 0.58316069
vn 0.28938856 -0.75906382 0.58316069
vn -0.28938856 0.75906382 0.58316069
vn 0.28938856 0.75906382 0.58316069
vn 0.00000000 0.00000000 1.00000000
vn -0.28938856 -0.75906382 -0.58316069
vn 0.28938856 -0.75906382 -0.58316069
vn -0.28938856 0.75906382 -0.58316069
vn 0.28938856 0.75906382 -0.58316069
vn 0.00000000 0.00000000 -1.00000000
vn 0.78934642 0.48724793 -0.37352602
vn 0.78934642 -0.48724793 -0.37352602
vn 0.42876523 -0.26565120 -0.86347543
vn 0.42876523 0.26565120 -0.86347543
vn 0.78934642 0.48724793 0.37352602
vn 0.78934642 -0.48724793 0.37352602
vn 0.42876523 -0.26565120 0.86347543
vn 0.42876523 0.26565120 0.86347543
vn 1.00000000 -0.00000000 0.00000000
vn -0.78934642 0.48724793 -0.37352602
vn -0.78934642 -0.48724793 -0.37352602
vn -0.42876523 -0.26565120 -0.86347543
vn -0.42876523 0.26565120 -0.86347543
vn -0.78934642 0.48724793 0.37352602
vn -0.78934642 -0.48724793 0.37352602
vn -0.42876523 -0.26565120 0.86347543
vn -0.42876523 0.26565120 0.86347543
vn -1.00000000 0.00000000 0.00000000
vn -0.27642223 0.96103629 0.00000000
vn 0.27642223 0.96103629 0.00000000
vn -0.27642223 -0.96103629 -0.00000000
vn 0.27642223 -0.96103629 -0.00000000
vn -0.42624106 -0.84788497 0.31529295
vn -0.14157042 -0.61432878 0.77624607
vn -0.15077915 -0.93291673 0.32700462
vn 0.42624106 -0.84788497 0.31529295
vn 0.14157042 -0.61432878 0.77624607
vn 0.15077915 -0.93291673 0.32700462
vn -0.00000000 -0.80004397 0.59994136
vn -0.42624106 0.84788497 0.31529295
vn -0.14157042 0.61432878 0.77624607
vn -0.15077915 0.93291673 0.32700462
vn 0.42624106 0.84788497 0.31529295
vn 0.14157042 0.61432878 0.77624607
vn 0.15077915 0.93291673 0.32700462
vn 0.00000000 0.80004397 0.59994136
vn 0.00000000 -0.22365577 0.97466820
vn -0.00000000 0.22365577 0.97466820
vn -0.42624106 -0.84788497 -0.31529295
vn -0.14157042 -0.61432878 -0.77624607
vn -0.15077915 -0.93291673 -0.32700462
vn 0.42624106 -0.84788497 -0.31529295
vn 0.14157042 -0.61432878 -0.77624607
vn 0.15077915 -0.93291673 -0.32700462
vn 0.00000000 -0.80004397 -0.59994136
vn -0.42624106 0.84788497 -0.31529295
vn -0.14157042 0.61432878 -0.77624607
vn -0.15077915 0.93291673 -0.32700462
vn 0.42624106 0.84788497 -0.31529295
vn 0.14157042 0.61432878 -0.77624607
vn 0.15077915 0.93291673 -0.32700462
vn -0.00000000 0.80004397 -0.59994136
vn 0.00000000 -0.22365577 -0.97466820
vn 0.00000000 0.22365577 -0.97466820
vn 0.68853556 0.69839861 -0.19534115
vn 0.82141988 0.24542962 -0.51481421
vn 0.55965750 0.65104086 -0.51276630
vn 0.68853556 -0.69839861 -0.19534115
vn 0.82141988 -0.24542962 -0.51481421
vn 0.55965750 -0.65104086 -0.51276630
vn 0.21706413 -0.36613358 -0.90489191
vn 0.62596099 -0.14252930 -0.76671914
vn 0.38769489 -0.52514800 -0.75756996
vn 0.21919262 -0.12542801 -0.96758587
vn 0.62628615 -0.39876948 -0.66988697
vn 0.21706413 0.36613358 -0.90489191
vn 0.62596099 0.14252930 -0.76671914
vn 0.38769489 0.52514800 -0.75756996
vn 0.21919262 0.12542801 -0.96758587
vn 0.62628615 0.39876948 -0.66988697
vn 0.43672008 0.00000000 -0.89959745
vn 0.68853556 0.69839861 0.19534115
vn 0.82141988 0.24542962 0.51481421
vn 0.55965750 0.65104086 0.51276630
vn 0.85644409 0.51623979 0.00000000
vn 0.68853556 -0.69839861 0.19534115
vn 0.82141988 -0.24542962 0.51481421
vn 0.55965750 -0.65104086 0.51276630
vn 0.85644409 -0.51623979 0.00000000
vn 0.21706413 -0.36613358 0.90489191
vn 0.62596099 -0.14252930 0.76671914
vn 0.38769489 -0.52514800 0.75756996
vn 0.21919262 -0.12542801 0.96758587
vn 0.62628615 -0.39876948 0.66988697
vn 0.21706413 0.36613358 0.90489191
vn 0.62596099 0.14252930 0.76671914
vn 0.38769489 0.52514800 0.75756996
vn 0.21919262 0.12542801 0.96758587
vn 0.62628615 0.39876948 0.66988697
vn 0.43672008 0.00000000 0.89959745
vn 0.94249293 0.00000000 -0.33422609
vn 0.94249293 0.00000000 0.33422609
vn 0.94525934 0.26597577 -0.18905467
vn 0.94525934 -0.26597577 -0.18905467
vn 0.94525934 0.26597577 0.18905467
vn 0.94525934 -0.26597577 0.18905467
vn -0.68853556 0.69839861 -0.19534115
vn -0.82141988 0.24542962 -0.51481421
vn -0.55965750 0.65104086 -0.51276630
vn -0.68853556 -0.69839861 -0.19534115
vn -0.82141988 -0.24542962 -0.51481421
vn -0.55965750 -0.65104086 -0.51276630
vn -0.21706413 -0.36613358 -0.90489191
vn -0.62596099 -0.14252930 -0.76671914
vn -0.38769489 -0.52514800 -0.75756996
vn -0.21919262 -0.12542801 -0.96758587
vn -0.62628615 -0.39876948 -0.66988697
vn -0.21706413 0.36613358 -0.90489191
vn -0.62596099 0.14252930 -0.76671914
vn -0.38769489 0.52514800 -0.75756996
vn -0.21919262 0.12542801 -0.96758587
vn -0.62628615 0.39876948 -0.66988697
vn -0.43672008 -0.00000000 -0.89959745
vn -0.68853556 0.69839861 0.19534115
vn -0.82141988 0.24542962 0.51481421
vn -0.55965750 0.65104086 0.51276630
vn -0.85644409 0.51623979 0.00000000
vn -0.68853556 -0.69839861 0.19534115
vn -0.82141988 -0.24542962 0.51481421
vn -0.55965750 -0.65104086 0.51276630
vn -0.85644409 -0.51623979 -0.00000000
vn -0.21706413 -0.36613358 0.90489191
vn -0.62596099 -0.14252930 0.76671914
vn -0.38769489 -0.52514800 0.75756996
vn -0.21919262 -0.12542801 0.96758587
vn -0.62628615 -0.39876948 0.66988697
vn -0.21706413 0.36613358 0.90489191
vn -0.62596099 0.14252930 0.76671914
vn -0.38769489 0.52514800 0.75756996
vn -0.21919262 0.12542801 0.96758587
vn -0.62628615 0.39876948 0.66988697
vn -0.43672008 -0.00000000 0.89959745
vn -0.94249293 -0.00000000 -0.33422609
vn -0.94249293 0.00000000 0.33422609
vn -0.94525934 0.26597577 -0.18905467
vn -0.94525934 -0.26597577 -0.18905467
vn -0.94525934 0.26597577 0.18905467
vn -0.94525934 -0.26597577 0.18905467
vn -0.57735027 -0.57735027 -0.57735027
vn -0.57735027 -0.57735027 0.57735027
vn -0.57735027 0.57735027 -0.57735027
vn -0.57735027 0.57735027 0.57735027
vn 0.57735027 -0.57735027 -0.57735027
vn 0.57735027 -0.57735027 0.57735027
vn 0.57735027 0.57735027 -0.57735027
vn 0.57735027 0.57735027 0.57735027
vn -0.57735027 -0.57735027 -0.57735027
vn -0.57735027 -0.57735027 0.57735027
vn -0.57735027 0.57735027 -0.57735027
vn -0.57735027 0.57735027 0.57735027
vn 0.57735027 -0.57735027 -0.57735027
vn 0.57735027 -0.57735027 0.57735027
vn 0.57735027 0.57735027 -0.57735027
vn 0.57735027 0.57735027 0.57735027
vn -0.49113622 -0.65226673 -0.57735027
vn -0.49113622 -0.65226673 0.57735027
vn -0.65226673 0.49113622 -0.57735027
vn -0.65226673 0.49113622 0.57735027
vn 0.65226673 -0.49113622 -0.57735027
vn 0.65226673 -0.49113622 0.57735027
vn 0.49113622 0.65226673 -0.57735027
vn 0.49113622 0.65226673 0.57735027
vn -0.65226673 -0.49113622 -0.57735027
vn -0.65226673 -0.49113622 0.57735027
vn -0.49113622 0.65226673 -0.57735027
vn -0.49113622 0.65226673 0.57735027
vn 0.49113622 -0.65226673 -0.57735027
vn 0.49113622 -0.65226673 0.57735027
vn 0.65226673 0.49113622 -0.57735027
vn 0.65226673 0.49113622 0.57735027
f 1//1 138//138 54//54
f 138//138 38//38 140//140
f 54//54 140//140 17//17
f 138//138 140//140 54//54
f 38//38 139//139 155//155
f 139//139 12//12 152//152
f 155//155 152//152 41//41
f 139//139 152//152 155//155
f 17//17 153//153 55//55
f 153//153 41//41 151//151
f 55//55 151//151 6//6
f 153//153 151//151 55//55
f 38//38 155//155 140//140
f 155//155 41//41 153//153
f 140//140 153//153 17//17
f 155//155 153//153 140//140
f 1//1 54//54 43//43
f 54//54 17//17 56//56
f 43//43 56//56 13//13
f 54//54 56//56 43//43
f 17//17 55//55 60//60
f 55//55 6//6 58//58
f 60//60 58//58 18//18
f 55//55 58//58 60//60
f 13//13 59//59 44//44
f 59//59 18//18 57//57
f 44//44 57//57 2//2
f 59//59 57//57 44//44
f 17//17 60//60 56//56
f 60//60 18//18 59//59
f 56//56 59//59 13//13
f 60//60 59//59 56//56
f 1//1 43//43 70//70
f 43//43 13//13 72//72
f 70//70 72//72 22//22
f 43//43 72//72 70//70
f 13//13 44//44 75//75
f 44//44 2//2 73//73
f 75//75 73//73 23//23
f 44//44 73//73 75//75
f 22//22 76//76 71//71
f 76//76 23//23 74//74
f 71//71 74//74 8//8
f 76//76 74//74 71//71
f 13//13 75//75 72//72
f 75//75 23//23 76//76
f 72//72 76//76 22//22
f 75//75 76//76 72//72
f 1//1 70//70 121//121
f 70//70 22//22 123//123
f 121//121 123//123 34//34
f 70//70 123//123 121//121
f 22//22 71//71 134//134
f 71//71 8//8 132//132
f 134//134 132//132 37//37
f 71//71 132//132 134//134
f 34//34 136//136 122//122
f 136//136 37//37 133//133
f 122//122 133//133 11//11
f 136//136 133//133 122//122
f 22//22 134//134 123//123
f 134//134 37//37 136//136
f 123//123 136//136 34//34
f 134//134 136//136 123//123
f 1//1 121//121 138//138
f 121//121 34//34 141//141
f 138//138 141//141 38//38
f 121//121 141//141 138//138
f 34//34 122//122 159//159
f 122//122 11//11 157//157
f 159//159 157//157 42//42
f 122//122 157//157 159//159
f 38//38 161//161 139//139
f 161//161 42//42 158//158
f 139//139 158//158 12//12
f 161//161 158//158 139//139
f 34//34 159//159 141//141
f 159//159 42//42 161//161
f 141//141 161//161 38//38
f 159//159 161//161 141//141
f 2//2 57//57 96//96
f 57//57 18//18 98//98
f 96//96 98//98 29//29
f 57//57 98//98 96//96
f 18//18 58//58 111//111
f 58//58 6//6 109//109
f 111//111 109//109 32//32
f 58//58 109//109 111//111
f 29//29 113//113 97//97
f 113//113 32//32 110//110
f 97//97 110//110 10//10
f 113//113 110//110 97//97
f 18//18 111//111 98//98
f 111//111 32//32 113//113
f 98//98 113//113 29//29
f 111//111 113//113 98//98
f 6//6 151//151 62//62
f 151//151 41//41 154//154
f 62//62 154//154 19//19
f 151//151 154//154 62//62
f 41//41 152//152 156//156
f 152//152 12//12 147//147
f 156//156 147//147 40//40
f 152//152 147//147 156//156
f 19//19 149//149 61//61
f 149//149 40//40 146//146
f 61//61 146//146 5//5
f 149//149 146//146 61//61
f 41//41 156//156 154//154
f 156//156 40//40 149//149
f 154//154 149//149 19//19
f 156//156 149//149 154//154
f 12//12 158//158 143//143
f 158//158 42//42 162//162
f 143//143 162//162 39//39
f 158//158 162//162 143//143
f 42//42 157//157 160//160
f 157//157 11//11 125//125
f 160//160 125//125 35//35
f 157//157 125//125 160//160
f 39//39 145//145 142//142
f 145//145 35//35 124//124
f 142//142 124//124 3//3
f 145//145 124//124 142//142
f 42//42 160//160 162//162
f 160//160 35//35 145//145
f 162//162 145//145 39//39
f 160//160 145//145 162//162
f 11//11 133//133 128//128
f 133//133 37//37 137//137
f 128//128 137//137 36//36
f 133//133 137//137 128//128
f 37//37 132//132 135//135
f 132//132 8//8 78//78
f 135//135 78//78 24//24
f 132//132 78//78 135//135
f 36//36 130//130 127//127
f 130//130 24//24 77//77
f 127//127 77//77 7//7
f 130//130 77//77 127//127
f 37//37 135//135 137//137
f 135//135 24//24 130//130
f 137//137 130//130 36//36
f 135//135 130//130 137//137
f 8//8 74//74 90//90
f 74//74 23//23 92//92
f 90//90 92//92 28//28
f 74//74 92//92 90//90
f 23//23 73//73 81//81
f 73//73 2//2 79//79
f 81//81 79//79 25//25
f 73//73 79//79 81//81
f 28//28 94//94 91//91
f 94//94 25//25 80//80
f 91//91 80//80 9//9
f 94//94 80//80 91//91
f 23//23 81//81 92//92
f 81//81 25//25 94//94
f 92//92 94//94 28//28
f 81//81 94//94 92//92
f 4//4 100//100 50//50
f 100//100 30//30 102//102
f 50//50 102//102 16//16
f 100//100 102//102 50//50
f 30//30 101//101 108//108
f 101//101 10//10 105//105
f 108//108 105//105 31//31
f 101//101 105//105 108//108
f 16//16 106//106 51//51
f 106//106 31//31 104//104
f 51//51 104//104 5//5
f 106//106 104//104 51//51
f 30//30 108//108 102//102
f 108//108 31//31 106//106
f 102//102 106//106 16//16
f 108//108 106//106 102//102
f 4//4 50//50 46//46
f 50//50 16//16 52//52
f 46//46 52//52 14//14
f 50//50 52//52 46//46
f 16//16 51//51 53//53
f 51//51 5//5 48//48
f 53//53 48//48 15//15
f 51//51 48//48 53//53
f 14//14 49//49 45//45
f 49//49 15//15 47//47
f 45//45 47//47 3//3
f 49//49 47//47 45//45
f 16//16 53//53 52//52
f 53//53 15//15 49//49
f 52//52 49//49 14//14
f 53//53 49//49 52//52
f 4//4 46//46 66//66
f 46//46 14//14 68//68
f 66//66 68//68 21//21
f 46//46 68//68 66//66
f 14//14 45//45 65//65
f 45//45 3//3 63//63
f 65//65 63//63 20//20
f 45//45 63//63 65//65
f 21//21 69//69 67//67
f 69//69 20//20 64//64
f 67//67 64//64 7//7
f 69//69 64//64 67//67
f 14//14 65//65 68//68
f 65//65 20//20 69//69
f 68//68 69//69 21//21
f 65//65 69//69 68//68
f 4//4 66//66 82//82
f 66//66 21//21 84//84
f 82//82 84//84 26//26
f 66//66 84//84 82//82
f 21//21 67//67 87//87
f 67//67 7//7 85//85
f 87//87 85//85 27//27
f 67//67 85//85 87//87
f 26//26 89//89 83//83
f 89//89 27//27 86//86
f 83//83 86//86 9//9
f 89//89 86//86 83//83
f 21//21 87//87 84//84
f 87//87 27//27 89//89
f 84//84 89//89 26//26
f 87//87 89//89 84//84
f 4//4 82//82 100//100
f 82//82 26//26 103//103
f 100//100 103//103 30//30
f 82//82 103//103 100//100
f 26//26 83//83 118//118
f 83//83 9//9 115//115
f 118//118 115//115 33//33
f 83//83 115//115 118//118
f 30//30 120//120 101//101
f 120//120 33//33 116//116
f 101//101 116//116 10//10
f 120//120 116//116 101//101
f 26//26 118//118 103//103
f 118//118 33//33 120//120
f 103//103 120//120 30//30
f 118//118 120//120 103//103
f 5//5 104//104 61//61
f 104//104 31//31 107//107
f 61//61 107//107 19//19
f 104//104 107//107 61//61
f 31//31 105//105 114//114
f 105//105 10//10 110//110
f 114//114 110//110 32//32
f 105//105 110//110 114//114
f 19//19 112//112 62//62
f 112//112 32//32 109//109
f 62//62 109//109 6//6
f 112//112 109//109 62//62
f 31//31 114//114 107//107
f 114//114 32//32 112//112
f 107//107 112//112 19//19
f 114//114 112//112 107//107
f 3//3 47//47 142//142
f 47//47 15//15 144//144
f 142//142 144//144 39//39
f 47//47 144//144 142//142
f 15//15 48//48 148//148
f 48//48 5//5 146//146
f 148//148 146//146 40//40
f 48//48 146//146 148//148
f 39//39 150//150 143//143
f 150//150 40//40 147//147
f 143//143 147//147 12//12
f 150//150 147//147 143//143
f 15//15 148//148 144//144
f 148//148 40//40 150//150
f 144//144 150//150 39//39
f 148//148 150//150 144//144
f 7//7 64//64 127//127
f 64//64 20//20 129//129
f 127//127 129//129 36//36
f 64//64 129//129 127//127
f 20//20 63//63 126//126
f 63//63 3//3 124//124
f 126//126 124//124 35//35
f 63//63 124//124 126//126
f 36//36 131//131 128//128
f 131//131 35//35 125//125
f 128//128 125//125 11//11
f 131//131 125//125 128//128
f 20//20 126//126 129//129
f 126//126 35//35 131//131
f 129//129 131//131 36//36
f 126//126 131//131 129//129
f 9//9 86//86 91//91
f 86//86 27//27 95//95
f 91//91 95//95 28//28
f 86//86 95//95 91//91
f 27//27 85//85 88//88
f 85//85 7//7 77//77
f 88//88 77//77 24//24
f 85//85 77//77 88//88
f 28//28 93//93 90//90
f 93//93 24//24 78//78
f 90//90 78//78 8//8
f 93//93 78//78 90//90
f 27//27 88//88 95//95
f 88//88 24//24 93//93
f 95//95 93//93 28//28
f 88//88 93//93 95//95
f 10//10 116//116 97//97
f 116//116 33//33 119//119
f 97//97 119//119 29//29
f 116//116 119//119 97//97
f 33//33 115//115 117//117
f 115//115 9//9 80//80
f 117//117 80//80 25//25
f 115//115 80//80 117//117
f 29//29 99//99 96//96
f 99//99 25//25 79//79
f 96//96 79//79 2//2
f 99//99 79//79 96//96
f 33//33 117//117 119//119
f 117//117 25//25 99//99
f 119//119 99//99 29//29
f 117//117 99//99 119//119
f 163//163 300//300 216//216
f 300//300 200//200 302//302
f 216//216 302//302 179//179
f 300//300 302//302 216//216
f 200//200 301//301 317//317
f 301//301 174//174 314//314
f 317//317 314//314 203//203
f 301//301 314//314 317//317
f 179//179 315//315 217//217
f 315//315 203//203 313//313
f 217//217 313//313 168//168
f 315//315 313//313 217//217
f 200//200 317//317 302//302
f 317//317 203//203 315//315
f 302//302 315//315 179//179
f 317//317 315//315 302//302
f 163//163 216//216 205//205
f 216//216 179//179 218//218
f 205//205 218//218 175//175
f 216//216 218//218 205//205
f 179//179 217//217 222//222
f 217//217 168//168 220//220
f 222//222 220//220 180//180
f 217//217 220//220 222//222
f 175//175 221//221 206//206
f 221//221 180//180 219//219
f 206//206 219//219 164//164
f 221//221 219//219 206//206
f 179//179 222//222 218//218
f 222//222 180//180 221//221
f 218//218 221//221 175//175
f 222//222 221//221 218//218
f 163//163 205//205 232//232
f 205//205 175//175 234//234
f 232//232 234//234 184//184
f 205//205 234//234 232//232
f 175//175 206//206 237//237
f 206//206 164//164 235//235
f 237//237 235//235 185//185
f 206//206 235//235 237//237
f 184//184 238//238 233//233
f 238//238 185//185 236//236
f 233//233 236//236 170//170
f 238//238 236//236 233//233
f 175//175 237//237 234//234
f 237//237 185//185 238//238
f 234//234 238//238 184//184
f 237//237 238//238 234//234
f 163//163 232//232 283//283
f 232//232 184//184 285//285
f 283//283 285//285 196//196
f 232//232 285//285 283//283
f 184//184 233//233 296//296
f 233//233 170//170 294//294
f 296//296 294//294 199//199
f 233//233 294//294 296//296
f 196//196 298//298 284//284
f 298//298 199//199 295//295
f 284//284 295//295 173//173
f 298//298 295//295 284//284
f 184//184 296//296 285//285
f 296//296 199//199 298//298
f 285//285 298//298 196//196
f 296//296 298//298 285//285
f 163//163 283//283 300//300
f 283//283 196//196 303//303
f 300//300 303//303 200//200
f 283//283 303//303 300//300
f 196//196 284//284 321//321
f 284//284 173//173 319//319
f 321//321 319//319 204//204
f 284//284 319//319 321//321
f 200//200 323//323 301//301
f 323//323 204//204 320//320
f 301//301 320//320 174//174
f 323//323 320//320 301//301
f 196//196 321//321 303//303
f 321//321 204//204 323//323
f 303//303 323//323 200//200
f 321//321 323//323 303//303
f 164//164 219//219 258//258
f 219//219 180//180 260//260
f 258//258 260//260 191//191
f 219//219 260//260 258//258
f 180//180 220//220 273//273
f 220//220 168//168 271//271
f 273//273 271//271 194//194
f 220//220 271//271 273//273
f 191//191 275//275 259//259
f 275//275 194//194 272//272
f 259//259 272//272 172//172
f 275//275 272//272 259//259
f 180//180 273//273 260//260
f 273//273 194//194 275//275
f 260//260 275//275 191//191
f 273//273 275//275 260//260
f 168//168 313//313 224//224
f 313//313 203//203 316//316
f 224//224 316//316 181//181
f 313//313 316//316 224//224
f 203//203 314//314 318//318
f 314//314 174//174 309//309
f 318//318 309//309 202//202
f 314//314 309//309 318//318
f 181//181 311//311 223//223
f 311//311 202//202 308//308
f 223//223 308//308 167//167
f 311//311 308//308 223//223
f 203//203 318//318 316//316
f 318//318 202//202 311//311
f 316//316 311//311 181//181
f 318//318 311//311 316//316
f 174//174 320//320 305//305
f 320//320 204//204 324//324
f 305//305 324//324 201//201
f 320//320 324//324 305//305
f 204//204 319//319 322//322
f 319//319 173//173 287//287
f 322//322 287//287 197//197
f 319//319 287//287 322//322
f 201//201 307//307 304//304
f 307//307 197//197 286//286
f 304//304 286//286 165//165
f 307//307 286//286 304//304
f 204//204 322//322 324//324
f 322//322 197//197 307//307
f 324//324 307//307 201//201
f 322//322 307//307 324//324
f 173//173 295//295 290//290
f 295//295 199//199 299//299
f 290//290 299//299 198//198
f 295//295 299//299 290//290
f 199//199 294//294 297//297
f 294//294 170//170 240//240
f 297//297 240//240 186//186
f 294//294 240//240 297//297
f 198//198 292//292 289//289
f 292//292 186//186 239//239
f 289//289 239//239 169//169
f 292//292 239//239 289//289
f 199//199 297//297 299//299
f 297//297 186//186 292//292
f 299//299 292//292 198//198
f 297//297 292//292 299//299
f 170//170 236//236 252//252
f 236//236 185//185 254//254
f 252//252 254//254 190//190
f 236//236 254//254 252//252
f 185//185 235//235 243//243
f 235//235 164//164 241//241
f 243//243 241//241 187//187
f 235//235 241//241 243//243
f 190//190 256//256 253//253
f 256//256 187//187 242//242
f 253//253 242//242 171//171
f 256//256 242//242 253//253
f 185//185 243//243 254//254
f 243//243 187//187 256//256
f 254//254 256//256 190//190
f 243//243 256//256 254//254
f 166//166 262//262 212//212
f 262//262 192//192 264//264
f 212//212 264//264 178//178
f 262//262 264//264 212//212
f 192//192 263//263 270//270
f 263//263 172//172 267//267
f 270//270 267//267 193//193
f 263//263 267//267 270//270
f 178//178 268//268 213//213
f 268//268 193//193 266//266
f 213//213 266//266 167//167
f 268//268 266//266 213//213
f 192//192 270//270 264//264
f 270//270 193//193 268//268
f 264//264 268//268 178//178
f 270//270 268//268 264//264
f 166//166 212//212 208//208
f 212//212 178//178 214//214
f 208//208 214//214 176//176
f 212//212 214//214 208//208
f 178//178 213//213 215//215
f 213//213 167//167 210//210
f 215//215 210//210 177//177
f 213//213 210//210 215//215
f 176//176 211//211 207//207
f 211//211 177//177 209//209
f 207//207 209//209 165//165
f 211//211 209//209 207//207
f 178//178 215//215 214//214
f 215//215 177//177 211//211
f 214//214 211//211 176//176
f 215//215 211//211 214//214
f 166//166 208//208 228//228
f 208//208 176//176 230//230
f 228//228 230//230 183//183
f 208//208 230//230 228//228
f 176//176 207//207 227//227
f 207//207 165//165 225//225
f 227//227 225//225 182//182
f 207//207 225//225 227//227
f 183//183 231//231 229//229
f 231//231 182//182 226//226
f 229//229 226//226 169//169
f 231//231 226//226 229//229
f 176//176 227//227 230//230
f 227//227 182//182 231//231
f 230//230 231//231 183//183
f 227//227 231//231 230//230
f 166//166 228//228 244//244
f 228//228 183//183 246//246
f 244//244 246//246 188//188
f 228//228 246//246 244//244
f 183//183 229//229 249//249
f 229//229 169//169 247//247
f 249//249 247//247 189//189
f 229//229 247//247 249//249
f 188//188 251//251 245//245
f 251//251 189//189 248//248
f 245//245 248//248 171//171
f 251//251 248//248 245//245
f 183//183 249//249 246//246
f 249//249 189//189 251//251
f 246//246 251//251 188//188
f 249//249 251//251 246//246
f 166//166 244//244 262//262
f 244//244 188//188 265//265
f 262//262 265//265 192//192
f 244//244 265//265 262//262
f 188//188 245//245 280//280
f 245//245 171//171 277//277
f 280//280 277//277 195//195
f 245//245 277//277 280//280
f 192//192 282//282 263//263
f 282//282 195//195 278//278
f 263//263 278//278 172//172
f 282//282 278//278 263//263
f 188//188 280//280 265//265
f 280//280 195//195 282//282
f 265//265 282//282 192//192
f 280//280 282//282 265//265
f 167//167 266//266 223//223
f 266//266 193//193 269//269
f 223//223 269//269 181//181
f 266//266 269//269 223//223
f 193//193 267//267 276//276
f 267//267 172//172 272//272
f 276//276 272//272 194//194
f 267//267 272//272 276//276
f 181//181 274//274 224//224
f 274//274 194//194 271//271
f 224//224 271//271 168//168
f 274//274 271//271 224//224
f 193//193 276//276 269//269
f 276//276 194//194 274//274
f 269//269 274//274 181//181
f 276//276 274//274 269//269
f 165//165 209//209 304//304
f 209//209 177//177 306//306
f 304//304 306//306 201//201
f 209//209 306//306 304//304
f 177//177 210//210 310//310
f 210//210 167//167 308//308
f 310//310 308//308 202//202
f 210//210 308//308 310//310
f 201//201 312//312 305//305
f 312//312 202//202 309//309
f 305//305 309//309 174//174
f 312//312 309//309 305//305
f 177//177 310//310 306//306
f 310//310 202//202 312//312
f 306//306 312//312 201//201
f 310//310 312//312 306//306
f 169//169 226//226 289//289
f 226//226 182//182 291//291
f 289//289 291//291 198//198
f 226//226 291//291 289//289
f 182//182 225//225 288//288
f 225//225 165//165 286//286
f 288//288 286//286 197//197
f 225//225 286//286 288//288
f 198//198 293//293 290//290
f 293//293 197//197 287//287
f 290//290 287//287 173//173
f 293//293 287//287 290//290
f 182//182 288//288 291//291
f 288//288 197//197 293//293
f 291//291 293//293 198//198
f 288//288 293//293 291//291
f 171//171 248//248 253//253
f 248//248 189//189 257//257
f 253//253 257//257 190//190
f 248//248 257//257 253//253
f 189//189 247//247 250//250
f 247//247 169//169 239//239
f 250//250 239//239 186//186
f 247//247 239//239 250//250
f 190//190 255//255 252//252
f 255//255 186//186 240//240
f 252//252 240//240 170//170
f 255//255 240//240 252//252
f 189//189 250//250 257//257
f 250//250 186//186 255//255
f 257//257 255//255 190//190
f 250//250 255//255 257//257
f 172//172 278//278 259//259
f 278//278 195//195 281//281
f 259//259 281//281 191//191
f 278//278 281//281 259//259
f 195//195 277//277 279//279
f 277//277 171//171 242//242
f 279//279 242//242 187//187
f 277//277 242//242 279//279
f 191//191 261//261 258//258
f 261//261 187//187 241//241
f 258//258 241//241 164//164
f 261//261 241//241 258//258
f 195//195 279//279 281//281
f 279//279 187//187 261//261
f 281//281 261//261 191//191
f 279//279 261//261 281//281
f 326//326 328//328 325//325
f 329//329 326//326 325//325
f 325//325 328//328 327//327
f 327//327 329//329 325//325
f 326//326 332//332 328//328
f 330//330 326//326 329//329
f 330//330 332//332 326//326
f 328//328 332//332 327//327
f 331//331 329//329 327//327
f 327//327 332//332 331//331
f 331//331 330//330 329//329
f 332//332 330//330 331//331
f 334//334 336//336 333//333
f 337//337 334//334 333//333
f 333//333 336//336 335//335
f 335//335 337//337 333//333
f 334//334 340//340 336//336
f 338//338 334//334 337//337
f 338//338 340//340 334//334
f 336//336 340//340 335//335
f 339//339 337//337 335//335
f 335//335 340//340 339//339
f 339//339 338//338 337//337
f 340//340 338//338 339//339
f 342//342 344//344 341//341
f 345//345 342//342 341//341
f 341//341 344//344 343//343
f 343//343 345//345 341//341
f 342//342 348//348 344//344
f 346//346 342//342 345//345
f 346//346 348//348 342//342
f 344//344 348//348 343//343
f 347//347 345//345 343//343
f 343//343 348//348 347//347
f 347//347 346//346 345//345
f 348//348 346//346 347//347
f 350//350 352//352 349//349
f 353//353 350//350 349//349
f 349//349 352//352 351//351
f 351//351 353//353 349//349
f 350//350 356//356 352//352
f 354//354 350//350 353//353
f 354//354 356//356 350//350
f 352//352 356//356 351//351
f 355//355 353//353 351//351
f 351//351 356//356 355//355
f 355//355 354//354 353//353
f 356//356 354//354 355//355

