# https://github.com/mikedh/trimesh
v -0.06045908 0.08931833 0.00000000
v 0.06045908 0.08931833 0.00000000
v -0.06045908 -0.08931833 0.00000000
v 0.06045908 -0.08931833 0.00000000
v 0.00000000 -0.05520177 0.08506508
v 0.00000000 0.05520177 0.08506508
v 0.00000000 -0.05520177 -0.08506508
v 0.00000000 0.05520177 -0.08506508
v 0.09782484 0.00000000 -0.05257311
v 0.09782484 0.00000000 0.05257311
v -0.09782484 0.00000000 -0.05257311
v -0.09782484 0.00000000 0.05257311
v 0.00000000 0.10500000 0.00000000
v 0.00000000 -0.10500000 0.00000000
v -0.03553695 -0.08494678 0.05000000
v 0.03553695 -0.08494678 0.05000000
v -0.03553695 0.08494678 0.05000000
v 0.03553695 0.08494678 0.05000000
v 0.00000000 0.00000000 0.10000000
v -0.03553695 -0.08494678 -0.05000000
v 0.03553695 -0.08494678 -0.05000000
v -0.03553695 0.08494678 -0.05000000
v 0.03553695 0.08494678 -0.05000000
v 0.00000000 0.00000000 -0.10000000
v 0.09303695 0.05250000 -0.03090170
v 0.09303695 -0.05250000 -0.03090170
v 0.05750000 -0.03244678 -0.08090170
v 0.05750000 0.03244678 -0.08090170
v 0.09303695 0.05250000 0.03090170
v 0.09303695 -0.05250000 0.03090170
v 0.05750000 -0.03244678 0.08090170
v 0.05750000 0.03244678 0.08090170
v 0.11500000 0.00000000 0.00000000
v -0.09303695 0.05250000 -0.03090170
v -0.09303695 -0.05250000 -0.03090170
v -0.05750000 -0.03244678 -0.08090170
v -0.05750000 0.03244678 -0.08090170
v -0.09303695 0.05250000 0.03090170
v -0.09303695 -0.05250000 0.03090170
v -0.05750000 -0.03244678 0.08090170
v -0.05750000 0.03244678 0.08090170
v -0.11500000 0.00000000 0.00000000
v -0.03142565 0.10100353 0.00000000
v 0.03142565 0.10100353 0.00000000
v -0.03142565 -0.10100353 0.00000000
v 0.03142565 -0.10100353 0.00000000
v -0.04989718 -0.09058019 0.02598919
v -0.01847153 -0.07284695 0.07020464
v -0.01868288 -0.09986093 0.02628656
v 0.04989718 -0.09058019 0.02598919
v 0.01847153 -0.07284695 0.07020464
v 0.01868288 -0.09986093 0.02628656
v 0.00000000 -0.08931833 0.05257311
v -0.04989718 0.09058019 0.02598919
v -0.01847153 0.07284695 0.07020464
v -0.01868288 0.09986093 0.02628656
v 0.04989718 0.09058019 0.02598919
v 0.01847153 0.07284695 0.07020464
v 0.01868288 0.09986093 0.02628656
v 0.00000000 0.08931833 0.05257311
v 0.00000000 -0.02869299 0.09619384
v 0.00000000 0.02869299 0.09619384
v -0.04989718 -0.09058019 -0.02598919
v -0.01847153 -0.07284695 -0.07020464
v -0.01868288 -0.09986093 -0.02628656
v 0.04989718 -0.09058019 -0.02598919
v 0.01847153 -0.07284695 -0.07020464
v 0.01868288 -0.09986093 -0.02628656
v 0.00000000 -0.08931833 -0.05257311
v -0.04989718 0.09058019 -0.02598919
v -0.01847153 0.07284695 -0.07020464
v -0.01868288 0.09986093 -0.02628656
v 0.04989718 0.09058019 -0.02598919
v 0.01847153 0.07284695 -0.07020464
v 0.01868288 0.09986093 -0.02628656
v 0.00000000 0.08931833 -0.05257311
v 0.00000000 -0.02869299 -0.09619384
v 0.00000000 0.02869299 -0.09619384
v 0.07978475 0.07371488 -0.01606220
v 0.09920688 0.02728865 -0.04338886
v 0.06759530 0.07226005 -0.04253254
v 0.07978475 -0.07371488 -0.01606220
v 0.09920688 -0.02728865 -0.04338886
v 0.06759530 -0.07226005 -0.04253254
v 0.02988757 -0.04555830 -0.08626685
v 0.08073534 -0.01686531 -0.06937805
v 0.04891242 -0.06171745 -0.06881910
v 0.03022954 -0.01705828 -0.09510565
v 0.07914196 -0.04465917 -0.05877853
v 0.02988757 0.04555830 -0.08626685
v 0.08073534 0.01686531 -0.06937805
v 0.04891242 0.06171745 -0.06881910
v 0.03022954 0.01705828 -0.09510565
v 0.07914196 0.04465917 -0.05877853
v 0.06045908 0.00000000 -0.08506508
v 0.07978475 0.07371488 0.01606220
v 0.09920688 0.02728865 0.04338886
v 0.06759530 0.07226005 0.04253254
v 0.09782484 0.05520177 0.00000000
v 0.07978475 -0.07371488 0.01606220
v 0.09920688 -0.02728865 0.04338886
v 0.06759530 -0.07226005 0.04253254
v 0.09782484 -0.05520177 0.00000000
v 0.02988757 -0.04555830 0.08626685
v 0.08073534 -0.01686531 0.06937805
v 0.04891242 -0.06171745 0.06881910
v 0.03022954 -0.01705828 0.09510565
v 0.07914196 -0.04465917 0.05877853
v 0.02988757 0.04555830 0.08626685
v 0.08073534 0.01686531 0.06937805
v 0.04891242 0.06171745 0.06881910
v 0.03022954 0.01705828 0.09510565
v 0.07914196 0.04465917 0.05877853
v 0.06045908 0.00000000 0.08506508
v 0.11062291 0.00000000 -0.02732665
v 0.11062291 0.00000000 0.02732665
v 0.10937150 0.02760088 -0.01624598
v 0.10937150 -0.02760088 -0.01624598
v 0.10937150 0.02760088 0.01624598
v 0.10937150 -0.02760088 0.01624598
v -0.07978475 0.07371488 -0.01606220
v -0.09920688 0.02728865 -0.04338886
v -0.06759530 0.07226005 -0.04253254
v -0.07978475 -0.07371488 -0.01606220
v -0.09920688 -0.02728865 -0.04338886
v -0.06759530 -0.07226005 -0.04253254
v -0.02988757 -0.04555830 -0.08626685
v -0.08073534 -0.01686531 -0.06937805
v -0.04891242 -0.06171745 -0.06881910
v -0.03022954 -0.01705828 -0.09510565
v -0.07914196 -0.04465917 -0.05877853
v -0.02988757 0.04555830 -0.08626685
v -0.08073534 0.01686531 -0.06937805
v -0.04891242 0.06171745 -0.06881910
v -0.03022954 0.01705828 -0.09510565
v -0.07914196 0.04465917 -0.05877853
v -0.06045908 0.00000000 -0.08506508
v -0.07978475 0.07371488 0.01606220
v -0.09920688 0.02728865 0.04338886
v -0.06759530 0.07226005 0.04253254
v -0.09782484 0.05520177 0.00000000
v -0.07978475 -0.07371488 0.01606220
v -0.09920688 -0.02728865 0.04338886
v -0.06759530 -0.07226005 0.04253254
v -0.09782484 -0.05520177 0.00000000
v -0.02988757 -0.04555830 0.08626685
v -0.08073534 -0.01686531 0.06937805
v -0.04891242 -0.06171745 0.06881910
v -0.03022954 -0.01705828 0.09510565
v -0.07914196 -0.04465917 0.05877853
v -0.02988757 0.04555830 0.08626685
v -0.08073534 0.01686531 0.06937805
v -0.04891242 0.06171745 0.06881910
v -0.03022954 0.01705828 0.09510565
v -0.07914196 0.04465917 0.05877853
v -0.06045908 0.00000000 0.08506508
v -0.11062291 0.00000000 -0.02732665
v -0.11062291 0.00000000 0.02732665
v -0.10937150 0.02760088 -0.01624598
v -0.10937150 -0.02760088 -0.01624598
v -0.10937150 0.02760088 0.01624598
v -0.10937150 -0.02760088 0.01624598
v -0.09000000 -0.11000000 -0.08500000
v -0.06528072 -0.11373595 -0.08500000
v -0.06528072 -0.11373595 0.08500000
v -0.09000000 -0.11000000 0.08500000
v -0.06780575 -0.09849282 -0.08500000
v -0.06780575 -0.09849282 0.08500000
v -0.07880822 -0.08764504 -0.08500000
v -0.07880822 -0.08764504 0.08500000
v -0.09408557 -0.08533610 -0.08500000
v -0.09408557 -0.08533610 0.08500000
v -0.10780238 -0.09244792 -0.08500000
v -0.10780238 -0.09244792 0.08500000
v -0.11471928 -0.10626405 -0.08500000
v -0.11471928 -0.10626405 0.08500000
v -0.11219425 -0.12150718 -0.08500000
v -0.11219425 -0.12150718 0.08500000
v -0.10119178 -0.13235496 -0.08500000
v -0.10119178 -0.13235496 0.08500000
v -0.08591443 -0.13466390 -0.08500000
v -0.08591443 -0.13466390 0.08500000
v -0.07219762 -0.12755208 -0.08500000
v -0.07219762 -0.12755208 0.08500000
v -0.03000000 -0.11000000 -0.09500000
v -0.00503124 -0.11124948 -0.09500000
v -0.00503124 -0.11124948 0.09500000
v -0.03000000 -0.11000000 0.09500000
v -0.00906543 -0.09633458 -0.09500000
v -0.00906543 -0.09633458 0.09500000
v -0.02109590 -0.08663941 -0.09500000
v -0.02109590 -0.08663941 0.09500000
v -0.03652744 -0.08586719 -0.09500000
v -0.03652744 -0.08586719 0.09500000
v -0.04946572 -0.09431288 -0.09500000
v -0.04946572 -0.09431288 0.09500000
v -0.05496876 -0.10875052 -0.09500000
v -0.05496876 -0.10875052 0.09500000
v -0.05093457 -0.12366542 -0.09500000
v -0.05093457 -0.12366542 0.09500000
v -0.03890410 -0.13336059 -0.09500000
v -0.03890410 -0.13336059 0.09500000
v -0.02347256 -0.13413281 -0.09500000
v -0.02347256 -0.13413281 0.09500000
v -0.01053428 -0.12568712 -0.09500000
v -0.01053428 -0.12568712 0.09500000
v 0.03000000 -0.11000000 -0.10000000
v 0.05496876 -0.10875052 -0.10000000
v 0.05496876 -0.10875052 0.10000000
v 0.03000000 -0.11000000 0.10000000
v 0.04946572 -0.09431288 -0.10000000
v 0.04946572 -0.09431288 0.10000000
v 0.03652744 -0.08586719 -0.10000000
v 0.03652744 -0.08586719 0.10000000
v 0.02109590 -0.08663941 -0.10000000
v 0.02109590 -0.08663941 0.10000000
v 0.00906543 -0.09633458 -0.10000000
v 0.00906543 -0.09633458 0.10000000
v 0.00503124 -0.11124948 -0.10000000
v 0.00503124 -0.11124948 0.10000000
v 0.01053428 -0.12568712 -0.10000000
v 0.01053428 -0.12568712 0.10000000
v 0.02347256 -0.13413281 -0.10000000
v 0.02347256 -0.13413281 0.10000000
v 0.03890410 -0.13336059 -0.10000000
v 0.03890410 -0.13336059 0.10000000
v 0.05093457 -0.12366542 -0.10000000
v 0.05093457 -0.12366542 0.10000000
v 0.09000000 -0.11000000 -0.09000000
v 0.11471928 -0.10626405 -0.09000000
v 0.11471928 -0.10626405 0.09000000
v 0.09000000 -0.11000000 0.09000000
v 0.10780238 -0.09244792 -0.09000000
v 0.10780238 -0.09244792 0.09000000
v 0.09408557 -0.08533610 -0.09000000
v 0.09408557 -0.08533610 0.09000000
v 0.07880822 -0.08764504 -0.09000000
v 0.07880822 -0.08764504 0.09000000
v 0.06780575 -0.09849282 -0.09000000
v 0.06780575 -0.09849282 0.09000000
v 0.06528072 -0.11373595 -0.09000000
v 0.06528072 -0.11373595 0.09000000
v 0.07219762 -0.12755208 -0.09000000
v 0.07219762 -0.12755208 0.09000000
v 0.08591443 -0.13466390 -0.09000000
v 0.08591443 -0.13466390 0.09000000
v 0.10119178 -0.13235496 -0.09000000
v 0.10119178 -0.13235496 0.09000000
v 0.11219425 -0.12150718 -0.09000000
v 0.11219425 -0.12150718 0.09000000
v 0.10500000 -0.05500000 -0.04500000
v 0.12729035 -0.07194522 -0.04500000
v 0.12729035 -0.07194522 0.08500000
v 0.10500000 -0.05500000 0.08500000
v 0.13299342 -0.05560703 -0.04500000
v 0.13299342 -0.05560703 0.08500000
v 0.12800396 -0.03903698 -0.04500000
v 0.12800396 -0.03903698 0.08500000
v 0.11422777 -0.02856426 -0.04500000
v 0.11422777 -0.02856426 0.08500000
v 0.09692688 -0.02818909 -0.04500000
v 0.09692688 -0.02818909 0.08500000
v 0.08270965 -0.03805478 -0.04500000
v 0.08270965 -0.03805478 0.08500000
v 0.07700658 -0.05439297 -0.04500000
v 0.07700658 -0.05439297 0.08500000
v 0.08199604 -0.07096302 -0.04500000
v 0.08199604 -0.07096302 0.08500000
v 0.09577223 -0.08143574 -0.04500000
v 0.09577223 -0.08143574 0.08500000
v 0.11307312 -0.08181091 -0.04500000
v 0.11307312 -0.08181091 0.08500000
v -0.10602924 -0.18873373 0.01000000
v -0.06397076 -0.18873373 0.01000000
v -0.10602924 -0.23126627 0.01000000
v -0.06397076 -0.23126627 0.01000000
v -0.08500000 -0.22314328 0.03551952
v -0.08500000 -0.19685672 0.03551952
v -0.08500000 -0.22314328 -0.01551952
v -0.08500000 -0.19685672 -0.01551952
v -0.05097397 -0.21000000 -0.00577193
v -0.05097397 -0.21000000 0.02577193
v -0.11902603 -0.21000000 -0.00577193
v -0.11902603 -0.21000000 0.02577193
v -0.08500000 -0.18500000 0.01000000
v -0.08500000 -0.23500000 0.01000000
v -0.09736068 -0.23022542 0.02500000
v -0.07263932 -0.23022542 0.02500000
v -0.09736068 -0.18977458 0.02500000
v -0.07263932 -0.18977458 0.02500000
v -0.08500000 -0.21000000 0.04000000
v -0.09736068 -0.23022542 -0.00500000
v -0.07263932 -0.23022542 -0.00500000
v -0.09736068 -0.18977458 -0.00500000
v -0.07263932 -0.18977458 -0.00500000
v -0.08500000 -0.21000000 -0.02000000
v -0.05263932 -0.19750000 0.00072949
v -0.05263932 -0.22250000 0.00072949
v -0.06500000 -0.21772542 -0.01427051
v -0.06500000 -0.20227458 -0.01427051
v -0.05263932 -0.19750000 0.01927051
v -0.05263932 -0.22250000 0.01927051
v -0.06500000 -0.21772542 0.03427051
v -0.06500000 -0.20227458 0.03427051
v -0.04500000 -0.21000000 0.01000000
v -0.11736068 -0.19750000 0.00072949
v -0.11736068 -0.22250000 0.00072949
v -0.10500000 -0.21772542 -0.01427051
v -0.10500000 -0.20227458 -0.01427051
v -0.11736068 -0.19750000 0.01927051
v -0.11736068 -0.22250000 0.01927051
v -0.10500000 -0.21772542 0.03427051
v -0.10500000 -0.20227458 0.03427051
v -0.12500000 -0.21000000 0.01000000
vn -0.49320504 0.86991309 0.00000000
vn 0.49320504 0.86991309 -0.00000000
vn -0.49320504 -0.86991309 -0.00000000
vn 0.49320504 -0.86991309 0.00000000
vn -0.00000000 -0.50825142 0.86120874
vn 0.00000000 0.50825142 0.86120874
vn 0.00000000 -0.50825142 -0.86120874
vn -0.00000000 0.50825142 -0.86120874
vn 0.81714190 0.00000000 -0.57643657
vn 0.81714190 -0.00000000 0.57643657
vn -0.81714190 -0.00000000 -0.57643657
vn -0.81714190 0.00000000 0.57643657
vn 0.00000000 1.00000000 -0.00000000
vn -0.00000000 -1.00000000 -0.00000000
vn -0.28212730 -0.80529914 0.52143790
vn 0.28212730 -0.80529914 0.52143790
vn -0.28212730 0.80529914 0.52143790
vn 0.28212730 0.80529914 0.52143790
vn -0.00000000 0.00000000 1.00000000
vn -0.28212730 -0.80529914 -0.52143790
vn 0.28212730 -0.80529914 -0.52143790
vn -0.28212730 0.80529914 -0.52143790
vn 0.28212730 0.80529914 -0.52143790
vn -0.00000000 0.00000000 -1.00000000
vn 0.78024248 0.52533203 -0.33948185
vn 0.78024248 -0.52533203 -0.33948185
vn 0.45311474 -0.30581154 -0.83735676
vn 0.45311474 0.30581154 -0.83735676
vn 0.78024248 0.52533203 0.33948185
vn 0.78024248 -0.52533203 0.33948185
vn 0.45311474 -0.30581154 0.83735676
vn 0.45311474 0.30581154 0.83735676
vn 1.00000000 0.00000000 0.00000000
vn -0.78024248 0.52533203 -0.33948185
vn -0.78024248 -0.52533203 -0.33948185
vn -0.45311474 -0.30581154 -0.83735676
vn -0.45311474 0.30581154 -0.83735676
vn -0.78024248 0.52533203 0.33948185
vn -0.78024248 -0.52533203 0.33948185
vn -0.45311474 -0.30581154 0.83735676
vn -0.45311474 0.30581154 0.83735676
vn -1.00000000 -0.00000000 0.00000000
vn -0.25449988 0.96707280 -0.00000000
vn 0.25449988 0.96707280 -0.00000000
vn -0.25449988 -0.96707280 -0.00000000
vn 0.25449988 -0.96707280 -0.00000000
vn -0.40307316 -0.87326524 0.27375144
vn -0.14348514 -0.67789456 0.72102079
vn -0.14072017 -0.94937409 0.28086772
vn 0.40307316 -0.87326524 0.27375144
vn 0.14348514 -0.67789456 0.72102079
vn 0.14072017 -0.94937409 0.28086772
vn -0.00000000 -0.84507786 0.53464326
vn -0.40307316 0.87326524 0.27375144
vn -0.14348514 0.67789456 0.72102079
vn -0.14072017 0.94937409 0.28086772
vn 0.40307316 0.87326524 0.27375144
vn 0.14348514 0.67789456 0.72102079
vn 0.14072017 0.94937409 0.28086772
vn 0.00000000 0.84507786 0.53464326
vn -0.00000000 -0.26327108 0.96472190
vn 0.00000000 0.26327108 0.96472190
vn -0.40307316 -0.87326524 -0.27375144
vn -0.14348514 -0.67789456 -0.72102079
vn -0.14072017 -0.94937409 -0.28086772
vn 0.40307316 -0.87326524 -0.27375144
vn 0.14348514 -0.67789456 -0.72102079
vn 0.14072017 -0.94937409 -0.28086772
vn 0.00000000 -0.84507786 -0.53464326
vn -0.40307316 0.87326524 -0.27375144
vn -0.14348514 0.67789456 -0.72102079
vn -0.14072017 0.94937409 -0.28086772
vn 0.40307316 0.87326524 -0.27375144
vn 0.14348514 0.67789456 -0.72102079
vn 0.14072017 0.94937409 -0.28086772
vn -0.00000000 0.84507786 -0.53464326
vn -0.00000000 -0.26327108 -0.96472190
vn 0.00000000 0.26327108 -0.96472190
vn 0.66043137 0.73069527 -0.17295903
vn 0.83428627 0.27193920 -0.47959929
vn 0.54934412 0.69574887 -0.46276835
vn 0.66043137 -0.73069527 -0.17295903
vn 0.83428627 -0.27193920 -0.47959929
vn 0.54934412 -0.69574887 -0.46276835
vn 0.22933866 -0.42228544 -0.87697137
vn 0.65578316 -0.16212762 -0.73733512
vn 0.39543882 -0.58359100 -0.70925996
vn 0.23700351 -0.14802449 -0.96016566
vn 0.63957158 -0.44332784 -0.62801960
vn 0.22933866 0.42228544 -0.87697137
vn 0.65578316 0.16212762 -0.73733512
vn 0.39543882 0.58359100 -0.70925996
vn 0.23700351 0.14802449 -0.96016566
vn 0.63957158 0.44332784 -0.62801960
vn 0.46747070 0.00000000 -0.88400856
vn 0.66043137 0.73069527 0.17295903
vn 0.83428627 0.27193920 0.47959929
vn 0.54934412 0.69574887 0.46276835
vn 0.83565265 0.54925827 -0.00000000
vn 0.66043137 -0.73069527 0.17295903
vn 0.83428627 -0.27193920 0.47959929
vn 0.54934412 -0.69574887 0.46276835
vn 0.83565265 -0.54925827 0.00000000
vn 0.22933866 -0.42228544 0.87697137
vn 0.65578316 -0.16212762 0.73733512
vn 0.39543882 -0.58359100 0.70925996
vn 0.23700351 -0.14802449 0.96016566
vn 0.63957158 -0.44332784 0.62801960
vn 0.22933866 0.42228544 0.87697137
vn 0.65578316 0.16212762 0.73733512
vn 0.39543882 0.58359100 0.70925996
vn 0.23700351 0.14802449 0.96016566
vn 0.63957158 0.44332784 0.62801960
vn 0.46747070 0.00000000 0.88400856
vn 0.95062241 -0.00000000 -0.31034987
vn 0.95062241 0.00000000 0.31034987
vn 0.94146182 0.28914330 -0.17333721
vn 0.94146182 -0.28914330 -0.17333721
vn 0.94146182 0.28914330 0.17333721
vn 0.94146182 -0.28914330 0.17333721
vn -0.66043137 0.73069527 -0.17295903
vn -0.83428627 0.27193920 -0.47959929
vn -0.54934412 0.69574887 -0.46276835
vn -0.66043137 -0.73069527 -0.17295903
vn -0.83428627 -0.27193920 -0.47959929
vn -0.54934412 -0.69574887 -0.46276835
vn -0.22933866 -0.42228544 -0.87697137
vn -0.65578316 -0.16212762 -0.73733512
vn -0.39543882 -0.58359100 -0.70925996
vn -0.23700351 -0.14802449 -0.96016566
vn -0.63957158 -0.44332784 -0.62801960
vn -0.22933866 0.42228544 -0.87697137
vn -0.65578316 0.16212762 -0.73733512
vn -0.39543882 0.58359100 -0.70925996
vn -0.23700351 0.14802449 -0.96016566
vn -0.63957158 0.44332784 -0.62801960
vn -0.46747070 -0.00000000 -0.88400856
vn -0.66043137 0.73069527 0.17295903
vn -0.83428627 0.27193920 0.47959929
vn -0.54934412 0.69574887 0.46276835
vn -0.83565265 0.54925827 0.00000000
vn -0.66043137 -0.73069527 0.17295903
vn -0.83428627 -0.27193920 0.47959929
vn -0.54934412 -0.69574887 0.46276835
vn -0.83565265 -0.54925827 -0.00000000
vn -0.22933866 -0.42228544 0.87697137
vn -0.65578316 -0.16212762 0.73733512
vn -0.39543882 -0.58359100 0.70925996
vn -0.23700351 -0.14802449 0.96016566
vn -0.63957158 -0.44332784 0.62801960
vn -0.22933866 0.42228544 0.87697137
vn -0.65578316 0.16212762 0.73733512
vn -0.39543882 0.58359100 0.70925996
vn -0.23700351 0.14802449 0.96016566
vn -0.63957158 0.44332784 0.62801960
vn -0.46747070 -0.00000000 0.88400856
vn -0.95062241 0.00000000 -0.31034987
vn -0.95062241 0.00000000 0.31034987
vn -0.94146182 0.28914330 -0.17333721
vn -0.94146182 -0.28914330 -0.17333721
vn -0.94146182 0.28914330 0.17333721
vn -0.94146182 -0.28914330 0.17333721
vn 0.00000000 0.00000000 -1.00000000
vn 0.75667072 -0.11435959 -0.64371679
vn 0.75667072 -0.11435959 0.64371679
vn 0.00000000 0.00000000 1.00000000
vn 0.67937836 0.35224104 -0.64371679
vn 0.67937836 0.35224104 0.64371679
vn 0.34258655 0.68429756 -0.64371679
vn 0.34258655 0.68429756 0.64371679
vn -0.12506167 0.75497568 -0.64371679
vn -0.12506167 0.75497568 0.64371679
vn -0.54494059 0.53727875 -0.64371679
vn -0.54494059 0.53727875 0.64371679
vn -0.75667072 0.11435959 -0.64371679
vn -0.75667072 0.11435959 0.64371679
vn -0.67937836 -0.35224104 -0.64371679
vn -0.67937836 -0.35224104 0.64371679
vn -0.34258655 -0.68429756 -0.64371679
vn -0.34258655 -0.68429756 0.64371679
vn 0.12506167 -0.75497568 -0.64371679
vn 0.12506167 -0.75497568 0.64371679
vn 0.54494059 -0.53727875 -0.64371679
vn 0.54494059 -0.53727875 0.64371679
vn 0.00000000 0.00000000 -1.00000000
vn 0.76430743 -0.03824725 -0.64371679
vn 0.76430743 -0.03824725 0.64371679
vn 0.00000000 0.00000000 1.00000000
vn 0.64081887 0.41830596 -0.64371679
vn 0.64081887 0.41830596 0.64371679
vn 0.27255928 0.71508051 -0.64371679
vn 0.27255928 0.71508051 0.64371679
vn -0.19980869 0.73871861 -0.64371679
vn -0.19980869 0.73871861 0.64371679
vn -0.59585653 0.48019131 -0.64371679
vn -0.59585653 0.48019131 0.64371679
vn -0.76430743 0.03824725 -0.64371679
vn -0.76430743 0.03824725 0.64371679
vn -0.64081887 -0.41830596 -0.64371679
vn -0.64081887 -0.41830596 0.64371679
vn -0.27255928 -0.71508051 -0.64371679
vn -0.27255928 -0.71508051 0.64371679
vn 0.19980869 -0.73871861 -0.64371679
vn 0.19980869 -0.73871861 0.64371679
vn 0.59585653 -0.48019131 -0.64371679
vn 0.59585653 -0.48019131 0.64371679
vn 0.00000000 0.00000000 -1.00000000
vn 0.76430743 0.03824725 -0.64371679
vn 0.76430743 0.03824725 0.64371679
vn 0.00000000 0.00000000 1.00000000
vn 0.59585653 0.48019131 -0.64371679
vn 0.59585653 0.48019131 0.64371679
vn 0.19980869 0.73871861 -0.64371679
vn 0.19980869 0.73871861 0.64371679
vn -0.27255928 0.71508051 -0.64371679
vn -0.27255928 0.71508051 0.64371679
vn -0.64081887 0.41830596 -0.64371679
vn -0.64081887 0.41830596 0.64371679
vn -0.76430743 -0.03824725 -0.64371679
vn -0.76430743 -0.03824725 0.64371679
vn -0.59585653 -0.48019131 -0.64371679
vn -0.59585653 -0.48019131 0.64371679
vn -0.19980869 -0.73871861 -0.64371679
vn -0.19980869 -0.73871861 0.64371679
vn 0.27255928 -0.71508051 -0.64371679
vn 0.27255928 -0.71508051 0.64371679
vn 0.64081887 -0.41830596 -0.64371679
vn 0.64081887 -0.41830596 0.64371679
vn 0.00000000 0.00000000 -1.00000000
vn 0.75667072 0.11435959 -0.64371679
vn 0.75667072 0.11435959 0.64371679
vn 0.00000000 0.00000000 1.00000000
vn 0.54494059 0.53727875 -0.64371679
vn 0.54494059 0.53727875 0.64371679
vn 0.12506167 0.75497568 -0.64371679
vn 0.12506167 0.75497568 0.64371679
vn -0.34258655 0.68429756 -0.64371679
vn -0.34258655 0.68429756 0.64371679
vn -0.67937836 0.35224104 -0.64371679
vn -0.67937836 0.35224104 0.64371679
vn -0.75667072 -0.11435959 -0.64371679
vn -0.75667072 -0.11435959 0.64371679
vn -0.54494059 -0.53727875 -0.64371679
vn -0.54494059 -0.53727875 0.64371679
vn -0.12506167 -0.75497568 -0.64371679
vn -0.12506167 -0.75497568 0.64371679
vn 0.34258655 -0.68429756 -0.64371679
vn 0.34258655 -0.68429756 0.64371679
vn 0.67937836 -0.35224104 -0.64371679
vn 0.67937836 -0.35224104 0.64371679
vn 0.00000000 0.00000000 -1.00000000
vn 0.60921412 -0.46312725 -0.64371679
vn 0.60921412 -0.46312725 0.64371679
vn 0.00000000 0.00000000 1.00000000
vn 0.76508395 -0.01659074 -0.64371679
vn 0.76508395 -0.01659074 0.64371679
vn 0.62871771 0.43628287 -0.64371679
vn 0.62871771 0.43628287 0.64371679
vn 0.25220268 0.72251125 -0.64371679
vn 0.25220268 0.72251125 0.64371679
vn -0.22064521 0.73276489 -0.64371679
vn -0.22064521 0.73276489 0.64371679
vn -0.60921412 0.46312725 -0.64371679
vn -0.60921412 0.46312725 0.64371679
vn -0.76508395 0.01659074 -0.64371679
vn -0.76508395 0.01659074 0.64371679
vn -0.62871771 -0.43628287 -0.64371679
vn -0.62871771 -0.43628287 0.64371679
vn -0.25220268 -0.72251125 -0.64371679
vn -0.25220268 -0.72251125 0.64371679
vn 0.22064521 -0.73276489 -0.64371679
vn 0.22064521 -0.73276489 0.64371679
vn -0.38411056 0.92328710 0.00000000
vn 0.38411056 0.92328710 0.00000000
vn -0.38411056 -0.92328710 0.00000000
vn 0.38411056 -0.92328710 0.00000000
vn 0.00000000 -0.58315159 0.81236336
vn -0.00000000 0.58315159 0.81236336
vn 0.00000000 -0.58315159 -0.81236336
vn -0.00000000 0.58315159 -0.81236336
vn 0.79001824 0.00000000 -0.61308334
vn 0.79001824 -0.00000000 0.61308334
vn -0.79001824 0.00000000 -0.61308334
vn -0.79001824 0.00000000 0.61308334
vn 0.00000000 1.00000000 -0.00000000
vn 0.00000000 -1.00000000 -0.00000000
vn -0.22353703 -0.85887538 0.46082999
vn 0.22353703 -0.85887538 0.46082999
vn -0.22353703 0.85887538 0.46082999
vn 0.22353703 0.85887538 0.46082999
vn 0.00000000 0.00000000 1.00000000
vn -0.22353703 -0.85887538 -0.46082999
vn 0.22353703 -0.85887538 -0.46082999
vn -0.22353703 0.85887538 -0.46082999
vn 0.22353703 0.85887538 -0.46082999
vn 0.00000000 0.00000000 -1.00000000
vn 0.70534109 0.62589997 -0.33278097
vn 0.70534109 -0.62589997 -0.33278097
vn 0.40550494 -0.36701546 -0.83717704
vn 0.40550494 0.36701546 -0.83717704
vn 0.70534109 0.62589997 0.33278097
vn 0.70534109 -0.62589997 0.33278097
vn 0.40550494 -0.36701546 0.83717704
vn 0.40550494 0.36701546 0.83717704
vn 1.00000000 0.00000000 -0.00000000
vn -0.70534109 0.62589997 -0.33278097
vn -0.70534109 -0.62589997 -0.33278097
vn -0.40550494 -0.36701546 -0.83717704
vn -0.40550494 0.36701546 -0.83717704
vn -0.70534109 0.62589997 0.33278097
vn -0.70534109 -0.62589997 0.33278097
vn -0.40550494 -0.36701546 0.83717704
vn -0.40550494 0.36701546 0.83717704
vn -1.00000000 0.00000000 -0.00000000
f 1//1 138//138 54//54
f 138//138 38//38 140//140
f 54//54 140//140 17//17
f 138//138 140//140 54//54
f 38//38 139//139 155//155
f 139//139 12//12 152//152
f 155//155 152//152 41//41
f 139//139 152//152 155//155
f 17//17 153//153 55//55
f 153//153 41//41 151//151
f 55//55 151//151 6//6
f 153//153 151//151 55//55
f 38//38 155//155 140//140
f 155//155 41//41 153//153
f 140//140 153//153 17//17
f 155//155 153//153 140//140
f 1//1 54//54 43//43
f 54//54 17//17 56//56
f 43//43 56//56 13//13
f 54//54 56//56 43//43
f 17//17 55//55 60//60
f 55//55 6//6 58//58
f 60//60 58//58 18//18
f 55//55 58//58 60//60
f 13//13 59//59 44//44
f 59//59 18//18 57//57
f 44//44 57//57 2//2
f 59//59 57//57 44//44
f 17//17 60//60 56//56
f 60//60 18//18 59//59
f 56//56 59//59 13//13
f 60//60 59//59 56//56
f 1//1 43//43 70//70
f 43//43 13//13 72//72
f 70//70 72//72 22//22
f 43//43 72//72 70//70
f 13//13 44//44 75//75
f 44//44 2//2 73//73
f 75//75 73//73 23//23
f 44//44 73//73 75//75
f 22//22 76//76 71//71
f 76//76 23//23 74//74
f 71//71 74//74 8//8
f 76//76 74//74 71//71
f 13//13 75//75 72//72
f 75//75 23//23 76//76
f 72//72 76//76 22//22
f 75//75 76//76 72//72
f 1//1 70//70 121//121
f 70//70 22//22 123//123
f 121//121 123//123 34//34
f 70//70 123//123 121//121
f 22//22 71//71 134//134
f 71//71 8//8 132//132
f 134//134 132//132 37//37
f 71//71 132//132 134//134
f 34//34 136//136 122//122
f 136//136 37//37 133//133
f 122//122 133//133 11//11
f 136//136 133//133 122//122
f 22//22 134//134 123//123
f 134//134 37//37 136//136
f 123//123 136//136 34//34
f 134//134 136//136 123//123
f 1//1 121//121 138//138
f 121//121 34//34 141//141
f 138//138 141//141 38//38
f 121//121 141//141 138//138
f 34//34 122//122 159//159
f 122//122 11//11 157//157
f 159//159 157//157 42//42
f 122//122 157//157 159//159
f 38//38 161//161 139//139
f 161//161 42//42 158//158
f 139//139 158//158 12//12
f 161//161 158//158 139//139
f 34//34 159//159 141//141
f 159//159 42//42 161//161
f 141//141 161//161 38//38
f 159//159 161//161 141//141
f 2//2 57//57 96//96
f 57//57 18//18 98//98
f 96//96 98//98 29//29
f 57//57 98//98 96//96
f 18//18 58//58 111//111
f 58//58 6//6 109//109
f 111//111 109//109 32//32
f 58//58 109//109 111//111
f 29//29 113//113 97//97
f 113//113 32//32 110//110
f 97//97 110//110 10//10
f 113//113 110//110 97//97
f 18//18 111//111 98//98
f 111//111 32//32 113//113
f 98//98 113//113 29//29
f 111//111 113//113 98//98
f 6//6 151//151 62//62
f 151//151 41//41 154//154
f 62//62 154//154 19//19
f 151//151 154//154 62//62
f 41//41 152//152 156//156
f 152//152 12//12 147//147
f 156//156 147//147 40//40
f 152//152 147//147 156//156
f 19//19 149//149 61//61
f 149//149 40//40 146//146
f 61//61 146//146 5//5
f 149//149 146//146 61//61
f 41//41 156//156 154//154
f 156//156 40//40 149//149
f 154//154 149//149 19//19
f 156//156 149//149 154//154
f 12//12 158//158 143//143
f 158//158 42//42 162//162
f 143//143 162//162 39//39
f 158//158 162//162 143//143
f 42//42 157//157 160//160
f 157//157 11//11 125//125
f 160//160 125//125 35//35
f 157//157 125//125 160//160
f 39//39 145//145 142//142
f 145//145 35//35 124//124
f 142//142 124//124 3//3
f 145//145 124//124 142//142
f 42//42 160//160 162//162
f 160//160 35//35 145//145
f 162//162 145//145 39//39
f 160//160 145//145 162//162
f 11//11 133//133 128//128
f 133//133 37//37 137//137
f 128//128 137//137 36//36
f 133//133 137//137 128//128
f 37//37 132//132 135//135
f 132//132 8//8 78//78
f 135//135 78//78 24//24
f 132//132 78//78 135//135
f 36//36 130//130 127//127
f 130//130 24//24 77//77
f 127//127 77//77 7//7
f 130//130 77//77 127//127
f 37//37 135//135 137//137
f 135//135 24//24 130//130
f 137//137 130//130 36//36
f 135//135 130//130 137//137
f 8//8 74//74 90//90
f 74//74 23//23 92//92
f 90//90 92//92 28//28
f 74//74 92//92 90//90
f 23//23 73//73 81//81
f 73//73 2//2 79//79
f 81//81 79//79 25//25
f 73//73 79//79 81//81
f 28//28 94//94 91//91
f 94//94 25//25 80//80
f 91//91 80//80 9//9
f 94//94 80//80 91//91
f 23//23 81//81 92//92
f 81//81 25//25 94//94
f 92//92 94//94 28//28
f 81//81 94//94 92//92
f 4//4 100//100 50//50
f 100//100 30//30 102//102
f 50//50 102//102 16//16
f 100//100 102//102 50//50
f 30//30 101//101 108//108
f 101//101 10//10 105//105
f 108//108 105//105 31//31
f 101//101 105//105 108//108
f 16//16 106//106 51//51
f 106//106 31//31 104//104
f 51//51 104//104 5//5
f 106//106 104//104 51//51
f 30//30 108//108 102//102
f 108//108 31//31 106//106
f 102//102 106//106 16//16
f 108//108 106//106 102//102
f 4//4 50//50 46//46
f 50//50 16//16 52//52
f 46//46 52//52 14//14
f 50//50 52//52 46//46
f 16//16 51//51 53//53
f 51//51 5//5 48//48
f 53//53 48//48 15//15
f 51//51 48//48 53//53
f 14//14 49//49 45//45
f 49//49 15//15 47//47
f 45//45 47//47 3//3
f 49//49 47//47 45//45
f 16//16 53//53 52//52
f 53//53 15//15 49//49
f 52//52 49//49 14//14
f 53//53 49//49 52//52
f 4//4 46//46 66//66
f 46//46 14//14 68//68
f 66//66 68//68 21//21
f 46//46 68//68 66//66
f 14//14 45//45 65//65
f 45//45 3//3 63//63
f 65//65 63//63 20//20
f 45//45 63//63 65//65
f 21//21 69//69 67//67
f 69//69 20//20 64//64
f 67//67 64//64 7//7
f 69//69 64//64 67//67
f 14//14 65//65 68//68
f 65//65 20//20 69//69
f 68//68 69//69 21//21
f 65//65 69//69 68//68
f 4//4 66//66 82//82
f 66//66 21//21 84//84
f 82//82 84//84 26//26
f 66//66 84//84 82//82
f 21//21 67//67 87//87
f 67//67 7//7 85//85
f 87//87 85//85 27//27
f 67//67 85//85 87//87
f 26//26 89//89 83//83
f 89//89 27//27 86//86
f 83//83 86//86 9//9
f 89//89 86//86 83//83
f 21//21 87//87 84//84
f 87//87 27//27 89//89
f 84//84 89//89 26//26
f 87//87 89//89 84//84
f 4//4 82//82 100//100
f 82//82 26//26 103//103
f 100//100 103//103 30//30
f 82//82 103//103 100//100
f 26//26 83//83 118//118
f 83//83 9//9 115//115
f 118//118 115//115 33//33
f 83//83 115//115 118//118
f 30//30 120//120 101//101
f 120//120 33//33 116//116
f 101//101 116//116 10//10
f 120//120 116//116 101//101
f 26//26 118//118 103//103
f 118//118 33//33 120//120
f 103//103 120//120 30//30
f 118//118 120//120 103//103
f 5//5 104//104 61//61
f 104//104 31//31 107//107
f 61//61 107//107 19//19
f 104//104 107//107 61//61
f 31//31 105//105 114//114
f 105//105 10//10 110//110
f 114//114 110//110 32//32
f 105//105 110//110 114//114
f 19//19 112//112 62//62
f 112//112 32//32 109//109
f 62//62 109//109 6//6
f 112//112 109//109 62//62
f 31//31 114//114 107//107
f 114//114 32//32 112//112
f 107//107 112//112 19//19
f 114//114 112//112 107//107
f 3//3 47//47 142//142
f 47//47 15//15 144//144
f 142//142 144//144 39//39
f 47//47 144//144 142//142
f 15//15 48//48 148//148
f 48//48 5//5 146//146
f 148//148 146//146 40//40
f 48//48 146//146 148//148
f 39//39 150//150 143//143
f 150//150 40//40 147//147
f 143//143 147//147 12//12
f 150//150 147//147 143//143
f 15//15 148//148 144//144
f 148//148 40//40 150//150
f 144//144 150//150 39//39
f 148//148 150//150 144//144
f 7//7 64//64 127//127
f 64//64 20//20 129//129
f 127//127 129//129 36//36
f 64//64 129//129 127//127
f 20//20 63//63 126//126
f 63//63 3//3 124//124
f 126//126 124//124 35//35
f 63//63 124//124 126//126
f 36//36 131//131 128//128
f 131//131 35//35 125//125
f 128//128 125//125 11//11
f 131//131 125//125 128//128
f 20//20 126//126 129//129
f 126//126 35//35 131//131
f 129//129 131//131 36//36
f 126//126 131//131 129//129
f 9//9 86//86 91//91
f 86//86 27//27 95//95
f 91//91 95//95 28//28
f 86//86 95//95 91//91
f 27//27 85//85 88//88
f 85//85 7//7 77//77
f 88//88 77//77 24//24
f 85//85 77//77 88//88
f 28//28 93//93 90//90
f 93//93 24//24 78//78
f 90//90 78//78 8//8
f 93//93 78//78 90//90
f 27//27 88//88 95//95
f 88//88 24//24 93//93
f 95//95 93//93 28//28
f 88//88 93//93 95//95
f 10//10 116//116 97//97
f 116//116 33//33 119//119
f 97//97 119//119 29//29
f 116//116 119//119 97//97
f 33//33 115//115 117//117
f 115//115 9//9 80//80
f 117//117 80//80 25//25
f 115//115 80//80 117//117
f 29//29 99//99 96//96
f 99//99 25//25 79//79
f 96//96 79//79 2//2
f 99//99 79//79 96//96
f 33//33 117//117 119//119
f 117//117 25//25 99//99
f 119//119 99//99 29//29
f 117//117 99//99 119//119
f 164//164 163//163 167//167
f 164//164 167//167 165//165
f 165//165 167//167 168//168
f 165//165 168//168 166//166
f 167//167 163//163 169//169
f 167//167 169//169 168//168
f 168//168 169//169 170//170
f 168//168 170//170 166//166
f 169//169 163//163 171//171
f 169//169 171//171 170//170
f 170//170 171//171 172//172
f 170//170 172//172 166//166
f 171//171 163//163 173//173
f 171//171 173//173 172//172
f 172//172 173//173 174//174
f 172//172 174//174 166//166
f 173//173 163//163 175//175
f 173//173 175//175 174//174
f 174//174 175//175 176//176
f 174//174 176//176 166//166
f 175//175 163//163 177//177
f 175//175 177//177 176//176
f 176//176 177//177 178//178
f 176//176 178//178 166//166
f 177//177 163//163 179//179
f 177//177 179//179 178//178
f 178//178 179//179 180//180
f 178//178 180//180 166//166
f 179//179 163//163 181//181
f 179//179 181//181 180//180
f 180//180 181//181 182//182
f 180//180 182//182 166//166
f 181//181 163//163 183//183
f 181//181 183//183 182//182
f 182//182 183//183 184//184
f 182//182 184//184 166//166
f 183//183 163//163 164//164
f 183//183 164//164 184//184
f 184//184 164//164 165//165
f 184//184 165//165 166//166
f 186//186 185//185 189//189
f 186//186 189//189 187//187
f 187//187 189//189 190//190
f 187//187 190//190 188//188
f 189//189 185//185 191//191
f 189//189 191//191 190//190
f 190//190 191//191 192//192
f 190//190 192//192 188//188
f 191//191 185//185 193//193
f 191//191 193//193 192//192
f 192//192 193//193 194//194
f 192//192 194//194 188//188
f 193//193 185//185 195//195
f 193//193 195//195 194//194
f 194//194 195//195 196//196
f 194//194 196//196 188//188
f 195//195 185//185 197//197
f 195//195 197//197 196//196
f 196//196 197//197 198//198
f 196//196 198//198 188//188
f 197//197 185//185 199//199
f 197//197 199//199 198//198
f 198//198 199//199 200//200
f 198//198 200//200 188//188
f 199//199 185//185 201//201
f 199//199 201//201 200//200
f 200//200 201//201 202//202
f 200//200 202//202 188//188
f 201//201 185//185 203//203
f 201//201 203//203 202//202
f 202//202 203//203 204//204
f 202//202 204//204 188//188
f 203//203 185//185 205//205
f 203//203 205//205 204//204
f 204//204 205//205 206//206
f 204//204 206//206 188//188
f 205//205 185//185 186//186
f 205//205 186//186 206//206
f 206//206 186//186 187//187
f 206//206 187//187 188//188
f 208//208 207//207 211//211
f 208//208 211//211 209//209
f 209//209 211//211 212//212
f 209//209 212//212 210//210
f 211//211 207//207 213//213
f 211//211 213//213 212//212
f 212//212 213//213 214//214
f 212//212 214//214 210//210
f 213//213 207//207 215//215
f 213//213 215//215 214//214
f 214//214 215//215 216//216
f 214//214 216//216 210//210
f 215//215 207//207 217//217
f 215//215 217//217 216//216
f 216//216 217//217 218//218
f 216//216 218//218 210//210
f 217//217 207//207 219//219
f 217//217 219//219 218//218
f 218//218 219//219 220//220
f 218//218 220//220 210//210
f 219//219 207//207 221//221
f 219//219 221//221 220//220
f 220//220 221//221 222//222
f 220//220 222//222 210//210
f 221//221 207//207 223//223
f 221//221 223//223 222//222
f 222//222 223//223 224//224
f 222//222 224//224 210//210
f 223//223 207//207 225//225
f 223//223 225//225 224//224
f 224//224 225//225 226//226
f 224//224 226//226 210//210
f 225//225 207//207 227//227
f 225//225 227//227 226//226
f 226//226 227//227 228//228
f 226//226 228//228 210//210
f 227//227 207//207 208//208
f 227//227 208//208 228//228
f 228//228 208//208 209//209
f 228//228 209//209 210//210
f 230//230 229//229 233//233
f 230//230 233//233 231//231
f 231//231 233//233 234//234
f 231//231 234//234 232//232
f 233//233 229//229 235//235
f 233//233 235//235 234//234
f 234//234 235//235 236//236
f 234//234 236//236 232//232
f 235//235 229//229 237//237
f 235//235 237//237 236//236
f 236//236 237//237 238//238
f 236//236 238//238 232//232
f 237//237 229//229 239//239
f 237//237 239//239 238//238
f 238//238 239//239 240//240
f 238//238 240//240 232//232
f 239//239 229//229 241//241
f 239//239 241//241 240//240
f 240//240 241//241 242//242
f 240//240 242//242 232//232
f 241//241 229//229 243//243
f 241//241 243//243 242//242
f 242//242 243//243 244//244
f 242//242 244//244 232//232
f 243//243 229//229 245//245
f 243//243 245//245 244//244
f 244//244 245//245 246//246
f 244//244 246//246 232//232
f 245//245 229//229 247//247
f 245//245 247//247 246//246
f 246//246 247//247 248//248
f 246//246 248//248 232//232
f 247//247 229//229 249//249
f 247//247 249//249 248//248
f 248//248 249//249 250//250
f 248//248 250//250 232//232
f 249//249 229//229 230//230
f 249//249 230//230 250//250
f 250//250 230//230 231//231
f 250//250 231//231 232//232
f 252//252 251//251 255//255
f 252//252 255//255 253//253
f 253//253 255//255 256//256
f 253//253 256//256 254//254
f 255//255 251//251 257//257
f 255//255 257//257 256//256
f 256//256 257//257 258//258
f 256//256 258//258 254//254
f 257//257 251//251 259//259
f 257//257 259//259 258//258
f 258//258 259//259 260//260
f 258//258 260//260 254//254
f 259//259 251//251 261//261
f 259//259 261//261 260//260
f 260//260 261//261 262//262
f 260//260 262//262 254//254
f 261//261 251//251 263//263
f 261//261 263//263 262//262
f 262//262 263//263 264//264
f 262//262 264//264 254//254
f 263//263 251//251 265//265
f 263//263 265//265 264//264
f 264//264 265//265 266//266
f 264//264 266//266 254//254
f 265//265 251//251 267//267
f 265//265 267//267 266//266
f 266//266 267//267 268//268
f 266//266 268//268 254//254
f 267//267 251//251 269//269
f 267//267 269//269 268//268
f 268//268 269//269 270//270
f 268//268 270//270 254//254
f 269//269 251//251 271//271
f 269//269 271//271 270//270
f 270//270 271//271 272//272
f 270//270 272//272 254//254
f 271//271 251//251 252//252
f 271//271 252//252 272//272
f 272//272 252//252 253//253
f 272//272 253//253 254//254
f 273//273 310//310 289//289
f 310//310 284//284 313//313
f 289//289 313//313 278//278
f 310//310 313//313 289//289
f 273//273 289//289 285//285
f 289//289 278//278 290//290
f 285//285 290//290 274//274
f 289//289 290//290 285//285
f 273//273 285//285 294//294
f 285//285 274//274 295//295
f 294//294 295//295 280//280
f 285//285 295//295 294//294
f 273//273 294//294 306//306
f 294//294 280//280 309//309
f 306//306 309//309 283//283
f 294//294 309//309 306//306
f 273//273 306//306 310//310
f 306//306 283//283 314//314
f 310//310 314//314 284//284
f 306//306 314//314 310//310
f 274//274 290//290 301//301
f 290//290 278//278 304//304
f 301//301 304//304 282//282
f 290//290 304//304 301//301
f 278//278 313//313 291//291
f 313//313 284//284 312//312
f 291//291 312//312 277//277
f 313//313 312//312 291//291
f 284//284 314//314 311//311
f 314//314 283//283 307//307
f 311//311 307//307 275//275
f 314//314 307//307 311//311
f 283//283 309//309 308//308
f 309//309 280//280 296//296
f 308//308 296//296 279//279
f 309//309 296//296 308//308
f 280//280 295//295 300//300
f 295//295 274//274 297//297
f 300//300 297//297 281//281
f 295//295 297//297 300//300
f 276//276 302//302 288//288
f 302//302 282//282 303//303
f 288//288 303//303 277//277
f 302//302 303//303 288//288
f 276//276 288//288 286//286
f 288//288 277//277 287//287
f 286//286 287//287 275//275
f 288//288 287//287 286//286
f 276//276 286//286 293//293
f 286//286 275//275 292//292
f 293//293 292//292 279//279
f 286//286 292//292 293//293
f 276//276 293//293 298//298
f 293//293 279//279 299//299
f 298//298 299//299 281//281
f 293//293 299//299 298//298
f 276//276 298//298 302//302
f 298//298 281//281 305//305
f 302//302 305//305 282//282
f 298//298 305//305 302//302
f 277//277 303//303 291//291
f 303//303 282//282 304//304
f 291//291 304//304 278//278
f 303//303 304//304 291//291
f 275//275 287//287 311//311
f 287//287 277//277 312//312
f 311//311 312//312 284//284
f 287//287 312//312 311//311
f 279//279 292//292 308//308
f 292//292 275//275 307//307
f 308//308 307//307 283//283
f 292//292 307//307 308//308
f 281//281 299//299 300//300
f 299//299 279//279 296//296
f 300//300 296//296 280//280
f 299//299 296//296 300//300
f 282//282 305//305 301//301
f 305//305 281//281 297//297
f 301//301 297//297 274//274
f 305//305 297//297 301//301

