# https://github.com/mikedh/trimesh
v -0.31543867 0.56636445 0.00000000
v 0.31543867 0.56636445 0.00000000
v -0.31543867 -0.38636445 0.00000000
v 0.31543867 -0.38636445 0.00000000
v 0.00000000 -0.20440942 0.33175382
v 0.00000000 0.38440942 0.33175382
v 0.00000000 -0.20440942 -0.33175382
v 0.00000000 0.38440942 -0.33175382
v 0.51039049 0.09000000 -0.20503513
v 0.51039049 0.09000000 0.20503513
v -0.51039049 0.09000000 -0.20503513
v -0.51039049 0.09000000 0.20503513
v 0.00000000 0.65000000 0.00000000
v 0.00000000 -0.47000000 0.00000000
v -0.18541020 -0.36304952 0.19500000
v 0.18541020 -0.36304952 0.19500000
v -0.18541020 0.54304952 0.19500000
v 0.18541020 0.54304952 0.19500000
v 0.00000000 0.09000000 0.39000000
v -0.18541020 -0.36304952 -0.19500000
v 0.18541020 -0.36304952 -0.19500000
v -0.18541020 0.54304952 -0.19500000
v 0.18541020 0.54304952 -0.19500000
v 0.00000000 0.09000000 -0.39000000
v 0.48541020 0.37000000 -0.12051663
v 0.48541020 -0.19000000 -0.12051663
v 0.30000000 -0.08304952 -0.31551663
v 0.30000000 0.26304952 -0.31551663
v 0.48541020 0.37000000 0.12051663
v 0.48541020 -0.19000000 0.12051663
v 0.30000000 -0.08304952 0.31551663
v 0.30000000 0.26304952 0.31551663
v 0.60000000 0.09000000 0.00000000
v -0.48541020 0.37000000 -0.12051663
v -0.48541020 -0.19000000 -0.12051663
v -0.30000000 -0.08304952 -0.31551663
v -0.30000000 0.26304952 -0.31551663
v -0.48541020 0.37000000 0.12051663
v -0.48541020 -0.19000000 0.12051663
v -0.30000000 -0.08304952 0.31551663
v -0.30000000 0.26304952 0.31551663
v -0.60000000 0.09000000 0.00000000
v -0.16395992 0.62868548 0.00000000
v 0.16395992 0.62868548 0.00000000
v -0.16395992 -0.44868548 0.00000000
v 0.16395992 -0.44868548 0.00000000
v -0.26033314 -0.39309435 0.10135785
v -0.09637322 -0.29851707 0.27379811
v -0.09747591 -0.44259165 0.10251757
v 0.26033314 -0.39309435 0.10135785
v 0.09637322 -0.29851707 0.27379811
v 0.09747591 -0.44259165 0.10251757
v 0.00000000 -0.38636445 0.20503513
v -0.26033314 0.57309435 0.10135785
v -0.09637322 0.47851707 0.27379811
v -0.09747591 0.62259165 0.10251757
v 0.26033314 0.57309435 0.10135785
v 0.09637322 0.47851707 0.27379811
v 0.09747591 0.62259165 0.10251757
v 0.00000000 0.56636445 0.20503513
v 0.00000000 -0.06302926 0.37515596
v 0.00000000 0.24302926 0.37515596
v -0.26033314 -0.39309435 -0.10135785
v -0.09637322 -0.29851707 -0.27379811
v -0.09747591 -0.44259165 -0.10251757
v 0.26033314 -0.39309435 -0.10135785
v 0.09637322 -0.29851707 -0.27379811
v 0.09747591 -0.44259165 -0.10251757
v 0.00000000 -0.38636445 -0.20503513
v -0.26033314 0.57309435 -0.10135785
v -0.09637322 0.47851707 -0.27379811
v -0.09747591 0.62259165 -0.10251757
v 0.26033314 0.57309435 -0.10135785
v 0.09637322 0.47851707 -0.27379811
v 0.09747591 0.62259165 -0.10251757
v 0.00000000 0.56636445 -0.20503513
v 0.00000000 -0.06302926 -0.37515596
v 0.00000000 0.24302926 -0.37515596
v 0.41626829 0.48314601 -0.06264259
v 0.51760109 0.23553947 -0.16921654
v 0.35267115 0.47538694 -0.16587691
v 0.41626829 -0.30314601 -0.06264259
v 0.51760109 -0.05553947 -0.16921654
v 0.35267115 -0.29538694 -0.16587691
v 0.15593515 -0.15297760 -0.33644071
v 0.42122787 0.00005166 -0.27057439
v 0.25519524 -0.23915974 -0.26839447
v 0.15771933 -0.00097751 -0.37091204
v 0.41291458 -0.14818223 -0.22923625
v 0.15593515 0.33297760 -0.33644071
v 0.42122787 0.17994834 -0.27057439
v 0.25519524 0.41915974 -0.26839447
v 0.15771933 0.18097751 -0.37091204
v 0.41291458 0.32818223 -0.22923625
v 0.31543867 0.09000000 -0.33175382
v 0.41626829 0.48314601 0.06264259
v 0.51760109 0.23553947 0.16921654
v 0.35267115 0.47538694 0.16587691
v 0.51039049 0.38440942 0.00000000
v 0.41626829 -0.30314601 0.06264259
v 0.51760109 -0.05553947 0.16921654
v 0.35267115 -0.29538694 0.16587691
v 0.51039049 -0.20440942 0.00000000
v 0.15593515 -0.15297760 0.33644071
v 0.42122787 0.00005166 0.27057439
v 0.25519524 -0.23915974 0.26839447
v 0.15771933 -0.00097751 0.37091204
v 0.41291458 -0.14818223 0.22923625
v 0.15593515 0.33297760 0.33644071
v 0.42122787 0.17994834 0.27057439
v 0.25519524 0.41915974 0.26839447
v 0.15771933 0.18097751 0.37091204
v 0.41291458 0.32818223 0.22923625
v 0.31543867 0.09000000 0.33175382
v 0.57716301 0.09000000 -0.10657395
v 0.57716301 0.09000000 0.10657395
v 0.57063391 0.23720471 -0.06335934
v 0.57063391 -0.05720471 -0.06335934
v 0.57063391 0.23720471 0.06335934
v 0.57063391 -0.05720471 0.06335934
v -0.41626829 0.48314601 -0.06264259
v -0.51760109 0.23553947 -0.16921654
v -0.35267115 0.47538694 -0.16587691
v -0.41626829 -0.30314601 -0.06264259
v -0.51760109 -0.05553947 -0.16921654
v -0.35267115 -0.29538694 -0.16587691
v -0.15593515 -0.15297760 -0.33644071
v -0.42122787 0.00005166 -0.27057439
v -0.25519524 -0.23915974 -0.26839447
v -0.15771933 -0.00097751 -0.37091204
v -0.41291458 -0.14818223 -0.22923625
v -0.15593515 0.33297760 -0.33644071
v -0.42122787 0.17994834 -0.27057439
v -0.25519524 0.41915974 -0.26839447
v -0.15771933 0.18097751 -0.37091204
v -0.41291458 0.32818223 -0.22923625
v -0.31543867 0.09000000 -0.33175382
v -0.41626829 0.48314601 0.06264259
v -0.51760109 0.23553947 0.16921654
v -0.35267115 0.47538694 0.16587691
v -0.51039049 0.38440942 0.00000000
v -0.41626829 -0.30314601 0.06264259
v -0.51760109 -0.05553947 0.16921654
v -0.35267115 -0.29538694 0.16587691
v -0.51039049 -0.20440942 0.00000000
v -0.15593515 -0.15297760 0.33644071
v -0.42122787 0.00005166 0.27057439
v -0.25519524 -0.23915974 0.26839447
v -0.15771933 -0.00097751 0.37091204
v -0.41291458 -0.14818223 0.22923625
v -0.15593515 0.33297760 0.33644071
v -0.42122787 0.17994834 0.27057439
v -0.25519524 0.41915974 0.26839447
v -0.15771933 0.18097751 0.37091204
v -0.41291458 0.32818223 0.22923625
v -0.31543867 0.09000000 0.33175382
v -0.57716301 0.09000000 -0.10657395
v -0.57716301 0.09000000 0.10657395
v -0.57063391 0.23720471 -0.06335934
v -0.57063391 -0.05720471 -0.06335934
v -0.57063391 0.23720471 0.06335934
v -0.57063391 -0.05720471 0.06335934
v -0.22606438 -0.04973968 0.03000000
v 0.22606438 -0.04973968 0.03000000
v -0.22606438 -0.73026032 0.03000000
v 0.22606438 -0.73026032 0.03000000
v 0.00000000 -0.60029244 0.30220826
v 0.00000000 -0.17970756 0.30220826
v 0.00000000 -0.60029244 -0.24220826
v 0.00000000 -0.17970756 -0.24220826
v 0.36577985 -0.39000000 -0.13823396
v 0.36577985 -0.39000000 0.19823396
v -0.36577985 -0.39000000 -0.13823396
v -0.36577985 -0.39000000 0.19823396
v 0.00000000 0.01000000 0.03000000
v 0.00000000 -0.79000000 0.03000000
v -0.13287731 -0.71360680 0.19000000
v 0.13287731 -0.71360680 0.19000000
v -0.13287731 -0.06639320 0.19000000
v 0.13287731 -0.06639320 0.19000000
v 0.00000000 -0.39000000 0.35000000
v -0.13287731 -0.71360680 -0.13000000
v 0.13287731 -0.71360680 -0.13000000
v -0.13287731 -0.06639320 -0.13000000
v 0.13287731 -0.06639320 -0.13000000
v 0.00000000 -0.39000000 -0.29000000
v 0.34787731 -0.19000000 -0.06888544
v 0.34787731 -0.59000000 -0.06888544
v 0.21500000 -0.51360680 -0.22888544
v 0.21500000 -0.26639320 -0.22888544
v 0.34787731 -0.19000000 0.12888544
v 0.34787731 -0.59000000 0.12888544
v 0.21500000 -0.51360680 0.28888544
v 0.21500000 -0.26639320 0.28888544
v 0.43000000 -0.39000000 0.03000000
v -0.34787731 -0.19000000 -0.06888544
v -0.34787731 -0.59000000 -0.06888544
v -0.21500000 -0.51360680 -0.22888544
v -0.21500000 -0.26639320 -0.22888544
v -0.34787731 -0.19000000 0.12888544
v -0.34787731 -0.59000000 0.12888544
v -0.21500000 -0.51360680 0.28888544
v -0.21500000 -0.26639320 0.28888544
v -0.43000000 -0.39000000 0.03000000
v -0.11750461 -0.00522466 0.03000000
v 0.11750461 -0.00522466 0.03000000
v -0.11750461 -0.77477534 0.03000000
v 0.11750461 -0.77477534 0.03000000
v -0.18657208 -0.73506739 0.11316541
v -0.06906748 -0.66751219 0.25465486
v -0.06985773 -0.77042261 0.11411698
v 0.18657208 -0.73506739 0.11316541
v 0.06906748 -0.66751219 0.25465486
v 0.06985773 -0.77042261 0.11411698
v 0.00000000 -0.73026032 0.19823396
v -0.18657208 -0.04493261 0.11316541
v -0.06906748 -0.11248781 0.25465486
v -0.06985773 -0.00957739 0.11411698
v 0.18657208 -0.04493261 0.11316541
v 0.06906748 -0.11248781 0.25465486
v 0.06985773 -0.00957739 0.11411698
v 0.00000000 -0.04973968 0.19823396
v 0.00000000 -0.49930661 0.33782027
v 0.00000000 -0.28069339 0.33782027
v -0.18657208 -0.73506739 -0.05316541
v -0.06906748 -0.66751219 -0.19465486
v -0.06985773 -0.77042261 -0.05411698
v 0.18657208 -0.73506739 -0.05316541
v 0.06906748 -0.66751219 -0.19465486
v 0.06985773 -0.77042261 -0.05411698
v 0.00000000 -0.73026032 -0.13823396
v -0.18657208 -0.04493261 -0.05316541
v -0.06906748 -0.11248781 -0.19465486
v -0.06985773 -0.00957739 -0.05411698
v 0.18657208 -0.04493261 -0.05316541
v 0.06906748 -0.11248781 -0.19465486
v 0.06985773 -0.00957739 -0.05411698
v 0.00000000 -0.04973968 -0.13823396
v 0.00000000 -0.49930661 -0.27782027
v 0.00000000 -0.28069339 -0.27782027
v 0.29832561 -0.10918142 -0.02139905
v 0.37094745 -0.28604323 -0.10884434
v 0.25274766 -0.11472362 -0.10610413
v 0.29832561 -0.67081858 -0.02139905
v 0.37094745 -0.49395677 -0.10884434
v 0.25274766 -0.66527638 -0.10610413
v 0.11175352 -0.56355543 -0.24605391
v 0.30187997 -0.45424881 -0.19200975
v 0.18288992 -0.62511410 -0.19022111
v 0.11303219 -0.45498394 -0.27433809
v 0.29592211 -0.56013016 -0.15809128
v 0.11175352 -0.21644457 -0.24605391
v 0.30187997 -0.32575119 -0.19200975
v 0.18288992 -0.15488590 -0.19022111
v 0.11303219 -0.32501606 -0.27433809
v 0.29592211 -0.21986984 -0.15809128
v 0.22606438 -0.39000000 -0.24220826
v 0.29832561 -0.10918142 0.08139905
v 0.37094745 -0.28604323 0.16884434
v 0.25274766 -0.11472362 0.16610413
v 0.36577985 -0.17970756 0.03000000
v 0.29832561 -0.67081858 0.08139905
v 0.37094745 -0.49395677 0.16884434
v 0.25274766 -0.66527638 0.16610413
v 0.36577985 -0.60029244 0.03000000
v 0.11175352 -0.56355543 0.30605391
v 0.30187997 -0.45424881 0.25200975
v 0.18288992 -0.62511410 0.25022111
v 0.11303219 -0.45498394 0.33433809
v 0.29592211 -0.56013016 0.21809128
v 0.11175352 -0.21644457 0.30605391
v 0.30187997 -0.32575119 0.25200975
v 0.18288992 -0.15488590 0.25022111
v 0.11303219 -0.32501606 0.33433809
v 0.29592211 -0.21986984 0.21809128
v 0.22606438 -0.39000000 0.30220826
v 0.41363349 -0.39000000 -0.05744529
v 0.41363349 -0.39000000 0.11744529
v 0.40895430 -0.28485378 -0.02198715
v 0.40895430 -0.49514622 -0.02198715
v 0.40895430 -0.28485378 0.08198715
v 0.40895430 -0.49514622 0.08198715
v -0.29832561 -0.10918142 -0.02139905
v -0.37094745 -0.28604323 -0.10884434
v -0.25274766 -0.11472362 -0.10610413
v -0.29832561 -0.67081858 -0.02139905
v -0.37094745 -0.49395677 -0.10884434
v -0.25274766 -0.66527638 -0.10610413
v -0.11175352 -0.56355543 -0.24605391
v -0.30187997 -0.45424881 -0.19200975
v -0.18288992 -0.62511410 -0.19022111
v -0.11303219 -0.45498394 -0.27433809
v -0.29592211 -0.56013016 -0.15809128
v -0.11175352 -0.21644457 -0.24605391
v -0.30187997 -0.32575119 -0.19200975
v -0.18288992 -0.15488590 -0.19022111
v -0.11303219 -0.32501606 -0.27433809
v -0.29592211 -0.21986984 -0.15809128
v -0.22606438 -0.39000000 -0.24220826
v -0.29832561 -0.10918142 0.08139905
v -0.37094745 -0.28604323 0.16884434
v -0.25274766 -0.11472362 0.16610413
v -0.36577985 -0.17970756 0.03000000
v -0.29832561 -0.67081858 0.08139905
v -0.37094745 -0.49395677 0.16884434
v -0.25274766 -0.66527638 0.16610413
v -0.36577985 -0.60029244 0.03000000
v -0.11175352 -0.56355543 0.30605391
v -0.30187997 -0.45424881 0.25200975
v -0.18288992 -0.62511410 0.25022111
v -0.11303219 -0.45498394 0.33433809
v -0.29592211 -0.56013016 0.21809128
v -0.11175352 -0.21644457 0.30605391
v -0.30187997 -0.32575119 0.25200975
v -0.18288992 -0.15488590 0.25022111
v -0.11303219 -0.32501606 0.33433809
v -0.29592211 -0.21986984 0.21809128
v -0.22606438 -0.39000000 0.30220826
v -0.41363349 -0.39000000 -0.05744529
v -0.41363349 -0.39000000 0.11744529
v -0.40895430 -0.28485378 -0.02198715
v -0.40895430 -0.49514622 -0.02198715
v -0.40895430 -0.28485378 0.08198715
v -0.40895430 -0.49514622 0.08198715
v -0.69194740 0.49415619 0.02000000
v -0.40805260 0.49415619 0.02000000
v -0.69194740 0.08584381 0.02000000
v -0.40805260 0.08584381 0.02000000
v -0.55000000 0.16382453 0.30922127
v -0.55000000 0.41617547 0.30922127
v -0.55000000 0.16382453 -0.26922127
v -0.55000000 0.41617547 -0.26922127
v -0.32032428 0.29000000 -0.15874858
v -0.32032428 0.29000000 0.19874858
v -0.77967572 0.29000000 -0.15874858
v -0.77967572 0.29000000 0.19874858
v -0.55000000 0.53000000 0.02000000
v -0.55000000 0.05000000 0.02000000
v -0.63343459 0.09583592 0.19000000
v -0.46656541 0.09583592 0.19000000
v -0.63343459 0.48416408 0.19000000
v -0.46656541 0.48416408 0.19000000
v -0.55000000 0.29000000 0.36000000
v -0.63343459 0.09583592 -0.15000000
v -0.46656541 0.09583592 -0.15000000
v -0.63343459 0.48416408 -0.15000000
v -0.46656541 0.48416408 -0.15000000
v -0.55000000 0.29000000 -0.32000000
v -0.33156541 0.41000000 -0.08506578
v -0.33156541 0.17000000 -0.08506578
v -0.41500000 0.21583592 -0.25506578
v -0.41500000 0.36416408 -0.25506578
v -0.33156541 0.41000000 0.12506578
v -0.33156541 0.17000000 0.12506578
v -0.41500000 0.21583592 0.29506578
v -0.41500000 0.36416408 0.29506578
v -0.28000000 0.29000000 0.02000000
v -0.76843459 0.41000000 -0.08506578
v -0.76843459 0.17000000 -0.08506578
v -0.68500000 0.21583592 -0.25506578
v -0.68500000 0.36416408 -0.25506578
v -0.76843459 0.41000000 0.12506578
v -0.76843459 0.17000000 0.12506578
v -0.68500000 0.21583592 0.29506578
v -0.68500000 0.36416408 0.29506578
v -0.82000000 0.29000000 0.02000000
v -0.62378196 0.52086521 0.02000000
v -0.47621804 0.52086521 0.02000000
v -0.62378196 0.05913479 0.02000000
v -0.47621804 0.05913479 0.02000000
v -0.66714991 0.08295956 0.10836325
v -0.59336795 0.12349269 0.25869579
v -0.59386416 0.06174644 0.10937429
v -0.43285009 0.08295956 0.10836325
v -0.50663205 0.12349269 0.25869579
v -0.50613584 0.06174644 0.10937429
v -0.55000000 0.08584381 0.19874858
v -0.66714991 0.49704044 0.10836325
v -0.59336795 0.45650731 0.25869579
v -0.59386416 0.51825356 0.10937429
v -0.43285009 0.49704044 0.10836325
v -0.50663205 0.45650731 0.25869579
v -0.50613584 0.51825356 0.10937429
v -0.55000000 0.49415619 0.19874858
v -0.55000000 0.22441603 0.34705904
v -0.55000000 0.35558397 0.34705904
v -0.66714991 0.08295956 -0.06836325
v -0.59336795 0.12349269 -0.21869579
v -0.59386416 0.06174644 -0.06937429
v -0.43285009 0.08295956 -0.06836325
v -0.50663205 0.12349269 -0.21869579
v -0.50613584 0.06174644 -0.06937429
v -0.55000000 0.08584381 -0.15874858
v -0.66714991 0.49704044 -0.06836325
v -0.59336795 0.45650731 -0.21869579
v -0.59386416 0.51825356 -0.06937429
v -0.43285009 0.49704044 -0.06836325
v -0.50663205 0.45650731 -0.21869579
v -0.50613584 0.51825356 -0.06937429
v -0.55000000 0.49415619 -0.15874858
v -0.55000000 0.22441603 -0.30705904
v -0.55000000 0.35558397 -0.30705904
v -0.36267927 0.45849115 -0.03461149
v -0.31707951 0.35237406 -0.12752211
v -0.39129798 0.45516583 -0.12461064
v -0.36267927 0.12150885 -0.03461149
v -0.31707951 0.22762594 -0.12752211
v -0.39129798 0.12483417 -0.12461064
v -0.47982918 0.18586674 -0.27330728
v -0.36044746 0.25145071 -0.21588536
v -0.43516214 0.14893154 -0.21398493
v -0.47902630 0.25100964 -0.30335922
v -0.36418844 0.18792190 -0.17984699
v -0.47982918 0.39413326 -0.27330728
v -0.36044746 0.32854929 -0.21588536
v -0.43516214 0.43106846 -0.21398493
v -0.47902630 0.32899036 -0.30335922
v -0.36418844 0.39207810 -0.17984699
v -0.40805260 0.29000000 -0.26922127
v -0.36267927 0.45849115 0.07461149
v -0.31707951 0.35237406 0.16752211
v -0.39129798 0.45516583 0.16461064
v -0.32032428 0.41617547 0.02000000
v -0.36267927 0.12150885 0.07461149
v -0.31707951 0.22762594 0.16752211
v -0.39129798 0.12483417 0.16461064
v -0.32032428 0.16382453 0.02000000
v -0.47982918 0.18586674 0.31330728
v -0.36044746 0.25145071 0.25588536
v -0.43516214 0.14893154 0.25398493
v -0.47902630 0.25100964 0.34335922
v -0.36418844 0.18792190 0.21984699
v -0.47982918 0.39413326 0.31330728
v -0.36044746 0.32854929 0.25588536
v -0.43516214 0.43106846 0.25398493
v -0.47902630 0.32899036 0.34335922
v -0.36418844 0.39207810 0.21984699
v -0.40805260 0.29000000 0.30922127
v -0.29027664 0.29000000 -0.07291062
v -0.29027664 0.29000000 0.11291062
v -0.29321474 0.35308773 -0.03523635
v -0.29321474 0.22691227 -0.03523635
v -0.29321474 0.35308773 0.07523635
v -0.29321474 0.22691227 0.07523635
v -0.73732073 0.45849115 -0.03461149
v -0.78292049 0.35237406 -0.12752211
v -0.70870202 0.45516583 -0.12461064
v -0.73732073 0.12150885 -0.03461149
v -0.78292049 0.22762594 -0.12752211
v -0.70870202 0.12483417 -0.12461064
v -0.62017082 0.18586674 -0.27330728
v -0.73955254 0.25145071 -0.21588536
v -0.66483786 0.14893154 -0.21398493
v -0.62097370 0.25100964 -0.30335922
v -0.73581156 0.18792190 -0.17984699
v -0.62017082 0.39413326 -0.27330728
v -0.73955254 0.32854929 -0.21588536
v -0.66483786 0.43106846 -0.21398493
v -0.62097370 0.32899036 -0.30335922
v -0.73581156 0.39207810 -0.17984699
v -0.69194740 0.29000000 -0.26922127
v -0.73732073 0.45849115 0.07461149
v -0.78292049 0.35237406 0.16752211
v -0.70870202 0.45516583 0.16461064
v -0.77967572 0.41617547 0.02000000
v -0.73732073 0.12150885 0.07461149
v -0.78292049 0.22762594 0.16752211
v -0.70870202 0.12483417 0.16461064
v -0.77967572 0.16382453 0.02000000
v -0.62017082 0.18586674 0.31330728
v -0.73955254 0.25145071 0.25588536
v -0.66483786 0.14893154 0.25398493
v -0.62097370 0.25100964 0.34335922
v -0.73581156 0.18792190 0.21984699
v -0.62017082 0.39413326 0.31330728
v -0.73955254 0.32854929 0.25588536
v -0.66483786 0.43106846 0.25398493
v -0.62097370 0.32899036 0.34335922
v -0.73581156 0.39207810 0.21984699
v -0.69194740 0.29000000 0.30922127
v -0.80972336 0.29000000 -0.07291062
v -0.80972336 0.29000000 0.11291062
v -0.80678526 0.35308773 -0.03523635
v -0.80678526 0.22691227 -0.03523635
v -0.80678526 0.35308773 0.07523635
v -0.80678526 0.22691227 0.07523635
v 0.40805260 0.49415619 -0.01000000
v 0.69194740 0.49415619 -0.01000000
v 0.40805260 0.08584381 -0.01000000
v 0.69194740 0.08584381 -0.01000000
v 0.55000000 0.16382453 0.27922127
v 0.55000000 0.41617547 0.27922127
v 0.55000000 0.16382453 -0.29922127
v 0.55000000 0.41617547 -0.29922127
v 0.77967572 0.29000000 -0.18874858
v 0.77967572 0.29000000 0.16874858
v 0.32032428 0.29000000 -0.18874858
v 0.32032428 0.29000000 0.16874858
v 0.55000000 0.53000000 -0.01000000
v 0.55000000 0.05000000 -0.01000000
v 0.46656541 0.09583592 0.16000000
v 0.63343459 0.09583592 0.16000000
v 0.46656541 0.48416408 0.16000000
v 0.63343459 0.48416408 0.16000000
v 0.55000000 0.29000000 0.33000000
v 0.46656541 0.09583592 -0.18000000
v 0.63343459 0.09583592 -0.18000000
v 0.46656541 0.48416408 -0.18000000
v 0.63343459 0.48416408 -0.18000000
v 0.55000000 0.29000000 -0.35000000
v 0.76843459 0.41000000 -0.11506578
v 0.76843459 0.17000000 -0.11506578
v 0.68500000 0.21583592 -0.28506578
v 0.68500000 0.36416408 -0.28506578
v 0.76843459 0.41000000 0.09506578
v 0.76843459 0.17000000 0.09506578
v 0.68500000 0.21583592 0.26506578
v 0.68500000 0.36416408 0.26506578
v 0.82000000 0.29000000 -0.01000000
v 0.33156541 0.41000000 -0.11506578
v 0.33156541 0.17000000 -0.11506578
v 0.41500000 0.21583592 -0.28506578
v 0.41500000 0.36416408 -0.28506578
v 0.33156541 0.41000000 0.09506578
v 0.33156541 0.17000000 0.09506578
v 0.41500000 0.21583592 0.26506578
v 0.41500000 0.36416408 0.26506578
v 0.28000000 0.29000000 -0.01000000
v 0.47621804 0.52086521 -0.01000000
v 0.62378196 0.52086521 -0.01000000
v 0.47621804 0.05913479 -0.01000000
v 0.62378196 0.05913479 -0.01000000
v 0.43285009 0.08295956 0.07836325
v 0.50663205 0.12349269 0.22869579
v 0.50613584 0.06174644 0.07937429
v 0.66714991 0.08295956 0.07836325
v 0.59336795 0.12349269 0.22869579
v 0.59386416 0.06174644 0.07937429
v 0.55000000 0.08584381 0.16874858
v 0.43285009 0.49704044 0.07836325
v 0.50663205 0.45650731 0.22869579
v 0.50613584 0.51825356 0.07937429
v 0.66714991 0.49704044 0.07836325
v 0.59336795 0.45650731 0.22869579
v 0.59386416 0.51825356 0.07937429
v 0.55000000 0.49415619 0.16874858
v 0.55000000 0.22441603 0.31705904
v 0.55000000 0.35558397 0.31705904
v 0.43285009 0.08295956 -0.09836325
v 0.50663205 0.12349269 -0.24869579
v 0.50613584 0.06174644 -0.09937429
v 0.66714991 0.08295956 -0.09836325
v 0.59336795 0.12349269 -0.24869579
v 0.59386416 0.06174644 -0.09937429
v 0.55000000 0.08584381 -0.18874858
v 0.43285009 0.49704044 -0.09836325
v 0.50663205 0.45650731 -0.24869579
v 0.50613584 0.51825356 -0.09937429
v 0.66714991 0.49704044 -0.09836325
v 0.59336795 0.45650731 -0.24869579
v 0.59386416 0.51825356 -0.09937429
v 0.55000000 0.49415619 -0.18874858
v 0.55000000 0.22441603 -0.33705904
v 0.55000000 0.35558397 -0.33705904
v 0.73732073 0.45849115 -0.06461149
v 0.78292049 0.35237406 -0.15752211
v 0.70870202 0.45516583 -0.15461064
v 0.73732073 0.12150885 -0.06461149
v 0.78292049 0.22762594 -0.15752211
v 0.70870202 0.12483417 -0.15461064
v 0.62017082 0.18586674 -0.30330728
v 0.73955254 0.25145071 -0.24588536
v 0.66483786 0.14893154 -0.24398493
v 0.62097370 0.25100964 -0.33335922
v 0.73581156 0.18792190 -0.20984699
v 0.62017082 0.39413326 -0.30330728
v 0.73955254 0.32854929 -0.24588536
v 0.66483786 0.43106846 -0.24398493
v 0.62097370 0.32899036 -0.33335922
v 0.73581156 0.39207810 -0.20984699
v 0.69194740 0.29000000 -0.29922127
v 0.73732073 0.45849115 0.04461149
v 0.78292049 0.35237406 0.13752211
v 0.70870202 0.45516583 0.13461064
v 0.77967572 0.41617547 -0.01000000
v 0.73732073 0.12150885 0.04461149
v 0.78292049 0.22762594 0.13752211
v 0.70870202 0.12483417 0.13461064
v 0.77967572 0.16382453 -0.01000000
v 0.62017082 0.18586674 0.28330728
v 0.73955254 0.25145071 0.22588536
v 0.66483786 0.14893154 0.22398493
v 0.62097370 0.25100964 0.31335922
v 0.73581156 0.18792190 0.18984699
v 0.62017082 0.39413326 0.28330728
v 0.73955254 0.32854929 0.22588536
v 0.66483786 0.43106846 0.22398493
v 0.62097370 0.32899036 0.31335922
v 0.73581156 0.39207810 0.18984699
v 0.69194740 0.29000000 0.27922127
v 0.80972336 0.29000000 -0.10291062
v 0.80972336 0.29000000 0.08291062
v 0.80678526 0.35308773 -0.06523635
v 0.80678526 0.22691227 -0.06523635
v 0.80678526 0.35308773 0.04523635
v 0.80678526 0.22691227 0.04523635
v 0.36267927 0.45849115 -0.06461149
v 0.31707951 0.35237406 -0.15752211
v 0.39129798 0.45516583 -0.15461064
v 0.36267927 0.12150885 -0.06461149
v 0.31707951 0.22762594 -0.15752211
v 0.39129798 0.12483417 -0.15461064
v 0.47982918 0.18586674 -0.30330728
v 0.36044746 0.25145071 -0.24588536
v 0.43516214 0.14893154 -0.24398493
v 0.47902630 0.25100964 -0.33335922
v 0.36418844 0.18792190 -0.20984699
v 0.47982918 0.39413326 -0.30330728
v 0.36044746 0.32854929 -0.24588536
v 0.43516214 0.43106846 -0.24398493
v 0.47902630 0.32899036 -0.33335922
v 0.36418844 0.39207810 -0.20984699
v 0.40805260 0.29000000 -0.29922127
v 0.36267927 0.45849115 0.04461149
v 0.31707951 0.35237406 0.13752211
v 0.39129798 0.45516583 0.13461064
v 0.32032428 0.41617547 -0.01000000
v 0.36267927 0.12150885 0.04461149
v 0.31707951 0.22762594 0.13752211
v 0.39129798 0.12483417 0.13461064
v 0.32032428 0.16382453 -0.01000000
v 0.47982918 0.18586674 0.28330728
v 0.36044746 0.25145071 0.22588536
v 0.43516214 0.14893154 0.22398493
v 0.47902630 0.25100964 0.31335922
v 0.36418844 0.18792190 0.18984699
v 0.47982918 0.39413326 0.28330728
v 0.36044746 0.32854929 0.22588536
v 0.43516214 0.43106846 0.22398493
v 0.47902630 0.32899036 0.31335922
v 0.36418844 0.39207810 0.18984699
v 0.40805260 0.29000000 0.27922127
v 0.29027664 0.29000000 -0.10291062
v 0.29027664 0.29000000 0.08291062
v 0.29321474 0.35308773 -0.06523635
v 0.29321474 0.22691227 -0.06523635
v 0.29321474 0.35308773 0.04523635
v 0.29321474 0.22691227 0.04523635
v -0.45000000 -0.74500000 -0.25000000
v -0.45000000 -0.74500000 0.33000000
v -0.45000000 -0.61500000 -0.25000000
v -0.45000000 -0.61500000 0.33000000
v 0.45000000 -0.74500000 -0.25000000
v 0.45000000 -0.74500000 0.33000000
v 0.45000000 -0.61500000 -0.25000000
v 0.45000000 -0.61500000 0.33000000
vn -0.50236845 0.86465365 0.00000000
vn 0.50236845 0.86465365 0.00000000
vn -0.50236845 -0.86465365 -0.00000000
vn 0.50236845 -0.86465365 0.00000000
vn 0.00000000 -0.40063613 0.91623725
vn -0.00000000 0.40063613 0.91623725
vn 0.00000000 -0.40063613 -0.91623725
vn -0.00000000 0.40063613 -0.91623725
vn 0.73297389 0.00000000 -0.68025677
vn 0.73297389 -0.00000000 0.68025677
vn -0.73297389 0.00000000 -0.68025677
vn -0.73297389 0.00000000 0.68025677
vn -0.00000000 1.00000000 -0.00000000
vn 0.00000000 -1.00000000 -0.00000000
vn -0.25982193 -0.72901497 0.63326909
vn 0.25982193 -0.72901497 0.63326909
vn -0.25982193 0.72901497 0.63326909
vn 0.25982193 0.72901497 0.63326909
vn -0.00000000 0.00000000 1.00000000
vn -0.25982193 -0.72901497 -0.63326909
vn 0.25982193 -0.72901497 -0.63326909
vn -0.25982193 0.72901497 -0.63326909
vn 0.25982193 0.72901497 -0.63326909
vn -0.00000000 0.00000000 -1.00000000
vn 0.75469497 0.49686849 -0.42843577
vn 0.75469497 -0.49686849 -0.42843577
vn 0.36764928 -0.24396423 -0.89739371
vn 0.36764928 0.24396423 -0.89739371
vn 0.75469497 0.49686849 0.42843577
vn 0.75469497 -0.49686849 0.42843577
vn 0.36764928 -0.24396423 0.89739371
vn 0.36764928 0.24396423 0.89739371
vn 1.00000000 0.00000000 0.00000000
vn -0.75469497 0.49686849 -0.42843577
vn -0.75469497 -0.49686849 -0.42843577
vn -0.36764928 -0.24396423 -0.89739371
vn -0.36764928 0.24396423 -0.89739371
vn -0.75469497 0.49686849 0.42843577
vn -0.75469497 -0.49686849 0.42843577
vn -0.36764928 -0.24396423 0.89739371
vn -0.36764928 0.24396423 0.89739371
vn -1.00000000 -0.00000000 0.00000000
vn -0.26142152 0.96522474 0.00000000
vn 0.26142152 0.96522474 0.00000000
vn -0.26142152 -0.96522474 0.00000000
vn 0.26142152 -0.96522474 0.00000000
vn -0.39753328 -0.84605607 0.35518506
vn -0.12270333 -0.56834536 0.81358923
vn -0.13930556 -0.92082088 0.36425659
vn 0.39753328 -0.84605607 0.35518506
vn 0.12270333 -0.56834536 0.81358923
vn 0.13930556 -0.92082088 0.36425659
vn 0.00000000 -0.76283345 0.64659502
vn -0.39753328 0.84605607 0.35518506
vn -0.12270333 0.56834536 0.81358923
vn -0.13930556 0.92082088 0.36425659
vn 0.39753328 0.84605607 0.35518506
vn 0.12270333 0.56834536 0.81358923
vn 0.13930556 0.92082088 0.36425659
vn 0.00000000 0.76283345 0.64659502
vn -0.00000000 -0.19779845 0.98024271
vn 0.00000000 0.19779845 0.98024271
vn -0.39753328 -0.84605607 -0.35518506
vn -0.12270333 -0.56834536 -0.81358923
vn -0.13930556 -0.92082088 -0.36425659
vn 0.39753328 -0.84605607 -0.35518506
vn 0.12270333 -0.56834536 -0.81358923
vn 0.13930556 -0.92082088 -0.36425659
vn -0.00000000 -0.76283345 -0.64659502
vn -0.39753328 0.84605607 -0.35518506
vn -0.12270333 0.56834536 -0.81358923
vn -0.13930556 0.92082088 -0.36425659
vn 0.39753328 0.84605607 -0.35518506
vn 0.12270333 0.56834536 -0.81358923
vn 0.13930556 0.92082088 -0.36425659
vn 0.00000000 0.76283345 -0.64659502
vn -0.00000000 -0.19779845 -0.98024271
vn 0.00000000 0.19779845 -0.98024271
vn 0.66150575 0.71556231 -0.22445650
vn 0.77327970 0.24688765 -0.58402482
vn 0.51532382 0.64115110 -0.56865334
vn 0.66150575 -0.71556231 -0.22445650
vn 0.77327970 -0.24688765 -0.58402482
vn 0.51532382 -0.64115110 -0.56865334
vn 0.18285929 -0.33050224 -0.92592157
vn 0.55429535 -0.13508259 -0.82128519
vn 0.33946358 -0.49153492 -0.80197126
vn 0.18219840 -0.11152118 -0.97691697
vn 0.56524861 -0.38473152 -0.72970930
vn 0.18285929 0.33050224 -0.92592157
vn 0.55429535 0.13508259 -0.82128519
vn 0.33946358 0.49153492 -0.80197126
vn 0.18219840 0.11152118 -0.97691697
vn 0.56524861 0.38473152 -0.72970930
vn 0.37177872 0.00000000 -0.92832138
vn 0.66150575 0.71556231 0.22445650
vn 0.77327970 0.24688765 0.58402482
vn 0.51532382 0.64115110 0.56865334
vn 0.84131773 0.54054091 -0.00000000
vn 0.66150575 -0.71556231 0.22445650
vn 0.77327970 -0.24688765 0.58402482
vn 0.51532382 -0.64115110 0.56865334
vn 0.84131773 -0.54054091 -0.00000000
vn 0.18285929 -0.33050224 0.92592157
vn 0.55429535 -0.13508259 0.82128519
vn 0.33946358 -0.49153492 0.80197126
vn 0.18219840 -0.11152118 0.97691697
vn 0.56524861 -0.38473152 0.72970930
vn 0.18285929 0.33050224 0.92592157
vn 0.55429535 0.13508259 0.82128519
vn 0.33946358 0.49153492 0.80197126
vn 0.18219840 0.11152118 0.97691697
vn 0.56524861 0.38473152 0.72970930
vn 0.37177872 0.00000000 0.92832138
vn 0.92001685 -0.00000000 -0.39187879
vn 0.92001685 0.00000000 0.39187879
vn 0.93363145 0.27989310 -0.22358931
vn 0.93363145 -0.27989310 -0.22358931
vn 0.93363145 0.27989310 0.22358931
vn 0.93363145 -0.27989310 0.22358931
vn -0.66150575 0.71556231 -0.22445650
vn -0.77327970 0.24688765 -0.58402482
vn -0.51532382 0.64115110 -0.56865334
vn -0.66150575 -0.71556231 -0.22445650
vn -0.77327970 -0.24688765 -0.58402482
vn -0.51532382 -0.64115110 -0.56865334
vn -0.18285929 -0.33050224 -0.92592157
vn -0.55429535 -0.13508259 -0.82128519
vn -0.33946358 -0.49153492 -0.80197126
vn -0.18219840 -0.11152118 -0.97691697
vn -0.56524861 -0.38473152 -0.72970930
vn -0.18285929 0.33050224 -0.92592157
vn -0.55429535 0.13508259 -0.82128519
vn -0.33946358 0.49153492 -0.80197126
vn -0.18219840 0.11152118 -0.97691697
vn -0.56524861 0.38473152 -0.72970930
vn -0.37177872 -0.00000000 -0.92832138
vn -0.66150575 0.71556231 0.22445650
vn -0.77327970 0.24688765 0.58402482
vn -0.51532382 0.64115110 0.56865334
vn -0.84131773 0.54054091 -0.00000000
vn -0.66150575 -0.71556231 0.22445650
vn -0.77327970 -0.24688765 0.58402482
vn -0.51532382 -0.64115110 0.56865334
vn -0.84131773 -0.54054091 -0.00000000
vn -0.18285929 -0.33050224 0.92592157
vn -0.55429535 -0.13508259 0.82128519
vn -0.33946358 -0.49153492 0.80197126
vn -0.18219840 -0.11152118 0.97691697
vn -0.56524861 -0.38473152 0.72970930
vn -0.18285929 0.33050224 0.92592157
vn -0.55429535 0.13508259 0.82128519
vn -0.33946358 0.49153492 0.80197126
vn -0.18219840 0.11152118 0.97691697
vn -0.56524861 0.38473152 0.72970930
vn -0.37177872 -0.00000000 0.92832138
vn -0.92001685 0.00000000 -0.39187879
vn -0.92001685 -0.00000000 0.39187879
vn -0.93363145 0.27989310 -0.22358931
vn -0.93363145 -0.27989310 -0.22358931
vn -0.93363145 0.27989310 0.22358931
vn -0.93363145 -0.27989310 0.22358931
vn -0.50038043 0.86580565 -0.00000000
vn 0.50038043 0.86580565 0.00000000
vn -0.50038043 -0.86580565 -0.00000000
vn 0.50038043 -0.86580565 -0.00000000
vn -0.00000000 -0.44696070 0.89455359
vn 0.00000000 0.44696070 0.89455359
vn 0.00000000 -0.44696070 -0.89455359
vn -0.00000000 0.44696070 -0.89455359
vn 0.77439742 -0.00000000 -0.63269949
vn 0.77439742 0.00000000 0.63269949
vn -0.77439742 0.00000000 -0.63269949
vn -0.77439742 -0.00000000 0.63269949
vn 0.00000000 1.00000000 -0.00000000
vn -0.00000000 -1.00000000 -0.00000000
vn -0.27226374 -0.76496816 0.58369184
vn 0.27226374 -0.76496816 0.58369184
vn -0.27226374 0.76496816 0.58369184
vn 0.27226374 0.76496816 0.58369184
vn 0.00000000 0.00000000 1.00000000
vn -0.27226374 -0.76496816 -0.58369184
vn 0.27226374 -0.76496816 -0.58369184
vn -0.27226374 0.76496816 -0.58369184
vn 0.27226374 0.76496816 -0.58369184
vn -0.00000000 0.00000000 -1.00000000
vn 0.76942628 0.50858031 -0.38643146
vn 0.76942628 -0.50858031 -0.38643146
vn 0.40700935 -0.27049100 -0.87245516
vn 0.40700935 0.27049100 -0.87245516
vn 0.76942628 0.50858031 0.38643146
vn 0.76942628 -0.50858031 0.38643146
vn 0.40700935 -0.27049100 0.87245516
vn 0.40700935 0.27049100 0.87245516
vn 1.00000000 0.00000000 0.00000000
vn -0.76942628 0.50858031 -0.38643146
vn -0.76942628 -0.50858031 -0.38643146
vn -0.40700935 -0.27049100 -0.87245516
vn -0.40700935 0.27049100 -0.87245516
vn -0.76942628 0.50858031 0.38643146
vn -0.76942628 -0.50858031 0.38643146
vn -0.40700935 -0.27049100 0.87245516
vn -0.40700935 0.27049100 0.87245516
vn -1.00000000 -0.00000000 0.00000000
vn -0.25968335 0.96569382 0.00000000
vn 0.25968335 0.96569382 0.00000000
vn -0.25968335 -0.96569382 0.00000000
vn 0.25968335 -0.96569382 0.00000000
vn -0.40276111 -0.85859931 0.31716038
vn -0.13301582 -0.61770729 0.77507709
vn -0.14106170 -0.93489889 0.32567723
vn 0.40276111 -0.85859931 0.31716038
vn 0.13301582 -0.61770729 0.77507709
vn 0.14106170 -0.93489889 0.32567723
vn 0.00000000 -0.80190808 0.59744742
vn -0.40276111 0.85859931 0.31716038
vn -0.13301582 0.61770729 0.77507709
vn -0.14106170 0.93489889 0.32567723
vn 0.40276111 0.85859931 0.31716038
vn 0.13301582 0.61770729 0.77507709
vn 0.14106170 0.93489889 0.32567723
vn -0.00000000 0.80190808 0.59744742
vn 0.00000000 -0.22492973 0.97437499
vn 0.00000000 0.22492973 0.97437499
vn -0.40276111 -0.85859931 -0.31716038
vn -0.13301582 -0.61770729 -0.77507709
vn -0.14106170 -0.93489889 -0.32567723
vn 0.40276111 -0.85859931 -0.31716038
vn 0.13301582 -0.61770729 -0.77507709
vn 0.14106170 -0.93489889 -0.32567723
vn 0.00000000 -0.80190808 -0.59744742
vn -0.40276111 0.85859931 -0.31716038
vn -0.13301582 0.61770729 -0.77507709
vn -0.14106170 0.93489889 -0.32567723
vn 0.40276111 0.85859931 -0.31716038
vn 0.13301582 0.61770729 -0.77507709
vn 0.14106170 0.93489889 -0.32567723
vn 0.00000000 0.80190808 -0.59744742
vn 0.00000000 -0.22492973 -0.97437499
vn -0.00000000 0.22492973 -0.97437499
vn 0.66366421 0.72082373 -0.19990740
vn 0.80435182 0.25754340 -0.53543398
vn 0.53441259 0.66599010 -0.52044248
vn 0.66366421 -0.72082373 -0.19990740
vn 0.80435182 -0.25754340 -0.53543398
vn 0.53441259 -0.66599010 -0.52044248
vn 0.20409120 -0.36966631 -0.90647317
vn 0.60225812 -0.14684110 -0.78468009
vn 0.36699404 -0.53265956 -0.76261994
vn 0.20629530 -0.12663562 -0.97026062
vn 0.60218547 -0.41072195 -0.68460218
vn 0.20409120 0.36966631 -0.90647317
vn 0.60225812 0.14684110 -0.78468009
vn 0.36699404 0.53265956 -0.76261994
vn 0.20629530 0.12663562 -0.97026062
vn 0.60218547 0.41072195 -0.68460218
vn 0.41491732 0.00000000 -0.90985912
vn 0.66366421 0.72082373 0.19990740
vn 0.80435182 0.25754340 0.53543398
vn 0.53441259 0.66599010 0.52044248
vn 0.84031276 0.54210189 -0.00000000
vn 0.66366421 -0.72082373 0.19990740
vn 0.80435182 -0.25754340 0.53543398
vn 0.53441259 -0.66599010 0.52044248
vn 0.84031276 -0.54210189 0.00000000
vn 0.20409120 -0.36966631 0.90647317
vn 0.60225812 -0.14684110 0.78468009
vn 0.36699404 -0.53265956 0.76261994
vn 0.20629530 -0.12663562 0.97026062
vn 0.60218547 -0.41072195 0.68460218
vn 0.20409120 0.36966631 0.90647317
vn 0.60225812 0.14684110 0.78468009
vn 0.36699404 0.53265956 0.76261994
vn 0.20629530 0.12663562 0.97026062
vn 0.60218547 0.41072195 0.68460218
vn 0.41491732 0.00000000 0.90985912
vn 0.93582113 0.00000000 -0.35247526
vn 0.93582113 -0.00000000 0.35247526
vn 0.93832352 0.28263000 -0.19917142
vn 0.93832352 -0.28263000 -0.19917142
vn 0.93832352 0.28263000 0.19917142
vn 0.93832352 -0.28263000 0.19917142
vn -0.66366421 0.72082373 -0.19990740
vn -0.80435182 0.25754340 -0.53543398
vn -0.53441259 0.66599010 -0.52044248
vn -0.66366421 -0.72082373 -0.19990740
vn -0.80435182 -0.25754340 -0.53543398
vn -0.53441259 -0.66599010 -0.52044248
vn -0.20409120 -0.36966631 -0.90647317
vn -0.60225812 -0.14684110 -0.78468009
vn -0.36699404 -0.53265956 -0.76261994
vn -0.20629530 -0.12663562 -0.97026062
vn -0.60218547 -0.41072195 -0.68460218
vn -0.20409120 0.36966631 -0.90647317
vn -0.60225812 0.14684110 -0.78468009
vn -0.36699404 0.53265956 -0.76261994
vn -0.20629530 0.12663562 -0.97026062
vn -0.60218547 0.41072195 -0.68460218
vn -0.41491732 -0.00000000 -0.90985912
vn -0.66366421 0.72082373 0.19990740
vn -0.80435182 0.25754340 0.53543398
vn -0.53441259 0.66599010 0.52044248
vn -0.84031276 0.54210189 0.00000000
vn -0.66366421 -0.72082373 0.19990740
vn -0.80435182 -0.25754340 0.53543398
vn -0.53441259 -0.66599010 0.52044248
vn -0.84031276 -0.54210189 -0.00000000
vn -0.20409120 -0.36966631 0.90647317
vn -0.60225812 -0.14684110 0.78468009
vn -0.36699404 -0.53265956 0.76261994
vn -0.20629530 -0.12663562 0.97026062
vn -0.60218547 -0.41072195 0.68460218
vn -0.20409120 0.36966631 0.90647317
vn -0.60225812 0.14684110 0.78468009
vn -0.36699404 0.53265956 0.76261994
vn -0.20629530 0.12663562 0.97026062
vn -0.60218547 0.41072195 0.68460218
vn -0.41491732 0.00000000 0.90985912
vn -0.93582113 -0.00000000 -0.35247526
vn -0.93582113 0.00000000 0.35247526
vn -0.93832352 0.28263000 -0.19917142
vn -0.93832352 -0.28263000 -0.19917142
vn -0.93832352 0.28263000 0.19917142
vn -0.93832352 -0.28263000 0.19917142
vn -0.48407050 0.87502900 -0.00000000
vn 0.48407050 0.87502900 -0.00000000
vn -0.48407050 -0.87502900 0.00000000
vn 0.48407050 -0.87502900 0.00000000
vn -0.00000000 -0.65127904 0.75883833
vn 0.00000000 0.65127904 0.75883833
vn -0.00000000 -0.65127904 -0.75883833
vn 0.00000000 0.65127904 -0.75883833
vn 0.89553663 0.00000000 -0.44498779
vn 0.89553663 0.00000000 0.44498779
vn -0.89553663 -0.00000000 -0.44498779
vn -0.89553663 0.00000000 0.44498779
vn 0.00000000 1.00000000 -0.00000000
vn 0.00000000 -1.00000000 0.00000000
vn -0.29905961 -0.87242958 0.38656173
vn 0.29905961 -0.87242958 0.38656173
vn -0.29905961 0.87242958 0.38656173
vn 0.29905961 0.87242958 0.38656173
vn 0.00000000 0.00000000 1.00000000
vn -0.29905961 -0.87242958 -0.38656173
vn 0.29905961 -0.87242958 -0.38656173
vn -0.29905961 0.87242958 -0.38656173
vn 0.29905961 0.87242958 -0.38656173
vn -0.00000000 0.00000000 -1.00000000
vn 0.79766438 0.55141051 -0.24429077
vn 0.79766438 -0.55141051 -0.24429077
vn 0.56174600 -0.38596100 -0.73176194
vn 0.56174600 0.38596100 -0.73176194
vn 0.79766438 0.55141051 0.24429077
vn 0.79766438 -0.55141051 0.24429077
vn 0.56174600 -0.38596100 0.73176194
vn 0.56174600 0.38596100 0.73176194
vn 1.00000000 0.00000000 0.00000000
vn -0.79766438 0.55141051 -0.24429077
vn -0.79766438 -0.55141051 -0.24429077
vn -0.56174600 -0.38596100 -0.73176194
vn -0.56174600 0.38596100 -0.73176194
vn -0.79766438 0.55141051 0.24429077
vn -0.79766438 -0.55141051 0.24429077
vn -0.56174600 -0.38596100 0.73176194
vn -0.56174600 0.38596100 0.73176194
vn -1.00000000 0.00000000 0.00000000
vn -0.24709569 0.96899108 -0.00000000
vn 0.24709569 0.96899108 -0.00000000
vn -0.24709569 -0.96899108 -0.00000000
vn 0.24709569 -0.96899108 -0.00000000
vn -0.40408995 -0.89454012 0.19107404
vn -0.16419381 -0.79690444 0.58136367
vn -0.14002852 -0.97061141 0.19571792
vn 0.40408995 -0.89454012 0.19107404
vn 0.16419381 -0.79690444 0.58136367
vn 0.14002852 -0.97061141 0.19571792
vn 0.00000000 -0.91767232 0.39733803
vn -0.40408995 0.89454012 0.19107404
vn -0.16419381 0.79690444 0.58136367
vn -0.14002852 0.97061141 0.19571792
vn 0.40408995 0.89454012 0.19107404
vn 0.16419381 0.79690444 0.58136367
vn 0.14002852 0.97061141 0.19571792
vn 0.00000000 0.91767232 0.39733803
vn -0.00000000 -0.36804798 0.92980680
vn 0.00000000 0.36804798 0.92980680
vn -0.40408995 -0.89454012 -0.19107404
vn -0.16419381 -0.79690444 -0.58136367
vn -0.14002852 -0.97061141 -0.19571792
vn 0.40408995 -0.89454012 -0.19107404
vn 0.16419381 -0.79690444 -0.58136367
vn 0.14002852 -0.97061141 -0.19571792
vn 0.00000000 -0.91767232 -0.39733803
vn -0.40408995 0.89454012 -0.19107404
vn -0.16419381 0.79690444 -0.58136367
vn -0.14002852 0.97061141 -0.19571792
vn 0.40408995 0.89454012 -0.19107404
vn 0.16419381 0.79690444 -0.58136367
vn 0.14002852 0.97061141 -0.19571792
vn 0.00000000 0.91767232 -0.39733803
vn -0.00000000 -0.36804798 -0.92980680
vn 0.00000000 0.36804798 -0.92980680
vn 0.65600983 0.74486701 -0.12175481
vn 0.88570673 0.29670649 -0.35705581
vn 0.57454729 0.74430477 -0.34044944
vn 0.65600983 -0.74486701 -0.12175481
vn 0.88570673 -0.29670649 -0.35705581
vn 0.57454729 -0.74430477 -0.34044944
vn 0.29173739 -0.54773293 -0.78414152
vn 0.76905972 -0.19332775 -0.60923848
vn 0.45307692 -0.68365645 -0.57213212
vn 0.32270569 -0.20593497 -0.92382456
vn 0.71099359 -0.50341963 -0.49097534
vn 0.29173739 0.54773293 -0.78414152
vn 0.76905972 0.19332775 -0.60923848
vn 0.45307692 0.68365645 -0.57213212
vn 0.32270569 0.20593497 -0.92382456
vn 0.71099359 0.50341963 -0.49097534
vn 0.59908828 0.00000000 -0.80068298
vn 0.65600983 0.74486701 0.12175481
vn 0.88570673 0.29670649 0.35705581
vn 0.57454729 0.74430477 0.34044944
vn 0.82859132 0.55985392 -0.00000000
vn 0.65600983 -0.74486701 0.12175481
vn 0.88570673 -0.29670649 0.35705581
vn 0.57454729 -0.74430477 0.34044944
vn 0.82859132 -0.55985392 0.00000000
vn 0.29173739 -0.54773293 0.78414152
vn 0.76905972 -0.19332775 0.60923848
vn 0.45307692 -0.68365645 0.57213212
vn 0.32270569 -0.20593497 0.92382456
vn 0.71099359 -0.50341963 0.49097534
vn 0.29173739 0.54773293 0.78414152
vn 0.76905972 0.19332775 0.60923848
vn 0.45307692 0.68365645 0.57213212
vn 0.32270569 0.20593497 0.92382456
vn 0.71099359 0.50341963 0.49097534
vn 0.59908828 0.00000000 0.80068298
vn 0.97427969 0.00000000 -0.22534214
vn 0.97427969 0.00000000 0.22534214
vn 0.94627016 0.29920492 -0.12267517
vn 0.94627016 -0.29920492 -0.12267517
vn 0.94627016 0.29920492 0.12267517
vn 0.94627016 -0.29920492 0.12267517
vn -0.65600983 0.74486701 -0.12175481
vn -0.88570673 0.29670649 -0.35705581
vn -0.57454729 0.74430477 -0.34044944
vn -0.65600983 -0.74486701 -0.12175481
vn -0.88570673 -0.29670649 -0.35705581
vn -0.57454729 -0.74430477 -0.34044944
vn -0.29173739 -0.54773293 -0.78414152
vn -0.76905972 -0.19332775 -0.60923848
vn -0.45307692 -0.68365645 -0.57213212
vn -0.32270569 -0.20593497 -0.92382456
vn -0.71099359 -0.50341963 -0.49097534
vn -0.29173739 0.54773293 -0.78414152
vn -0.76905972 0.19332775 -0.60923848
vn -0.45307692 0.68365645 -0.57213212
vn -0.32270569 0.20593497 -0.92382456
vn -0.71099359 0.50341963 -0.49097534
vn -0.59908828 -0.00000000 -0.80068298
vn -0.65600983 0.74486701 0.12175481
vn -0.88570673 0.29670649 0.35705581
vn -0.57454729 0.74430477 0.34044944
vn -0.82859132 0.55985392 -0.00000000
vn -0.65600983 -0.74486701 0.12175481
vn -0.88570673 -0.29670649 0.35705581
vn -0.57454729 -0.74430477 0.34044944
vn -0.82859132 -0.55985392 0.00000000
vn -0.29173739 -0.54773293 0.78414152
vn -0.76905972 -0.19332775 0.60923848
vn -0.45307692 -0.68365645 0.57213212
vn -0.32270569 -0.20593497 0.92382456
vn -0.71099359 -0.50341963 0.49097534
vn -0.29173739 0.54773293 0.78414152
vn -0.76905972 0.19332775 0.60923848
vn -0.45307692 0.68365645 0.57213212
vn -0.32270569 0.20593497 0.92382456
vn -0.71099359 0.50341963 0.49097534
vn -0.59908828 0.00000000 0.80068298
vn -0.97427969 0.00000000 -0.22534214
vn -0.97427969 0.00000000 0.22534214
vn -0.94627016 0.29920492 -0.12267517
vn -0.94627016 -0.29920492 -0.12267517
vn -0.94627016 0.29920492 0.12267517
vn -0.94627016 -0.29920492 0.12267517
vn -0.48407050 0.87502900 -0.00000000
vn 0.48407050 0.87502900 0.00000000
vn -0.48407050 -0.87502900 0.00000000
vn 0.48407050 -0.87502900 -0.00000000
vn 0.00000000 -0.65127904 0.75883833
vn 0.00000000 0.65127904 0.75883833
vn -0.00000000 -0.65127904 -0.75883833
vn 0.00000000 0.65127904 -0.75883833
vn 0.89553663 0.00000000 -0.44498779
vn 0.89553663 -0.00000000 0.44498779
vn -0.89553663 0.00000000 -0.44498779
vn -0.89553663 0.00000000 0.44498779
vn 0.00000000 1.00000000 -0.00000000
vn 0.00000000 -1.00000000 0.00000000
vn -0.29905961 -0.87242958 0.38656173
vn 0.29905961 -0.87242958 0.38656173
vn -0.29905961 0.87242958 0.38656173
vn 0.29905961 0.87242958 0.38656173
vn 0.00000000 0.00000000 1.00000000
vn -0.29905961 -0.87242958 -0.38656173
vn 0.29905961 -0.87242958 -0.38656173
vn -0.29905961 0.87242958 -0.38656173
vn 0.29905961 0.87242958 -0.38656173
vn -0.00000000 0.00000000 -1.00000000
vn 0.79766438 0.55141051 -0.24429077
vn 0.79766438 -0.55141051 -0.24429077
vn 0.56174600 -0.38596100 -0.73176194
vn 0.56174600 0.38596100 -0.73176194
vn 0.79766438 0.55141051 0.24429077
vn 0.79766438 -0.55141051 0.24429077
vn 0.56174600 -0.38596100 0.73176194
vn 0.56174600 0.38596100 0.73176194
vn 1.00000000 0.00000000 0.00000000
vn -0.79766438 0.55141051 -0.24429077
vn -0.79766438 -0.55141051 -0.24429077
vn -0.56174600 -0.38596100 -0.73176194
vn -0.56174600 0.38596100 -0.73176194
vn -0.79766438 0.55141051 0.24429077
vn -0.79766438 -0.55141051 0.24429077
vn -0.56174600 -0.38596100 0.73176194
vn -0.56174600 0.38596100 0.73176194
vn -1.00000000 0.00000000 0.00000000
vn -0.24709569 0.96899108 -0.00000000
vn 0.24709569 0.96899108 -0.00000000
vn -0.24709569 -0.96899108 -0.00000000
vn 0.24709569 -0.96899108 -0.00000000
vn -0.40408995 -0.89454012 0.19107404
vn -0.16419381 -0.79690444 0.58136367
vn -0.14002852 -0.97061141 0.19571792
vn 0.40408995 -0.89454012 0.19107404
vn 0.16419381 -0.79690444 0.58136367
vn 0.14002852 -0.97061141 0.19571792
vn -0.00000000 -0.91767232 0.39733803
vn -0.40408995 0.89454012 0.19107404
vn -0.16419381 0.79690444 0.58136367
vn -0.14002852 0.97061141 0.19571792
vn 0.40408995 0.89454012 0.19107404
vn 0.16419381 0.79690444 0.58136367
vn 0.14002852 0.97061141 0.19571792
vn -0.00000000 0.91767232 0.39733803
vn -0.00000000 -0.36804798 0.92980680
vn 0.00000000 0.36804798 0.92980680
vn -0.40408995 -0.89454012 -0.19107404
vn -0.16419381 -0.79690444 -0.58136367
vn -0.14002852 -0.97061141 -0.19571792
vn 0.40408995 -0.89454012 -0.19107404
vn 0.16419381 -0.79690444 -0.58136367
vn 0.14002852 -0.97061141 -0.19571792
vn -0.00000000 -0.91767232 -0.39733803
vn -0.40408995 0.89454012 -0.19107404
vn -0.16419381 0.79690444 -0.58136367
vn -0.14002852 0.97061141 -0.19571792
vn 0.40408995 0.89454012 -0.19107404
vn 0.16419381 0.79690444 -0.58136367
vn 0.14002852 0.97061141 -0.19571792
vn -0.00000000 0.91767232 -0.39733803
vn -0.00000000 -0.36804798 -0.92980680
vn 0.00000000 0.36804798 -0.92980680
vn 0.65600983 0.74486701 -0.12175481
vn 0.88570673 0.29670649 -0.35705581
vn 0.57454729 0.74430477 -0.34044944
vn 0.65600983 -0.74486701 -0.12175481
vn 0.88570673 -0.29670649 -0.35705581
vn 0.57454729 -0.74430477 -0.34044944
vn 0.29173739 -0.54773293 -0.78414152
vn 0.76905972 -0.19332775 -0.60923848
vn 0.45307692 -0.68365645 -0.57213212
vn 0.32270569 -0.20593497 -0.92382456
vn 0.71099359 -0.50341963 -0.49097534
vn 0.29173739 0.54773293 -0.78414152
vn 0.76905972 0.19332775 -0.60923848
vn 0.45307692 0.68365645 -0.57213212
vn 0.32270569 0.20593497 -0.92382456
vn 0.71099359 0.50341963 -0.49097534
vn 0.59908828 0.00000000 -0.80068298
vn 0.65600983 0.74486701 0.12175481
vn 0.88570673 0.29670649 0.35705581
vn 0.57454729 0.74430477 0.34044944
vn 0.82859132 0.55985392 -0.00000000
vn 0.65600983 -0.74486701 0.12175481
vn 0.88570673 -0.29670649 0.35705581
vn 0.57454729 -0.74430477 0.34044944
vn 0.82859132 -0.55985392 -0.00000000
vn 0.29173739 -0.54773293 0.78414152
vn 0.76905972 -0.19332775 0.60923848
vn 0.45307692 -0.68365645 0.57213212
vn 0.32270569 -0.20593497 0.92382456
vn 0.71099359 -0.50341963 0.49097534
vn 0.29173739 0.54773293 0.78414152
vn 0.76905972 0.19332775 0.60923848
vn 0.45307692 0.68365645 0.57213212
vn 0.32270569 0.20593497 0.92382456
vn 0.71099359 0.50341963 0.49097534
vn 0.59908828 0.00000000 0.80068298
vn 0.97427969 0.00000000 -0.22534214
vn 0.97427969 -0.00000000 0.22534214
vn 0.94627016 0.29920492 -0.12267517
vn 0.94627016 -0.29920492 -0.12267517
vn 0.94627016 0.29920492 0.12267517
vn 0.94627016 -0.29920492 0.12267517
vn -0.65600983 0.74486701 -0.12175481
vn -0.88570673 0.29670649 -0.35705581
vn -0.57454729 0.74430477 -0.34044944
vn -0.65600983 -0.74486701 -0.12175481
vn -0.88570673 -0.29670649 -0.35705581
vn -0.57454729 -0.74430477 -0.34044944
vn -0.29173739 -0.54773293 -0.78414152
vn -0.76905972 -0.19332775 -0.60923848
vn -0.45307692 -0.68365645 -0.57213212
vn -0.32270569 -0.20593497 -0.92382456
vn -0.71099359 -0.50341963 -0.49097534
vn -0.29173739 0.54773293 -0.78414152
vn -0.76905972 0.19332775 -0.60923848
vn -0.45307692 0.68365645 -0.57213212
vn -0.32270569 0.20593497 -0.92382456
vn -0.71099359 0.50341963 -0.49097534
vn -0.59908828 0.00000000 -0.80068298
vn -0.65600983 0.74486701 0.12175481
vn -0.88570673 0.29670649 0.35705581
vn -0.57454729 0.74430477 0.34044944
vn -0.82859132 0.55985392 0.00000000
vn -0.65600983 -0.74486701 0.12175481
vn -0.88570673 -0.29670649 0.35705581
vn -0.57454729 -0.74430477 0.34044944
vn -0.82859132 -0.55985392 0.00000000
vn -0.29173739 -0.54773293 0.78414152
vn -0.76905972 -0.19332775 0.60923848
vn -0.45307692 -0.68365645 0.57213212
vn -0.32270569 -0.20593497 0.92382456
vn -0.71099359 -0.50341963 0.49097534
vn -0.29173739 0.54773293 0.78414152
vn -0.76905972 0.19332775 0.60923848
vn -0.45307692 0.68365645 0.57213212
vn -0.32270569 0.20593497 0.92382456
vn -0.71099359 0.50341963 0.49097534
vn -0.59908828 0.00000000 0.80068298
vn -0.97427969 0.00000000 -0.22534214
vn -0.97427969 -0.00000000 0.22534214
vn -0.94627016 0.29920492 -0.12267517
vn -0.94627016 -0.29920492 -0.12267517
vn -0.94627016 0.29920492 0.12267517
vn -0.94627016 -0.29920492 0.12267517
vn -0.57735027 -0.57735027 -0.57735027
vn -0.57735027 -0.57735027 0.57735027
vn -0.57735027 0.57735027 -0.57735027
vn -0.57735027 0.57735027 0.57735027
vn 0.57735027 -0.57735027 -0.57735027
vn 0.57735027 -0.57735027 0.57735027
vn 0.57735027 0.57735027 -0.57735027
vn 0.57735027 0.57735027 0.57735027
f 1//1 138//138 54//54
f 138//138 38//38 140//140
f 54//54 140//140 17//17
f 138//138 140//140 54//54
f 38//38 139//139 155//155
f 139//139 12//12 152//152
f 155//155 152//152 41//41
f 139//139 152//152 155//155
f 17//17 153//153 55//55
f 153//153 41//41 151//151
f 55//55 151//151 6//6
f 153//153 151//151 55//55
f 38//38 155//155 140//140
f 155//155 41//41 153//153
f 140//140 153//153 17//17
f 155//155 153//153 140//140
f 1//1 54//54 43//43
f 54//54 17//17 56//56
f 43//43 56//56 13//13
f 54//54 56//56 43//43
f 17//17 55//55 60//60
f 55//55 6//6 58//58
f 60//60 58//58 18//18
f 55//55 58//58 60//60
f 13//13 59//59 44//44
f 59//59 18//18 57//57
f 44//44 57//57 2//2
f 59//59 57//57 44//44
f 17//17 60//60 56//56
f 60//60 18//18 59//59
f 56//56 59//59 13//13
f 60//60 59//59 56//56
f 1//1 43//43 70//70
f 43//43 13//13 72//72
f 70//70 72//72 22//22
f 43//43 72//72 70//70
f 13//13 44//44 75//75
f 44//44 2//2 73//73
f 75//75 73//73 23//23
f 44//44 73//73 75//75
f 22//22 76//76 71//71
f 76//76 23//23 74//74
f 71//71 74//74 8//8
f 76//76 74//74 71//71
f 13//13 75//75 72//72
f 75//75 23//23 76//76
f 72//72 76//76 22//22
f 75//75 76//76 72//72
f 1//1 70//70 121//121
f 70//70 22//22 123//123
f 121//121 123//123 34//34
f 70//70 123//123 121//121
f 22//22 71//71 134//134
f 71//71 8//8 132//132
f 134//134 132//132 37//37
f 71//71 132//132 134//134
f 34//34 136//136 122//122
f 136//136 37//37 133//133
f 122//122 133//133 11//11
f 136//136 133//133 122//122
f 22//22 134//134 123//123
f 134//134 37//37 136//136
f 123//123 136//136 34//34
f 134//134 136//136 123//123
f 1//1 121//121 138//138
f 121//121 34//34 141//141
f 138//138 141//141 38//38
f 121//121 141//141 138//138
f 34//34 122//122 159//159
f 122//122 11//11 157//157
f 159//159 157//157 42//42
f 122//122 157//157 159//159
f 38//38 161//161 139//139
f 161//161 42//42 158//158
f 139//139 158//158 12//12
f 161//161 158//158 139//139
f 34//34 159//159 141//141
f 159//159 42//42 161//161
f 141//141 161//161 38//38
f 159//159 161//161 141//141
f 2//2 57//57 96//96
f 57//57 18//18 98//98
f 96//96 98//98 29//29
f 57//57 98//98 96//96
f 18//18 58//58 111//111
f 58//58 6//6 109//109
f 111//111 109//109 32//32
f 58//58 109//109 111//111
f 29//29 113//113 97//97
f 113//113 32//32 110//110
f 97//97 110//110 10//10
f 113//113 110//110 97//97
f 18//18 111//111 98//98
f 111//111 32//32 113//113
f 98//98 113//113 29//29
f 111//111 113//113 98//98
f 6//6 151//151 62//62
f 151//151 41//41 154//154
f 62//62 154//154 19//19
f 151//151 154//154 62//62
f 41//41 152//152 156//156
f 152//152 12//12 147//147
f 156//156 147//147 40//40
f 152//152 147//147 156//156
f 19//19 149//149 61//61
f 149//149 40//40 146//146
f 61//61 146//146 5//5
f 149//149 146//146 61//61
f 41//41 156//156 154//154
f 156//156 40//40 149//149
f 154//154 149//149 19//19
f 156//156 149//149 154//154
f 12//12 158//158 143//143
f 158//158 42//42 162//162
f 143//143 162//162 39//39
f 158//158 162//162 143//143
f 42//42 157//157 160//160
f 157//157 11//11 125//125
f 160//160 125//125 35//35
f 157//157 125//125 160//160
f 39//39 145//145 142//142
f 145//145 35//35 124//124
f 142//142 124//124 3//3
f 145//145 124//124 142//142
f 42//42 160//160 162//162
f 160//160 35//35 145//145
f 162//162 145//145 39//39
f 160//160 145//145 162//162
f 11//11 133//133 128//128
f 133//133 37//37 137//137
f 128//128 137//137 36//36
f 133//133 137//137 128//128
f 37//37 132//132 135//135
f 132//132 8//8 78//78
f 135//135 78//78 24//24
f 132//132 78//78 135//135
f 36//36 130//130 127//127
f 130//130 24//24 77//77
f 127//127 77//77 7//7
f 130//130 77//77 127//127
f 37//37 135//135 137//137
f 135//135 24//24 130//130
f 137//137 130//130 36//36
f 135//135 130//130 137//137
f 8//8 74//74 90//90
f 74//74 23//23 92//92
f 90//90 92//92 28//28
f 74//74 92//92 90//90
f 23//23 73//73 81//81
f 73//73 2//2 79//79
f 81//81 79//79 25//25
f 73//73 79//79 81//81
f 28//28 94//94 91//91
f 94//94 25//25 80//80
f 91//91 80//80 9//9
f 94//94 80//80 91//91
f 23//23 81//81 92//92
f 81//81 25//25 94//94
f 92//92 94//94 28//28
f 81//81 94//94 92//92
f 4//4 100//100 50//50
f 100//100 30//30 102//102
f 50//50 102//102 16//16
f 100//100 102//102 50//50
f 30//30 101//101 108//108
f 101//101 10//10 105//105
f 108//108 105//105 31//31
f 101//101 105//105 108//108
f 16//16 106//106 51//51
f 106//106 31//31 104//104
f 51//51 104//104 5//5
f 106//106 104//104 51//51
f 30//30 108//108 102//102
f 108//108 31//31 106//106
f 102//102 106//106 16//16
f 108//108 106//106 102//102
f 4//4 50//50 46//46
f 50//50 16//16 52//52
f 46//46 52//52 14//14
f 50//50 52//52 46//46
f 16//16 51//51 53//53
f 51//51 5//5 48//48
f 53//53 48//48 15//15
f 51//51 48//48 53//53
f 14//14 49//49 45//45
f 49//49 15//15 47//47
f 45//45 47//47 3//3
f 49//49 47//47 45//45
f 16//16 53//53 52//52
f 53//53 15//15 49//49
f 52//52 49//49 14//14
f 53//53 49//49 52//52
f 4//4 46//46 66//66
f 46//46 14//14 68//68
f 66//66 68//68 21//21
f 46//46 68//68 66//66
f 14//14 45//45 65//65
f 45//45 3//3 63//63
f 65//65 63//63 20//20
f 45//45 63//63 65//65
f 21//21 69//69 67//67
f 69//69 20//20 64//64
f 67//67 64//64 7//7
f 69//69 64//64 67//67
f 14//14 65//65 68//68
f 65//65 20//20 69//69
f 68//68 69//69 21//21
f 65//65 69//69 68//68
f 4//4 66//66 82//82
f 66//66 21//21 84//84
f 82//82 84//84 26//26
f 66//66 84//84 82//82
f 21//21 67//67 87//87
f 67//67 7//7 85//85
f 87//87 85//85 27//27
f 67//67 85//85 87//87
f 26//26 89//89 83//83
f 89//89 27//27 86//86
f 83//83 86//86 9//9
f 89//89 86//86 83//83
f 21//21 87//87 84//84
f 87//87 27//27 89//89
f 84//84 89//89 26//26
f 87//87 89//89 84//84
f 4//4 82//82 100//100
f 82//82 26//26 103//103
f 100//100 103//103 30//30
f 82//82 103//103 100//100
f 26//26 83//83 118//118
f 83//83 9//9 115//115
f 118//118 115//115 33//33
f 83//83 115//115 118//118
f 30//30 120//120 101//101
f 120//120 33//33 116//116
f 101//101 116//116 10//10
f 120//120 116//116 101//101
f 26//26 118//118 103//103
f 118//118 33//33 120//120
f 103//103 120//120 30//30
f 118//118 120//120 103//103
f 5//5 104//104 61//61
f 104//104 31//31 107//107
f 61//61 107//107 19//19
f 104//104 107//107 61//61
f 31//31 105//105 114//114
f 105//105 10//10 110//110
f 114//114 110//110 32//32
f 105//105 110//110 114//114
f 19//19 112//112 62//62
f 112//112 32//32 109//109
f 62//62 109//109 6//6
f 112//112 109//109 62//62
f 31//31 114//114 107//107
f 114//114 32//32 112//112
f 107//107 112//112 19//19
f 114//114 112//112 107//107
f 3//3 47//47 142//142
f 47//47 15//15 144//144
f 142//142 144//144 39//39
f 47//47 144//144 142//142
f 15//15 48//48 148//148
f 48//48 5//5 146//146
f 148//148 146//146 40//40
f 48//48 146//146 148//148
f 39//39 150//150 143//143
f 150//150 40//40 147//147
f 143//143 147//147 12//12
f 150//150 147//147 143//143
f 15//15 148//148 144//144
f 148//148 40//40 150//150
f 144//144 150//150 39//39
f 148//148 150//150 144//144
f 7//7 64//64 127//127
f 64//64 20//20 129//129
f 127//127 129//129 36//36
f 64//64 129//129 127//127
f 20//20 63//63 126//126
f 63//63 3//3 124//124
f 126//126 124//124 35//35
f 63//63 124//124 126//126
f 36//36 131//131 128//128
f 131//131 35//35 125//125
f 128//128 125//125 11//11
f 131//131 125//125 128//128
f 20//20 126//126 129//129
f 126//126 35//35 131//131
f 129//129 131//131 36//36
f 126//126 131//131 129//129
f 9//9 86//86 91//91
f 86//86 27//27 95//95
f 91//91 95//95 28//28
f 86//86 95//95 91//91
f 27//27 85//85 88//88
f 85//85 7//7 77//77
f 88//88 77//77 24//24
f 85//85 77//77 88//88
f 28//28 93//93 90//90
f 93//93 24//24 78//78
f 90//90 78//78 8//8
f 93//93 78//78 90//90
f 27//27 88//88 95//95
f 88//88 24//24 93//93
f 95//95 93//93 28//28
f 88//88 93//93 95//95
f 10//10 116//116 97//97
f 116//116 33//33 119//119
f 97//97 119//119 29//29
f 116//116 119//119 97//97
f 33//33 115//115 117//117
f 115//115 9//9 80//80
f 117//117 80//80 25//25
f 115//115 80//80 117//117
f 29//29 99//99 96//96
f 99//99 25//25 79//79
f 96//96 79//79 2//2
f 99//99 79//79 96//96
f 33//33 117//117 119//119
f 117//117 25//25 99//99
f 119//119 99//99 29//29
f 117//117 99//99 119//119
f 163//163 300//300 216//216
f 300//300 200//200 302//302
f 216//216 302//302 179//179
f 300//300 302//302 216//216
f 200//200 301//301 317//317
f 301//301 174//174 314//314
f 317//317 314//314 203//203
f 301//301 314//314 317//317
f 179//179 315//315 217//217
f 315//315 203//203 313//313
f 217//217 313//313 168//168
f 315//315 313//313 217//217
f 200//200 317//317 302//302
f 317//317 203//203 315//315
f 302//302 315//315 179//179
f 317//317 315//315 302//302
f 163//163 216//216 205//205
f 216//216 179//179 218//218
f 205//205 218//218 175//175
f 216//216 218//218 205//205
f 179//179 217//217 222//222
f 217//217 168//168 220//220
f 222//222 220//220 180//180
f 217//217 220//220 222//222
f 175//175 221//221 206//206
f 221//221 180//180 219//219
f 206//206 219//219 164//164
f 221//221 219//219 206//206
f 179//179 222//222 218//218
f 222//222 180//180 221//221
f 218//218 221//221 175//175
f 222//222 221//221 218//218
f 163//163 205//205 232//232
f 205//205 175//175 234//234
f 232//232 234//234 184//184
f 205//205 234//234 232//232
f 175//175 206//206 237//237
f 206//206 164//164 235//235
f 237//237 235//235 185//185
f 206//206 235//235 237//237
f 184//184 238//238 233//233
f 238//238 185//185 236//236
f 233//233 236//236 170//170
f 238//238 236//236 233//233
f 175//175 237//237 234//234
f 237//237 185//185 238//238
f 234//234 238//238 184//184
f 237//237 238//238 234//234
f 163//163 232//232 283//283
f 232//232 184//184 285//285
f 283//283 285//285 196//196
f 232//232 285//285 283//283
f 184//184 233//233 296//296
f 233//233 170//170 294//294
f 296//296 294//294 199//199
f 233//233 294//294 296//296
f 196//196 298//298 284//284
f 298//298 199//199 295//295
f 284//284 295//295 173//173
f 298//298 295//295 284//284
f 184//184 296//296 285//285
f 296//296 199//199 298//298
f 285//285 298//298 196//196
f 296//296 298//298 285//285
f 163//163 283//283 300//300
f 283//283 196//196 303//303
f 300//300 303//303 200//200
f 283//283 303//303 300//300
f 196//196 284//284 321//321
f 284//284 173//173 319//319
f 321//321 319//319 204//204
f 284//284 319//319 321//321
f 200//200 323//323 301//301
f 323//323 204//204 320//320
f 301//301 320//320 174//174
f 323//323 320//320 301//301
f 196//196 321//321 303//303
f 321//321 204//204 323//323
f 303//303 323//323 200//200
f 321//321 323//323 303//303
f 164//164 219//219 258//258
f 219//219 180//180 260//260
f 258//258 260//260 191//191
f 219//219 260//260 258//258
f 180//180 220//220 273//273
f 220//220 168//168 271//271
f 273//273 271//271 194//194
f 220//220 271//271 273//273
f 191//191 275//275 259//259
f 275//275 194//194 272//272
f 259//259 272//272 172//172
f 275//275 272//272 259//259
f 180//180 273//273 260//260
f 273//273 194//194 275//275
f 260//260 275//275 191//191
f 273//273 275//275 260//260
f 168//168 313//313 224//224
f 313//313 203//203 316//316
f 224//224 316//316 181//181
f 313//313 316//316 224//224
f 203//203 314//314 318//318
f 314//314 174//174 309//309
f 318//318 309//309 202//202
f 314//314 309//309 318//318
f 181//181 311//311 223//223
f 311//311 202//202 308//308
f 223//223 308//308 167//167
f 311//311 308//308 223//223
f 203//203 318//318 316//316
f 318//318 202//202 311//311
f 316//316 311//311 181//181
f 318//318 311//311 316//316
f 174//174 320//320 305//305
f 320//320 204//204 324//324
f 305//305 324//324 201//201
f 320//320 324//324 305//305
f 204//204 319//319 322//322
f 319//319 173//173 287//287
f 322//322 287//287 197//197
f 319//319 287//287 322//322
f 201//201 307//307 304//304
f 307//307 197//197 286//286
f 304//304 286//286 165//165
f 307//307 286//286 304//304
f 204//204 322//322 324//324
f 322//322 197//197 307//307
f 324//324 307//307 201//201
f 322//322 307//307 324//324
f 173//173 295//295 290//290
f 295//295 199//199 299//299
f 290//290 299//299 198//198
f 295//295 299//299 290//290
f 199//199 294//294 297//297
f 294//294 170//170 240//240
f 297//297 240//240 186//186
f 294//294 240//240 297//297
f 198//198 292//292 289//289
f 292//292 186//186 239//239
f 289//289 239//239 169//169
f 292//292 239//239 289//289
f 199//199 297//297 299//299
f 297//297 186//186 292//292
f 299//299 292//292 198//198
f 297//297 292//292 299//299
f 170//170 236//236 252//252
f 236//236 185//185 254//254
f 252//252 254//254 190//190
f 236//236 254//254 252//252
f 185//185 235//235 243//243
f 235//235 164//164 241//241
f 243//243 241//241 187//187
f 235//235 241//241 243//243
f 190//190 256//256 253//253
f 256//256 187//187 242//242
f 253//253 242//242 171//171
f 256//256 242//242 253//253
f 185//185 243//243 254//254
f 243//243 187//187 256//256
f 254//254 256//256 190//190
f 243//243 256//256 254//254
f 166//166 262//262 212//212
f 262//262 192//192 264//264
f 212//212 264//264 178//178
f 262//262 264//264 212//212
f 192//192 263//263 270//270
f 263//263 172//172 267//267
f 270//270 267//267 193//193
f 263//263 267//267 270//270
f 178//178 268//268 213//213
f 268//268 193//193 266//266
f 213//213 266//266 167//167
f 268//268 266//266 213//213
f 192//192 270//270 264//264
f 270//270 193//193 268//268
f 264//264 268//268 178//178
f 270//270 268//268 264//264
f 166//166 212//212 208//208
f 212//212 178//178 214//214
f 208//208 214//214 176//176
f 212//212 214//214 208//208
f 178//178 213//213 215//215
f 213//213 167//167 210//210
f 215//215 210//210 177//177
f 213//213 210//210 215//215
f 176//176 211//211 207//207
f 211//211 177//177 209//209
f 207//207 209//209 165//165
f 211//211 209//209 207//207
f 178//178 215//215 214//214
f 215//215 177//177 211//211
f 214//214 211//211 176//176
f 215//215 211//211 214//214
f 166//166 208//208 228//228
f 208//208 176//176 230//230
f 228//228 230//230 183//183
f 208//208 230//230 228//228
f 176//176 207//207 227//227
f 207//207 165//165 225//225
f 227//227 225//225 182//182
f 207//207 225//225 227//227
f 183//183 231//231 229//229
f 231//231 182//182 226//226
f 229//229 226//226 169//169
f 231//231 226//226 229//229
f 176//176 227//227 230//230
f 227//227 182//182 231//231
f 230//230 231//231 183//183
f 227//227 231//231 230//230
f 166//166 228//228 244//244
f 228//228 183//183 246//246
f 244//244 246//246 188//188
f 228//228 246//246 244//244
f 183//183 229//229 249//249
f 229//229 169//169 247//247
f 249//249 247//247 189//189
f 229//229 247//247 249//249
f 188//188 251//251 245//245
f 251//251 189//189 248//248
f 245//245 248//248 171//171
f 251//251 248//248 245//245
f 183//183 249//249 246//246
f 249//249 189//189 251//251
f 246//246 251//251 188//188
f 249//249 251//251 246//246
f 166//166 244//244 262//262
f 244//244 188//188 265//265
f 262//262 265//265 192//192
f 244//244 265//265 262//262
f 188//188 245//245 280//280
f 245//245 171//171 277//277
f 280//280 277//277 195//195
f 245//245 277//277 280//280
f 192//192 282//282 263//263
f 282//282 195//195 278//278
f 263//263 278//278 172//172
f 282//282 278//278 263//263
f 188//188 280//280 265//265
f 280//280 195//195 282//282
f 265//265 282//282 192//192
f 280//280 282//282 265//265
f 167//167 266//266 223//223
f 266//266 193//193 269//269
f 223//223 269//269 181//181
f 266//266 269//269 223//223
f 193//193 267//267 276//276
f 267//267 172//172 272//272
f 276//276 272//272 194//194
f 267//267 272//272 276//276
f 181//181 274//274 224//224
f 274//274 194//194 271//271
f 224//224 271//271 168//168
f 274//274 271//271 224//224
f 193//193 276//276 269//269
f 276//276 194//194 274//274
f 269//269 274//274 181//181
f 276//276 274//274 269//269
f 165//165 209//209 304//304
f 209//209 177//177 306//306
f 304//304 306//306 201//201
f 209//209 306//306 304//304
f 177//177 210//210 310//310
f 210//210 167//167 308//308
f 310//310 308//308 202//202
f 210//210 308//308 310//310
f 201//201 312//312 305//305
f 312//312 202//202 309//309
f 305//305 309//309 174//174
f 312//312 309//309 305//305
f 177//177 310//310 306//306
f 310//310 202//202 312//312
f 306//306 312//312 201//201
f 310//310 312//312 306//306
f 169//169 226//226 289//289
f 226//226 182//182 291//291
f 289//289 291//291 198//198
f 226//226 291//291 289//289
f 182//182 225//225 288//288
f 225//225 165//165 286//286
f 288//288 286//286 197//197
f 225//225 286//286 288//288
f 198//198 293//293 290//290
f 293//293 197//197 287//287
f 290//290 287//287 173//173
f 293//293 287//287 290//290
f 182//182 288//288 291//291
f 288//288 197//197 293//293
f 291//291 293//293 198//198
f 288//288 293//293 291//291
f 171//171 248//248 253//253
f 248//248 189//189 257//257
f 253//253 257//257 190//190
f 248//248 257//257 253//253
f 189//189 247//247 250//250
f 247//247 169//169 239//239
f 250//250 239//239 186//186
f 247//247 239//239 250//250
f 190//190 255//255 252//252
f 255//255 186//186 240//240
f 252//252 240//240 170//170
f 255//255 240//240 252//252
f 189//189 250//250 257//257
f 250//250 186//186 255//255
f 257//257 255//255 190//190
f 250//250 255//255 257//257
f 172//172 278//278 259//259
f 278//278 195//195 281//281
f 259//259 281//281 191//191
f 278//278 281//281 259//259
f 195//195 277//277 279//279
f 277//277 171//171 242//242
f 279//279 242//242 187//187
f 277//277 242//242 279//279
f 191//191 261//261 258//258
f 261//261 187//187 241//241
f 258//258 241//241 164//164
f 261//261 241//241 258//258
f 195//195 279//279 281//281
f 279//279 187//187 261//261
f 281//281 261//261 191//191
f 279//279 261//261 281//281
f 325//325 462//462 378//378
f 462//462 362//362 464//464
f 378//378 464//464 341//341
f 462//462 464//464 378//378
f 362//362 463//463 479//479
f 463//463 336//336 476//476
f 479//479 476//476 365//365
f 463//463 476//476 479//479
f 341//341 477//477 379//379
f 477//477 365//365 475//475
f 379//379 475//475 330//330
f 477//477 475//475 379//379
f 362//362 479//479 464//464
f 479//479 365//365 477//477
f 464//464 477//477 341//341
f 479//479 477//477 464//464
f 325//325 378//378 367//367
f 378//378 341//341 380//380
f 367//367 380//380 337//337
f 378//378 380//380 367//367
f 341//341 379//379 384//384
f 379//379 330//330 382//382
f 384//384 382//382 342//342
f 379//379 382//382 384//384
f 337//337 383//383 368//368
f 383//383 342//342 381//381
f 368//368 381//381 326//326
f 383//383 381//381 368//368
f 341//341 384//384 380//380
f 384//384 342//342 383//383
f 380//380 383//383 337//337
f 384//384 383//383 380//380
f 325//325 367//367 394//394
f 367//367 337//337 396//396
f 394//394 396//396 346//346
f 367//367 396//396 394//394
f 337//337 368//368 399//399
f 368//368 326//326 397//397
f 399//399 397//397 347//347
f 368//368 397//397 399//399
f 346//346 400//400 395//395
f 400//400 347//347 398//398
f 395//395 398//398 332//332
f 400//400 398//398 395//395
f 337//337 399//399 396//396
f 399//399 347//347 400//400
f 396//396 400//400 346//346
f 399//399 400//400 396//396
f 325//325 394//394 445//445
f 394//394 346//346 447//447
f 445//445 447//447 358//358
f 394//394 447//447 445//445
f 346//346 395//395 458//458
f 395//395 332//332 456//456
f 458//458 456//456 361//361
f 395//395 456//456 458//458
f 358//358 460//460 446//446
f 460//460 361//361 457//457
f 446//446 457//457 335//335
f 460//460 457//457 446//446
f 346//346 458//458 447//447
f 458//458 361//361 460//460
f 447//447 460//460 358//358
f 458//458 460//460 447//447
f 325//325 445//445 462//462
f 445//445 358//358 465//465
f 462//462 465//465 362//362
f 445//445 465//465 462//462
f 358//358 446//446 483//483
f 446//446 335//335 481//481
f 483//483 481//481 366//366
f 446//446 481//481 483//483
f 362//362 485//485 463//463
f 485//485 366//366 482//482
f 463//463 482//482 336//336
f 485//485 482//482 463//463
f 358//358 483//483 465//465
f 483//483 366//366 485//485
f 465//465 485//485 362//362
f 483//483 485//485 465//465
f 326//326 381//381 420//420
f 381//381 342//342 422//422
f 420//420 422//422 353//353
f 381//381 422//422 420//420
f 342//342 382//382 435//435
f 382//382 330//330 433//433
f 435//435 433//433 356//356
f 382//382 433//433 435//435
f 353//353 437//437 421//421
f 437//437 356//356 434//434
f 421//421 434//434 334//334
f 437//437 434//434 421//421
f 342//342 435//435 422//422
f 435//435 356//356 437//437
f 422//422 437//437 353//353
f 435//435 437//437 422//422
f 330//330 475//475 386//386
f 475//475 365//365 478//478
f 386//386 478//478 343//343
f 475//475 478//478 386//386
f 365//365 476//476 480//480
f 476//476 336//336 471//471
f 480//480 471//471 364//364
f 476//476 471//471 480//480
f 343//343 473//473 385//385
f 473//473 364//364 470//470
f 385//385 470//470 329//329
f 473//473 470//470 385//385
f 365//365 480//480 478//478
f 480//480 364//364 473//473
f 478//478 473//473 343//343
f 480//480 473//473 478//478
f 336//336 482//482 467//467
f 482//482 366//366 486//486
f 467//467 486//486 363//363
f 482//482 486//486 467//467
f 366//366 481//481 484//484
f 481//481 335//335 449//449
f 484//484 449//449 359//359
f 481//481 449//449 484//484
f 363//363 469//469 466//466
f 469//469 359//359 448//448
f 466//466 448//448 327//327
f 469//469 448//448 466//466
f 366//366 484//484 486//486
f 484//484 359//359 469//469
f 486//486 469//469 363//363
f 484//484 469//469 486//486
f 335//335 457//457 452//452
f 457//457 361//361 461//461
f 452//452 461//461 360//360
f 457//457 461//461 452//452
f 361//361 456//456 459//459
f 456//456 332//332 402//402
f 459//459 402//402 348//348
f 456//456 402//402 459//459
f 360//360 454//454 451//451
f 454//454 348//348 401//401
f 451//451 401//401 331//331
f 454//454 401//401 451//451
f 361//361 459//459 461//461
f 459//459 348//348 454//454
f 461//461 454//454 360//360
f 459//459 454//454 461//461
f 332//332 398//398 414//414
f 398//398 347//347 416//416
f 414//414 416//416 352//352
f 398//398 416//416 414//414
f 347//347 397//397 405//405
f 397//397 326//326 403//403
f 405//405 403//403 349//349
f 397//397 403//403 405//405
f 352//352 418//418 415//415
f 418//418 349//349 404//404
f 415//415 404//404 333//333
f 418//418 404//404 415//415
f 347//347 405//405 416//416
f 405//405 349//349 418//418
f 416//416 418//418 352//352
f 405//405 418//418 416//416
f 328//328 424//424 374//374
f 424//424 354//354 426//426
f 374//374 426//426 340//340
f 424//424 426//426 374//374
f 354//354 425//425 432//432
f 425//425 334//334 429//429
f 432//432 429//429 355//355
f 425//425 429//429 432//432
f 340//340 430//430 375//375
f 430//430 355//355 428//428
f 375//375 428//428 329//329
f 430//430 428//428 375//375
f 354//354 432//432 426//426
f 432//432 355//355 430//430
f 426//426 430//430 340//340
f 432//432 430//430 426//426
f 328//328 374//374 370//370
f 374//374 340//340 376//376
f 370//370 376//376 338//338
f 374//374 376//376 370//370
f 340//340 375//375 377//377
f 375//375 329//329 372//372
f 377//377 372//372 339//339
f 375//375 372//372 377//377
f 338//338 373//373 369//369
f 373//373 339//339 371//371
f 369//369 371//371 327//327
f 373//373 371//371 369//369
f 340//340 377//377 376//376
f 377//377 339//339 373//373
f 376//376 373//373 338//338
f 377//377 373//373 376//376
f 328//328 370//370 390//390
f 370//370 338//338 392//392
f 390//390 392//392 345//345
f 370//370 392//392 390//390
f 338//338 369//369 389//389
f 369//369 327//327 387//387
f 389//389 387//387 344//344
f 369//369 387//387 389//389
f 345//345 393//393 391//391
f 393//393 344//344 388//388
f 391//391 388//388 331//331
f 393//393 388//388 391//391
f 338//338 389//389 392//392
f 389//389 344//344 393//393
f 392//392 393//393 345//345
f 389//389 393//393 392//392
f 328//328 390//390 406//406
f 390//390 345//345 408//408
f 406//406 408//408 350//350
f 390//390 408//408 406//406
f 345//345 391//391 411//411
f 391//391 331//331 409//409
f 411//411 409//409 351//351
f 391//391 409//409 411//411
f 350//350 413//413 407//407
f 413//413 351//351 410//410
f 407//407 410//410 333//333
f 413//413 410//410 407//407
f 345//345 411//411 408//408
f 411//411 351//351 413//413
f 408//408 413//413 350//350
f 411//411 413//413 408//408
f 328//328 406//406 424//424
f 406//406 350//350 427//427
f 424//424 427//427 354//354
f 406//406 427//427 424//424
f 350//350 407//407 442//442
f 407//407 333//333 439//439
f 442//442 439//439 357//357
f 407//407 439//439 442//442
f 354//354 444//444 425//425
f 444//444 357//357 440//440
f 425//425 440//440 334//334
f 444//444 440//440 425//425
f 350//350 442//442 427//427
f 442//442 357//357 444//444
f 427//427 444//444 354//354
f 442//442 444//444 427//427
f 329//329 428//428 385//385
f 428//428 355//355 431//431
f 385//385 431//431 343//343
f 428//428 431//431 385//385
f 355//355 429//429 438//438
f 429//429 334//334 434//434
f 438//438 434//434 356//356
f 429//429 434//434 438//438
f 343//343 436//436 386//386
f 436//436 356//356 433//433
f 386//386 433//433 330//330
f 436//436 433//433 386//386
f 355//355 438//438 431//431
f 438//438 356//356 436//436
f 431//431 436//436 343//343
f 438//438 436//436 431//431
f 327//327 371//371 466//466
f 371//371 339//339 468//468
f 466//466 468//468 363//363
f 371//371 468//468 466//466
f 339//339 372//372 472//472
f 372//372 329//329 470//470
f 472//472 470//470 364//364
f 372//372 470//470 472//472
f 363//363 474//474 467//467
f 474//474 364//364 471//471
f 467//467 471//471 336//336
f 474//474 471//471 467//467
f 339//339 472//472 468//468
f 472//472 364//364 474//474
f 468//468 474//474 363//363
f 472//472 474//474 468//468
f 331//331 388//388 451//451
f 388//388 344//344 453//453
f 451//451 453//453 360//360
f 388//388 453//453 451//451
f 344//344 387//387 450//450
f 387//387 327//327 448//448
f 450//450 448//448 359//359
f 387//387 448//448 450//450
f 360//360 455//455 452//452
f 455//455 359//359 449//449
f 452//452 449//449 335//335
f 455//455 449//449 452//452
f 344//344 450//450 453//453
f 450//450 359//359 455//455
f 453//453 455//455 360//360
f 450//450 455//455 453//453
f 333//333 410//410 415//415
f 410//410 351//351 419//419
f 415//415 419//419 352//352
f 410//410 419//419 415//415
f 351//351 409//409 412//412
f 409//409 331//331 401//401
f 412//412 401//401 348//348
f 409//409 401//401 412//412
f 352//352 417//417 414//414
f 417//417 348//348 402//402
f 414//414 402//402 332//332
f 417//417 402//402 414//414
f 351//351 412//412 419//419
f 412//412 348//348 417//417
f 419//419 417//417 352//352
f 412//412 417//417 419//419
f 334//334 440//440 421//421
f 440//440 357//357 443//443
f 421//421 443//443 353//353
f 440//440 443//443 421//421
f 357//357 439//439 441//441
f 439//439 333//333 404//404
f 441//441 404//404 349//349
f 439//439 404//404 441//441
f 353//353 423//423 420//420
f 423//423 349//349 403//403
f 420//420 403//403 326//326
f 423//423 403//403 420//420
f 357//357 441//441 443//443
f 441//441 349//349 423//423
f 443//443 423//423 353//353
f 441//441 423//423 443//443
f 487//487 624//624 540//540
f 624//624 524//524 626//626
f 540//540 626//626 503//503
f 624//624 626//626 540//540
f 524//524 625//625 641//641
f 625//625 498//498 638//638
f 641//641 638//638 527//527
f 625//625 638//638 641//641
f 503//503 639//639 541//541
f 639//639 527//527 637//637
f 541//541 637//637 492//492
f 639//639 637//637 541//541
f 524//524 641//641 626//626
f 641//641 527//527 639//639
f 626//626 639//639 503//503
f 641//641 639//639 626//626
f 487//487 540//540 529//529
f 540//540 503//503 542//542
f 529//529 542//542 499//499
f 540//540 542//542 529//529
f 503//503 541//541 546//546
f 541//541 492//492 544//544
f 546//546 544//544 504//504
f 541//541 544//544 546//546
f 499//499 545//545 530//530
f 545//545 504//504 543//543
f 530//530 543//543 488//488
f 545//545 543//543 530//530
f 503//503 546//546 542//542
f 546//546 504//504 545//545
f 542//542 545//545 499//499
f 546//546 545//545 542//542
f 487//487 529//529 556//556
f 529//529 499//499 558//558
f 556//556 558//558 508//508
f 529//529 558//558 556//556
f 499//499 530//530 561//561
f 530//530 488//488 559//559
f 561//561 559//559 509//509
f 530//530 559//559 561//561
f 508//508 562//562 557//557
f 562//562 509//509 560//560
f 557//557 560//560 494//494
f 562//562 560//560 557//557
f 499//499 561//561 558//558
f 561//561 509//509 562//562
f 558//558 562//562 508//508
f 561//561 562//562 558//558
f 487//487 556//556 607//607
f 556//556 508//508 609//609
f 607//607 609//609 520//520
f 556//556 609//609 607//607
f 508//508 557//557 620//620
f 557//557 494//494 618//618
f 620//620 618//618 523//523
f 557//557 618//618 620//620
f 520//520 622//622 608//608
f 622//622 523//523 619//619
f 608//608 619//619 497//497
f 622//622 619//619 608//608
f 508//508 620//620 609//609
f 620//620 523//523 622//622
f 609//609 622//622 520//520
f 620//620 622//622 609//609
f 487//487 607//607 624//624
f 607//607 520//520 627//627
f 624//624 627//627 524//524
f 607//607 627//627 624//624
f 520//520 608//608 645//645
f 608//608 497//497 643//643
f 645//645 643//643 528//528
f 608//608 643//643 645//645
f 524//524 647//647 625//625
f 647//647 528//528 644//644
f 625//625 644//644 498//498
f 647//647 644//644 625//625
f 520//520 645//645 627//627
f 645//645 528//528 647//647
f 627//627 647//647 524//524
f 645//645 647//647 627//627
f 488//488 543//543 582//582
f 543//543 504//504 584//584
f 582//582 584//584 515//515
f 543//543 584//584 582//582
f 504//504 544//544 597//597
f 544//544 492//492 595//595
f 597//597 595//595 518//518
f 544//544 595//595 597//597
f 515//515 599//599 583//583
f 599//599 518//518 596//596
f 583//583 596//596 496//496
f 599//599 596//596 583//583
f 504//504 597//597 584//584
f 597//597 518//518 599//599
f 584//584 599//599 515//515
f 597//597 599//599 584//584
f 492//492 637//637 548//548
f 637//637 527//527 640//640
f 548//548 640//640 505//505
f 637//637 640//640 548//548
f 527//527 638//638 642//642
f 638//638 498//498 633//633
f 642//642 633//633 526//526
f 638//638 633//633 642//642
f 505//505 635//635 547//547
f 635//635 526//526 632//632
f 547//547 632//632 491//491
f 635//635 632//632 547//547
f 527//527 642//642 640//640
f 642//642 526//526 635//635
f 640//640 635//635 505//505
f 642//642 635//635 640//640
f 498//498 644//644 629//629
f 644//644 528//528 648//648
f 629//629 648//648 525//525
f 644//644 648//648 629//629
f 528//528 643//643 646//646
f 643//643 497//497 611//611
f 646//646 611//611 521//521
f 643//643 611//611 646//646
f 525//525 631//631 628//628
f 631//631 521//521 610//610
f 628//628 610//610 489//489
f 631//631 610//610 628//628
f 528//528 646//646 648//648
f 646//646 521//521 631//631
f 648//648 631//631 525//525
f 646//646 631//631 648//648
f 497//497 619//619 614//614
f 619//619 523//523 623//623
f 614//614 623//623 522//522
f 619//619 623//623 614//614
f 523//523 618//618 621//621
f 618//618 494//494 564//564
f 621//621 564//564 510//510
f 618//618 564//564 621//621
f 522//522 616//616 613//613
f 616//616 510//510 563//563
f 613//613 563//563 493//493
f 616//616 563//563 613//613
f 523//523 621//621 623//623
f 621//621 510//510 616//616
f 623//623 616//616 522//522
f 621//621 616//616 623//623
f 494//494 560//560 576//576
f 560//560 509//509 578//578
f 576//576 578//578 514//514
f 560//560 578//578 576//576
f 509//509 559//559 567//567
f 559//559 488//488 565//565
f 567//567 565//565 511//511
f 559//559 565//565 567//567
f 514//514 580//580 577//577
f 580//580 511//511 566//566
f 577//577 566//566 495//495
f 580//580 566//566 577//577
f 509//509 567//567 578//578
f 567//567 511//511 580//580
f 578//578 580//580 514//514
f 567//567 580//580 578//578
f 490//490 586//586 536//536
f 586//586 516//516 588//588
f 536//536 588//588 502//502
f 586//586 588//588 536//536
f 516//516 587//587 594//594
f 587//587 496//496 591//591
f 594//594 591//591 517//517
f 587//587 591//591 594//594
f 502//502 592//592 537//537
f 592//592 517//517 590//590
f 537//537 590//590 491//491
f 592//592 590//590 537//537
f 516//516 594//594 588//588
f 594//594 517//517 592//592
f 588//588 592//592 502//502
f 594//594 592//592 588//588
f 490//490 536//536 532//532
f 536//536 502//502 538//538
f 532//532 538//538 500//500
f 536//536 538//538 532//532
f 502//502 537//537 539//539
f 537//537 491//491 534//534
f 539//539 534//534 501//501
f 537//537 534//534 539//539
f 500//500 535//535 531//531
f 535//535 501//501 533//533
f 531//531 533//533 489//489
f 535//535 533//533 531//531
f 502//502 539//539 538//538
f 539//539 501//501 535//535
f 538//538 535//535 500//500
f 539//539 535//535 538//538
f 490//490 532//532 552//552
f 532//532 500//500 554//554
f 552//552 554//554 507//507
f 532//532 554//554 552//552
f 500//500 531//531 551//551
f 531//531 489//489 549//549
f 551//551 549//549 506//506
f 531//531 549//549 551//551
f 507//507 555//555 553//553
f 555//555 506//506 550//550
f 553//553 550//550 493//493
f 555//555 550//550 553//553
f 500//500 551//551 554//554
f 551//551 506//506 555//555
f 554//554 555//555 507//507
f 551//551 555//555 554//554
f 490//490 552//552 568//568
f 552//552 507//507 570//570
f 568//568 570//570 512//512
f 552//552 570//570 568//568
f 507//507 553//553 573//573
f 553//553 493//493 571//571
f 573//573 571//571 513//513
f 553//553 571//571 573//573
f 512//512 575//575 569//569
f 575//575 513//513 572//572
f 569//569 572//572 495//495
f 575//575 572//572 569//569
f 507//507 573//573 570//570
f 573//573 513//513 575//575
f 570//570 575//575 512//512
f 573//573 575//575 570//570
f 490//490 568//568 586//586
f 568//568 512//512 589//589
f 586//586 589//589 516//516
f 568//568 589//589 586//586
f 512//512 569//569 604//604
f 569//569 495//495 601//601
f 604//604 601//601 519//519
f 569//569 601//601 604//604
f 516//516 606//606 587//587
f 606//606 519//519 602//602
f 587//587 602//602 496//496
f 606//606 602//602 587//587
f 512//512 604//604 589//589
f 604//604 519//519 606//606
f 589//589 606//606 516//516
f 604//604 606//606 589//589
f 491//491 590//590 547//547
f 590//590 517//517 593//593
f 547//547 593//593 505//505
f 590//590 593//593 547//547
f 517//517 591//591 600//600
f 591//591 496//496 596//596
f 600//600 596//596 518//518
f 591//591 596//596 600//600
f 505//505 598//598 548//548
f 598//598 518//518 595//595
f 548//548 595//595 492//492
f 598//598 595//595 548//548
f 517//517 600//600 593//593
f 600//600 518//518 598//598
f 593//593 598//598 505//505
f 600//600 598//598 593//593
f 489//489 533//533 628//628
f 533//533 501//501 630//630
f 628//628 630//630 525//525
f 533//533 630//630 628//628
f 501//501 534//534 634//634
f 534//534 491//491 632//632
f 634//634 632//632 526//526
f 534//534 632//632 634//634
f 525//525 636//636 629//629
f 636//636 526//526 633//633
f 629//629 633//633 498//498
f 636//636 633//633 629//629
f 501//501 634//634 630//630
f 634//634 526//526 636//636
f 630//630 636//636 525//525
f 634//634 636//636 630//630
f 493//493 550//550 613//613
f 550//550 506//506 615//615
f 613//613 615//615 522//522
f 550//550 615//615 613//613
f 506//506 549//549 612//612
f 549//549 489//489 610//610
f 612//612 610//610 521//521
f 549//549 610//610 612//612
f 522//522 617//617 614//614
f 617//617 521//521 611//611
f 614//614 611//611 497//497
f 617//617 611//611 614//614
f 506//506 612//612 615//615
f 612//612 521//521 617//617
f 615//615 617//617 522//522
f 612//612 617//617 615//615
f 495//495 572//572 577//577
f 572//572 513//513 581//581
f 577//577 581//581 514//514
f 572//572 581//581 577//577
f 513//513 571//571 574//574
f 571//571 493//493 563//563
f 574//574 563//563 510//510
f 571//571 563//563 574//574
f 514//514 579//579 576//576
f 579//579 510//510 564//564
f 576//576 564//564 494//494
f 579//579 564//564 576//576
f 513//513 574//574 581//581
f 574//574 510//510 579//579
f 581//581 579//579 514//514
f 574//574 579//579 581//581
f 496//496 602//602 583//583
f 602//602 519//519 605//605
f 583//583 605//605 515//515
f 602//602 605//605 583//583
f 519//519 601//601 603//603
f 601//601 495//495 566//566
f 603//603 566//566 511//511
f 601//601 566//566 603//603
f 515//515 585//585 582//582
f 585//585 511//511 565//565
f 582//582 565//565 488//488
f 585//585 565//565 582//582
f 519//519 603//603 605//605
f 603//603 511//511 585//585
f 605//605 585//585 515//515
f 603//603 585//585 605//605
f 650//650 652//652 649//649
f 653//653 650//650 649//649
f 649//649 652//652 651//651
f 651//651 653//653 649//649
f 650//650 656//656 652//652
f 654//654 650//650 653//653
f 654//654 656//656 650//650
f 652//652 656//656 651//651
f 655//655 653//653 651//651
f 651//651 656//656 655//655
f 655//655 654//654 653//653
f 656//656 654//654 655//655

