# https://github.com/mikedh/trimesh
v -0.16297664 0.44577985 0.00000000
v 0.16297664 0.44577985 0.00000000
v -0.16297664 -0.28577985 0.00000000
v 0.16297664 -0.28577985 0.00000000
v 0.00000000 -0.14606438 0.18714318
v 0.00000000 0.30606438 0.18714318
v 0.00000000 -0.14606438 -0.18714318
v 0.00000000 0.30606438 -0.18714318
v 0.26370175 0.08000000 -0.11566084
v 0.26370175 0.08000000 0.11566084
v -0.26370175 0.08000000 -0.11566084
v -0.26370175 0.08000000 0.11566084
v 0.00000000 0.51000000 0.00000000
v 0.00000000 -0.35000000 0.00000000
v -0.09579527 -0.26787731 0.11000000
v 0.09579527 -0.26787731 0.11000000
v -0.09579527 0.42787731 0.11000000
v 0.09579527 0.42787731 0.11000000
v 0.00000000 0.08000000 0.22000000
v -0.09579527 -0.26787731 -0.11000000
v 0.09579527 -0.26787731 -0.11000000
v -0.09579527 0.42787731 -0.11000000
v 0.09579527 0.42787731 -0.11000000
v 0.00000000 0.08000000 -0.22000000
v 0.25079527 0.29500000 -0.06798374
v 0.25079527 -0.13500000 -0.06798374
v 0.15500000 -0.05287731 -0.17798374
v 0.15500000 0.21287731 -0.17798374
v 0.25079527 0.29500000 0.06798374
v 0.25079527 -0.13500000 0.06798374
v 0.15500000 -0.05287731 0.17798374
v 0.15500000 0.21287731 0.17798374
v 0.31000000 0.08000000 0.00000000
v -0.25079527 0.29500000 -0.06798374
v -0.25079527 -0.13500000 -0.06798374
v -0.15500000 -0.05287731 -0.17798374
v -0.15500000 0.21287731 -0.17798374
v -0.25079527 0.29500000 0.06798374
v -0.25079527 -0.13500000 0.06798374
v -0.15500000 -0.05287731 0.17798374
v -0.15500000 0.21287731 0.17798374
v -0.31000000 0.08000000 0.00000000
v -0.08471262 0.49363349 0.00000000
v 0.08471262 0.49363349 0.00000000
v -0.08471262 -0.33363349 0.00000000
v 0.08471262 -0.33363349 0.00000000
v -0.13450546 -0.29094745 0.05717622
v -0.04979283 -0.21832561 0.15445022
v -0.05036255 -0.32895430 0.05783042
v 0.13450546 -0.29094745 0.05717622
v 0.04979283 -0.21832561 0.15445022
v 0.05036255 -0.32895430 0.05783042
v 0.00000000 -0.28577985 0.11566084
v -0.13450546 0.45094745 0.05717622
v -0.04979283 0.37832561 0.15445022
v -0.05036255 0.48895430 0.05783042
v 0.13450546 0.45094745 0.05717622
v 0.04979283 0.37832561 0.15445022
v 0.05036255 0.48895430 0.05783042
v 0.00000000 0.44577985 0.11566084
v 0.00000000 -0.03750461 0.21162644
v 0.00000000 0.19750461 0.21162644
v -0.13450546 -0.29094745 -0.05717622
v -0.04979283 -0.21832561 -0.15445022
v -0.05036255 -0.32895430 -0.05783042
v 0.13450546 -0.29094745 -0.05717622
v 0.04979283 -0.21832561 -0.15445022
v 0.05036255 -0.32895430 -0.05783042
v 0.00000000 -0.28577985 -0.11566084
v -0.13450546 0.45094745 -0.05717622
v -0.04979283 0.37832561 -0.15445022
v -0.05036255 0.48895430 -0.05783042
v 0.13450546 0.45094745 -0.05717622
v 0.04979283 0.37832561 -0.15445022
v 0.05036255 0.48895430 -0.05783042
v 0.00000000 0.44577985 -0.11566084
v 0.00000000 -0.03750461 -0.21162644
v 0.00000000 0.19750461 -0.21162644
v 0.21507195 0.38187997 -0.03533685
v 0.26742723 0.19175352 -0.09545548
v 0.18221343 0.37592211 -0.09357159
v 0.21507195 -0.22187997 -0.03533685
v 0.26742723 -0.03175352 -0.09545548
v 0.18221343 -0.21592211 -0.09357159
v 0.08056649 -0.10657208 -0.18978707
v 0.21763440 0.01093252 -0.15263171
v 0.13185088 -0.17274766 -0.15140201
v 0.08148832 0.01014227 -0.20923243
v 0.21333920 -0.10288992 -0.12931276
v 0.08056649 0.26657208 -0.18978707
v 0.21763440 0.14906748 -0.15263171
v 0.13185088 0.33274766 -0.15140201
v 0.08148832 0.14985773 -0.20923243
v 0.21333920 0.26288992 -0.12931276
v 0.16297664 0.08000000 -0.18714318
v 0.21507195 0.38187997 0.03533685
v 0.26742723 0.19175352 0.09545548
v 0.18221343 0.37592211 0.09357159
v 0.26370175 0.30606438 0.00000000
v 0.21507195 -0.22187997 0.03533685
v 0.26742723 -0.03175352 0.09545548
v 0.18221343 -0.21592211 0.09357159
v 0.26370175 -0.14606438 0.00000000
v 0.08056649 -0.10657208 0.18978707
v 0.21763440 0.01093252 0.15263171
v 0.13185088 -0.17274766 0.15140201
v 0.08148832 0.01014227 0.20923243
v 0.21333920 -0.10288992 0.12931276
v 0.08056649 0.26657208 0.18978707
v 0.21763440 0.14906748 0.15263171
v 0.13185088 0.33274766 0.15140201
v 0.08148832 0.14985773 0.20923243
v 0.21333920 0.26288992 0.12931276
v 0.16297664 0.08000000 0.18714318
v 0.29820089 0.08000000 -0.06011864
v 0.29820089 0.08000000 0.06011864
v 0.29482752 0.19303219 -0.03574117
v 0.29482752 -0.03303219 -0.03574117
v 0.29482752 0.19303219 0.03574117
v 0.29482752 -0.03303219 0.03574117
v -0.21507195 0.38187997 -0.03533685
v -0.26742723 0.19175352 -0.09545548
v -0.18221343 0.37592211 -0.09357159
v -0.21507195 -0.22187997 -0.03533685
v -0.26742723 -0.03175352 -0.09545548
v -0.18221343 -0.21592211 -0.09357159
v -0.08056649 -0.10657208 -0.18978707
v -0.21763440 0.01093252 -0.15263171
v -0.13185088 -0.17274766 -0.15140201
v -0.08148832 0.01014227 -0.20923243
v -0.21333920 -0.10288992 -0.12931276
v -0.08056649 0.26657208 -0.18978707
v -0.21763440 0.14906748 -0.15263171
v -0.13185088 0.33274766 -0.15140201
v -0.08148832 0.14985773 -0.20923243
v -0.21333920 0.26288992 -0.12931276
v -0.16297664 0.08000000 -0.18714318
v -0.21507195 0.38187997 0.03533685
v -0.26742723 0.19175352 0.09545548
v -0.18221343 0.37592211 0.09357159
v -0.26370175 0.30606438 0.00000000
v -0.21507195 -0.22187997 0.03533685
v -0.26742723 -0.03175352 0.09545548
v -0.18221343 -0.21592211 0.09357159
v -0.26370175 -0.14606438 0.00000000
v -0.08056649 -0.10657208 0.18978707
v -0.21763440 0.01093252 0.15263171
v -0.13185088 -0.17274766 0.15140201
v -0.08148832 0.01014227 0.20923243
v -0.21333920 -0.10288992 0.12931276
v -0.08056649 0.26657208 0.18978707
v -0.21763440 0.14906748 0.15263171
v -0.13185088 0.33274766 0.15140201
v -0.08148832 0.14985773 0.20923243
v -0.21333920 0.26288992 0.12931276
v -0.16297664 0.08000000 0.18714318
v -0.29820089 0.08000000 -0.06011864
v -0.29820089 0.08000000 0.06011864
v -0.29482752 0.19303219 -0.03574117
v -0.29482752 -0.03303219 -0.03574117
v -0.29482752 0.19303219 0.03574117
v -0.29482752 -0.03303219 0.03574117
v -0.12617547 -0.01077873 0.02000000
v 0.12617547 -0.01077873 0.02000000
v -0.12617547 -0.58922127 0.02000000
v 0.12617547 -0.58922127 0.02000000
v 0.00000000 -0.47874858 0.19013016
v 0.00000000 -0.12125142 0.19013016
v 0.00000000 -0.47874858 -0.15013016
v 0.00000000 -0.12125142 -0.15013016
v 0.20415619 -0.30000000 -0.08514622
v 0.20415619 -0.30000000 0.12514622
v -0.20415619 -0.30000000 -0.08514622
v -0.20415619 -0.30000000 0.12514622
v 0.00000000 0.04000000 0.02000000
v 0.00000000 -0.64000000 0.02000000
v -0.07416408 -0.57506578 0.12000000
v 0.07416408 -0.57506578 0.12000000
v -0.07416408 -0.02493422 0.12000000
v 0.07416408 -0.02493422 0.12000000
v 0.00000000 -0.30000000 0.22000000
v -0.07416408 -0.57506578 -0.08000000
v 0.07416408 -0.57506578 -0.08000000
v -0.07416408 -0.02493422 -0.08000000
v 0.07416408 -0.02493422 -0.08000000
v 0.00000000 -0.30000000 -0.18000000
v 0.19416408 -0.13000000 -0.04180340
v 0.19416408 -0.47000000 -0.04180340
v 0.12000000 -0.40506578 -0.14180340
v 0.12000000 -0.19493422 -0.14180340
v 0.19416408 -0.13000000 0.08180340
v 0.19416408 -0.47000000 0.08180340
v 0.12000000 -0.40506578 0.18180340
v 0.12000000 -0.19493422 0.18180340
v 0.24000000 -0.30000000 0.02000000
v -0.19416408 -0.13000000 -0.04180340
v -0.19416408 -0.47000000 -0.04180340
v -0.12000000 -0.40506578 -0.14180340
v -0.12000000 -0.19493422 -0.14180340
v -0.19416408 -0.13000000 0.08180340
v -0.19416408 -0.47000000 0.08180340
v -0.12000000 -0.40506578 0.18180340
v -0.12000000 -0.19493422 0.18180340
v -0.24000000 -0.30000000 0.02000000
v -0.06558397 0.02705904 0.02000000
v 0.06558397 0.02705904 0.02000000
v -0.06558397 -0.62705904 0.02000000
v 0.06558397 -0.62705904 0.02000000
v -0.10413326 -0.59330728 0.07197838
v -0.03854929 -0.53588536 0.16040929
v -0.03899036 -0.62335922 0.07257311
v 0.10413326 -0.59330728 0.07197838
v 0.03854929 -0.53588536 0.16040929
v 0.03899036 -0.62335922 0.07257311
v 0.00000000 -0.58922127 0.12514622
v -0.10413326 -0.00669272 0.07197838
v -0.03854929 -0.06411464 0.16040929
v -0.03899036 0.02335922 0.07257311
v 0.10413326 -0.00669272 0.07197838
v 0.03854929 -0.06411464 0.16040929
v 0.03899036 0.02335922 0.07257311
v 0.00000000 -0.01077873 0.12514622
v 0.00000000 -0.39291062 0.21238767
v 0.00000000 -0.20708938 0.21238767
v -0.10413326 -0.59330728 -0.03197838
v -0.03854929 -0.53588536 -0.12040929
v -0.03899036 -0.62335922 -0.03257311
v 0.10413326 -0.59330728 -0.03197838
v 0.03854929 -0.53588536 -0.12040929
v 0.03899036 -0.62335922 -0.03257311
v 0.00000000 -0.58922127 -0.08514622
v -0.10413326 -0.00669272 -0.03197838
v -0.03854929 -0.06411464 -0.12040929
v -0.03899036 0.02335922 -0.03257311
v 0.10413326 -0.00669272 -0.03197838
v 0.03854929 -0.06411464 -0.12040929
v 0.03899036 0.02335922 -0.03257311
v 0.00000000 -0.01077873 -0.08514622
v 0.00000000 -0.39291062 -0.17238767
v 0.00000000 -0.20708938 -0.17238767
v 0.16650731 -0.06130421 -0.01212441
v 0.20704044 -0.21163675 -0.06677771
v 0.14106846 -0.06601507 -0.06506508
v 0.16650731 -0.53869579 -0.01212441
v 0.20704044 -0.38836325 -0.06677771
v 0.14106846 -0.53398493 -0.06506508
v 0.06237406 -0.44752211 -0.15253370
v 0.16849115 -0.35461149 -0.11875610
v 0.10207810 -0.49984699 -0.11763819
v 0.06308773 -0.35523635 -0.17021130
v 0.16516583 -0.44461064 -0.09755705
v 0.06237406 -0.15247789 -0.15253370
v 0.16849115 -0.24538851 -0.11875610
v 0.10207810 -0.10015301 -0.11763819
v 0.06308773 -0.24476365 -0.17021130
v 0.16516583 -0.15538936 -0.09755705
v 0.12617547 -0.30000000 -0.15013016
v 0.16650731 -0.06130421 0.05212441
v 0.20704044 -0.21163675 0.10677771
v 0.14106846 -0.06601507 0.10506508
v 0.20415619 -0.12125142 0.02000000
v 0.16650731 -0.53869579 0.05212441
v 0.20704044 -0.38836325 0.10677771
v 0.14106846 -0.53398493 0.10506508
v 0.20415619 -0.47874858 0.02000000
v 0.06237406 -0.44752211 0.19253370
v 0.16849115 -0.35461149 0.15875610
v 0.10207810 -0.49984699 0.15763819
v 0.06308773 -0.35523635 0.21021130
v 0.16516583 -0.44461064 0.13755705
v 0.06237406 -0.15247789 0.19253370
v 0.16849115 -0.24538851 0.15875610
v 0.10207810 -0.10015301 0.15763819
v 0.06308773 -0.24476365 0.21021130
v 0.16516583 -0.15538936 0.13755705
v 0.12617547 -0.30000000 0.19013016
v 0.23086521 -0.30000000 -0.03465331
v 0.23086521 -0.30000000 0.07465331
v 0.22825356 -0.21062571 -0.01249197
v 0.22825356 -0.38937429 -0.01249197
v 0.22825356 -0.21062571 0.05249197
v 0.22825356 -0.38937429 0.05249197
v -0.16650731 -0.06130421 -0.01212441
v -0.20704044 -0.21163675 -0.06677771
v -0.14106846 -0.06601507 -0.06506508
v -0.16650731 -0.53869579 -0.01212441
v -0.20704044 -0.38836325 -0.06677771
v -0.14106846 -0.53398493 -0.06506508
v -0.06237406 -0.44752211 -0.15253370
v -0.16849115 -0.35461149 -0.11875610
v -0.10207810 -0.49984699 -0.11763819
v -0.06308773 -0.35523635 -0.17021130
v -0.16516583 -0.44461064 -0.09755705
v -0.06237406 -0.15247789 -0.15253370
v -0.16849115 -0.24538851 -0.11875610
v -0.10207810 -0.10015301 -0.11763819
v -0.06308773 -0.24476365 -0.17021130
v -0.16516583 -0.15538936 -0.09755705
v -0.12617547 -0.30000000 -0.15013016
v -0.16650731 -0.06130421 0.05212441
v -0.20704044 -0.21163675 0.10677771
v -0.14106846 -0.06601507 0.10506508
v -0.20415619 -0.12125142 0.02000000
v -0.16650731 -0.53869579 0.05212441
v -0.20704044 -0.38836325 0.10677771
v -0.14106846 -0.53398493 0.10506508
v -0.20415619 -0.47874858 0.02000000
v -0.06237406 -0.44752211 0.19253370
v -0.16849115 -0.35461149 0.15875610
v -0.10207810 -0.49984699 0.15763819
v -0.06308773 -0.35523635 0.21021130
v -0.16516583 -0.44461064 0.13755705
v -0.06237406 -0.15247789 0.19253370
v -0.16849115 -0.24538851 0.15875610
v -0.10207810 -0.10015301 0.15763819
v -0.06308773 -0.24476365 0.21021130
v -0.16516583 -0.15538936 0.13755705
v -0.12617547 -0.30000000 0.19013016
v -0.23086521 -0.30000000 -0.03465331
v -0.23086521 -0.30000000 0.07465331
v -0.22825356 -0.21062571 -0.01249197
v -0.22825356 -0.38937429 -0.01249197
v -0.22825356 -0.21062571 0.05249197
v -0.22825356 -0.38937429 0.05249197
v -0.36360236 0.42759762 0.02000000
v -0.21639764 0.42759762 0.02000000
v -0.36360236 0.17240238 0.02000000
v -0.21639764 0.17240238 0.02000000
v -0.29000000 0.22114033 0.17311715
v -0.29000000 0.37885967 0.17311715
v -0.29000000 0.22114033 -0.13311715
v -0.29000000 0.37885967 -0.13311715
v -0.17090889 0.30000000 -0.07463160
v -0.17090889 0.30000000 0.11463160
v -0.40909111 0.30000000 -0.07463160
v -0.40909111 0.30000000 0.11463160
v -0.29000000 0.45000000 0.02000000
v -0.29000000 0.15000000 0.02000000
v -0.33326238 0.17864745 0.11000000
v -0.24673762 0.17864745 0.11000000
v -0.33326238 0.42135255 0.11000000
v -0.24673762 0.42135255 0.11000000
v -0.29000000 0.30000000 0.20000000
v -0.33326238 0.17864745 -0.07000000
v -0.24673762 0.17864745 -0.07000000
v -0.33326238 0.42135255 -0.07000000
v -0.24673762 0.42135255 -0.07000000
v -0.29000000 0.30000000 -0.16000000
v -0.17673762 0.37500000 -0.03562306
v -0.17673762 0.22500000 -0.03562306
v -0.22000000 0.25364745 -0.12562306
v -0.22000000 0.34635255 -0.12562306
v -0.17673762 0.37500000 0.07562306
v -0.17673762 0.22500000 0.07562306
v -0.22000000 0.25364745 0.16562306
v -0.22000000 0.34635255 0.16562306
v -0.15000000 0.30000000 0.02000000
v -0.40326238 0.37500000 -0.03562306
v -0.40326238 0.22500000 -0.03562306
v -0.36000000 0.25364745 -0.12562306
v -0.36000000 0.34635255 -0.12562306
v -0.40326238 0.37500000 0.07562306
v -0.40326238 0.22500000 0.07562306
v -0.36000000 0.25364745 0.16562306
v -0.36000000 0.34635255 0.16562306
v -0.43000000 0.30000000 0.02000000
v 0.21639764 0.42759762 -0.01000000
v 0.36360236 0.42759762 -0.01000000
v 0.21639764 0.17240238 -0.01000000
v 0.36360236 0.17240238 -0.01000000
v 0.29000000 0.22114033 0.14311715
v 0.29000000 0.37885967 0.14311715
v 0.29000000 0.22114033 -0.16311715
v 0.29000000 0.37885967 -0.16311715
v 0.40909111 0.30000000 -0.10463160
v 0.40909111 0.30000000 0.08463160
v 0.17090889 0.30000000 -0.10463160
v 0.17090889 0.30000000 0.08463160
v 0.29000000 0.45000000 -0.01000000
v 0.29000000 0.15000000 -0.01000000
v 0.24673762 0.17864745 0.08000000
v 0.33326238 0.17864745 0.08000000
v 0.24673762 0.42135255 0.08000000
v 0.33326238 0.42135255 0.08000000
v 0.29000000 0.30000000 0.17000000
v 0.24673762 0.17864745 -0.10000000
v 0.33326238 0.17864745 -0.10000000
v 0.24673762 0.42135255 -0.10000000
v 0.33326238 0.42135255 -0.10000000
v 0.29000000 0.30000000 -0.19000000
v 0.40326238 0.37500000 -0.06562306
v 0.40326238 0.22500000 -0.06562306
v 0.36000000 0.25364745 -0.15562306
v 0.36000000 0.34635255 -0.15562306
v 0.40326238 0.37500000 0.04562306
v 0.40326238 0.22500000 0.04562306
v 0.36000000 0.25364745 0.13562306
v 0.36000000 0.34635255 0.13562306
v 0.43000000 0.30000000 -0.01000000
v 0.17673762 0.37500000 -0.06562306
v 0.17673762 0.22500000 -0.06562306
v 0.22000000 0.25364745 -0.15562306
v 0.22000000 0.34635255 -0.15562306
v 0.17673762 0.37500000 0.04562306
v 0.17673762 0.22500000 0.04562306
v 0.22000000 0.25364745 0.13562306
v 0.22000000 0.34635255 0.13562306
v 0.15000000 0.30000000 -0.01000000
v -0.22771339 -0.61144522 -0.17000000
v -0.22771339 -0.61144522 0.21000000
v -0.23171173 -0.53154520 -0.17000000
v -0.23171173 -0.53154520 0.21000000
v 0.23171173 -0.58845480 -0.17000000
v 0.23171173 -0.58845480 0.21000000
v 0.22771339 -0.50855478 -0.17000000
v 0.22771339 -0.50855478 0.21000000
vn -0.64548107 0.76377627 -0.00000000
vn 0.64548107 0.76377627 0.00000000
vn -0.64548107 -0.76377627 0.00000000
vn 0.64548107 -0.76377627 -0.00000000
vn 0.00000000 -0.30829386 0.95129117
vn 0.00000000 0.30829386 0.95129117
vn 0.00000000 -0.30829386 -0.95129117
vn -0.00000000 0.30829386 -0.95129117
vn 0.75877701 0.00000000 -0.65135048
vn 0.75877701 0.00000000 0.65135048
vn -0.75877701 -0.00000000 -0.65135048
vn -0.75877701 0.00000000 0.65135048
vn 0.00000000 1.00000000 0.00000000
vn -0.00000000 -1.00000000 0.00000000
vn -0.32074081 -0.61860282 0.71725580
vn 0.32074081 -0.61860282 0.71725580
vn -0.32074081 0.61860282 0.71725580
vn 0.32074081 0.61860282 0.71725580
vn -0.00000000 0.00000000 1.00000000
vn -0.32074081 -0.61860282 -0.71725580
vn 0.32074081 -0.61860282 -0.71725580
vn -0.32074081 0.61860282 -0.71725580
vn 0.32074081 0.61860282 -0.71725580
vn 0.00000000 -0.00000000 -1.00000000
vn 0.82267011 0.37055537 -0.43116426
vn 0.82267011 -0.37055537 -0.43116426
vn 0.40098738 -0.18068657 -0.89808768
vn 0.40098738 0.18068657 -0.89808768
vn 0.82267011 0.37055537 0.43116426
vn 0.82267011 -0.37055537 0.43116426
vn 0.40098738 -0.18068657 0.89808768
vn 0.40098738 0.18068657 0.89808768
vn 1.00000000 -0.00000000 0.00000000
vn -0.82267011 0.37055537 -0.43116426
vn -0.82267011 -0.37055537 -0.43116426
vn -0.40098738 -0.18068657 -0.89808768
vn -0.40098738 0.18068657 -0.89808768
vn -0.82267011 0.37055537 0.43116426
vn -0.82267011 -0.37055537 0.43116426
vn -0.40098738 -0.18068657 0.89808768
vn -0.40098738 0.18068657 0.89808768
vn -1.00000000 -0.00000000 0.00000000
vn -0.36476233 0.93110066 -0.00000000
vn 0.36476233 0.93110066 -0.00000000
vn -0.36476233 -0.93110066 -0.00000000
vn 0.36476233 -0.93110066 -0.00000000
vn -0.51249288 -0.75058250 0.41710545
vn -0.14351111 -0.45638720 0.87813170
vn -0.19121813 -0.87131349 0.45193853
vn 0.51249288 -0.75058250 0.41710545
vn 0.14351111 -0.45638720 0.87813170
vn 0.19121813 -0.87131349 0.45193853
vn 0.00000000 -0.66391651 0.74780671
vn -0.51249288 0.75058250 0.41710545
vn -0.14351111 0.45638720 0.87813170
vn -0.19121813 0.87131349 0.45193853
vn 0.51249288 0.75058250 0.41710545
vn 0.14351111 0.45638720 0.87813170
vn 0.19121813 0.87131349 0.45193853
vn -0.00000000 0.66391651 0.74780671
vn 0.00000000 -0.14874839 0.98887508
vn 0.00000000 0.14874839 0.98887508
vn -0.51249288 -0.75058250 -0.41710545
vn -0.14351111 -0.45638720 -0.87813170
vn -0.19121813 -0.87131349 -0.45193853
vn 0.51249288 -0.75058250 -0.41710545
vn 0.14351111 -0.45638720 -0.87813170
vn 0.19121813 -0.87131349 -0.45193853
vn 0.00000000 -0.66391651 -0.74780671
vn -0.51249288 0.75058250 -0.41710545
vn -0.14351111 0.45638720 -0.87813170
vn -0.19121813 0.87131349 -0.45193853
vn 0.51249288 0.75058250 -0.41710545
vn 0.14351111 0.45638720 -0.87813170
vn 0.19121813 0.87131349 -0.45193853
vn -0.00000000 0.66391651 -0.74780671
vn -0.00000000 -0.14874839 -0.98887508
vn 0.00000000 0.14874839 -0.98887508
vn 0.77937043 0.57823733 -0.24129508
vn 0.80690223 0.17551920 -0.56400515
vn 0.60245430 0.51430465 -0.61036018
vn 0.77937043 -0.57823733 -0.24129508
vn 0.80690223 -0.17551920 -0.56400515
vn 0.60245430 -0.51430465 -0.61036018
vn 0.20463826 -0.24931837 -0.94655350
vn 0.58886471 -0.09850751 -0.80220610
vn 0.38652180 -0.38183337 -0.83952616
vn 0.19924175 -0.08250275 -0.97647121
vn 0.61673590 -0.28684748 -0.73304526
vn 0.20463826 0.24931837 -0.94655350
vn 0.58886471 0.09850751 -0.80220610
vn 0.38652180 0.38183337 -0.83952616
vn 0.19924175 0.08250275 -0.97647121
vn 0.61673590 0.28684748 -0.73304526
vn 0.40057919 0.00000000 -0.91626214
vn 0.77937043 0.57823733 0.24129508
vn 0.80690223 0.17551920 0.56400515
vn 0.60245430 0.51430465 0.61036018
vn 0.91504102 0.40336080 0.00000000
vn 0.77937043 -0.57823733 0.24129508
vn 0.80690223 -0.17551920 0.56400515
vn 0.60245430 -0.51430465 0.61036018
vn 0.91504102 -0.40336080 0.00000000
vn 0.20463826 -0.24931837 0.94655350
vn 0.58886471 -0.09850751 0.80220610
vn 0.38652180 -0.38183337 0.83952616
vn 0.19924175 -0.08250275 0.97647121
vn 0.61673590 -0.28684748 0.73304526
vn 0.20463826 0.24931837 0.94655350
vn 0.58886471 0.09850751 0.80220610
vn 0.38652180 0.38183337 0.83952616
vn 0.19924175 0.08250275 0.97647121
vn 0.61673590 0.28684748 0.73304526
vn 0.40057919 0.00000000 0.91626214
vn 0.93079605 0.00000000 -0.36553894
vn 0.93079605 0.00000000 0.36553894
vn 0.95751072 0.19603776 -0.21152402
vn 0.95751072 -0.19603776 -0.21152402
vn 0.95751072 0.19603776 0.21152402
vn 0.95751072 -0.19603776 0.21152402
vn -0.77937043 0.57823733 -0.24129508
vn -0.80690223 0.17551920 -0.56400515
vn -0.60245430 0.51430465 -0.61036018
vn -0.77937043 -0.57823733 -0.24129508
vn -0.80690223 -0.17551920 -0.56400515
vn -0.60245430 -0.51430465 -0.61036018
vn -0.20463826 -0.24931837 -0.94655350
vn -0.58886471 -0.09850751 -0.80220610
vn -0.38652180 -0.38183337 -0.83952616
vn -0.19924175 -0.08250275 -0.97647121
vn -0.61673590 -0.28684748 -0.73304526
vn -0.20463826 0.24931837 -0.94655350
vn -0.58886471 0.09850751 -0.80220610
vn -0.38652180 0.38183337 -0.83952616
vn -0.19924175 0.08250275 -0.97647121
vn -0.61673590 0.28684748 -0.73304526
vn -0.40057919 -0.00000000 -0.91626214
vn -0.77937043 0.57823733 0.24129508
vn -0.80690223 0.17551920 0.56400515
vn -0.60245430 0.51430465 0.61036018
vn -0.91504102 0.40336080 0.00000000
vn -0.77937043 -0.57823733 0.24129508
vn -0.80690223 -0.17551920 0.56400515
vn -0.60245430 -0.51430465 0.61036018
vn -0.91504102 -0.40336080 0.00000000
vn -0.20463826 -0.24931837 0.94655350
vn -0.58886471 -0.09850751 0.80220610
vn -0.38652180 -0.38183337 0.83952616
vn -0.19924175 -0.08250275 0.97647121
vn -0.61673590 -0.28684748 0.73304526
vn -0.20463826 0.24931837 0.94655350
vn -0.58886471 0.09850751 0.80220610
vn -0.38652180 0.38183337 0.83952616
vn -0.19924175 0.08250275 0.97647121
vn -0.61673590 0.28684748 0.73304526
vn -0.40057919 -0.00000000 0.91626214
vn -0.93079605 -0.00000000 -0.36553894
vn -0.93079605 -0.00000000 0.36553894
vn -0.95751072 0.19603776 -0.21152402
vn -0.95751072 -0.19603776 -0.21152402
vn -0.95751072 0.19603776 0.21152402
vn -0.95751072 -0.19603776 0.21152402
vn -0.65197312 0.75824208 -0.00000000
vn 0.65197312 0.75824208 0.00000000
vn -0.65197312 -0.75824208 0.00000000
vn 0.65197312 -0.75824208 0.00000000
vn -0.00000000 -0.34824877 0.93740215
vn 0.00000000 0.34824877 0.93740215
vn 0.00000000 -0.34824877 -0.93740215
vn -0.00000000 0.34824877 -0.93740215
vn 0.80491894 0.00000000 -0.59338478
vn 0.80491894 0.00000000 0.59338478
vn -0.80491894 0.00000000 -0.59338478
vn -0.80491894 -0.00000000 0.59338478
vn 0.00000000 1.00000000 0.00000000
vn -0.00000000 -1.00000000 -0.00000000
vn -0.34732898 -0.65723259 0.66888556
vn 0.34732898 -0.65723259 0.66888556
vn -0.34732898 0.65723259 0.66888556
vn 0.34732898 0.65723259 0.66888556
vn 0.00000000 -0.00000000 1.00000000
vn -0.34732898 -0.65723259 -0.66888556
vn 0.34732898 -0.65723259 -0.66888556
vn -0.34732898 0.65723259 -0.66888556
vn 0.34732898 0.65723259 -0.66888556
vn 0.00000000 -0.00000000 -1.00000000
vn 0.84492474 0.37351962 -0.38286458
vn 0.84492474 -0.37351962 -0.38286458
vn 0.45244125 -0.19992746 -0.86909489
vn 0.45244125 0.19992746 -0.86909489
vn 0.84492474 0.37351962 0.38286458
vn 0.84492474 -0.37351962 0.38286458
vn 0.45244125 -0.19992746 0.86909489
vn 0.45244125 0.19992746 0.86909489
vn 1.00000000 -0.00000000 0.00000000
vn -0.84492474 0.37351962 -0.38286458
vn -0.84492474 -0.37351962 -0.38286458
vn -0.45244125 -0.19992746 -0.86909489
vn -0.45244125 0.19992746 -0.86909489
vn -0.84492474 0.37351962 0.38286458
vn -0.84492474 -0.37351962 0.38286458
vn -0.45244125 -0.19992746 0.86909489
vn -0.45244125 0.19992746 0.86909489
vn -1.00000000 0.00000000 0.00000000
vn -0.36961972 0.92918312 0.00000000
vn 0.36961972 0.92918312 0.00000000
vn -0.36961972 -0.92918312 0.00000000
vn 0.36961972 -0.92918312 0.00000000
vn -0.53050682 -0.76096278 0.37349452
vn -0.16131602 -0.50431942 0.84831543
vn -0.19908938 -0.89062802 0.40883388
vn 0.53050682 -0.76096278 0.37349452
vn 0.16131602 -0.50431942 0.84831543
vn 0.19908938 -0.89062802 0.40883388
vn -0.00000000 -0.71083071 0.70336314
vn -0.53050682 0.76096278 0.37349452
vn -0.16131602 0.50431942 0.84831543
vn -0.19908938 0.89062802 0.40883388
vn 0.53050682 0.76096278 0.37349452
vn 0.16131602 0.50431942 0.84831543
vn 0.19908938 0.89062802 0.40883388
vn 0.00000000 0.71083071 0.70336314
vn 0.00000000 -0.17012692 0.98542216
vn 0.00000000 0.17012692 0.98542216
vn -0.53050682 -0.76096278 -0.37349452
vn -0.16131602 -0.50431942 -0.84831543
vn -0.19908938 -0.89062802 -0.40883388
vn 0.53050682 -0.76096278 -0.37349452
vn 0.16131602 -0.50431942 -0.84831543
vn 0.19908938 -0.89062802 -0.40883388
vn 0.00000000 -0.71083071 -0.70336314
vn -0.53050682 0.76096278 -0.37349452
vn -0.16131602 0.50431942 -0.84831543
vn -0.19908938 0.89062802 -0.40883388
vn 0.53050682 0.76096278 -0.37349452
vn 0.16131602 0.50431942 -0.84831543
vn 0.19908938 0.89062802 -0.40883388
vn 0.00000000 0.71083071 -0.70336314
vn 0.00000000 -0.17012692 -0.98542216
vn 0.00000000 0.17012692 -0.98542216
vn 0.78989258 0.57514492 -0.21278636
vn 0.84305426 0.17973532 -0.50690702
vn 0.63688914 0.53286150 -0.55716322
vn 0.78989258 -0.57514492 -0.21278636
vn 0.84305426 -0.17973532 -0.50690702
vn 0.63688914 -0.53286150 -0.55716322
vn 0.23480214 -0.28078035 -0.93060752
vn 0.64610856 -0.10585063 -0.75586994
vn 0.42913096 -0.41636459 -0.80155296
vn 0.23069152 -0.09381644 -0.96849362
vn 0.66598196 -0.30394902 -0.68123640
vn 0.23480214 0.28078035 -0.93060752
vn 0.64610856 0.10585063 -0.75586994
vn 0.42913096 0.41636459 -0.80155296
vn 0.23069152 0.09381644 -0.96849362
vn 0.66598196 0.30394902 -0.68123640
vn 0.45402881 0.00000000 -0.89098700
vn 0.78989258 0.57514492 0.21278636
vn 0.84305426 0.17973532 0.50690702
vn 0.63688914 0.53286150 0.55716322
vn 0.91793322 0.39673493 0.00000000
vn 0.78989258 -0.57514492 0.21278636
vn 0.84305426 -0.17973532 0.50690702
vn 0.63688914 -0.53286150 0.55716322
vn 0.91793322 -0.39673493 0.00000000
vn 0.23480214 -0.28078035 0.93060752
vn 0.64610856 -0.10585063 0.75586994
vn 0.42913096 -0.41636459 0.80155296
vn 0.23069152 -0.09381644 0.96849362
vn 0.66598196 -0.30394902 0.68123640
vn 0.23480214 0.28078035 0.93060752
vn 0.64610856 0.10585063 0.75586994
vn 0.42913096 0.41636459 0.80155296
vn 0.23069152 0.09381644 0.96849362
vn 0.66598196 0.30394902 0.68123640
vn 0.45402881 -0.00000000 0.89098700
vn 0.94724446 0.00000000 -0.32051198
vn 0.94724446 0.00000000 0.32051198
vn 0.96366406 0.19362338 -0.18401511
vn 0.96366406 -0.19362338 -0.18401511
vn 0.96366406 0.19362338 0.18401511
vn 0.96366406 -0.19362338 0.18401511
vn -0.78989258 0.57514492 -0.21278636
vn -0.84305426 0.17973532 -0.50690702
vn -0.63688914 0.53286150 -0.55716322
vn -0.78989258 -0.57514492 -0.21278636
vn -0.84305426 -0.17973532 -0.50690702
vn -0.63688914 -0.53286150 -0.55716322
vn -0.23480214 -0.28078035 -0.93060752
vn -0.64610856 -0.10585063 -0.75586994
vn -0.42913096 -0.41636459 -0.80155296
vn -0.23069152 -0.09381644 -0.96849362
vn -0.66598196 -0.30394902 -0.68123640
vn -0.23480214 0.28078035 -0.93060752
vn -0.64610856 0.10585063 -0.75586994
vn -0.42913096 0.41636459 -0.80155296
vn -0.23069152 0.09381644 -0.96849362
vn -0.66598196 0.30394902 -0.68123640
vn -0.45402881 0.00000000 -0.89098700
vn -0.78989258 0.57514492 0.21278636
vn -0.84305426 0.17973532 0.50690702
vn -0.63688914 0.53286150 0.55716322
vn -0.91793322 0.39673493 0.00000000
vn -0.78989258 -0.57514492 0.21278636
vn -0.84305426 -0.17973532 0.50690702
vn -0.63688914 -0.53286150 0.55716322
vn -0.91793322 -0.39673493 0.00000000
vn -0.23480214 -0.28078035 0.93060752
vn -0.64610856 -0.10585063 0.75586994
vn -0.42913096 -0.41636459 0.80155296
vn -0.23069152 -0.09381644 0.96849362
vn -0.66598196 -0.30394902 0.68123640
vn -0.23480214 0.28078035 0.93060752
vn -0.64610856 0.10585063 0.75586994
vn -0.42913096 0.41636459 0.80155296
vn -0.23069152 0.09381644 0.96849362
vn -0.66598196 0.30394902 0.68123640
vn -0.45402881 0.00000000 0.89098700
vn -0.94724446 0.00000000 -0.32051198
vn -0.94724446 0.00000000 0.32051198
vn -0.96366406 0.19362338 -0.18401511
vn -0.96366406 -0.19362338 -0.18401511
vn -0.96366406 0.19362338 0.18401511
vn -0.96366406 -0.19362338 0.18401511
vn -0.54747783 0.83682019 -0.00000000
vn 0.54747783 0.83682019 0.00000000
vn -0.54747783 -0.83682019 0.00000000
vn 0.54747783 -0.83682019 -0.00000000
vn 0.00000000 -0.58124247 0.81373042
vn 0.00000000 0.58124247 0.81373042
vn 0.00000000 -0.58124247 -0.81373042
vn -0.00000000 0.58124247 -0.81373042
vn 0.89355272 -0.00000000 -0.44895827
vn 0.89355272 -0.00000000 0.44895827
vn -0.89355272 0.00000000 -0.44895827
vn -0.89355272 0.00000000 0.44895827
vn 0.00000000 1.00000000 0.00000000
vn 0.00000000 -1.00000000 0.00000000
vn -0.33596499 -0.83177060 0.44191084
vn 0.33596499 -0.83177060 0.44191084
vn -0.33596499 0.83177060 0.44191084
vn 0.33596499 0.83177060 0.44191084
vn 0.00000000 0.00000000 1.00000000
vn -0.33596499 -0.83177060 -0.44191084
vn 0.33596499 -0.83177060 -0.44191084
vn -0.33596499 0.83177060 -0.44191084
vn 0.33596499 0.83177060 -0.44191084
vn 0.00000000 0.00000000 -1.00000000
vn 0.83273089 0.48865989 -0.26032821
vn 0.83273089 -0.48865989 -0.26032821
vn 0.56728286 -0.32942456 -0.75476461
vn 0.56728286 0.32942456 -0.75476461
vn 0.83273089 0.48865989 0.26032821
vn 0.83273089 -0.48865989 0.26032821
vn 0.56728286 -0.32942456 0.75476461
vn 0.56728286 0.32942456 0.75476461
vn 1.00000000 0.00000000 0.00000000
vn -0.83273089 0.48865989 -0.26032821
vn -0.83273089 -0.48865989 -0.26032821
vn -0.56728286 -0.32942456 -0.75476461
vn -0.56728286 0.32942456 -0.75476461
vn -0.83273089 0.48865989 0.26032821
vn -0.83273089 -0.48865989 0.26032821
vn -0.56728286 -0.32942456 0.75476461
vn -0.56728286 0.32942456 0.75476461
vn -1.00000000 -0.00000000 0.00000000
vn -0.54747783 0.83682019 -0.00000000
vn 0.54747783 0.83682019 0.00000000
vn -0.54747783 -0.83682019 0.00000000
vn 0.54747783 -0.83682019 -0.00000000
vn 0.00000000 -0.58124247 0.81373042
vn 0.00000000 0.58124247 0.81373042
vn 0.00000000 -0.58124247 -0.81373042
vn -0.00000000 0.58124247 -0.81373042
vn 0.89355272 -0.00000000 -0.44895827
vn 0.89355272 -0.00000000 0.44895827
vn -0.89355272 0.00000000 -0.44895827
vn -0.89355272 0.00000000 0.44895827
vn 0.00000000 1.00000000 0.00000000
vn 0.00000000 -1.00000000 0.00000000
vn -0.33596499 -0.83177060 0.44191084
vn 0.33596499 -0.83177060 0.44191084
vn -0.33596499 0.83177060 0.44191084
vn 0.33596499 0.83177060 0.44191084
vn 0.00000000 0.00000000 1.00000000
vn -0.33596499 -0.83177060 -0.44191084
vn 0.33596499 -0.83177060 -0.44191084
vn -0.33596499 0.83177060 -0.44191084
vn 0.33596499 0.83177060 -0.44191084
vn 0.00000000 0.00000000 -1.00000000
vn 0.83273089 0.48865989 -0.26032821
vn 0.83273089 -0.48865989 -0.26032821
vn 0.56728286 -0.32942456 -0.75476461
vn 0.56728286 0.32942456 -0.75476461
vn 0.83273089 0.48865989 0.26032821
vn 0.83273089 -0.48865989 0.26032821
vn 0.56728286 -0.32942456 0.75476461
vn 0.56728286 0.32942456 0.75476461
vn 1.00000000 0.00000000 0.00000000
vn -0.83273089 0.48865989 -0.26032821
vn -0.83273089 -0.48865989 -0.26032821
vn -0.56728286 -0.32942456 -0.75476461
vn -0.56728286 0.32942456 -0.75476461
vn -0.83273089 0.48865989 0.26032821
vn -0.83273089 -0.48865989 0.26032821
vn -0.56728286 -0.32942456 0.75476461
vn -0.56728286 0.32942456 0.75476461
vn -1.00000000 -0.00000000 0.00000000
vn -0.54777324 -0.60548422 -0.57735027
vn -0.54777324 -0.60548422 0.57735027
vn -0.60548422 0.54777324 -0.57735027
vn -0.60548422 0.54777324 0.57735027
vn 0.60548422 -0.54777324 -0.57735027
vn 0.60548422 -0.54777324 0.57735027
vn 0.54777324 0.60548422 -0.57735027
vn 0.54777324 0.60548422 0.57735027
f 1//1 138//138 54//54
f 138//138 38//38 140//140
f 54//54 140//140 17//17
f 138//138 140//140 54//54
f 38//38 139//139 155//155
f 139//139 12//12 152//152
f 155//155 152//152 41//41
f 139//139 152//152 155//155
f 17//17 153//153 55//55
f 153//153 41//41 151//151
f 55//55 151//151 6//6
f 153//153 151//151 55//55
f 38//38 155//155 140//140
f 155//155 41//41 153//153
f 140//140 153//153 17//17
f 155//155 153//153 140//140
f 1//1 54//54 43//43
f 54//54 17//17 56//56
f 43//43 56//56 13//13
f 54//54 56//56 43//43
f 17//17 55//55 60//60
f 55//55 6//6 58//58
f 60//60 58//58 18//18
f 55//55 58//58 60//60
f 13//13 59//59 44//44
f 59//59 18//18 57//57
f 44//44 57//57 2//2
f 59//59 57//57 44//44
f 17//17 60//60 56//56
f 60//60 18//18 59//59
f 56//56 59//59 13//13
f 60//60 59//59 56//56
f 1//1 43//43 70//70
f 43//43 13//13 72//72
f 70//70 72//72 22//22
f 43//43 72//72 70//70
f 13//13 44//44 75//75
f 44//44 2//2 73//73
f 75//75 73//73 23//23
f 44//44 73//73 75//75
f 22//22 76//76 71//71
f 76//76 23//23 74//74
f 71//71 74//74 8//8
f 76//76 74//74 71//71
f 13//13 75//75 72//72
f 75//75 23//23 76//76
f 72//72 76//76 22//22
f 75//75 76//76 72//72
f 1//1 70//70 121//121
f 70//70 22//22 123//123
f 121//121 123//123 34//34
f 70//70 123//123 121//121
f 22//22 71//71 134//134
f 71//71 8//8 132//132
f 134//134 132//132 37//37
f 71//71 132//132 134//134
f 34//34 136//136 122//122
f 136//136 37//37 133//133
f 122//122 133//133 11//11
f 136//136 133//133 122//122
f 22//22 134//134 123//123
f 134//134 37//37 136//136
f 123//123 136//136 34//34
f 134//134 136//136 123//123
f 1//1 121//121 138//138
f 121//121 34//34 141//141
f 138//138 141//141 38//38
f 121//121 141//141 138//138
f 34//34 122//122 159//159
f 122//122 11//11 157//157
f 159//159 157//157 42//42
f 122//122 157//157 159//159
f 38//38 161//161 139//139
f 161//161 42//42 158//158
f 139//139 158//158 12//12
f 161//161 158//158 139//139
f 34//34 159//159 141//141
f 159//159 42//42 161//161
f 141//141 161//161 38//38
f 159//159 161//161 141//141
f 2//2 57//57 96//96
f 57//57 18//18 98//98
f 96//96 98//98 29//29
f 57//57 98//98 96//96
f 18//18 58//58 111//111
f 58//58 6//6 109//109
f 111//111 109//109 32//32
f 58//58 109//109 111//111
f 29//29 113//113 97//97
f 113//113 32//32 110//110
f 97//97 110//110 10//10
f 113//113 110//110 97//97
f 18//18 111//111 98//98
f 111//111 32//32 113//113
f 98//98 113//113 29//29
f 111//111 113//113 98//98
f 6//6 151//151 62//62
f 151//151 41//41 154//154
f 62//62 154//154 19//19
f 151//151 154//154 62//62
f 41//41 152//152 156//156
f 152//152 12//12 147//147
f 156//156 147//147 40//40
f 152//152 147//147 156//156
f 19//19 149//149 61//61
f 149//149 40//40 146//146
f 61//61 146//146 5//5
f 149//149 146//146 61//61
f 41//41 156//156 154//154
f 156//156 40//40 149//149
f 154//154 149//149 19//19
f 156//156 149//149 154//154
f 12//12 158//158 143//143
f 158//158 42//42 162//162
f 143//143 162//162 39//39
f 158//158 162//162 143//143
f 42//42 157//157 160//160
f 157//157 11//11 125//125
f 160//160 125//125 35//35
f 157//157 125//125 160//160
f 39//39 145//145 142//142
f 145//145 35//35 124//124
f 142//142 124//124 3//3
f 145//145 124//124 142//142
f 42//42 160//160 162//162
f 160//160 35//35 145//145
f 162//162 145//145 39//39
f 160//160 145//145 162//162
f 11//11 133//133 128//128
f 133//133 37//37 137//137
f 128//128 137//137 36//36
f 133//133 137//137 128//128
f 37//37 132//132 135//135
f 132//132 8//8 78//78
f 135//135 78//78 24//24
f 132//132 78//78 135//135
f 36//36 130//130 127//127
f 130//130 24//24 77//77
f 127//127 77//77 7//7
f 130//130 77//77 127//127
f 37//37 135//135 137//137
f 135//135 24//24 130//130
f 137//137 130//130 36//36
f 135//135 130//130 137//137
f 8//8 74//74 90//90
f 74//74 23//23 92//92
f 90//90 92//92 28//28
f 74//74 92//92 90//90
f 23//23 73//73 81//81
f 73//73 2//2 79//79
f 81//81 79//79 25//25
f 73//73 79//79 81//81
f 28//28 94//94 91//91
f 94//94 25//25 80//80
f 91//91 80//80 9//9
f 94//94 80//80 91//91
f 23//23 81//81 92//92
f 81//81 25//25 94//94
f 92//92 94//94 28//28
f 81//81 94//94 92//92
f 4//4 100//100 50//50
f 100//100 30//30 102//102
f 50//50 102//102 16//16
f 100//100 102//102 50//50
f 30//30 101//101 108//108
f 101//101 10//10 105//105
f 108//108 105//105 31//31
f 101//101 105//105 108//108
f 16//16 106//106 51//51
f 106//106 31//31 104//104
f 51//51 104//104 5//5
f 106//106 104//104 51//51
f 30//30 108//108 102//102
f 108//108 31//31 106//106
f 102//102 106//106 16//16
f 108//108 106//106 102//102
f 4//4 50//50 46//46
f 50//50 16//16 52//52
f 46//46 52//52 14//14
f 50//50 52//52 46//46
f 16//16 51//51 53//53
f 51//51 5//5 48//48
f 53//53 48//48 15//15
f 51//51 48//48 53//53
f 14//14 49//49 45//45
f 49//49 15//15 47//47
f 45//45 47//47 3//3
f 49//49 47//47 45//45
f 16//16 53//53 52//52
f 53//53 15//15 49//49
f 52//52 49//49 14//14
f 53//53 49//49 52//52
f 4//4 46//46 66//66
f 46//46 14//14 68//68
f 66//66 68//68 21//21
f 46//46 68//68 66//66
f 14//14 45//45 65//65
f 45//45 3//3 63//63
f 65//65 63//63 20//20
f 45//45 63//63 65//65
f 21//21 69//69 67//67
f 69//69 20//20 64//64
f 67//67 64//64 7//7
f 69//69 64//64 67//67
f 14//14 65//65 68//68
f 65//65 20//20 69//69
f 68//68 69//69 21//21
f 65//65 69//69 68//68
f 4//4 66//66 82//82
f 66//66 21//21 84//84
f 82//82 84//84 26//26
f 66//66 84//84 82//82
f 21//21 67//67 87//87
f 67//67 7//7 85//85
f 87//87 85//85 27//27
f 67//67 85//85 87//87
f 26//26 89//89 83//83
f 89//89 27//27 86//86
f 83//83 86//86 9//9
f 89//89 86//86 83//83
f 21//21 87//87 84//84
f 87//87 27//27 89//89
f 84//84 89//89 26//26
f 87//87 89//89 84//84
f 4//4 82//82 100//100
f 82//82 26//26 103//103
f 100//100 103//103 30//30
f 82//82 103//103 100//100
f 26//26 83//83 118//118
f 83//83 9//9 115//115
f 118//118 115//115 33//33
f 83//83 115//115 118//118
f 30//30 120//120 101//101
f 120//120 33//33 116//116
f 101//101 116//116 10//10
f 120//120 116//116 101//101
f 26//26 118//118 103//103
f 118//118 33//33 120//120
f 103//103 120//120 30//30
f 118//118 120//120 103//103
f 5//5 104//104 61//61
f 104//104 31//31 107//107
f 61//61 107//107 19//19
f 104//104 107//107 61//61
f 31//31 105//105 114//114
f 105//105 10//10 110//110
f 114//114 110//110 32//32
f 105//105 110//110 114//114
f 19//19 112//112 62//62
f 112//112 32//32 109//109
f 62//62 109//109 6//6
f 112//112 109//109 62//62
f 31//31 114//114 107//107
f 114//114 32//32 112//112
f 107//107 112//112 19//19
f 114//114 112//112 107//107
f 3//3 47//47 142//142
f 47//47 15//15 144//144
f 142//142 144//144 39//39
f 47//47 144//144 142//142
f 15//15 48//48 148//148
f 48//48 5//5 146//146
f 148//148 146//146 40//40
f 48//48 146//146 148//148
f 39//39 150//150 143//143
f 150//150 40//40 147//147
f 143//143 147//147 12//12
f 150//150 147//147 143//143
f 15//15 148//148 144//144
f 148//148 40//40 150//150
f 144//144 150//150 39//39
f 148//148 150//150 144//144
f 7//7 64//64 127//127
f 64//64 20//20 129//129
f 127//127 129//129 36//36
f 64//64 129//129 127//127
f 20//20 63//63 126//126
f 63//63 3//3 124//124
f 126//126 124//124 35//35
f 63//63 124//124 126//126
f 36//36 131//131 128//128
f 131//131 35//35 125//125
f 128//128 125//125 11//11
f 131//131 125//125 128//128
f 20//20 126//126 129//129
f 126//126 35//35 131//131
f 129//129 131//131 36//36
f 126//126 131//131 129//129
f 9//9 86//86 91//91
f 86//86 27//27 95//95
f 91//91 95//95 28//28
f 86//86 95//95 91//91
f 27//27 85//85 88//88
f 85//85 7//7 77//77
f 88//88 77//77 24//24
f 85//85 77//77 88//88
f 28//28 93//93 90//90
f 93//93 24//24 78//78
f 90//90 78//78 8//8
f 93//93 78//78 90//90
f 27//27 88//88 95//95
f 88//88 24//24 93//93
f 95//95 93//93 28//28
f 88//88 93//93 95//95
f 10//10 116//116 97//97
f 116//116 33//33 119//119
f 97//97 119//119 29//29
f 116//116 119//119 97//97
f 33//33 115//115 117//117
f 115//115 9//9 80//80
f 117//117 80//80 25//25
f 115//115 80//80 117//117
f 29//29 99//99 96//96
f 99//99 25//25 79//79
f 96//96 79//79 2//2
f 99//99 79//79 96//96
f 33//33 117//117 119//119
f 117//117 25//25 99//99
f 119//119 99//99 29//29
f 117//117 99//99 119//119
f 163//163 300//300 216//216
f 300//300 200//200 302//302
f 216//216 302//302 179//179
f 300//300 302//302 216//216
f 200//200 301//301 317//317
f 301//301 174//174 314//314
f 317//317 314//314 203//203
f 301//301 314//314 317//317
f 179//179 315//315 217//217
f 315//315 203//203 313//313
f 217//217 313//313 168//168
f 315//315 313//313 217//217
f 200//200 317//317 302//302
f 317//317 203//203 315//315
f 302//302 315//315 179//179
f 317//317 315//315 302//302
f 163//163 216//216 205//205
f 216//216 179//179 218//218
f 205//205 218//218 175//175
f 216//216 218//218 205//205
f 179//179 217//217 222//222
f 217//217 168//168 220//220
f 222//222 220//220 180//180
f 217//217 220//220 222//222
f 175//175 221//221 206//206
f 221//221 180//180 219//219
f 206//206 219//219 164//164
f 221//221 219//219 206//206
f 179//179 222//222 218//218
f 222//222 180//180 221//221
f 218//218 221//221 175//175
f 222//222 221//221 218//218
f 163//163 205//205 232//232
f 205//205 175//175 234//234
f 232//232 234//234 184//184
f 205//205 234//234 232//232
f 175//175 206//206 237//237
f 206//206 164//164 235//235
f 237//237 235//235 185//185
f 206//206 235//235 237//237
f 184//184 238//238 233//233
f 238//238 185//185 236//236
f 233//233 236//236 170//170
f 238//238 236//236 233//233
f 175//175 237//237 234//234
f 237//237 185//185 238//238
f 234//234 238//238 184//184
f 237//237 238//238 234//234
f 163//163 232//232 283//283
f 232//232 184//184 285//285
f 283//283 285//285 196//196
f 232//232 285//285 283//283
f 184//184 233//233 296//296
f 233//233 170//170 294//294
f 296//296 294//294 199//199
f 233//233 294//294 296//296
f 196//196 298//298 284//284
f 298//298 199//199 295//295
f 284//284 295//295 173//173
f 298//298 295//295 284//284
f 184//184 296//296 285//285
f 296//296 199//199 298//298
f 285//285 298//298 196//196
f 296//296 298//298 285//285
f 163//163 283//283 300//300
f 283//283 196//196 303//303
f 300//300 303//303 200//200
f 283//283 303//303 300//300
f 196//196 284//284 321//321
f 284//284 173//173 319//319
f 321//321 319//319 204//204
f 284//284 319//319 321//321
f 200//200 323//323 301//301
f 323//323 204//204 320//320
f 301//301 320//320 174//174
f 323//323 320//320 301//301
f 196//196 321//321 303//303
f 321//321 204//204 323//323
f 303//303 323//323 200//200
f 321//321 323//323 303//303
f 164//164 219//219 258//258
f 219//219 180//180 260//260
f 258//258 260//260 191//191
f 219//219 260//260 258//258
f 180//180 220//220 273//273
f 220//220 168//168 271//271
f 273//273 271//271 194//194
f 220//220 271//271 273//273
f 191//191 275//275 259//259
f 275//275 194//194 272//272
f 259//259 272//272 172//172
f 275//275 272//272 259//259
f 180//180 273//273 260//260
f 273//273 194//194 275//275
f 260//260 275//275 191//191
f 273//273 275//275 260//260
f 168//168 313//313 224//224
f 313//313 203//203 316//316
f 224//224 316//316 181//181
f 313//313 316//316 224//224
f 203//203 314//314 318//318
f 314//314 174//174 309//309
f 318//318 309//309 202//202
f 314//314 309//309 318//318
f 181//181 311//311 223//223
f 311//311 202//202 308//308
f 223//223 308//308 167//167
f 311//311 308//308 223//223
f 203//203 318//318 316//316
f 318//318 202//202 311//311
f 316//316 311//311 181//181
f 318//318 311//311 316//316
f 174//174 320//320 305//305
f 320//320 204//204 324//324
f 305//305 324//324 201//201
f 320//320 324//324 305//305
f 204//204 319//319 322//322
f 319//319 173//173 287//287
f 322//322 287//287 197//197
f 319//319 287//287 322//322
f 201//201 307//307 304//304
f 307//307 197//197 286//286
f 304//304 286//286 165//165
f 307//307 286//286 304//304
f 204//204 322//322 324//324
f 322//322 197//197 307//307
f 324//324 307//307 201//201
f 322//322 307//307 324//324
f 173//173 295//295 290//290
f 295//295 199//199 299//299
f 290//290 299//299 198//198
f 295//295 299//299 290//290
f 199//199 294//294 297//297
f 294//294 170//170 240//240
f 297//297 240//240 186//186
f 294//294 240//240 297//297
f 198//198 292//292 289//289
f 292//292 186//186 239//239
f 289//289 239//239 169//169
f 292//292 239//239 289//289
f 199//199 297//297 299//299
f 297//297 186//186 292//292
f 299//299 292//292 198//198
f 297//297 292//292 299//299
f 170//170 236//236 252//252
f 236//236 185//185 254//254
f 252//252 254//254 190//190
f 236//236 254//254 252//252
f 185//185 235//235 243//243
f 235//235 164//164 241//241
f 243//243 241//241 187//187
f 235//235 241//241 243//243
f 190//190 256//256 253//253
f 256//256 187//187 242//242
f 253//253 242//242 171//171
f 256//256 242//242 253//253
f 185//185 243//243 254//254
f 243//243 187//187 256//256
f 254//254 256//256 190//190
f 243//243 256//256 254//254
f 166//166 262//262 212//212
f 262//262 192//192 264//264
f 212//212 264//264 178//178
f 262//262 264//264 212//212
f 192//192 263//263 270//270
f 263//263 172//172 267//267
f 270//270 267//267 193//193
f 263//263 267//267 270//270
f 178//178 268//268 213//213
f 268//268 193//193 266//266
f 213//213 266//266 167//167
f 268//268 266//266 213//213
f 192//192 270//270 264//264
f 270//270 193//193 268//268
f 264//264 268//268 178//178
f 270//270 268//268 264//264
f 166//166 212//212 208//208
f 212//212 178//178 214//214
f 208//208 214//214 176//176
f 212//212 214//214 208//208
f 178//178 213//213 215//215
f 213//213 167//167 210//210
f 215//215 210//210 177//177
f 213//213 210//210 215//215
f 176//176 211//211 207//207
f 211//211 177//177 209//209
f 207//207 209//209 165//165
f 211//211 209//209 207//207
f 178//178 215//215 214//214
f 215//215 177//177 211//211
f 214//214 211//211 176//176
f 215//215 211//211 214//214
f 166//166 208//208 228//228
f 208//208 176//176 230//230
f 228//228 230//230 183//183
f 208//208 230//230 228//228
f 176//176 207//207 227//227
f 207//207 165//165 225//225
f 227//227 225//225 182//182
f 207//207 225//225 227//227
f 183//183 231//231 229//229
f 231//231 182//182 226//226
f 229//229 226//226 169//169
f 231//231 226//226 229//229
f 176//176 227//227 230//230
f 227//227 182//182 231//231
f 230//230 231//231 183//183
f 227//227 231//231 230//230
f 166//166 228//228 244//244
f 228//228 183//183 246//246
f 244//244 246//246 188//188
f 228//228 246//246 244//244
f 183//183 229//229 249//249
f 229//229 169//169 247//247
f 249//249 247//247 189//189
f 229//229 247//247 249//249
f 188//188 251//251 245//245
f 251//251 189//189 248//248
f 245//245 248//248 171//171
f 251//251 248//248 245//245
f 183//183 249//249 246//246
f 249//249 189//189 251//251
f 246//246 251//251 188//188
f 249//249 251//251 246//246
f 166//166 244//244 262//262
f 244//244 188//188 265//265
f 262//262 265//265 192//192
f 244//244 265//265 262//262
f 188//188 245//245 280//280
f 245//245 171//171 277//277
f 280//280 277//277 195//195
f 245//245 277//277 280//280
f 192//192 282//282 263//263
f 282//282 195//195 278//278
f 263//263 278//278 172//172
f 282//282 278//278 263//263
f 188//188 280//280 265//265
f 280//280 195//195 282//282
f 265//265 282//282 192//192
f 280//280 282//282 265//265
f 167//167 266//266 223//223
f 266//266 193//193 269//269
f 223//223 269//269 181//181
f 266//266 269//269 223//223
f 193//193 267//267 276//276
f 267//267 172//172 272//272
f 276//276 272//272 194//194
f 267//267 272//272 276//276
f 181//181 274//274 224//224
f 274//274 194//194 271//271
f 224//224 271//271 168//168
f 274//274 271//271 224//224
f 193//193 276//276 269//269
f 276//276 194//194 274//274
f 269//269 274//274 181//181
f 276//276 274//274 269//269
f 165//165 209//209 304//304
f 209//209 177//177 306//306
f 304//304 306//306 201//201
f 209//209 306//306 304//304
f 177//177 210//210 310//310
f 210//210 167//167 308//308
f 310//310 308//308 202//202
f 210//210 308//308 310//310
f 201//201 312//312 305//305
f 312//312 202//202 309//309
f 305//305 309//309 174//174
f 312//312 309//309 305//305
f 177//177 310//310 306//306
f 310//310 202//202 312//312
f 306//306 312//312 201//201
f 310//310 312//312 306//306
f 169//169 226//226 289//289
f 226//226 182//182 291//291
f 289//289 291//291 198//198
f 226//226 291//291 289//289
f 182//182 225//225 288//288
f 225//225 165//165 286//286
f 288//288 286//286 197//197
f 225//225 286//286 288//288
f 198//198 293//293 290//290
f 293//293 197//197 287//287
f 290//290 287//287 173//173
f 293//293 287//287 290//290
f 182//182 288//288 291//291
f 288//288 197//197 293//293
f 291//291 293//293 198//198
f 288//288 293//293 291//291
f 171//171 248//248 253//253
f 248//248 189//189 257//257
f 253//253 257//257 190//190
f 248//248 257//257 253//253
f 189//189 247//247 250//250
f 247//247 169//169 239//239
f 250//250 239//239 186//186
f 247//247 239//239 250//250
f 190//190 255//255 252//252
f 255//255 186//186 240//240
f 252//252 240//240 170//170
f 255//255 240//240 252//252
f 189//189 250//250 257//257
f 250//250 186//186 255//255
f 257//257 255//255 190//190
f 250//250 255//255 257//257
f 172//172 278//278 259//259
f 278//278 195//195 281//281
f 259//259 281//281 191//191
f 278//278 281//281 259//259
f 195//195 277//277 279//279
f 277//277 171//171 242//242
f 279//279 242//242 187//187
f 277//277 242//242 279//279
f 191//191 261//261 258//258
f 261//261 187//187 241//241
f 258//258 241//241 164//164
f 261//261 241//241 258//258
f 195//195 279//279 281//281
f 279//279 187//187 261//261
f 281//281 261//261 191//191
f 279//279 261//261 281//281
f 325//325 362//362 341//341
f 362//362 336//336 365//365
f 341//341 365//365 330//330
f 362//362 365//365 341//341
f 325//325 341//341 337//337
f 341//341 330//330 342//342
f 337//337 342//342 326//326
f 341//341 342//342 337//337
f 325//325 337//337 346//346
f 337//337 326//326 347//347
f 346//346 347//347 332//332
f 337//337 347//347 346//346
f 325//325 346//346 358//358
f 346//346 332//332 361//361
f 358//358 361//361 335//335
f 346//346 361//361 358//358
f 325//325 358//358 362//362
f 358//358 335//335 366//366
f 362//362 366//366 336//336
f 358//358 366//366 362//362
f 326//326 342//342 353//353
f 342//342 330//330 356//356
f 353//353 356//356 334//334
f 342//342 356//356 353//353
f 330//330 365//365 343//343
f 365//365 336//336 364//364
f 343//343 364//364 329//329
f 365//365 364//364 343//343
f 336//336 366//366 363//363
f 366//366 335//335 359//359
f 363//363 359//359 327//327
f 366//366 359//359 363//363
f 335//335 361//361 360//360
f 361//361 332//332 348//348
f 360//360 348//348 331//331
f 361//361 348//348 360//360
f 332//332 347//347 352//352
f 347//347 326//326 349//349
f 352//352 349//349 333//333
f 347//347 349//349 352//352
f 328//328 354//354 340//340
f 354//354 334//334 355//355
f 340//340 355//355 329//329
f 354//354 355//355 340//340
f 328//328 340//340 338//338
f 340//340 329//329 339//339
f 338//338 339//339 327//327
f 340//340 339//339 338//338
f 328//328 338//338 345//345
f 338//338 327//327 344//344
f 345//345 344//344 331//331
f 338//338 344//344 345//345
f 328//328 345//345 350//350
f 345//345 331//331 351//351
f 350//350 351//351 333//333
f 345//345 351//351 350//350
f 328//328 350//350 354//354
f 350//350 333//333 357//357
f 354//354 357//357 334//334
f 350//350 357//357 354//354
f 329//329 355//355 343//343
f 355//355 334//334 356//356
f 343//343 356//356 330//330
f 355//355 356//356 343//343
f 327//327 339//339 363//363
f 339//339 329//329 364//364
f 363//363 364//364 336//336
f 339//339 364//364 363//363
f 331//331 344//344 360//360
f 344//344 327//327 359//359
f 360//360 359//359 335//335
f 344//344 359//359 360//360
f 333//333 351//351 352//352
f 351//351 331//331 348//348
f 352//352 348//348 332//332
f 351//351 348//348 352//352
f 334//334 357//357 353//353
f 357//357 333//333 349//349
f 353//353 349//349 326//326
f 357//357 349//349 353//353
f 367//367 404//404 383//383
f 404//404 378//378 407//407
f 383//383 407//407 372//372
f 404//404 407//407 383//383
f 367//367 383//383 379//379
f 383//383 372//372 384//384
f 379//379 384//384 368//368
f 383//383 384//384 379//379
f 367//367 379//379 388//388
f 379//379 368//368 389//389
f 388//388 389//389 374//374
f 379//379 389//389 388//388
f 367//367 388//388 400//400
f 388//388 374//374 403//403
f 400//400 403//403 377//377
f 388//388 403//403 400//400
f 367//367 400//400 404//404
f 400//400 377//377 408//408
f 404//404 408//408 378//378
f 400//400 408//408 404//404
f 368//368 384//384 395//395
f 384//384 372//372 398//398
f 395//395 398//398 376//376
f 384//384 398//398 395//395
f 372//372 407//407 385//385
f 407//407 378//378 406//406
f 385//385 406//406 371//371
f 407//407 406//406 385//385
f 378//378 408//408 405//405
f 408//408 377//377 401//401
f 405//405 401//401 369//369
f 408//408 401//401 405//405
f 377//377 403//403 402//402
f 403//403 374//374 390//390
f 402//402 390//390 373//373
f 403//403 390//390 402//402
f 374//374 389//389 394//394
f 389//389 368//368 391//391
f 394//394 391//391 375//375
f 389//389 391//391 394//394
f 370//370 396//396 382//382
f 396//396 376//376 397//397
f 382//382 397//397 371//371
f 396//396 397//397 382//382
f 370//370 382//382 380//380
f 382//382 371//371 381//381
f 380//380 381//381 369//369
f 382//382 381//381 380//380
f 370//370 380//380 387//387
f 380//380 369//369 386//386
f 387//387 386//386 373//373
f 380//380 386//386 387//387
f 370//370 387//387 392//392
f 387//387 373//373 393//393
f 392//392 393//393 375//375
f 387//387 393//393 392//392
f 370//370 392//392 396//396
f 392//392 375//375 399//399
f 396//396 399//399 376//376
f 392//392 399//399 396//396
f 371//371 397//397 385//385
f 397//397 376//376 398//398
f 385//385 398//398 372//372
f 397//397 398//398 385//385
f 369//369 381//381 405//405
f 381//381 371//371 406//406
f 405//405 406//406 378//378
f 381//381 406//406 405//405
f 373//373 386//386 402//402
f 386//386 369//369 401//401
f 402//402 401//401 377//377
f 386//386 401//401 402//402
f 375//375 393//393 394//394
f 393//393 373//373 390//390
f 394//394 390//390 374//374
f 393//393 390//390 394//394
f 376//376 399//399 395//395
f 399//399 375//375 391//391
f 395//395 391//391 368//368
f 399//399 391//391 395//395
f 410//410 412//412 409//409
f 413//413 410//410 409//409
f 409//409 412//412 411//411
f 411//411 413//413 409//409
f 410//410 416//416 412//412
f 414//414 410//410 413//413
f 414//414 416//416 410//410
f 412//412 416//416 411//411
f 415//415 413//413 411//411
f 411//411 416//416 415//415
f 415//415 414//414 413//413
f 416//416 414//414 415//415

